<svg viewBox="0 0 2372 1101" xmlns="http://www.w3.org/2000/svg">
<rect fill="white" height="100%" width="100%"/>
<rect height="279" style="stroke:pink;stroke-width:10;fill:gray;fill-opacity:0.1;stroke-opacity:0.9" width="636" x="1719" y="324"/>
<circle cx="346" cy="647" r="5" style="fill:blue"/>
<circle cx="1522" cy="661" r="5" style="fill:blue"/>
<circle cx="2192" cy="232" r="5" style="fill:blue"/>
<circle cx="669" cy="583" r="5" style="fill:blue"/>
<circle cx="131" cy="982" r="5" style="fill:blue"/>
<circle cx="1679" cy="433" r="5" style="fill:blue"/>
<circle cx="88" cy="554" r="5" style="fill:blue"/>
<circle cx="182" cy="38" r="5" style="fill:blue"/>
<circle cx="1183" cy="208" r="5" style="fill:blue"/>
<circle cx="186" cy="851" r="5" style="fill:blue"/>
<circle cx="485" cy="233" r="5" style="fill:blue"/>
<circle cx="1705" cy="930" r="5" style="fill:blue"/>
<circle cx="1755" cy="726" r="5" style="fill:blue"/>
<circle cx="846" cy="268" r="5" style="fill:blue"/>
<circle cx="2281" cy="932" r="5" style="fill:blue"/>
<circle cx="1593" cy="893" r="5" style="fill:blue"/>
<circle cx="92" cy="580" r="5" style="fill:blue"/>
<circle cx="159" cy="943" r="5" style="fill:blue"/>
<circle cx="110" cy="761" r="5" style="fill:blue"/>
<circle cx="1665" cy="883" r="5" style="fill:blue"/>
<circle cx="760" cy="527" r="5" style="fill:blue"/>
<circle cx="1515" cy="263" r="5" style="fill:blue"/>
<circle cx="837" cy="966" r="5" style="fill:blue"/>
<circle cx="1208" cy="380" r="5" style="fill:blue"/>
<circle cx="2220" cy="82" r="5" style="fill:blue"/>
<circle cx="948" cy="76" r="5" style="fill:blue"/>
<circle cx="697" cy="1020" r="5" style="fill:blue"/>
<circle cx="1002" cy="794" r="5" style="fill:blue"/>
<circle cx="1451" cy="150" r="5" style="fill:blue"/>
<circle cx="1675" cy="714" r="5" style="fill:blue"/>
<circle cx="242" cy="1025" r="5" style="fill:blue"/>
<circle cx="2231" cy="171" r="5" style="fill:blue"/>
<circle cx="1817" cy="280" r="5" style="fill:blue"/>
<circle cx="1507" cy="651" r="5" style="fill:blue"/>
<circle cx="834" cy="216" r="5" style="fill:blue"/>
<circle cx="433" cy="987" r="5" style="fill:blue"/>
<circle cx="75" cy="90" r="5" style="fill:blue"/>
<circle cx="44" cy="829" r="5" style="fill:blue"/>
<circle cx="674" cy="767" r="5" style="fill:blue"/>
<circle cx="927" cy="622" r="5" style="fill:blue"/>
<circle cx="653" cy="329" r="5" style="fill:blue"/>
<circle cx="1793" cy="705" r="5" style="fill:blue"/>
<circle cx="1409" cy="903" r="5" style="fill:blue"/>
<circle cx="561" cy="406" r="5" style="fill:blue"/>
<circle cx="1024" cy="264" r="5" style="fill:blue"/>
<circle cx="690" cy="575" r="5" style="fill:blue"/>
<circle cx="415" cy="145" r="5" style="fill:blue"/>
<circle cx="96" cy="582" r="5" style="fill:blue"/>
<circle cx="2168" cy="776" r="5" style="fill:blue"/>
<circle cx="1031" cy="1026" r="5" style="fill:blue"/>
<circle cx="1093" cy="909" r="5" style="fill:blue"/>
<circle cx="391" cy="231" r="5" style="fill:blue"/>
<circle cx="5" cy="746" r="5" style="fill:blue"/>
<circle cx="59" cy="743" r="5" style="fill:blue"/>
<circle cx="636" cy="958" r="5" style="fill:blue"/>
<circle cx="778" cy="383" r="5" style="fill:blue"/>
<circle cx="1628" cy="392" r="5" style="fill:blue"/>
<circle cx="924" cy="1" r="5" style="fill:blue"/>
<circle cx="748" cy="609" r="5" style="fill:blue"/>
<circle cx="2190" cy="197" r="5" style="fill:blue"/>
<circle cx="750" cy="150" r="5" style="fill:blue"/>
<circle cx="1433" cy="152" r="5" style="fill:blue"/>
<circle cx="1497" cy="527" r="5" style="fill:blue"/>
<circle cx="579" cy="509" r="5" style="fill:blue"/>
<circle cx="229" cy="934" r="5" style="fill:blue"/>
<circle cx="1559" cy="958" r="5" style="fill:blue"/>
<circle cx="76" cy="11" r="5" style="fill:blue"/>
<circle cx="496" cy="305" r="5" style="fill:blue"/>
<circle cx="1396" cy="142" r="5" style="fill:blue"/>
<circle cx="909" cy="778" r="5" style="fill:blue"/>
<circle cx="922" cy="121" r="5" style="fill:blue"/>
<circle cx="477" cy="203" r="5" style="fill:blue"/>
<circle cx="56" cy="393" r="5" style="fill:blue"/>
<circle cx="1915" cy="50" r="5" style="fill:blue"/>
<circle cx="1031" cy="125" r="5" style="fill:blue"/>
<circle cx="1110" cy="401" r="5" style="fill:blue"/>
<circle cx="737" cy="887" r="5" style="fill:blue"/>
<circle cx="596" cy="1047" r="5" style="fill:blue"/>
<circle cx="921" cy="5" r="5" style="fill:blue"/>
<circle cx="947" cy="194" r="5" style="fill:blue"/>
<circle cx="1206" cy="535" r="5" style="fill:blue"/>
<circle cx="1305" cy="566" r="5" style="fill:blue"/>
<circle cx="632" cy="938" r="5" style="fill:blue"/>
<circle cx="941" cy="184" r="5" style="fill:blue"/>
<circle cx="1587" cy="839" r="5" style="fill:blue"/>
<circle cx="619" cy="471" r="5" style="fill:blue"/>
<circle cx="1666" cy="433" r="5" style="fill:blue"/>
<circle cx="1698" cy="986" r="5" style="fill:blue"/>
<circle cx="1866" cy="990" r="5" style="fill:blue"/>
<circle cx="1566" cy="75" r="5" style="fill:blue"/>
<circle cx="83" cy="637" r="5" style="fill:blue"/>
<circle cx="2130" cy="778" r="5" style="fill:blue"/>
<circle cx="1183" cy="608" r="5" style="fill:blue"/>
<circle cx="1043" cy="572" r="5" style="fill:blue"/>
<circle cx="2370" cy="1068" r="5" style="fill:blue"/>
<circle cx="1216" cy="881" r="5" style="fill:blue"/>
<circle cx="2127" cy="886" r="5" style="fill:blue"/>
<circle cx="2165" cy="1046" r="5" style="fill:blue"/>
<circle cx="1879" cy="659" r="5" style="fill:blue"/>
<circle cx="1906" cy="85" r="5" style="fill:blue"/>
<circle cx="1014" cy="319" r="5" style="fill:blue"/>
<circle cx="53" cy="283" r="5" style="fill:blue"/>
<circle cx="1024" cy="287" r="5" style="fill:blue"/>
<circle cx="444" cy="774" r="5" style="fill:blue"/>
<circle cx="1016" cy="506" r="5" style="fill:blue"/>
<circle cx="2369" cy="301" r="5" style="fill:blue"/>
<circle cx="994" cy="559" r="5" style="fill:blue"/>
<circle cx="1531" cy="687" r="5" style="fill:blue"/>
<circle cx="1997" cy="685" r="5" style="fill:blue"/>
<circle cx="1372" cy="530" r="5" style="fill:blue"/>
<circle cx="1196" cy="975" r="5" style="fill:blue"/>
<circle cx="2190" cy="705" r="5" style="fill:blue"/>
<circle cx="2086" cy="698" r="5" style="fill:blue"/>
<circle cx="1296" cy="490" r="5" style="fill:blue"/>
<circle cx="1171" cy="651" r="5" style="fill:blue"/>
<circle cx="1453" cy="899" r="5" style="fill:blue"/>
<circle cx="2291" cy="703" r="5" style="fill:blue"/>
<circle cx="1630" cy="49" r="5" style="fill:blue"/>
<circle cx="2306" cy="896" r="5" style="fill:blue"/>
<circle cx="599" cy="902" r="5" style="fill:blue"/>
<circle cx="1468" cy="170" r="5" style="fill:blue"/>
<circle cx="1324" cy="402" r="5" style="fill:blue"/>
<circle cx="328" cy="709" r="5" style="fill:blue"/>
<circle cx="229" cy="444" r="5" style="fill:blue"/>
<circle cx="884" cy="507" r="5" style="fill:blue"/>
<circle cx="1988" cy="681" r="5" style="fill:blue"/>
<circle cx="1172" cy="1023" r="5" style="fill:blue"/>
<circle cx="223" cy="197" r="5" style="fill:blue"/>
<circle cx="698" cy="398" r="5" style="fill:blue"/>
<circle cx="245" cy="373" r="5" style="fill:blue"/>
<circle cx="1267" cy="730" r="5" style="fill:blue"/>
<circle cx="1559" cy="190" r="5" style="fill:blue"/>
<circle cx="723" cy="995" r="5" style="fill:blue"/>
<circle cx="1406" cy="370" r="5" style="fill:blue"/>
<circle cx="482" cy="469" r="5" style="fill:blue"/>
<circle cx="222" cy="137" r="5" style="fill:blue"/>
<circle cx="1059" cy="310" r="5" style="fill:blue"/>
<circle cx="854" cy="48" r="5" style="fill:blue"/>
<circle cx="1947" cy="672" r="5" style="fill:blue"/>
<circle cx="815" cy="976" r="5" style="fill:blue"/>
<circle cx="2313" cy="999" r="5" style="fill:blue"/>
<circle cx="1845" cy="281" r="5" style="fill:blue"/>
<circle cx="1620" cy="432" r="5" style="fill:blue"/>
<circle cx="1070" cy="164" r="5" style="fill:blue"/>
<circle cx="1015" cy="989" r="5" style="fill:blue"/>
<circle cx="2073" cy="887" r="5" style="fill:blue"/>
<circle cx="132" cy="568" r="5" style="fill:blue"/>
<circle cx="648" cy="838" r="5" style="fill:blue"/>
<circle cx="395" cy="770" r="5" style="fill:blue"/>
<circle cx="996" cy="474" r="5" style="fill:blue"/>
<circle cx="1124" cy="66" r="5" style="fill:blue"/>
<circle cx="93" cy="139" r="5" style="fill:blue"/>
<circle cx="643" cy="988" r="5" style="fill:blue"/>
<circle cx="2354" cy="307" r="5" style="fill:blue"/>
<circle cx="75" cy="652" r="5" style="fill:blue"/>
<circle cx="298" cy="973" r="5" style="fill:blue"/>
<circle cx="2076" cy="97" r="5" style="fill:blue"/>
<circle cx="420" cy="929" r="5" style="fill:blue"/>
<circle cx="257" cy="941" r="5" style="fill:blue"/>
<circle cx="178" cy="954" r="5" style="fill:blue"/>
<circle cx="1245" cy="707" r="5" style="fill:blue"/>
<circle cx="146" cy="631" r="5" style="fill:blue"/>
<circle cx="375" cy="345" r="5" style="fill:blue"/>
<circle cx="1402" cy="146" r="5" style="fill:blue"/>
<circle cx="428" cy="214" r="5" style="fill:blue"/>
<circle cx="1878" cy="1066" r="5" style="fill:blue"/>
<circle cx="798" cy="994" r="5" style="fill:blue"/>
<circle cx="269" cy="389" r="5" style="fill:blue"/>
<circle cx="1919" cy="1005" r="5" style="fill:blue"/>
<circle cx="534" cy="862" r="5" style="fill:blue"/>
<circle cx="956" cy="37" r="5" style="fill:blue"/>
<circle cx="1228" cy="821" r="5" style="fill:blue"/>
<circle cx="1121" cy="988" r="5" style="fill:blue"/>
<circle cx="309" cy="792" r="5" style="fill:blue"/>
<circle cx="546" cy="157" r="5" style="fill:blue"/>
<circle cx="293" cy="232" r="5" style="fill:blue"/>
<circle cx="1175" cy="376" r="5" style="fill:blue"/>
<circle cx="1511" cy="787" r="5" style="fill:blue"/>
<circle cx="1575" cy="207" r="5" style="fill:blue"/>
<circle cx="1758" cy="140" r="5" style="fill:blue"/>
<circle cx="818" cy="415" r="5" style="fill:blue"/>
<circle cx="118" cy="104" r="5" style="fill:blue"/>
<circle cx="1381" cy="992" r="5" style="fill:blue"/>
<circle cx="992" cy="668" r="5" style="fill:blue"/>
<circle cx="647" cy="590" r="5" style="fill:blue"/>
<circle cx="2028" cy="772" r="5" style="fill:blue"/>
<circle cx="1759" cy="939" r="5" style="fill:blue"/>
<circle cx="279" cy="844" r="5" style="fill:blue"/>
<circle cx="209" cy="547" r="5" style="fill:blue"/>
<circle cx="877" cy="335" r="5" style="fill:blue"/>
<circle cx="2162" cy="245" r="5" style="fill:blue"/>
<circle cx="1610" cy="954" r="5" style="fill:blue"/>
<circle cx="1482" cy="617" r="5" style="fill:blue"/>
<circle cx="2272" cy="706" r="5" style="fill:blue"/>
<circle cx="849" cy="1024" r="5" style="fill:blue"/>
<circle cx="423" cy="102" r="5" style="fill:blue"/>
<circle cx="873" cy="669" r="5" style="fill:blue"/>
<circle cx="271" cy="996" r="5" style="fill:blue"/>
<circle cx="2173" cy="992" r="5" style="fill:blue"/>
<circle cx="116" cy="1026" r="5" style="fill:blue"/>
<circle cx="1921" cy="740" r="5" style="fill:blue"/>
<circle cx="731" cy="197" r="5" style="fill:blue"/>
<circle cx="1149" cy="486" r="5" style="fill:blue"/>
<circle cx="587" cy="728" r="5" style="fill:blue"/>
<circle cx="858" cy="434" r="5" style="fill:blue"/>
<circle cx="1880" cy="833" r="5" style="fill:blue"/>
<circle cx="1110" cy="811" r="5" style="fill:blue"/>
<circle cx="1774" cy="1005" r="5" style="fill:blue"/>
<circle cx="943" cy="635" r="5" style="fill:blue"/>
<circle cx="1281" cy="156" r="5" style="fill:blue"/>
<circle cx="602" cy="447" r="5" style="fill:blue"/>
<circle cx="887" cy="259" r="5" style="fill:blue"/>
<circle cx="1640" cy="729" r="5" style="fill:blue"/>
<circle cx="1403" cy="506" r="5" style="fill:blue"/>
<circle cx="1031" cy="428" r="5" style="fill:blue"/>
<circle cx="699" cy="881" r="5" style="fill:blue"/>
<circle cx="97" cy="978" r="5" style="fill:blue"/>
<circle cx="1391" cy="986" r="5" style="fill:blue"/>
<circle cx="1357" cy="84" r="5" style="fill:blue"/>
<circle cx="1760" cy="268" r="5" style="fill:blue"/>
<circle cx="958" cy="378" r="5" style="fill:blue"/>
<circle cx="40" cy="52" r="5" style="fill:blue"/>
<circle cx="95" cy="243" r="5" style="fill:blue"/>
<circle cx="2206" cy="297" r="5" style="fill:blue"/>
<circle cx="355" cy="1028" r="5" style="fill:blue"/>
<circle cx="1225" cy="27" r="5" style="fill:blue"/>
<circle cx="453" cy="1067" r="5" style="fill:blue"/>
<circle cx="2249" cy="748" r="5" style="fill:blue"/>
<circle cx="2207" cy="804" r="5" style="fill:blue"/>
<circle cx="2188" cy="192" r="5" style="fill:blue"/>
<circle cx="2229" cy="885" r="5" style="fill:blue"/>
<circle cx="1097" cy="747" r="5" style="fill:blue"/>
<circle cx="1160" cy="415" r="5" style="fill:blue"/>
<circle cx="880" cy="31" r="5" style="fill:blue"/>
<circle cx="2239" cy="805" r="5" style="fill:blue"/>
<circle cx="880" cy="988" r="5" style="fill:blue"/>
<circle cx="416" cy="259" r="5" style="fill:blue"/>
<circle cx="1805" cy="1043" r="5" style="fill:blue"/>
<circle cx="754" cy="38" r="5" style="fill:blue"/>
<circle cx="405" cy="130" r="5" style="fill:blue"/>
<circle cx="1126" cy="1007" r="5" style="fill:blue"/>
<circle cx="678" cy="822" r="5" style="fill:blue"/>
<circle cx="1016" cy="3" r="5" style="fill:blue"/>
<circle cx="34" cy="375" r="5" style="fill:blue"/>
<circle cx="1397" cy="308" r="5" style="fill:blue"/>
<circle cx="1093" cy="18" r="5" style="fill:blue"/>
<circle cx="2174" cy="167" r="5" style="fill:blue"/>
<circle cx="1200" cy="652" r="5" style="fill:blue"/>
<circle cx="1682" cy="554" r="5" style="fill:blue"/>
<circle cx="1569" cy="633" r="5" style="fill:blue"/>
<circle cx="1655" cy="358" r="5" style="fill:blue"/>
<circle cx="1002" cy="412" r="5" style="fill:blue"/>
<circle cx="1562" cy="230" r="5" style="fill:blue"/>
<circle cx="842" cy="662" r="5" style="fill:blue"/>
<circle cx="1954" cy="879" r="5" style="fill:blue"/>
<circle cx="1927" cy="776" r="5" style="fill:blue"/>
<circle cx="1933" cy="1093" r="5" style="fill:blue"/>
<circle cx="1642" cy="92" r="5" style="fill:blue"/>
<circle cx="1348" cy="1011" r="5" style="fill:blue"/>
<circle cx="988" cy="296" r="5" style="fill:blue"/>
<circle cx="621" cy="366" r="5" style="fill:blue"/>
<circle cx="648" cy="266" r="5" style="fill:blue"/>
<circle cx="1522" cy="777" r="5" style="fill:blue"/>
<circle cx="1000" cy="515" r="5" style="fill:blue"/>
<circle cx="1331" cy="609" r="5" style="fill:blue"/>
<circle cx="130" cy="660" r="5" style="fill:blue"/>
<circle cx="2283" cy="932" r="5" style="fill:blue"/>
<circle cx="1380" cy="789" r="5" style="fill:blue"/>
<circle cx="1501" cy="177" r="5" style="fill:blue"/>
<circle cx="1485" cy="1010" r="5" style="fill:blue"/>
<circle cx="1687" cy="81" r="5" style="fill:blue"/>
<circle cx="1746" cy="645" r="5" style="fill:blue"/>
<circle cx="2239" cy="693" r="5" style="fill:blue"/>
<circle cx="2039" cy="21" r="5" style="fill:blue"/>
<circle cx="783" cy="271" r="5" style="fill:blue"/>
<circle cx="145" cy="734" r="5" style="fill:blue"/>
<circle cx="1242" cy="7" r="5" style="fill:blue"/>
<circle cx="2361" cy="704" r="5" style="fill:blue"/>
<circle cx="1428" cy="873" r="5" style="fill:blue"/>
<circle cx="1047" cy="423" r="5" style="fill:blue"/>
<circle cx="2284" cy="619" r="5" style="fill:blue"/>
<circle cx="584" cy="108" r="5" style="fill:blue"/>
<circle cx="2330" cy="860" r="5" style="fill:blue"/>
<circle cx="1778" cy="625" r="5" style="fill:blue"/>
<circle cx="1946" cy="1088" r="5" style="fill:blue"/>
<circle cx="1981" cy="630" r="5" style="fill:blue"/>
<circle cx="1721" cy="944" r="5" style="fill:blue"/>
<circle cx="1579" cy="811" r="5" style="fill:blue"/>
<circle cx="159" cy="688" r="5" style="fill:blue"/>
<circle cx="38" cy="67" r="5" style="fill:blue"/>
<circle cx="727" cy="95" r="5" style="fill:blue"/>
<circle cx="1679" cy="750" r="5" style="fill:blue"/>
<circle cx="392" cy="963" r="5" style="fill:blue"/>
<circle cx="586" cy="546" r="5" style="fill:blue"/>
<circle cx="397" cy="746" r="5" style="fill:blue"/>
<circle cx="0" cy="672" r="5" style="fill:blue"/>
<circle cx="893" cy="56" r="5" style="fill:blue"/>
<circle cx="1336" cy="457" r="5" style="fill:blue"/>
<circle cx="1508" cy="303" r="5" style="fill:blue"/>
<circle cx="1276" cy="223" r="5" style="fill:blue"/>
<circle cx="1494" cy="829" r="5" style="fill:blue"/>
<circle cx="1272" cy="730" r="5" style="fill:blue"/>
<circle cx="1435" cy="877" r="5" style="fill:blue"/>
<circle cx="1043" cy="986" r="5" style="fill:blue"/>
<circle cx="1288" cy="875" r="5" style="fill:blue"/>
<circle cx="435" cy="110" r="5" style="fill:blue"/>
<circle cx="1290" cy="1009" r="5" style="fill:blue"/>
<circle cx="894" cy="585" r="5" style="fill:blue"/>
<circle cx="96" cy="208" r="5" style="fill:blue"/>
<circle cx="1364" cy="937" r="5" style="fill:blue"/>
<circle cx="1127" cy="516" r="5" style="fill:blue"/>
<circle cx="2020" cy="790" r="5" style="fill:blue"/>
<circle cx="1259" cy="811" r="5" style="fill:blue"/>
<circle cx="1771" cy="323" r="5" style="fill:blue"/>
<circle cx="2084" cy="211" r="5" style="fill:blue"/>
<circle cx="74" cy="106" r="5" style="fill:blue"/>
<circle cx="572" cy="766" r="5" style="fill:blue"/>
<circle cx="710" cy="1035" r="5" style="fill:blue"/>
<circle cx="1973" cy="972" r="5" style="fill:blue"/>
<circle cx="466" cy="1036" r="5" style="fill:blue"/>
<circle cx="1348" cy="662" r="5" style="fill:blue"/>
<circle cx="1899" cy="156" r="5" style="fill:blue"/>
<circle cx="2052" cy="804" r="5" style="fill:blue"/>
<circle cx="1256" cy="1094" r="5" style="fill:blue"/>
<circle cx="443" cy="324" r="5" style="fill:blue"/>
<circle cx="79" cy="606" r="5" style="fill:blue"/>
<circle cx="215" cy="489" r="5" style="fill:blue"/>
<circle cx="837" cy="920" r="5" style="fill:blue"/>
<circle cx="495" cy="555" r="5" style="fill:blue"/>
<circle cx="668" cy="540" r="5" style="fill:blue"/>
<circle cx="851" cy="967" r="5" style="fill:blue"/>
<circle cx="311" cy="665" r="5" style="fill:blue"/>
<circle cx="1355" cy="796" r="5" style="fill:blue"/>
<circle cx="1519" cy="922" r="5" style="fill:blue"/>
<circle cx="1746" cy="975" r="5" style="fill:blue"/>
<circle cx="1647" cy="486" r="5" style="fill:blue"/>
<circle cx="937" cy="618" r="5" style="fill:blue"/>
<circle cx="734" cy="927" r="5" style="fill:blue"/>
<circle cx="1630" cy="236" r="5" style="fill:blue"/>
<circle cx="484" cy="464" r="5" style="fill:blue"/>
<circle cx="561" cy="686" r="5" style="fill:blue"/>
<circle cx="998" cy="26" r="5" style="fill:blue"/>
<circle cx="804" cy="731" r="5" style="fill:blue"/>
<circle cx="1178" cy="661" r="5" style="fill:blue"/>
<circle cx="833" cy="223" r="5" style="fill:blue"/>
<circle cx="1189" cy="1027" r="5" style="fill:blue"/>
<circle cx="375" cy="335" r="5" style="fill:blue"/>
<circle cx="2138" cy="1092" r="5" style="fill:blue"/>
<circle cx="1968" cy="787" r="5" style="fill:blue"/>
<circle cx="1000" cy="454" r="5" style="fill:blue"/>
<circle cx="436" cy="856" r="5" style="fill:blue"/>
<circle cx="1819" cy="302" r="5" style="fill:blue"/>
<circle cx="2112" cy="907" r="5" style="fill:blue"/>
<circle cx="2290" cy="747" r="5" style="fill:blue"/>
<circle cx="734" cy="427" r="5" style="fill:blue"/>
<circle cx="1329" cy="1066" r="5" style="fill:blue"/>
<circle cx="810" cy="768" r="5" style="fill:blue"/>
<circle cx="2244" cy="629" r="5" style="fill:blue"/>
<circle cx="1483" cy="89" r="5" style="fill:blue"/>
<circle cx="2009" cy="724" r="5" style="fill:blue"/>
<circle cx="431" cy="1091" r="5" style="fill:blue"/>
<circle cx="1356" cy="850" r="5" style="fill:blue"/>
<circle cx="1219" cy="554" r="5" style="fill:blue"/>
<circle cx="863" cy="454" r="5" style="fill:blue"/>
<circle cx="783" cy="419" r="5" style="fill:blue"/>
<circle cx="2166" cy="1018" r="5" style="fill:blue"/>
<circle cx="1704" cy="692" r="5" style="fill:blue"/>
<circle cx="1002" cy="250" r="5" style="fill:blue"/>
<circle cx="635" cy="157" r="5" style="fill:blue"/>
<circle cx="2347" cy="108" r="5" style="fill:blue"/>
<circle cx="1799" cy="33" r="5" style="fill:blue"/>
<circle cx="701" cy="643" r="5" style="fill:blue"/>
<circle cx="1760" cy="1061" r="5" style="fill:blue"/>
<circle cx="1485" cy="125" r="5" style="fill:blue"/>
<circle cx="774" cy="107" r="5" style="fill:blue"/>
<circle cx="302" cy="171" r="5" style="fill:blue"/>
<circle cx="16" cy="39" r="5" style="fill:blue"/>
<circle cx="384" cy="984" r="5" style="fill:blue"/>
<circle cx="87" cy="1088" r="5" style="fill:blue"/>
<circle cx="1673" cy="51" r="5" style="fill:blue"/>
<circle cx="4" cy="432" r="5" style="fill:blue"/>
<circle cx="139" cy="531" r="5" style="fill:blue"/>
<circle cx="2368" cy="333" r="5" style="fill:blue"/>
<circle cx="178" cy="79" r="5" style="fill:blue"/>
<circle cx="739" cy="216" r="5" style="fill:blue"/>
<circle cx="1534" cy="762" r="5" style="fill:blue"/>
<circle cx="1678" cy="404" r="5" style="fill:blue"/>
<circle cx="256" cy="388" r="5" style="fill:blue"/>
<circle cx="1046" cy="239" r="5" style="fill:blue"/>
<circle cx="835" cy="336" r="5" style="fill:blue"/>
<circle cx="2181" cy="1002" r="5" style="fill:blue"/>
<circle cx="1238" cy="124" r="5" style="fill:blue"/>
<circle cx="311" cy="442" r="5" style="fill:blue"/>
<circle cx="876" cy="222" r="5" style="fill:blue"/>
<circle cx="244" cy="227" r="5" style="fill:blue"/>
<circle cx="123" cy="935" r="5" style="fill:blue"/>
<circle cx="1469" cy="86" r="5" style="fill:blue"/>
<circle cx="261" cy="948" r="5" style="fill:blue"/>
<circle cx="1801" cy="851" r="5" style="fill:blue"/>
<circle cx="953" cy="549" r="5" style="fill:blue"/>
<circle cx="1706" cy="557" r="5" style="fill:blue"/>
<circle cx="2223" cy="153" r="5" style="fill:blue"/>
<circle cx="1153" cy="904" r="5" style="fill:blue"/>
<circle cx="2068" cy="53" r="5" style="fill:blue"/>
<circle cx="1813" cy="739" r="5" style="fill:blue"/>
<circle cx="1470" cy="1007" r="5" style="fill:blue"/>
<circle cx="1858" cy="649" r="5" style="fill:blue"/>
<circle cx="845" cy="828" r="5" style="fill:blue"/>
<circle cx="28" cy="507" r="5" style="fill:blue"/>
<circle cx="1842" cy="170" r="5" style="fill:blue"/>
<circle cx="1138" cy="966" r="5" style="fill:blue"/>
<circle cx="2044" cy="725" r="5" style="fill:blue"/>
<circle cx="583" cy="10" r="5" style="fill:blue"/>
<circle cx="265" cy="299" r="5" style="fill:blue"/>
<circle cx="924" cy="437" r="5" style="fill:blue"/>
<circle cx="1282" cy="440" r="5" style="fill:blue"/>
<circle cx="29" cy="799" r="5" style="fill:blue"/>
<circle cx="1965" cy="273" r="5" style="fill:blue"/>
<circle cx="1059" cy="861" r="5" style="fill:blue"/>
<circle cx="1672" cy="37" r="5" style="fill:blue"/>
<circle cx="315" cy="50" r="5" style="fill:blue"/>
<circle cx="756" cy="385" r="5" style="fill:blue"/>
<circle cx="467" cy="945" r="5" style="fill:blue"/>
<circle cx="821" cy="362" r="5" style="fill:blue"/>
<circle cx="592" cy="594" r="5" style="fill:blue"/>
<circle cx="2005" cy="1056" r="5" style="fill:blue"/>
<circle cx="332" cy="317" r="5" style="fill:blue"/>
<circle cx="535" cy="610" r="5" style="fill:blue"/>
<circle cx="573" cy="751" r="5" style="fill:blue"/>
<circle cx="122" cy="665" r="5" style="fill:blue"/>
<circle cx="1187" cy="294" r="5" style="fill:blue"/>
<circle cx="1259" cy="659" r="5" style="fill:blue"/>
<circle cx="1813" cy="201" r="5" style="fill:blue"/>
<circle cx="1118" cy="659" r="5" style="fill:blue"/>
<circle cx="1892" cy="846" r="5" style="fill:blue"/>
<circle cx="1390" cy="508" r="5" style="fill:blue"/>
<circle cx="1355" cy="861" r="5" style="fill:blue"/>
<circle cx="1780" cy="162" r="5" style="fill:blue"/>
<circle cx="268" cy="699" r="5" style="fill:blue"/>
<circle cx="939" cy="881" r="5" style="fill:blue"/>
<circle cx="1704" cy="746" r="5" style="fill:blue"/>
<circle cx="402" cy="337" r="5" style="fill:blue"/>
<circle cx="411" cy="850" r="5" style="fill:blue"/>
<circle cx="1038" cy="431" r="5" style="fill:blue"/>
<circle cx="538" cy="1020" r="5" style="fill:blue"/>
<circle cx="1313" cy="694" r="5" style="fill:blue"/>
<circle cx="759" cy="492" r="5" style="fill:blue"/>
<circle cx="1900" cy="901" r="5" style="fill:blue"/>
<circle cx="1647" cy="99" r="5" style="fill:blue"/>
<circle cx="226" cy="264" r="5" style="fill:blue"/>
<circle cx="2246" cy="23" r="5" style="fill:blue"/>
<circle cx="1066" cy="1034" r="5" style="fill:blue"/>
<circle cx="651" cy="758" r="5" style="fill:blue"/>
<circle cx="983" cy="400" r="5" style="fill:blue"/>
<circle cx="1663" cy="299" r="5" style="fill:blue"/>
<circle cx="2149" cy="130" r="5" style="fill:blue"/>
<circle cx="186" cy="19" r="5" style="fill:blue"/>
<circle cx="1569" cy="542" r="5" style="fill:blue"/>
<circle cx="1832" cy="145" r="5" style="fill:blue"/>
<circle cx="260" cy="35" r="5" style="fill:blue"/>
<circle cx="2212" cy="724" r="5" style="fill:blue"/>
<circle cx="575" cy="921" r="5" style="fill:blue"/>
<circle cx="2172" cy="48" r="5" style="fill:blue"/>
<circle cx="1463" cy="502" r="5" style="fill:blue"/>
<circle cx="1739" cy="728" r="5" style="fill:blue"/>
<circle cx="147" cy="894" r="5" style="fill:blue"/>
<circle cx="1509" cy="77" r="5" style="fill:blue"/>
<circle cx="466" cy="885" r="5" style="fill:blue"/>
<circle cx="1378" cy="798" r="5" style="fill:blue"/>
<circle cx="1297" cy="602" r="5" style="fill:blue"/>
<circle cx="313" cy="791" r="5" style="fill:blue"/>
<circle cx="2334" cy="230" r="5" style="fill:blue"/>
<circle cx="499" cy="562" r="5" style="fill:blue"/>
<circle cx="1055" cy="1073" r="5" style="fill:blue"/>
<circle cx="110" cy="905" r="5" style="fill:blue"/>
<circle cx="446" cy="177" r="5" style="fill:blue"/>
<circle cx="998" cy="939" r="5" style="fill:blue"/>
<circle cx="956" cy="26" r="5" style="fill:blue"/>
<circle cx="2315" cy="45" r="5" style="fill:blue"/>
<circle cx="1450" cy="929" r="5" style="fill:blue"/>
<circle cx="1065" cy="7" r="5" style="fill:blue"/>
<circle cx="934" cy="583" r="5" style="fill:blue"/>
<circle cx="217" cy="983" r="5" style="fill:blue"/>
<circle cx="1810" cy="1035" r="5" style="fill:blue"/>
<circle cx="594" cy="229" r="5" style="fill:blue"/>
<circle cx="787" cy="1037" r="5" style="fill:blue"/>
<circle cx="1922" cy="870" r="5" style="fill:blue"/>
<circle cx="1321" cy="118" r="5" style="fill:blue"/>
<circle cx="1169" cy="1047" r="5" style="fill:blue"/>
<circle cx="336" cy="241" r="5" style="fill:blue"/>
<circle cx="1431" cy="469" r="5" style="fill:blue"/>
<circle cx="1547" cy="343" r="5" style="fill:blue"/>
<circle cx="303" cy="248" r="5" style="fill:blue"/>
<circle cx="871" cy="676" r="5" style="fill:blue"/>
<circle cx="1692" cy="387" r="5" style="fill:blue"/>
<circle cx="2081" cy="1023" r="5" style="fill:blue"/>
<circle cx="1533" cy="125" r="5" style="fill:blue"/>
<circle cx="819" cy="230" r="5" style="fill:blue"/>
<circle cx="1470" cy="252" r="5" style="fill:blue"/>
<circle cx="1416" cy="708" r="5" style="fill:blue"/>
<circle cx="1729.0104835939758" cy="451.79346676202334" r="5" style="fill:rgb(0,0,0)"/>
<circle cx="2001.6820789111691" cy="592.9999976502536" r="5" style="fill:rgb(96,64,0)"/>
<circle cx="1831.818756186122" cy="340.5906644761838" r="5" style="fill:rgb(192,128,0)"/>
<circle cx="1796.037636413629" cy="334.0000120989872" r="5" style="fill:rgb(32,224,0)"/>
<circle cx="2324.2541632531934" cy="335.18968903966953" r="5" style="fill:rgb(128,32,64)"/>
<circle cx="2028.1789183466412" cy="574.2874933108618" r="5" style="fill:rgb(224,96,64)"/>
<circle cx="2344.999999142956" cy="389.43272033745967" r="5" style="fill:rgb(64,192,64)"/>
<circle cx="2185.175737312371" cy="343.94367386833346" r="5" style="fill:rgb(160,0,128)"/>
<circle cx="1747.589373365176" cy="492.5544145290027" r="5" style="fill:rgb(0,96,128)"/>
<circle cx="1729.231607426986" cy="520.9921772249303" r="5" style="fill:rgb(96,160,128)"/>
<circle cx="2011.5330918934053" cy="571.2867072721235" r="5" style="fill:rgb(192,224,128)"/>
<circle cx="2296.6005333707453" cy="592.9999850863541" r="5" style="fill:rgb(32,64,192)"/>
<circle cx="2282.2429999476303" cy="592.9999865013647" r="5" style="fill:rgb(128,128,192)"/>
<circle cx="1840.054248922761" cy="346.26437820547505" r="5" style="fill:rgb(224,192,192)"/>
<circle cx="1959.0274583462956" cy="342.52496630125626" r="5" style="fill:rgb(64,32,0)"/>
<circle cx="2228.121204771401" cy="592.9999921962019" r="5" style="fill:rgb(160,96,0)"/>
<circle cx="1729.0000039690924" cy="540.8941396200594" r="5" style="fill:rgb(0,192,0)"/>
<circle cx="1738.5531721974398" cy="421.160193205587" r="5" style="fill:rgb(96,0,64)"/>
<circle cx="1729.0000179601195" cy="439.7785936221237" r="5" style="fill:rgb(192,64,64)"/>
<circle cx="1881.830939025652" cy="592.7645989597647" r="5" style="fill:rgb(32,160,64)"/>
<circle cx="1824.2978902609952" cy="334.0000011567565" r="5" style="fill:rgb(128,224,64)"/>
<circle cx="1797.118256686739" cy="344.7352183661238" r="5" style="fill:rgb(224,32,128)"/>
<circle cx="1897.3304860634637" cy="580.9376941985993" r="5" style="fill:rgb(64,128,128)"/>
<circle cx="1743.3180209076736" cy="398.9106355484717" r="5" style="fill:rgb(160,192,128)"/>
<circle cx="1738.9505694872062" cy="571.8779688380217" r="5" style="fill:rgb(0,32,192)"/>
<circle cx="2157.1773994283853" cy="334.00002704774386" r="5" style="fill:rgb(96,96,192)"/>
<circle cx="2195.0332857061867" cy="334.0526500166872" r="5" style="fill:rgb(192,160,192)"/>
<circle cx="2030.4737028884165" cy="334.1393049940219" r="5" style="fill:rgb(32,0,0)"/>
<circle cx="1933.212064290252" cy="572.4445485904405" r="5" style="fill:rgb(128,64,0)"/>
<circle cx="1736.5238862092958" cy="391.5529042461814" r="5" style="fill:rgb(224,128,0)"/>
<circle cx="2344.9994176654222" cy="365.54945731139577" r="5" style="fill:rgb(64,224,0)"/>
<circle cx="1738.4018007865052" cy="377.54431566357533" r="5" style="fill:rgb(160,32,64)"/>
<circle cx="1729.283206513192" cy="582.8671858165025" r="5" style="fill:rgb(0,128,64)"/>
<circle cx="2095.0549645482733" cy="582.8680802934534" r="5" style="fill:rgb(96,192,64)"/>
<circle cx="1738.3028752767125" cy="344.5981043139858" r="5" style="fill:rgb(192,0,128)"/>
<circle cx="1732.6355460048185" cy="498.5860217692325" r="5" style="fill:rgb(32,96,128)"/>
<circle cx="1901.3434300913" cy="334.00003763566446" r="5" style="fill:rgb(128,160,128)"/>
<circle cx="2084.809860285623" cy="592.9999998658566" r="5" style="fill:rgb(224,224,128)"/>
<circle cx="1738.9579837254782" cy="541.8103040481898" r="5" style="fill:rgb(64,64,192)"/>
<circle cx="2015.937800552861" cy="340.5328958211571" r="5" style="fill:rgb(160,128,192)"/>
<circle cx="2259.6845373895344" cy="592.9999828095982" r="5" style="fill:rgb(0,224,192)"/>
<circle cx="1729.1520480906152" cy="561.9676313936372" r="5" style="fill:rgb(96,32,0)"/>
<circle cx="1868.1987684513613" cy="583.6836852237241" r="5" style="fill:rgb(192,96,0)"/>
<circle cx="1747.2851371175495" cy="413.46097286272374" r="5" style="fill:rgb(32,192,0)"/>
<circle cx="2100.3280453070183" cy="348.7945718438176" r="5" style="fill:rgb(128,0,64)"/>
<circle cx="1977.0528497859973" cy="334.000009418596" r="5" style="fill:rgb(224,64,64)"/>
<circle cx="1759.4775068276126" cy="587.6534345186842" r="5" style="fill:rgb(64,160,64)"/>
<circle cx="1729.0000037494417" cy="400.72043059450726" r="5" style="fill:rgb(160,224,64)"/>
<circle cx="1919.8983320991272" cy="334.00000006133746" r="5" style="fill:rgb(0,64,128)"/>
<circle cx="2255.1659842138565" cy="334.0000034770277" r="5" style="fill:rgb(96,128,128)"/>
<circle cx="1737.6262990058171" cy="407.65519853192694" r="5" style="fill:rgb(192,192,128)"/>
<circle cx="2206.2513628740976" cy="592.0724488745577" r="5" style="fill:rgb(32,32,192)"/>
<circle cx="1974.0677168780855" cy="583.450689920078" r="5" style="fill:rgb(128,96,192)"/>
<circle cx="1737.8633137739537" cy="447.1429200533494" r="5" style="fill:rgb(224,160,192)"/>
<circle cx="2211.3297589003732" cy="343.1287473448662" r="5" style="fill:rgb(64,0,0)"/>
<circle cx="1910.0138061253076" cy="571.261854127509" r="5" style="fill:rgb(160,64,0)"/>
<circle cx="1729.0001698259607" cy="592.9202969934025" r="5" style="fill:rgb(0,160,0)"/>
<circle cx="1771.281513314126" cy="342.73068139600684" r="5" style="fill:rgb(96,224,0)"/>
<circle cx="1964.8419442065715" cy="334.02787867963025" r="5" style="fill:rgb(192,32,64)"/>
<circle cx="1729.000009669044" cy="412.7135908373816" r="5" style="fill:rgb(32,128,64)"/>
<circle cx="2258.811674523253" cy="583.0381182551604" r="5" style="fill:rgb(128,192,64)"/>
<circle cx="2334.5859714710396" cy="343.9919725897399" r="5" style="fill:rgb(224,0,128)"/>
<circle cx="1766.1564302280417" cy="334.00000109004117" r="5" style="fill:rgb(64,96,128)"/>
<circle cx="2223.288403234783" cy="340.1616047507795" r="5" style="fill:rgb(160,160,128)"/>
<circle cx="1987.061389604184" cy="335.98295008743526" r="5" style="fill:rgb(0,0,192)"/>
<circle cx="1730.3867724573345" cy="530.9906789716872" r="5" style="fill:rgb(96,64,192)"/>
<circle cx="1827.9634174337536" cy="592.1233397989819" r="5" style="fill:rgb(192,128,192)"/>
<circle cx="1958.765698059966" cy="592.9999982201763" r="5" style="fill:rgb(32,224,192)"/>
<circle cx="1813.8386489536636" cy="334.011936085813" r="5" style="fill:rgb(128,32,0)"/>
<circle cx="1910.8595059473032" cy="588.0725243173861" r="5" style="fill:rgb(224,96,0)"/>
<circle cx="1729.0000067319024" cy="572.8711604093246" r="5" style="fill:rgb(64,192,0)"/>
<circle cx="1953.7801118463344" cy="334.01206834879355" r="5" style="fill:rgb(160,0,64)"/>
<circle cx="1969.7128748411144" cy="592.4526677419693" r="5" style="fill:rgb(0,96,64)"/>
<circle cx="2231.5155060272064" cy="334.00003392892285" r="5" style="fill:rgb(96,160,64)"/>
<circle cx="2016.263299432202" cy="583.0727983088462" r="5" style="fill:rgb(192,224,64)"/>
<circle cx="1887.9871405291065" cy="584.8841402059435" r="5" style="fill:rgb(32,64,128)"/>
<circle cx="1901.5131495057813" cy="592.9999971927516" r="5" style="fill:rgb(128,128,128)"/>
<circle cx="2132.138772863484" cy="576.7823980972804" r="5" style="fill:rgb(224,192,128)"/>
<circle cx="2256.539165457042" cy="344.3639331920927" r="5" style="fill:rgb(64,32,192)"/>
<circle cx="1859.7964586592147" cy="334.71642752981404" r="5" style="fill:rgb(160,96,192)"/>
<circle cx="1861.7363576300993" cy="592.661093670654" r="5" style="fill:rgb(0,192,192)"/>
<circle cx="1849.8159547692733" cy="334.0000015417195" r="5" style="fill:rgb(96,0,0)"/>
<circle cx="2314.2667965079954" cy="334.6866673865522" r="5" style="fill:rgb(128,32,64)"/>
<circle cx="1868.6591641782368" cy="343.6262700874008" r="5" style="fill:rgb(160,160,128)"/>
<circle cx="1931.5617521830409" cy="335.2662465228011" r="5" style="fill:rgb(64,96,128)"/>
<circle cx="2045.4516491239096" cy="590.4519841341119" r="5" style="fill:rgb(192,192,128)"/>
<circle cx="1960.0542196211804" cy="583.0832643812975" r="5" style="fill:rgb(32,224,0)"/>
<circle cx="2290.9157925651148" cy="334.4785372383694" r="5" style="fill:rgb(128,32,64)"/>
<circle cx="1839.7575408849173" cy="334.0000348545196" r="5" style="fill:rgb(192,128,0)"/>
<circle cx="1729.000007622192" cy="384.5629768046319" r="5" style="fill:rgb(160,224,64)"/>
<circle cx="1784.1671200322185" cy="583.6963416306681" r="5" style="fill:rgb(224,192,192)"/>
<circle cx="1737.8053332498698" cy="556.9554750767527" r="5" style="fill:rgb(64,64,192)"/>
<circle cx="2000.4248213418648" cy="582.9288932904301" r="5" style="fill:rgb(32,224,0)"/>
<circle cx="1786.0974702457377" cy="335.0941811380355" r="5" style="fill:rgb(64,96,128)"/>
<circle cx="1986.7238653293448" cy="583.7925678725856" r="5" style="fill:rgb(192,224,64)"/>
<circle cx="2344.9999892489973" cy="376.18496518864936" r="5" style="fill:rgb(224,0,128)"/>
<circle cx="1731.172658141812" cy="334.0000073266749" r="5" style="fill:rgb(32,128,64)"/>
<circle cx="2145.939785759482" cy="582.9387193900379" r="5" style="fill:rgb(224,96,64)"/>
<circle cx="1748.306400344768" cy="359.4194228721506" r="5" style="fill:rgb(192,0,128)"/>
<circle cx="1729.0000279841229" cy="551.9052221990091" r="5" style="fill:rgb(0,128,64)"/>
<circle cx="2271.8936345831853" cy="592.999994158076" r="5" style="fill:rgb(0,224,192)"/>
<circle cx="2146.983285947291" cy="350.0188857765519" r="5" style="fill:rgb(160,0,128)"/>
<circle cx="2128.388799893401" cy="351.6814994138678" r="5" style="fill:rgb(0,96,128)"/>
<circle cx="1995.52669451796" cy="342.240767913887" r="5" style="fill:rgb(128,192,64)"/>
<circle cx="2041.5464291941676" cy="574.3000734416614" r="5" style="fill:rgb(224,32,128)"/>
<circle cx="1729.0000221077753" cy="476.9911229722173" r="5" style="fill:rgb(128,0,64)"/>
<circle cx="2216.2097814707067" cy="592.9999989931579" r="5" style="fill:rgb(160,128,192)"/>
<circle cx="1917.3695864257888" cy="347.19517933429694" r="5" style="fill:rgb(160,0,64)"/>
<circle cx="2343.3690007830214" cy="592.999973785089" r="5" style="fill:rgb(160,192,128)"/>
<circle cx="1871.8331217285845" cy="592.9999951680988" r="5" style="fill:rgb(0,192,192)"/>
<circle cx="2146.6207107673786" cy="592.999962373027" r="5" style="fill:rgb(224,224,128)"/>
<circle cx="1919.5425420132176" cy="582.6499844189877" r="5" style="fill:rgb(160,160,128)"/>
<circle cx="2078.8347062105126" cy="579.5484934635167" r="5" style="fill:rgb(160,192,128)"/>
<circle cx="1787.8334662832203" cy="592.9999984354047" r="5" style="fill:rgb(192,128,192)"/>
<circle cx="1729.271360181854" cy="364.14111460175496" r="5" style="fill:rgb(0,0,0)"/>
<circle cx="1737.745378295914" cy="434.9289856931621" r="5" style="fill:rgb(224,160,192)"/>
<circle cx="2277.195033786376" cy="334.00143891293897" r="5" style="fill:rgb(128,32,64)"/>
<circle cx="1745.978140966655" cy="429.2523444428919" r="5" style="fill:rgb(192,192,128)"/>
<circle cx="2145.819384878696" cy="334.5925463060412" r="5" style="fill:rgb(96,96,192)"/>
<circle cx="2052.4604972017396" cy="579.3564888968764" r="5" style="fill:rgb(96,192,64)"/>
<circle cx="1729.0000097146708" cy="374.1374513509144" r="5" style="fill:rgb(0,0,0)"/>
<circle cx="1897.4685760375105" cy="345.89390845498616" r="5" style="fill:rgb(96,224,0)"/>
<circle cx="1817.963453767041" cy="592.0567562874294" r="5" style="fill:rgb(192,128,192)"/>
<circle cx="1733.6887368800185" cy="460.6518067630266" r="5" style="fill:rgb(224,160,192)"/>
<circle cx="1796.3372612397238" cy="587.7382729840289" r="5" style="fill:rgb(192,128,192)"/>
<circle cx="1748.408145604164" cy="582.6948799480413" r="5" style="fill:rgb(224,192,192)"/>
<circle cx="2315.5612806722884" cy="592.9999791479803" r="5" style="fill:rgb(32,64,192)"/>
<circle cx="2129.30604694622" cy="337.9707627806451" r="5" style="fill:rgb(128,0,64)"/>
<circle cx="1771.5337715853511" cy="583.672497591927" r="5" style="fill:rgb(64,192,64)"/>
<circle cx="2164.731796140158" cy="340.7955141560844" r="5" style="fill:rgb(96,96,192)"/>
<circle cx="1943.7910317884027" cy="569.4810313477113" r="5" style="fill:rgb(160,64,0)"/>
<circle cx="2306.4036433818433" cy="588.1229278345303" r="5" style="fill:rgb(32,64,192)"/>
<circle cx="1871.3726429352143" cy="334.00001446602016" r="5" style="fill:rgb(224,96,64)"/>
<circle cx="1972.2519754811028" cy="342.7724749681471" r="5" style="fill:rgb(0,0,192)"/>
<circle cx="1848.709517981437" cy="592.9999837474068" r="5" style="fill:rgb(128,128,128)"/>
<circle cx="1756.348848189658" cy="335.95235376135804" r="5" style="fill:rgb(64,96,128)"/>
<circle cx="2241.427951852375" cy="337.05560983948453" r="5" style="fill:rgb(224,128,0)"/>
<circle cx="1767.9285042787806" cy="592.9999885973613" r="5" style="fill:rgb(64,160,64)"/>
<circle cx="2058.435197100432" cy="340.14887573172194" r="5" style="fill:rgb(224,64,64)"/>
<circle cx="1738.4150145669291" cy="469.77941257316365" r="5" style="fill:rgb(224,160,192)"/>
<circle cx="2196.3137419498685" cy="590.722503303212" r="5" style="fill:rgb(224,192,128)"/>
<circle cx="2160.417586090917" cy="587.7902548692379" r="5" style="fill:rgb(96,192,64)"/>
<circle cx="2174.310396275654" cy="337.92301227637915" r="5" style="fill:rgb(224,0,128)"/>
<circle cx="1990.9118009913475" cy="592.8733874712436" r="5" style="fill:rgb(32,192,0)"/>
<circle cx="1941.2564997644736" cy="338.61793011943683" r="5" style="fill:rgb(0,0,192)"/>
<circle cx="2295.613585124275" cy="578.2055700899313" r="5" style="fill:rgb(128,192,64)"/>
<circle cx="2215.973670894578" cy="583.0027730357367" r="5" style="fill:rgb(96,0,64)"/>
<circle cx="1840.6004998994256" cy="582.7310388393302" r="5" style="fill:rgb(192,96,0)"/>
<circle cx="1809.0071777477228" cy="582.2967457538338" r="5" style="fill:rgb(192,224,128)"/>
<circle cx="1819.2215310246536" cy="342.6157382044765" r="5" style="fill:rgb(224,192,192)"/>
<circle cx="2344.9999995569187" cy="334.9082949877905" r="5" style="fill:rgb(160,128,192)"/>
<circle cx="2084.910862015074" cy="334.59045663178205" r="5" style="fill:rgb(32,0,0)"/>
<circle cx="1837.9602845646943" cy="592.3763884923992" r="5" style="fill:rgb(192,128,192)"/>
<circle cx="2024.9211769829328" cy="591.3469902159464" r="5" style="fill:rgb(128,96,192)"/>
<circle cx="2205.2436175828648" cy="334.0164901600621" r="5" style="fill:rgb(192,160,192)"/>
<circle cx="2249.684515952251" cy="592.9999861649718" r="5" style="fill:rgb(64,192,0)"/>
<circle cx="1748.6096958489125" cy="592.692865311086" r="5" style="fill:rgb(160,224,64)"/>
<circle cx="2344.9999983266803" cy="345.82976238134177" r="5" style="fill:rgb(64,224,0)"/>
<circle cx="2304.279152036728" cy="334.18923311391666" r="5" style="fill:rgb(128,32,64)"/>
<circle cx="1746.3912142743982" cy="334.98398346464694" r="5" style="fill:rgb(64,96,128)"/>
<circle cx="2334.1831538152755" cy="334.0000033539507" r="5" style="fill:rgb(128,32,64)"/>
<circle cx="1853.0356282758596" cy="583.9836675844181" r="5" style="fill:rgb(32,96,128)"/>
<circle cx="1936.6598100294077" cy="583.0534252148495" r="5" style="fill:rgb(160,32,64)"/>
<circle cx="2215.412172644094" cy="334.0000006173638" r="5" style="fill:rgb(64,32,192)"/>
<circle cx="2005.282151316835" cy="337.0874053700906" r="5" style="fill:rgb(224,64,64)"/>
<circle cx="2274.493980548218" cy="583.3439918804653" r="5" style="fill:rgb(128,192,64)"/>
<circle cx="2170.3127063007964" cy="590.9890401751411" r="5" style="fill:rgb(192,0,128)"/>
<circle cx="2119.271981434555" cy="347.572445477153" r="5" style="fill:rgb(64,224,0)"/>
<circle cx="1949.4473605178196" cy="589.3106914722248" r="5" style="fill:rgb(96,64,0)"/>
<circle cx="2015.058175187315" cy="592.9999507960188" r="5" style="fill:rgb(96,64,0)"/>
<circle cx="2244.74552088236" cy="584.3047842611326" r="5" style="fill:rgb(0,64,128)"/>
<circle cx="2184.1157074832604" cy="334.0000036693286" r="5" style="fill:rgb(96,64,192)"/>
<circle cx="1806.403544048056" cy="340.70001593226027" r="5" style="fill:rgb(96,192,64)"/>
<circle cx="1756.0694204777574" cy="576.2675758699016" r="5" style="fill:rgb(192,224,128)"/>
<circle cx="2239.2706857284443" cy="592.6729975269951" r="5" style="fill:rgb(160,96,0)"/>
<circle cx="2231.885266547705" cy="345.26983685288764" r="5" style="fill:rgb(160,64,0)"/>
<circle cx="2230.481293893411" cy="583.1187133081592" r="5" style="fill:rgb(0,64,128)"/>
<circle cx="2117.6428995871865" cy="590.7593314336207" r="5" style="fill:rgb(224,224,128)"/>
<circle cx="2288.359099108577" cy="585.0883699750547" r="5" style="fill:rgb(192,224,128)"/>
<circle cx="1882.0027486232088" cy="337.66955889678763" r="5" style="fill:rgb(96,224,0)"/>
<circle cx="2185.1175882655234" cy="592.9999884737749" r="5" style="fill:rgb(224,224,128)"/>
<circle cx="2198.7152920282606" cy="343.35013393856565" r="5" style="fill:rgb(64,0,0)"/>
<circle cx="1935.5210139387416" cy="592.9886191589721" r="5" style="fill:rgb(128,128,128)"/>
<circle cx="2335.1148402517606" cy="587.3545990405283" r="5" style="fill:rgb(128,96,192)"/>
<circle cx="2344.9999601503873" cy="406.0904298106682" r="5" style="fill:rgb(64,192,64)"/>
<circle cx="2343.3310330440204" cy="355.6895327027017" r="5" style="fill:rgb(224,0,128)"/>
<circle cx="1729.000036298426" cy="429.1348399027546" r="5" style="fill:rgb(192,64,64)"/>
<circle cx="2131.9777299388347" cy="592.2738024325896" r="5" style="fill:rgb(224,224,128)"/>
<circle cx="1746.0577718956667" cy="481.4737759249553" r="5" style="fill:rgb(224,160,192)"/>
<circle cx="2326.4319059509253" cy="592.3159436341675" r="5" style="fill:rgb(64,64,192)"/>
<circle cx="1729.331623079856" cy="354.07886988680315" r="5" style="fill:rgb(32,128,64)"/>
<circle cx="1729.0000095504026" cy="510.0682263359761" r="5" style="fill:rgb(0,0,0)"/>
<circle cx="2268.8913468945334" cy="343.13879630712563" r="5" style="fill:rgb(128,64,0)"/>
<circle cx="2067.2167446175617" cy="346.163057279893" r="5" style="fill:rgb(160,0,128)"/>
<circle cx="2069.481941503961" cy="583.370025469973" r="5" style="fill:rgb(32,64,128)"/>
<circle cx="1777.8843977848535" cy="591.9158862381289" r="5" style="fill:rgb(64,160,64)"/>
<circle cx="1776.157504849543" cy="334.0000005300038" r="5" style="fill:rgb(0,128,64)"/>
<circle cx="1731.192930991729" cy="487.460623257225" r="5" style="fill:rgb(32,96,128)"/>
<circle cx="1980.5450097966384" cy="592.9999945915268" r="5" style="fill:rgb(32,224,192)"/>
<circle cx="1807.965148030841" cy="592.2423631639961" r="5" style="fill:rgb(192,128,192)"/>
<circle cx="2317.894938250496" cy="583.275926528445" r="5" style="fill:rgb(128,192,64)"/>
</svg>