<svg viewBox="0 0 8531 3600" xmlns="http://www.w3.org/2000/svg">
<rect fill="white" height="100%" width="100%"/>
<rect height="1126" style="stroke:pink;stroke-width:10;fill:gray;fill-opacity:0.1;stroke-opacity:0.9" width="216" x="0" y="0"/>
<circle cx="4940" cy="3555" r="5" style="fill:blue"/>
<circle cx="6230" cy="576" r="5" style="fill:blue"/>
<circle cx="2740" cy="3289" r="5" style="fill:blue"/>
<circle cx="2979" cy="777" r="5" style="fill:blue"/>
<circle cx="7770" cy="1221" r="5" style="fill:blue"/>
<circle cx="3703" cy="2298" r="5" style="fill:blue"/>
<circle cx="642" cy="2973" r="5" style="fill:blue"/>
<circle cx="5714" cy="243" r="5" style="fill:blue"/>
<circle cx="2499" cy="1049" r="5" style="fill:blue"/>
<circle cx="2979" cy="2083" r="5" style="fill:blue"/>
<circle cx="6196" cy="291" r="5" style="fill:blue"/>
<circle cx="266" cy="2647" r="5" style="fill:blue"/>
<circle cx="5432" cy="272" r="5" style="fill:blue"/>
<circle cx="8052" cy="3117" r="5" style="fill:blue"/>
<circle cx="5617" cy="471" r="5" style="fill:blue"/>
<circle cx="137" cy="2239" r="5" style="fill:blue"/>
<circle cx="4411" cy="2989" r="5" style="fill:blue"/>
<circle cx="6296" cy="1429" r="5" style="fill:blue"/>
<circle cx="5661" cy="3174" r="5" style="fill:blue"/>
<circle cx="253" cy="3050" r="5" style="fill:blue"/>
<circle cx="4493" cy="2517" r="5" style="fill:blue"/>
<circle cx="7317" cy="517" r="5" style="fill:blue"/>
<circle cx="4075" cy="3016" r="5" style="fill:blue"/>
<circle cx="392" cy="822" r="5" style="fill:blue"/>
<circle cx="8326" cy="592" r="5" style="fill:blue"/>
<circle cx="3259" cy="532" r="5" style="fill:blue"/>
<circle cx="2818" cy="1755" r="5" style="fill:blue"/>
<circle cx="2622" cy="1128" r="5" style="fill:blue"/>
<circle cx="15" cy="3081" r="5" style="fill:blue"/>
<circle cx="8222" cy="155" r="5" style="fill:blue"/>
<circle cx="2504" cy="2058" r="5" style="fill:blue"/>
<circle cx="864" cy="2141" r="5" style="fill:blue"/>
<circle cx="696" cy="522" r="5" style="fill:blue"/>
<circle cx="829" cy="3473" r="5" style="fill:blue"/>
<circle cx="397" cy="2009" r="5" style="fill:blue"/>
<circle cx="196" cy="3281" r="5" style="fill:blue"/>
<circle cx="6595" cy="2683" r="5" style="fill:blue"/>
<circle cx="2931" cy="2779" r="5" style="fill:blue"/>
<circle cx="6295" cy="841" r="5" style="fill:blue"/>
<circle cx="7563" cy="174" r="5" style="fill:blue"/>
<circle cx="7907" cy="2081" r="5" style="fill:blue"/>
<circle cx="4538" cy="897" r="5" style="fill:blue"/>
<circle cx="7176" cy="2261" r="5" style="fill:blue"/>
<circle cx="6266" cy="951" r="5" style="fill:blue"/>
<circle cx="4604" cy="3077" r="5" style="fill:blue"/>
<circle cx="7189" cy="243" r="5" style="fill:blue"/>
<circle cx="158" cy="2245" r="5" style="fill:blue"/>
<circle cx="4015" cy="276" r="5" style="fill:blue"/>
<circle cx="1008" cy="1724" r="5" style="fill:blue"/>
<circle cx="6849" cy="2944" r="5" style="fill:blue"/>
<circle cx="2777" cy="2050" r="5" style="fill:blue"/>
<circle cx="7162" cy="3582" r="5" style="fill:blue"/>
<circle cx="7600" cy="2925" r="5" style="fill:blue"/>
<circle cx="7295" cy="2334" r="5" style="fill:blue"/>
<circle cx="1876" cy="3075" r="5" style="fill:blue"/>
<circle cx="2783" cy="2722" r="5" style="fill:blue"/>
<circle cx="8254" cy="34" r="5" style="fill:blue"/>
<circle cx="2689" cy="2858" r="5" style="fill:blue"/>
<circle cx="8031" cy="357" r="5" style="fill:blue"/>
<circle cx="3395" cy="63" r="5" style="fill:blue"/>
<circle cx="5804" cy="1849" r="5" style="fill:blue"/>
<circle cx="6686" cy="105" r="5" style="fill:blue"/>
<circle cx="4966" cy="891" r="5" style="fill:blue"/>
<circle cx="7494" cy="2513" r="5" style="fill:blue"/>
<circle cx="6377" cy="426" r="5" style="fill:blue"/>
<circle cx="5819" cy="141" r="5" style="fill:blue"/>
<circle cx="5042" cy="313" r="5" style="fill:blue"/>
<circle cx="5934" cy="809" r="5" style="fill:blue"/>
<circle cx="6919" cy="3351" r="5" style="fill:blue"/>
<circle cx="7245" cy="3021" r="5" style="fill:blue"/>
<circle cx="3235" cy="2050" r="5" style="fill:blue"/>
<circle cx="2886" cy="62" r="5" style="fill:blue"/>
<circle cx="7600" cy="2413" r="5" style="fill:blue"/>
<circle cx="4488" cy="3083" r="5" style="fill:blue"/>
<circle cx="2344" cy="2658" r="5" style="fill:blue"/>
<circle cx="8299" cy="1372" r="5" style="fill:blue"/>
<circle cx="1346" cy="2649" r="5" style="fill:blue"/>
<circle cx="3162" cy="1910" r="5" style="fill:blue"/>
<circle cx="355" cy="1942" r="5" style="fill:blue"/>
<circle cx="1439" cy="2779" r="5" style="fill:blue"/>
<circle cx="3374" cy="597" r="5" style="fill:blue"/>
<circle cx="1057" cy="310" r="5" style="fill:blue"/>
<circle cx="7626" cy="3160" r="5" style="fill:blue"/>
<circle cx="8002" cy="3410" r="5" style="fill:blue"/>
<circle cx="7608" cy="2533" r="5" style="fill:blue"/>
<circle cx="2262" cy="1447" r="5" style="fill:blue"/>
<circle cx="8335" cy="639" r="5" style="fill:blue"/>
<circle cx="7808" cy="1317" r="5" style="fill:blue"/>
<circle cx="3152" cy="1529" r="5" style="fill:blue"/>
<circle cx="6583" cy="1396" r="5" style="fill:blue"/>
<circle cx="1705" cy="1766" r="5" style="fill:blue"/>
<circle cx="1884" cy="145" r="5" style="fill:blue"/>
<circle cx="1810" cy="2963" r="5" style="fill:blue"/>
<circle cx="523" cy="2166" r="5" style="fill:blue"/>
<circle cx="5122" cy="1475" r="5" style="fill:blue"/>
<circle cx="3328" cy="1310" r="5" style="fill:blue"/>
<circle cx="4973" cy="1539" r="5" style="fill:blue"/>
<circle cx="2998" cy="3525" r="5" style="fill:blue"/>
<circle cx="7607" cy="2003" r="5" style="fill:blue"/>
<circle cx="1990" cy="1844" r="5" style="fill:blue"/>
<circle cx="1896" cy="561" r="5" style="fill:blue"/>
<circle cx="1850" cy="3057" r="5" style="fill:blue"/>
<circle cx="7884" cy="709" r="5" style="fill:blue"/>
<circle cx="2095" cy="1763" r="5" style="fill:blue"/>
<circle cx="5501" cy="2370" r="5" style="fill:blue"/>
<circle cx="4937" cy="1179" r="5" style="fill:blue"/>
<circle cx="5550" cy="1500" r="5" style="fill:blue"/>
<circle cx="3866" cy="2217" r="5" style="fill:blue"/>
<circle cx="4357" cy="1269" r="5" style="fill:blue"/>
<circle cx="86" cy="1375" r="5" style="fill:blue"/>
<circle cx="4171" cy="1720" r="5" style="fill:blue"/>
<circle cx="6401" cy="1390" r="5" style="fill:blue"/>
<circle cx="3007" cy="2280" r="5" style="fill:blue"/>
<circle cx="1487" cy="2032" r="5" style="fill:blue"/>
<circle cx="4172" cy="1860" r="5" style="fill:blue"/>
<circle cx="1811" cy="2916" r="5" style="fill:blue"/>
<circle cx="2946" cy="1956" r="5" style="fill:blue"/>
<circle cx="5936" cy="3394" r="5" style="fill:blue"/>
<circle cx="7167" cy="2463" r="5" style="fill:blue"/>
<circle cx="6497" cy="3593" r="5" style="fill:blue"/>
<circle cx="3792" cy="2151" r="5" style="fill:blue"/>
<circle cx="2822" cy="255" r="5" style="fill:blue"/>
<circle cx="3599" cy="1680" r="5" style="fill:blue"/>
<circle cx="893" cy="480" r="5" style="fill:blue"/>
<circle cx="322" cy="322" r="5" style="fill:blue"/>
<circle cx="8400" cy="994" r="5" style="fill:blue"/>
<circle cx="1853" cy="2196" r="5" style="fill:blue"/>
<circle cx="2974" cy="2313" r="5" style="fill:blue"/>
<circle cx="8176" cy="1630" r="5" style="fill:blue"/>
<circle cx="1176" cy="1414" r="5" style="fill:blue"/>
<circle cx="792" cy="1983" r="5" style="fill:blue"/>
<circle cx="4753" cy="2131" r="5" style="fill:blue"/>
<circle cx="6141" cy="582" r="5" style="fill:blue"/>
<circle cx="4887" cy="3287" r="5" style="fill:blue"/>
<circle cx="8469" cy="3162" r="5" style="fill:blue"/>
<circle cx="3480" cy="1287" r="5" style="fill:blue"/>
<circle cx="3017" cy="1739" r="5" style="fill:blue"/>
<circle cx="4234" cy="2586" r="5" style="fill:blue"/>
<circle cx="7451" cy="863" r="5" style="fill:blue"/>
<circle cx="2002" cy="2518" r="5" style="fill:blue"/>
<circle cx="5311" cy="842" r="5" style="fill:blue"/>
<circle cx="7658" cy="907" r="5" style="fill:blue"/>
<circle cx="392" cy="6" r="5" style="fill:blue"/>
<circle cx="5298" cy="1502" r="5" style="fill:blue"/>
<circle cx="3018" cy="1692" r="5" style="fill:blue"/>
<circle cx="4466" cy="2999" r="5" style="fill:blue"/>
<circle cx="1203" cy="2713" r="5" style="fill:blue"/>
<circle cx="4200" cy="2093" r="5" style="fill:blue"/>
<circle cx="8130" cy="488" r="5" style="fill:blue"/>
<circle cx="3601" cy="47" r="5" style="fill:blue"/>
<circle cx="540" cy="2378" r="5" style="fill:blue"/>
<circle cx="2555" cy="3012" r="5" style="fill:blue"/>
<circle cx="6798" cy="1330" r="5" style="fill:blue"/>
<circle cx="4833" cy="2447" r="5" style="fill:blue"/>
<circle cx="7190" cy="1701" r="5" style="fill:blue"/>
<circle cx="2757" cy="2743" r="5" style="fill:blue"/>
<circle cx="4570" cy="696" r="5" style="fill:blue"/>
<circle cx="5623" cy="3267" r="5" style="fill:blue"/>
<circle cx="5556" cy="2154" r="5" style="fill:blue"/>
<circle cx="250" cy="1546" r="5" style="fill:blue"/>
<circle cx="3459" cy="2551" r="5" style="fill:blue"/>
<circle cx="5214" cy="2232" r="5" style="fill:blue"/>
<circle cx="5929" cy="3487" r="5" style="fill:blue"/>
<circle cx="3120" cy="1915" r="5" style="fill:blue"/>
<circle cx="3360" cy="2671" r="5" style="fill:blue"/>
<circle cx="3107" cy="3166" r="5" style="fill:blue"/>
<circle cx="3770" cy="591" r="5" style="fill:blue"/>
<circle cx="671" cy="1676" r="5" style="fill:blue"/>
<circle cx="3671" cy="658" r="5" style="fill:blue"/>
<circle cx="7086" cy="3497" r="5" style="fill:blue"/>
<circle cx="3864" cy="539" r="5" style="fill:blue"/>
<circle cx="5593" cy="2174" r="5" style="fill:blue"/>
<circle cx="8279" cy="545" r="5" style="fill:blue"/>
<circle cx="6774" cy="1352" r="5" style="fill:blue"/>
<circle cx="3540" cy="1417" r="5" style="fill:blue"/>
<circle cx="1992" cy="1734" r="5" style="fill:blue"/>
<circle cx="2736" cy="204" r="5" style="fill:blue"/>
<circle cx="1288" cy="3402" r="5" style="fill:blue"/>
<circle cx="1680" cy="707" r="5" style="fill:blue"/>
<circle cx="2998" cy="1373" r="5" style="fill:blue"/>
<circle cx="5858" cy="3460" r="5" style="fill:blue"/>
<circle cx="5135" cy="1056" r="5" style="fill:blue"/>
<circle cx="7728" cy="1003" r="5" style="fill:blue"/>
<circle cx="3385" cy="1419" r="5" style="fill:blue"/>
<circle cx="3980" cy="754" r="5" style="fill:blue"/>
<circle cx="1061" cy="3103" r="5" style="fill:blue"/>
<circle cx="8390" cy="1096" r="5" style="fill:blue"/>
<circle cx="5277" cy="3530" r="5" style="fill:blue"/>
<circle cx="950" cy="860" r="5" style="fill:blue"/>
<circle cx="2228" cy="254" r="5" style="fill:blue"/>
<circle cx="1569" cy="766" r="5" style="fill:blue"/>
<circle cx="803" cy="731" r="5" style="fill:blue"/>
<circle cx="4291" cy="2244" r="5" style="fill:blue"/>
<circle cx="6194" cy="64" r="5" style="fill:blue"/>
<circle cx="8197" cy="865" r="5" style="fill:blue"/>
<circle cx="6863" cy="1988" r="5" style="fill:blue"/>
<circle cx="6556" cy="2997" r="5" style="fill:blue"/>
<circle cx="2977" cy="1296" r="5" style="fill:blue"/>
<circle cx="1431" cy="2685" r="5" style="fill:blue"/>
<circle cx="992" cy="2578" r="5" style="fill:blue"/>
<circle cx="203.61306703806056" cy="211.82399319063492" r="5" style="fill:rgb(0,0,0)"/>
<circle cx="197.91331971073544" cy="308.9859947184755" r="5" style="fill:rgb(96,64,0)"/>
<circle cx="205.9994847290287" cy="366.42427848286144" r="5" style="fill:rgb(192,128,0)"/>
<circle cx="205.9998517216329" cy="426.3525100780402" r="5" style="fill:rgb(32,224,0)"/>
<circle cx="205.99859846567344" cy="303.10121554255335" r="5" style="fill:rgb(128,32,64)"/>
<circle cx="205.99901793312952" cy="261.4847407704899" r="5" style="fill:rgb(224,96,64)"/>
<circle cx="205.99997950752015" cy="149.55428799637298" r="5" style="fill:rgb(64,192,64)"/>
<circle cx="205.99807735336347" cy="251.48470617651375" r="5" style="fill:rgb(224,96,64)"/>
<circle cx="205.99983464079887" cy="348.1950272217148" r="5" style="fill:rgb(192,128,0)"/>
<circle cx="205.99996089671032" cy="168.3146926996993" r="5" style="fill:rgb(64,192,64)"/>
<circle cx="204.2271401236153" cy="404.26209263597815" r="5" style="fill:rgb(32,224,0)"/>
<circle cx="201.8836465879132" cy="357.30968523364476" r="5" style="fill:rgb(96,64,0)"/>
<circle cx="205.99979190551468" cy="314.870132672595" r="5" style="fill:rgb(128,32,64)"/>
<circle cx="205.25855562393005" cy="384.38600266443507" r="5" style="fill:rgb(0,0,0)"/>
<circle cx="204.47279537510613" cy="181.2188847947884" r="5" style="fill:rgb(0,0,0)"/>
<circle cx="205.99958704458024" cy="191.40636025905707" r="5" style="fill:rgb(224,96,64)"/>
<circle cx="205.99951268499984" cy="394.4165133389036" r="5" style="fill:rgb(32,224,0)"/>
<circle cx="205.99991477460833" cy="292.13044880608084" r="5" style="fill:rgb(128,32,64)"/>
<circle cx="197.42456734665848" cy="320.01521586562825" r="5" style="fill:rgb(96,64,0)"/>
<circle cx="201.24851308993323" cy="375.22429012040374" r="5" style="fill:rgb(96,64,0)"/>
<circle cx="205.8694767226489" cy="201.9493734585235" r="5" style="fill:rgb(64,192,64)"/>
<circle cx="205.6142801910039" cy="439.9237080189354" r="5" style="fill:rgb(32,224,0)"/>
<circle cx="196.58797349383315" cy="344.815845842591" r="5" style="fill:rgb(96,64,0)"/>
<circle cx="205.9999691590543" cy="281.4863455961135" r="5" style="fill:rgb(128,32,64)"/>
<circle cx="205.99994697551372" cy="325.1696280594137" r="5" style="fill:rgb(192,128,0)"/>
<circle cx="196.31474686380824" cy="283.976077518683" r="5" style="fill:rgb(192,128,0)"/>
<circle cx="205.9999992076872" cy="55.1529395478272" r="5" style="fill:rgb(64,192,64)"/>
<circle cx="205.99951111005572" cy="221.53539366300907" r="5" style="fill:rgb(224,96,64)"/>
<circle cx="196.50763302359852" cy="295.2776721876847" r="5" style="fill:rgb(192,128,0)"/>
<circle cx="205.78089555721928" cy="271.4884567172946" r="5" style="fill:rgb(128,32,64)"/>
<circle cx="205.18609347106215" cy="338.169332699538" r="5" style="fill:rgb(192,128,0)"/>
<circle cx="205.26507643275588" cy="241.51141795690052" r="5" style="fill:rgb(224,96,64)"/>
<circle cx="205.31052898141" cy="453.6632447573119" r="5" style="fill:rgb(0,0,0)"/>
<circle cx="205.99999922845657" cy="110.49456609233552" r="5" style="fill:rgb(64,192,64)"/>
<circle cx="205.945572836254" cy="414.11850825818607" r="5" style="fill:rgb(32,224,0)"/>
<circle cx="198.0158076110309" cy="331.19273270616776" r="5" style="fill:rgb(192,128,0)"/>
<circle cx="205.99960309377036" cy="130.26963912197894" r="5" style="fill:rgb(64,192,64)"/>
<circle cx="205.99945519401783" cy="231.53804067791188" r="5" style="fill:rgb(224,96,64)"/>
</svg>