<svg viewBox="0 0 5144 3291" xmlns="http://www.w3.org/2000/svg">
<rect fill="white" height="100%" width="100%"/>
<rect height="801" style="stroke:pink;stroke-width:10;fill:gray;fill-opacity:0.1;stroke-opacity:0.9" width="1611" x="0" y="0"/>
<circle cx="2603" cy="1140" r="5" style="fill:blue"/>
<circle cx="2887" cy="197" r="5" style="fill:blue"/>
<circle cx="1999" cy="2791" r="5" style="fill:blue"/>
<circle cx="4925" cy="1332" r="5" style="fill:blue"/>
<circle cx="3366" cy="1690" r="5" style="fill:blue"/>
<circle cx="2245" cy="2756" r="5" style="fill:blue"/>
<circle cx="4016" cy="105" r="5" style="fill:blue"/>
<circle cx="1605" cy="1554" r="5" style="fill:blue"/>
<circle cx="3168" cy="1418" r="5" style="fill:blue"/>
<circle cx="2892" cy="83" r="5" style="fill:blue"/>
<circle cx="2391" cy="2573" r="5" style="fill:blue"/>
<circle cx="941" cy="2183" r="5" style="fill:blue"/>
<circle cx="406" cy="1645" r="5" style="fill:blue"/>
<circle cx="3111" cy="2758" r="5" style="fill:blue"/>
<circle cx="2350" cy="1558" r="5" style="fill:blue"/>
<circle cx="2760" cy="1602" r="5" style="fill:blue"/>
<circle cx="762" cy="3234" r="5" style="fill:blue"/>
<circle cx="3784" cy="3009" r="5" style="fill:blue"/>
<circle cx="972" cy="2793" r="5" style="fill:blue"/>
<circle cx="614" cy="949" r="5" style="fill:blue"/>
<circle cx="1975" cy="3054" r="5" style="fill:blue"/>
<circle cx="2541" cy="2093" r="5" style="fill:blue"/>
<circle cx="2703" cy="1386" r="5" style="fill:blue"/>
<circle cx="454" cy="3136" r="5" style="fill:blue"/>
<circle cx="1943" cy="3105" r="5" style="fill:blue"/>
<circle cx="4129" cy="68" r="5" style="fill:blue"/>
<circle cx="227" cy="2674" r="5" style="fill:blue"/>
<circle cx="1081" cy="1581" r="5" style="fill:blue"/>
<circle cx="2261" cy="994" r="5" style="fill:blue"/>
<circle cx="3808" cy="1832" r="5" style="fill:blue"/>
<circle cx="3388" cy="1640" r="5" style="fill:blue"/>
<circle cx="3025" cy="2693" r="5" style="fill:blue"/>
<circle cx="4261" cy="1257" r="5" style="fill:blue"/>
<circle cx="3790" cy="2981" r="5" style="fill:blue"/>
<circle cx="3632" cy="269" r="5" style="fill:blue"/>
<circle cx="3550" cy="1597" r="5" style="fill:blue"/>
<circle cx="2700" cy="2074" r="5" style="fill:blue"/>
<circle cx="2085" cy="257" r="5" style="fill:blue"/>
<circle cx="5117" cy="153" r="5" style="fill:blue"/>
<circle cx="1506" cy="1332" r="5" style="fill:blue"/>
<circle cx="3007" cy="1352" r="5" style="fill:blue"/>
<circle cx="2587" cy="1917" r="5" style="fill:blue"/>
<circle cx="2097" cy="1219" r="5" style="fill:blue"/>
<circle cx="4900" cy="323" r="5" style="fill:blue"/>
<circle cx="3884" cy="334" r="5" style="fill:blue"/>
<circle cx="1152" cy="1597" r="5" style="fill:blue"/>
<circle cx="1854" cy="754" r="5" style="fill:blue"/>
<circle cx="95" cy="972" r="5" style="fill:blue"/>
<circle cx="2866" cy="2185" r="5" style="fill:blue"/>
<circle cx="1435" cy="2855" r="5" style="fill:blue"/>
<circle cx="4281" cy="143" r="5" style="fill:blue"/>
<circle cx="1984" cy="427" r="5" style="fill:blue"/>
<circle cx="2735" cy="2593" r="5" style="fill:blue"/>
<circle cx="4566" cy="83" r="5" style="fill:blue"/>
<circle cx="1578" cy="947" r="5" style="fill:blue"/>
<circle cx="349" cy="2248" r="5" style="fill:blue"/>
<circle cx="1316" cy="3141" r="5" style="fill:blue"/>
<circle cx="1698" cy="378" r="5" style="fill:blue"/>
<circle cx="1285" cy="1329" r="5" style="fill:blue"/>
<circle cx="4229" cy="220" r="5" style="fill:blue"/>
<circle cx="4731" cy="1702" r="5" style="fill:blue"/>
<circle cx="1976" cy="1923" r="5" style="fill:blue"/>
<circle cx="5084" cy="144" r="5" style="fill:blue"/>
<circle cx="2530" cy="1431" r="5" style="fill:blue"/>
<circle cx="1047" cy="1129" r="5" style="fill:blue"/>
<circle cx="4908" cy="622" r="5" style="fill:blue"/>
<circle cx="4909" cy="3089" r="5" style="fill:blue"/>
<circle cx="4751" cy="2954" r="5" style="fill:blue"/>
<circle cx="4824" cy="1085" r="5" style="fill:blue"/>
<circle cx="2427" cy="2414" r="5" style="fill:blue"/>
<circle cx="4896" cy="318" r="5" style="fill:blue"/>
<circle cx="4757" cy="3205" r="5" style="fill:blue"/>
<circle cx="3246" cy="404" r="5" style="fill:blue"/>
<circle cx="1406" cy="830" r="5" style="fill:blue"/>
<circle cx="880" cy="1248" r="5" style="fill:blue"/>
<circle cx="210" cy="3197" r="5" style="fill:blue"/>
<circle cx="4207" cy="650" r="5" style="fill:blue"/>
<circle cx="2582" cy="1790" r="5" style="fill:blue"/>
<circle cx="4292" cy="1923" r="5" style="fill:blue"/>
<circle cx="1336" cy="1378" r="5" style="fill:blue"/>
<circle cx="1621" cy="1011" r="5" style="fill:blue"/>
<circle cx="1396" cy="1729" r="5" style="fill:blue"/>
<circle cx="706" cy="1031" r="5" style="fill:blue"/>
<circle cx="1231" cy="2206" r="5" style="fill:blue"/>
<circle cx="554" cy="1324" r="5" style="fill:blue"/>
<circle cx="146" cy="1743" r="5" style="fill:blue"/>
<circle cx="2565" cy="1645" r="5" style="fill:blue"/>
<circle cx="2121" cy="183" r="5" style="fill:blue"/>
<circle cx="4051" cy="2456" r="5" style="fill:blue"/>
<circle cx="3405" cy="2055" r="5" style="fill:blue"/>
<circle cx="2584" cy="1364" r="5" style="fill:blue"/>
<circle cx="3746" cy="2703" r="5" style="fill:blue"/>
<circle cx="902" cy="2886" r="5" style="fill:blue"/>
<circle cx="3214" cy="986" r="5" style="fill:blue"/>
<circle cx="4336" cy="1007" r="5" style="fill:blue"/>
<circle cx="2284" cy="1289" r="5" style="fill:blue"/>
<circle cx="957" cy="1780" r="5" style="fill:blue"/>
<circle cx="3869" cy="372" r="5" style="fill:blue"/>
<circle cx="1947" cy="1646" r="5" style="fill:blue"/>
<circle cx="3398" cy="271" r="5" style="fill:blue"/>
<circle cx="1745" cy="176" r="5" style="fill:blue"/>
<circle cx="3932" cy="455" r="5" style="fill:blue"/>
<circle cx="4046" cy="793" r="5" style="fill:blue"/>
<circle cx="312" cy="1624" r="5" style="fill:blue"/>
<circle cx="2642" cy="2080" r="5" style="fill:blue"/>
<circle cx="3603" cy="1754" r="5" style="fill:blue"/>
<circle cx="543" cy="2435" r="5" style="fill:blue"/>
<circle cx="439" cy="3179" r="5" style="fill:blue"/>
<circle cx="1942" cy="2069" r="5" style="fill:blue"/>
<circle cx="85" cy="1634" r="5" style="fill:blue"/>
<circle cx="1950" cy="150" r="5" style="fill:blue"/>
<circle cx="1978" cy="2058" r="5" style="fill:blue"/>
<circle cx="2719" cy="2129" r="5" style="fill:blue"/>
<circle cx="2771" cy="1111" r="5" style="fill:blue"/>
<circle cx="3991" cy="1369" r="5" style="fill:blue"/>
<circle cx="1557" cy="1968" r="5" style="fill:blue"/>
<circle cx="3205" cy="1827" r="5" style="fill:blue"/>
<circle cx="1521" cy="1792" r="5" style="fill:blue"/>
<circle cx="3334" cy="1659" r="5" style="fill:blue"/>
<circle cx="3372" cy="2356" r="5" style="fill:blue"/>
<circle cx="2777" cy="865" r="5" style="fill:blue"/>
<circle cx="3939" cy="566" r="5" style="fill:blue"/>
<circle cx="1632" cy="2208" r="5" style="fill:blue"/>
<circle cx="3248" cy="2194" r="5" style="fill:blue"/>
<circle cx="2359" cy="389" r="5" style="fill:blue"/>
<circle cx="2516" cy="3253" r="5" style="fill:blue"/>
<circle cx="4366" cy="607" r="5" style="fill:blue"/>
<circle cx="3851" cy="3286" r="5" style="fill:blue"/>
<circle cx="3928" cy="1058" r="5" style="fill:blue"/>
<circle cx="3916" cy="574" r="5" style="fill:blue"/>
<circle cx="4662" cy="562" r="5" style="fill:blue"/>
<circle cx="97" cy="1696" r="5" style="fill:blue"/>
<circle cx="4632" cy="1422" r="5" style="fill:blue"/>
<circle cx="2717" cy="61" r="5" style="fill:blue"/>
<circle cx="3469" cy="3183" r="5" style="fill:blue"/>
<circle cx="3411" cy="19" r="5" style="fill:blue"/>
<circle cx="4426" cy="2324" r="5" style="fill:blue"/>
<circle cx="4792" cy="299" r="5" style="fill:blue"/>
<circle cx="2051" cy="261" r="5" style="fill:blue"/>
<circle cx="1338" cy="1425" r="5" style="fill:blue"/>
<circle cx="1919" cy="2909" r="5" style="fill:blue"/>
<circle cx="3694" cy="2905" r="5" style="fill:blue"/>
<circle cx="4697" cy="911" r="5" style="fill:blue"/>
<circle cx="3752" cy="2855" r="5" style="fill:blue"/>
<circle cx="1002" cy="2396" r="5" style="fill:blue"/>
<circle cx="3339" cy="1543" r="5" style="fill:blue"/>
<circle cx="2179" cy="1288" r="5" style="fill:blue"/>
<circle cx="1304" cy="2461" r="5" style="fill:blue"/>
<circle cx="2669" cy="2486" r="5" style="fill:blue"/>
<circle cx="4611" cy="58" r="5" style="fill:blue"/>
<circle cx="1625" cy="401" r="5" style="fill:blue"/>
<circle cx="3636" cy="2754" r="5" style="fill:blue"/>
<circle cx="4020" cy="505" r="5" style="fill:blue"/>
<circle cx="3715" cy="820" r="5" style="fill:blue"/>
<circle cx="1495" cy="2231" r="5" style="fill:blue"/>
<circle cx="1599" cy="3041" r="5" style="fill:blue"/>
<circle cx="4393" cy="1985" r="5" style="fill:blue"/>
<circle cx="679" cy="1757" r="5" style="fill:blue"/>
<circle cx="2406" cy="776" r="5" style="fill:blue"/>
<circle cx="3484" cy="2394" r="5" style="fill:blue"/>
<circle cx="2425" cy="1064" r="5" style="fill:blue"/>
<circle cx="4999" cy="2273" r="5" style="fill:blue"/>
<circle cx="4936" cy="2739" r="5" style="fill:blue"/>
<circle cx="2168" cy="18" r="5" style="fill:blue"/>
<circle cx="2562" cy="1274" r="5" style="fill:blue"/>
<circle cx="3543" cy="2120" r="5" style="fill:blue"/>
<circle cx="1516" cy="3158" r="5" style="fill:blue"/>
<circle cx="4156" cy="981" r="5" style="fill:blue"/>
<circle cx="3293" cy="1948" r="5" style="fill:blue"/>
<circle cx="1141" cy="2798" r="5" style="fill:blue"/>
<circle cx="2812" cy="716" r="5" style="fill:blue"/>
<circle cx="2972" cy="978" r="5" style="fill:blue"/>
<circle cx="1802" cy="924" r="5" style="fill:blue"/>
<circle cx="4793" cy="360" r="5" style="fill:blue"/>
<circle cx="3718" cy="1934" r="5" style="fill:blue"/>
<circle cx="567" cy="2253" r="5" style="fill:blue"/>
<circle cx="2376" cy="681" r="5" style="fill:blue"/>
<circle cx="1735" cy="396" r="5" style="fill:blue"/>
<circle cx="2661" cy="1492" r="5" style="fill:blue"/>
<circle cx="2221" cy="3259" r="5" style="fill:blue"/>
<circle cx="2843" cy="3042" r="5" style="fill:blue"/>
<circle cx="4395" cy="3070" r="5" style="fill:blue"/>
<circle cx="968" cy="1129" r="5" style="fill:blue"/>
<circle cx="5075" cy="53" r="5" style="fill:blue"/>
<circle cx="2792" cy="1069" r="5" style="fill:blue"/>
<circle cx="1718" cy="2367" r="5" style="fill:blue"/>
<circle cx="4172" cy="2503" r="5" style="fill:blue"/>
<circle cx="2486" cy="155" r="5" style="fill:blue"/>
<circle cx="4003" cy="1607" r="5" style="fill:blue"/>
<circle cx="2019" cy="3233" r="5" style="fill:blue"/>
<circle cx="1633" cy="1839" r="5" style="fill:blue"/>
<circle cx="1164" cy="2395" r="5" style="fill:blue"/>
<circle cx="2744" cy="135" r="5" style="fill:blue"/>
<circle cx="4798" cy="3201" r="5" style="fill:blue"/>
<circle cx="1552" cy="1848" r="5" style="fill:blue"/>
<circle cx="324" cy="1120" r="5" style="fill:blue"/>
<circle cx="1366" cy="1245" r="5" style="fill:blue"/>
<circle cx="2459" cy="1743" r="5" style="fill:blue"/>
<circle cx="263" cy="3049" r="5" style="fill:blue"/>
<circle cx="1845" cy="1212" r="5" style="fill:blue"/>
<circle cx="1600.9999907639046" cy="285.71225020446724" r="5" style="fill:rgb(0,0,0)"/>
<circle cx="1407.6043725804154" cy="790.9999827362449" r="5" style="fill:rgb(96,64,0)"/>
<circle cx="1356.963396871956" cy="790.9949638179681" r="5" style="fill:rgb(192,128,0)"/>
<circle cx="1469.3086855452082" cy="790.0883621290848" r="5" style="fill:rgb(32,224,0)"/>
<circle cx="1386.9637926010191" cy="790.9998772690616" r="5" style="fill:rgb(128,32,64)"/>
<circle cx="1401.7913368907602" cy="781.9357478101996" r="5" style="fill:rgb(224,96,64)"/>
<circle cx="1366.9636718462036" cy="790.9984254995263" r="5" style="fill:rgb(64,192,64)"/>
<circle cx="1541.8870955995776" cy="787.8101754878214" r="5" style="fill:rgb(160,0,128)"/>
<circle cx="1600.9999847162371" cy="407.2336366122032" r="5" style="fill:rgb(0,96,128)"/>
<circle cx="1447.7506048364178" cy="790.9918308437333" r="5" style="fill:rgb(96,160,128)"/>
<circle cx="1427.750138211939" cy="790.9815227147371" r="5" style="fill:rgb(192,224,128)"/>
<circle cx="1574.304534195088" cy="789.3294661707141" r="5" style="fill:rgb(32,64,192)"/>
<circle cx="1417.7500926720477" cy="790.9999462598452" r="5" style="fill:rgb(128,128,192)"/>
<circle cx="1600.9999727905365" cy="428.4706950785893" r="5" style="fill:rgb(224,192,192)"/>
<circle cx="1592.1237244440674" cy="402.6279119212007" r="5" style="fill:rgb(64,32,0)"/>
<circle cx="1600.0085209845593" cy="366.5261579438367" r="5" style="fill:rgb(160,96,0)"/>
<circle cx="1591.1254789060224" cy="388.05666876921345" r="5" style="fill:rgb(0,192,0)"/>
<circle cx="1600.9999689495069" cy="386.47709585692286" r="5" style="fill:rgb(96,0,64)"/>
<circle cx="1600.5135105038637" cy="438.45886652435735" r="5" style="fill:rgb(192,64,64)"/>
<circle cx="1600.9998755495828" cy="462.31860713116544" r="5" style="fill:rgb(32,160,64)"/>
<circle cx="1600.999973299727" cy="790.9989272649129" r="5" style="fill:rgb(128,224,64)"/>
<circle cx="1591.0219888873053" cy="417.7142108520488" r="5" style="fill:rgb(224,32,128)"/>
<circle cx="1600.9999782574548" cy="376.4770177119126" r="5" style="fill:rgb(64,128,128)"/>
<circle cx="1600.999944636371" cy="397.18225058660346" r="5" style="fill:rgb(160,192,128)"/>
<circle cx="1600.9999810053532" cy="418.37848768560906" r="5" style="fill:rgb(0,32,192)"/>
<circle cx="1346.3113700185902" cy="790.9997946045527" r="5" style="fill:rgb(96,96,192)"/>
<circle cx="1600.9997035403842" cy="448.60057230611295" r="5" style="fill:rgb(192,160,192)"/>
<circle cx="1376.9636768117812" cy="790.9998850170441" r="5" style="fill:rgb(32,0,0)"/>
<circle cx="1600.9999958022634" cy="330.3800243233257" r="5" style="fill:rgb(128,64,0)"/>
<circle cx="1397.56579670401" cy="790.9992969606028" r="5" style="fill:rgb(224,128,0)"/>
<circle cx="1600.9999926523517" cy="479.4003842536975" r="5" style="fill:rgb(64,224,0)"/>
<circle cx="1600.1488643478729" cy="356.5270257901697" r="5" style="fill:rgb(160,32,64)"/>
<circle cx="1600.9997234366765" cy="345.9700193390038" r="5" style="fill:rgb(0,128,64)"/>
<circle cx="1600.9935966756314" cy="310.21556059538415" r="5" style="fill:rgb(96,192,64)"/>
<circle cx="1487.8082379997822" cy="787.3620611864242" r="5" style="fill:rgb(192,0,128)"/>
<circle cx="1598.3708132563588" cy="320.0309879966873" r="5" style="fill:rgb(32,96,128)"/>
<circle cx="1388.8032173283789" cy="781.1703389134109" r="5" style="fill:rgb(128,160,128)"/>
<circle cx="1414.283042828678" cy="781.620183698057" r="5" style="fill:rgb(224,224,128)"/>
<circle cx="1457.765774810567" cy="790.9998440146611" r="5" style="fill:rgb(64,64,192)"/>
<circle cx="1437.7505139531424" cy="790.9999282265429" r="5" style="fill:rgb(160,128,192)"/>
</svg>