<svg viewBox="0 0 4504 4115" xmlns="http://www.w3.org/2000/svg">
<rect fill="white" height="100%" width="100%"/>
<rect height="1193" style="stroke:pink;stroke-width:10;fill:gray;fill-opacity:0.1;stroke-opacity:0.9" width="448" x="1291" y="1885"/>
<circle cx="1864" cy="2572" r="5" style="fill:blue"/>
<circle cx="1810" cy="1591" r="5" style="fill:blue"/>
<circle cx="4208" cy="2735" r="5" style="fill:blue"/>
<circle cx="1383" cy="624" r="5" style="fill:blue"/>
<circle cx="2996" cy="558" r="5" style="fill:blue"/>
<circle cx="4415" cy="3366" r="5" style="fill:blue"/>
<circle cx="1061" cy="2124" r="5" style="fill:blue"/>
<circle cx="1841" cy="3142" r="5" style="fill:blue"/>
<circle cx="809" cy="2433" r="5" style="fill:blue"/>
<circle cx="2976" cy="2177" r="5" style="fill:blue"/>
<circle cx="2106" cy="1476" r="5" style="fill:blue"/>
<circle cx="3240" cy="2547" r="5" style="fill:blue"/>
<circle cx="3377" cy="2536" r="5" style="fill:blue"/>
<circle cx="1995" cy="3863" r="5" style="fill:blue"/>
<circle cx="1212" cy="941" r="5" style="fill:blue"/>
<circle cx="1833" cy="3813" r="5" style="fill:blue"/>
<circle cx="2854" cy="1798" r="5" style="fill:blue"/>
<circle cx="3310" cy="472" r="5" style="fill:blue"/>
<circle cx="1103" cy="1892" r="5" style="fill:blue"/>
<circle cx="3424" cy="1784" r="5" style="fill:blue"/>
<circle cx="3849" cy="252" r="5" style="fill:blue"/>
<circle cx="768" cy="151" r="5" style="fill:blue"/>
<circle cx="2608" cy="2882" r="5" style="fill:blue"/>
<circle cx="3995" cy="3943" r="5" style="fill:blue"/>
<circle cx="2909" cy="1329" r="5" style="fill:blue"/>
<circle cx="4497" cy="1928" r="5" style="fill:blue"/>
<circle cx="901" cy="3830" r="5" style="fill:blue"/>
<circle cx="392" cy="3169" r="5" style="fill:blue"/>
<circle cx="2404" cy="4030" r="5" style="fill:blue"/>
<circle cx="4240" cy="1769" r="5" style="fill:blue"/>
<circle cx="3062" cy="3299" r="5" style="fill:blue"/>
<circle cx="2561" cy="787" r="5" style="fill:blue"/>
<circle cx="2162" cy="2445" r="5" style="fill:blue"/>
<circle cx="2587" cy="3774" r="5" style="fill:blue"/>
<circle cx="2198" cy="2942" r="5" style="fill:blue"/>
<circle cx="404" cy="2194" r="5" style="fill:blue"/>
<circle cx="671" cy="491" r="5" style="fill:blue"/>
<circle cx="652" cy="2839" r="5" style="fill:blue"/>
<circle cx="554" cy="1098" r="5" style="fill:blue"/>
<circle cx="1322" cy="1664" r="5" style="fill:blue"/>
<circle cx="3191" cy="1342" r="5" style="fill:blue"/>
<circle cx="4010" cy="574" r="5" style="fill:blue"/>
<circle cx="78" cy="3726" r="5" style="fill:blue"/>
<circle cx="3259" cy="771" r="5" style="fill:blue"/>
<circle cx="599" cy="1972" r="5" style="fill:blue"/>
<circle cx="2279" cy="1103" r="5" style="fill:blue"/>
<circle cx="877" cy="2021" r="5" style="fill:blue"/>
<circle cx="3692" cy="429" r="5" style="fill:blue"/>
<circle cx="2890" cy="2153" r="5" style="fill:blue"/>
<circle cx="1095" cy="248" r="5" style="fill:blue"/>
<circle cx="2861" cy="3421" r="5" style="fill:blue"/>
<circle cx="4262" cy="1613" r="5" style="fill:blue"/>
<circle cx="1713" cy="1387" r="5" style="fill:blue"/>
<circle cx="1556" cy="3277" r="5" style="fill:blue"/>
<circle cx="2204" cy="3899" r="5" style="fill:blue"/>
<circle cx="514" cy="2328" r="5" style="fill:blue"/>
<circle cx="963" cy="3073" r="5" style="fill:blue"/>
<circle cx="3567" cy="3870" r="5" style="fill:blue"/>
<circle cx="980" cy="391" r="5" style="fill:blue"/>
<circle cx="1793" cy="4036" r="5" style="fill:blue"/>
<circle cx="2585" cy="2970" r="5" style="fill:blue"/>
<circle cx="827" cy="1912" r="5" style="fill:blue"/>
<circle cx="3307" cy="3906" r="5" style="fill:blue"/>
<circle cx="4165" cy="2312" r="5" style="fill:blue"/>
<circle cx="400" cy="1470" r="5" style="fill:blue"/>
<circle cx="934" cy="418" r="5" style="fill:blue"/>
<circle cx="3026" cy="2248" r="5" style="fill:blue"/>
<circle cx="3537" cy="1285" r="5" style="fill:blue"/>
<circle cx="3278" cy="332" r="5" style="fill:blue"/>
<circle cx="3467" cy="432" r="5" style="fill:blue"/>
<circle cx="1523" cy="1688" r="5" style="fill:blue"/>
<circle cx="4425" cy="972" r="5" style="fill:blue"/>
<circle cx="4491" cy="843" r="5" style="fill:blue"/>
<circle cx="2007" cy="1582" r="5" style="fill:blue"/>
<circle cx="218" cy="1518" r="5" style="fill:blue"/>
<circle cx="1285" cy="2170" r="5" style="fill:blue"/>
<circle cx="2133" cy="547" r="5" style="fill:blue"/>
<circle cx="2109" cy="266" r="5" style="fill:blue"/>
<circle cx="3073" cy="702" r="5" style="fill:blue"/>
<circle cx="2090" cy="1771" r="5" style="fill:blue"/>
<circle cx="4012" cy="2200" r="5" style="fill:blue"/>
<circle cx="2114" cy="3493" r="5" style="fill:blue"/>
<circle cx="396" cy="1030" r="5" style="fill:blue"/>
<circle cx="650" cy="3139" r="5" style="fill:blue"/>
<circle cx="4102" cy="3916" r="5" style="fill:blue"/>
<circle cx="4059" cy="1273" r="5" style="fill:blue"/>
<circle cx="242" cy="826" r="5" style="fill:blue"/>
<circle cx="685" cy="2403" r="5" style="fill:blue"/>
<circle cx="2047" cy="660" r="5" style="fill:blue"/>
<circle cx="3685" cy="557" r="5" style="fill:blue"/>
<circle cx="3087" cy="1363" r="5" style="fill:blue"/>
<circle cx="578" cy="1922" r="5" style="fill:blue"/>
<circle cx="2095" cy="2394" r="5" style="fill:blue"/>
<circle cx="1764" cy="3508" r="5" style="fill:blue"/>
<circle cx="1125" cy="2654" r="5" style="fill:blue"/>
<circle cx="4080" cy="788" r="5" style="fill:blue"/>
<circle cx="3807" cy="1153" r="5" style="fill:blue"/>
<circle cx="887" cy="2214" r="5" style="fill:blue"/>
<circle cx="1163" cy="102" r="5" style="fill:blue"/>
<circle cx="719" cy="1087" r="5" style="fill:blue"/>
<circle cx="2506" cy="488" r="5" style="fill:blue"/>
<circle cx="2015" cy="1254" r="5" style="fill:blue"/>
<circle cx="4100" cy="1898" r="5" style="fill:blue"/>
<circle cx="567" cy="2783" r="5" style="fill:blue"/>
<circle cx="3406" cy="1023" r="5" style="fill:blue"/>
<circle cx="530" cy="1865" r="5" style="fill:blue"/>
<circle cx="3901" cy="3444" r="5" style="fill:blue"/>
<circle cx="3651" cy="3373" r="5" style="fill:blue"/>
<circle cx="2166" cy="2035" r="5" style="fill:blue"/>
<circle cx="2102" cy="2876" r="5" style="fill:blue"/>
<circle cx="1749" cy="2551" r="5" style="fill:blue"/>
<circle cx="3052" cy="3142" r="5" style="fill:blue"/>
<circle cx="2316" cy="327" r="5" style="fill:blue"/>
<circle cx="1789" cy="2321" r="5" style="fill:blue"/>
<circle cx="3937" cy="2190" r="5" style="fill:blue"/>
<circle cx="3677" cy="1170" r="5" style="fill:blue"/>
<circle cx="4368" cy="1995" r="5" style="fill:blue"/>
<circle cx="3996" cy="795" r="5" style="fill:blue"/>
<circle cx="2010" cy="1957" r="5" style="fill:blue"/>
<circle cx="2911" cy="2308" r="5" style="fill:blue"/>
<circle cx="1327" cy="76" r="5" style="fill:blue"/>
<circle cx="3570" cy="3035" r="5" style="fill:blue"/>
<circle cx="4352" cy="2898" r="5" style="fill:blue"/>
<circle cx="584" cy="1493" r="5" style="fill:blue"/>
<circle cx="95" cy="2643" r="5" style="fill:blue"/>
<circle cx="914" cy="2687" r="5" style="fill:blue"/>
<circle cx="2159" cy="214" r="5" style="fill:blue"/>
<circle cx="1702" cy="1129" r="5" style="fill:blue"/>
<circle cx="4402" cy="3248" r="5" style="fill:blue"/>
<circle cx="1690" cy="1232" r="5" style="fill:blue"/>
<circle cx="1020" cy="587" r="5" style="fill:blue"/>
<circle cx="261" cy="1494" r="5" style="fill:blue"/>
<circle cx="2770" cy="2448" r="5" style="fill:blue"/>
<circle cx="1872" cy="713" r="5" style="fill:blue"/>
<circle cx="3841" cy="306" r="5" style="fill:blue"/>
<circle cx="3676" cy="1733" r="5" style="fill:blue"/>
<circle cx="1940" cy="399" r="5" style="fill:blue"/>
<circle cx="2058" cy="532" r="5" style="fill:blue"/>
<circle cx="558" cy="307" r="5" style="fill:blue"/>
<circle cx="290" cy="2583" r="5" style="fill:blue"/>
<circle cx="1000" cy="2335" r="5" style="fill:blue"/>
<circle cx="3475" cy="1922" r="5" style="fill:blue"/>
<circle cx="3218" cy="2053" r="5" style="fill:blue"/>
<circle cx="254" cy="3162" r="5" style="fill:blue"/>
<circle cx="2303" cy="3721" r="5" style="fill:blue"/>
<circle cx="3646" cy="480" r="5" style="fill:blue"/>
<circle cx="2674" cy="2448" r="5" style="fill:blue"/>
<circle cx="2316" cy="1004" r="5" style="fill:blue"/>
<circle cx="1023" cy="317" r="5" style="fill:blue"/>
<circle cx="4375" cy="755" r="5" style="fill:blue"/>
<circle cx="358" cy="848" r="5" style="fill:blue"/>
<circle cx="166" cy="1214" r="5" style="fill:blue"/>
<circle cx="3376" cy="1062" r="5" style="fill:blue"/>
<circle cx="3286" cy="2747" r="5" style="fill:blue"/>
<circle cx="398" cy="3977" r="5" style="fill:blue"/>
<circle cx="884" cy="949" r="5" style="fill:blue"/>
<circle cx="2797" cy="2983" r="5" style="fill:blue"/>
<circle cx="417" cy="1397" r="5" style="fill:blue"/>
<circle cx="2219" cy="1235" r="5" style="fill:blue"/>
<circle cx="194" cy="2554" r="5" style="fill:blue"/>
<circle cx="2334" cy="1053" r="5" style="fill:blue"/>
<circle cx="1379" cy="861" r="5" style="fill:blue"/>
<circle cx="368" cy="2216" r="5" style="fill:blue"/>
<circle cx="647" cy="1688" r="5" style="fill:blue"/>
<circle cx="1869" cy="690" r="5" style="fill:blue"/>
<circle cx="3802" cy="2608" r="5" style="fill:blue"/>
<circle cx="2501" cy="1313" r="5" style="fill:blue"/>
<circle cx="4328" cy="1760" r="5" style="fill:blue"/>
<circle cx="2147" cy="2551" r="5" style="fill:blue"/>
<circle cx="1301" cy="1821" r="5" style="fill:blue"/>
<circle cx="947" cy="1520" r="5" style="fill:blue"/>
<circle cx="2451" cy="1849" r="5" style="fill:blue"/>
<circle cx="1988" cy="3554" r="5" style="fill:blue"/>
<circle cx="220" cy="3303" r="5" style="fill:blue"/>
<circle cx="3313" cy="1787" r="5" style="fill:blue"/>
<circle cx="3394" cy="1627" r="5" style="fill:blue"/>
<circle cx="3345" cy="428" r="5" style="fill:blue"/>
<circle cx="3291" cy="2697" r="5" style="fill:blue"/>
<circle cx="3992" cy="2014" r="5" style="fill:blue"/>
<circle cx="199" cy="955" r="5" style="fill:blue"/>
<circle cx="4284" cy="3854" r="5" style="fill:blue"/>
<circle cx="3265" cy="1722" r="5" style="fill:blue"/>
<circle cx="4458" cy="3550" r="5" style="fill:blue"/>
<circle cx="1847" cy="633" r="5" style="fill:blue"/>
<circle cx="2191" cy="2163" r="5" style="fill:blue"/>
<circle cx="1910" cy="3778" r="5" style="fill:blue"/>
<circle cx="3081" cy="1872" r="5" style="fill:blue"/>
<circle cx="962" cy="3894" r="5" style="fill:blue"/>
<circle cx="3108" cy="488" r="5" style="fill:blue"/>
<circle cx="7" cy="3136" r="5" style="fill:blue"/>
<circle cx="4287" cy="3973" r="5" style="fill:blue"/>
<circle cx="1380" cy="1005" r="5" style="fill:blue"/>
<circle cx="525" cy="3258" r="5" style="fill:blue"/>
<circle cx="3406" cy="613" r="5" style="fill:blue"/>
<circle cx="3131" cy="2435" r="5" style="fill:blue"/>
<circle cx="2013" cy="2391" r="5" style="fill:blue"/>
<circle cx="4238" cy="2722" r="5" style="fill:blue"/>
<circle cx="3822" cy="3679" r="5" style="fill:blue"/>
<circle cx="1839" cy="1115" r="5" style="fill:blue"/>
<circle cx="4292" cy="3070" r="5" style="fill:blue"/>
<circle cx="3091" cy="4046" r="5" style="fill:blue"/>
<circle cx="2475" cy="1864" r="5" style="fill:blue"/>
<circle cx="3956" cy="1652" r="5" style="fill:blue"/>
<circle cx="3094" cy="3220" r="5" style="fill:blue"/>
<circle cx="3797" cy="2453" r="5" style="fill:blue"/>
<circle cx="1085" cy="848" r="5" style="fill:blue"/>
<circle cx="3814" cy="3474" r="5" style="fill:blue"/>
<circle cx="1796" cy="2333" r="5" style="fill:blue"/>
<circle cx="65" cy="940" r="5" style="fill:blue"/>
<circle cx="1251" cy="676" r="5" style="fill:blue"/>
<circle cx="355" cy="2930" r="5" style="fill:blue"/>
<circle cx="1094" cy="3294" r="5" style="fill:blue"/>
<circle cx="2183" cy="2167" r="5" style="fill:blue"/>
<circle cx="2335" cy="1513" r="5" style="fill:blue"/>
<circle cx="1762" cy="1481" r="5" style="fill:blue"/>
<circle cx="586" cy="783" r="5" style="fill:blue"/>
<circle cx="3184" cy="1116" r="5" style="fill:blue"/>
<circle cx="2866" cy="2587" r="5" style="fill:blue"/>
<circle cx="2897" cy="1649" r="5" style="fill:blue"/>
<circle cx="522" cy="1603" r="5" style="fill:blue"/>
<circle cx="2417" cy="1019" r="5" style="fill:blue"/>
<circle cx="3748" cy="3533" r="5" style="fill:blue"/>
<circle cx="2498" cy="2505" r="5" style="fill:blue"/>
<circle cx="3352" cy="2946" r="5" style="fill:blue"/>
<circle cx="2790" cy="4093" r="5" style="fill:blue"/>
<circle cx="2090" cy="2173" r="5" style="fill:blue"/>
<circle cx="775" cy="2021" r="5" style="fill:blue"/>
<circle cx="2811" cy="3661" r="5" style="fill:blue"/>
<circle cx="559" cy="3677" r="5" style="fill:blue"/>
<circle cx="2057" cy="1385" r="5" style="fill:blue"/>
<circle cx="1776" cy="2290" r="5" style="fill:blue"/>
<circle cx="4386" cy="3243" r="5" style="fill:blue"/>
<circle cx="832" cy="3421" r="5" style="fill:blue"/>
<circle cx="94" cy="1048" r="5" style="fill:blue"/>
<circle cx="114" cy="2431" r="5" style="fill:blue"/>
<circle cx="2284" cy="4014" r="5" style="fill:blue"/>
<circle cx="3921" cy="3365" r="5" style="fill:blue"/>
<circle cx="3920" cy="2206" r="5" style="fill:blue"/>
<circle cx="668" cy="1680" r="5" style="fill:blue"/>
<circle cx="2757" cy="923" r="5" style="fill:blue"/>
<circle cx="2892" cy="1022" r="5" style="fill:blue"/>
<circle cx="2754" cy="2623" r="5" style="fill:blue"/>
<circle cx="3055" cy="1832" r="5" style="fill:blue"/>
<circle cx="4290" cy="3869" r="5" style="fill:blue"/>
<circle cx="1351" cy="3811" r="5" style="fill:blue"/>
<circle cx="3054" cy="160" r="5" style="fill:blue"/>
<circle cx="2779" cy="1910" r="5" style="fill:blue"/>
<circle cx="878" cy="2909" r="5" style="fill:blue"/>
<circle cx="3272" cy="1333" r="5" style="fill:blue"/>
<circle cx="1378" cy="126" r="5" style="fill:blue"/>
<circle cx="1899" cy="3340" r="5" style="fill:blue"/>
<circle cx="2758" cy="787" r="5" style="fill:blue"/>
<circle cx="73" cy="686" r="5" style="fill:blue"/>
<circle cx="963" cy="3457" r="5" style="fill:blue"/>
<circle cx="808" cy="1011" r="5" style="fill:blue"/>
<circle cx="4022" cy="2218" r="5" style="fill:blue"/>
<circle cx="810" cy="772" r="5" style="fill:blue"/>
<circle cx="1857" cy="2515" r="5" style="fill:blue"/>
<circle cx="3219" cy="1309" r="5" style="fill:blue"/>
<circle cx="2264" cy="2458" r="5" style="fill:blue"/>
<circle cx="3506" cy="2573" r="5" style="fill:blue"/>
<circle cx="939" cy="2214" r="5" style="fill:blue"/>
<circle cx="3577" cy="1471" r="5" style="fill:blue"/>
<circle cx="1068" cy="899" r="5" style="fill:blue"/>
<circle cx="879" cy="2201" r="5" style="fill:blue"/>
<circle cx="1052" cy="3070" r="5" style="fill:blue"/>
<circle cx="3083" cy="3216" r="5" style="fill:blue"/>
<circle cx="637" cy="2306" r="5" style="fill:blue"/>
<circle cx="2014" cy="563" r="5" style="fill:blue"/>
<circle cx="2984" cy="3488" r="5" style="fill:blue"/>
<circle cx="454" cy="170" r="5" style="fill:blue"/>
<circle cx="3918" cy="3430" r="5" style="fill:blue"/>
<circle cx="438" cy="3861" r="5" style="fill:blue"/>
<circle cx="210" cy="1282" r="5" style="fill:blue"/>
<circle cx="2658" cy="4105" r="5" style="fill:blue"/>
<circle cx="556" cy="3698" r="5" style="fill:blue"/>
<circle cx="1091" cy="573" r="5" style="fill:blue"/>
<circle cx="4397" cy="1004" r="5" style="fill:blue"/>
<circle cx="246" cy="3281" r="5" style="fill:blue"/>
<circle cx="2745" cy="951" r="5" style="fill:blue"/>
<circle cx="1559" cy="1468" r="5" style="fill:blue"/>
<circle cx="398" cy="3760" r="5" style="fill:blue"/>
<circle cx="4061" cy="298" r="5" style="fill:blue"/>
<circle cx="809" cy="1612" r="5" style="fill:blue"/>
<circle cx="665" cy="3628" r="5" style="fill:blue"/>
<circle cx="4403" cy="1253" r="5" style="fill:blue"/>
<circle cx="3749" cy="293" r="5" style="fill:blue"/>
<circle cx="3764" cy="673" r="5" style="fill:blue"/>
<circle cx="72" cy="1458" r="5" style="fill:blue"/>
<circle cx="3735" cy="3150" r="5" style="fill:blue"/>
<circle cx="2065" cy="752" r="5" style="fill:blue"/>
<circle cx="1989" cy="3369" r="5" style="fill:blue"/>
<circle cx="1130" cy="3666" r="5" style="fill:blue"/>
<circle cx="3660" cy="2816" r="5" style="fill:blue"/>
<circle cx="1109" cy="1564" r="5" style="fill:blue"/>
<circle cx="3631" cy="4063" r="5" style="fill:blue"/>
<circle cx="3074" cy="1285" r="5" style="fill:blue"/>
<circle cx="1354" cy="729" r="5" style="fill:blue"/>
<circle cx="4435" cy="4096" r="5" style="fill:blue"/>
<circle cx="2070" cy="1918" r="5" style="fill:blue"/>
<circle cx="918" cy="3378" r="5" style="fill:blue"/>
<circle cx="3782" cy="3633" r="5" style="fill:blue"/>
<circle cx="329" cy="553" r="5" style="fill:blue"/>
<circle cx="3449" cy="3681" r="5" style="fill:blue"/>
<circle cx="951" cy="2551" r="5" style="fill:blue"/>
<circle cx="470" cy="2854" r="5" style="fill:blue"/>
<circle cx="3678" cy="3148" r="5" style="fill:blue"/>
<circle cx="1126" cy="4023" r="5" style="fill:blue"/>
<circle cx="1023" cy="4020" r="5" style="fill:blue"/>
<circle cx="1400" cy="54" r="5" style="fill:blue"/>
<circle cx="1114" cy="3809" r="5" style="fill:blue"/>
<circle cx="3469" cy="1488" r="5" style="fill:blue"/>
<circle cx="4243" cy="1777" r="5" style="fill:blue"/>
<circle cx="116" cy="263" r="5" style="fill:blue"/>
<circle cx="3716" cy="3569" r="5" style="fill:blue"/>
<circle cx="98" cy="2098" r="5" style="fill:blue"/>
<circle cx="1905" cy="2740" r="5" style="fill:blue"/>
<circle cx="1561" cy="1665" r="5" style="fill:blue"/>
<circle cx="3091" cy="86" r="5" style="fill:blue"/>
<circle cx="302" cy="1814" r="5" style="fill:blue"/>
<circle cx="652" cy="328" r="5" style="fill:blue"/>
<circle cx="4215" cy="54" r="5" style="fill:blue"/>
<circle cx="1580" cy="1698" r="5" style="fill:blue"/>
<circle cx="3010" cy="16" r="5" style="fill:blue"/>
<circle cx="4249" cy="2462" r="5" style="fill:blue"/>
<circle cx="4060" cy="3037" r="5" style="fill:blue"/>
<circle cx="1900" cy="2521" r="5" style="fill:blue"/>
<circle cx="2442" cy="3046" r="5" style="fill:blue"/>
<circle cx="1611" cy="498" r="5" style="fill:blue"/>
<circle cx="4459" cy="888" r="5" style="fill:blue"/>
<circle cx="629" cy="3939" r="5" style="fill:blue"/>
<circle cx="2966" cy="2062" r="5" style="fill:blue"/>
<circle cx="821" cy="843" r="5" style="fill:blue"/>
<circle cx="2691" cy="951" r="5" style="fill:blue"/>
<circle cx="4334" cy="2253" r="5" style="fill:blue"/>
<circle cx="4483" cy="3476" r="5" style="fill:blue"/>
<circle cx="809" cy="78" r="5" style="fill:blue"/>
<circle cx="574" cy="3799" r="5" style="fill:blue"/>
<circle cx="3906" cy="1606" r="5" style="fill:blue"/>
<circle cx="4223" cy="3550" r="5" style="fill:blue"/>
<circle cx="1649" cy="280" r="5" style="fill:blue"/>
<circle cx="886" cy="2515" r="5" style="fill:blue"/>
<circle cx="24" cy="3786" r="5" style="fill:blue"/>
<circle cx="1726" cy="1861" r="5" style="fill:blue"/>
<circle cx="3462" cy="3108" r="5" style="fill:blue"/>
<circle cx="3342" cy="1967" r="5" style="fill:blue"/>
<circle cx="286" cy="1509" r="5" style="fill:blue"/>
<circle cx="1" cy="328" r="5" style="fill:blue"/>
<circle cx="95" cy="1317" r="5" style="fill:blue"/>
<circle cx="618" cy="2796" r="5" style="fill:blue"/>
<circle cx="3216" cy="2293" r="5" style="fill:blue"/>
<circle cx="228" cy="436" r="5" style="fill:blue"/>
<circle cx="303" cy="2051" r="5" style="fill:blue"/>
<circle cx="4313" cy="1578" r="5" style="fill:blue"/>
<circle cx="37" cy="2581" r="5" style="fill:blue"/>
<circle cx="2699" cy="387" r="5" style="fill:blue"/>
<circle cx="731" cy="2384" r="5" style="fill:blue"/>
<circle cx="3615" cy="3060" r="5" style="fill:blue"/>
<circle cx="588" cy="144" r="5" style="fill:blue"/>
<circle cx="2549" cy="3582" r="5" style="fill:blue"/>
<circle cx="2652" cy="1360" r="5" style="fill:blue"/>
<circle cx="1740" cy="3228" r="5" style="fill:blue"/>
<circle cx="4097" cy="3435" r="5" style="fill:blue"/>
<circle cx="1432" cy="1072" r="5" style="fill:blue"/>
<circle cx="1932" cy="3219" r="5" style="fill:blue"/>
<circle cx="3127" cy="2870" r="5" style="fill:blue"/>
<circle cx="3398" cy="3026" r="5" style="fill:blue"/>
<circle cx="460" cy="50" r="5" style="fill:blue"/>
<circle cx="1743" cy="306" r="5" style="fill:blue"/>
<circle cx="750" cy="3431" r="5" style="fill:blue"/>
<circle cx="737" cy="1501" r="5" style="fill:blue"/>
<circle cx="1402" cy="4007" r="5" style="fill:blue"/>
<circle cx="2175" cy="3161" r="5" style="fill:blue"/>
<circle cx="2309" cy="2437" r="5" style="fill:blue"/>
<circle cx="3954" cy="3410" r="5" style="fill:blue"/>
<circle cx="107" cy="449" r="5" style="fill:blue"/>
<circle cx="563" cy="1910" r="5" style="fill:blue"/>
<circle cx="3736" cy="1792" r="5" style="fill:blue"/>
<circle cx="4345" cy="576" r="5" style="fill:blue"/>
<circle cx="4477" cy="2744" r="5" style="fill:blue"/>
<circle cx="545" cy="1241" r="5" style="fill:blue"/>
<circle cx="900" cy="1196" r="5" style="fill:blue"/>
<circle cx="487" cy="3720" r="5" style="fill:blue"/>
<circle cx="2975" cy="1029" r="5" style="fill:blue"/>
<circle cx="387" cy="3530" r="5" style="fill:blue"/>
<circle cx="3416" cy="607" r="5" style="fill:blue"/>
<circle cx="1214" cy="2467" r="5" style="fill:blue"/>
<circle cx="813" cy="2592" r="5" style="fill:blue"/>
<circle cx="706" cy="857" r="5" style="fill:blue"/>
<circle cx="2840" cy="2258" r="5" style="fill:blue"/>
<circle cx="744" cy="3524" r="5" style="fill:blue"/>
<circle cx="1718" cy="234" r="5" style="fill:blue"/>
<circle cx="390" cy="208" r="5" style="fill:blue"/>
<circle cx="272" cy="954" r="5" style="fill:blue"/>
<circle cx="2081" cy="3735" r="5" style="fill:blue"/>
<circle cx="3518" cy="4021" r="5" style="fill:blue"/>
<circle cx="861" cy="3371" r="5" style="fill:blue"/>
<circle cx="1316" cy="1208" r="5" style="fill:blue"/>
<circle cx="3842" cy="1466" r="5" style="fill:blue"/>
<circle cx="2700" cy="365" r="5" style="fill:blue"/>
<circle cx="4458" cy="1991" r="21" style="stroke-width:5;fill:gray;fill-opacity:0.3"/>
<circle cx="2132" cy="3228" r="74" style="stroke-width:5;fill:gray;fill-opacity:0.3"/>
<circle cx="2455" cy="2299" r="69" style="stroke-width:5;fill:gray;fill-opacity:0.3"/>
<circle cx="69" cy="3658" r="32" style="stroke-width:5;fill:gray;fill-opacity:0.3"/>
<circle cx="3054" cy="2070" r="14" style="stroke-width:5;fill:gray;fill-opacity:0.3"/>
<circle cx="704" cy="2565" r="83" style="stroke-width:5;fill:gray;fill-opacity:0.3"/>
<circle cx="1185" cy="3321" r="75" style="stroke-width:5;fill:gray;fill-opacity:0.3"/>
<circle cx="3743" cy="1286" r="24" style="stroke-width:5;fill:gray;fill-opacity:0.3"/>
<circle cx="1168" cy="871" r="18" style="stroke-width:5;fill:gray;fill-opacity:0.3"/>
<circle cx="3346" cy="2716" r="25" style="stroke-width:5;fill:gray;fill-opacity:0.3"/>
<circle cx="3307" cy="2879" r="31" style="stroke-width:5;fill:gray;fill-opacity:0.3"/>
<circle cx="2500" cy="553" r="64" style="stroke-width:5;fill:gray;fill-opacity:0.3"/>
<circle cx="2681" cy="1676" r="33" style="stroke-width:5;fill:gray;fill-opacity:0.3"/>
<circle cx="533" cy="444" r="43" style="stroke-width:5;fill:gray;fill-opacity:0.3"/>
<circle cx="582" cy="2033" r="24" style="stroke-width:5;fill:gray;fill-opacity:0.3"/>
<circle cx="1633" cy="1462" r="20" style="stroke-width:5;fill:gray;fill-opacity:0.3"/>
<circle cx="1994" cy="2514" r="81" style="stroke-width:5;fill:gray;fill-opacity:0.3"/>
<circle cx="662" cy="3208" r="67" style="stroke-width:5;fill:gray;fill-opacity:0.3"/>
<circle cx="2379" cy="716" r="36" style="stroke-width:5;fill:gray;fill-opacity:0.3"/>
<circle cx="1716" cy="1083" r="10" style="stroke-width:5;fill:gray;fill-opacity:0.3"/>
<circle cx="1695" cy="378" r="5" style="stroke-width:5;fill:gray;fill-opacity:0.3"/>
<circle cx="2590" cy="3658" r="60" style="stroke-width:5;fill:gray;fill-opacity:0.3"/>
<circle cx="2764" cy="1782" r="63" style="stroke-width:5;fill:gray;fill-opacity:0.3"/>
<circle cx="3327" cy="965" r="82" style="stroke-width:5;fill:gray;fill-opacity:0.3"/>
<circle cx="1571" cy="827" r="37" style="stroke-width:5;fill:gray;fill-opacity:0.3"/>
<circle cx="345" cy="2293" r="74" style="stroke-width:5;fill:gray;fill-opacity:0.3"/>
<circle cx="202" cy="1626" r="74" style="stroke-width:5;fill:gray;fill-opacity:0.3"/>
<circle cx="2622" cy="2348" r="46" style="stroke-width:5;fill:gray;fill-opacity:0.3"/>
<circle cx="4156" cy="3183" r="57" style="stroke-width:5;fill:gray;fill-opacity:0.3"/>
<circle cx="693" cy="1140" r="56" style="stroke-width:5;fill:gray;fill-opacity:0.3"/>
<circle cx="2261" cy="1965" r="36" style="stroke-width:5;fill:gray;fill-opacity:0.3"/>
<circle cx="2744" cy="3275" r="14" style="stroke-width:5;fill:gray;fill-opacity:0.3"/>
<circle cx="3822" cy="2491" r="30" style="stroke-width:5;fill:gray;fill-opacity:0.3"/>
<circle cx="3032" cy="1891" r="48" style="stroke-width:5;fill:gray;fill-opacity:0.3"/>
<circle cx="2379" cy="3573" r="49" style="stroke-width:5;fill:gray;fill-opacity:0.3"/>
<circle cx="1783" cy="3236" r="31" style="stroke-width:5;fill:gray;fill-opacity:0.3"/>
<circle cx="3951" cy="2386" r="63" style="stroke-width:5;fill:gray;fill-opacity:0.3"/>
<circle cx="3085" cy="1347" r="6" style="stroke-width:5;fill:gray;fill-opacity:0.3"/>
<circle cx="3751" cy="2835" r="45" style="stroke-width:5;fill:gray;fill-opacity:0.3"/>
<circle cx="1897" cy="540" r="51" style="stroke-width:5;fill:gray;fill-opacity:0.3"/>
<circle cx="72" cy="2253" r="69" style="stroke-width:5;fill:gray;fill-opacity:0.3"/>
<circle cx="2654" cy="1598" r="73" style="stroke-width:5;fill:gray;fill-opacity:0.3"/>
<circle cx="1945" cy="1502" r="11" style="stroke-width:5;fill:gray;fill-opacity:0.3"/>
<circle cx="1127" cy="710" r="23" style="stroke-width:5;fill:gray;fill-opacity:0.3"/>
<circle cx="2024" cy="915" r="55" style="stroke-width:5;fill:gray;fill-opacity:0.3"/>
<circle cx="4392" cy="87" r="66" style="stroke-width:5;fill:gray;fill-opacity:0.3"/>
<circle cx="1470" cy="3883" r="36" style="stroke-width:5;fill:gray;fill-opacity:0.3"/>
<circle cx="1621" cy="962" r="78" style="stroke-width:5;fill:gray;fill-opacity:0.3"/>
<circle cx="2571" cy="341" r="51" style="stroke-width:5;fill:gray;fill-opacity:0.3"/>
<circle cx="3947" cy="3858" r="12" style="stroke-width:5;fill:gray;fill-opacity:0.3"/>
<circle cx="2562" cy="351" r="54" style="stroke-width:5;fill:gray;fill-opacity:0.3"/>
<circle cx="2348" cy="2104" r="42" style="stroke-width:5;fill:gray;fill-opacity:0.3"/>
<circle cx="4271" cy="1861" r="51" style="stroke-width:5;fill:gray;fill-opacity:0.3"/>
<circle cx="1113" cy="3716" r="8" style="stroke-width:5;fill:gray;fill-opacity:0.3"/>
<circle cx="3191" cy="103" r="65" style="stroke-width:5;fill:gray;fill-opacity:0.3"/>
<circle cx="2877" cy="1443" r="15" style="stroke-width:5;fill:gray;fill-opacity:0.3"/>
<circle cx="2902" cy="3111" r="18" style="stroke-width:5;fill:gray;fill-opacity:0.3"/>
<circle cx="3389" cy="3664" r="6" style="stroke-width:5;fill:gray;fill-opacity:0.3"/>
<circle cx="2537" cy="3966" r="69" style="stroke-width:5;fill:gray;fill-opacity:0.3"/>
<circle cx="3116" cy="3853" r="42" style="stroke-width:5;fill:gray;fill-opacity:0.3"/>
<circle cx="3874" cy="1135" r="46" style="stroke-width:5;fill:gray;fill-opacity:0.3"/>
<circle cx="302" cy="1708" r="43" style="stroke-width:5;fill:gray;fill-opacity:0.3"/>
<circle cx="3642" cy="3605" r="25" style="stroke-width:5;fill:gray;fill-opacity:0.3"/>
<circle cx="3788" cy="312" r="36" style="stroke-width:5;fill:gray;fill-opacity:0.3"/>
<circle cx="2525" cy="1520" r="71" style="stroke-width:5;fill:gray;fill-opacity:0.3"/>
<circle cx="121" cy="722" r="44" style="stroke-width:5;fill:gray;fill-opacity:0.3"/>
<circle cx="1360" cy="272" r="57" style="stroke-width:5;fill:gray;fill-opacity:0.3"/>
<circle cx="1586" cy="687" r="45" style="stroke-width:5;fill:gray;fill-opacity:0.3"/>
<circle cx="976" cy="2828" r="80" style="stroke-width:5;fill:gray;fill-opacity:0.3"/>
<circle cx="2670" cy="507" r="35" style="stroke-width:5;fill:gray;fill-opacity:0.3"/>
<circle cx="1365" cy="397" r="38" style="stroke-width:5;fill:gray;fill-opacity:0.3"/>
<circle cx="3096" cy="776" r="28" style="stroke-width:5;fill:gray;fill-opacity:0.3"/>
<circle cx="2438" cy="2878" r="44" style="stroke-width:5;fill:gray;fill-opacity:0.3"/>
<circle cx="1206" cy="92" r="26" style="stroke-width:5;fill:gray;fill-opacity:0.3"/>
<circle cx="2860" cy="4002" r="45" style="stroke-width:5;fill:gray;fill-opacity:0.3"/>
<circle cx="3651" cy="2106" r="69" style="stroke-width:5;fill:gray;fill-opacity:0.3"/>
<circle cx="1728.9999949826592" cy="2596.8141768663054" r="5" style="fill:rgb(0,0,0)"/>
<circle cx="1728.9999916393945" cy="2317.106840738477" r="5" style="fill:rgb(96,64,0)"/>
<circle cx="1301.0000203666175" cy="2192.9361237091907" r="5" style="fill:rgb(192,128,0)"/>
<circle cx="1719.9696098647323" cy="2292.4979105698585" r="5" style="fill:rgb(96,64,0)"/>
<circle cx="1308.9999836023276" cy="2201.7762420172267" r="5" style="fill:rgb(192,128,0)"/>
<circle cx="1320.0905168544848" cy="2196.7902879881135" r="5" style="fill:rgb(192,128,0)"/>
<circle cx="1688.365070072463" cy="1895.0002195653744" r="5" style="fill:rgb(0,0,0)"/>
<circle cx="1325.0527560870526" cy="2178.0021483124083" r="5" style="fill:rgb(192,128,0)"/>
<circle cx="1311.0045170664037" cy="2155.2867986297074" r="5" style="fill:rgb(192,128,0);fill-opacity:0.3"/>
<circle cx="1718.978832709812" cy="1895.0615762634463" r="5" style="fill:rgb(0,0,0)"/>
<circle cx="1319.882293968146" cy="2186.5620269304745" r="5" style="fill:rgb(192,128,0)"/>
<circle cx="1728.7969337253555" cy="2337.7560120054645" r="5" style="fill:rgb(96,64,0)"/>
<circle cx="1715.1863679918308" cy="2540.846445518513" r="5" style="fill:rgb(0,0,0)"/>
<circle cx="1728.9999528037042" cy="2544.9941500497143" r="5" style="fill:rgb(0,0,0)"/>
<circle cx="1309.6429559632045" cy="2135.4009372908463" r="5" style="fill:rgb(192,128,0)"/>
<circle cx="1728.9999966936148" cy="2565.875069639628" r="5" style="fill:rgb(0,0,0)"/>
<circle cx="1728.9522868706613" cy="2287.0924281037724" r="5" style="fill:rgb(96,64,0)"/>
<circle cx="1728.4437739973098" cy="2575.8595931285777" r="5" style="fill:rgb(0,0,0)"/>
<circle cx="1319.362448769958" cy="2160.7772933157926" r="5" style="fill:rgb(192,128,0)"/>
<circle cx="1698.3651489984602" cy="1895.000006251768" r="5" style="fill:rgb(0,0,0)"/>
<circle cx="1728.7956858743444" cy="2347.7561353873425" r="5" style="fill:rgb(96,64,0)"/>
<circle cx="1728.999961823474" cy="2276.611721209375" r="5" style="fill:rgb(96,64,0)"/>
<circle cx="1728.8439554361112" cy="2297.1073787857167" r="5" style="fill:rgb(96,64,0)"/>
<circle cx="1301.0000075603812" cy="2130.370784907395" r="5" style="fill:rgb(192,128,0)"/>
<circle cx="1301.7148087681662" cy="2141.95575374564" r="5" style="fill:rgb(192,128,0)"/>
<circle cx="1728.9824108788396" cy="2327.756594913363" r="5" style="fill:rgb(96,64,0)"/>
<circle cx="1710.1165502610654" cy="1904.8454532898215" r="5" style="fill:rgb(0,0,0)"/>
<circle cx="1728.924656731163" cy="2307.107064877917" r="5" style="fill:rgb(96,64,0)"/>
<circle cx="1728.9145576683702" cy="2246.6523343293484" r="5" style="fill:rgb(96,64,0)"/>
<circle cx="1311.28317519881" cy="2192.0403164735017" r="5" style="fill:rgb(192,128,0)"/>
<circle cx="1311.1434068179017" cy="2145.2877594833585" r="5" style="fill:rgb(192,128,0)"/>
<circle cx="1728.364513415758" cy="2266.6318917698527" r="5" style="fill:rgb(96,64,0)"/>
<circle cx="1301.0000003593875" cy="2161.9381902474925" r="5" style="fill:rgb(192,128,0)"/>
<circle cx="1728.6687786681066" cy="2554.990088774043" r="5" style="fill:rgb(0,0,0)"/>
<circle cx="1713.2616695183688" cy="2556.8516445065447" r="5" style="fill:rgb(0,0,0)"/>
<circle cx="1720.1008970645128" cy="2549.5556164873783" r="5" style="fill:rgb(0,0,0)"/>
<circle cx="1310.960275877509" cy="2182.0455293519117" r="5" style="fill:rgb(192,128,0)"/>
<circle cx="1723.459437710813" cy="1904.001612007111" r="5" style="fill:rgb(0,0,0)"/>
<circle cx="1728.8410417851485" cy="2517.3311832766008" r="5" style="fill:rgb(0,0,0)"/>
<circle cx="1728.9852607682158" cy="2357.754369223677" r="5" style="fill:rgb(96,64,0)"/>
<circle cx="1316.1301485817671" cy="2173.4855913550737" r="5" style="fill:rgb(192,128,0);fill-opacity:0.3"/>
<circle cx="1728.970966652607" cy="2505.134913153195" r="5" style="fill:rgb(0,0,0)"/>
<circle cx="1301.575954354203" cy="2151.9547900007897" r="5" style="fill:rgb(192,128,0)"/>
<circle cx="1728.3267995155045" cy="2585.8589222809605" r="5" style="fill:rgb(0,0,0)"/>
<circle cx="1301.0000044146332" cy="2111.382765761575" r="5" style="fill:rgb(192,128,0)"/>
<circle cx="1719.7715690682876" cy="2280.4637649738665" r="5" style="fill:rgb(96,64,0)"/>
<circle cx="1728.9999964647363" cy="2527.3299658128926" r="5" style="fill:rgb(0,0,0)"/>
<circle cx="1724.0859022983698" cy="2536.284686864031" r="5" style="fill:rgb(0,0,0)"/>
<circle cx="1301.0000039191862" cy="2225.9387836758756" r="5" style="fill:rgb(192,128,0)"/>
<circle cx="1728.999987793878" cy="1895.0000212323264" r="5" style="fill:rgb(0,0,0)"/>
<circle cx="1708.3651922823472" cy="1895.0000022760164" r="5" style="fill:rgb(0,0,0)"/>
<circle cx="1326.2080601184027" cy="2168.069072252376" r="5" style="fill:rgb(192,128,0)"/>
<circle cx="1319.8382930259609" cy="2150.6001635779435" r="5" style="fill:rgb(192,128,0)"/>
<circle cx="1728.9999969665157" cy="2488.9193102856334" r="5" style="fill:rgb(0,0,0)"/>
<circle cx="1301.000000388833" cy="2182.935996526457" r="5" style="fill:rgb(192,128,0)"/>
<circle cx="1301.0092030843343" cy="2207.788781205358" r="5" style="fill:rgb(192,128,0)"/>
<circle cx="1728.9999978556486" cy="2256.6520044151302" r="5" style="fill:rgb(96,64,0)"/>
<circle cx="1310.428559862969" cy="2165.27020508576" r="5" style="fill:rgb(192,128,0)"/>
<circle cx="1719.1680307019196" cy="2525.504431983921" r="5" style="fill:rgb(0,0,0)"/>
<circle cx="1719.0370173048989" cy="2565.015351926141" r="5" style="fill:rgb(0,0,0)"/>
<circle cx="1301.3042300024183" cy="2172.0531179091745" r="5" style="fill:rgb(192,128,0)"/>
</svg>