<svg viewBox="0 0 7151 3876" xmlns="http://www.w3.org/2000/svg">
<rect height="1273" style="stroke:pink;stroke-width:10;fill:gray;fill-opacity:0.1;stroke-opacity:0.9" width="181" x="6740" y="732"/>
<circle cx="254" cy="3665" r="5" style="fill:blue"/>
<circle cx="3998" cy="2291" r="5" style="fill:blue"/>
<circle cx="3747" cy="3834" r="5" style="fill:blue"/>
<circle cx="2935" cy="2931" r="5" style="fill:blue"/>
<circle cx="962" cy="2016" r="5" style="fill:blue"/>
<circle cx="5489" cy="3012" r="5" style="fill:blue"/>
<circle cx="1342" cy="1363" r="5" style="fill:blue"/>
<circle cx="6384" cy="2731" r="5" style="fill:blue"/>
<circle cx="2643" cy="2046" r="5" style="fill:blue"/>
<circle cx="987" cy="923" r="5" style="fill:blue"/>
<circle cx="818" cy="3" r="5" style="fill:blue"/>
<circle cx="1373" cy="1489" r="5" style="fill:blue"/>
<circle cx="1993" cy="3513" r="5" style="fill:blue"/>
<circle cx="1826" cy="1896" r="5" style="fill:blue"/>
<circle cx="6406" cy="2386" r="5" style="fill:blue"/>
<circle cx="4404" cy="2299" r="5" style="fill:blue"/>
<circle cx="1630" cy="2248" r="5" style="fill:blue"/>
<circle cx="5218" cy="292" r="5" style="fill:blue"/>
<circle cx="5469" cy="858" r="5" style="fill:blue"/>
<circle cx="4560" cy="2632" r="5" style="fill:blue"/>
<circle cx="3235" cy="3497" r="5" style="fill:blue"/>
<circle cx="1670" cy="2290" r="5" style="fill:blue"/>
<circle cx="4968" cy="2647" r="5" style="fill:blue"/>
<circle cx="1150" cy="537" r="5" style="fill:blue"/>
<circle cx="4243" cy="1469" r="5" style="fill:blue"/>
<circle cx="3233" cy="580" r="5" style="fill:blue"/>
<circle cx="3543" cy="1184" r="5" style="fill:blue"/>
<circle cx="611" cy="3160" r="5" style="fill:blue"/>
<circle cx="4858" cy="3758" r="5" style="fill:blue"/>
<circle cx="2330" cy="2379" r="5" style="fill:blue"/>
<circle cx="2947" cy="1422" r="5" style="fill:blue"/>
<circle cx="5392" cy="387" r="5" style="fill:blue"/>
<circle cx="2867" cy="3444" r="5" style="fill:blue"/>
<circle cx="648" cy="3063" r="5" style="fill:blue"/>
<circle cx="3301" cy="396" r="5" style="fill:blue"/>
<circle cx="4671" cy="3468" r="5" style="fill:blue"/>
<circle cx="1358" cy="3007" r="5" style="fill:blue"/>
<circle cx="6635" cy="2819" r="5" style="fill:blue"/>
<circle cx="3312" cy="280" r="5" style="fill:blue"/>
<circle cx="2441" cy="1976" r="5" style="fill:blue"/>
<circle cx="2130" cy="43" r="5" style="fill:blue"/>
<circle cx="2384" cy="1752" r="5" style="fill:blue"/>
<circle cx="1388" cy="2402" r="5" style="fill:blue"/>
<circle cx="5952" cy="292" r="5" style="fill:blue"/>
<circle cx="6012" cy="1064" r="5" style="fill:blue"/>
<circle cx="2815" cy="1354" r="5" style="fill:blue"/>
<circle cx="804" cy="838" r="5" style="fill:blue"/>
<circle cx="4649" cy="2348" r="5" style="fill:blue"/>
<circle cx="5124" cy="2372" r="5" style="fill:blue"/>
<circle cx="2620" cy="2328" r="5" style="fill:blue"/>
<circle cx="2345" cy="1844" r="5" style="fill:blue"/>
<circle cx="6648" cy="1349" r="5" style="fill:blue"/>
<circle cx="4159" cy="1532" r="5" style="fill:blue"/>
<circle cx="1168" cy="1541" r="5" style="fill:blue"/>
<circle cx="285" cy="3548" r="5" style="fill:blue"/>
<circle cx="3368" cy="1547" r="5" style="fill:blue"/>
<circle cx="6149" cy="3190" r="5" style="fill:blue"/>
<circle cx="5463" cy="225" r="5" style="fill:blue"/>
<circle cx="5128" cy="1717" r="5" style="fill:blue"/>
<circle cx="3576" cy="2803" r="5" style="fill:blue"/>
<circle cx="2337" cy="2264" r="5" style="fill:blue"/>
<circle cx="5238" cy="3045" r="5" style="fill:blue"/>
<circle cx="326" cy="2435" r="5" style="fill:blue"/>
<circle cx="6914" cy="2066" r="5" style="fill:blue"/>
<circle cx="1045" cy="514" r="5" style="fill:blue"/>
<circle cx="1611" cy="3792" r="5" style="fill:blue"/>
<circle cx="2752" cy="1070" r="5" style="fill:blue"/>
<circle cx="5878" cy="2251" r="5" style="fill:blue"/>
<circle cx="5952" cy="1294" r="5" style="fill:blue"/>
<circle cx="2869" cy="1019" r="5" style="fill:blue"/>
<circle cx="790" cy="1649" r="5" style="fill:blue"/>
<circle cx="504" cy="650" r="5" style="fill:blue"/>
<circle cx="2540" cy="2104" r="5" style="fill:blue"/>
<circle cx="1038" cy="889" r="5" style="fill:blue"/>
<circle cx="6651" cy="2471" r="5" style="fill:blue"/>
<circle cx="4986" cy="2932" r="5" style="fill:blue"/>
<circle cx="6915" cy="3822" r="5" style="fill:blue"/>
<circle cx="6533" cy="1917" r="5" style="fill:blue"/>
<circle cx="1466" cy="3782" r="5" style="fill:blue"/>
<circle cx="2587" cy="2564" r="5" style="fill:blue"/>
<circle cx="3819" cy="3293" r="5" style="fill:blue"/>
<circle cx="3835" cy="3462" r="5" style="fill:blue"/>
<circle cx="2896" cy="3592" r="5" style="fill:blue"/>
<circle cx="2424" cy="338" r="5" style="fill:blue"/>
<circle cx="1568" cy="271" r="5" style="fill:blue"/>
<circle cx="37" cy="1937" r="5" style="fill:blue"/>
<circle cx="3452" cy="1731" r="5" style="fill:blue"/>
<circle cx="3196" cy="2514" r="5" style="fill:blue"/>
<circle cx="3711" cy="2064" r="5" style="fill:blue"/>
<circle cx="1488" cy="1950" r="5" style="fill:blue"/>
<circle cx="3176" cy="3591" r="5" style="fill:blue"/>
<circle cx="1754" cy="1645" r="5" style="fill:blue"/>
<circle cx="5556" cy="1897" r="5" style="fill:blue"/>
<circle cx="1743" cy="1472" r="5" style="fill:blue"/>
<circle cx="6328" cy="337" r="5" style="fill:blue"/>
<circle cx="6513" cy="29" r="5" style="fill:blue"/>
<circle cx="2170" cy="2038" r="5" style="fill:blue"/>
<circle cx="913" cy="2233" r="5" style="fill:blue"/>
<circle cx="101" cy="26" r="5" style="fill:blue"/>
<circle cx="6069" cy="577" r="5" style="fill:blue"/>
<circle cx="456" cy="1203" r="5" style="fill:blue"/>
<circle cx="2390" cy="3211" r="5" style="fill:blue"/>
<circle cx="609" cy="3745" r="5" style="fill:blue"/>
<circle cx="689" cy="1691" r="5" style="fill:blue"/>
<circle cx="5867" cy="2629" r="5" style="fill:blue"/>
<circle cx="6385" cy="2000" r="5" style="fill:blue"/>
<circle cx="394" cy="2482" r="5" style="fill:blue"/>
<circle cx="3810" cy="108" r="5" style="fill:blue"/>
<circle cx="6600" cy="1591" r="5" style="fill:blue"/>
<circle cx="4366" cy="232" r="5" style="fill:blue"/>
<circle cx="624" cy="1855" r="5" style="fill:blue"/>
<circle cx="2599" cy="3345" r="5" style="fill:blue"/>
<circle cx="3869" cy="2337" r="5" style="fill:blue"/>
<circle cx="481" cy="500" r="5" style="fill:blue"/>
<circle cx="3673" cy="305" r="5" style="fill:blue"/>
<circle cx="5395" cy="1033" r="5" style="fill:blue"/>
<circle cx="3873" cy="2455" r="5" style="fill:blue"/>
<circle cx="3723" cy="806" r="5" style="fill:blue"/>
<circle cx="5411" cy="2731" r="5" style="fill:blue"/>
<circle cx="2467" cy="3081" r="5" style="fill:blue"/>
<circle cx="6537" cy="3728" r="5" style="fill:blue"/>
<circle cx="3604" cy="3385" r="5" style="fill:blue"/>
<circle cx="436" cy="684" r="5" style="fill:blue"/>
<circle cx="5827" cy="42" r="5" style="fill:blue"/>
<circle cx="3781" cy="3859" r="5" style="fill:blue"/>
<circle cx="1608" cy="1846" r="5" style="fill:blue"/>
<circle cx="4656" cy="556" r="5" style="fill:blue"/>
<circle cx="1267" cy="3300" r="5" style="fill:blue"/>
<circle cx="6182" cy="550" r="5" style="fill:blue"/>
<circle cx="1002" cy="18" r="5" style="fill:blue"/>
<circle cx="2755" cy="3841" r="5" style="fill:blue"/>
<circle cx="3304" cy="3859" r="5" style="fill:blue"/>
<circle cx="6053" cy="3722" r="5" style="fill:blue"/>
<circle cx="6532" cy="1815" r="5" style="fill:blue"/>
<circle cx="916" cy="2294" r="5" style="fill:blue"/>
<circle cx="6310" cy="638" r="5" style="fill:blue"/>
<circle cx="5048" cy="3219" r="5" style="fill:blue"/>
<circle cx="1510" cy="3820" r="5" style="fill:blue"/>
<circle cx="6212" cy="1183" r="5" style="fill:blue"/>
<circle cx="7028" cy="2970" r="5" style="fill:blue"/>
<circle cx="1878" cy="786" r="5" style="fill:blue"/>
<circle cx="5950" cy="268" r="5" style="fill:blue"/>
<circle cx="1588" cy="1647" r="5" style="fill:blue"/>
<circle cx="4359" cy="3492" r="5" style="fill:blue"/>
<circle cx="418" cy="1744" r="5" style="fill:blue"/>
<circle cx="4489" cy="1231" r="5" style="fill:blue"/>
<circle cx="2674" cy="3200" r="5" style="fill:blue"/>
<circle cx="2715" cy="1230" r="5" style="fill:blue"/>
<circle cx="2598" cy="2242" r="5" style="fill:blue"/>
<circle cx="6380" cy="110" r="5" style="fill:blue"/>
<circle cx="3344" cy="571" r="5" style="fill:blue"/>
<circle cx="1858" cy="945" r="5" style="fill:blue"/>
<circle cx="2583" cy="3013" r="5" style="fill:blue"/>
<circle cx="6921" cy="2795" r="5" style="fill:blue"/>
<circle cx="3952" cy="137" r="5" style="fill:blue"/>
<circle cx="1729" cy="140" r="5" style="fill:blue"/>
<circle cx="6224" cy="1446" r="5" style="fill:blue"/>
<circle cx="1213" cy="3251" r="5" style="fill:blue"/>
<circle cx="5150" cy="3177" r="5" style="fill:blue"/>
<circle cx="6623" cy="3029" r="5" style="fill:blue"/>
<circle cx="3852" cy="855" r="5" style="fill:blue"/>
<circle cx="6433" cy="465" r="5" style="fill:blue"/>
<circle cx="1956" cy="1768" r="5" style="fill:blue"/>
<circle cx="3098" cy="2974" r="5" style="fill:blue"/>
<circle cx="6717" cy="2511" r="5" style="fill:blue"/>
<circle cx="5832" cy="1235" r="5" style="fill:blue"/>
<circle cx="1873" cy="3151" r="5" style="fill:blue"/>
<circle cx="5270" cy="3623" r="5" style="fill:blue"/>
<circle cx="3163" cy="2837" r="5" style="fill:blue"/>
<circle cx="4602" cy="2627" r="5" style="fill:blue"/>
<circle cx="5484" cy="1119" r="5" style="fill:blue"/>
<circle cx="1817" cy="3592" r="5" style="fill:blue"/>
<circle cx="6138" cy="2386" r="5" style="fill:blue"/>
<circle cx="5548" cy="1589" r="5" style="fill:blue"/>
<circle cx="5921" cy="2490" r="5" style="fill:blue"/>
<circle cx="2961" cy="1210" r="5" style="fill:blue"/>
<circle cx="1491" cy="1478" r="5" style="fill:blue"/>
<circle cx="2779" cy="1374" r="5" style="fill:blue"/>
<circle cx="2814" cy="1125" r="5" style="fill:blue"/>
<circle cx="5468" cy="2230" r="5" style="fill:blue"/>
<circle cx="5710" cy="2848" r="5" style="fill:blue"/>
<circle cx="2643" cy="815" r="5" style="fill:blue"/>
<circle cx="5497" cy="2543" r="5" style="fill:blue"/>
<circle cx="4938" cy="2234" r="5" style="fill:blue"/>
<circle cx="1713" cy="1792" r="5" style="fill:blue"/>
<circle cx="6703" cy="1802" r="5" style="fill:blue"/>
<circle cx="4958" cy="36" r="5" style="fill:blue"/>
<circle cx="5399" cy="2929" r="5" style="fill:blue"/>
<circle cx="227" cy="497" r="5" style="fill:blue"/>
<circle cx="5217" cy="1305" r="5" style="fill:blue"/>
<circle cx="6629" cy="3406" r="5" style="fill:blue"/>
<circle cx="881" cy="685" r="5" style="fill:blue"/>
<circle cx="4317" cy="124" r="5" style="fill:blue"/>
<circle cx="3829" cy="2923" r="5" style="fill:blue"/>
<circle cx="132" cy="626" r="5" style="fill:blue"/>
<circle cx="1134" cy="2663" r="5" style="fill:blue"/>
<circle cx="2900" cy="1891" r="5" style="fill:blue"/>
<circle cx="5684" cy="2222" r="5" style="fill:blue"/>
<circle cx="4575" cy="3824" r="5" style="fill:blue"/>
<circle cx="2400" cy="3354" r="5" style="fill:blue"/>
<circle cx="714" cy="346" r="5" style="fill:blue"/>
<circle cx="5328" cy="1152" r="5" style="fill:blue"/>
<circle cx="1686" cy="1223" r="5" style="fill:blue"/>
<circle cx="6308" cy="1714" r="5" style="fill:blue"/>
<circle cx="2965" cy="1700" r="5" style="fill:blue"/>
<circle cx="6979" cy="2691" r="5" style="fill:blue"/>
<circle cx="2236" cy="1602" r="5" style="fill:blue"/>
<circle cx="6032" cy="1996" r="5" style="fill:blue"/>
<circle cx="6991" cy="3541" r="5" style="fill:blue"/>
<circle cx="5618" cy="1933" r="5" style="fill:blue"/>
<circle cx="2054" cy="1058" r="5" style="fill:blue"/>
<circle cx="3883" cy="432" r="5" style="fill:blue"/>
<circle cx="4746" cy="1115" r="5" style="fill:blue"/>
<circle cx="3999" cy="3703" r="5" style="fill:blue"/>
<circle cx="6081" cy="2957" r="5" style="fill:blue"/>
<circle cx="686" cy="2072" r="5" style="fill:blue"/>
<circle cx="6020" cy="155" r="5" style="fill:blue"/>
<circle cx="785" cy="1957" r="5" style="fill:blue"/>
<circle cx="2481" cy="1014" r="5" style="fill:blue"/>
<circle cx="373" cy="2674" r="5" style="fill:blue"/>
<circle cx="3225" cy="3348" r="5" style="fill:blue"/>
<circle cx="3174" cy="2507" r="5" style="fill:blue"/>
<circle cx="3971" cy="1801" r="5" style="fill:blue"/>
<circle cx="4711" cy="565" r="5" style="fill:blue"/>
<circle cx="7018" cy="347" r="5" style="fill:blue"/>
<circle cx="3306" cy="1014" r="5" style="fill:blue"/>
<circle cx="5320" cy="3110" r="5" style="fill:blue"/>
<circle cx="4478" cy="3158" r="5" style="fill:blue"/>
<circle cx="5636" cy="3454" r="5" style="fill:blue"/>
<circle cx="3862" cy="3371" r="5" style="fill:blue"/>
<circle cx="7141" cy="2907" r="5" style="fill:blue"/>
<circle cx="5792" cy="2500" r="5" style="fill:blue"/>
<circle cx="2430" cy="18" r="5" style="fill:blue"/>
<circle cx="3226" cy="1275" r="5" style="fill:blue"/>
<circle cx="2823" cy="2062" r="5" style="fill:blue"/>
<circle cx="840" cy="2079" r="5" style="fill:blue"/>
<circle cx="2612" cy="334" r="5" style="fill:blue"/>
<circle cx="914" cy="3210" r="5" style="fill:blue"/>
<circle cx="1594" cy="3328" r="5" style="fill:blue"/>
<circle cx="3856" cy="827" r="5" style="fill:blue"/>
<circle cx="145" cy="412" r="5" style="fill:blue"/>
<circle cx="2191" cy="3059" r="5" style="fill:blue"/>
<circle cx="2017" cy="3244" r="5" style="fill:blue"/>
<circle cx="4931" cy="1961" r="5" style="fill:blue"/>
<circle cx="6960" cy="2633" r="5" style="fill:blue"/>
<circle cx="5125" cy="3800" r="5" style="fill:blue"/>
<circle cx="6034" cy="3654" r="5" style="fill:blue"/>
<circle cx="270" cy="24" r="5" style="fill:blue"/>
<circle cx="3838" cy="1735" r="5" style="fill:blue"/>
<circle cx="1417" cy="2817" r="5" style="fill:blue"/>
<circle cx="5742" cy="1090" r="5" style="fill:blue"/>
<circle cx="5258" cy="1130" r="5" style="fill:blue"/>
<circle cx="5694" cy="1265" r="5" style="fill:blue"/>
<circle cx="378" cy="86" r="5" style="fill:blue"/>
<circle cx="549" cy="2379" r="5" style="fill:blue"/>
<circle cx="373" cy="1369" r="5" style="fill:blue"/>
<circle cx="4158" cy="2744" r="5" style="fill:blue"/>
<circle cx="4256" cy="2381" r="5" style="fill:blue"/>
<circle cx="4357" cy="656" r="5" style="fill:blue"/>
<circle cx="4303" cy="1908" r="5" style="fill:blue"/>
<circle cx="867" cy="2669" r="5" style="fill:blue"/>
<circle cx="6074" cy="1977" r="5" style="fill:blue"/>
<circle cx="3648" cy="1610" r="5" style="fill:blue"/>
<circle cx="5813" cy="1784" r="5" style="fill:blue"/>
<circle cx="6095" cy="3466" r="5" style="fill:blue"/>
<circle cx="1586" cy="2922" r="5" style="fill:blue"/>
<circle cx="4239" cy="2760" r="5" style="fill:blue"/>
<circle cx="1919" cy="920" r="5" style="fill:blue"/>
<circle cx="1662" cy="2524" r="5" style="fill:blue"/>
<circle cx="1745" cy="151" r="5" style="fill:blue"/>
<circle cx="1716" cy="2533" r="5" style="fill:blue"/>
<circle cx="7124" cy="1300" r="5" style="fill:blue"/>
<circle cx="2039" cy="3737" r="5" style="fill:blue"/>
<circle cx="2090" cy="2646" r="5" style="fill:blue"/>
<circle cx="4467" cy="466" r="5" style="fill:blue"/>
<circle cx="4602" cy="41" r="5" style="fill:blue"/>
<circle cx="2303" cy="2325" r="5" style="fill:blue"/>
<circle cx="3183" cy="370" r="5" style="fill:blue"/>
<circle cx="6716" cy="3147" r="5" style="fill:blue"/>
<circle cx="937" cy="1741" r="5" style="fill:blue"/>
<circle cx="7029" cy="2775" r="5" style="fill:blue"/>
<circle cx="6534" cy="3123" r="5" style="fill:blue"/>
<circle cx="6611" cy="887" r="5" style="fill:blue"/>
<circle cx="6908" cy="3336" r="5" style="fill:blue"/>
<circle cx="1600" cy="1936" r="5" style="fill:blue"/>
<circle cx="1964" cy="2067" r="5" style="fill:blue"/>
<circle cx="4247" cy="3480" r="5" style="fill:blue"/>
<circle cx="5411" cy="3005" r="5" style="fill:blue"/>
<circle cx="5576" cy="3058" r="5" style="fill:blue"/>
<circle cx="3200" cy="44" r="5" style="fill:blue"/>
<circle cx="1017" cy="793" r="5" style="fill:blue"/>
<circle cx="2627" cy="1077" r="5" style="fill:blue"/>
<circle cx="4969" cy="3026" r="5" style="fill:blue"/>
<circle cx="3067" cy="3050" r="5" style="fill:blue"/>
<circle cx="1230" cy="2025" r="5" style="fill:blue"/>
<circle cx="4727" cy="1210" r="5" style="fill:blue"/>
<circle cx="6151" cy="1466" r="5" style="fill:blue"/>
<circle cx="2628" cy="1512" r="5" style="fill:blue"/>
<circle cx="6014" cy="3868" r="5" style="fill:blue"/>
<circle cx="4386" cy="2921" r="5" style="fill:blue"/>
<circle cx="2173" cy="3528" r="5" style="fill:blue"/>
<circle cx="3509" cy="3041" r="5" style="fill:blue"/>
<circle cx="6410" cy="2422" r="5" style="fill:blue"/>
<circle cx="1291" cy="2914" r="5" style="fill:blue"/>
<circle cx="4908" cy="1517" r="5" style="fill:blue"/>
<circle cx="2789" cy="160" r="5" style="fill:blue"/>
<circle cx="3040" cy="1790" r="5" style="fill:blue"/>
<circle cx="4940" cy="207" r="5" style="fill:blue"/>
<circle cx="1967" cy="197" r="5" style="fill:blue"/>
<circle cx="5211" cy="2019" r="5" style="fill:blue"/>
<circle cx="3739" cy="3732" r="5" style="fill:blue"/>
<circle cx="1414" cy="2732" r="5" style="fill:blue"/>
<circle cx="4802" cy="3516" r="5" style="fill:blue"/>
<circle cx="637" cy="1128" r="5" style="fill:blue"/>
<circle cx="7113" cy="2536" r="5" style="fill:blue"/>
<circle cx="1188" cy="2090" r="5" style="fill:blue"/>
<circle cx="1804" cy="486" r="5" style="fill:blue"/>
<circle cx="925" cy="3069" r="5" style="fill:blue"/>
<circle cx="1356" cy="2987" r="5" style="fill:blue"/>
<circle cx="3084" cy="2082" r="5" style="fill:blue"/>
<circle cx="1121" cy="2965" r="5" style="fill:blue"/>
<circle cx="6980" cy="1807" r="5" style="fill:blue"/>
<circle cx="1477" cy="1595" r="5" style="fill:blue"/>
<circle cx="4552" cy="2672" r="5" style="fill:blue"/>
<circle cx="2002" cy="2584" r="5" style="fill:blue"/>
<circle cx="4884" cy="878" r="5" style="fill:blue"/>
<circle cx="57" cy="3154" r="5" style="fill:blue"/>
<circle cx="2000" cy="690" r="5" style="fill:blue"/>
<circle cx="4999" cy="1829" r="5" style="fill:blue"/>
<circle cx="2280" cy="2002" r="5" style="fill:blue"/>
<circle cx="3512" cy="643" r="5" style="fill:blue"/>
<circle cx="2996" cy="2331" r="5" style="fill:blue"/>
<circle cx="1099" cy="1594" r="5" style="fill:blue"/>
<circle cx="2684" cy="2242" r="5" style="fill:blue"/>
<circle cx="4232" cy="1523" r="5" style="fill:blue"/>
<circle cx="6951" cy="343" r="5" style="fill:blue"/>
<circle cx="6179" cy="452" r="5" style="fill:blue"/>
<circle cx="1862" cy="2793" r="5" style="fill:blue"/>
<circle cx="5337" cy="627" r="5" style="fill:blue"/>
<circle cx="2002" cy="3710" r="5" style="fill:blue"/>
<circle cx="2075" cy="3524" r="5" style="fill:blue"/>
<circle cx="1864" cy="1658" r="5" style="fill:blue"/>
<circle cx="2327" cy="983" r="5" style="fill:blue"/>
<circle cx="2931" cy="155" r="5" style="fill:blue"/>
<circle cx="4092" cy="3202" r="5" style="fill:blue"/>
<circle cx="5541" cy="3184" r="5" style="fill:blue"/>
<circle cx="6105" cy="1851" r="5" style="fill:blue"/>
<circle cx="7117" cy="3096" r="5" style="fill:blue"/>
<circle cx="2078" cy="127" r="5" style="fill:blue"/>
<circle cx="374" cy="2185" r="5" style="fill:blue"/>
<circle cx="5827" cy="3747" r="5" style="fill:blue"/>
<circle cx="6226" cy="3176" r="5" style="fill:blue"/>
<circle cx="6553" cy="3522" r="5" style="fill:blue"/>
<circle cx="3338" cy="668" r="5" style="fill:blue"/>
<circle cx="3438" cy="599" r="5" style="fill:blue"/>
<circle cx="6254" cy="2396" r="5" style="fill:blue"/>
<circle cx="6424" cy="2080" r="5" style="fill:blue"/>
<circle cx="4839" cy="117" r="5" style="fill:blue"/>
<circle cx="4669" cy="2316" r="5" style="fill:blue"/>
<circle cx="6428" cy="1533" r="5" style="fill:blue"/>
<circle cx="4526" cy="447" r="5" style="fill:blue"/>
<circle cx="1790" cy="1840" r="5" style="fill:blue"/>
<circle cx="777" cy="2010" r="5" style="fill:blue"/>
<circle cx="4137" cy="3538" r="5" style="fill:blue"/>
<circle cx="823" cy="1623" r="5" style="fill:blue"/>
<circle cx="1404" cy="2022" r="5" style="fill:blue"/>
<circle cx="153" cy="3180" r="5" style="fill:blue"/>
<circle cx="5091" cy="2451" r="5" style="fill:blue"/>
<circle cx="3501" cy="3847" r="5" style="fill:blue"/>
<circle cx="2973" cy="1058" r="5" style="fill:blue"/>
<circle cx="1632" cy="2334" r="5" style="fill:blue"/>
<circle cx="4495" cy="3663" r="5" style="fill:blue"/>
<circle cx="2898" cy="3447" r="5" style="fill:blue"/>
<circle cx="5728" cy="1200" r="5" style="fill:blue"/>
<circle cx="3329" cy="280" r="5" style="fill:blue"/>
<circle cx="3007" cy="1547" r="5" style="fill:blue"/>
<circle cx="5173" cy="370" r="5" style="fill:blue"/>
<circle cx="6017" cy="2032" r="5" style="fill:blue"/>
<circle cx="4839" cy="2346" r="5" style="fill:blue"/>
<circle cx="6153" cy="1693" r="5" style="fill:blue"/>
<circle cx="2524" cy="230" r="5" style="fill:blue"/>
<circle cx="5353" cy="3354" r="5" style="fill:blue"/>
<circle cx="6692" cy="2567" r="5" style="fill:blue"/>
<circle cx="6355" cy="2628" r="5" style="fill:blue"/>
<circle cx="589" cy="3583" r="5" style="fill:blue"/>
<circle cx="2402" cy="508" r="5" style="fill:blue"/>
<circle cx="5250" cy="3259" r="5" style="fill:blue"/>
<circle cx="5703" cy="1298" r="5" style="fill:blue"/>
<circle cx="641" cy="1454" r="5" style="fill:blue"/>
<circle cx="5443" cy="1330" r="5" style="fill:blue"/>
<circle cx="372" cy="2894" r="5" style="fill:blue"/>
<circle cx="6865" cy="145" r="5" style="fill:blue"/>
<circle cx="1414" cy="99" r="5" style="fill:blue"/>
<circle cx="380" cy="2938" r="5" style="fill:blue"/>
<circle cx="6004" cy="2382" r="5" style="fill:blue"/>
<circle cx="7027" cy="2567" r="5" style="fill:blue"/>
<circle cx="2362" cy="1960" r="5" style="fill:blue"/>
<circle cx="2482" cy="2573" r="5" style="fill:blue"/>
<circle cx="3700" cy="706" r="5" style="fill:blue"/>
<circle cx="741" cy="3293" r="5" style="fill:blue"/>
</svg>