<svg viewBox="0 0 7396 2367" xmlns="http://www.w3.org/2000/svg">
<rect height="389" style="stroke:pink;stroke-width:10;fill:gray;fill-opacity:0.1;stroke-opacity:0.9" width="1423" x="5195" y="1563"/>
<circle cx="3193" cy="812" r="5" style="fill:blue"/>
<circle cx="6651" cy="1481" r="5" style="fill:blue"/>
<circle cx="5031" cy="67" r="5" style="fill:blue"/>
<circle cx="3816" cy="1877" r="5" style="fill:blue"/>
<circle cx="5203" cy="565" r="5" style="fill:blue"/>
<circle cx="5573" cy="1087" r="5" style="fill:blue"/>
<circle cx="2520" cy="1706" r="5" style="fill:blue"/>
<circle cx="3975" cy="1003" r="5" style="fill:blue"/>
<circle cx="3323" cy="924" r="5" style="fill:blue"/>
<circle cx="4876" cy="425" r="5" style="fill:blue"/>
<circle cx="446" cy="528" r="5" style="fill:blue"/>
<circle cx="6528" cy="118" r="5" style="fill:blue"/>
<circle cx="979" cy="1537" r="5" style="fill:blue"/>
<circle cx="2003" cy="1385" r="5" style="fill:blue"/>
<circle cx="3334" cy="1513" r="5" style="fill:blue"/>
<circle cx="651" cy="1779" r="5" style="fill:blue"/>
<circle cx="369" cy="2104" r="5" style="fill:blue"/>
<circle cx="821" cy="2257" r="5" style="fill:blue"/>
<circle cx="4864" cy="1697" r="5" style="fill:blue"/>
<circle cx="7018" cy="2041" r="5" style="fill:blue"/>
<circle cx="93" cy="136" r="5" style="fill:blue"/>
<circle cx="1597" cy="2272" r="5" style="fill:blue"/>
<circle cx="4267" cy="1239" r="5" style="fill:blue"/>
<circle cx="7314" cy="1775" r="5" style="fill:blue"/>
<circle cx="3265" cy="2042" r="5" style="fill:blue"/>
<circle cx="2769" cy="2286" r="5" style="fill:blue"/>
<circle cx="6180" cy="732" r="5" style="fill:blue"/>
<circle cx="6405" cy="1541" r="5" style="fill:blue"/>
<circle cx="4580" cy="1270" r="5" style="fill:blue"/>
<circle cx="2134" cy="1354" r="5" style="fill:blue"/>
<circle cx="3898" cy="1158" r="5" style="fill:blue"/>
<circle cx="1961" cy="1461" r="5" style="fill:blue"/>
<circle cx="4596" cy="1787" r="5" style="fill:blue"/>
<circle cx="3934" cy="903" r="5" style="fill:blue"/>
<circle cx="5882" cy="65" r="5" style="fill:blue"/>
<circle cx="3497" cy="0" r="5" style="fill:blue"/>
<circle cx="6859" cy="588" r="5" style="fill:blue"/>
<circle cx="1849" cy="465" r="5" style="fill:blue"/>
<circle cx="6822" cy="806" r="5" style="fill:blue"/>
<circle cx="7022" cy="1462" r="5" style="fill:blue"/>
<circle cx="1360" cy="404" r="5" style="fill:blue"/>
<circle cx="1286" cy="750" r="5" style="fill:blue"/>
<circle cx="389" cy="701" r="5" style="fill:blue"/>
<circle cx="439" cy="694" r="5" style="fill:blue"/>
<circle cx="1269" cy="228" r="5" style="fill:blue"/>
<circle cx="6464" cy="834" r="5" style="fill:blue"/>
<circle cx="519" cy="1456" r="5" style="fill:blue"/>
<circle cx="6493" cy="2034" r="5" style="fill:blue"/>
<circle cx="2358" cy="517" r="5" style="fill:blue"/>
<circle cx="465" cy="1680" r="5" style="fill:blue"/>
<circle cx="591" cy="1918" r="5" style="fill:blue"/>
<circle cx="1751" cy="82" r="5" style="fill:blue"/>
<circle cx="4241" cy="972" r="5" style="fill:blue"/>
<circle cx="2808" cy="824" r="5" style="fill:blue"/>
<circle cx="480" cy="2120" r="5" style="fill:blue"/>
<circle cx="3116" cy="677" r="5" style="fill:blue"/>
<circle cx="5829" cy="1097" r="5" style="fill:blue"/>
<circle cx="2535" cy="1082" r="5" style="fill:blue"/>
<circle cx="1590" cy="2316" r="5" style="fill:blue"/>
<circle cx="1666" cy="1224" r="5" style="fill:blue"/>
<circle cx="1185" cy="1101" r="5" style="fill:blue"/>
<circle cx="3346" cy="740" r="5" style="fill:blue"/>
<circle cx="1006" cy="394" r="5" style="fill:blue"/>
<circle cx="7086" cy="134" r="5" style="fill:blue"/>
<circle cx="2140" cy="2039" r="5" style="fill:blue"/>
<circle cx="5802" cy="2327" r="5" style="fill:blue"/>
<circle cx="7093" cy="1047" r="5" style="fill:blue"/>
<circle cx="3189" cy="1074" r="5" style="fill:blue"/>
<circle cx="1185" cy="1200" r="5" style="fill:blue"/>
<circle cx="253" cy="1435" r="5" style="fill:blue"/>
<circle cx="7041" cy="2234" r="5" style="fill:blue"/>
<circle cx="5701" cy="105" r="5" style="fill:blue"/>
<circle cx="653" cy="1880" r="5" style="fill:blue"/>
<circle cx="4996" cy="1738" r="5" style="fill:blue"/>
<circle cx="3964" cy="2317" r="5" style="fill:blue"/>
<circle cx="6112" cy="546" r="5" style="fill:blue"/>
<circle cx="332" cy="1888" r="5" style="fill:blue"/>
<circle cx="2893" cy="950" r="5" style="fill:blue"/>
<circle cx="39" cy="1135" r="5" style="fill:blue"/>
<circle cx="6648" cy="48" r="5" style="fill:blue"/>
<circle cx="5812" cy="260" r="5" style="fill:blue"/>
<circle cx="3549" cy="2214" r="5" style="fill:blue"/>
<circle cx="7032" cy="2122" r="5" style="fill:blue"/>
<circle cx="989" cy="1840" r="5" style="fill:blue"/>
<circle cx="6237" cy="2130" r="5" style="fill:blue"/>
<circle cx="4702" cy="1" r="5" style="fill:blue"/>
<circle cx="793" cy="1366" r="5" style="fill:blue"/>
<circle cx="7120" cy="740" r="5" style="fill:blue"/>
<circle cx="1173" cy="367" r="5" style="fill:blue"/>
<circle cx="7100" cy="626" r="5" style="fill:blue"/>
<circle cx="3573" cy="839" r="5" style="fill:blue"/>
<circle cx="4526" cy="266" r="5" style="fill:blue"/>
<circle cx="385" cy="1344" r="5" style="fill:blue"/>
<circle cx="4540" cy="2358" r="5" style="fill:blue"/>
<circle cx="4029" cy="2228" r="5" style="fill:blue"/>
<circle cx="2395" cy="1607" r="5" style="fill:blue"/>
<circle cx="3692" cy="1394" r="5" style="fill:blue"/>
<circle cx="2592" cy="1372" r="5" style="fill:blue"/>
<circle cx="256" cy="2140" r="5" style="fill:blue"/>
<circle cx="2991" cy="66" r="5" style="fill:blue"/>
<circle cx="5119" cy="62" r="5" style="fill:blue"/>
<circle cx="3023" cy="241" r="5" style="fill:blue"/>
<circle cx="7123" cy="1594" r="5" style="fill:blue"/>
<circle cx="6215" cy="948" r="5" style="fill:blue"/>
<circle cx="2170" cy="1850" r="5" style="fill:blue"/>
<circle cx="1239" cy="527" r="5" style="fill:blue"/>
<circle cx="3932" cy="8" r="5" style="fill:blue"/>
<circle cx="875" cy="1839" r="5" style="fill:blue"/>
<circle cx="2015" cy="1567" r="5" style="fill:blue"/>
<circle cx="5615" cy="2064" r="5" style="fill:blue"/>
<circle cx="5388" cy="621" r="5" style="fill:blue"/>
<circle cx="4327" cy="1390" r="5" style="fill:blue"/>
<circle cx="2071" cy="1709" r="5" style="fill:blue"/>
<circle cx="5243" cy="1065" r="5" style="fill:blue"/>
<circle cx="2680" cy="1556" r="5" style="fill:blue"/>
<circle cx="3554" cy="1563" r="5" style="fill:blue"/>
<circle cx="1798" cy="626" r="5" style="fill:blue"/>
<circle cx="3524" cy="1439" r="5" style="fill:blue"/>
<circle cx="778" cy="997" r="5" style="fill:blue"/>
<circle cx="440" cy="1418" r="5" style="fill:blue"/>
<circle cx="276" cy="643" r="5" style="fill:blue"/>
<circle cx="6954" cy="1637" r="5" style="fill:blue"/>
<circle cx="2947" cy="347" r="5" style="fill:blue"/>
<circle cx="7061" cy="1014" r="5" style="fill:blue"/>
<circle cx="6699" cy="1174" r="5" style="fill:blue"/>
<circle cx="351" cy="2212" r="5" style="fill:blue"/>
<circle cx="2663" cy="1644" r="5" style="fill:blue"/>
<circle cx="4337" cy="1429" r="5" style="fill:blue"/>
<circle cx="2022" cy="787" r="5" style="fill:blue"/>
<circle cx="5688" cy="360" r="5" style="fill:blue"/>
<circle cx="6115" cy="848" r="5" style="fill:blue"/>
<circle cx="4782" cy="1626" r="5" style="fill:blue"/>
<circle cx="5223" cy="1166" r="5" style="fill:blue"/>
<circle cx="2167" cy="540" r="5" style="fill:blue"/>
<circle cx="2086" cy="2291" r="5" style="fill:blue"/>
<circle cx="2999" cy="584" r="5" style="fill:blue"/>
<circle cx="6062" cy="1386" r="5" style="fill:blue"/>
<circle cx="6133" cy="551" r="5" style="fill:blue"/>
<circle cx="5060" cy="204" r="5" style="fill:blue"/>
<circle cx="618" cy="2094" r="5" style="fill:blue"/>
<circle cx="1664" cy="133" r="5" style="fill:blue"/>
<circle cx="391" cy="804" r="5" style="fill:blue"/>
<circle cx="5286" cy="2323" r="5" style="fill:blue"/>
<circle cx="1138" cy="1504" r="5" style="fill:blue"/>
<circle cx="4279" cy="1327" r="5" style="fill:blue"/>
<circle cx="6777" cy="2077" r="5" style="fill:blue"/>
<circle cx="396" cy="1079" r="5" style="fill:blue"/>
<circle cx="3173" cy="1560" r="5" style="fill:blue"/>
<circle cx="4977" cy="2140" r="5" style="fill:blue"/>
<circle cx="939" cy="657" r="5" style="fill:blue"/>
<circle cx="2599" cy="1376" r="5" style="fill:blue"/>
<circle cx="3986" cy="81" r="5" style="fill:blue"/>
<circle cx="7334" cy="136" r="5" style="fill:blue"/>
<circle cx="5372" cy="2056" r="5" style="fill:blue"/>
<circle cx="7159" cy="1562" r="5" style="fill:blue"/>
<circle cx="4749" cy="492" r="5" style="fill:blue"/>
<circle cx="1707" cy="508" r="5" style="fill:blue"/>
<circle cx="799" cy="2082" r="5" style="fill:blue"/>
<circle cx="3228" cy="688" r="5" style="fill:blue"/>
<circle cx="127" cy="1786" r="5" style="fill:blue"/>
<circle cx="6867" cy="1126" r="5" style="fill:blue"/>
<circle cx="6233" cy="54" r="5" style="fill:blue"/>
<circle cx="6331" cy="10" r="5" style="fill:blue"/>
<circle cx="14" cy="2359" r="5" style="fill:blue"/>
<circle cx="1005" cy="2124" r="5" style="fill:blue"/>
<circle cx="3502" cy="1527" r="5" style="fill:blue"/>
<circle cx="4080" cy="858" r="5" style="fill:blue"/>
<circle cx="4143" cy="1485" r="5" style="fill:blue"/>
<circle cx="1667" cy="1443" r="5" style="fill:blue"/>
<circle cx="1336" cy="1651" r="5" style="fill:blue"/>
<circle cx="3308" cy="2079" r="5" style="fill:blue"/>
<circle cx="4741" cy="1191" r="5" style="fill:blue"/>
<circle cx="1337" cy="1902" r="5" style="fill:blue"/>
<circle cx="1828" cy="2284" r="5" style="fill:blue"/>
<circle cx="1532" cy="3" r="5" style="fill:blue"/>
<circle cx="3765" cy="1423" r="5" style="fill:blue"/>
<circle cx="5630" cy="527" r="5" style="fill:blue"/>
<circle cx="3579" cy="665" r="5" style="fill:blue"/>
<circle cx="3421" cy="2253" r="5" style="fill:blue"/>
<circle cx="5481" cy="713" r="5" style="fill:blue"/>
<circle cx="4247" cy="251" r="5" style="fill:blue"/>
<circle cx="2826" cy="1649" r="5" style="fill:blue"/>
<circle cx="1734" cy="847" r="5" style="fill:blue"/>
<circle cx="6760" cy="1007" r="5" style="fill:blue"/>
<circle cx="5227" cy="172" r="5" style="fill:blue"/>
<circle cx="4558" cy="979" r="5" style="fill:blue"/>
<circle cx="3998" cy="1973" r="5" style="fill:blue"/>
<circle cx="2725" cy="97" r="5" style="fill:blue"/>
<circle cx="3813" cy="1511" r="5" style="fill:blue"/>
<circle cx="1291" cy="121" r="5" style="fill:blue"/>
<circle cx="2416" cy="696" r="5" style="fill:blue"/>
<circle cx="2155" cy="914" r="5" style="fill:blue"/>
<circle cx="2409" cy="2052" r="5" style="fill:blue"/>
<circle cx="4394" cy="2356" r="5" style="fill:blue"/>
<circle cx="1026" cy="2276" r="5" style="fill:blue"/>
<circle cx="4988" cy="1181" r="5" style="fill:blue"/>
<circle cx="6797" cy="2328" r="5" style="fill:blue"/>
<circle cx="4078" cy="191" r="5" style="fill:blue"/>
<circle cx="62" cy="1124" r="5" style="fill:blue"/>
<circle cx="99" cy="165" r="5" style="fill:blue"/>
<circle cx="3540" cy="1000" r="5" style="fill:blue"/>
<circle cx="4536" cy="415" r="5" style="fill:blue"/>
<circle cx="5604" cy="1986" r="5" style="fill:blue"/>
<circle cx="946" cy="136" r="5" style="fill:blue"/>
<circle cx="4707" cy="304" r="5" style="fill:blue"/>
<circle cx="742" cy="1600" r="5" style="fill:blue"/>
<circle cx="460" cy="291" r="5" style="fill:blue"/>
<circle cx="5637" cy="1307" r="5" style="fill:blue"/>
<circle cx="2182" cy="737" r="5" style="fill:blue"/>
<circle cx="782" cy="1288" r="5" style="fill:blue"/>
<circle cx="4412" cy="1215" r="5" style="fill:blue"/>
<circle cx="4909" cy="1864" r="5" style="fill:blue"/>
<circle cx="5459" cy="1447" r="5" style="fill:blue"/>
<circle cx="3092" cy="1331" r="5" style="fill:blue"/>
<circle cx="607" cy="2057" r="5" style="fill:blue"/>
<circle cx="6166" cy="1541" r="5" style="fill:blue"/>
<circle cx="3530" cy="2139" r="5" style="fill:blue"/>
<circle cx="3042" cy="1327" r="5" style="fill:blue"/>
<circle cx="2407" cy="361" r="5" style="fill:blue"/>
<circle cx="3526" cy="941" r="5" style="fill:blue"/>
<circle cx="6041" cy="295" r="5" style="fill:blue"/>
<circle cx="6861" cy="167" r="5" style="fill:blue"/>
<circle cx="2234" cy="1467" r="5" style="fill:blue"/>
<circle cx="7379" cy="541" r="5" style="fill:blue"/>
<circle cx="1976" cy="1830" r="5" style="fill:blue"/>
<circle cx="4813" cy="1631" r="5" style="fill:blue"/>
<circle cx="1035" cy="1402" r="5" style="fill:blue"/>
<circle cx="6320" cy="146" r="5" style="fill:blue"/>
<circle cx="2841" cy="1902" r="5" style="fill:blue"/>
<circle cx="1653" cy="2137" r="5" style="fill:blue"/>
<circle cx="1686" cy="133" r="5" style="fill:blue"/>
<circle cx="5333" cy="202" r="5" style="fill:blue"/>
<circle cx="3839" cy="1088" r="5" style="fill:blue"/>
<circle cx="7071" cy="517" r="5" style="fill:blue"/>
<circle cx="662" cy="769" r="5" style="fill:blue"/>
<circle cx="738" cy="121" r="5" style="fill:blue"/>
<circle cx="3286" cy="1932" r="5" style="fill:blue"/>
<circle cx="7102" cy="1016" r="5" style="fill:blue"/>
<circle cx="3753" cy="361" r="5" style="fill:blue"/>
<circle cx="4128" cy="1905" r="5" style="fill:blue"/>
<circle cx="1146" cy="203" r="5" style="fill:blue"/>
<circle cx="3983" cy="688" r="5" style="fill:blue"/>
<circle cx="6467" cy="1246" r="5" style="fill:blue"/>
<circle cx="3532" cy="1388" r="5" style="fill:blue"/>
<circle cx="1766" cy="1051" r="5" style="fill:blue"/>
<circle cx="5782" cy="300" r="5" style="fill:blue"/>
<circle cx="1485" cy="1316" r="5" style="fill:blue"/>
<circle cx="3766" cy="434" r="5" style="fill:blue"/>
<circle cx="4371" cy="1830" r="5" style="fill:blue"/>
<circle cx="3238" cy="952" r="5" style="fill:blue"/>
<circle cx="1790" cy="1859" r="5" style="fill:blue"/>
<circle cx="1102" cy="1762" r="5" style="fill:blue"/>
<circle cx="4743" cy="2159" r="5" style="fill:blue"/>
<circle cx="6358" cy="1108" r="5" style="fill:blue"/>
<circle cx="1452" cy="836" r="5" style="fill:blue"/>
<circle cx="2411" cy="353" r="5" style="fill:blue"/>
<circle cx="4637" cy="2364" r="5" style="fill:blue"/>
<circle cx="2902" cy="161" r="5" style="fill:blue"/>
<circle cx="1627" cy="1796" r="5" style="fill:blue"/>
<circle cx="6493" cy="2339" r="5" style="fill:blue"/>
<circle cx="3462" cy="1293" r="5" style="fill:blue"/>
<circle cx="6829" cy="788" r="5" style="fill:blue"/>
<circle cx="3764" cy="474" r="5" style="fill:blue"/>
<circle cx="6902" cy="615" r="5" style="fill:blue"/>
<circle cx="891" cy="2233" r="5" style="fill:blue"/>
<circle cx="3929" cy="65" r="5" style="fill:blue"/>
<circle cx="750" cy="64" r="5" style="fill:blue"/>
<circle cx="4643" cy="2240" r="5" style="fill:blue"/>
<circle cx="1234" cy="2245" r="5" style="fill:blue"/>
<circle cx="4655" cy="419" r="5" style="fill:blue"/>
<circle cx="4832" cy="1026" r="5" style="fill:blue"/>
<circle cx="3062" cy="805" r="5" style="fill:blue"/>
<circle cx="3104" cy="2311" r="5" style="fill:blue"/>
<circle cx="6133" cy="1250" r="5" style="fill:blue"/>
<circle cx="3058" cy="1981" r="5" style="fill:blue"/>
<circle cx="5606" cy="1484" r="5" style="fill:blue"/>
<circle cx="5868" cy="867" r="5" style="fill:blue"/>
<circle cx="1793" cy="597" r="5" style="fill:blue"/>
<circle cx="3451" cy="1734" r="5" style="fill:blue"/>
<circle cx="3801" cy="1498" r="5" style="fill:blue"/>
<circle cx="3976" cy="434" r="5" style="fill:blue"/>
<circle cx="6390" cy="606" r="5" style="fill:blue"/>
<circle cx="5782" cy="1228" r="5" style="fill:blue"/>
<circle cx="5122" cy="1937" r="5" style="fill:blue"/>
<circle cx="2198" cy="1696" r="5" style="fill:blue"/>
<circle cx="7148" cy="1983" r="5" style="fill:blue"/>
<circle cx="1476" cy="1640" r="5" style="fill:blue"/>
<circle cx="3250" cy="496" r="5" style="fill:blue"/>
<circle cx="2643" cy="1122" r="5" style="fill:blue"/>
<circle cx="6191" cy="418" r="5" style="fill:blue"/>
<circle cx="6450" cy="2093" r="5" style="fill:blue"/>
<circle cx="2243" cy="1685" r="5" style="fill:blue"/>
<circle cx="5887" cy="859" r="5" style="fill:blue"/>
<circle cx="296" cy="70" r="5" style="fill:blue"/>
<circle cx="901" cy="269" r="5" style="fill:blue"/>
<circle cx="3206" cy="537" r="5" style="fill:blue"/>
<circle cx="743" cy="1741" r="5" style="fill:blue"/>
<circle cx="428" cy="854" r="5" style="fill:blue"/>
<circle cx="6703" cy="2343" r="5" style="fill:blue"/>
<circle cx="4092" cy="1338" r="5" style="fill:blue"/>
<circle cx="1840" cy="2127" r="5" style="fill:blue"/>
<circle cx="7150" cy="1199" r="5" style="fill:blue"/>
<circle cx="1741" cy="862" r="5" style="fill:blue"/>
<circle cx="694" cy="181" r="5" style="fill:blue"/>
<circle cx="4177" cy="435" r="5" style="fill:blue"/>
<circle cx="4824" cy="2343" r="5" style="fill:blue"/>
<circle cx="791" cy="1752" r="5" style="fill:blue"/>
<circle cx="1936" cy="191" r="5" style="fill:blue"/>
<circle cx="3225" cy="949" r="5" style="fill:blue"/>
<circle cx="5871" cy="202" r="5" style="fill:blue"/>
<circle cx="4496" cy="1924" r="5" style="fill:blue"/>
<circle cx="6941" cy="1999" r="5" style="fill:blue"/>
<circle cx="3333" cy="1878" r="5" style="fill:blue"/>
<circle cx="1434" cy="1443" r="5" style="fill:blue"/>
<circle cx="3276" cy="2056" r="5" style="fill:blue"/>
<circle cx="1459" cy="1238" r="5" style="fill:blue"/>
<circle cx="301" cy="1475" r="5" style="fill:blue"/>
<circle cx="4192" cy="284" r="5" style="fill:blue"/>
<circle cx="2753" cy="1586" r="5" style="fill:blue"/>
<circle cx="2524" cy="1730" r="5" style="fill:blue"/>
<circle cx="4480" cy="1548" r="5" style="fill:blue"/>
<circle cx="5371" cy="1055" r="5" style="fill:blue"/>
<circle cx="5498" cy="336" r="5" style="fill:blue"/>
<circle cx="3545" cy="1719" r="5" style="fill:blue"/>
<circle cx="62" cy="2035" r="5" style="fill:blue"/>
<circle cx="33" cy="719" r="5" style="fill:blue"/>
<circle cx="2918" cy="2066" r="5" style="fill:blue"/>
<circle cx="3742" cy="1652" r="5" style="fill:blue"/>
<circle cx="6466" cy="2095" r="5" style="fill:blue"/>
<circle cx="1313" cy="212" r="5" style="fill:blue"/>
<circle cx="2794" cy="460" r="5" style="fill:blue"/>
<circle cx="4309" cy="2109" r="5" style="fill:blue"/>
<circle cx="2967" cy="2355" r="5" style="fill:blue"/>
<circle cx="2558" cy="1445" r="5" style="fill:blue"/>
<circle cx="3953" cy="1013" r="5" style="fill:blue"/>
<circle cx="3156" cy="1971" r="5" style="fill:blue"/>
<circle cx="4509" cy="1142" r="5" style="fill:blue"/>
<circle cx="7364" cy="1448" r="5" style="fill:blue"/>
<circle cx="5770" cy="1400" r="5" style="fill:blue"/>
<circle cx="1396" cy="340" r="5" style="fill:blue"/>
<circle cx="3457" cy="1333" r="5" style="fill:blue"/>
<circle cx="2605" cy="397" r="5" style="fill:blue"/>
<circle cx="5314" cy="2232" r="5" style="fill:blue"/>
<circle cx="7309" cy="990" r="5" style="fill:blue"/>
<circle cx="7135" cy="14" r="5" style="fill:blue"/>
<circle cx="2782" cy="763" r="5" style="fill:blue"/>
<circle cx="896" cy="1597" r="5" style="fill:blue"/>
<circle cx="1061" cy="635" r="5" style="fill:blue"/>
<circle cx="1841" cy="444" r="5" style="fill:blue"/>
<circle cx="4126" cy="2085" r="5" style="fill:blue"/>
<circle cx="1840" cy="466" r="5" style="fill:blue"/>
<circle cx="5912" cy="1470" r="5" style="fill:blue"/>
<circle cx="3877" cy="1402" r="5" style="fill:blue"/>
<circle cx="578" cy="245" r="5" style="fill:blue"/>
<circle cx="5218" cy="1132" r="5" style="fill:blue"/>
<circle cx="2416" cy="575" r="5" style="fill:blue"/>
<circle cx="7208" cy="430" r="5" style="fill:blue"/>
<circle cx="5786" cy="638" r="5" style="fill:blue"/>
<circle cx="1001" cy="127" r="5" style="fill:blue"/>
<circle cx="298" cy="2314" r="5" style="fill:blue"/>
<circle cx="7242" cy="192" r="5" style="fill:blue"/>
<circle cx="620" cy="1778" r="5" style="fill:blue"/>
<circle cx="5688" cy="1972" r="5" style="fill:blue"/>
<circle cx="6867" cy="1000" r="5" style="fill:blue"/>
<circle cx="3235" cy="2095" r="5" style="fill:blue"/>
<circle cx="2597" cy="1792" r="5" style="fill:blue"/>
<circle cx="2266" cy="281" r="5" style="fill:blue"/>
<circle cx="899" cy="81" r="5" style="fill:blue"/>
<circle cx="70" cy="1574" r="5" style="fill:blue"/>
<circle cx="1928" cy="1424" r="5" style="fill:blue"/>
<circle cx="6357" cy="56" r="5" style="fill:blue"/>
<circle cx="7017" cy="1406" r="5" style="fill:blue"/>
<circle cx="3336" cy="2315" r="5" style="fill:blue"/>
<circle cx="322" cy="1612" r="5" style="fill:blue"/>
<circle cx="1362" cy="1897" r="5" style="fill:blue"/>
<circle cx="6789" cy="2141" r="5" style="fill:blue"/>
<circle cx="2545" cy="1739" r="5" style="fill:blue"/>
<circle cx="6638" cy="787" r="5" style="fill:blue"/>
<circle cx="6648" cy="1489" r="5" style="fill:blue"/>
<circle cx="7336" cy="1449" r="5" style="fill:blue"/>
<circle cx="5956" cy="198" r="5" style="fill:blue"/>
<circle cx="2943" cy="537" r="5" style="fill:blue"/>
<circle cx="1353" cy="874" r="5" style="fill:blue"/>
<circle cx="1471" cy="315" r="5" style="fill:blue"/>
<circle cx="5664" cy="309" r="5" style="fill:blue"/>
<circle cx="1567" cy="682" r="5" style="fill:blue"/>
<circle cx="3951" cy="1249" r="5" style="fill:blue"/>
<circle cx="3914" cy="1807" r="5" style="fill:blue"/>
<circle cx="7091" cy="1395" r="5" style="fill:blue"/>
<circle cx="2440" cy="415" r="5" style="fill:blue"/>
<circle cx="1462" cy="1096" r="5" style="fill:blue"/>
<circle cx="6227" cy="1281" r="5" style="fill:blue"/>
<circle cx="2845" cy="1018" r="5" style="fill:blue"/>
<circle cx="656" cy="2277" r="5" style="fill:blue"/>
<circle cx="5236" cy="103" r="5" style="fill:blue"/>
<circle cx="5779" cy="268" r="5" style="fill:blue"/>
<circle cx="4855" cy="220" r="5" style="fill:blue"/>
<circle cx="3089" cy="328" r="5" style="fill:blue"/>
<circle cx="909" cy="656" r="5" style="fill:blue"/>
<circle cx="5132" cy="2355" r="5" style="fill:blue"/>
</svg>