<svg viewBox="0 0 3039 2499" xmlns="http://www.w3.org/2000/svg">
<rect height="289" style="stroke:pink;stroke-width:10;fill:gray;fill-opacity:0.1;stroke-opacity:0.9" width="1000" x="1682" y="1563"/>
<circle cx="2435" cy="2086" r="5" style="fill:blue"/>
<circle cx="2163" cy="508" r="5" style="fill:blue"/>
<circle cx="1414" cy="954" r="5" style="fill:blue"/>
<circle cx="141" cy="897" r="5" style="fill:blue"/>
<circle cx="2210" cy="1414" r="5" style="fill:blue"/>
<circle cx="317" cy="764" r="5" style="fill:blue"/>
<circle cx="159" cy="696" r="5" style="fill:blue"/>
<circle cx="528" cy="1986" r="5" style="fill:blue"/>
<circle cx="2452" cy="1057" r="5" style="fill:blue"/>
<circle cx="456" cy="69" r="5" style="fill:blue"/>
<circle cx="1653" cy="1299" r="5" style="fill:blue"/>
<circle cx="174" cy="1441" r="5" style="fill:blue"/>
<circle cx="1495" cy="1675" r="5" style="fill:blue"/>
<circle cx="733" cy="45" r="5" style="fill:blue"/>
<circle cx="208" cy="509" r="5" style="fill:blue"/>
<circle cx="1548" cy="2070" r="5" style="fill:blue"/>
<circle cx="1832" cy="556" r="5" style="fill:blue"/>
<circle cx="2489" cy="2142" r="5" style="fill:blue"/>
<circle cx="101" cy="400" r="5" style="fill:blue"/>
<circle cx="1678" cy="2416" r="5" style="fill:blue"/>
<circle cx="1947" cy="1453" r="5" style="fill:blue"/>
<circle cx="1625" cy="946" r="5" style="fill:blue"/>
<circle cx="723" cy="161" r="5" style="fill:blue"/>
<circle cx="443" cy="286" r="5" style="fill:blue"/>
<circle cx="2383" cy="2264" r="5" style="fill:blue"/>
<circle cx="2692" cy="241" r="5" style="fill:blue"/>
<circle cx="884" cy="500" r="5" style="fill:blue"/>
<circle cx="2023" cy="1906" r="5" style="fill:blue"/>
<circle cx="3036" cy="1322" r="5" style="fill:blue"/>
<circle cx="1061" cy="1353" r="5" style="fill:blue"/>
<circle cx="362" cy="2362" r="5" style="fill:blue"/>
<circle cx="1567" cy="306" r="5" style="fill:blue"/>
<circle cx="694" cy="565" r="5" style="fill:blue"/>
<circle cx="2272" cy="87" r="5" style="fill:blue"/>
<circle cx="2088" cy="2104" r="5" style="fill:blue"/>
<circle cx="335" cy="1662" r="5" style="fill:blue"/>
<circle cx="1659" cy="2234" r="5" style="fill:blue"/>
<circle cx="1391" cy="1649" r="5" style="fill:blue"/>
<circle cx="642" cy="1492" r="5" style="fill:blue"/>
<circle cx="1542" cy="2126" r="5" style="fill:blue"/>
<circle cx="2941" cy="1598" r="5" style="fill:blue"/>
<circle cx="629" cy="872" r="5" style="fill:blue"/>
<circle cx="1850" cy="748" r="5" style="fill:blue"/>
<circle cx="3008" cy="974" r="5" style="fill:blue"/>
<circle cx="2739" cy="483" r="5" style="fill:blue"/>
<circle cx="1525" cy="1865" r="5" style="fill:blue"/>
<circle cx="2945" cy="1622" r="5" style="fill:blue"/>
<circle cx="2979" cy="1932" r="5" style="fill:blue"/>
<circle cx="2624" cy="876" r="5" style="fill:blue"/>
<circle cx="1046" cy="2004" r="5" style="fill:blue"/>
<circle cx="2025" cy="1481" r="5" style="fill:blue"/>
<circle cx="2006" cy="1854" r="5" style="fill:blue"/>
<circle cx="3036" cy="1506" r="5" style="fill:blue"/>
<circle cx="2143" cy="2077" r="5" style="fill:blue"/>
<circle cx="2370" cy="531" r="5" style="fill:blue"/>
<circle cx="1990" cy="2176" r="5" style="fill:blue"/>
<circle cx="876" cy="1407" r="5" style="fill:blue"/>
<circle cx="177" cy="988" r="5" style="fill:blue"/>
<circle cx="8" cy="1801" r="5" style="fill:blue"/>
<circle cx="1810" cy="1000" r="5" style="fill:blue"/>
<circle cx="378" cy="1915" r="5" style="fill:blue"/>
<circle cx="207" cy="508" r="5" style="fill:blue"/>
<circle cx="2500" cy="1296" r="5" style="fill:blue"/>
<circle cx="471" cy="1802" r="5" style="fill:blue"/>
<circle cx="1953" cy="304" r="5" style="fill:blue"/>
<circle cx="1817" cy="76" r="5" style="fill:blue"/>
<circle cx="1763" cy="1945" r="5" style="fill:blue"/>
<circle cx="782" cy="230" r="5" style="fill:blue"/>
<circle cx="415" cy="946" r="5" style="fill:blue"/>
<circle cx="2875" cy="1222" r="5" style="fill:blue"/>
<circle cx="3005" cy="1885" r="5" style="fill:blue"/>
<circle cx="1324" cy="334" r="5" style="fill:blue"/>
<circle cx="479" cy="837" r="5" style="fill:blue"/>
<circle cx="107" cy="269" r="5" style="fill:blue"/>
<circle cx="3003" cy="1676" r="5" style="fill:blue"/>
<circle cx="1677" cy="276" r="5" style="fill:blue"/>
<circle cx="2403" cy="777" r="5" style="fill:blue"/>
<circle cx="1815" cy="705" r="5" style="fill:blue"/>
<circle cx="3024" cy="1473" r="5" style="fill:blue"/>
<circle cx="1591" cy="2205" r="5" style="fill:blue"/>
<circle cx="1849" cy="412" r="5" style="fill:blue"/>
<circle cx="2652" cy="1410" r="5" style="fill:blue"/>
<circle cx="128" cy="1365" r="5" style="fill:blue"/>
<circle cx="330" cy="1924" r="5" style="fill:blue"/>
<circle cx="2756" cy="152" r="5" style="fill:blue"/>
<circle cx="2540" cy="387" r="5" style="fill:blue"/>
<circle cx="2509" cy="829" r="5" style="fill:blue"/>
<circle cx="2680" cy="1446" r="5" style="fill:blue"/>
<circle cx="980" cy="854" r="5" style="fill:blue"/>
<circle cx="117" cy="1677" r="5" style="fill:blue"/>
<circle cx="1387" cy="319" r="5" style="fill:blue"/>
<circle cx="1338" cy="1187" r="5" style="fill:blue"/>
<circle cx="1466" cy="1112" r="5" style="fill:blue"/>
<circle cx="1213" cy="752" r="5" style="fill:blue"/>
<circle cx="525" cy="1456" r="5" style="fill:blue"/>
<circle cx="1391" cy="903" r="5" style="fill:blue"/>
<circle cx="2564" cy="2049" r="5" style="fill:blue"/>
<circle cx="418" cy="1040" r="5" style="fill:blue"/>
<circle cx="2964" cy="457" r="5" style="fill:blue"/>
<circle cx="1387" cy="505" r="5" style="fill:blue"/>
<circle cx="2770" cy="2387" r="5" style="fill:blue"/>
<circle cx="1148" cy="1083" r="5" style="fill:blue"/>
<circle cx="2680" cy="997" r="5" style="fill:blue"/>
<circle cx="2721" cy="2219" r="5" style="fill:blue"/>
<circle cx="238" cy="1124" r="5" style="fill:blue"/>
<circle cx="853" cy="609" r="5" style="fill:blue"/>
<circle cx="2173" cy="11" r="5" style="fill:blue"/>
<circle cx="1483" cy="76" r="5" style="fill:blue"/>
<circle cx="2700" cy="515" r="5" style="fill:blue"/>
<circle cx="1348" cy="996" r="5" style="fill:blue"/>
<circle cx="2548" cy="2481" r="5" style="fill:blue"/>
<circle cx="324" cy="2002" r="5" style="fill:blue"/>
<circle cx="2227" cy="1295" r="5" style="fill:blue"/>
<circle cx="1164" cy="1881" r="5" style="fill:blue"/>
<circle cx="2107" cy="1554" r="5" style="fill:blue"/>
<circle cx="2949" cy="11" r="5" style="fill:blue"/>
<circle cx="712" cy="318" r="5" style="fill:blue"/>
<circle cx="1477" cy="1935" r="5" style="fill:blue"/>
<circle cx="1528" cy="1198" r="5" style="fill:blue"/>
<circle cx="527" cy="723" r="5" style="fill:blue"/>
<circle cx="174" cy="751" r="5" style="fill:blue"/>
<circle cx="1639" cy="1742" r="5" style="fill:blue"/>
<circle cx="573" cy="996" r="5" style="fill:blue"/>
<circle cx="873" cy="1935" r="5" style="fill:blue"/>
<circle cx="884" cy="637" r="5" style="fill:blue"/>
<circle cx="989" cy="744" r="5" style="fill:blue"/>
<circle cx="1687" cy="1129" r="5" style="fill:blue"/>
<circle cx="340" cy="348" r="5" style="fill:blue"/>
<circle cx="1447" cy="1795" r="5" style="fill:blue"/>
<circle cx="2040" cy="1509" r="5" style="fill:blue"/>
<circle cx="2613" cy="132" r="5" style="fill:blue"/>
<circle cx="2701" cy="1719" r="5" style="fill:blue"/>
<circle cx="1470" cy="1604" r="5" style="fill:blue"/>
<circle cx="1749" cy="1439" r="5" style="fill:blue"/>
<circle cx="2646" cy="1018" r="5" style="fill:blue"/>
<circle cx="1139" cy="2020" r="5" style="fill:blue"/>
<circle cx="1728" cy="1397" r="5" style="fill:blue"/>
<circle cx="2246" cy="2484" r="5" style="fill:blue"/>
<circle cx="1356" cy="1396" r="5" style="fill:blue"/>
<circle cx="2364" cy="1471" r="5" style="fill:blue"/>
<circle cx="1097" cy="497" r="5" style="fill:blue"/>
<circle cx="1815" cy="711" r="5" style="fill:blue"/>
<circle cx="96" cy="1801" r="5" style="fill:blue"/>
<circle cx="471" cy="2405" r="5" style="fill:blue"/>
<circle cx="2104" cy="974" r="5" style="fill:blue"/>
<circle cx="578" cy="1309" r="5" style="fill:blue"/>
<circle cx="1686" cy="437" r="5" style="fill:blue"/>
<circle cx="1586" cy="665" r="5" style="fill:blue"/>
<circle cx="91" cy="2167" r="5" style="fill:blue"/>
<circle cx="559" cy="515" r="5" style="fill:blue"/>
<circle cx="604" cy="25" r="5" style="fill:blue"/>
<circle cx="934" cy="55" r="5" style="fill:blue"/>
<circle cx="809" cy="1239" r="5" style="fill:blue"/>
<circle cx="206" cy="447" r="5" style="fill:blue"/>
<circle cx="1724" cy="517" r="5" style="fill:blue"/>
<circle cx="1481" cy="973" r="5" style="fill:blue"/>
<circle cx="1049" cy="717" r="5" style="fill:blue"/>
<circle cx="420" cy="1048" r="5" style="fill:blue"/>
<circle cx="3016" cy="2212" r="5" style="fill:blue"/>
<circle cx="2877" cy="1577" r="5" style="fill:blue"/>
<circle cx="2899" cy="144" r="5" style="fill:blue"/>
<circle cx="501" cy="1805" r="5" style="fill:blue"/>
<circle cx="2633" cy="2448" r="5" style="fill:blue"/>
<circle cx="2713" cy="63" r="5" style="fill:blue"/>
<circle cx="830" cy="299" r="5" style="fill:blue"/>
<circle cx="1404" cy="2321" r="5" style="fill:blue"/>
<circle cx="1250" cy="4" r="5" style="fill:blue"/>
<circle cx="767" cy="1942" r="5" style="fill:blue"/>
<circle cx="2023" cy="693" r="5" style="fill:blue"/>
<circle cx="380" cy="386" r="5" style="fill:blue"/>
<circle cx="246" cy="2485" r="5" style="fill:blue"/>
<circle cx="1820" cy="1436" r="5" style="fill:blue"/>
<circle cx="2487" cy="1558" r="5" style="fill:blue"/>
<circle cx="1845" cy="284" r="5" style="fill:blue"/>
<circle cx="1049" cy="1819" r="5" style="fill:blue"/>
<circle cx="338" cy="673" r="5" style="fill:blue"/>
<circle cx="285" cy="2478" r="5" style="fill:blue"/>
<circle cx="2462" cy="990" r="5" style="fill:blue"/>
<circle cx="2579" cy="479" r="5" style="fill:blue"/>
<circle cx="2679" cy="2476" r="5" style="fill:blue"/>
<circle cx="1921" cy="1171" r="5" style="fill:blue"/>
<circle cx="1884" cy="1082" r="5" style="fill:blue"/>
<circle cx="2871" cy="1581" r="5" style="fill:blue"/>
<circle cx="1983" cy="827" r="5" style="fill:blue"/>
<circle cx="661" cy="906" r="5" style="fill:blue"/>
<circle cx="1917" cy="2290" r="5" style="fill:blue"/>
<circle cx="1352" cy="1488" r="5" style="fill:blue"/>
<circle cx="996" cy="1146" r="5" style="fill:blue"/>
<circle cx="1800" cy="1378" r="5" style="fill:blue"/>
<circle cx="2394" cy="585" r="5" style="fill:blue"/>
<circle cx="2423" cy="439" r="5" style="fill:blue"/>
<circle cx="2783" cy="1988" r="5" style="fill:blue"/>
<circle cx="19" cy="1378" r="5" style="fill:blue"/>
<circle cx="1605" cy="1352" r="5" style="fill:blue"/>
<circle cx="388" cy="848" r="5" style="fill:blue"/>
<circle cx="326" cy="1698" r="5" style="fill:blue"/>
<circle cx="838" cy="2437" r="5" style="fill:blue"/>
<circle cx="850" cy="310" r="5" style="fill:blue"/>
<circle cx="2126" cy="295" r="5" style="fill:blue"/>
<circle cx="1633" cy="1809" r="5" style="fill:blue"/>
<circle cx="2318" cy="1421" r="5" style="fill:blue"/>
<circle cx="7" cy="399" r="5" style="fill:blue"/>
<circle cx="1770" cy="673" r="5" style="fill:blue"/>
<circle cx="2850" cy="1206" r="5" style="fill:blue"/>
<circle cx="433" cy="471" r="5" style="fill:blue"/>
<circle cx="3033" cy="2489" r="5" style="fill:blue"/>
<circle cx="2200" cy="1102" r="5" style="fill:blue"/>
<circle cx="1029" cy="1137" r="5" style="fill:blue"/>
<circle cx="143" cy="2020" r="5" style="fill:blue"/>
<circle cx="150" cy="1567" r="5" style="fill:blue"/>
<circle cx="1711" cy="519" r="5" style="fill:blue"/>
<circle cx="1411" cy="1190" r="5" style="fill:blue"/>
<circle cx="1438" cy="1062" r="5" style="fill:blue"/>
<circle cx="1049" cy="1440" r="5" style="fill:blue"/>
<circle cx="2170" cy="1534" r="5" style="fill:blue"/>
<circle cx="724" cy="180" r="5" style="fill:blue"/>
<circle cx="1059" cy="939" r="5" style="fill:blue"/>
<circle cx="2378" cy="716" r="5" style="fill:blue"/>
<circle cx="2537" cy="102" r="5" style="fill:blue"/>
<circle cx="1792" cy="2029" r="5" style="fill:blue"/>
<circle cx="811" cy="2487" r="5" style="fill:blue"/>
<circle cx="1504" cy="2493" r="5" style="fill:blue"/>
<circle cx="1492" cy="296" r="5" style="fill:blue"/>
<circle cx="2242" cy="477" r="5" style="fill:blue"/>
<circle cx="2035" cy="2467" r="5" style="fill:blue"/>
<circle cx="641" cy="1233" r="5" style="fill:blue"/>
<circle cx="325" cy="583" r="5" style="fill:blue"/>
<circle cx="671" cy="2303" r="5" style="fill:blue"/>
<circle cx="631" cy="1552" r="5" style="fill:blue"/>
<circle cx="957" cy="2163" r="5" style="fill:blue"/>
<circle cx="333" cy="1219" r="5" style="fill:blue"/>
<circle cx="2477" cy="356" r="5" style="fill:blue"/>
<circle cx="25" cy="1689" r="5" style="fill:blue"/>
<circle cx="2176" cy="1458" r="5" style="fill:blue"/>
<circle cx="127" cy="658" r="5" style="fill:blue"/>
<circle cx="209" cy="1704" r="5" style="fill:blue"/>
<circle cx="1927" cy="2279" r="5" style="fill:blue"/>
<circle cx="1095" cy="1583" r="5" style="fill:blue"/>
<circle cx="2543" cy="2118" r="5" style="fill:blue"/>
<circle cx="3011" cy="947" r="5" style="fill:blue"/>
<circle cx="2450" cy="2338" r="5" style="fill:blue"/>
<circle cx="2018" cy="1281" r="5" style="fill:blue"/>
<circle cx="2850" cy="1755" r="5" style="fill:blue"/>
<circle cx="31" cy="1703" r="5" style="fill:blue"/>
<circle cx="2821" cy="1666" r="5" style="fill:blue"/>
<circle cx="1962" cy="2242" r="5" style="fill:blue"/>
<circle cx="1166" cy="2084" r="5" style="fill:blue"/>
<circle cx="232" cy="979" r="5" style="fill:blue"/>
<circle cx="1796" cy="721" r="5" style="fill:blue"/>
<circle cx="533" cy="159" r="5" style="fill:blue"/>
<circle cx="132" cy="378" r="5" style="fill:blue"/>
<circle cx="441" cy="1765" r="5" style="fill:blue"/>
<circle cx="1848" cy="1489" r="5" style="fill:blue"/>
<circle cx="1703" cy="2188" r="5" style="fill:blue"/>
<circle cx="3011" cy="1141" r="5" style="fill:blue"/>
<circle cx="1594" cy="1198" r="5" style="fill:blue"/>
<circle cx="953" cy="946" r="5" style="fill:blue"/>
<circle cx="1539" cy="1899" r="5" style="fill:blue"/>
<circle cx="1668" cy="290" r="5" style="fill:blue"/>
<circle cx="2390" cy="197" r="5" style="fill:blue"/>
<circle cx="1994" cy="166" r="5" style="fill:blue"/>
<circle cx="1892" cy="2347" r="5" style="fill:blue"/>
<circle cx="1866" cy="873" r="5" style="fill:blue"/>
<circle cx="1454" cy="2180" r="5" style="fill:blue"/>
<circle cx="1378" cy="437" r="5" style="fill:blue"/>
<circle cx="667" cy="448" r="5" style="fill:blue"/>
<circle cx="812" cy="105" r="5" style="fill:blue"/>
<circle cx="2736" cy="1003" r="5" style="fill:blue"/>
<circle cx="740" cy="1445" r="5" style="fill:blue"/>
<circle cx="661" cy="1323" r="5" style="fill:blue"/>
<circle cx="1488" cy="1481" r="5" style="fill:blue"/>
<circle cx="567" cy="981" r="5" style="fill:blue"/>
<circle cx="1612" cy="1242" r="5" style="fill:blue"/>
<circle cx="1459" cy="830" r="5" style="fill:blue"/>
<circle cx="627" cy="787" r="5" style="fill:blue"/>
<circle cx="2298" cy="1105" r="5" style="fill:blue"/>
<circle cx="2177" cy="839" r="5" style="fill:blue"/>
<circle cx="3012" cy="845" r="5" style="fill:blue"/>
<circle cx="548" cy="1468" r="5" style="fill:blue"/>
<circle cx="2991" cy="1945" r="5" style="fill:blue"/>
<circle cx="2637" cy="585" r="5" style="fill:blue"/>
<circle cx="2231" cy="1291" r="5" style="fill:blue"/>
<circle cx="2970" cy="2248" r="5" style="fill:blue"/>
<circle cx="1318" cy="2104" r="5" style="fill:blue"/>
<circle cx="2164" cy="155" r="5" style="fill:blue"/>
<circle cx="478" cy="1074" r="5" style="fill:blue"/>
<circle cx="2084" cy="1439" r="5" style="fill:blue"/>
<circle cx="1301" cy="38" r="5" style="fill:blue"/>
<circle cx="830" cy="2059" r="5" style="fill:blue"/>
<circle cx="1697" cy="142" r="5" style="fill:blue"/>
<circle cx="166" cy="270" r="5" style="fill:blue"/>
<circle cx="1844" cy="2380" r="5" style="fill:blue"/>
<circle cx="1415" cy="831" r="5" style="fill:blue"/>
<circle cx="463" cy="551" r="5" style="fill:blue"/>
<circle cx="1117" cy="1270" r="5" style="fill:blue"/>
<circle cx="1164" cy="853" r="5" style="fill:blue"/>
<circle cx="100" cy="2304" r="5" style="fill:blue"/>
<circle cx="1139" cy="2065" r="5" style="fill:blue"/>
<circle cx="1832" cy="1519" r="5" style="fill:blue"/>
<circle cx="1779" cy="605" r="5" style="fill:blue"/>
<circle cx="840" cy="578" r="5" style="fill:blue"/>
<circle cx="2529" cy="372" r="5" style="fill:blue"/>
<circle cx="2621" cy="594" r="5" style="fill:blue"/>
<circle cx="2248" cy="780" r="5" style="fill:blue"/>
<circle cx="2402" cy="559" r="5" style="fill:blue"/>
<circle cx="1012" cy="1854" r="5" style="fill:blue"/>
<circle cx="1441" cy="1072" r="5" style="fill:blue"/>
<circle cx="1615" cy="1909" r="5" style="fill:blue"/>
<circle cx="655" cy="2197" r="5" style="fill:blue"/>
<circle cx="2603" cy="1346" r="5" style="fill:blue"/>
<circle cx="1290" cy="1182" r="5" style="fill:blue"/>
<circle cx="290" cy="962" r="5" style="fill:blue"/>
<circle cx="1167" cy="1167" r="5" style="fill:blue"/>
<circle cx="2054" cy="704" r="5" style="fill:blue"/>
<circle cx="221" cy="2366" r="5" style="fill:blue"/>
<circle cx="801" cy="1340" r="5" style="fill:blue"/>
<circle cx="2654" cy="1230" r="5" style="fill:blue"/>
<circle cx="455" cy="2012" r="5" style="fill:blue"/>
<circle cx="2263" cy="2" r="5" style="fill:blue"/>
<circle cx="2594" cy="223" r="5" style="fill:blue"/>
<circle cx="1721" cy="2030" r="5" style="fill:blue"/>
<circle cx="1243" cy="1101" r="5" style="fill:blue"/>
<circle cx="1492" cy="876" r="5" style="fill:blue"/>
<circle cx="2832" cy="284" r="5" style="fill:blue"/>
<circle cx="2122" cy="1261" r="5" style="fill:blue"/>
<circle cx="1660" cy="2102" r="5" style="fill:blue"/>
<circle cx="2580" cy="876" r="5" style="fill:blue"/>
<circle cx="1127" cy="1595" r="5" style="fill:blue"/>
<circle cx="1736" cy="2413" r="5" style="fill:blue"/>
<circle cx="2791" cy="1678" r="5" style="fill:blue"/>
<circle cx="2244" cy="74" r="5" style="fill:blue"/>
<circle cx="1224" cy="1830" r="5" style="fill:blue"/>
<circle cx="2812" cy="623" r="5" style="fill:blue"/>
<circle cx="2397" cy="1555" r="5" style="fill:blue"/>
<circle cx="224" cy="2237" r="5" style="fill:blue"/>
<circle cx="1086" cy="2137" r="5" style="fill:blue"/>
<circle cx="2571" cy="427" r="5" style="fill:blue"/>
<circle cx="2713" cy="336" r="5" style="fill:blue"/>
<circle cx="2814" cy="500" r="5" style="fill:blue"/>
<circle cx="1570" cy="418" r="5" style="fill:blue"/>
<circle cx="2864" cy="1508" r="5" style="fill:blue"/>
<circle cx="2712" cy="459" r="5" style="fill:blue"/>
<circle cx="735" cy="1049" r="5" style="fill:blue"/>
<circle cx="135" cy="1336" r="5" style="fill:blue"/>
<circle cx="1168" cy="2151" r="5" style="fill:blue"/>
<circle cx="1327" cy="270" r="5" style="fill:blue"/>
<circle cx="713" cy="109" r="5" style="fill:blue"/>
<circle cx="1688" cy="605" r="5" style="fill:blue"/>
<circle cx="929" cy="2454" r="5" style="fill:blue"/>
<circle cx="1043" cy="1120" r="5" style="fill:blue"/>
<circle cx="1360" cy="1133" r="5" style="fill:blue"/>
<circle cx="951" cy="32" r="5" style="fill:blue"/>
<circle cx="3029" cy="2468" r="5" style="fill:blue"/>
<circle cx="1446" cy="698" r="5" style="fill:blue"/>
<circle cx="2152" cy="909" r="5" style="fill:blue"/>
<circle cx="2001" cy="588" r="5" style="fill:blue"/>
<circle cx="2765" cy="2184" r="5" style="fill:blue"/>
<circle cx="1149" cy="2313" r="5" style="fill:blue"/>
<circle cx="1666" cy="2185" r="5" style="fill:blue"/>
<circle cx="119" cy="1258" r="5" style="fill:blue"/>
<circle cx="2687" cy="1673" r="5" style="fill:blue"/>
<circle cx="2860" cy="1971" r="5" style="fill:blue"/>
<circle cx="181" cy="1413" r="5" style="fill:blue"/>
<circle cx="424" cy="1652" r="5" style="fill:blue"/>
<circle cx="791" cy="1648" r="5" style="fill:blue"/>
<circle cx="108" cy="553" r="5" style="fill:blue"/>
<circle cx="1205" cy="1645" r="5" style="fill:blue"/>
<circle cx="1700" cy="190" r="5" style="fill:blue"/>
<circle cx="2298" cy="581" r="5" style="fill:blue"/>
<circle cx="1281" cy="1991" r="5" style="fill:blue"/>
<circle cx="2053" cy="157" r="5" style="fill:blue"/>
<circle cx="257" cy="2392" r="5" style="fill:blue"/>
<circle cx="1547" cy="1817" r="5" style="fill:blue"/>
<circle cx="1481" cy="1309" r="5" style="fill:blue"/>
<circle cx="568" cy="585" r="5" style="fill:blue"/>
<circle cx="2950" cy="1998" r="5" style="fill:blue"/>
<circle cx="2410" cy="351" r="5" style="fill:blue"/>
<circle cx="1303" cy="1615" r="5" style="fill:blue"/>
<circle cx="697" cy="1652" r="5" style="fill:blue"/>
<circle cx="1908" cy="352" r="5" style="fill:blue"/>
<circle cx="1440" cy="835" r="5" style="fill:blue"/>
<circle cx="865" cy="965" r="5" style="fill:blue"/>
<circle cx="889" cy="1968" r="5" style="fill:blue"/>
<circle cx="230" cy="1706" r="5" style="fill:blue"/>
<circle cx="2000" cy="2285" r="5" style="fill:blue"/>
<circle cx="364" cy="395" r="5" style="fill:blue"/>
<circle cx="2391" cy="2143" r="5" style="fill:blue"/>
<circle cx="60" cy="1372" r="5" style="fill:blue"/>
<circle cx="2483" cy="2438" r="5" style="fill:blue"/>
<circle cx="1134" cy="515" r="5" style="fill:blue"/>
<circle cx="439" cy="2476" r="5" style="fill:blue"/>
<circle cx="2841" cy="1334" r="5" style="fill:blue"/>
<circle cx="1064" cy="2313" r="5" style="fill:blue"/>
<circle cx="915" cy="1523" r="5" style="fill:blue"/>
<circle cx="848" cy="1217" r="5" style="fill:blue"/>
<circle cx="2497" cy="2363" r="5" style="fill:blue"/>
<circle cx="2466" cy="441" r="5" style="fill:blue"/>
<circle cx="113" cy="1760" r="5" style="fill:blue"/>
<circle cx="663" cy="1466" r="5" style="fill:blue"/>
<circle cx="1212" cy="737" r="5" style="fill:blue"/>
<circle cx="2845" cy="1108" r="68" style="stroke-width:5;fill:gray;fill-opacity:0.3"/>
<circle cx="2394" cy="1092" r="55" style="stroke-width:5;fill:gray;fill-opacity:0.3"/>
<circle cx="83" cy="1890" r="75" style="stroke-width:5;fill:gray;fill-opacity:0.3"/>
<circle cx="2609" cy="219" r="9" style="stroke-width:5;fill:gray;fill-opacity:0.3"/>
<circle cx="2787" cy="1265" r="68" style="stroke-width:5;fill:gray;fill-opacity:0.3"/>
<circle cx="704" cy="1132" r="48" style="stroke-width:5;fill:gray;fill-opacity:0.3"/>
<circle cx="2011" cy="2381" r="46" style="stroke-width:5;fill:gray;fill-opacity:0.3"/>
<circle cx="1038" cy="854" r="13" style="stroke-width:5;fill:gray;fill-opacity:0.3"/>
<circle cx="2341" cy="1958" r="71" style="stroke-width:5;fill:gray;fill-opacity:0.3"/>
<circle cx="1034" cy="663" r="19" style="stroke-width:5;fill:gray;fill-opacity:0.3"/>
<circle cx="299" cy="1489" r="67" style="stroke-width:5;fill:gray;fill-opacity:0.3"/>
<circle cx="2217" cy="2113" r="43" style="stroke-width:5;fill:gray;fill-opacity:0.3"/>
<circle cx="757" cy="1852" r="74" style="stroke-width:5;fill:gray;fill-opacity:0.3"/>
<circle cx="2692" cy="106" r="13" style="stroke-width:5;fill:gray;fill-opacity:0.3"/>
<circle cx="2779" cy="1081" r="10" style="stroke-width:5;fill:gray;fill-opacity:0.3"/>
<circle cx="1440" cy="1883" r="19" style="stroke-width:5;fill:gray;fill-opacity:0.3"/>
<circle cx="1913" cy="89" r="74" style="stroke-width:5;fill:gray;fill-opacity:0.3"/>
<circle cx="2289" cy="490" r="26" style="stroke-width:5;fill:gray;fill-opacity:0.3"/>
<circle cx="717" cy="2264" r="19" style="stroke-width:5;fill:gray;fill-opacity:0.3"/>
<circle cx="2801" cy="2449" r="5" style="stroke-width:5;fill:gray;fill-opacity:0.3"/>
<circle cx="221" cy="71" r="47" style="stroke-width:5;fill:gray;fill-opacity:0.3"/>
<circle cx="2221" cy="994" r="56" style="stroke-width:5;fill:gray;fill-opacity:0.3"/>
<circle cx="1531" cy="885" r="22" style="stroke-width:5;fill:gray;fill-opacity:0.3"/>
<circle cx="687" cy="639" r="41" style="stroke-width:5;fill:gray;fill-opacity:0.3"/>
<circle cx="2955" cy="841" r="26" style="stroke-width:5;fill:gray;fill-opacity:0.3"/>
<circle cx="165" cy="2149" r="72" style="stroke-width:5;fill:gray;fill-opacity:0.3"/>
<circle cx="1266" cy="32" r="17" style="stroke-width:5;fill:gray;fill-opacity:0.3"/>
<circle cx="112" cy="1988" r="18" style="stroke-width:5;fill:gray;fill-opacity:0.3"/>
<circle cx="2649" cy="2372" r="40" style="stroke-width:5;fill:gray;fill-opacity:0.3"/>
<circle cx="344" cy="102" r="74" style="stroke-width:5;fill:gray;fill-opacity:0.3"/>
<circle cx="250" cy="1535" r="32" style="stroke-width:5;fill:gray;fill-opacity:0.3"/>
<circle cx="1937" cy="2141" r="63" style="stroke-width:5;fill:gray;fill-opacity:0.3"/>
<circle cx="2905" cy="1118" r="79" style="stroke-width:5;fill:gray;fill-opacity:0.3"/>
<circle cx="2309" cy="445" r="27" style="stroke-width:5;fill:gray;fill-opacity:0.3"/>
<circle cx="654" cy="370" r="74" style="stroke-width:5;fill:gray;fill-opacity:0.3"/>
<circle cx="1616" cy="242" r="38" style="stroke-width:5;fill:gray;fill-opacity:0.3"/>
<circle cx="467" cy="762" r="58" style="stroke-width:5;fill:gray;fill-opacity:0.3"/>
<circle cx="1289" cy="2190" r="79" style="stroke-width:5;fill:gray;fill-opacity:0.3"/>
<circle cx="2121" cy="2398" r="83" style="stroke-width:5;fill:gray;fill-opacity:0.3"/>
<circle cx="553" cy="1945" r="22" style="stroke-width:5;fill:gray;fill-opacity:0.3"/>
<circle cx="1069" cy="1531" r="33" style="stroke-width:5;fill:gray;fill-opacity:0.3"/>
<circle cx="1909" cy="1898" r="18" style="stroke-width:5;fill:gray;fill-opacity:0.3"/>
<circle cx="1265" cy="761" r="15" style="stroke-width:5;fill:gray;fill-opacity:0.3"/>
<circle cx="251" cy="1532" r="60" style="stroke-width:5;fill:gray;fill-opacity:0.3"/>
<circle cx="2007" cy="2093" r="77" style="stroke-width:5;fill:gray;fill-opacity:0.3"/>
<circle cx="667" cy="184" r="52" style="stroke-width:5;fill:gray;fill-opacity:0.3"/>
<circle cx="471" cy="1890" r="15" style="stroke-width:5;fill:gray;fill-opacity:0.3"/>
<circle cx="2631" cy="1957" r="45" style="stroke-width:5;fill:gray;fill-opacity:0.3"/>
<circle cx="2125" cy="612" r="10" style="stroke-width:5;fill:gray;fill-opacity:0.3"/>
<circle cx="1412" cy="1811" r="6" style="stroke-width:5;fill:gray;fill-opacity:0.3"/>
<circle cx="1095" cy="764" r="32" style="stroke-width:5;fill:gray;fill-opacity:0.3"/>
<circle cx="2470" cy="1187" r="25" style="stroke-width:5;fill:gray;fill-opacity:0.3"/>
<circle cx="980" cy="1535" r="39" style="stroke-width:5;fill:gray;fill-opacity:0.3"/>
<circle cx="748" cy="1134" r="79" style="stroke-width:5;fill:gray;fill-opacity:0.3"/>
<circle cx="2521" cy="1460" r="29" style="stroke-width:5;fill:gray;fill-opacity:0.3"/>
<circle cx="2323" cy="797" r="35" style="stroke-width:5;fill:gray;fill-opacity:0.3"/>
<circle cx="929" cy="2374" r="78" style="stroke-width:5;fill:gray;fill-opacity:0.3"/>
<circle cx="478" cy="1265" r="47" style="stroke-width:5;fill:gray;fill-opacity:0.3"/>
<circle cx="63" cy="1606" r="36" style="stroke-width:5;fill:gray;fill-opacity:0.3"/>
<circle cx="2959" cy="1413" r="62" style="stroke-width:5;fill:gray;fill-opacity:0.3"/>
<circle cx="2964" cy="1373" r="15" style="stroke-width:5;fill:gray;fill-opacity:0.3"/>
<circle cx="1832" cy="1200" r="74" style="stroke-width:5;fill:gray;fill-opacity:0.3"/>
<circle cx="2449" cy="1315" r="6" style="stroke-width:5;fill:gray;fill-opacity:0.3"/>
<circle cx="829" cy="2225" r="67" style="stroke-width:5;fill:gray;fill-opacity:0.3"/>
<circle cx="1035" cy="2061" r="39" style="stroke-width:5;fill:gray;fill-opacity:0.3"/>
<circle cx="1334" cy="145" r="65" style="stroke-width:5;fill:gray;fill-opacity:0.3"/>
<circle cx="2659" cy="1287" r="56" style="stroke-width:5;fill:gray;fill-opacity:0.3"/>
<circle cx="923" cy="305" r="57" style="stroke-width:5;fill:gray;fill-opacity:0.3"/>
<circle cx="2827" cy="100" r="48" style="stroke-width:5;fill:gray;fill-opacity:0.3"/>
<circle cx="708" cy="637" r="22" style="stroke-width:5;fill:gray;fill-opacity:0.3"/>
<circle cx="1894" cy="537" r="63" style="stroke-width:5;fill:gray;fill-opacity:0.3"/>
<circle cx="1247" cy="2416" r="79" style="stroke-width:5;fill:gray;fill-opacity:0.3"/>
<circle cx="1013" cy="135" r="72" style="stroke-width:5;fill:gray;fill-opacity:0.3"/>
<circle cx="2434" cy="2392" r="14" style="stroke-width:5;fill:gray;fill-opacity:0.3"/>
<circle cx="1599" cy="1698" r="32" style="stroke-width:5;fill:gray;fill-opacity:0.3"/>
<circle cx="574" cy="1277" r="32" style="stroke-width:5;fill:gray;fill-opacity:0.3"/>
<circle cx="604" cy="229" r="65" style="stroke-width:5;fill:gray;fill-opacity:0.3"/>
<circle cx="1237" cy="1283" r="37" style="stroke-width:5;fill:gray;fill-opacity:0.3"/>
<circle cx="1588" cy="2331" r="77" style="stroke-width:5;fill:gray;fill-opacity:0.3"/>
<circle cx="140" cy="146" r="68" style="stroke-width:5;fill:gray;fill-opacity:0.3"/>
<circle cx="627" cy="469" r="21" style="stroke-width:5;fill:gray;fill-opacity:0.3"/>
<circle cx="2064" cy="1873" r="20" style="stroke-width:5;fill:gray;fill-opacity:0.3"/>
<circle cx="1222" cy="508" r="16" style="stroke-width:5;fill:gray;fill-opacity:0.3"/>
<circle cx="471" cy="2052" r="12" style="stroke-width:5;fill:gray;fill-opacity:0.3"/>
<circle cx="2802" cy="1333" r="5" style="stroke-width:5;fill:gray;fill-opacity:0.3"/>
<circle cx="2096" cy="2315" r="68" style="stroke-width:5;fill:gray;fill-opacity:0.3"/>
<circle cx="179" cy="671" r="21" style="stroke-width:5;fill:gray;fill-opacity:0.3"/>
<circle cx="588" cy="1712" r="66" style="stroke-width:5;fill:gray;fill-opacity:0.3"/>
<circle cx="920" cy="340" r="11" style="stroke-width:5;fill:gray;fill-opacity:0.3"/>
<circle cx="862" cy="882" r="12" style="stroke-width:5;fill:gray;fill-opacity:0.3"/>
<circle cx="1468" cy="383" r="67" style="stroke-width:5;fill:gray;fill-opacity:0.3"/>
<circle cx="2238" cy="2005" r="65" style="stroke-width:5;fill:gray;fill-opacity:0.3"/>
<circle cx="1432" cy="64" r="51" style="stroke-width:5;fill:gray;fill-opacity:0.3"/>
<circle cx="2021" cy="1173" r="68" style="stroke-width:5;fill:gray;fill-opacity:0.3"/>
<circle cx="2706" cy="1329" r="35" style="stroke-width:5;fill:gray;fill-opacity:0.3"/>
<circle cx="1450" cy="1438" r="48" style="stroke-width:5;fill:gray;fill-opacity:0.3"/>
<circle cx="2255" cy="1264" r="8" style="stroke-width:5;fill:gray;fill-opacity:0.3"/>
<circle cx="272" cy="1394" r="10" style="stroke-width:5;fill:gray;fill-opacity:0.3"/>
<circle cx="2655" cy="1075" r="11" style="stroke-width:5;fill:gray;fill-opacity:0.3"/>
<circle cx="2442" cy="605" r="37" style="stroke-width:5;fill:gray;fill-opacity:0.3"/>
<circle cx="605" cy="2017" r="79" style="stroke-width:5;fill:gray;fill-opacity:0.3"/>
<circle cx="229" cy="2062" r="49" style="stroke-width:5;fill:gray;fill-opacity:0.3"/>
<circle cx="2886" cy="996" r="76" style="stroke-width:5;fill:gray;fill-opacity:0.3"/>
</svg>