<svg viewBox="0 0 3303 2620" xmlns="http://www.w3.org/2000/svg">
<rect height="668" style="stroke:pink;stroke-width:10;fill:gray;fill-opacity:0.1;stroke-opacity:0.9" width="636" x="195" y="1827"/>
<circle cx="2846" cy="1218" r="5" style="fill:blue"/>
<circle cx="1601" cy="529" r="5" style="fill:blue"/>
<circle cx="1590" cy="1361" r="5" style="fill:blue"/>
<circle cx="374" cy="1692" r="5" style="fill:blue"/>
<circle cx="1648" cy="2027" r="5" style="fill:blue"/>
<circle cx="1439" cy="1566" r="5" style="fill:blue"/>
<circle cx="1436" cy="1825" r="5" style="fill:blue"/>
<circle cx="2054" cy="396" r="5" style="fill:blue"/>
<circle cx="1991" cy="56" r="5" style="fill:blue"/>
<circle cx="201" cy="512" r="5" style="fill:blue"/>
<circle cx="1836" cy="1225" r="5" style="fill:blue"/>
<circle cx="2807" cy="1966" r="5" style="fill:blue"/>
<circle cx="621" cy="1381" r="5" style="fill:blue"/>
<circle cx="2972" cy="1874" r="5" style="fill:blue"/>
<circle cx="411" cy="288" r="5" style="fill:blue"/>
<circle cx="258" cy="1530" r="5" style="fill:blue"/>
<circle cx="1210" cy="584" r="5" style="fill:blue"/>
<circle cx="1183" cy="764" r="5" style="fill:blue"/>
<circle cx="1793" cy="1821" r="5" style="fill:blue"/>
<circle cx="1796" cy="989" r="5" style="fill:blue"/>
<circle cx="325" cy="1430" r="5" style="fill:blue"/>
<circle cx="1930" cy="293" r="5" style="fill:blue"/>
<circle cx="1133" cy="1908" r="5" style="fill:blue"/>
<circle cx="2238" cy="2472" r="5" style="fill:blue"/>
<circle cx="853" cy="1400" r="5" style="fill:blue"/>
<circle cx="263" cy="823" r="5" style="fill:blue"/>
<circle cx="1061" cy="1309" r="5" style="fill:blue"/>
<circle cx="2696" cy="1668" r="5" style="fill:blue"/>
<circle cx="263" cy="407" r="5" style="fill:blue"/>
<circle cx="1406" cy="2225" r="5" style="fill:blue"/>
<circle cx="948" cy="2210" r="5" style="fill:blue"/>
<circle cx="1442" cy="2094" r="5" style="fill:blue"/>
<circle cx="706" cy="1308" r="5" style="fill:blue"/>
<circle cx="1088" cy="297" r="5" style="fill:blue"/>
<circle cx="513" cy="655" r="5" style="fill:blue"/>
<circle cx="2968" cy="283" r="5" style="fill:blue"/>
<circle cx="2014" cy="2100" r="5" style="fill:blue"/>
<circle cx="1798" cy="364" r="5" style="fill:blue"/>
<circle cx="2641" cy="474" r="5" style="fill:blue"/>
<circle cx="15" cy="1626" r="5" style="fill:blue"/>
<circle cx="2845" cy="17" r="5" style="fill:blue"/>
<circle cx="3220" cy="1309" r="5" style="fill:blue"/>
<circle cx="2472" cy="833" r="5" style="fill:blue"/>
<circle cx="1677" cy="549" r="5" style="fill:blue"/>
<circle cx="2383" cy="1248" r="5" style="fill:blue"/>
<circle cx="825" cy="226" r="5" style="fill:blue"/>
<circle cx="2528" cy="1819" r="5" style="fill:blue"/>
<circle cx="211" cy="2575" r="5" style="fill:blue"/>
<circle cx="2006" cy="1042" r="5" style="fill:blue"/>
<circle cx="2280" cy="1021" r="5" style="fill:blue"/>
<circle cx="2438" cy="2243" r="5" style="fill:blue"/>
<circle cx="183" cy="1362" r="5" style="fill:blue"/>
<circle cx="3122" cy="1804" r="5" style="fill:blue"/>
<circle cx="2799" cy="821" r="5" style="fill:blue"/>
<circle cx="900" cy="112" r="5" style="fill:blue"/>
<circle cx="2344" cy="1925" r="5" style="fill:blue"/>
<circle cx="884" cy="314" r="5" style="fill:blue"/>
<circle cx="602" cy="1170" r="5" style="fill:blue"/>
<circle cx="3075" cy="2190" r="5" style="fill:blue"/>
<circle cx="2760" cy="134" r="5" style="fill:blue"/>
<circle cx="2573" cy="1881" r="5" style="fill:blue"/>
<circle cx="2903" cy="308" r="5" style="fill:blue"/>
<circle cx="2871" cy="1761" r="5" style="fill:blue"/>
<circle cx="420" cy="143" r="5" style="fill:blue"/>
<circle cx="532" cy="527" r="5" style="fill:blue"/>
<circle cx="2905" cy="1631" r="5" style="fill:blue"/>
<circle cx="2222" cy="140" r="5" style="fill:blue"/>
<circle cx="255" cy="1420" r="5" style="fill:blue"/>
<circle cx="341" cy="404" r="5" style="fill:blue"/>
<circle cx="3219" cy="2388" r="5" style="fill:blue"/>
<circle cx="2089" cy="645" r="5" style="fill:blue"/>
<circle cx="1171" cy="557" r="5" style="fill:blue"/>
<circle cx="777" cy="671" r="5" style="fill:blue"/>
<circle cx="2496" cy="2021" r="5" style="fill:blue"/>
<circle cx="826" cy="558" r="5" style="fill:blue"/>
<circle cx="2982" cy="1185" r="5" style="fill:blue"/>
<circle cx="1438" cy="2181" r="5" style="fill:blue"/>
<circle cx="1568" cy="1340" r="5" style="fill:blue"/>
<circle cx="1308" cy="2055" r="5" style="fill:blue"/>
<circle cx="1303" cy="85" r="5" style="fill:blue"/>
<circle cx="1313" cy="1935" r="5" style="fill:blue"/>
<circle cx="1052" cy="1140" r="5" style="fill:blue"/>
<circle cx="1379" cy="638" r="5" style="fill:blue"/>
<circle cx="2831" cy="2448" r="5" style="fill:blue"/>
<circle cx="2870" cy="840" r="5" style="fill:blue"/>
<circle cx="1942" cy="2556" r="5" style="fill:blue"/>
<circle cx="275" cy="31" r="5" style="fill:blue"/>
<circle cx="2556" cy="1450" r="5" style="fill:blue"/>
<circle cx="1019" cy="862" r="5" style="fill:blue"/>
<circle cx="2665" cy="1904" r="5" style="fill:blue"/>
<circle cx="582" cy="85" r="5" style="fill:blue"/>
<circle cx="115" cy="2352" r="5" style="fill:blue"/>
<circle cx="1342" cy="2528" r="5" style="fill:blue"/>
<circle cx="518" cy="256" r="5" style="fill:blue"/>
<circle cx="895" cy="72" r="5" style="fill:blue"/>
<circle cx="2228" cy="2215" r="5" style="fill:blue"/>
<circle cx="383" cy="1382" r="5" style="fill:blue"/>
<circle cx="769" cy="1296" r="5" style="fill:blue"/>
<circle cx="2214" cy="2527" r="5" style="fill:blue"/>
<circle cx="581" cy="749" r="5" style="fill:blue"/>
<circle cx="339" cy="553" r="5" style="fill:blue"/>
<circle cx="2576" cy="2011" r="5" style="fill:blue"/>
<circle cx="437" cy="293" r="5" style="fill:blue"/>
<circle cx="543" cy="1131" r="5" style="fill:blue"/>
<circle cx="26" cy="2373" r="5" style="fill:blue"/>
<circle cx="1871" cy="434" r="5" style="fill:blue"/>
<circle cx="1602" cy="1183" r="5" style="fill:blue"/>
<circle cx="1222" cy="1471" r="5" style="fill:blue"/>
<circle cx="2920" cy="1492" r="5" style="fill:blue"/>
<circle cx="1929" cy="1034" r="5" style="fill:blue"/>
<circle cx="101" cy="422" r="5" style="fill:blue"/>
<circle cx="1773" cy="1855" r="5" style="fill:blue"/>
<circle cx="605" cy="1376" r="5" style="fill:blue"/>
<circle cx="2723" cy="1337" r="5" style="fill:blue"/>
<circle cx="3211" cy="1583" r="5" style="fill:blue"/>
<circle cx="1920" cy="2172" r="5" style="fill:blue"/>
<circle cx="2787" cy="1073" r="5" style="fill:blue"/>
<circle cx="310" cy="1526" r="5" style="fill:blue"/>
<circle cx="2163" cy="901" r="5" style="fill:blue"/>
<circle cx="3094" cy="637" r="5" style="fill:blue"/>
<circle cx="1171" cy="2476" r="5" style="fill:blue"/>
<circle cx="2148" cy="351" r="5" style="fill:blue"/>
<circle cx="1299" cy="876" r="5" style="fill:blue"/>
<circle cx="3289" cy="527" r="5" style="fill:blue"/>
<circle cx="2384" cy="1513" r="5" style="fill:blue"/>
<circle cx="696" cy="251" r="5" style="fill:blue"/>
<circle cx="2785" cy="1928" r="5" style="fill:blue"/>
<circle cx="3015" cy="2041" r="5" style="fill:blue"/>
<circle cx="684" cy="1425" r="5" style="fill:blue"/>
<circle cx="1233" cy="1008" r="5" style="fill:blue"/>
<circle cx="721" cy="1581" r="5" style="fill:blue"/>
<circle cx="1552" cy="2311" r="5" style="fill:blue"/>
<circle cx="324" cy="984" r="5" style="fill:blue"/>
<circle cx="2971" cy="695" r="5" style="fill:blue"/>
<circle cx="1625" cy="1973" r="5" style="fill:blue"/>
<circle cx="2738" cy="1805" r="5" style="fill:blue"/>
<circle cx="2365" cy="1346" r="5" style="fill:blue"/>
<circle cx="426" cy="306" r="5" style="fill:blue"/>
<circle cx="3228" cy="1958" r="5" style="fill:blue"/>
<circle cx="1255" cy="2049" r="5" style="fill:blue"/>
<circle cx="367" cy="1487" r="5" style="fill:blue"/>
<circle cx="1789" cy="676" r="5" style="fill:blue"/>
<circle cx="2033" cy="2206" r="5" style="fill:blue"/>
<circle cx="1804" cy="1976" r="5" style="fill:blue"/>
<circle cx="2765" cy="2268" r="5" style="fill:blue"/>
<circle cx="369" cy="2565" r="5" style="fill:blue"/>
<circle cx="1842" cy="2119" r="5" style="fill:blue"/>
<circle cx="2419" cy="2087" r="5" style="fill:blue"/>
<circle cx="1355" cy="2246" r="5" style="fill:blue"/>
<circle cx="3091" cy="2413" r="5" style="fill:blue"/>
<circle cx="3083" cy="799" r="5" style="fill:blue"/>
<circle cx="172" cy="2539" r="5" style="fill:blue"/>
<circle cx="1983" cy="2001" r="5" style="fill:blue"/>
<circle cx="2804" cy="2534" r="5" style="fill:blue"/>
<circle cx="1323" cy="571" r="5" style="fill:blue"/>
<circle cx="2092" cy="1248" r="5" style="fill:blue"/>
<circle cx="243" cy="136" r="5" style="fill:blue"/>
<circle cx="1525" cy="1041" r="5" style="fill:blue"/>
<circle cx="1026" cy="2262" r="5" style="fill:blue"/>
<circle cx="2232" cy="1061" r="5" style="fill:blue"/>
<circle cx="2869" cy="1509" r="5" style="fill:blue"/>
<circle cx="882" cy="1095" r="5" style="fill:blue"/>
<circle cx="888" cy="1074" r="5" style="fill:blue"/>
<circle cx="1223" cy="662" r="5" style="fill:blue"/>
<circle cx="307" cy="143" r="5" style="fill:blue"/>
<circle cx="946" cy="2080" r="5" style="fill:blue"/>
<circle cx="2383" cy="596" r="5" style="fill:blue"/>
<circle cx="1664" cy="457" r="5" style="fill:blue"/>
<circle cx="1700" cy="228" r="5" style="fill:blue"/>
<circle cx="2131" cy="2216" r="5" style="fill:blue"/>
<circle cx="2432" cy="2511" r="5" style="fill:blue"/>
<circle cx="410" cy="2575" r="5" style="fill:blue"/>
<circle cx="3132" cy="1621" r="5" style="fill:blue"/>
<circle cx="3083" cy="1457" r="5" style="fill:blue"/>
<circle cx="1108" cy="337" r="5" style="fill:blue"/>
<circle cx="1626" cy="2063" r="5" style="fill:blue"/>
<circle cx="2633" cy="1745" r="5" style="fill:blue"/>
<circle cx="1190" cy="2215" r="5" style="fill:blue"/>
<circle cx="16" cy="1691" r="5" style="fill:blue"/>
<circle cx="2336" cy="1902" r="5" style="fill:blue"/>
<circle cx="2233" cy="1793" r="5" style="fill:blue"/>
<circle cx="871" cy="351" r="5" style="fill:blue"/>
<circle cx="2456" cy="1829" r="5" style="fill:blue"/>
<circle cx="232" cy="597" r="5" style="fill:blue"/>
<circle cx="2209" cy="1616" r="5" style="fill:blue"/>
<circle cx="3186" cy="2315" r="5" style="fill:blue"/>
<circle cx="617" cy="424" r="5" style="fill:blue"/>
<circle cx="2019" cy="850" r="5" style="fill:blue"/>
<circle cx="330" cy="972" r="5" style="fill:blue"/>
<circle cx="81" cy="2207" r="5" style="fill:blue"/>
<circle cx="1540" cy="2106" r="5" style="fill:blue"/>
<circle cx="57" cy="1547" r="5" style="fill:blue"/>
<circle cx="24" cy="370" r="5" style="fill:blue"/>
<circle cx="2098" cy="2267" r="5" style="fill:blue"/>
<circle cx="994" cy="1407" r="5" style="fill:blue"/>
<circle cx="776" cy="96" r="5" style="fill:blue"/>
<circle cx="643" cy="524" r="5" style="fill:blue"/>
<circle cx="1021" cy="614" r="5" style="fill:blue"/>
<circle cx="1773" cy="462" r="5" style="fill:blue"/>
<circle cx="1407" cy="1672" r="5" style="fill:blue"/>
<circle cx="2667" cy="2139" r="5" style="fill:blue"/>
<circle cx="1740" cy="1244" r="5" style="fill:blue"/>
<circle cx="1056" cy="632" r="5" style="fill:blue"/>
<circle cx="2861" cy="812" r="5" style="fill:blue"/>
<circle cx="2828" cy="486" r="5" style="fill:blue"/>
<circle cx="323" cy="1112" r="5" style="fill:blue"/>
<circle cx="1758" cy="1544" r="5" style="fill:blue"/>
<circle cx="2741" cy="1819" r="5" style="fill:blue"/>
<circle cx="2402" cy="1264" r="5" style="fill:blue"/>
<circle cx="2924" cy="2612" r="5" style="fill:blue"/>
<circle cx="2073" cy="1655" r="5" style="fill:blue"/>
<circle cx="1670" cy="2579" r="5" style="fill:blue"/>
<circle cx="1752" cy="7" r="5" style="fill:blue"/>
<circle cx="1785" cy="2602" r="5" style="fill:blue"/>
<circle cx="2498" cy="56" r="5" style="fill:blue"/>
<circle cx="1864" cy="1296" r="5" style="fill:blue"/>
<circle cx="1438" cy="2566" r="5" style="fill:blue"/>
<circle cx="2380" cy="1586" r="5" style="fill:blue"/>
<circle cx="2599" cy="973" r="5" style="fill:blue"/>
<circle cx="2584" cy="1172" r="5" style="fill:blue"/>
<circle cx="1208" cy="1935" r="5" style="fill:blue"/>
<circle cx="1575" cy="908" r="5" style="fill:blue"/>
<circle cx="2554" cy="704" r="5" style="fill:blue"/>
<circle cx="3098" cy="1799" r="5" style="fill:blue"/>
<circle cx="3171" cy="1159" r="5" style="fill:blue"/>
<circle cx="918" cy="1958" r="5" style="fill:blue"/>
<circle cx="631" cy="419" r="5" style="fill:blue"/>
<circle cx="1434" cy="413" r="5" style="fill:blue"/>
<circle cx="3251" cy="1785" r="5" style="fill:blue"/>
<circle cx="1004" cy="2026" r="5" style="fill:blue"/>
<circle cx="648" cy="1387" r="5" style="fill:blue"/>
<circle cx="1174" cy="1001" r="5" style="fill:blue"/>
<circle cx="1414" cy="2203" r="5" style="fill:blue"/>
<circle cx="1967" cy="1507" r="5" style="fill:blue"/>
<circle cx="439" cy="1195" r="5" style="fill:blue"/>
<circle cx="1712" cy="1748" r="5" style="fill:blue"/>
<circle cx="1895" cy="625" r="5" style="fill:blue"/>
<circle cx="1663" cy="884" r="5" style="fill:blue"/>
<circle cx="2038" cy="873" r="5" style="fill:blue"/>
<circle cx="699" cy="1749" r="5" style="fill:blue"/>
<circle cx="1731" cy="319" r="5" style="fill:blue"/>
<circle cx="694" cy="657" r="5" style="fill:blue"/>
<circle cx="1236" cy="1892" r="5" style="fill:blue"/>
<circle cx="1789" cy="1737" r="5" style="fill:blue"/>
<circle cx="1953" cy="1647" r="5" style="fill:blue"/>
<circle cx="518" cy="76" r="5" style="fill:blue"/>
<circle cx="2278" cy="2298" r="5" style="fill:blue"/>
<circle cx="1673" cy="2076" r="5" style="fill:blue"/>
<circle cx="2939" cy="2568" r="5" style="fill:blue"/>
<circle cx="1418" cy="2216" r="5" style="fill:blue"/>
<circle cx="1476" cy="1805" r="5" style="fill:blue"/>
<circle cx="897" cy="193" r="5" style="fill:blue"/>
<circle cx="202" cy="1373" r="5" style="fill:blue"/>
<circle cx="184" cy="1030" r="5" style="fill:blue"/>
<circle cx="889" cy="129" r="5" style="fill:blue"/>
<circle cx="199" cy="1775" r="5" style="fill:blue"/>
<circle cx="1835" cy="1715" r="5" style="fill:blue"/>
<circle cx="852" cy="1071" r="5" style="fill:blue"/>
<circle cx="3096" cy="2200" r="5" style="fill:blue"/>
<circle cx="1375" cy="2300" r="5" style="fill:blue"/>
<circle cx="2409" cy="1214" r="5" style="fill:blue"/>
<circle cx="1097" cy="1505" r="5" style="fill:blue"/>
<circle cx="2485" cy="2488" r="5" style="fill:blue"/>
<circle cx="266" cy="698" r="5" style="fill:blue"/>
<circle cx="1992" cy="1840" r="5" style="fill:blue"/>
<circle cx="2910" cy="1303" r="5" style="fill:blue"/>
<circle cx="1306" cy="1798" r="5" style="fill:blue"/>
<circle cx="1310" cy="1690" r="5" style="fill:blue"/>
<circle cx="1161" cy="2402" r="5" style="fill:blue"/>
<circle cx="2807" cy="1919" r="5" style="fill:blue"/>
<circle cx="2476" cy="45" r="5" style="fill:blue"/>
<circle cx="2093" cy="52" r="5" style="fill:blue"/>
<circle cx="1845" cy="1851" r="5" style="fill:blue"/>
<circle cx="2093" cy="2061" r="5" style="fill:blue"/>
<circle cx="697" cy="268" r="5" style="fill:blue"/>
<circle cx="193" cy="849" r="5" style="fill:blue"/>
<circle cx="729" cy="2551" r="5" style="fill:blue"/>
<circle cx="1554" cy="864" r="5" style="fill:blue"/>
<circle cx="2883" cy="582" r="5" style="fill:blue"/>
<circle cx="2470" cy="2472" r="5" style="fill:blue"/>
<circle cx="1697" cy="230" r="5" style="fill:blue"/>
<circle cx="2250" cy="1144" r="5" style="fill:blue"/>
<circle cx="317" cy="579" r="5" style="fill:blue"/>
<circle cx="2654" cy="1504" r="5" style="fill:blue"/>
<circle cx="2310" cy="687" r="5" style="fill:blue"/>
<circle cx="835" cy="974" r="5" style="fill:blue"/>
<circle cx="1551" cy="163" r="5" style="fill:blue"/>
<circle cx="1370" cy="623" r="5" style="fill:blue"/>
<circle cx="1979" cy="215" r="5" style="fill:blue"/>
<circle cx="562" cy="1178" r="5" style="fill:blue"/>
<circle cx="135" cy="1476" r="5" style="fill:blue"/>
<circle cx="1281" cy="1915" r="5" style="fill:blue"/>
<circle cx="1418" cy="199" r="5" style="fill:blue"/>
<circle cx="287" cy="1572" r="5" style="fill:blue"/>
<circle cx="1214" cy="896" r="5" style="fill:blue"/>
<circle cx="1404" cy="1557" r="5" style="fill:blue"/>
<circle cx="19" cy="2181" r="5" style="fill:blue"/>
<circle cx="413" cy="209" r="5" style="fill:blue"/>
<circle cx="261" cy="127" r="5" style="fill:blue"/>
<circle cx="2151" cy="1793" r="5" style="fill:blue"/>
<circle cx="2046" cy="1384" r="5" style="fill:blue"/>
<circle cx="2810" cy="1514" r="5" style="fill:blue"/>
<circle cx="1124" cy="852" r="5" style="fill:blue"/>
<circle cx="3294" cy="326" r="5" style="fill:blue"/>
<circle cx="734" cy="555" r="5" style="fill:blue"/>
<circle cx="174" cy="455" r="5" style="fill:blue"/>
<circle cx="2252" cy="2470" r="5" style="fill:blue"/>
<circle cx="2254" cy="1583" r="5" style="fill:blue"/>
<circle cx="215" cy="133" r="5" style="fill:blue"/>
<circle cx="1072" cy="963" r="5" style="fill:blue"/>
<circle cx="1610" cy="361" r="5" style="fill:blue"/>
<circle cx="1339" cy="558" r="5" style="fill:blue"/>
<circle cx="285" cy="1364" r="5" style="fill:blue"/>
<circle cx="3093" cy="2541" r="5" style="fill:blue"/>
<circle cx="2957" cy="2572" r="5" style="fill:blue"/>
<circle cx="2792" cy="1527" r="5" style="fill:blue"/>
<circle cx="43" cy="1594" r="5" style="fill:blue"/>
<circle cx="1470" cy="1623" r="5" style="fill:blue"/>
<circle cx="2484" cy="1294" r="5" style="fill:blue"/>
<circle cx="2570" cy="238" r="5" style="fill:blue"/>
<circle cx="2563" cy="1110" r="5" style="fill:blue"/>
<circle cx="1321" cy="1062" r="5" style="fill:blue"/>
<circle cx="3006" cy="1297" r="5" style="fill:blue"/>
<circle cx="1811" cy="770" r="5" style="fill:blue"/>
<circle cx="3161" cy="1568" r="5" style="fill:blue"/>
<circle cx="1556" cy="2500" r="5" style="fill:blue"/>
<circle cx="1107" cy="2154" r="5" style="fill:blue"/>
<circle cx="1940" cy="2078" r="5" style="fill:blue"/>
<circle cx="2910" cy="213" r="5" style="fill:blue"/>
<circle cx="1801" cy="1072" r="5" style="fill:blue"/>
<circle cx="2386" cy="55" r="5" style="fill:blue"/>
<circle cx="3104" cy="2184" r="5" style="fill:blue"/>
<circle cx="408" cy="998" r="5" style="fill:blue"/>
<circle cx="210" cy="1151" r="5" style="fill:blue"/>
<circle cx="554" cy="207" r="5" style="fill:blue"/>
<circle cx="1818" cy="1477" r="5" style="fill:blue"/>
<circle cx="3004" cy="129" r="5" style="fill:blue"/>
<circle cx="2964" cy="576" r="5" style="fill:blue"/>
<circle cx="2605" cy="1158" r="5" style="fill:blue"/>
<circle cx="351" cy="1226" r="5" style="fill:blue"/>
<circle cx="1722" cy="2379" r="5" style="fill:blue"/>
<circle cx="336" cy="1566" r="5" style="fill:blue"/>
<circle cx="1615" cy="2338" r="5" style="fill:blue"/>
<circle cx="192" cy="2522" r="5" style="fill:blue"/>
<circle cx="1250" cy="1812" r="5" style="fill:blue"/>
<circle cx="1522" cy="2354" r="5" style="fill:blue"/>
<circle cx="2492" cy="1137" r="5" style="fill:blue"/>
<circle cx="81" cy="485" r="5" style="fill:blue"/>
<circle cx="1004" cy="453" r="5" style="fill:blue"/>
<circle cx="1659" cy="1510" r="5" style="fill:blue"/>
<circle cx="701" cy="149" r="5" style="fill:blue"/>
<circle cx="1155" cy="1574" r="5" style="fill:blue"/>
<circle cx="1109" cy="140" r="5" style="fill:blue"/>
<circle cx="3211" cy="1591" r="5" style="fill:blue"/>
<circle cx="1332" cy="2020" r="5" style="fill:blue"/>
<circle cx="3034" cy="2522" r="5" style="fill:blue"/>
<circle cx="1169" cy="2308" r="5" style="fill:blue"/>
<circle cx="1872" cy="1254" r="5" style="fill:blue"/>
<circle cx="828" cy="417" r="5" style="fill:blue"/>
<circle cx="1248" cy="425" r="5" style="fill:blue"/>
<circle cx="2097" cy="616" r="5" style="fill:blue"/>
<circle cx="93" cy="2443" r="5" style="fill:blue"/>
<circle cx="414" cy="296" r="5" style="fill:blue"/>
<circle cx="2671" cy="2190" r="5" style="fill:blue"/>
<circle cx="102" cy="1037" r="5" style="fill:blue"/>
<circle cx="803" cy="1401" r="5" style="fill:blue"/>
<circle cx="1103" cy="2335" r="5" style="fill:blue"/>
<circle cx="651" cy="64" r="5" style="fill:blue"/>
<circle cx="2303" cy="2505" r="5" style="fill:blue"/>
<circle cx="2510" cy="1986" r="5" style="fill:blue"/>
<circle cx="2872" cy="63" r="5" style="fill:blue"/>
<circle cx="642" cy="400" r="5" style="fill:blue"/>
<circle cx="3281" cy="2404" r="5" style="fill:blue"/>
<circle cx="1683" cy="1674" r="5" style="fill:blue"/>
<circle cx="2754" cy="1465" r="5" style="fill:blue"/>
<circle cx="3262" cy="1584" r="5" style="fill:blue"/>
<circle cx="1729" cy="1050" r="5" style="fill:blue"/>
<circle cx="3028" cy="317" r="5" style="fill:blue"/>
<circle cx="2346" cy="2275" r="5" style="fill:blue"/>
<circle cx="1633" cy="1339" r="5" style="fill:blue"/>
<circle cx="2904" cy="1756" r="5" style="fill:blue"/>
<circle cx="118" cy="2093" r="5" style="fill:blue"/>
<circle cx="254" cy="1738" r="5" style="fill:blue"/>
<circle cx="2725" cy="2534" r="5" style="fill:blue"/>
<circle cx="2923" cy="932" r="5" style="fill:blue"/>
<circle cx="2838" cy="2243" r="5" style="fill:blue"/>
<circle cx="309" cy="1100" r="5" style="fill:blue"/>
<circle cx="1674" cy="2455" r="5" style="fill:blue"/>
<circle cx="2036" cy="1183" r="5" style="fill:blue"/>
<circle cx="918" cy="1950" r="5" style="fill:blue"/>
<circle cx="1295" cy="2504" r="5" style="fill:blue"/>
<circle cx="1083" cy="2011" r="5" style="fill:blue"/>
<circle cx="1494" cy="1572" r="5" style="fill:blue"/>
<circle cx="2895" cy="2224" r="5" style="fill:blue"/>
<circle cx="149" cy="142" r="5" style="fill:blue"/>
<circle cx="2148" cy="714" r="5" style="fill:blue"/>
<circle cx="499" cy="382" r="5" style="fill:blue"/>
<circle cx="1728" cy="1149" r="5" style="fill:blue"/>
<circle cx="2972" cy="2005" r="5" style="fill:blue"/>
<circle cx="441" cy="2582" r="5" style="fill:blue"/>
<circle cx="1012" cy="1379" r="33" style="stroke-width:5;fill:gray;fill-opacity:0.3"/>
<circle cx="671" cy="879" r="63" style="stroke-width:5;fill:gray;fill-opacity:0.3"/>
<circle cx="768" cy="1462" r="56" style="stroke-width:5;fill:gray;fill-opacity:0.3"/>
<circle cx="2505" cy="2193" r="33" style="stroke-width:5;fill:gray;fill-opacity:0.3"/>
<circle cx="1258" cy="316" r="8" style="stroke-width:5;fill:gray;fill-opacity:0.3"/>
<circle cx="1408" cy="247" r="32" style="stroke-width:5;fill:gray;fill-opacity:0.3"/>
<circle cx="2561" cy="68" r="48" style="stroke-width:5;fill:gray;fill-opacity:0.3"/>
<circle cx="1905" cy="2590" r="30" style="stroke-width:5;fill:gray;fill-opacity:0.3"/>
<circle cx="2462" cy="1049" r="62" style="stroke-width:5;fill:gray;fill-opacity:0.3"/>
<circle cx="2919" cy="2325" r="56" style="stroke-width:5;fill:gray;fill-opacity:0.3"/>
<circle cx="2833" cy="324" r="66" style="stroke-width:5;fill:gray;fill-opacity:0.3"/>
<circle cx="1881" cy="2375" r="46" style="stroke-width:5;fill:gray;fill-opacity:0.3"/>
<circle cx="2167" cy="2030" r="67" style="stroke-width:5;fill:gray;fill-opacity:0.3"/>
<circle cx="1941" cy="1731" r="34" style="stroke-width:5;fill:gray;fill-opacity:0.3"/>
<circle cx="1650" cy="1425" r="30" style="stroke-width:5;fill:gray;fill-opacity:0.3"/>
<circle cx="3281" cy="286" r="21" style="stroke-width:5;fill:gray;fill-opacity:0.3"/>
<circle cx="2255" cy="1889" r="49" style="stroke-width:5;fill:gray;fill-opacity:0.3"/>
<circle cx="829" cy="1295" r="58" style="stroke-width:5;fill:gray;fill-opacity:0.3"/>
<circle cx="365" cy="1215" r="12" style="stroke-width:5;fill:gray;fill-opacity:0.3"/>
<circle cx="1234" cy="1236" r="75" style="stroke-width:5;fill:gray;fill-opacity:0.3"/>
<circle cx="1940" cy="846" r="67" style="stroke-width:5;fill:gray;fill-opacity:0.3"/>
<circle cx="1028" cy="1099" r="37" style="stroke-width:5;fill:gray;fill-opacity:0.3"/>
<circle cx="1043" cy="1534" r="34" style="stroke-width:5;fill:gray;fill-opacity:0.3"/>
<circle cx="431" cy="774" r="76" style="stroke-width:5;fill:gray;fill-opacity:0.3"/>
<circle cx="2742" cy="549" r="29" style="stroke-width:5;fill:gray;fill-opacity:0.3"/>
<circle cx="901" cy="1677" r="72" style="stroke-width:5;fill:gray;fill-opacity:0.3"/>
<circle cx="2750" cy="1213" r="32" style="stroke-width:5;fill:gray;fill-opacity:0.3"/>
<circle cx="2462" cy="1530" r="68" style="stroke-width:5;fill:gray;fill-opacity:0.3"/>
<circle cx="2167" cy="1221" r="21" style="stroke-width:5;fill:gray;fill-opacity:0.3"/>
<circle cx="1389" cy="1796" r="25" style="stroke-width:5;fill:gray;fill-opacity:0.3"/>
<circle cx="860" cy="1166" r="32" style="stroke-width:5;fill:gray;fill-opacity:0.3"/>
<circle cx="1025" cy="467" r="14" style="stroke-width:5;fill:gray;fill-opacity:0.3"/>
</svg>