<svg viewBox="0 0 5135 8578" xmlns="http://www.w3.org/2000/svg">
<rect height="720" style="stroke:pink;stroke-width:10;fill:gray;fill-opacity:0.1;stroke-opacity:0.9" width="1263" x="1792" y="5475"/>
<circle cx="1186" cy="5108" r="5" style="fill:blue"/>
<circle cx="105" cy="1324" r="5" style="fill:blue"/>
<circle cx="2702" cy="617" r="5" style="fill:blue"/>
<circle cx="3650" cy="2150" r="5" style="fill:blue"/>
<circle cx="2190" cy="2109" r="5" style="fill:blue"/>
<circle cx="2054" cy="1225" r="5" style="fill:blue"/>
<circle cx="4286" cy="7114" r="5" style="fill:blue"/>
<circle cx="2651" cy="4168" r="5" style="fill:blue"/>
<circle cx="2545" cy="3108" r="5" style="fill:blue"/>
<circle cx="892" cy="157" r="5" style="fill:blue"/>
<circle cx="2262" cy="6688" r="5" style="fill:blue"/>
<circle cx="483" cy="7211" r="5" style="fill:blue"/>
<circle cx="3887" cy="6238" r="5" style="fill:blue"/>
<circle cx="4136" cy="302" r="5" style="fill:blue"/>
<circle cx="2872" cy="1897" r="5" style="fill:blue"/>
<circle cx="1257" cy="1063" r="5" style="fill:blue"/>
<circle cx="1544" cy="4893" r="5" style="fill:blue"/>
<circle cx="2811" cy="546" r="5" style="fill:blue"/>
<circle cx="744" cy="6428" r="5" style="fill:blue"/>
<circle cx="387" cy="4418" r="5" style="fill:blue"/>
<circle cx="3084" cy="4245" r="5" style="fill:blue"/>
<circle cx="2765" cy="4920" r="5" style="fill:blue"/>
<circle cx="521" cy="1478" r="5" style="fill:blue"/>
<circle cx="1213" cy="5884" r="5" style="fill:blue"/>
<circle cx="114" cy="2084" r="5" style="fill:blue"/>
<circle cx="4418" cy="2560" r="5" style="fill:blue"/>
<circle cx="717" cy="2478" r="5" style="fill:blue"/>
<circle cx="4339" cy="738" r="5" style="fill:blue"/>
<circle cx="4645" cy="282" r="5" style="fill:blue"/>
<circle cx="4783" cy="7955" r="5" style="fill:blue"/>
<circle cx="2460" cy="7151" r="5" style="fill:blue"/>
<circle cx="3457" cy="609" r="5" style="fill:blue"/>
<circle cx="4292" cy="2036" r="5" style="fill:blue"/>
<circle cx="3630" cy="2649" r="5" style="fill:blue"/>
<circle cx="2877" cy="8492" r="5" style="fill:blue"/>
<circle cx="432" cy="2166" r="5" style="fill:blue"/>
<circle cx="2601" cy="2703" r="5" style="fill:blue"/>
<circle cx="1010" cy="6561" r="5" style="fill:blue"/>
<circle cx="1494" cy="7578" r="5" style="fill:blue"/>
<circle cx="2431" cy="5189" r="5" style="fill:blue"/>
<circle cx="4958" cy="8076" r="5" style="fill:blue"/>
<circle cx="2823" cy="4636" r="5" style="fill:blue"/>
<circle cx="3584" cy="6947" r="5" style="fill:blue"/>
<circle cx="463" cy="575" r="5" style="fill:blue"/>
<circle cx="2081" cy="2654" r="5" style="fill:blue"/>
<circle cx="153" cy="4955" r="5" style="fill:blue"/>
<circle cx="1063" cy="1766" r="5" style="fill:blue"/>
<circle cx="3305" cy="6530" r="5" style="fill:blue"/>
<circle cx="4945" cy="7506" r="5" style="fill:blue"/>
<circle cx="3848" cy="5559" r="5" style="fill:blue"/>
<circle cx="3933" cy="296" r="5" style="fill:blue"/>
<circle cx="990" cy="7277" r="5" style="fill:blue"/>
<circle cx="2252" cy="812" r="5" style="fill:blue"/>
<circle cx="318" cy="5871" r="5" style="fill:blue"/>
<circle cx="3252" cy="6694" r="5" style="fill:blue"/>
<circle cx="521" cy="7263" r="5" style="fill:blue"/>
<circle cx="1458" cy="3743" r="5" style="fill:blue"/>
<circle cx="1982" cy="4004" r="5" style="fill:blue"/>
<circle cx="3418" cy="2535" r="5" style="fill:blue"/>
<circle cx="4442" cy="1507" r="5" style="fill:blue"/>
<circle cx="5101" cy="7925" r="5" style="fill:blue"/>
<circle cx="4557" cy="465" r="5" style="fill:blue"/>
<circle cx="583" cy="6786" r="5" style="fill:blue"/>
<circle cx="5073" cy="2034" r="5" style="fill:blue"/>
<circle cx="2883" cy="2606" r="5" style="fill:blue"/>
<circle cx="4602" cy="6512" r="5" style="fill:blue"/>
<circle cx="1511" cy="5947" r="5" style="fill:blue"/>
<circle cx="1074" cy="7674" r="5" style="fill:blue"/>
<circle cx="671" cy="5008" r="5" style="fill:blue"/>
<circle cx="1061" cy="5318" r="5" style="fill:blue"/>
<circle cx="3892" cy="1715" r="5" style="fill:blue"/>
<circle cx="897" cy="5131" r="5" style="fill:blue"/>
<circle cx="2594" cy="3639" r="5" style="fill:blue"/>
<circle cx="4262" cy="4304" r="5" style="fill:blue"/>
<circle cx="2462" cy="2265" r="5" style="fill:blue"/>
<circle cx="4464" cy="4868" r="5" style="fill:blue"/>
<circle cx="1760" cy="1520" r="5" style="fill:blue"/>
<circle cx="2519" cy="6978" r="5" style="fill:blue"/>
<circle cx="4539" cy="7294" r="5" style="fill:blue"/>
<circle cx="5122" cy="6328" r="5" style="fill:blue"/>
<circle cx="3790" cy="2779" r="5" style="fill:blue"/>
<circle cx="2865" cy="2575" r="5" style="fill:blue"/>
<circle cx="451" cy="3716" r="5" style="fill:blue"/>
<circle cx="486" cy="7398" r="5" style="fill:blue"/>
<circle cx="4493" cy="6262" r="5" style="fill:blue"/>
<circle cx="1814" cy="7660" r="5" style="fill:blue"/>
<circle cx="4096" cy="620" r="5" style="fill:blue"/>
<circle cx="2938" cy="7503" r="5" style="fill:blue"/>
<circle cx="3061" cy="177" r="5" style="fill:blue"/>
<circle cx="1905" cy="1306" r="5" style="fill:blue"/>
<circle cx="4043" cy="8107" r="5" style="fill:blue"/>
<circle cx="5118" cy="3570" r="5" style="fill:blue"/>
<circle cx="4778" cy="984" r="5" style="fill:blue"/>
<circle cx="1687" cy="533" r="5" style="fill:blue"/>
<circle cx="3076" cy="5457" r="5" style="fill:blue"/>
<circle cx="2754" cy="4017" r="5" style="fill:blue"/>
<circle cx="2215" cy="6259" r="5" style="fill:blue"/>
<circle cx="4514" cy="6430" r="5" style="fill:blue"/>
<circle cx="801" cy="44" r="5" style="fill:blue"/>
<circle cx="3023" cy="7976" r="5" style="fill:blue"/>
<circle cx="906" cy="1746" r="5" style="fill:blue"/>
<circle cx="1963" cy="556" r="5" style="fill:blue"/>
<circle cx="613" cy="4772" r="5" style="fill:blue"/>
<circle cx="2060" cy="4074" r="5" style="fill:blue"/>
<circle cx="3551" cy="1982" r="5" style="fill:blue"/>
<circle cx="1798" cy="1225" r="5" style="fill:blue"/>
<circle cx="1392" cy="6839" r="5" style="fill:blue"/>
<circle cx="3250" cy="6552" r="5" style="fill:blue"/>
<circle cx="1272" cy="6709" r="5" style="fill:blue"/>
<circle cx="1225" cy="4669" r="5" style="fill:blue"/>
<circle cx="4364" cy="1914" r="5" style="fill:blue"/>
<circle cx="281" cy="4031" r="5" style="fill:blue"/>
<circle cx="3103" cy="353" r="5" style="fill:blue"/>
<circle cx="3823" cy="324" r="5" style="fill:blue"/>
<circle cx="4791" cy="3876" r="5" style="fill:blue"/>
<circle cx="168" cy="2664" r="5" style="fill:blue"/>
<circle cx="2359" cy="4047" r="5" style="fill:blue"/>
<circle cx="2852" cy="760" r="5" style="fill:blue"/>
<circle cx="3196" cy="2972" r="5" style="fill:blue"/>
<circle cx="3972" cy="343" r="5" style="fill:blue"/>
<circle cx="5047" cy="3941" r="5" style="fill:blue"/>
<circle cx="2118" cy="322" r="5" style="fill:blue"/>
<circle cx="4444" cy="4145" r="5" style="fill:blue"/>
<circle cx="3693" cy="1977" r="5" style="fill:blue"/>
<circle cx="1224" cy="6735" r="5" style="fill:blue"/>
<circle cx="3136" cy="4793" r="5" style="fill:blue"/>
<circle cx="954" cy="2435" r="5" style="fill:blue"/>
<circle cx="42" cy="4224" r="5" style="fill:blue"/>
<circle cx="3614" cy="5525" r="5" style="fill:blue"/>
<circle cx="368" cy="7839" r="5" style="fill:blue"/>
<circle cx="1955" cy="3927" r="5" style="fill:blue"/>
<circle cx="2254" cy="8024" r="5" style="fill:blue"/>
<circle cx="83" cy="3771" r="5" style="fill:blue"/>
<circle cx="4875" cy="8337" r="5" style="fill:blue"/>
<circle cx="2696" cy="4277" r="5" style="fill:blue"/>
<circle cx="1913" cy="8451" r="5" style="fill:blue"/>
<circle cx="3741" cy="1195" r="5" style="fill:blue"/>
<circle cx="3426" cy="1181" r="5" style="fill:blue"/>
<circle cx="1499" cy="1577" r="5" style="fill:blue"/>
<circle cx="536" cy="219" r="5" style="fill:blue"/>
<circle cx="421" cy="5967" r="5" style="fill:blue"/>
<circle cx="5009" cy="5053" r="5" style="fill:blue"/>
<circle cx="3491" cy="7646" r="5" style="fill:blue"/>
<circle cx="3785" cy="2579" r="5" style="fill:blue"/>
<circle cx="2677" cy="2152" r="5" style="fill:blue"/>
<circle cx="1512" cy="3290" r="5" style="fill:blue"/>
<circle cx="1290" cy="5773" r="5" style="fill:blue"/>
<circle cx="1120" cy="4406" r="5" style="fill:blue"/>
<circle cx="3435" cy="2364" r="5" style="fill:blue"/>
<circle cx="1450" cy="5016" r="5" style="fill:blue"/>
<circle cx="5041" cy="1175" r="5" style="fill:blue"/>
<circle cx="3062" cy="8367" r="5" style="fill:blue"/>
<circle cx="713" cy="6426" r="5" style="fill:blue"/>
<circle cx="4839" cy="2071" r="5" style="fill:blue"/>
<circle cx="1119" cy="7765" r="5" style="fill:blue"/>
<circle cx="1745" cy="3403" r="5" style="fill:blue"/>
<circle cx="3295" cy="4400" r="5" style="fill:blue"/>
<circle cx="2073" cy="4963" r="5" style="fill:blue"/>
<circle cx="2066" cy="6537" r="5" style="fill:blue"/>
<circle cx="3792" cy="8468" r="5" style="fill:blue"/>
<circle cx="1543" cy="7481" r="5" style="fill:blue"/>
<circle cx="3930" cy="7871" r="5" style="fill:blue"/>
<circle cx="4465" cy="6010" r="5" style="fill:blue"/>
<circle cx="1466" cy="4540" r="5" style="fill:blue"/>
<circle cx="2364" cy="7050" r="5" style="fill:blue"/>
<circle cx="4575" cy="4346" r="5" style="fill:blue"/>
<circle cx="3232" cy="5605" r="5" style="fill:blue"/>
<circle cx="3808" cy="4005" r="5" style="fill:blue"/>
<circle cx="294" cy="2981" r="5" style="fill:blue"/>
<circle cx="1907" cy="69" r="5" style="fill:blue"/>
<circle cx="1676" cy="8086" r="5" style="fill:blue"/>
<circle cx="1792" cy="7489" r="5" style="fill:blue"/>
<circle cx="3718" cy="6035" r="5" style="fill:blue"/>
<circle cx="2282" cy="4064" r="5" style="fill:blue"/>
<circle cx="3957" cy="2677" r="5" style="fill:blue"/>
<circle cx="1934" cy="3595" r="5" style="fill:blue"/>
<circle cx="4226" cy="6150" r="5" style="fill:blue"/>
<circle cx="1653" cy="8252" r="5" style="fill:blue"/>
<circle cx="3300" cy="6919" r="5" style="fill:blue"/>
<circle cx="2163" cy="1617" r="5" style="fill:blue"/>
<circle cx="4564" cy="7975" r="5" style="fill:blue"/>
<circle cx="1013" cy="3829" r="5" style="fill:blue"/>
<circle cx="3188" cy="3933" r="5" style="fill:blue"/>
<circle cx="1344" cy="741" r="5" style="fill:blue"/>
<circle cx="4163" cy="3590" r="5" style="fill:blue"/>
<circle cx="188" cy="8024" r="5" style="fill:blue"/>
<circle cx="1297" cy="5770" r="5" style="fill:blue"/>
<circle cx="3779" cy="4598" r="5" style="fill:blue"/>
<circle cx="2999" cy="1155" r="5" style="fill:blue"/>
<circle cx="1816" cy="3950" r="5" style="fill:blue"/>
<circle cx="2487" cy="3306" r="5" style="fill:blue"/>
<circle cx="371" cy="7792" r="5" style="fill:blue"/>
<circle cx="4062" cy="4500" r="5" style="fill:blue"/>
<circle cx="3880" cy="6355" r="5" style="fill:blue"/>
<circle cx="1160" cy="6447" r="5" style="fill:blue"/>
<circle cx="5043" cy="3071" r="5" style="fill:blue"/>
<circle cx="2322" cy="8402" r="5" style="fill:blue"/>
<circle cx="4061" cy="4697" r="5" style="fill:blue"/>
<circle cx="1201" cy="8052" r="5" style="fill:blue"/>
<circle cx="2538" cy="4162" r="5" style="fill:blue"/>
<circle cx="4772" cy="4421" r="5" style="fill:blue"/>
<circle cx="4183" cy="2460" r="5" style="fill:blue"/>
<circle cx="521" cy="8324" r="5" style="fill:blue"/>
<circle cx="2750" cy="507" r="5" style="fill:blue"/>
<circle cx="598" cy="7536" r="5" style="fill:blue"/>
<circle cx="4364" cy="5214" r="5" style="fill:blue"/>
<circle cx="3331" cy="791" r="5" style="fill:blue"/>
<circle cx="1573" cy="6862" r="5" style="fill:blue"/>
<circle cx="3140" cy="7354" r="5" style="fill:blue"/>
<circle cx="2713" cy="6298" r="5" style="fill:blue"/>
<circle cx="2566" cy="6265" r="5" style="fill:blue"/>
<circle cx="2418" cy="1908" r="5" style="fill:blue"/>
<circle cx="5041" cy="1320" r="5" style="fill:blue"/>
<circle cx="2438" cy="7032" r="5" style="fill:blue"/>
<circle cx="4169" cy="4802" r="5" style="fill:blue"/>
<circle cx="1388" cy="8260" r="5" style="fill:blue"/>
<circle cx="2816" cy="996" r="5" style="fill:blue"/>
<circle cx="1677" cy="7861" r="5" style="fill:blue"/>
<circle cx="1020" cy="1752" r="5" style="fill:blue"/>
<circle cx="2730" cy="6327" r="5" style="fill:blue"/>
<circle cx="3275" cy="128" r="5" style="fill:blue"/>
<circle cx="1954" cy="2034" r="5" style="fill:blue"/>
<circle cx="4174" cy="887" r="5" style="fill:blue"/>
<circle cx="619" cy="7770" r="5" style="fill:blue"/>
<circle cx="2420" cy="129" r="5" style="fill:blue"/>
<circle cx="1807" cy="8529" r="5" style="fill:blue"/>
<circle cx="2264" cy="6223" r="5" style="fill:blue"/>
<circle cx="4583" cy="1663" r="5" style="fill:blue"/>
<circle cx="4339" cy="1099" r="5" style="fill:blue"/>
<circle cx="2111" cy="6581" r="5" style="fill:blue"/>
<circle cx="1180" cy="4654" r="5" style="fill:blue"/>
<circle cx="2203" cy="8027" r="5" style="fill:blue"/>
<circle cx="591" cy="4587" r="5" style="fill:blue"/>
<circle cx="4969" cy="659" r="5" style="fill:blue"/>
<circle cx="4031" cy="8479" r="5" style="fill:blue"/>
<circle cx="2515" cy="4119" r="5" style="fill:blue"/>
<circle cx="3908" cy="6037" r="5" style="fill:blue"/>
<circle cx="3835" cy="5550" r="5" style="fill:blue"/>
<circle cx="3025" cy="2048" r="5" style="fill:blue"/>
<circle cx="4532" cy="7557" r="5" style="fill:blue"/>
<circle cx="320" cy="5897" r="5" style="fill:blue"/>
<circle cx="13" cy="6984" r="5" style="fill:blue"/>
<circle cx="585" cy="1740" r="5" style="fill:blue"/>
<circle cx="4788" cy="6192" r="5" style="fill:blue"/>
<circle cx="4206" cy="1305" r="5" style="fill:blue"/>
<circle cx="4948" cy="6303" r="5" style="fill:blue"/>
<circle cx="3173" cy="1223" r="5" style="fill:blue"/>
<circle cx="1717" cy="2579" r="5" style="fill:blue"/>
<circle cx="4399" cy="3859" r="5" style="fill:blue"/>
<circle cx="4800" cy="3150" r="5" style="fill:blue"/>
<circle cx="5028" cy="2732" r="5" style="fill:blue"/>
<circle cx="1456" cy="937" r="5" style="fill:blue"/>
<circle cx="1784" cy="7791" r="5" style="fill:blue"/>
<circle cx="4413" cy="30" r="5" style="fill:blue"/>
<circle cx="2617" cy="7447" r="5" style="fill:blue"/>
<circle cx="849" cy="7333" r="5" style="fill:blue"/>
<circle cx="3876" cy="3042" r="5" style="fill:blue"/>
<circle cx="4667" cy="5208" r="5" style="fill:blue"/>
<circle cx="2444" cy="5445" r="5" style="fill:blue"/>
<circle cx="592" cy="5481" r="5" style="fill:blue"/>
<circle cx="433" cy="5510" r="5" style="fill:blue"/>
<circle cx="3317" cy="6638" r="5" style="fill:blue"/>
<circle cx="2265" cy="8062" r="5" style="fill:blue"/>
<circle cx="2153" cy="2723" r="5" style="fill:blue"/>
<circle cx="1039" cy="7096" r="5" style="fill:blue"/>
<circle cx="1123" cy="7114" r="5" style="fill:blue"/>
<circle cx="1736" cy="6166" r="5" style="fill:blue"/>
<circle cx="4576" cy="1727" r="5" style="fill:blue"/>
<circle cx="3397" cy="37" r="5" style="fill:blue"/>
<circle cx="381" cy="7463" r="5" style="fill:blue"/>
<circle cx="1135" cy="1303" r="5" style="fill:blue"/>
<circle cx="4559" cy="6115" r="5" style="fill:blue"/>
<circle cx="4956" cy="4466" r="5" style="fill:blue"/>
<circle cx="3946" cy="4074" r="5" style="fill:blue"/>
<circle cx="2063" cy="7312" r="5" style="fill:blue"/>
<circle cx="2885" cy="3683" r="5" style="fill:blue"/>
<circle cx="1891" cy="389" r="5" style="fill:blue"/>
<circle cx="1716" cy="5246" r="5" style="fill:blue"/>
<circle cx="2081" cy="7738" r="5" style="fill:blue"/>
<circle cx="1827" cy="1858" r="5" style="fill:blue"/>
<circle cx="1045" cy="6655" r="5" style="fill:blue"/>
<circle cx="4075" cy="4039" r="5" style="fill:blue"/>
<circle cx="141" cy="4272" r="5" style="fill:blue"/>
<circle cx="1351" cy="4025" r="5" style="fill:blue"/>
<circle cx="4716" cy="3808" r="5" style="fill:blue"/>
<circle cx="500" cy="263" r="5" style="fill:blue"/>
<circle cx="3073" cy="1800" r="5" style="fill:blue"/>
<circle cx="3346" cy="4741" r="5" style="fill:blue"/>
<circle cx="3085" cy="2096" r="5" style="fill:blue"/>
<circle cx="2565" cy="4913" r="5" style="fill:blue"/>
<circle cx="263" cy="8542" r="5" style="fill:blue"/>
<circle cx="2113" cy="1252" r="5" style="fill:blue"/>
<circle cx="4389" cy="7360" r="5" style="fill:blue"/>
<circle cx="3499" cy="4411" r="5" style="fill:blue"/>
<circle cx="4256" cy="8300" r="5" style="fill:blue"/>
<circle cx="4697" cy="7855" r="5" style="fill:blue"/>
<circle cx="2973" cy="1902" r="5" style="fill:blue"/>
<circle cx="46" cy="7729" r="5" style="fill:blue"/>
<circle cx="126" cy="8090" r="5" style="fill:blue"/>
<circle cx="2196" cy="2706" r="5" style="fill:blue"/>
<circle cx="3516" cy="424" r="5" style="fill:blue"/>
<circle cx="1013" cy="6241" r="5" style="fill:blue"/>
<circle cx="3091" cy="1028" r="5" style="fill:blue"/>
<circle cx="4112" cy="2583" r="5" style="fill:blue"/>
<circle cx="1851" cy="6405" r="5" style="fill:blue"/>
<circle cx="5106" cy="1893" r="5" style="fill:blue"/>
<circle cx="581" cy="7892" r="5" style="fill:blue"/>
<circle cx="915" cy="6909" r="5" style="fill:blue"/>
<circle cx="2352" cy="1147" r="5" style="fill:blue"/>
<circle cx="3931" cy="5194" r="5" style="fill:blue"/>
<circle cx="1887" cy="5435" r="5" style="fill:blue"/>
<circle cx="1491" cy="4719" r="5" style="fill:blue"/>
<circle cx="909" cy="2147" r="5" style="fill:blue"/>
<circle cx="3308" cy="305" r="5" style="fill:blue"/>
<circle cx="3759" cy="3820" r="5" style="fill:blue"/>
<circle cx="2922" cy="1370" r="5" style="fill:blue"/>
<circle cx="2754" cy="6614" r="5" style="fill:blue"/>
<circle cx="5039" cy="2592" r="5" style="fill:blue"/>
<circle cx="1990" cy="2155" r="5" style="fill:blue"/>
<circle cx="2313" cy="3173" r="5" style="fill:blue"/>
<circle cx="3163" cy="176" r="5" style="fill:blue"/>
<circle cx="4346" cy="270" r="5" style="fill:blue"/>
<circle cx="5117" cy="2470" r="5" style="fill:blue"/>
<circle cx="1155" cy="777" r="5" style="fill:blue"/>
<circle cx="4842" cy="5480" r="5" style="fill:blue"/>
<circle cx="1348" cy="7578" r="5" style="fill:blue"/>
<circle cx="2192" cy="1151" r="5" style="fill:blue"/>
<circle cx="4992" cy="5423" r="5" style="fill:blue"/>
<circle cx="491" cy="7709" r="5" style="fill:blue"/>
<circle cx="837" cy="7616" r="5" style="fill:blue"/>
<circle cx="1135" cy="2896" r="5" style="fill:blue"/>
<circle cx="429" cy="2452" r="5" style="fill:blue"/>
<circle cx="1186" cy="1711" r="5" style="fill:blue"/>
<circle cx="4466" cy="8470" r="5" style="fill:blue"/>
<circle cx="3302" cy="3980" r="5" style="fill:blue"/>
<circle cx="4335" cy="3758" r="5" style="fill:blue"/>
<circle cx="2826" cy="7" r="5" style="fill:blue"/>
<circle cx="2371" cy="2997" r="5" style="fill:blue"/>
<circle cx="2324" cy="2470" r="5" style="fill:blue"/>
<circle cx="4297" cy="8093" r="5" style="fill:blue"/>
<circle cx="1611" cy="4063" r="5" style="fill:blue"/>
<circle cx="298" cy="6900" r="5" style="fill:blue"/>
<circle cx="4151" cy="1245" r="5" style="fill:blue"/>
<circle cx="4851" cy="6271" r="5" style="fill:blue"/>
<circle cx="5127" cy="8163" r="5" style="fill:blue"/>
<circle cx="233" cy="6641" r="5" style="fill:blue"/>
<circle cx="3225" cy="4110" r="5" style="fill:blue"/>
<circle cx="3777" cy="889" r="5" style="fill:blue"/>
<circle cx="3494" cy="1325" r="5" style="fill:blue"/>
<circle cx="4815" cy="6545" r="5" style="fill:blue"/>
<circle cx="4478" cy="1894" r="5" style="fill:blue"/>
<circle cx="1769" cy="4090" r="5" style="fill:blue"/>
<circle cx="2454" cy="307" r="5" style="fill:blue"/>
<circle cx="3330" cy="182" r="5" style="fill:blue"/>
<circle cx="2604" cy="2244" r="5" style="fill:blue"/>
<circle cx="1165" cy="4620" r="5" style="fill:blue"/>
<circle cx="949" cy="8233" r="5" style="fill:blue"/>
<circle cx="2882" cy="4635" r="5" style="fill:blue"/>
<circle cx="4218" cy="2551" r="5" style="fill:blue"/>
<circle cx="1097" cy="2469" r="5" style="fill:blue"/>
<circle cx="2651" cy="2179" r="5" style="fill:blue"/>
<circle cx="1236" cy="6961" r="5" style="fill:blue"/>
<circle cx="4365" cy="6892" r="5" style="fill:blue"/>
<circle cx="4196" cy="6598" r="5" style="fill:blue"/>
<circle cx="4368" cy="642" r="5" style="fill:blue"/>
<circle cx="1617" cy="1591" r="5" style="fill:blue"/>
<circle cx="2149" cy="5170" r="5" style="fill:blue"/>
<circle cx="1869" cy="4017" r="5" style="fill:blue"/>
<circle cx="4989" cy="6236" r="5" style="fill:blue"/>
<circle cx="3678" cy="7613" r="5" style="fill:blue"/>
<circle cx="2297" cy="7525" r="5" style="fill:blue"/>
<circle cx="3291" cy="3799" r="5" style="fill:blue"/>
<circle cx="744" cy="5432" r="5" style="fill:blue"/>
<circle cx="3891" cy="4397" r="5" style="fill:blue"/>
<circle cx="4786" cy="760" r="5" style="fill:blue"/>
<circle cx="808" cy="1082" r="5" style="fill:blue"/>
<circle cx="4005" cy="5753" r="5" style="fill:blue"/>
<circle cx="2411" cy="1766" r="5" style="fill:blue"/>
<circle cx="836" cy="6128" r="5" style="fill:blue"/>
<circle cx="1858" cy="1974" r="5" style="fill:blue"/>
<circle cx="3895" cy="5998" r="5" style="fill:blue"/>
<circle cx="784" cy="6701" r="5" style="fill:blue"/>
<circle cx="3719" cy="895" r="5" style="fill:blue"/>
<circle cx="1347" cy="5780" r="5" style="fill:blue"/>
<circle cx="118" cy="1689" r="5" style="fill:blue"/>
<circle cx="526" cy="3645" r="5" style="fill:blue"/>
<circle cx="886" cy="7032" r="5" style="fill:blue"/>
<circle cx="2946" cy="8470" r="5" style="fill:blue"/>
<circle cx="4904" cy="3204" r="5" style="fill:blue"/>
<circle cx="1412" cy="8054" r="5" style="fill:blue"/>
<circle cx="4823" cy="2191" r="5" style="fill:blue"/>
<circle cx="1726" cy="1242" r="5" style="fill:blue"/>
<circle cx="2260" cy="3852" r="5" style="fill:blue"/>
<circle cx="4927" cy="3605" r="5" style="fill:blue"/>
<circle cx="2316" cy="392" r="5" style="fill:blue"/>
<circle cx="2429" cy="413" r="5" style="fill:blue"/>
<circle cx="2286" cy="7810" r="5" style="fill:blue"/>
<circle cx="4948" cy="3192" r="5" style="fill:blue"/>
<circle cx="3152" cy="5111" r="5" style="fill:blue"/>
<circle cx="4657" cy="4256" r="5" style="fill:blue"/>
<circle cx="4712" cy="4147" r="83" style="stroke-width:5;fill:gray;fill-opacity:0.3"/>
<circle cx="3318" cy="4638" r="51" style="stroke-width:5;fill:gray;fill-opacity:0.3"/>
<circle cx="2385" cy="7484" r="79" style="stroke-width:5;fill:gray;fill-opacity:0.3"/>
<circle cx="1294" cy="6365" r="7" style="stroke-width:5;fill:gray;fill-opacity:0.3"/>
<circle cx="2919" cy="4563" r="72" style="stroke-width:5;fill:gray;fill-opacity:0.3"/>
<circle cx="3978" cy="1001" r="37" style="stroke-width:5;fill:gray;fill-opacity:0.3"/>
<circle cx="4066" cy="3234" r="44" style="stroke-width:5;fill:gray;fill-opacity:0.3"/>
<circle cx="4500" cy="5389" r="83" style="stroke-width:5;fill:gray;fill-opacity:0.3"/>
<circle cx="4365" cy="5929" r="27" style="stroke-width:5;fill:gray;fill-opacity:0.3"/>
<circle cx="2420" cy="4246" r="43" style="stroke-width:5;fill:gray;fill-opacity:0.3"/>
<circle cx="3873" cy="7337" r="37" style="stroke-width:5;fill:gray;fill-opacity:0.3"/>
<circle cx="2134" cy="5022" r="59" style="stroke-width:5;fill:gray;fill-opacity:0.3"/>
<circle cx="4104" cy="5024" r="57" style="stroke-width:5;fill:gray;fill-opacity:0.3"/>
<circle cx="1706" cy="6849" r="81" style="stroke-width:5;fill:gray;fill-opacity:0.3"/>
<circle cx="264" cy="2196" r="52" style="stroke-width:5;fill:gray;fill-opacity:0.3"/>
<circle cx="4215" cy="7004" r="43" style="stroke-width:5;fill:gray;fill-opacity:0.3"/>
<circle cx="4405" cy="2848" r="62" style="stroke-width:5;fill:gray;fill-opacity:0.3"/>
<circle cx="3273" cy="3637" r="32" style="stroke-width:5;fill:gray;fill-opacity:0.3"/>
<circle cx="757" cy="2406" r="68" style="stroke-width:5;fill:gray;fill-opacity:0.3"/>
<circle cx="3972" cy="5016" r="23" style="stroke-width:5;fill:gray;fill-opacity:0.3"/>
<circle cx="4193" cy="4694" r="8" style="stroke-width:5;fill:gray;fill-opacity:0.3"/>
<circle cx="440" cy="4797" r="14" style="stroke-width:5;fill:gray;fill-opacity:0.3"/>
<circle cx="4229" cy="3658" r="14" style="stroke-width:5;fill:gray;fill-opacity:0.3"/>
<circle cx="1397" cy="5369" r="52" style="stroke-width:5;fill:gray;fill-opacity:0.3"/>
<circle cx="1275" cy="1952" r="64" style="stroke-width:5;fill:gray;fill-opacity:0.3"/>
<circle cx="1870" cy="2070" r="14" style="stroke-width:5;fill:gray;fill-opacity:0.3"/>
<circle cx="333" cy="8177" r="19" style="stroke-width:5;fill:gray;fill-opacity:0.3"/>
<circle cx="1128" cy="3400" r="55" style="stroke-width:5;fill:gray;fill-opacity:0.3"/>
<circle cx="3951" cy="682" r="76" style="stroke-width:5;fill:gray;fill-opacity:0.3"/>
<circle cx="2452" cy="7717" r="13" style="stroke-width:5;fill:gray;fill-opacity:0.3"/>
<circle cx="742" cy="8239" r="26" style="stroke-width:5;fill:gray;fill-opacity:0.3"/>
<circle cx="4763" cy="75" r="52" style="stroke-width:5;fill:gray;fill-opacity:0.3"/>
<circle cx="2767" cy="7698" r="62" style="stroke-width:5;fill:gray;fill-opacity:0.3"/>
<circle cx="4439" cy="622" r="36" style="stroke-width:5;fill:gray;fill-opacity:0.3"/>
<circle cx="5000" cy="1241" r="56" style="stroke-width:5;fill:gray;fill-opacity:0.3"/>
<circle cx="3036" cy="7864" r="75" style="stroke-width:5;fill:gray;fill-opacity:0.3"/>
<circle cx="1750" cy="2244" r="44" style="stroke-width:5;fill:gray;fill-opacity:0.3"/>
<circle cx="4199" cy="6943" r="77" style="stroke-width:5;fill:gray;fill-opacity:0.3"/>
<circle cx="570" cy="3710" r="10" style="stroke-width:5;fill:gray;fill-opacity:0.3"/>
<circle cx="1756" cy="2758" r="71" style="stroke-width:5;fill:gray;fill-opacity:0.3"/>
<circle cx="1901" cy="4656" r="77" style="stroke-width:5;fill:gray;fill-opacity:0.3"/>
<circle cx="4972" cy="6779" r="80" style="stroke-width:5;fill:gray;fill-opacity:0.3"/>
<circle cx="4768" cy="226" r="61" style="stroke-width:5;fill:gray;fill-opacity:0.3"/>
<circle cx="574" cy="3376" r="43" style="stroke-width:5;fill:gray;fill-opacity:0.3"/>
<circle cx="4898" cy="6857" r="54" style="stroke-width:5;fill:gray;fill-opacity:0.3"/>
<circle cx="4564" cy="5133" r="7" style="stroke-width:5;fill:gray;fill-opacity:0.3"/>
<circle cx="1598" cy="8020" r="49" style="stroke-width:5;fill:gray;fill-opacity:0.3"/>
<circle cx="4678" cy="852" r="24" style="stroke-width:5;fill:gray;fill-opacity:0.3"/>
<circle cx="1190" cy="217" r="62" style="stroke-width:5;fill:gray;fill-opacity:0.3"/>
<circle cx="3267" cy="1639" r="32" style="stroke-width:5;fill:gray;fill-opacity:0.3"/>
<circle cx="745" cy="3135" r="32" style="stroke-width:5;fill:gray;fill-opacity:0.3"/>
<circle cx="585" cy="6213" r="21" style="stroke-width:5;fill:gray;fill-opacity:0.3"/>
<circle cx="4062" cy="3416" r="75" style="stroke-width:5;fill:gray;fill-opacity:0.3"/>
<circle cx="2029" cy="793" r="29" style="stroke-width:5;fill:gray;fill-opacity:0.3"/>
<circle cx="3799" cy="6064" r="59" style="stroke-width:5;fill:gray;fill-opacity:0.3"/>
<circle cx="1368" cy="5213" r="38" style="stroke-width:5;fill:gray;fill-opacity:0.3"/>
<circle cx="3604" cy="2533" r="43" style="stroke-width:5;fill:gray;fill-opacity:0.3"/>
<circle cx="341" cy="6485" r="51" style="stroke-width:5;fill:gray;fill-opacity:0.3"/>
<circle cx="2086" cy="4485" r="43" style="stroke-width:5;fill:gray;fill-opacity:0.3"/>
<circle cx="3607" cy="6499" r="61" style="stroke-width:5;fill:gray;fill-opacity:0.3"/>
<circle cx="47" cy="124" r="24" style="stroke-width:5;fill:gray;fill-opacity:0.3"/>
<circle cx="1500" cy="3713" r="20" style="stroke-width:5;fill:gray;fill-opacity:0.3"/>
<circle cx="3965" cy="6495" r="29" style="stroke-width:5;fill:gray;fill-opacity:0.3"/>
<circle cx="632" cy="5214" r="72" style="stroke-width:5;fill:gray;fill-opacity:0.3"/>
<circle cx="2697" cy="6550" r="12" style="stroke-width:5;fill:gray;fill-opacity:0.3"/>
<circle cx="4412" cy="1999" r="23" style="stroke-width:5;fill:gray;fill-opacity:0.3"/>
<circle cx="2014" cy="3396" r="34" style="stroke-width:5;fill:gray;fill-opacity:0.3"/>
<circle cx="4548" cy="3056" r="40" style="stroke-width:5;fill:gray;fill-opacity:0.3"/>
<circle cx="1205" cy="7076" r="43" style="stroke-width:5;fill:gray;fill-opacity:0.3"/>
<circle cx="2935" cy="4436" r="59" style="stroke-width:5;fill:gray;fill-opacity:0.3"/>
<circle cx="2167" cy="3907" r="13" style="stroke-width:5;fill:gray;fill-opacity:0.3"/>
<circle cx="173" cy="2959" r="23" style="stroke-width:5;fill:gray;fill-opacity:0.3"/>
<circle cx="3188" cy="4337" r="17" style="stroke-width:5;fill:gray;fill-opacity:0.3"/>
<circle cx="4047" cy="8362" r="37" style="stroke-width:5;fill:gray;fill-opacity:0.3"/>
<circle cx="3156" cy="7657" r="56" style="stroke-width:5;fill:gray;fill-opacity:0.3"/>
<circle cx="2109" cy="7202" r="57" style="stroke-width:5;fill:gray;fill-opacity:0.3"/>
<circle cx="596" cy="3941" r="44" style="stroke-width:5;fill:gray;fill-opacity:0.3"/>
<circle cx="3728" cy="2199" r="50" style="stroke-width:5;fill:gray;fill-opacity:0.3"/>
<circle cx="1308" cy="3512" r="9" style="stroke-width:5;fill:gray;fill-opacity:0.3"/>
<circle cx="1320" cy="7966" r="47" style="stroke-width:5;fill:gray;fill-opacity:0.3"/>
<circle cx="81" cy="5609" r="40" style="stroke-width:5;fill:gray;fill-opacity:0.3"/>
<circle cx="4925" cy="267" r="22" style="stroke-width:5;fill:gray;fill-opacity:0.3"/>
<circle cx="2943" cy="436" r="44" style="stroke-width:5;fill:gray;fill-opacity:0.3"/>
<circle cx="3552" cy="5583" r="70" style="stroke-width:5;fill:gray;fill-opacity:0.3"/>
<circle cx="2042" cy="4899" r="71" style="stroke-width:5;fill:gray;fill-opacity:0.3"/>
<circle cx="345" cy="3526" r="11" style="stroke-width:5;fill:gray;fill-opacity:0.3"/>
<circle cx="2494" cy="1253" r="75" style="stroke-width:5;fill:gray;fill-opacity:0.3"/>
<circle cx="460" cy="6782" r="15" style="stroke-width:5;fill:gray;fill-opacity:0.3"/>
<circle cx="3580" cy="5020" r="83" style="stroke-width:5;fill:gray;fill-opacity:0.3"/>
<circle cx="410" cy="6186" r="68" style="stroke-width:5;fill:gray;fill-opacity:0.3"/>
<circle cx="4038" cy="1156" r="58" style="stroke-width:5;fill:gray;fill-opacity:0.3"/>
<circle cx="1422" cy="7693" r="73" style="stroke-width:5;fill:gray;fill-opacity:0.3"/>
<circle cx="3744" cy="8098" r="56" style="stroke-width:5;fill:gray;fill-opacity:0.3"/>
<circle cx="4533" cy="3497" r="55" style="stroke-width:5;fill:gray;fill-opacity:0.3"/>
<circle cx="3855" cy="5459" r="13" style="stroke-width:5;fill:gray;fill-opacity:0.3"/>
<circle cx="284" cy="80" r="65" style="stroke-width:5;fill:gray;fill-opacity:0.3"/>
<circle cx="5075" cy="3178" r="57" style="stroke-width:5;fill:gray;fill-opacity:0.3"/>
<circle cx="1033" cy="2321" r="5" style="stroke-width:5;fill:gray;fill-opacity:0.3"/>
<circle cx="1901" cy="7854" r="53" style="stroke-width:5;fill:gray;fill-opacity:0.3"/>
<circle cx="4260" cy="2302" r="17" style="stroke-width:5;fill:gray;fill-opacity:0.3"/>
<circle cx="1886" cy="3613" r="25" style="stroke-width:5;fill:gray;fill-opacity:0.3"/>
<circle cx="1554" cy="3568" r="39" style="stroke-width:5;fill:gray;fill-opacity:0.3"/>
<circle cx="3737" cy="7039" r="78" style="stroke-width:5;fill:gray;fill-opacity:0.3"/>
<circle cx="4709" cy="6853" r="77" style="stroke-width:5;fill:gray;fill-opacity:0.3"/>
<circle cx="2394" cy="855" r="16" style="stroke-width:5;fill:gray;fill-opacity:0.3"/>
<circle cx="4619" cy="4764" r="29" style="stroke-width:5;fill:gray;fill-opacity:0.3"/>
<circle cx="2453" cy="4776" r="36" style="stroke-width:5;fill:gray;fill-opacity:0.3"/>
<circle cx="1419" cy="1156" r="29" style="stroke-width:5;fill:gray;fill-opacity:0.3"/>
<circle cx="1565" cy="6497" r="48" style="stroke-width:5;fill:gray;fill-opacity:0.3"/>
<circle cx="1336" cy="2784" r="23" style="stroke-width:5;fill:gray;fill-opacity:0.3"/>
<circle cx="4274" cy="3096" r="29" style="stroke-width:5;fill:gray;fill-opacity:0.3"/>
<circle cx="4970" cy="3909" r="49" style="stroke-width:5;fill:gray;fill-opacity:0.3"/>
<circle cx="1046" cy="3237" r="47" style="stroke-width:5;fill:gray;fill-opacity:0.3"/>
<circle cx="3833" cy="6400" r="32" style="stroke-width:5;fill:gray;fill-opacity:0.3"/>
<circle cx="2789" cy="4978" r="22" style="stroke-width:5;fill:gray;fill-opacity:0.3"/>
<circle cx="4136" cy="2886" r="43" style="stroke-width:5;fill:gray;fill-opacity:0.3"/>
<circle cx="1466" cy="2212" r="7" style="stroke-width:5;fill:gray;fill-opacity:0.3"/>
<circle cx="4858" cy="7854" r="5" style="stroke-width:5;fill:gray;fill-opacity:0.3"/>
<circle cx="1576" cy="894" r="10" style="stroke-width:5;fill:gray;fill-opacity:0.3"/>
<circle cx="4281" cy="2320" r="10" style="stroke-width:5;fill:gray;fill-opacity:0.3"/>
<circle cx="3150" cy="2670" r="47" style="stroke-width:5;fill:gray;fill-opacity:0.3"/>
<circle cx="3936" cy="2728" r="35" style="stroke-width:5;fill:gray;fill-opacity:0.3"/>
<circle cx="4648" cy="5704" r="61" style="stroke-width:5;fill:gray;fill-opacity:0.3"/>
<circle cx="4740" cy="907" r="18" style="stroke-width:5;fill:gray;fill-opacity:0.3"/>
<circle cx="2573" cy="672" r="12" style="stroke-width:5;fill:gray;fill-opacity:0.3"/>
<circle cx="4855" cy="8027" r="46" style="stroke-width:5;fill:gray;fill-opacity:0.3"/>
<circle cx="690" cy="6543" r="42" style="stroke-width:5;fill:gray;fill-opacity:0.3"/>
<circle cx="421" cy="6038" r="41" style="stroke-width:5;fill:gray;fill-opacity:0.3"/>
<circle cx="3957" cy="114" r="11" style="stroke-width:5;fill:gray;fill-opacity:0.3"/>
<circle cx="3472" cy="5172" r="77" style="stroke-width:5;fill:gray;fill-opacity:0.3"/>
<circle cx="4651" cy="2578" r="22" style="stroke-width:5;fill:gray;fill-opacity:0.3"/>
<circle cx="2672" cy="6389" r="9" style="stroke-width:5;fill:gray;fill-opacity:0.3"/>
<circle cx="2138" cy="2651" r="37" style="stroke-width:5;fill:gray;fill-opacity:0.3"/>
<circle cx="1761" cy="1120" r="61" style="stroke-width:5;fill:gray;fill-opacity:0.3"/>
<circle cx="3729" cy="7817" r="41" style="stroke-width:5;fill:gray;fill-opacity:0.3"/>
<circle cx="2784" cy="836" r="17" style="stroke-width:5;fill:gray;fill-opacity:0.3"/>
<circle cx="4694" cy="3906" r="36" style="stroke-width:5;fill:gray;fill-opacity:0.3"/>
<circle cx="4103" cy="5176" r="53" style="stroke-width:5;fill:gray;fill-opacity:0.3"/>
<circle cx="4638" cy="2468" r="46" style="stroke-width:5;fill:gray;fill-opacity:0.3"/>
<circle cx="1026" cy="468" r="41" style="stroke-width:5;fill:gray;fill-opacity:0.3"/>
<circle cx="946" cy="8022" r="84" style="stroke-width:5;fill:gray;fill-opacity:0.3"/>
<circle cx="3428" cy="7571" r="83" style="stroke-width:5;fill:gray;fill-opacity:0.3"/>
<circle cx="1808" cy="3268" r="39" style="stroke-width:5;fill:gray;fill-opacity:0.3"/>
<circle cx="1589" cy="4832" r="9" style="stroke-width:5;fill:gray;fill-opacity:0.3"/>
<circle cx="3137" cy="5289" r="78" style="stroke-width:5;fill:gray;fill-opacity:0.3"/>
<circle cx="1210" cy="14" r="11" style="stroke-width:5;fill:gray;fill-opacity:0.3"/>
<circle cx="4865" cy="5424" r="17" style="stroke-width:5;fill:gray;fill-opacity:0.3"/>
<circle cx="4021" cy="4673" r="41" style="stroke-width:5;fill:gray;fill-opacity:0.3"/>
<circle cx="2714" cy="6409" r="36" style="stroke-width:5;fill:gray;fill-opacity:0.3"/>
</svg>