<svg viewBox="0 0 8701 7942" xmlns="http://www.w3.org/2000/svg">
<rect height="2301" style="stroke:pink;stroke-width:10;fill:gray;fill-opacity:0.1;stroke-opacity:0.9" width="866" x="3961" y="3763"/>
<circle cx="6947" cy="112" r="5" style="fill:blue"/>
<circle cx="6950" cy="6182" r="5" style="fill:blue"/>
<circle cx="1774" cy="3808" r="5" style="fill:blue"/>
<circle cx="8643" cy="2482" r="5" style="fill:blue"/>
<circle cx="5967" cy="2254" r="5" style="fill:blue"/>
<circle cx="1404" cy="1468" r="5" style="fill:blue"/>
<circle cx="993" cy="4327" r="5" style="fill:blue"/>
<circle cx="6543" cy="3765" r="5" style="fill:blue"/>
<circle cx="7379" cy="2431" r="5" style="fill:blue"/>
<circle cx="1246" cy="6974" r="5" style="fill:blue"/>
<circle cx="125" cy="3404" r="5" style="fill:blue"/>
<circle cx="2169" cy="7239" r="5" style="fill:blue"/>
<circle cx="2553" cy="4233" r="5" style="fill:blue"/>
<circle cx="516" cy="2725" r="5" style="fill:blue"/>
<circle cx="8598" cy="1188" r="5" style="fill:blue"/>
<circle cx="6380" cy="7794" r="5" style="fill:blue"/>
<circle cx="5765" cy="2685" r="5" style="fill:blue"/>
<circle cx="3440" cy="5812" r="5" style="fill:blue"/>
<circle cx="2009" cy="4089" r="5" style="fill:blue"/>
<circle cx="106" cy="3135" r="5" style="fill:blue"/>
<circle cx="7653" cy="3523" r="5" style="fill:blue"/>
<circle cx="3447" cy="5130" r="5" style="fill:blue"/>
<circle cx="1807" cy="7876" r="5" style="fill:blue"/>
<circle cx="3148" cy="1196" r="5" style="fill:blue"/>
<circle cx="8586" cy="4017" r="5" style="fill:blue"/>
<circle cx="4856" cy="6636" r="5" style="fill:blue"/>
<circle cx="2171" cy="3922" r="5" style="fill:blue"/>
<circle cx="6397" cy="2229" r="5" style="fill:blue"/>
<circle cx="8" cy="5535" r="5" style="fill:blue"/>
<circle cx="7591" cy="1732" r="5" style="fill:blue"/>
<circle cx="2238" cy="1505" r="5" style="fill:blue"/>
<circle cx="4691" cy="6682" r="5" style="fill:blue"/>
<circle cx="8283" cy="4632" r="5" style="fill:blue"/>
<circle cx="5805" cy="5661" r="5" style="fill:blue"/>
<circle cx="2490" cy="118" r="5" style="fill:blue"/>
<circle cx="2310" cy="5628" r="5" style="fill:blue"/>
<circle cx="1578" cy="6036" r="5" style="fill:blue"/>
<circle cx="4351" cy="2113" r="5" style="fill:blue"/>
<circle cx="6513" cy="3893" r="5" style="fill:blue"/>
<circle cx="8227" cy="1183" r="5" style="fill:blue"/>
<circle cx="3553" cy="6857" r="5" style="fill:blue"/>
<circle cx="460" cy="2003" r="5" style="fill:blue"/>
<circle cx="1077" cy="6560" r="5" style="fill:blue"/>
<circle cx="7174" cy="86" r="5" style="fill:blue"/>
<circle cx="8037" cy="3053" r="5" style="fill:blue"/>
<circle cx="4193" cy="2669" r="5" style="fill:blue"/>
<circle cx="3513" cy="526" r="5" style="fill:blue"/>
<circle cx="519" cy="3675" r="5" style="fill:blue"/>
<circle cx="5276" cy="6268" r="5" style="fill:blue"/>
<circle cx="5584" cy="4832" r="5" style="fill:blue"/>
<circle cx="2722" cy="5827" r="5" style="fill:blue"/>
<circle cx="5502" cy="1927" r="5" style="fill:blue"/>
<circle cx="5968" cy="3809" r="5" style="fill:blue"/>
<circle cx="3144" cy="6658" r="5" style="fill:blue"/>
<circle cx="3239" cy="175" r="5" style="fill:blue"/>
<circle cx="1144" cy="3166" r="5" style="fill:blue"/>
<circle cx="2597" cy="6805" r="5" style="fill:blue"/>
<circle cx="1193" cy="580" r="5" style="fill:blue"/>
<circle cx="2534" cy="2679" r="5" style="fill:blue"/>
<circle cx="6905" cy="7178" r="5" style="fill:blue"/>
<circle cx="7136" cy="4252" r="5" style="fill:blue"/>
<circle cx="2914" cy="1883" r="5" style="fill:blue"/>
<circle cx="3971" cy="7575" r="5" style="fill:blue"/>
<circle cx="2518" cy="5487" r="5" style="fill:blue"/>
<circle cx="3386" cy="339" r="5" style="fill:blue"/>
<circle cx="4477" cy="1512" r="5" style="fill:blue"/>
<circle cx="6415" cy="1738" r="5" style="fill:blue"/>
<circle cx="7079" cy="728" r="5" style="fill:blue"/>
<circle cx="5464" cy="7367" r="5" style="fill:blue"/>
<circle cx="3605" cy="6327" r="5" style="fill:blue"/>
<circle cx="4582" cy="6708" r="5" style="fill:blue"/>
<circle cx="5847" cy="5240" r="5" style="fill:blue"/>
<circle cx="1217" cy="1493" r="5" style="fill:blue"/>
<circle cx="8460" cy="2221" r="5" style="fill:blue"/>
<circle cx="7488" cy="1618" r="5" style="fill:blue"/>
<circle cx="37" cy="2758" r="5" style="fill:blue"/>
<circle cx="3466" cy="2180" r="5" style="fill:blue"/>
<circle cx="389" cy="1884" r="5" style="fill:blue"/>
<circle cx="4445" cy="7433" r="5" style="fill:blue"/>
<circle cx="4906" cy="1584" r="5" style="fill:blue"/>
<circle cx="576" cy="14" r="5" style="fill:blue"/>
<circle cx="3845" cy="6791" r="5" style="fill:blue"/>
<circle cx="1388" cy="6978" r="5" style="fill:blue"/>
<circle cx="700" cy="115" r="5" style="fill:blue"/>
<circle cx="3350" cy="6620" r="5" style="fill:blue"/>
<circle cx="3793" cy="763" r="5" style="fill:blue"/>
<circle cx="3785" cy="5939" r="5" style="fill:blue"/>
<circle cx="855" cy="1458" r="5" style="fill:blue"/>
<circle cx="3124" cy="6527" r="5" style="fill:blue"/>
<circle cx="1029" cy="6869" r="5" style="fill:blue"/>
<circle cx="7668" cy="4265" r="5" style="fill:blue"/>
<circle cx="1836" cy="7464" r="5" style="fill:blue"/>
<circle cx="315" cy="3798" r="5" style="fill:blue"/>
<circle cx="3320" cy="6724" r="5" style="fill:blue"/>
<circle cx="7991" cy="2253" r="5" style="fill:blue"/>
<circle cx="4672" cy="1036" r="5" style="fill:blue"/>
<circle cx="7401" cy="4887" r="5" style="fill:blue"/>
<circle cx="8637" cy="4658" r="5" style="fill:blue"/>
<circle cx="1711" cy="5290" r="5" style="fill:blue"/>
<circle cx="5213" cy="27" r="5" style="fill:blue"/>
<circle cx="4295" cy="721" r="5" style="fill:blue"/>
<circle cx="5705" cy="4615" r="5" style="fill:blue"/>
<circle cx="1204" cy="350" r="5" style="fill:blue"/>
<circle cx="3163" cy="3295" r="5" style="fill:blue"/>
<circle cx="5986" cy="6786" r="5" style="fill:blue"/>
<circle cx="4049" cy="2108" r="5" style="fill:blue"/>
<circle cx="8345" cy="4143" r="5" style="fill:blue"/>
<circle cx="3283" cy="270" r="5" style="fill:blue"/>
<circle cx="6947" cy="3110" r="5" style="fill:blue"/>
<circle cx="6369" cy="587" r="5" style="fill:blue"/>
<circle cx="8624" cy="4919" r="5" style="fill:blue"/>
<circle cx="6714" cy="5446" r="5" style="fill:blue"/>
<circle cx="5377" cy="6603" r="5" style="fill:blue"/>
<circle cx="2336" cy="5069" r="5" style="fill:blue"/>
<circle cx="959" cy="6492" r="5" style="fill:blue"/>
<circle cx="8191" cy="799" r="5" style="fill:blue"/>
<circle cx="5195" cy="3555" r="5" style="fill:blue"/>
<circle cx="7590" cy="7520" r="5" style="fill:blue"/>
<circle cx="2188" cy="2181" r="5" style="fill:blue"/>
<circle cx="4217" cy="2879" r="5" style="fill:blue"/>
<circle cx="2662" cy="3493" r="5" style="fill:blue"/>
<circle cx="7856" cy="201" r="5" style="fill:blue"/>
<circle cx="5142" cy="1386" r="5" style="fill:blue"/>
<circle cx="8632" cy="1105" r="5" style="fill:blue"/>
<circle cx="5539" cy="4431" r="5" style="fill:blue"/>
<circle cx="4961" cy="5190" r="5" style="fill:blue"/>
<circle cx="3299" cy="4091" r="5" style="fill:blue"/>
<circle cx="8024" cy="3598" r="5" style="fill:blue"/>
<circle cx="5465" cy="5576" r="5" style="fill:blue"/>
<circle cx="2654" cy="2647" r="5" style="fill:blue"/>
<circle cx="6120" cy="2018" r="5" style="fill:blue"/>
<circle cx="3774" cy="3399" r="5" style="fill:blue"/>
<circle cx="6059" cy="3415" r="5" style="fill:blue"/>
<circle cx="173" cy="4115" r="5" style="fill:blue"/>
<circle cx="3351" cy="7937" r="5" style="fill:blue"/>
<circle cx="6659" cy="5904" r="5" style="fill:blue"/>
<circle cx="3921" cy="1168" r="5" style="fill:blue"/>
<circle cx="1014" cy="1653" r="5" style="fill:blue"/>
<circle cx="373" cy="1858" r="5" style="fill:blue"/>
<circle cx="7339" cy="173" r="5" style="fill:blue"/>
<circle cx="6366" cy="2455" r="5" style="fill:blue"/>
<circle cx="8066" cy="6823" r="5" style="fill:blue"/>
<circle cx="7379" cy="6039" r="5" style="fill:blue"/>
<circle cx="3322" cy="7340" r="5" style="fill:blue"/>
<circle cx="6976" cy="3452" r="5" style="fill:blue"/>
<circle cx="3" cy="2973" r="5" style="fill:blue"/>
<circle cx="5535" cy="3912" r="5" style="fill:blue"/>
<circle cx="8475" cy="2849" r="5" style="fill:blue"/>
<circle cx="2640" cy="5403" r="5" style="fill:blue"/>
<circle cx="7883" cy="4680" r="5" style="fill:blue"/>
<circle cx="3303" cy="5084" r="5" style="fill:blue"/>
<circle cx="5202" cy="2564" r="5" style="fill:blue"/>
<circle cx="6711" cy="1812" r="5" style="fill:blue"/>
<circle cx="3068" cy="1501" r="5" style="fill:blue"/>
<circle cx="1306" cy="4454" r="5" style="fill:blue"/>
<circle cx="7365" cy="7154" r="5" style="fill:blue"/>
<circle cx="3358" cy="530" r="5" style="fill:blue"/>
<circle cx="2853" cy="7533" r="5" style="fill:blue"/>
<circle cx="1193" cy="4512" r="5" style="fill:blue"/>
<circle cx="1471" cy="1047" r="5" style="fill:blue"/>
<circle cx="4233" cy="2704" r="5" style="fill:blue"/>
<circle cx="8186" cy="7042" r="5" style="fill:blue"/>
<circle cx="7046" cy="7117" r="5" style="fill:blue"/>
<circle cx="7658" cy="7100" r="5" style="fill:blue"/>
<circle cx="5037" cy="1378" r="5" style="fill:blue"/>
<circle cx="6995" cy="4883" r="5" style="fill:blue"/>
<circle cx="1695" cy="7396" r="5" style="fill:blue"/>
<circle cx="657" cy="7069" r="5" style="fill:blue"/>
<circle cx="641" cy="6551" r="5" style="fill:blue"/>
<circle cx="2417" cy="3864" r="5" style="fill:blue"/>
<circle cx="1526" cy="5399" r="5" style="fill:blue"/>
<circle cx="2232" cy="556" r="5" style="fill:blue"/>
<circle cx="3817" cy="940" r="5" style="fill:blue"/>
<circle cx="2671" cy="7784" r="5" style="fill:blue"/>
<circle cx="6307" cy="571" r="5" style="fill:blue"/>
<circle cx="7053" cy="621" r="5" style="fill:blue"/>
<circle cx="5817" cy="6809" r="5" style="fill:blue"/>
<circle cx="5094" cy="7082" r="5" style="fill:blue"/>
<circle cx="6444" cy="724" r="5" style="fill:blue"/>
<circle cx="798" cy="4356" r="5" style="fill:blue"/>
<circle cx="6680" cy="4453" r="5" style="fill:blue"/>
<circle cx="5719" cy="1970" r="5" style="fill:blue"/>
<circle cx="7884" cy="976" r="5" style="fill:blue"/>
<circle cx="894" cy="7888" r="5" style="fill:blue"/>
<circle cx="4195" cy="388" r="5" style="fill:blue"/>
<circle cx="8095" cy="610" r="5" style="fill:blue"/>
<circle cx="6305" cy="2705" r="5" style="fill:blue"/>
<circle cx="869" cy="5550" r="5" style="fill:blue"/>
<circle cx="5351" cy="5382" r="5" style="fill:blue"/>
<circle cx="4059" cy="1737" r="5" style="fill:blue"/>
<circle cx="7253" cy="1819" r="5" style="fill:blue"/>
<circle cx="7516" cy="7444" r="5" style="fill:blue"/>
<circle cx="1009" cy="4065" r="5" style="fill:blue"/>
<circle cx="2" cy="596" r="5" style="fill:blue"/>
<circle cx="6240" cy="1836" r="5" style="fill:blue"/>
<circle cx="5731" cy="7279" r="5" style="fill:blue"/>
<circle cx="5809" cy="153" r="5" style="fill:blue"/>
<circle cx="7208" cy="4967" r="5" style="fill:blue"/>
<circle cx="621" cy="7440" r="5" style="fill:blue"/>
<circle cx="662" cy="2861" r="5" style="fill:blue"/>
<circle cx="3371" cy="1353" r="5" style="fill:blue"/>
<circle cx="4933" cy="4071" r="5" style="fill:blue"/>
<circle cx="1599" cy="7574" r="5" style="fill:blue"/>
<circle cx="264" cy="3038" r="5" style="fill:blue"/>
<circle cx="2000" cy="4158" r="5" style="fill:blue"/>
<circle cx="7739" cy="7372" r="5" style="fill:blue"/>
<circle cx="3245" cy="3083" r="5" style="fill:blue"/>
<circle cx="2463" cy="83" r="5" style="fill:blue"/>
<circle cx="2281" cy="6404" r="5" style="fill:blue"/>
<circle cx="6514" cy="7436" r="5" style="fill:blue"/>
<circle cx="8167" cy="6114" r="5" style="fill:blue"/>
<circle cx="7024" cy="6652" r="5" style="fill:blue"/>
<circle cx="5489" cy="1165" r="5" style="fill:blue"/>
<circle cx="100" cy="854" r="5" style="fill:blue"/>
<circle cx="7335" cy="476" r="5" style="fill:blue"/>
<circle cx="3827" cy="5255" r="5" style="fill:blue"/>
<circle cx="3434" cy="2496" r="5" style="fill:blue"/>
<circle cx="1479" cy="1781" r="5" style="fill:blue"/>
<circle cx="6044" cy="1624" r="5" style="fill:blue"/>
<circle cx="812" cy="3793" r="5" style="fill:blue"/>
<circle cx="4735" cy="262" r="5" style="fill:blue"/>
<circle cx="6571" cy="5954" r="5" style="fill:blue"/>
<circle cx="1093" cy="2862" r="5" style="fill:blue"/>
<circle cx="2189" cy="3917" r="5" style="fill:blue"/>
<circle cx="2452" cy="1664" r="5" style="fill:blue"/>
<circle cx="1622" cy="155" r="5" style="fill:blue"/>
<circle cx="4858" cy="5193" r="5" style="fill:blue"/>
<circle cx="1783" cy="169" r="5" style="fill:blue"/>
<circle cx="1558" cy="3848" r="5" style="fill:blue"/>
<circle cx="3906" cy="4889" r="5" style="fill:blue"/>
<circle cx="2764" cy="194" r="5" style="fill:blue"/>
<circle cx="549" cy="2372" r="5" style="fill:blue"/>
<circle cx="2942" cy="497" r="5" style="fill:blue"/>
<circle cx="520" cy="5332" r="5" style="fill:blue"/>
<circle cx="7652" cy="4086" r="5" style="fill:blue"/>
<circle cx="880" cy="1589" r="5" style="fill:blue"/>
<circle cx="4853" cy="6002" r="5" style="fill:blue"/>
<circle cx="691" cy="6314" r="5" style="fill:blue"/>
<circle cx="3618" cy="3167" r="5" style="fill:blue"/>
<circle cx="581" cy="4026" r="5" style="fill:blue"/>
<circle cx="3381" cy="416" r="5" style="fill:blue"/>
<circle cx="3410" cy="6554" r="5" style="fill:blue"/>
<circle cx="498" cy="4376" r="5" style="fill:blue"/>
<circle cx="2959" cy="7766" r="5" style="fill:blue"/>
<circle cx="2390" cy="122" r="5" style="fill:blue"/>
<circle cx="6493" cy="7268" r="5" style="fill:blue"/>
<circle cx="5171" cy="7913" r="5" style="fill:blue"/>
<circle cx="5877" cy="1226" r="5" style="fill:blue"/>
<circle cx="3615" cy="3618" r="5" style="fill:blue"/>
<circle cx="8580" cy="1607" r="5" style="fill:blue"/>
<circle cx="5109" cy="893" r="5" style="fill:blue"/>
<circle cx="142" cy="399" r="5" style="fill:blue"/>
<circle cx="3294" cy="4431" r="5" style="fill:blue"/>
<circle cx="4990" cy="3258" r="5" style="fill:blue"/>
<circle cx="6334" cy="5812" r="5" style="fill:blue"/>
<circle cx="6230" cy="4419" r="5" style="fill:blue"/>
<circle cx="3782" cy="2171" r="5" style="fill:blue"/>
<circle cx="2232" cy="6153" r="5" style="fill:blue"/>
<circle cx="2433" cy="534" r="5" style="fill:blue"/>
<circle cx="8192" cy="3550" r="5" style="fill:blue"/>
<circle cx="817" cy="2517" r="5" style="fill:blue"/>
<circle cx="4516" cy="3572" r="5" style="fill:blue"/>
<circle cx="173" cy="3098" r="5" style="fill:blue"/>
<circle cx="8191" cy="3702" r="5" style="fill:blue"/>
<circle cx="2034" cy="6389" r="5" style="fill:blue"/>
<circle cx="4387" cy="837" r="5" style="fill:blue"/>
<circle cx="2392" cy="190" r="5" style="fill:blue"/>
<circle cx="5127" cy="7491" r="5" style="fill:blue"/>
<circle cx="7575" cy="5658" r="5" style="fill:blue"/>
<circle cx="3503" cy="6945" r="5" style="fill:blue"/>
<circle cx="7901" cy="3293" r="5" style="fill:blue"/>
<circle cx="4236" cy="691" r="5" style="fill:blue"/>
<circle cx="6393" cy="925" r="5" style="fill:blue"/>
<circle cx="6861" cy="4827" r="5" style="fill:blue"/>
<circle cx="4461" cy="1661" r="5" style="fill:blue"/>
<circle cx="3313" cy="6920" r="5" style="fill:blue"/>
<circle cx="6603" cy="370" r="5" style="fill:blue"/>
<circle cx="8697" cy="3948" r="5" style="fill:blue"/>
<circle cx="3742" cy="5792" r="5" style="fill:blue"/>
<circle cx="5513" cy="1493" r="5" style="fill:blue"/>
<circle cx="1196" cy="2386" r="5" style="fill:blue"/>
<circle cx="5911" cy="7183" r="5" style="fill:blue"/>
<circle cx="8312" cy="3690" r="5" style="fill:blue"/>
<circle cx="7362" cy="4521" r="5" style="fill:blue"/>
<circle cx="686" cy="214" r="5" style="fill:blue"/>
<circle cx="7077" cy="5931" r="5" style="fill:blue"/>
<circle cx="233" cy="7189" r="5" style="fill:blue"/>
<circle cx="8558" cy="3022" r="5" style="fill:blue"/>
<circle cx="7204" cy="854" r="5" style="fill:blue"/>
<circle cx="6965" cy="1002" r="5" style="fill:blue"/>
<circle cx="5499" cy="5789" r="5" style="fill:blue"/>
<circle cx="536" cy="5516" r="5" style="fill:blue"/>
<circle cx="6651" cy="7523" r="5" style="fill:blue"/>
<circle cx="2283" cy="845" r="5" style="fill:blue"/>
<circle cx="3521" cy="3394" r="5" style="fill:blue"/>
<circle cx="3315" cy="6114" r="5" style="fill:blue"/>
<circle cx="5470" cy="331" r="5" style="fill:blue"/>
<circle cx="543" cy="5552" r="5" style="fill:blue"/>
<circle cx="1665" cy="7909" r="5" style="fill:blue"/>
<circle cx="698" cy="7461" r="5" style="fill:blue"/>
<circle cx="6646" cy="7414" r="5" style="fill:blue"/>
<circle cx="3007" cy="7382" r="5" style="fill:blue"/>
<circle cx="1330" cy="164" r="5" style="fill:blue"/>
<circle cx="1473" cy="335" r="5" style="fill:blue"/>
<circle cx="413" cy="2696" r="5" style="fill:blue"/>
<circle cx="3697" cy="5726" r="5" style="fill:blue"/>
<circle cx="7518" cy="5868" r="5" style="fill:blue"/>
<circle cx="1609" cy="1128" r="5" style="fill:blue"/>
<circle cx="3225" cy="3517" r="5" style="fill:blue"/>
<circle cx="4270" cy="2778" r="5" style="fill:blue"/>
<circle cx="8340" cy="1092" r="5" style="fill:blue"/>
<circle cx="7823" cy="4830" r="5" style="fill:blue"/>
<circle cx="940" cy="4844" r="5" style="fill:blue"/>
<circle cx="6188" cy="6158" r="5" style="fill:blue"/>
<circle cx="3258" cy="4026" r="5" style="fill:blue"/>
<circle cx="8133" cy="3604" r="5" style="fill:blue"/>
<circle cx="8262" cy="7502" r="5" style="fill:blue"/>
<circle cx="1637" cy="1997" r="5" style="fill:blue"/>
<circle cx="7066" cy="1827" r="5" style="fill:blue"/>
<circle cx="7447" cy="726" r="5" style="fill:blue"/>
<circle cx="5191" cy="7764" r="5" style="fill:blue"/>
<circle cx="3101" cy="1843" r="5" style="fill:blue"/>
<circle cx="6257" cy="4715" r="5" style="fill:blue"/>
<circle cx="3252" cy="2053" r="5" style="fill:blue"/>
<circle cx="6710" cy="1638" r="5" style="fill:blue"/>
<circle cx="1393" cy="1478" r="5" style="fill:blue"/>
<circle cx="3895" cy="6981" r="5" style="fill:blue"/>
<circle cx="4800" cy="310" r="5" style="fill:blue"/>
<circle cx="7727" cy="517" r="5" style="fill:blue"/>
<circle cx="5569" cy="493" r="5" style="fill:blue"/>
<circle cx="3488" cy="7226" r="5" style="fill:blue"/>
<circle cx="110" cy="6906" r="5" style="fill:blue"/>
<circle cx="6723" cy="5886" r="5" style="fill:blue"/>
<circle cx="4135" cy="2664" r="5" style="fill:blue"/>
<circle cx="987" cy="206" r="5" style="fill:blue"/>
<circle cx="5628" cy="1292" r="5" style="fill:blue"/>
<circle cx="7538" cy="3030" r="5" style="fill:blue"/>
<circle cx="2805" cy="5149" r="5" style="fill:blue"/>
<circle cx="5263" cy="4275" r="5" style="fill:blue"/>
<circle cx="7870" cy="6631" r="5" style="fill:blue"/>
<circle cx="5270" cy="3490" r="5" style="fill:blue"/>
<circle cx="663" cy="2328" r="5" style="fill:blue"/>
<circle cx="7829" cy="1284" r="5" style="fill:blue"/>
<circle cx="4328" cy="6483" r="5" style="fill:blue"/>
<circle cx="8267" cy="7182" r="5" style="fill:blue"/>
<circle cx="5943" cy="4076" r="5" style="fill:blue"/>
<circle cx="2403" cy="6624" r="5" style="fill:blue"/>
<circle cx="517" cy="6681" r="5" style="fill:blue"/>
<circle cx="8600" cy="5272" r="5" style="fill:blue"/>
<circle cx="3756" cy="2779" r="5" style="fill:blue"/>
<circle cx="6608" cy="1546" r="5" style="fill:blue"/>
<circle cx="880" cy="2595" r="5" style="fill:blue"/>
<circle cx="6955" cy="5415" r="5" style="fill:blue"/>
<circle cx="62" cy="3874" r="5" style="fill:blue"/>
<circle cx="356" cy="4352" r="5" style="fill:blue"/>
<circle cx="1500" cy="7727" r="5" style="fill:blue"/>
<circle cx="6756" cy="1001" r="5" style="fill:blue"/>
<circle cx="3808" cy="6315" r="5" style="fill:blue"/>
<circle cx="8436" cy="1404" r="5" style="fill:blue"/>
<circle cx="8244" cy="6898" r="5" style="fill:blue"/>
<circle cx="4188" cy="1933" r="5" style="fill:blue"/>
<circle cx="3539" cy="7551" r="5" style="fill:blue"/>
<circle cx="7665" cy="588" r="5" style="fill:blue"/>
<circle cx="8517" cy="1270" r="5" style="fill:blue"/>
<circle cx="857" cy="4520" r="5" style="fill:blue"/>
<circle cx="7157" cy="7067" r="5" style="fill:blue"/>
<circle cx="1611" cy="2727" r="5" style="fill:blue"/>
<circle cx="3288" cy="1199" r="5" style="fill:blue"/>
<circle cx="5944" cy="4817" r="5" style="fill:blue"/>
<circle cx="6072" cy="7173" r="5" style="fill:blue"/>
<circle cx="2895" cy="7926" r="5" style="fill:blue"/>
<circle cx="106" cy="3595" r="5" style="fill:blue"/>
<circle cx="4672" cy="914" r="5" style="fill:blue"/>
<circle cx="5468" cy="7605" r="5" style="fill:blue"/>
<circle cx="90" cy="2822" r="5" style="fill:blue"/>
<circle cx="2103" cy="6035" r="5" style="fill:blue"/>
<circle cx="732" cy="7370" r="5" style="fill:blue"/>
<circle cx="3930" cy="3386" r="5" style="fill:blue"/>
<circle cx="4629" cy="1290" r="5" style="fill:blue"/>
<circle cx="7985" cy="6417" r="5" style="fill:blue"/>
<circle cx="1438" cy="7446" r="5" style="fill:blue"/>
<circle cx="2886" cy="39" r="5" style="fill:blue"/>
<circle cx="1475" cy="7840" r="5" style="fill:blue"/>
<circle cx="5328" cy="979" r="5" style="fill:blue"/>
<circle cx="443" cy="4939" r="5" style="fill:blue"/>
<circle cx="6903" cy="6459" r="5" style="fill:blue"/>
<circle cx="4934" cy="7790" r="5" style="fill:blue"/>
<circle cx="6580" cy="6912" r="5" style="fill:blue"/>
<circle cx="8248" cy="2575" r="5" style="fill:blue"/>
<circle cx="6034" cy="7082" r="5" style="fill:blue"/>
<circle cx="5824" cy="744" r="5" style="fill:blue"/>
<circle cx="496" cy="4874" r="5" style="fill:blue"/>
<circle cx="1645" cy="3707" r="5" style="fill:blue"/>
<circle cx="5" cy="5291" r="5" style="fill:blue"/>
<circle cx="1544" cy="716" r="5" style="fill:blue"/>
<circle cx="7950" cy="4432" r="5" style="fill:blue"/>
<circle cx="3998" cy="3227" r="5" style="fill:blue"/>
<circle cx="5188" cy="3340" r="5" style="fill:blue"/>
<circle cx="2600" cy="2454" r="5" style="fill:blue"/>
<circle cx="2727" cy="5218" r="5" style="fill:blue"/>
<circle cx="2528" cy="4817" r="44" style="stroke-width:5;fill:gray;fill-opacity:0.3"/>
<circle cx="5591" cy="6541" r="80" style="stroke-width:5;fill:gray;fill-opacity:0.3"/>
<circle cx="1741" cy="5814" r="10" style="stroke-width:5;fill:gray;fill-opacity:0.3"/>
<circle cx="5869" cy="1054" r="66" style="stroke-width:5;fill:gray;fill-opacity:0.3"/>
<circle cx="5118" cy="248" r="35" style="stroke-width:5;fill:gray;fill-opacity:0.3"/>
<circle cx="5855" cy="4441" r="84" style="stroke-width:5;fill:gray;fill-opacity:0.3"/>
<circle cx="8092" cy="2164" r="57" style="stroke-width:5;fill:gray;fill-opacity:0.3"/>
<circle cx="2899" cy="4649" r="56" style="stroke-width:5;fill:gray;fill-opacity:0.3"/>
<circle cx="4309" cy="2197" r="74" style="stroke-width:5;fill:gray;fill-opacity:0.3"/>
<circle cx="5248" cy="2349" r="80" style="stroke-width:5;fill:gray;fill-opacity:0.3"/>
<circle cx="2208" cy="4928" r="60" style="stroke-width:5;fill:gray;fill-opacity:0.3"/>
<circle cx="5768" cy="2453" r="67" style="stroke-width:5;fill:gray;fill-opacity:0.3"/>
<circle cx="8436" cy="345" r="77" style="stroke-width:5;fill:gray;fill-opacity:0.3"/>
<circle cx="2089" cy="4824" r="75" style="stroke-width:5;fill:gray;fill-opacity:0.3"/>
<circle cx="1763" cy="1152" r="84" style="stroke-width:5;fill:gray;fill-opacity:0.3"/>
<circle cx="6303" cy="5728" r="45" style="stroke-width:5;fill:gray;fill-opacity:0.3"/>
<circle cx="3412" cy="2670" r="84" style="stroke-width:5;fill:gray;fill-opacity:0.3"/>
<circle cx="3433" cy="1047" r="37" style="stroke-width:5;fill:gray;fill-opacity:0.3"/>
<circle cx="7073" cy="272" r="62" style="stroke-width:5;fill:gray;fill-opacity:0.3"/>
<circle cx="2691" cy="4344" r="63" style="stroke-width:5;fill:gray;fill-opacity:0.3"/>
<circle cx="8269" cy="5875" r="5" style="stroke-width:5;fill:gray;fill-opacity:0.3"/>
<circle cx="5326" cy="6362" r="25" style="stroke-width:5;fill:gray;fill-opacity:0.3"/>
<circle cx="6834" cy="3331" r="58" style="stroke-width:5;fill:gray;fill-opacity:0.3"/>
<circle cx="2068" cy="2189" r="7" style="stroke-width:5;fill:gray;fill-opacity:0.3"/>
<circle cx="8208" cy="7840" r="75" style="stroke-width:5;fill:gray;fill-opacity:0.3"/>
<circle cx="5476" cy="5203" r="58" style="stroke-width:5;fill:gray;fill-opacity:0.3"/>
<circle cx="3260" cy="5591" r="49" style="stroke-width:5;fill:gray;fill-opacity:0.3"/>
<circle cx="4916" cy="2216" r="46" style="stroke-width:5;fill:gray;fill-opacity:0.3"/>
<circle cx="1215" cy="6180" r="27" style="stroke-width:5;fill:gray;fill-opacity:0.3"/>
<circle cx="2509" cy="2095" r="39" style="stroke-width:5;fill:gray;fill-opacity:0.3"/>
<circle cx="1679" cy="7049" r="40" style="stroke-width:5;fill:gray;fill-opacity:0.3"/>
<circle cx="2288" cy="2439" r="82" style="stroke-width:5;fill:gray;fill-opacity:0.3"/>
<circle cx="4684" cy="1738" r="76" style="stroke-width:5;fill:gray;fill-opacity:0.3"/>
<circle cx="8569" cy="6450" r="29" style="stroke-width:5;fill:gray;fill-opacity:0.3"/>
<circle cx="6844" cy="224" r="5" style="stroke-width:5;fill:gray;fill-opacity:0.3"/>
<circle cx="2048" cy="7521" r="43" style="stroke-width:5;fill:gray;fill-opacity:0.3"/>
<circle cx="117" cy="7266" r="23" style="stroke-width:5;fill:gray;fill-opacity:0.3"/>
<circle cx="6664" cy="5809" r="52" style="stroke-width:5;fill:gray;fill-opacity:0.3"/>
<circle cx="7197" cy="3957" r="69" style="stroke-width:5;fill:gray;fill-opacity:0.3"/>
<circle cx="7605" cy="4037" r="6" style="stroke-width:5;fill:gray;fill-opacity:0.3"/>
<circle cx="6417" cy="6699" r="29" style="stroke-width:5;fill:gray;fill-opacity:0.3"/>
<circle cx="4472" cy="7313" r="30" style="stroke-width:5;fill:gray;fill-opacity:0.3"/>
<circle cx="5488" cy="4505" r="79" style="stroke-width:5;fill:gray;fill-opacity:0.3"/>
<circle cx="6175" cy="3759" r="20" style="stroke-width:5;fill:gray;fill-opacity:0.3"/>
<circle cx="1226" cy="7619" r="84" style="stroke-width:5;fill:gray;fill-opacity:0.3"/>
<circle cx="1035" cy="5314" r="44" style="stroke-width:5;fill:gray;fill-opacity:0.3"/>
<circle cx="3002" cy="1113" r="66" style="stroke-width:5;fill:gray;fill-opacity:0.3"/>
<circle cx="1690" cy="5208" r="23" style="stroke-width:5;fill:gray;fill-opacity:0.3"/>
<circle cx="7100" cy="2744" r="84" style="stroke-width:5;fill:gray;fill-opacity:0.3"/>
<circle cx="8379" cy="6404" r="49" style="stroke-width:5;fill:gray;fill-opacity:0.3"/>
<circle cx="5375" cy="4187" r="9" style="stroke-width:5;fill:gray;fill-opacity:0.3"/>
<circle cx="6418" cy="3671" r="65" style="stroke-width:5;fill:gray;fill-opacity:0.3"/>
<circle cx="1348" cy="484" r="24" style="stroke-width:5;fill:gray;fill-opacity:0.3"/>
<circle cx="939" cy="1793" r="37" style="stroke-width:5;fill:gray;fill-opacity:0.3"/>
<circle cx="2883" cy="390" r="42" style="stroke-width:5;fill:gray;fill-opacity:0.3"/>
<circle cx="4536" cy="7848" r="27" style="stroke-width:5;fill:gray;fill-opacity:0.3"/>
<circle cx="7112" cy="348" r="32" style="stroke-width:5;fill:gray;fill-opacity:0.3"/>
<circle cx="6480" cy="2752" r="71" style="stroke-width:5;fill:gray;fill-opacity:0.3"/>
<circle cx="7758" cy="7165" r="64" style="stroke-width:5;fill:gray;fill-opacity:0.3"/>
<circle cx="5156" cy="1375" r="11" style="stroke-width:5;fill:gray;fill-opacity:0.3"/>
<circle cx="1239" cy="6628" r="66" style="stroke-width:5;fill:gray;fill-opacity:0.3"/>
<circle cx="7851" cy="7337" r="11" style="stroke-width:5;fill:gray;fill-opacity:0.3"/>
<circle cx="1922" cy="1835" r="66" style="stroke-width:5;fill:gray;fill-opacity:0.3"/>
<circle cx="6689" cy="6494" r="48" style="stroke-width:5;fill:gray;fill-opacity:0.3"/>
<circle cx="8643" cy="5837" r="32" style="stroke-width:5;fill:gray;fill-opacity:0.3"/>
<circle cx="285" cy="3407" r="23" style="stroke-width:5;fill:gray;fill-opacity:0.3"/>
<circle cx="3633" cy="3364" r="60" style="stroke-width:5;fill:gray;fill-opacity:0.3"/>
<circle cx="263" cy="3705" r="6" style="stroke-width:5;fill:gray;fill-opacity:0.3"/>
<circle cx="1243" cy="7204" r="82" style="stroke-width:5;fill:gray;fill-opacity:0.3"/>
<circle cx="3981" cy="6516" r="36" style="stroke-width:5;fill:gray;fill-opacity:0.3"/>
<circle cx="3461" cy="4727" r="68" style="stroke-width:5;fill:gray;fill-opacity:0.3"/>
<circle cx="4424" cy="370" r="6" style="stroke-width:5;fill:gray;fill-opacity:0.3"/>
<circle cx="7591" cy="5135" r="57" style="stroke-width:5;fill:gray;fill-opacity:0.3"/>
<circle cx="5791" cy="1441" r="76" style="stroke-width:5;fill:gray;fill-opacity:0.3"/>
<circle cx="7710" cy="5334" r="23" style="stroke-width:5;fill:gray;fill-opacity:0.3"/>
<circle cx="1073" cy="3158" r="62" style="stroke-width:5;fill:gray;fill-opacity:0.3"/>
<circle cx="4597" cy="2535" r="57" style="stroke-width:5;fill:gray;fill-opacity:0.3"/>
<circle cx="3549" cy="5653" r="15" style="stroke-width:5;fill:gray;fill-opacity:0.3"/>
<circle cx="5495" cy="6000" r="43" style="stroke-width:5;fill:gray;fill-opacity:0.3"/>
<circle cx="2828" cy="6601" r="66" style="stroke-width:5;fill:gray;fill-opacity:0.3"/>
<circle cx="477" cy="313" r="45" style="stroke-width:5;fill:gray;fill-opacity:0.3"/>
</svg>