<svg viewBox="0 0 9997 9776" xmlns="http://www.w3.org/2000/svg">
<rect height="2013" style="stroke:pink;stroke-width:10;fill:gray;fill-opacity:0.1;stroke-opacity:0.9" width="2584" x="6207" y="7288"/>
<circle cx="6256" cy="3871" r="5" style="fill:blue"/>
<circle cx="8286" cy="3145" r="5" style="fill:blue"/>
<circle cx="1526" cy="9716" r="5" style="fill:blue"/>
<circle cx="9365" cy="7222" r="5" style="fill:blue"/>
<circle cx="2816" cy="8147" r="5" style="fill:blue"/>
<circle cx="911" cy="7513" r="5" style="fill:blue"/>
<circle cx="7627" cy="1616" r="5" style="fill:blue"/>
<circle cx="294" cy="854" r="5" style="fill:blue"/>
<circle cx="9271" cy="3183" r="5" style="fill:blue"/>
<circle cx="7766" cy="1457" r="5" style="fill:blue"/>
<circle cx="1503" cy="3948" r="5" style="fill:blue"/>
<circle cx="389" cy="6073" r="5" style="fill:blue"/>
<circle cx="4174" cy="1979" r="5" style="fill:blue"/>
<circle cx="4563" cy="9732" r="5" style="fill:blue"/>
<circle cx="8082" cy="2336" r="5" style="fill:blue"/>
<circle cx="4652" cy="113" r="5" style="fill:blue"/>
<circle cx="4800" cy="1682" r="5" style="fill:blue"/>
<circle cx="9849" cy="7882" r="5" style="fill:blue"/>
<circle cx="6393" cy="1683" r="5" style="fill:blue"/>
<circle cx="2709" cy="9486" r="5" style="fill:blue"/>
<circle cx="5099" cy="2824" r="5" style="fill:blue"/>
<circle cx="1292" cy="4278" r="5" style="fill:blue"/>
<circle cx="8809" cy="5993" r="5" style="fill:blue"/>
<circle cx="8854" cy="7502" r="5" style="fill:blue"/>
<circle cx="3374" cy="9252" r="5" style="fill:blue"/>
<circle cx="3996" cy="6900" r="5" style="fill:blue"/>
<circle cx="8087" cy="3246" r="5" style="fill:blue"/>
<circle cx="8042" cy="9531" r="5" style="fill:blue"/>
<circle cx="7748" cy="6107" r="5" style="fill:blue"/>
<circle cx="790" cy="6999" r="5" style="fill:blue"/>
<circle cx="8276" cy="2897" r="5" style="fill:blue"/>
<circle cx="1136" cy="2581" r="5" style="fill:blue"/>
<circle cx="6910" cy="1018" r="5" style="fill:blue"/>
<circle cx="3354" cy="5797" r="5" style="fill:blue"/>
<circle cx="1611" cy="4079" r="5" style="fill:blue"/>
<circle cx="2103" cy="6923" r="5" style="fill:blue"/>
<circle cx="9419" cy="5558" r="5" style="fill:blue"/>
<circle cx="128" cy="874" r="5" style="fill:blue"/>
<circle cx="141" cy="7282" r="5" style="fill:blue"/>
<circle cx="6586" cy="3757" r="5" style="fill:blue"/>
<circle cx="5208" cy="4163" r="5" style="fill:blue"/>
<circle cx="6203" cy="9299" r="5" style="fill:blue"/>
<circle cx="9227" cy="6305" r="5" style="fill:blue"/>
<circle cx="6493" cy="315" r="5" style="fill:blue"/>
<circle cx="3514" cy="6201" r="5" style="fill:blue"/>
<circle cx="5640" cy="1005" r="5" style="fill:blue"/>
<circle cx="8038" cy="6818" r="5" style="fill:blue"/>
<circle cx="7863" cy="1953" r="5" style="fill:blue"/>
<circle cx="4164" cy="5977" r="5" style="fill:blue"/>
<circle cx="6667" cy="5773" r="5" style="fill:blue"/>
<circle cx="7373" cy="2701" r="5" style="fill:blue"/>
<circle cx="6192" cy="6797" r="5" style="fill:blue"/>
<circle cx="4277" cy="5257" r="5" style="fill:blue"/>
<circle cx="4131" cy="1572" r="5" style="fill:blue"/>
<circle cx="1759" cy="284" r="5" style="fill:blue"/>
<circle cx="2984" cy="1981" r="5" style="fill:blue"/>
<circle cx="8598" cy="7200" r="5" style="fill:blue"/>
<circle cx="9389" cy="1703" r="5" style="fill:blue"/>
<circle cx="2345" cy="8090" r="5" style="fill:blue"/>
<circle cx="4171" cy="3142" r="5" style="fill:blue"/>
<circle cx="4584" cy="3093" r="5" style="fill:blue"/>
<circle cx="4411" cy="6406" r="5" style="fill:blue"/>
<circle cx="2097" cy="8968" r="5" style="fill:blue"/>
<circle cx="9072" cy="128" r="5" style="fill:blue"/>
<circle cx="487" cy="7894" r="5" style="fill:blue"/>
<circle cx="9192" cy="8227" r="5" style="fill:blue"/>
<circle cx="3137" cy="838" r="5" style="fill:blue"/>
<circle cx="9493" cy="2060" r="5" style="fill:blue"/>
<circle cx="7629" cy="2344" r="5" style="fill:blue"/>
<circle cx="7104" cy="2012" r="5" style="fill:blue"/>
<circle cx="6710" cy="4323" r="5" style="fill:blue"/>
<circle cx="2840" cy="6040" r="5" style="fill:blue"/>
<circle cx="7979" cy="1974" r="5" style="fill:blue"/>
<circle cx="9377" cy="8346" r="5" style="fill:blue"/>
<circle cx="154" cy="7368" r="5" style="fill:blue"/>
<circle cx="9321" cy="3673" r="5" style="fill:blue"/>
<circle cx="1565" cy="2692" r="5" style="fill:blue"/>
<circle cx="3745" cy="817" r="5" style="fill:blue"/>
<circle cx="5135" cy="2188" r="5" style="fill:blue"/>
<circle cx="5846" cy="655" r="5" style="fill:blue"/>
<circle cx="2190" cy="5126" r="5" style="fill:blue"/>
<circle cx="8341" cy="1088" r="5" style="fill:blue"/>
<circle cx="6813" cy="6281" r="5" style="fill:blue"/>
<circle cx="4047" cy="2158" r="5" style="fill:blue"/>
<circle cx="2759" cy="9163" r="5" style="fill:blue"/>
<circle cx="3622" cy="9449" r="5" style="fill:blue"/>
<circle cx="543" cy="4364" r="5" style="fill:blue"/>
<circle cx="2283" cy="2285" r="5" style="fill:blue"/>
<circle cx="2357" cy="2066" r="5" style="fill:blue"/>
<circle cx="3394" cy="2466" r="5" style="fill:blue"/>
<circle cx="9927" cy="7415" r="5" style="fill:blue"/>
<circle cx="519" cy="5620" r="5" style="fill:blue"/>
<circle cx="4546" cy="6367" r="5" style="fill:blue"/>
<circle cx="7139" cy="5300" r="5" style="fill:blue"/>
<circle cx="5374" cy="7479" r="5" style="fill:blue"/>
<circle cx="5387" cy="7799" r="5" style="fill:blue"/>
<circle cx="1233" cy="6522" r="5" style="fill:blue"/>
<circle cx="5605" cy="1787" r="5" style="fill:blue"/>
<circle cx="9054" cy="4333" r="5" style="fill:blue"/>
<circle cx="530" cy="732" r="5" style="fill:blue"/>
<circle cx="3530" cy="1534" r="5" style="fill:blue"/>
<circle cx="7603" cy="7109" r="5" style="fill:blue"/>
<circle cx="5955" cy="2222" r="5" style="fill:blue"/>
<circle cx="1892" cy="8520" r="5" style="fill:blue"/>
<circle cx="7845" cy="6411" r="5" style="fill:blue"/>
<circle cx="8690" cy="217" r="5" style="fill:blue"/>
<circle cx="7975" cy="5499" r="5" style="fill:blue"/>
<circle cx="8226" cy="4544" r="5" style="fill:blue"/>
<circle cx="4394" cy="2642" r="5" style="fill:blue"/>
<circle cx="5221" cy="1099" r="5" style="fill:blue"/>
<circle cx="2005" cy="9763" r="5" style="fill:blue"/>
<circle cx="7103" cy="3028" r="5" style="fill:blue"/>
<circle cx="6595" cy="908" r="5" style="fill:blue"/>
<circle cx="4257" cy="8536" r="5" style="fill:blue"/>
<circle cx="8087" cy="6700" r="5" style="fill:blue"/>
<circle cx="5461" cy="2323" r="5" style="fill:blue"/>
<circle cx="812" cy="9667" r="5" style="fill:blue"/>
<circle cx="4471" cy="7912" r="5" style="fill:blue"/>
<circle cx="1496" cy="2549" r="5" style="fill:blue"/>
<circle cx="6167" cy="4554" r="5" style="fill:blue"/>
<circle cx="5804" cy="8570" r="5" style="fill:blue"/>
<circle cx="1429" cy="6222" r="5" style="fill:blue"/>
<circle cx="5112" cy="7931" r="5" style="fill:blue"/>
<circle cx="2759" cy="1593" r="5" style="fill:blue"/>
<circle cx="7593" cy="6418" r="5" style="fill:blue"/>
<circle cx="7721" cy="4384" r="5" style="fill:blue"/>
<circle cx="8797" cy="5055" r="5" style="fill:blue"/>
<circle cx="4446" cy="5113" r="5" style="fill:blue"/>
<circle cx="5824" cy="2677" r="5" style="fill:blue"/>
<circle cx="6308" cy="5416" r="5" style="fill:blue"/>
<circle cx="1218" cy="669" r="5" style="fill:blue"/>
<circle cx="7218" cy="6917" r="5" style="fill:blue"/>
<circle cx="5379" cy="7650" r="5" style="fill:blue"/>
<circle cx="8665" cy="3907" r="5" style="fill:blue"/>
<circle cx="9489" cy="7378" r="5" style="fill:blue"/>
<circle cx="6227" cy="1193" r="5" style="fill:blue"/>
<circle cx="5278" cy="7962" r="5" style="fill:blue"/>
<circle cx="2964" cy="5916" r="5" style="fill:blue"/>
<circle cx="6010" cy="6240" r="5" style="fill:blue"/>
<circle cx="7094" cy="2090" r="5" style="fill:blue"/>
<circle cx="7247" cy="9675" r="5" style="fill:blue"/>
<circle cx="9172" cy="8016" r="5" style="fill:blue"/>
<circle cx="5280" cy="1248" r="5" style="fill:blue"/>
<circle cx="835" cy="7961" r="5" style="fill:blue"/>
<circle cx="5916" cy="682" r="5" style="fill:blue"/>
<circle cx="752" cy="6864" r="5" style="fill:blue"/>
<circle cx="2305" cy="467" r="5" style="fill:blue"/>
<circle cx="5954" cy="8341" r="5" style="fill:blue"/>
<circle cx="4350" cy="2462" r="5" style="fill:blue"/>
<circle cx="5528" cy="6998" r="5" style="fill:blue"/>
<circle cx="5687" cy="2594" r="5" style="fill:blue"/>
<circle cx="1536" cy="4871" r="5" style="fill:blue"/>
<circle cx="4484" cy="5768" r="5" style="fill:blue"/>
<circle cx="4542" cy="7004" r="5" style="fill:blue"/>
<circle cx="6880" cy="7223" r="5" style="fill:blue"/>
<circle cx="4854" cy="8161" r="5" style="fill:blue"/>
<circle cx="5614" cy="8446" r="5" style="fill:blue"/>
<circle cx="3633" cy="6767" r="5" style="fill:blue"/>
<circle cx="5300" cy="6114" r="5" style="fill:blue"/>
<circle cx="3616" cy="2994" r="5" style="fill:blue"/>
<circle cx="1170" cy="4668" r="5" style="fill:blue"/>
<circle cx="5760" cy="276" r="5" style="fill:blue"/>
<circle cx="3679" cy="2529" r="5" style="fill:blue"/>
<circle cx="9508" cy="3199" r="5" style="fill:blue"/>
<circle cx="7687" cy="5758" r="5" style="fill:blue"/>
<circle cx="5964" cy="9409" r="5" style="fill:blue"/>
<circle cx="6440" cy="2525" r="5" style="fill:blue"/>
<circle cx="9574" cy="6741" r="5" style="fill:blue"/>
<circle cx="5806" cy="7081" r="5" style="fill:blue"/>
<circle cx="9844" cy="4560" r="5" style="fill:blue"/>
<circle cx="1832" cy="2957" r="5" style="fill:blue"/>
<circle cx="470" cy="9064" r="5" style="fill:blue"/>
<circle cx="3370" cy="4597" r="5" style="fill:blue"/>
<circle cx="2510" cy="4045" r="5" style="fill:blue"/>
<circle cx="8074" cy="5519" r="5" style="fill:blue"/>
<circle cx="1313" cy="8631" r="5" style="fill:blue"/>
<circle cx="3866" cy="3230" r="5" style="fill:blue"/>
<circle cx="4871" cy="6782" r="5" style="fill:blue"/>
<circle cx="9859" cy="7607" r="5" style="fill:blue"/>
<circle cx="2718" cy="1567" r="5" style="fill:blue"/>
<circle cx="7937" cy="1174" r="5" style="fill:blue"/>
<circle cx="3361" cy="8036" r="5" style="fill:blue"/>
<circle cx="5106" cy="3" r="5" style="fill:blue"/>
<circle cx="4454" cy="4266" r="5" style="fill:blue"/>
<circle cx="8913" cy="8097" r="5" style="fill:blue"/>
<circle cx="4217" cy="9684" r="5" style="fill:blue"/>
<circle cx="2064" cy="7892" r="5" style="fill:blue"/>
<circle cx="7000" cy="3585" r="5" style="fill:blue"/>
<circle cx="9358" cy="7452" r="5" style="fill:blue"/>
<circle cx="28" cy="8563" r="5" style="fill:blue"/>
<circle cx="2368" cy="8001" r="5" style="fill:blue"/>
<circle cx="5721" cy="2930" r="5" style="fill:blue"/>
<circle cx="9083" cy="7226" r="5" style="fill:blue"/>
<circle cx="1055" cy="4849" r="5" style="fill:blue"/>
<circle cx="5936" cy="8107" r="5" style="fill:blue"/>
<circle cx="5248" cy="4704" r="5" style="fill:blue"/>
<circle cx="1060" cy="7302" r="5" style="fill:blue"/>
<circle cx="1845" cy="1403" r="5" style="fill:blue"/>
<circle cx="6965" cy="832" r="5" style="fill:blue"/>
<circle cx="5126" cy="8575" r="5" style="fill:blue"/>
<circle cx="8013" cy="496" r="5" style="fill:blue"/>
<circle cx="7996" cy="798" r="5" style="fill:blue"/>
<circle cx="7129" cy="4259" r="5" style="fill:blue"/>
<circle cx="7345" cy="4490" r="5" style="fill:blue"/>
<circle cx="9689" cy="7052" r="5" style="fill:blue"/>
<circle cx="1976" cy="5424" r="5" style="fill:blue"/>
<circle cx="7272" cy="499" r="5" style="fill:blue"/>
<circle cx="8737" cy="5608" r="5" style="fill:blue"/>
<circle cx="3691" cy="4816" r="5" style="fill:blue"/>
<circle cx="1765" cy="1662" r="5" style="fill:blue"/>
<circle cx="635" cy="8123" r="5" style="fill:blue"/>
<circle cx="4190" cy="7783" r="5" style="fill:blue"/>
<circle cx="5465" cy="8606" r="5" style="fill:blue"/>
<circle cx="3173" cy="7111" r="5" style="fill:blue"/>
<circle cx="8032" cy="3142" r="5" style="fill:blue"/>
<circle cx="8928" cy="561" r="5" style="fill:blue"/>
<circle cx="5790" cy="2683" r="5" style="fill:blue"/>
<circle cx="8819" cy="6334" r="5" style="fill:blue"/>
<circle cx="6590" cy="3297" r="5" style="fill:blue"/>
<circle cx="9268" cy="306" r="5" style="fill:blue"/>
<circle cx="4256" cy="8779" r="5" style="fill:blue"/>
<circle cx="4964" cy="9057" r="5" style="fill:blue"/>
<circle cx="355" cy="5753" r="5" style="fill:blue"/>
<circle cx="594" cy="1431" r="5" style="fill:blue"/>
<circle cx="2559" cy="5487" r="5" style="fill:blue"/>
<circle cx="2016" cy="2697" r="5" style="fill:blue"/>
<circle cx="6349" cy="526" r="5" style="fill:blue"/>
<circle cx="2874" cy="3131" r="5" style="fill:blue"/>
<circle cx="9256" cy="3304" r="5" style="fill:blue"/>
<circle cx="7271" cy="5095" r="5" style="fill:blue"/>
<circle cx="3879" cy="3474" r="5" style="fill:blue"/>
<circle cx="566" cy="7316" r="5" style="fill:blue"/>
<circle cx="8307" cy="6165" r="5" style="fill:blue"/>
<circle cx="44" cy="7643" r="5" style="fill:blue"/>
<circle cx="5912" cy="4838" r="5" style="fill:blue"/>
<circle cx="4588" cy="6007" r="5" style="fill:blue"/>
<circle cx="4216" cy="7059" r="5" style="fill:blue"/>
<circle cx="8994" cy="5623" r="5" style="fill:blue"/>
<circle cx="5442" cy="4084" r="5" style="fill:blue"/>
<circle cx="292" cy="8212" r="5" style="fill:blue"/>
<circle cx="3141" cy="4650" r="5" style="fill:blue"/>
<circle cx="7549" cy="2810" r="5" style="fill:blue"/>
<circle cx="1467" cy="918" r="5" style="fill:blue"/>
<circle cx="15" cy="1043" r="5" style="fill:blue"/>
<circle cx="4080" cy="5230" r="5" style="fill:blue"/>
<circle cx="6137" cy="157" r="5" style="fill:blue"/>
<circle cx="6748" cy="6420" r="5" style="fill:blue"/>
<circle cx="4012" cy="1257" r="5" style="fill:blue"/>
<circle cx="881" cy="9684" r="5" style="fill:blue"/>
<circle cx="2444" cy="2264" r="5" style="fill:blue"/>
<circle cx="1792" cy="782" r="5" style="fill:blue"/>
<circle cx="7514" cy="2679" r="5" style="fill:blue"/>
<circle cx="8268" cy="4603" r="5" style="fill:blue"/>
<circle cx="1140" cy="3909" r="5" style="fill:blue"/>
<circle cx="6461" cy="7184" r="5" style="fill:blue"/>
<circle cx="6187" cy="6766" r="5" style="fill:blue"/>
<circle cx="1115" cy="7665" r="5" style="fill:blue"/>
<circle cx="273" cy="6910" r="5" style="fill:blue"/>
<circle cx="4066" cy="565" r="5" style="fill:blue"/>
<circle cx="4170" cy="758" r="5" style="fill:blue"/>
<circle cx="8801" cy="2105" r="5" style="fill:blue"/>
<circle cx="1302" cy="5909" r="5" style="fill:blue"/>
<circle cx="3089" cy="2684" r="5" style="fill:blue"/>
<circle cx="7082" cy="5571" r="5" style="fill:blue"/>
<circle cx="9954" cy="2622" r="5" style="fill:blue"/>
<circle cx="5370" cy="39" r="5" style="fill:blue"/>
<circle cx="6680" cy="5276" r="5" style="fill:blue"/>
<circle cx="8961" cy="561" r="5" style="fill:blue"/>
<circle cx="671" cy="6068" r="5" style="fill:blue"/>
<circle cx="2639" cy="4097" r="5" style="fill:blue"/>
<circle cx="4707" cy="1840" r="5" style="fill:blue"/>
<circle cx="9586" cy="531" r="5" style="fill:blue"/>
<circle cx="5712" cy="2229" r="5" style="fill:blue"/>
<circle cx="4454" cy="1575" r="5" style="fill:blue"/>
<circle cx="2950" cy="9417" r="5" style="fill:blue"/>
<circle cx="2967" cy="2012" r="5" style="fill:blue"/>
<circle cx="5228" cy="3374" r="5" style="fill:blue"/>
<circle cx="6877" cy="516" r="5" style="fill:blue"/>
<circle cx="1690" cy="9707" r="5" style="fill:blue"/>
<circle cx="1001" cy="1644" r="5" style="fill:blue"/>
<circle cx="6906" cy="2994" r="5" style="fill:blue"/>
<circle cx="1067" cy="8760" r="5" style="fill:blue"/>
<circle cx="9144" cy="2267" r="5" style="fill:blue"/>
<circle cx="2970" cy="5489" r="5" style="fill:blue"/>
<circle cx="5968" cy="5574" r="5" style="fill:blue"/>
<circle cx="7026" cy="4172" r="5" style="fill:blue"/>
<circle cx="9239" cy="4653" r="5" style="fill:blue"/>
<circle cx="4384" cy="8286" r="5" style="fill:blue"/>
<circle cx="8215" cy="6192" r="5" style="fill:blue"/>
<circle cx="2453" cy="2102" r="5" style="fill:blue"/>
<circle cx="5013" cy="2690" r="5" style="fill:blue"/>
<circle cx="1186" cy="2158" r="5" style="fill:blue"/>
<circle cx="1446" cy="6878" r="5" style="fill:blue"/>
<circle cx="3898" cy="1478" r="5" style="fill:blue"/>
<circle cx="2111" cy="3211" r="5" style="fill:blue"/>
<circle cx="3861" cy="9507" r="5" style="fill:blue"/>
<circle cx="1195" cy="7858" r="5" style="fill:blue"/>
<circle cx="7789" cy="448" r="5" style="fill:blue"/>
<circle cx="5355" cy="6251" r="5" style="fill:blue"/>
<circle cx="5862" cy="7622" r="5" style="fill:blue"/>
<circle cx="1962" cy="3373" r="5" style="fill:blue"/>
<circle cx="4745" cy="6228" r="5" style="fill:blue"/>
<circle cx="9811" cy="5782" r="5" style="fill:blue"/>
<circle cx="7746" cy="556" r="5" style="fill:blue"/>
<circle cx="1382" cy="8583" r="5" style="fill:blue"/>
<circle cx="6583" cy="3017" r="5" style="fill:blue"/>
<circle cx="4234" cy="4086" r="5" style="fill:blue"/>
<circle cx="5925" cy="1370" r="5" style="fill:blue"/>
<circle cx="555" cy="958" r="5" style="fill:blue"/>
<circle cx="6376" cy="4847" r="5" style="fill:blue"/>
<circle cx="315" cy="1058" r="5" style="fill:blue"/>
<circle cx="1755" cy="1855" r="5" style="fill:blue"/>
<circle cx="8320" cy="1175" r="5" style="fill:blue"/>
<circle cx="6790" cy="6075" r="5" style="fill:blue"/>
<circle cx="2335" cy="6676" r="5" style="fill:blue"/>
<circle cx="2750" cy="3112" r="5" style="fill:blue"/>
<circle cx="8597" cy="4714" r="5" style="fill:blue"/>
<circle cx="3265" cy="351" r="5" style="fill:blue"/>
<circle cx="3139" cy="2412" r="5" style="fill:blue"/>
<circle cx="4309" cy="2675" r="5" style="fill:blue"/>
<circle cx="7718" cy="7259" r="5" style="fill:blue"/>
<circle cx="8446" cy="1276" r="5" style="fill:blue"/>
<circle cx="6867" cy="4206" r="5" style="fill:blue"/>
<circle cx="1731" cy="4386" r="5" style="fill:blue"/>
<circle cx="6221" cy="6465" r="5" style="fill:blue"/>
<circle cx="5288" cy="4595" r="5" style="fill:blue"/>
<circle cx="5206" cy="6353" r="5" style="fill:blue"/>
<circle cx="800" cy="6676" r="5" style="fill:blue"/>
<circle cx="4053" cy="7534" r="5" style="fill:blue"/>
<circle cx="3460" cy="1457" r="5" style="fill:blue"/>
<circle cx="9182" cy="8565" r="5" style="fill:blue"/>
<circle cx="3716" cy="3896" r="5" style="fill:blue"/>
<circle cx="1457" cy="6434" r="5" style="fill:blue"/>
<circle cx="5061" cy="3546" r="5" style="fill:blue"/>
<circle cx="261" cy="1484" r="5" style="fill:blue"/>
<circle cx="2454" cy="6970" r="5" style="fill:blue"/>
<circle cx="9660" cy="5551" r="5" style="fill:blue"/>
<circle cx="8221" cy="4783" r="5" style="fill:blue"/>
<circle cx="8800" cy="3183" r="5" style="fill:blue"/>
<circle cx="8951" cy="1641" r="5" style="fill:blue"/>
<circle cx="8381" cy="208" r="5" style="fill:blue"/>
<circle cx="2619" cy="1797" r="5" style="fill:blue"/>
<circle cx="3319" cy="5288" r="5" style="fill:blue"/>
<circle cx="3215" cy="1543" r="5" style="fill:blue"/>
<circle cx="7523" cy="1337" r="5" style="fill:blue"/>
<circle cx="3288" cy="4538" r="5" style="fill:blue"/>
<circle cx="2124" cy="6818" r="5" style="fill:blue"/>
<circle cx="9975" cy="8230" r="5" style="fill:blue"/>
<circle cx="7127" cy="6190" r="5" style="fill:blue"/>
<circle cx="9714" cy="4978" r="5" style="fill:blue"/>
<circle cx="1228" cy="2643" r="5" style="fill:blue"/>
<circle cx="6903" cy="5829" r="5" style="fill:blue"/>
<circle cx="9537" cy="8498" r="5" style="fill:blue"/>
<circle cx="9921" cy="8882" r="5" style="fill:blue"/>
<circle cx="687" cy="909" r="5" style="fill:blue"/>
<circle cx="3513" cy="6157" r="5" style="fill:blue"/>
<circle cx="4065" cy="7298" r="5" style="fill:blue"/>
<circle cx="6617" cy="4910" r="5" style="fill:blue"/>
<circle cx="9814" cy="2411" r="5" style="fill:blue"/>
<circle cx="4886" cy="5209" r="5" style="fill:blue"/>
<circle cx="7375" cy="1311" r="5" style="fill:blue"/>
<circle cx="1674" cy="5663" r="5" style="fill:blue"/>
<circle cx="2623" cy="4698" r="5" style="fill:blue"/>
<circle cx="4967" cy="4335" r="5" style="fill:blue"/>
<circle cx="4537" cy="3789" r="5" style="fill:blue"/>
<circle cx="2059" cy="285" r="5" style="fill:blue"/>
<circle cx="2206" cy="6267" r="5" style="fill:blue"/>
<circle cx="4073" cy="3471" r="5" style="fill:blue"/>
<circle cx="262" cy="2219" r="5" style="fill:blue"/>
<circle cx="4808" cy="4301" r="5" style="fill:blue"/>
<circle cx="6956" cy="732" r="5" style="fill:blue"/>
<circle cx="6758" cy="5284" r="5" style="fill:blue"/>
<circle cx="4861" cy="1148" r="5" style="fill:blue"/>
<circle cx="6128" cy="4984" r="5" style="fill:blue"/>
<circle cx="2399" cy="491" r="5" style="fill:blue"/>
<circle cx="2842" cy="3880" r="5" style="fill:blue"/>
<circle cx="4429" cy="6518" r="5" style="fill:blue"/>
<circle cx="808" cy="9200" r="5" style="fill:blue"/>
<circle cx="4138" cy="4868" r="5" style="fill:blue"/>
<circle cx="9526" cy="7781" r="5" style="fill:blue"/>
<circle cx="5011" cy="3993" r="5" style="fill:blue"/>
<circle cx="7585" cy="1140" r="5" style="fill:blue"/>
<circle cx="5716" cy="7925" r="5" style="fill:blue"/>
<circle cx="3632" cy="6526" r="5" style="fill:blue"/>
<circle cx="2622" cy="7952" r="5" style="fill:blue"/>
<circle cx="2091" cy="7920" r="5" style="fill:blue"/>
<circle cx="4521" cy="2489" r="5" style="fill:blue"/>
<circle cx="3504" cy="8378" r="5" style="fill:blue"/>
<circle cx="3761" cy="2447" r="5" style="fill:blue"/>
<circle cx="9214" cy="131" r="5" style="fill:blue"/>
<circle cx="5142" cy="3350" r="5" style="fill:blue"/>
<circle cx="7463" cy="3138" r="5" style="fill:blue"/>
<circle cx="5190" cy="8098" r="5" style="fill:blue"/>
<circle cx="7738" cy="2315" r="5" style="fill:blue"/>
<circle cx="361" cy="2855" r="5" style="fill:blue"/>
<circle cx="6226" cy="5234" r="5" style="fill:blue"/>
<circle cx="6034" cy="4172" r="5" style="fill:blue"/>
<circle cx="2213" cy="374" r="5" style="fill:blue"/>
<circle cx="1889" cy="7928" r="5" style="fill:blue"/>
<circle cx="6959" cy="2727" r="5" style="fill:blue"/>
<circle cx="5867" cy="1818" r="5" style="fill:blue"/>
<circle cx="88" cy="2205" r="5" style="fill:blue"/>
<circle cx="7266" cy="1890" r="5" style="fill:blue"/>
<circle cx="4248" cy="1217" r="5" style="fill:blue"/>
<circle cx="4538" cy="2917" r="5" style="fill:blue"/>
<circle cx="2000" cy="6075" r="5" style="fill:blue"/>
<circle cx="8183" cy="9556" r="5" style="fill:blue"/>
<circle cx="970" cy="497" r="5" style="fill:blue"/>
<circle cx="2512" cy="3547" r="5" style="fill:blue"/>
<circle cx="5965" cy="3865" r="5" style="fill:blue"/>
<circle cx="6205" cy="8749" r="5" style="fill:blue"/>
<circle cx="2618" cy="3883" r="5" style="fill:blue"/>
<circle cx="7037" cy="5608" r="5" style="fill:blue"/>
<circle cx="2764" cy="2315" r="5" style="fill:blue"/>
<circle cx="444" cy="3572" r="5" style="fill:blue"/>
<circle cx="5172" cy="8934" r="5" style="fill:blue"/>
<circle cx="7719" cy="6819" r="5" style="fill:blue"/>
<circle cx="6287" cy="4123" r="5" style="fill:blue"/>
<circle cx="559" cy="7020" r="5" style="fill:blue"/>
<circle cx="6244" cy="6797" r="5" style="fill:blue"/>
<circle cx="8481" cy="2082" r="5" style="fill:blue"/>
<circle cx="3330" cy="34" r="5" style="fill:blue"/>
<circle cx="7483" cy="6927" r="5" style="fill:blue"/>
<circle cx="9883" cy="7023" r="5" style="fill:blue"/>
<circle cx="3033" cy="4755" r="5" style="fill:blue"/>
<circle cx="3698" cy="1620" r="5" style="fill:blue"/>
<circle cx="8221" cy="1096" r="5" style="fill:blue"/>
<circle cx="6934" cy="60" r="5" style="fill:blue"/>
<circle cx="8010" cy="9528" r="5" style="fill:blue"/>
<circle cx="1399" cy="412" r="5" style="fill:blue"/>
<circle cx="1468" cy="9469" r="5" style="fill:blue"/>
<circle cx="3310" cy="7538" r="5" style="fill:blue"/>
<circle cx="377" cy="5367" r="5" style="fill:blue"/>
<circle cx="2768" cy="3051" r="5" style="fill:blue"/>
<circle cx="142" cy="1003" r="5" style="fill:blue"/>
<circle cx="8481" cy="1674" r="5" style="fill:blue"/>
<circle cx="1739" cy="315" r="5" style="fill:blue"/>
<circle cx="6199" cy="2964" r="5" style="fill:blue"/>
<circle cx="9180" cy="5605" r="5" style="fill:blue"/>
<circle cx="3093" cy="2715" r="5" style="fill:blue"/>
<circle cx="1099" cy="6416" r="5" style="fill:blue"/>
<circle cx="9020" cy="9278" r="5" style="fill:blue"/>
<circle cx="3964" cy="5795" r="5" style="fill:blue"/>
<circle cx="6964" cy="4072" r="5" style="fill:blue"/>
<circle cx="7680" cy="4586" r="5" style="fill:blue"/>
<circle cx="2529" cy="3103" r="5" style="fill:blue"/>
<circle cx="8760" cy="1874" r="5" style="fill:blue"/>
<circle cx="1206" cy="1296" r="5" style="fill:blue"/>
<circle cx="9313" cy="8686" r="5" style="fill:blue"/>
<circle cx="8393" cy="4277" r="5" style="fill:blue"/>
<circle cx="74" cy="4311" r="5" style="fill:blue"/>
<circle cx="7922" cy="1869" r="5" style="fill:blue"/>
<circle cx="9440" cy="2103" r="5" style="fill:blue"/>
<circle cx="5431" cy="3008" r="5" style="fill:blue"/>
<circle cx="521" cy="3759" r="5" style="fill:blue"/>
<circle cx="7190" cy="3789" r="5" style="fill:blue"/>
<circle cx="6926" cy="5130" r="5" style="fill:blue"/>
<circle cx="3370" cy="2433" r="5" style="fill:blue"/>
<circle cx="8854" cy="7249" r="5" style="fill:blue"/>
<circle cx="9643" cy="7003" r="5" style="fill:blue"/>
<circle cx="3292" cy="6185" r="5" style="fill:blue"/>
<circle cx="3689" cy="3799" r="5" style="fill:blue"/>
<circle cx="3701" cy="3475" r="5" style="fill:blue"/>
<circle cx="6156" cy="2757" r="5" style="fill:blue"/>
<circle cx="5282" cy="1173" r="5" style="fill:blue"/>
<circle cx="7791" cy="6989" r="5" style="fill:blue"/>
<circle cx="7542" cy="3301" r="5" style="fill:blue"/>
<circle cx="2636" cy="6328" r="5" style="fill:blue"/>
<circle cx="9005" cy="7469" r="5" style="fill:blue"/>
<circle cx="2829" cy="4437" r="5" style="fill:blue"/>
<circle cx="7786" cy="1099" r="5" style="fill:blue"/>
<circle cx="2466" cy="7413" r="5" style="fill:blue"/>
<circle cx="1951" cy="2672" r="5" style="fill:blue"/>
<circle cx="4561" cy="6138" r="5" style="fill:blue"/>
<circle cx="8770" cy="4252" r="5" style="fill:blue"/>
<circle cx="429" cy="7709" r="5" style="fill:blue"/>
<circle cx="55" cy="8922" r="5" style="fill:blue"/>
<circle cx="1726" cy="3494" r="5" style="fill:blue"/>
<circle cx="7671" cy="1132" r="5" style="fill:blue"/>
<circle cx="3767" cy="524" r="5" style="fill:blue"/>
<circle cx="4826" cy="9458" r="5" style="fill:blue"/>
<circle cx="3042" cy="7529" r="5" style="fill:blue"/>
<circle cx="3163" cy="7546" r="5" style="fill:blue"/>
<circle cx="4365" cy="5284" r="5" style="fill:blue"/>
<circle cx="5764" cy="9033" r="5" style="fill:blue"/>
<circle cx="7886" cy="4818" r="5" style="fill:blue"/>
<circle cx="2844" cy="3038" r="5" style="fill:blue"/>
<circle cx="6566" cy="4935" r="5" style="fill:blue"/>
<circle cx="5427" cy="8747" r="5" style="fill:blue"/>
<circle cx="2108" cy="1821" r="5" style="fill:blue"/>
<circle cx="2396" cy="8585" r="5" style="fill:blue"/>
<circle cx="2171" cy="9686" r="5" style="fill:blue"/>
<circle cx="9744" cy="128" r="5" style="fill:blue"/>
<circle cx="8416" cy="804" r="5" style="fill:blue"/>
<circle cx="7426" cy="2872" r="5" style="fill:blue"/>
<circle cx="1655" cy="4343" r="5" style="fill:blue"/>
<circle cx="2778" cy="4830" r="5" style="fill:blue"/>
<circle cx="6871" cy="6734" r="5" style="fill:blue"/>
<circle cx="3727" cy="2303" r="5" style="fill:blue"/>
<circle cx="2848" cy="4597" r="5" style="fill:blue"/>
<circle cx="2094" cy="3000" r="5" style="fill:blue"/>
<circle cx="7315" cy="9699" r="5" style="fill:blue"/>
<circle cx="7858" cy="6109" r="5" style="fill:blue"/>
<circle cx="2011" cy="7781" r="5" style="fill:blue"/>
<circle cx="9243" cy="4516" r="5" style="fill:blue"/>
<circle cx="1560" cy="1619" r="5" style="fill:blue"/>
<circle cx="5952" cy="7151" r="5" style="fill:blue"/>
<circle cx="5791" cy="7024" r="5" style="fill:blue"/>
<circle cx="7648" cy="1630" r="5" style="fill:blue"/>
<circle cx="9065" cy="2901" r="5" style="fill:blue"/>
<circle cx="9550" cy="2315" r="5" style="fill:blue"/>
<circle cx="5915" cy="6971" r="5" style="fill:blue"/>
<circle cx="5960" cy="4268" r="5" style="fill:blue"/>
<circle cx="1146" cy="4581" r="5" style="fill:blue"/>
<circle cx="1756" cy="3163" r="5" style="fill:blue"/>
<circle cx="7031" cy="1864" r="5" style="fill:blue"/>
<circle cx="1525" cy="8541" r="5" style="fill:blue"/>
<circle cx="6563" cy="4655" r="5" style="fill:blue"/>
<circle cx="700" cy="6413" r="5" style="fill:blue"/>
<circle cx="9536" cy="6179" r="5" style="fill:blue"/>
<circle cx="789" cy="8975" r="5" style="fill:blue"/>
<circle cx="7542" cy="5526" r="5" style="fill:blue"/>
<circle cx="3594" cy="4003" r="5" style="fill:blue"/>
<circle cx="9223" cy="5546" r="5" style="fill:blue"/>
<circle cx="9400" cy="2749" r="5" style="fill:blue"/>
<circle cx="1558" cy="7931" r="5" style="fill:blue"/>
<circle cx="8005" cy="6237" r="5" style="fill:blue"/>
<circle cx="1187" cy="2237" r="5" style="fill:blue"/>
<circle cx="6156" cy="5293" r="5" style="fill:blue"/>
<circle cx="3016" cy="8155" r="5" style="fill:blue"/>
<circle cx="3630" cy="6502" r="5" style="fill:blue"/>
<circle cx="3834" cy="135" r="5" style="fill:blue"/>
<circle cx="7795" cy="193" r="5" style="fill:blue"/>
<circle cx="2049" cy="6662" r="5" style="fill:blue"/>
<circle cx="5249" cy="1464" r="5" style="fill:blue"/>
<circle cx="1721" cy="3094" r="5" style="fill:blue"/>
<circle cx="5799" cy="5349" r="5" style="fill:blue"/>
<circle cx="2122" cy="1097" r="5" style="fill:blue"/>
<circle cx="9166" cy="3961" r="5" style="fill:blue"/>
<circle cx="5767" cy="7572" r="5" style="fill:blue"/>
<circle cx="2813" cy="1348" r="5" style="fill:blue"/>
<circle cx="5836" cy="6779" r="5" style="fill:blue"/>
<circle cx="9245" cy="7151" r="5" style="fill:blue"/>
<circle cx="5617" cy="4049" r="5" style="fill:blue"/>
<circle cx="597" cy="5218" r="5" style="fill:blue"/>
<circle cx="7195" cy="9456" r="5" style="fill:blue"/>
<circle cx="5246" cy="3161" r="5" style="fill:blue"/>
<circle cx="3096" cy="2846" r="5" style="fill:blue"/>
<circle cx="4541" cy="6458" r="5" style="fill:blue"/>
<circle cx="8037" cy="2945" r="5" style="fill:blue"/>
<circle cx="3984" cy="4028" r="5" style="fill:blue"/>
<circle cx="8937" cy="9048" r="5" style="fill:blue"/>
<circle cx="383" cy="7859" r="5" style="fill:blue"/>
<circle cx="7683" cy="4668" r="5" style="fill:blue"/>
<circle cx="8622" cy="6553" r="5" style="fill:blue"/>
<circle cx="9298" cy="159" r="5" style="fill:blue"/>
<circle cx="5954" cy="772" r="5" style="fill:blue"/>
<circle cx="6041" cy="4089" r="5" style="fill:blue"/>
<circle cx="8554" cy="3838" r="5" style="fill:blue"/>
<circle cx="4213" cy="4412" r="5" style="fill:blue"/>
<circle cx="1635" cy="3064" r="5" style="fill:blue"/>
<circle cx="6671" cy="4362" r="5" style="fill:blue"/>
<circle cx="6052" cy="1827" r="5" style="fill:blue"/>
<circle cx="6950" cy="5629" r="5" style="fill:blue"/>
<circle cx="9737" cy="3319" r="5" style="fill:blue"/>
<circle cx="2190" cy="2031" r="5" style="fill:blue"/>
<circle cx="1297" cy="3870" r="5" style="fill:blue"/>
<circle cx="7420" cy="1620" r="5" style="fill:blue"/>
<circle cx="3283" cy="6189" r="5" style="fill:blue"/>
<circle cx="1718" cy="3437" r="5" style="fill:blue"/>
<circle cx="1351" cy="4011" r="5" style="fill:blue"/>
<circle cx="9023" cy="9607" r="5" style="fill:blue"/>
<circle cx="3532" cy="5735" r="5" style="fill:blue"/>
<circle cx="14" cy="7596" r="5" style="fill:blue"/>
<circle cx="7711" cy="3733" r="5" style="fill:blue"/>
<circle cx="2747" cy="1007" r="5" style="fill:blue"/>
<circle cx="9759" cy="1883" r="5" style="fill:blue"/>
<circle cx="2840" cy="5215" r="5" style="fill:blue"/>
<circle cx="1491" cy="745" r="5" style="fill:blue"/>
<circle cx="4652" cy="2565" r="5" style="fill:blue"/>
<circle cx="1936" cy="8963" r="5" style="fill:blue"/>
<circle cx="814" cy="4051" r="5" style="fill:blue"/>
<circle cx="1755" cy="2345" r="5" style="fill:blue"/>
<circle cx="7580" cy="7185" r="5" style="fill:blue"/>
<circle cx="7683" cy="5856" r="5" style="fill:blue"/>
<circle cx="4207" cy="7420" r="5" style="fill:blue"/>
<circle cx="2004" cy="5089" r="5" style="fill:blue"/>
<circle cx="568" cy="4748" r="5" style="fill:blue"/>
<circle cx="8255" cy="2466" r="5" style="fill:blue"/>
<circle cx="7840" cy="4708" r="5" style="fill:blue"/>
<circle cx="9924" cy="7660" r="5" style="fill:blue"/>
<circle cx="1137" cy="1375" r="5" style="fill:blue"/>
<circle cx="4218" cy="4082" r="5" style="fill:blue"/>
<circle cx="7598" cy="9717" r="5" style="fill:blue"/>
<circle cx="3277" cy="6870" r="5" style="fill:blue"/>
<circle cx="3253" cy="3919" r="5" style="fill:blue"/>
<circle cx="1783" cy="7071" r="5" style="fill:blue"/>
<circle cx="2308" cy="7281" r="5" style="fill:blue"/>
<circle cx="3456" cy="4084" r="5" style="fill:blue"/>
<circle cx="3052" cy="9191" r="5" style="fill:blue"/>
<circle cx="1645" cy="6231" r="5" style="fill:blue"/>
<circle cx="7749" cy="3616" r="5" style="fill:blue"/>
<circle cx="6296" cy="5566" r="5" style="fill:blue"/>
<circle cx="3444" cy="7503" r="5" style="fill:blue"/>
<circle cx="1373" cy="9559" r="5" style="fill:blue"/>
<circle cx="9404" cy="3217" r="5" style="fill:blue"/>
<circle cx="1893" cy="5361" r="5" style="fill:blue"/>
<circle cx="9314" cy="6471" r="5" style="fill:blue"/>
<circle cx="6750" cy="4212" r="5" style="fill:blue"/>
<circle cx="896" cy="2643" r="5" style="fill:blue"/>
<circle cx="4654" cy="1859" r="5" style="fill:blue"/>
<circle cx="5455" cy="3992" r="5" style="fill:blue"/>
<circle cx="2445" cy="1580" r="5" style="fill:blue"/>
<circle cx="664" cy="6108" r="5" style="fill:blue"/>
<circle cx="2456" cy="276" r="5" style="fill:blue"/>
<circle cx="3177" cy="8465" r="5" style="fill:blue"/>
<circle cx="3945" cy="6631" r="5" style="fill:blue"/>
<circle cx="7093" cy="6956" r="5" style="fill:blue"/>
<circle cx="7123" cy="754" r="5" style="fill:blue"/>
<circle cx="9385" cy="8604" r="5" style="fill:blue"/>
<circle cx="712" cy="8813" r="5" style="fill:blue"/>
<circle cx="9428" cy="747" r="5" style="fill:blue"/>
<circle cx="3188" cy="7082" r="5" style="fill:blue"/>
<circle cx="6617" cy="3842" r="5" style="fill:blue"/>
<circle cx="8931" cy="5630" r="5" style="fill:blue"/>
<circle cx="3826" cy="6800" r="5" style="fill:blue"/>
<circle cx="6051" cy="7627" r="5" style="fill:blue"/>
<circle cx="506" cy="5979" r="5" style="fill:blue"/>
<circle cx="449" cy="8547" r="5" style="fill:blue"/>
<circle cx="7593" cy="3047" r="5" style="fill:blue"/>
<circle cx="3861" cy="5458" r="5" style="fill:blue"/>
<circle cx="2909" cy="1357" r="5" style="fill:blue"/>
<circle cx="3625" cy="9132" r="5" style="fill:blue"/>
<circle cx="2877" cy="7924" r="5" style="fill:blue"/>
<circle cx="7911" cy="809" r="5" style="fill:blue"/>
<circle cx="8851" cy="6963" r="5" style="fill:blue"/>
<circle cx="9721" cy="5660" r="5" style="fill:blue"/>
<circle cx="5003" cy="1759" r="5" style="fill:blue"/>
<circle cx="2838" cy="6751" r="5" style="fill:blue"/>
<circle cx="7285" cy="5641" r="5" style="fill:blue"/>
<circle cx="1780" cy="1703" r="5" style="fill:blue"/>
<circle cx="4716" cy="2323" r="5" style="fill:blue"/>
<circle cx="237" cy="2841" r="5" style="fill:blue"/>
<circle cx="3358" cy="8582" r="5" style="fill:blue"/>
<circle cx="6841" cy="2641" r="5" style="fill:blue"/>
<circle cx="2549" cy="4083" r="5" style="fill:blue"/>
<circle cx="236" cy="8359" r="5" style="fill:blue"/>
<circle cx="9690" cy="5834" r="5" style="fill:blue"/>
<circle cx="2985" cy="729" r="5" style="fill:blue"/>
<circle cx="8840" cy="3631" r="5" style="fill:blue"/>
<circle cx="46" cy="683" r="5" style="fill:blue"/>
<circle cx="3744" cy="4387" r="5" style="fill:blue"/>
<circle cx="8510" cy="3676" r="5" style="fill:blue"/>
<circle cx="8912" cy="5055" r="5" style="fill:blue"/>
<circle cx="3016" cy="8705" r="5" style="fill:blue"/>
<circle cx="1321" cy="664" r="5" style="fill:blue"/>
<circle cx="5452" cy="6035" r="5" style="fill:blue"/>
<circle cx="4136" cy="4082" r="5" style="fill:blue"/>
<circle cx="309" cy="3039" r="5" style="fill:blue"/>
<circle cx="557" cy="9473" r="5" style="fill:blue"/>
<circle cx="762" cy="695" r="5" style="fill:blue"/>
<circle cx="8403" cy="5593" r="5" style="fill:blue"/>
<circle cx="7250" cy="3136" r="5" style="fill:blue"/>
<circle cx="1098" cy="7075" r="5" style="fill:blue"/>
<circle cx="9309" cy="4023" r="5" style="fill:blue"/>
<circle cx="4480" cy="5982" r="5" style="fill:blue"/>
<circle cx="7358" cy="4811" r="5" style="fill:blue"/>
<circle cx="941" cy="1383" r="5" style="fill:blue"/>
<circle cx="7044" cy="5914" r="5" style="fill:blue"/>
<circle cx="3872" cy="6054" r="5" style="fill:blue"/>
<circle cx="1498" cy="1672" r="5" style="fill:blue"/>
<circle cx="4352" cy="7331" r="5" style="fill:blue"/>
<circle cx="1773" cy="6987" r="5" style="fill:blue"/>
<circle cx="3011" cy="7618" r="5" style="fill:blue"/>
<circle cx="2203" cy="7098" r="5" style="fill:blue"/>
<circle cx="2876" cy="7181" r="5" style="fill:blue"/>
<circle cx="23" cy="9442" r="5" style="fill:blue"/>
<circle cx="1413" cy="7920" r="5" style="fill:blue"/>
<circle cx="5387" cy="5581" r="5" style="fill:blue"/>
<circle cx="5089" cy="2090" r="5" style="fill:blue"/>
<circle cx="7540" cy="4218" r="5" style="fill:blue"/>
<circle cx="2820" cy="77" r="5" style="fill:blue"/>
<circle cx="6412" cy="6416" r="5" style="fill:blue"/>
<circle cx="2174" cy="3702" r="5" style="fill:blue"/>
<circle cx="9138" cy="5682" r="5" style="fill:blue"/>
<circle cx="7941" cy="5523" r="5" style="fill:blue"/>
<circle cx="9009" cy="1512" r="5" style="fill:blue"/>
<circle cx="4407" cy="9123" r="5" style="fill:blue"/>
<circle cx="7270" cy="7030" r="5" style="fill:blue"/>
<circle cx="7108" cy="9348" r="5" style="fill:blue"/>
<circle cx="5335" cy="752" r="5" style="fill:blue"/>
<circle cx="4659" cy="9151" r="5" style="fill:blue"/>
<circle cx="5366" cy="441" r="5" style="fill:blue"/>
<circle cx="1195" cy="5786" r="5" style="fill:blue"/>
<circle cx="176" cy="4000" r="5" style="fill:blue"/>
<circle cx="1000" cy="4331" r="5" style="fill:blue"/>
<circle cx="9137" cy="5492" r="5" style="fill:blue"/>
<circle cx="9817" cy="4219" r="5" style="fill:blue"/>
<circle cx="4718" cy="8879" r="5" style="fill:blue"/>
<circle cx="8299" cy="1291" r="5" style="fill:blue"/>
<circle cx="2871" cy="1991" r="80" style="stroke-width:5;fill:gray;fill-opacity:0.3"/>
<circle cx="3202" cy="8774" r="7" style="stroke-width:5;fill:gray;fill-opacity:0.3"/>
<circle cx="9226" cy="7231" r="48" style="stroke-width:5;fill:gray;fill-opacity:0.3"/>
<circle cx="2562" cy="8595" r="28" style="stroke-width:5;fill:gray;fill-opacity:0.3"/>
<circle cx="9313" cy="1168" r="80" style="stroke-width:5;fill:gray;fill-opacity:0.3"/>
<circle cx="4472" cy="5689" r="62" style="stroke-width:5;fill:gray;fill-opacity:0.3"/>
<circle cx="413" cy="1535" r="17" style="stroke-width:5;fill:gray;fill-opacity:0.3"/>
<circle cx="8769" cy="1977" r="55" style="stroke-width:5;fill:gray;fill-opacity:0.3"/>
<circle cx="1410" cy="1784" r="59" style="stroke-width:5;fill:gray;fill-opacity:0.3"/>
<circle cx="6531" cy="2601" r="29" style="stroke-width:5;fill:gray;fill-opacity:0.3"/>
<circle cx="724" cy="2814" r="9" style="stroke-width:5;fill:gray;fill-opacity:0.3"/>
<circle cx="248" cy="3503" r="47" style="stroke-width:5;fill:gray;fill-opacity:0.3"/>
<circle cx="2474" cy="7929" r="60" style="stroke-width:5;fill:gray;fill-opacity:0.3"/>
<circle cx="5791" cy="5870" r="44" style="stroke-width:5;fill:gray;fill-opacity:0.3"/>
<circle cx="6339" cy="1718" r="48" style="stroke-width:5;fill:gray;fill-opacity:0.3"/>
<circle cx="720" cy="1482" r="41" style="stroke-width:5;fill:gray;fill-opacity:0.3"/>
<circle cx="6970" cy="2286" r="76" style="stroke-width:5;fill:gray;fill-opacity:0.3"/>
<circle cx="5308" cy="5817" r="61" style="stroke-width:5;fill:gray;fill-opacity:0.3"/>
<circle cx="3587" cy="1440" r="74" style="stroke-width:5;fill:gray;fill-opacity:0.3"/>
<circle cx="4511" cy="4754" r="44" style="stroke-width:5;fill:gray;fill-opacity:0.3"/>
<circle cx="2005" cy="1779" r="80" style="stroke-width:5;fill:gray;fill-opacity:0.3"/>
<circle cx="286" cy="36" r="13" style="stroke-width:5;fill:gray;fill-opacity:0.3"/>
<circle cx="4367" cy="8954" r="50" style="stroke-width:5;fill:gray;fill-opacity:0.3"/>
<circle cx="2638" cy="8864" r="84" style="stroke-width:5;fill:gray;fill-opacity:0.3"/>
<circle cx="8800" cy="2980" r="52" style="stroke-width:5;fill:gray;fill-opacity:0.3"/>
<circle cx="3704" cy="9351" r="62" style="stroke-width:5;fill:gray;fill-opacity:0.3"/>
<circle cx="2893" cy="4420" r="43" style="stroke-width:5;fill:gray;fill-opacity:0.3"/>
<circle cx="7095" cy="2527" r="72" style="stroke-width:5;fill:gray;fill-opacity:0.3"/>
<circle cx="3828" cy="3135" r="51" style="stroke-width:5;fill:gray;fill-opacity:0.3"/>
<circle cx="3024" cy="223" r="30" style="stroke-width:5;fill:gray;fill-opacity:0.3"/>
<circle cx="2670" cy="391" r="81" style="stroke-width:5;fill:gray;fill-opacity:0.3"/>
<circle cx="4739" cy="9463" r="16" style="stroke-width:5;fill:gray;fill-opacity:0.3"/>
<circle cx="2878" cy="8934" r="42" style="stroke-width:5;fill:gray;fill-opacity:0.3"/>
<circle cx="9548" cy="451" r="76" style="stroke-width:5;fill:gray;fill-opacity:0.3"/>
<circle cx="1498" cy="9171" r="84" style="stroke-width:5;fill:gray;fill-opacity:0.3"/>
<circle cx="1494" cy="2201" r="48" style="stroke-width:5;fill:gray;fill-opacity:0.3"/>
<circle cx="4275" cy="324" r="19" style="stroke-width:5;fill:gray;fill-opacity:0.3"/>
<circle cx="6130" cy="8708" r="32" style="stroke-width:5;fill:gray;fill-opacity:0.3"/>
<circle cx="6082" cy="4038" r="59" style="stroke-width:5;fill:gray;fill-opacity:0.3"/>
<circle cx="7612" cy="5460" r="12" style="stroke-width:5;fill:gray;fill-opacity:0.3"/>
<circle cx="6837" cy="989" r="36" style="stroke-width:5;fill:gray;fill-opacity:0.3"/>
<circle cx="937" cy="7726" r="11" style="stroke-width:5;fill:gray;fill-opacity:0.3"/>
<circle cx="8995" cy="4947" r="74" style="stroke-width:5;fill:gray;fill-opacity:0.3"/>
<circle cx="7592" cy="4976" r="6" style="stroke-width:5;fill:gray;fill-opacity:0.3"/>
<circle cx="4407" cy="8984" r="48" style="stroke-width:5;fill:gray;fill-opacity:0.3"/>
<circle cx="4687" cy="5006" r="78" style="stroke-width:5;fill:gray;fill-opacity:0.3"/>
<circle cx="99" cy="1770" r="43" style="stroke-width:5;fill:gray;fill-opacity:0.3"/>
<circle cx="5495" cy="7814" r="84" style="stroke-width:5;fill:gray;fill-opacity:0.3"/>
<circle cx="6306" cy="1294" r="26" style="stroke-width:5;fill:gray;fill-opacity:0.3"/>
<circle cx="2679" cy="5943" r="74" style="stroke-width:5;fill:gray;fill-opacity:0.3"/>
<circle cx="1920" cy="7428" r="72" style="stroke-width:5;fill:gray;fill-opacity:0.3"/>
<circle cx="5128" cy="8245" r="27" style="stroke-width:5;fill:gray;fill-opacity:0.3"/>
<circle cx="8685" cy="5006" r="6" style="stroke-width:5;fill:gray;fill-opacity:0.3"/>
<circle cx="3497" cy="5052" r="61" style="stroke-width:5;fill:gray;fill-opacity:0.3"/>
<circle cx="6946" cy="477" r="58" style="stroke-width:5;fill:gray;fill-opacity:0.3"/>
<circle cx="3425" cy="5080" r="80" style="stroke-width:5;fill:gray;fill-opacity:0.3"/>
<circle cx="892" cy="7942" r="58" style="stroke-width:5;fill:gray;fill-opacity:0.3"/>
<circle cx="2300" cy="6720" r="28" style="stroke-width:5;fill:gray;fill-opacity:0.3"/>
<circle cx="1585" cy="4932" r="43" style="stroke-width:5;fill:gray;fill-opacity:0.3"/>
<circle cx="1922" cy="2920" r="39" style="stroke-width:5;fill:gray;fill-opacity:0.3"/>
<circle cx="140" cy="7662" r="43" style="stroke-width:5;fill:gray;fill-opacity:0.3"/>
<circle cx="8249" cy="1947" r="38" style="stroke-width:5;fill:gray;fill-opacity:0.3"/>
<circle cx="4468" cy="7383" r="80" style="stroke-width:5;fill:gray;fill-opacity:0.3"/>
<circle cx="6716" cy="5190" r="34" style="stroke-width:5;fill:gray;fill-opacity:0.3"/>
<circle cx="8957" cy="5215" r="63" style="stroke-width:5;fill:gray;fill-opacity:0.3"/>
<circle cx="2774" cy="7984" r="48" style="stroke-width:5;fill:gray;fill-opacity:0.3"/>
<circle cx="957" cy="647" r="21" style="stroke-width:5;fill:gray;fill-opacity:0.3"/>
<circle cx="1841" cy="7816" r="35" style="stroke-width:5;fill:gray;fill-opacity:0.3"/>
<circle cx="3359" cy="4686" r="72" style="stroke-width:5;fill:gray;fill-opacity:0.3"/>
<circle cx="2381" cy="8910" r="83" style="stroke-width:5;fill:gray;fill-opacity:0.3"/>
<circle cx="6524" cy="2776" r="41" style="stroke-width:5;fill:gray;fill-opacity:0.3"/>
<circle cx="6071" cy="1487" r="79" style="stroke-width:5;fill:gray;fill-opacity:0.3"/>
<circle cx="4126" cy="6107" r="56" style="stroke-width:5;fill:gray;fill-opacity:0.3"/>
<circle cx="9547" cy="8192" r="36" style="stroke-width:5;fill:gray;fill-opacity:0.3"/>
<circle cx="9281" cy="2608" r="67" style="stroke-width:5;fill:gray;fill-opacity:0.3"/>
<circle cx="2956" cy="7191" r="19" style="stroke-width:5;fill:gray;fill-opacity:0.3"/>
<circle cx="4300" cy="4318" r="15" style="stroke-width:5;fill:gray;fill-opacity:0.3"/>
<circle cx="2494" cy="8558" r="32" style="stroke-width:5;fill:gray;fill-opacity:0.3"/>
<circle cx="5160" cy="1967" r="36" style="stroke-width:5;fill:gray;fill-opacity:0.3"/>
<circle cx="3298" cy="2253" r="80" style="stroke-width:5;fill:gray;fill-opacity:0.3"/>
<circle cx="9618" cy="3791" r="16" style="stroke-width:5;fill:gray;fill-opacity:0.3"/>
<circle cx="3237" cy="8386" r="15" style="stroke-width:5;fill:gray;fill-opacity:0.3"/>
<circle cx="9687" cy="2599" r="8" style="stroke-width:5;fill:gray;fill-opacity:0.3"/>
<circle cx="7900" cy="4987" r="76" style="stroke-width:5;fill:gray;fill-opacity:0.3"/>
<circle cx="1987" cy="928" r="7" style="stroke-width:5;fill:gray;fill-opacity:0.3"/>
<circle cx="2709" cy="8549" r="61" style="stroke-width:5;fill:gray;fill-opacity:0.3"/>
</svg>