<svg viewBox="0 0 4544 3526" xmlns="http://www.w3.org/2000/svg">
<rect height="992" style="stroke:pink;stroke-width:10;fill:gray;fill-opacity:0.1;stroke-opacity:0.9" width="137" x="2559" y="2079"/>
<circle cx="262" cy="1276" r="5" style="fill:blue"/>
<circle cx="3723" cy="2739" r="5" style="fill:blue"/>
<circle cx="1753" cy="1650" r="5" style="fill:blue"/>
<circle cx="1066" cy="1675" r="5" style="fill:blue"/>
<circle cx="1661" cy="91" r="5" style="fill:blue"/>
<circle cx="4503" cy="3522" r="5" style="fill:blue"/>
<circle cx="2869" cy="2472" r="5" style="fill:blue"/>
<circle cx="3781" cy="484" r="5" style="fill:blue"/>
<circle cx="1541" cy="3156" r="5" style="fill:blue"/>
<circle cx="3451" cy="1333" r="5" style="fill:blue"/>
<circle cx="4476" cy="2334" r="5" style="fill:blue"/>
<circle cx="187" cy="3503" r="5" style="fill:blue"/>
<circle cx="1628" cy="3366" r="5" style="fill:blue"/>
<circle cx="2668" cy="1775" r="5" style="fill:blue"/>
<circle cx="69" cy="1827" r="5" style="fill:blue"/>
<circle cx="336" cy="699" r="5" style="fill:blue"/>
<circle cx="3463" cy="1363" r="5" style="fill:blue"/>
<circle cx="3111" cy="1373" r="5" style="fill:blue"/>
<circle cx="100" cy="3139" r="5" style="fill:blue"/>
<circle cx="3705" cy="3384" r="5" style="fill:blue"/>
<circle cx="3864" cy="2222" r="5" style="fill:blue"/>
<circle cx="1376" cy="1720" r="5" style="fill:blue"/>
<circle cx="2383" cy="618" r="5" style="fill:blue"/>
<circle cx="2203" cy="1497" r="5" style="fill:blue"/>
<circle cx="1352" cy="2359" r="5" style="fill:blue"/>
<circle cx="3147" cy="1268" r="5" style="fill:blue"/>
<circle cx="4297" cy="454" r="5" style="fill:blue"/>
<circle cx="2317" cy="497" r="5" style="fill:blue"/>
<circle cx="712" cy="2797" r="5" style="fill:blue"/>
<circle cx="2125" cy="1924" r="5" style="fill:blue"/>
<circle cx="1335" cy="2844" r="5" style="fill:blue"/>
<circle cx="4329" cy="918" r="5" style="fill:blue"/>
<circle cx="2695" cy="1274" r="5" style="fill:blue"/>
<circle cx="710" cy="1535" r="5" style="fill:blue"/>
<circle cx="685" cy="2890" r="5" style="fill:blue"/>
<circle cx="963" cy="806" r="5" style="fill:blue"/>
<circle cx="1745" cy="3445" r="5" style="fill:blue"/>
<circle cx="3997" cy="1635" r="5" style="fill:blue"/>
<circle cx="1823" cy="912" r="5" style="fill:blue"/>
<circle cx="4096" cy="2076" r="5" style="fill:blue"/>
<circle cx="298" cy="1965" r="5" style="fill:blue"/>
<circle cx="263" cy="3255" r="5" style="fill:blue"/>
<circle cx="4473" cy="2683" r="5" style="fill:blue"/>
<circle cx="1891" cy="731" r="5" style="fill:blue"/>
<circle cx="985" cy="3230" r="5" style="fill:blue"/>
<circle cx="2471" cy="1670" r="5" style="fill:blue"/>
<circle cx="1290" cy="2625" r="5" style="fill:blue"/>
<circle cx="1601" cy="1717" r="5" style="fill:blue"/>
<circle cx="3463" cy="989" r="5" style="fill:blue"/>
<circle cx="1258" cy="2094" r="5" style="fill:blue"/>
<circle cx="4005" cy="2248" r="5" style="fill:blue"/>
<circle cx="2875" cy="2037" r="5" style="fill:blue"/>
<circle cx="3968" cy="2637" r="5" style="fill:blue"/>
<circle cx="1050" cy="2197" r="5" style="fill:blue"/>
<circle cx="520" cy="1587" r="5" style="fill:blue"/>
<circle cx="1187" cy="263" r="5" style="fill:blue"/>
<circle cx="1561" cy="1373" r="5" style="fill:blue"/>
<circle cx="631" cy="2284" r="5" style="fill:blue"/>
<circle cx="1187" cy="2390" r="5" style="fill:blue"/>
<circle cx="4096" cy="2319" r="5" style="fill:blue"/>
<circle cx="3079" cy="83" r="5" style="fill:blue"/>
<circle cx="411" cy="2020" r="5" style="fill:blue"/>
<circle cx="3697" cy="1765" r="5" style="fill:blue"/>
<circle cx="2274" cy="1868" r="5" style="fill:blue"/>
<circle cx="1534" cy="728" r="5" style="fill:blue"/>
<circle cx="738" cy="1799" r="5" style="fill:blue"/>
<circle cx="1703" cy="3439" r="5" style="fill:blue"/>
<circle cx="2308" cy="1201" r="5" style="fill:blue"/>
<circle cx="2749" cy="1148" r="5" style="fill:blue"/>
<circle cx="1143" cy="3110" r="5" style="fill:blue"/>
<circle cx="1759" cy="2682" r="5" style="fill:blue"/>
<circle cx="2186" cy="719" r="5" style="fill:blue"/>
<circle cx="98" cy="105" r="5" style="fill:blue"/>
<circle cx="3330" cy="2889" r="5" style="fill:blue"/>
<circle cx="1903" cy="369" r="5" style="fill:blue"/>
<circle cx="489" cy="1678" r="5" style="fill:blue"/>
<circle cx="1089" cy="3171" r="5" style="fill:blue"/>
<circle cx="4384" cy="765" r="5" style="fill:blue"/>
<circle cx="4329" cy="2192" r="5" style="fill:blue"/>
<circle cx="4156" cy="2345" r="5" style="fill:blue"/>
<circle cx="4351" cy="2706" r="5" style="fill:blue"/>
<circle cx="1859" cy="2333" r="5" style="fill:blue"/>
<circle cx="53" cy="2337" r="5" style="fill:blue"/>
<circle cx="3401" cy="466" r="5" style="fill:blue"/>
<circle cx="2899" cy="2460" r="5" style="fill:blue"/>
<circle cx="3649" cy="2638" r="5" style="fill:blue"/>
<circle cx="3683" cy="2038" r="5" style="fill:blue"/>
<circle cx="2467" cy="1098" r="5" style="fill:blue"/>
<circle cx="3777" cy="1326" r="5" style="fill:blue"/>
<circle cx="1496" cy="551" r="5" style="fill:blue"/>
<circle cx="433" cy="1443" r="5" style="fill:blue"/>
<circle cx="1902" cy="2434" r="5" style="fill:blue"/>
<circle cx="2371" cy="809" r="5" style="fill:blue"/>
<circle cx="151" cy="366" r="5" style="fill:blue"/>
<circle cx="3828" cy="769" r="5" style="fill:blue"/>
<circle cx="473" cy="2636" r="5" style="fill:blue"/>
<circle cx="1834" cy="1579" r="5" style="fill:blue"/>
<circle cx="460" cy="1125" r="5" style="fill:blue"/>
<circle cx="2220" cy="1523" r="5" style="fill:blue"/>
<circle cx="3377" cy="3225" r="5" style="fill:blue"/>
<circle cx="820" cy="2139" r="5" style="fill:blue"/>
<circle cx="3613" cy="687" r="5" style="fill:blue"/>
<circle cx="1762" cy="3211" r="5" style="fill:blue"/>
<circle cx="2408" cy="2477" r="5" style="fill:blue"/>
<circle cx="244" cy="2075" r="5" style="fill:blue"/>
<circle cx="2409" cy="3286" r="5" style="fill:blue"/>
<circle cx="1434" cy="1885" r="5" style="fill:blue"/>
<circle cx="3756" cy="29" r="5" style="fill:blue"/>
<circle cx="148" cy="1194" r="5" style="fill:blue"/>
<circle cx="1780" cy="1025" r="5" style="fill:blue"/>
<circle cx="1481" cy="1909" r="5" style="fill:blue"/>
<circle cx="4079" cy="528" r="5" style="fill:blue"/>
<circle cx="2275" cy="1622" r="5" style="fill:blue"/>
<circle cx="399" cy="13" r="5" style="fill:blue"/>
<circle cx="3480" cy="633" r="5" style="fill:blue"/>
<circle cx="1786" cy="2724" r="5" style="fill:blue"/>
<circle cx="1338" cy="3058" r="5" style="fill:blue"/>
<circle cx="4388" cy="1298" r="5" style="fill:blue"/>
<circle cx="98" cy="162" r="5" style="fill:blue"/>
<circle cx="1323" cy="1649" r="5" style="fill:blue"/>
<circle cx="2793" cy="3357" r="5" style="fill:blue"/>
<circle cx="2215" cy="3127" r="5" style="fill:blue"/>
<circle cx="22" cy="3471" r="5" style="fill:blue"/>
<circle cx="2001" cy="2221" r="5" style="fill:blue"/>
<circle cx="403" cy="1362" r="5" style="fill:blue"/>
<circle cx="461" cy="781" r="5" style="fill:blue"/>
<circle cx="989" cy="2019" r="5" style="fill:blue"/>
<circle cx="4125" cy="2824" r="5" style="fill:blue"/>
<circle cx="3981" cy="2711" r="5" style="fill:blue"/>
<circle cx="1772" cy="966" r="5" style="fill:blue"/>
<circle cx="580" cy="547" r="5" style="fill:blue"/>
<circle cx="3151" cy="857" r="5" style="fill:blue"/>
<circle cx="2735" cy="3370" r="5" style="fill:blue"/>
<circle cx="4268" cy="2458" r="5" style="fill:blue"/>
<circle cx="149" cy="2395" r="5" style="fill:blue"/>
<circle cx="1568" cy="2790" r="5" style="fill:blue"/>
<circle cx="1581" cy="590" r="5" style="fill:blue"/>
<circle cx="2523" cy="2009" r="5" style="fill:blue"/>
<circle cx="363" cy="806" r="5" style="fill:blue"/>
<circle cx="3866" cy="1327" r="5" style="fill:blue"/>
<circle cx="2011" cy="1406" r="5" style="fill:blue"/>
<circle cx="633" cy="2353" r="5" style="fill:blue"/>
<circle cx="3122" cy="2877" r="5" style="fill:blue"/>
<circle cx="4262" cy="917" r="5" style="fill:blue"/>
<circle cx="3374" cy="239" r="5" style="fill:blue"/>
<circle cx="4364" cy="524" r="5" style="fill:blue"/>
<circle cx="347" cy="1384" r="5" style="fill:blue"/>
<circle cx="256" cy="1945" r="5" style="fill:blue"/>
<circle cx="3907" cy="921" r="5" style="fill:blue"/>
<circle cx="4277" cy="1494" r="5" style="fill:blue"/>
<circle cx="1002" cy="3341" r="5" style="fill:blue"/>
<circle cx="3080" cy="720" r="5" style="fill:blue"/>
<circle cx="4218" cy="3049" r="5" style="fill:blue"/>
<circle cx="4425" cy="1686" r="5" style="fill:blue"/>
<circle cx="1445" cy="68" r="5" style="fill:blue"/>
<circle cx="3048" cy="495" r="5" style="fill:blue"/>
<circle cx="3646" cy="2840" r="5" style="fill:blue"/>
<circle cx="2950" cy="718" r="5" style="fill:blue"/>
<circle cx="1519" cy="653" r="5" style="fill:blue"/>
<circle cx="2985" cy="1634" r="5" style="fill:blue"/>
<circle cx="2115" cy="1577" r="5" style="fill:blue"/>
<circle cx="2873" cy="2688" r="5" style="fill:blue"/>
<circle cx="101" cy="2091" r="5" style="fill:blue"/>
<circle cx="2522" cy="1026" r="5" style="fill:blue"/>
<circle cx="4241" cy="252" r="5" style="fill:blue"/>
<circle cx="1835" cy="3445" r="5" style="fill:blue"/>
<circle cx="132" cy="1962" r="5" style="fill:blue"/>
<circle cx="2394" cy="3363" r="5" style="fill:blue"/>
<circle cx="3727" cy="3219" r="5" style="fill:blue"/>
<circle cx="2724" cy="642" r="5" style="fill:blue"/>
<circle cx="1223" cy="2567" r="5" style="fill:blue"/>
<circle cx="3600" cy="2215" r="5" style="fill:blue"/>
<circle cx="1315" cy="1028" r="5" style="fill:blue"/>
<circle cx="4176" cy="857" r="5" style="fill:blue"/>
<circle cx="268" cy="3447" r="5" style="fill:blue"/>
<circle cx="73" cy="596" r="5" style="fill:blue"/>
<circle cx="2908" cy="1278" r="5" style="fill:blue"/>
<circle cx="1126" cy="175" r="5" style="fill:blue"/>
<circle cx="248" cy="2401" r="5" style="fill:blue"/>
<circle cx="622" cy="802" r="5" style="fill:blue"/>
<circle cx="1523" cy="2318" r="5" style="fill:blue"/>
<circle cx="4454" cy="2508" r="5" style="fill:blue"/>
<circle cx="666" cy="610" r="5" style="fill:blue"/>
<circle cx="1943" cy="1776" r="5" style="fill:blue"/>
<circle cx="1715" cy="2641" r="5" style="fill:blue"/>
<circle cx="2807" cy="2849" r="5" style="fill:blue"/>
<circle cx="3810" cy="1289" r="5" style="fill:blue"/>
<circle cx="1554" cy="3286" r="5" style="fill:blue"/>
<circle cx="1332" cy="3380" r="5" style="fill:blue"/>
<circle cx="4064" cy="590" r="5" style="fill:blue"/>
<circle cx="3667" cy="2036" r="5" style="fill:blue"/>
<circle cx="3822" cy="2998" r="5" style="fill:blue"/>
<circle cx="1527" cy="3075" r="5" style="fill:blue"/>
<circle cx="2598" cy="578" r="5" style="fill:blue"/>
<circle cx="1091" cy="2527" r="5" style="fill:blue"/>
<circle cx="1700" cy="264" r="5" style="fill:blue"/>
<circle cx="514" cy="1540" r="5" style="fill:blue"/>
<circle cx="2543" cy="3036" r="5" style="fill:blue"/>
<circle cx="2670" cy="3192" r="5" style="fill:blue"/>
<circle cx="80" cy="2100" r="5" style="fill:blue"/>
<circle cx="4182" cy="3136" r="5" style="fill:blue"/>
<circle cx="809" cy="2760" r="5" style="fill:blue"/>
<circle cx="1419" cy="2756" r="5" style="fill:blue"/>
<circle cx="2924" cy="239" r="5" style="fill:blue"/>
<circle cx="2631" cy="1232" r="5" style="fill:blue"/>
<circle cx="2381" cy="3309" r="5" style="fill:blue"/>
<circle cx="3868" cy="1922" r="5" style="fill:blue"/>
<circle cx="3408" cy="118" r="5" style="fill:blue"/>
<circle cx="2322" cy="127" r="5" style="fill:blue"/>
<circle cx="188" cy="958" r="5" style="fill:blue"/>
<circle cx="893" cy="780" r="5" style="fill:blue"/>
<circle cx="4365" cy="1222" r="5" style="fill:blue"/>
<circle cx="4172" cy="440" r="5" style="fill:blue"/>
<circle cx="1893" cy="1502" r="5" style="fill:blue"/>
<circle cx="1606" cy="1602" r="5" style="fill:blue"/>
<circle cx="2045" cy="3045" r="5" style="fill:blue"/>
<circle cx="2337" cy="2856" r="5" style="fill:blue"/>
<circle cx="1154" cy="1433" r="5" style="fill:blue"/>
<circle cx="4465" cy="93" r="5" style="fill:blue"/>
<circle cx="1191" cy="437" r="5" style="fill:blue"/>
<circle cx="4102" cy="254" r="5" style="fill:blue"/>
<circle cx="643" cy="2107" r="5" style="fill:blue"/>
<circle cx="1206" cy="2255" r="5" style="fill:blue"/>
<circle cx="4347" cy="2240" r="5" style="fill:blue"/>
<circle cx="732" cy="1432" r="5" style="fill:blue"/>
<circle cx="4219" cy="2495" r="5" style="fill:blue"/>
<circle cx="4322" cy="1457" r="5" style="fill:blue"/>
<circle cx="1510" cy="961" r="5" style="fill:blue"/>
<circle cx="3377" cy="1731" r="5" style="fill:blue"/>
<circle cx="3131" cy="534" r="5" style="fill:blue"/>
<circle cx="2150" cy="1650" r="5" style="fill:blue"/>
<circle cx="214" cy="904" r="5" style="fill:blue"/>
<circle cx="3045" cy="1687" r="5" style="fill:blue"/>
<circle cx="3419" cy="2174" r="5" style="fill:blue"/>
<circle cx="3871" cy="1790" r="5" style="fill:blue"/>
<circle cx="2633" cy="2033" r="5" style="fill:blue"/>
<circle cx="3788" cy="2800" r="5" style="fill:blue"/>
<circle cx="4538" cy="1851" r="5" style="fill:blue"/>
<circle cx="529" cy="3139" r="5" style="fill:blue"/>
<circle cx="8" cy="1973" r="5" style="fill:blue"/>
<circle cx="319" cy="1344" r="5" style="fill:blue"/>
<circle cx="2442" cy="356" r="5" style="fill:blue"/>
<circle cx="743" cy="301" r="5" style="fill:blue"/>
<circle cx="2884" cy="2237" r="5" style="fill:blue"/>
<circle cx="3129" cy="1892" r="5" style="fill:blue"/>
<circle cx="2026" cy="1203" r="5" style="fill:blue"/>
<circle cx="3518" cy="3057" r="5" style="fill:blue"/>
<circle cx="1201" cy="795" r="5" style="fill:blue"/>
<circle cx="1238" cy="2986" r="5" style="fill:blue"/>
<circle cx="3091" cy="2031" r="5" style="fill:blue"/>
<circle cx="4459" cy="2266" r="5" style="fill:blue"/>
<circle cx="1229" cy="2335" r="5" style="fill:blue"/>
<circle cx="4386" cy="1812" r="5" style="fill:blue"/>
<circle cx="3095" cy="177" r="5" style="fill:blue"/>
<circle cx="3697" cy="644" r="5" style="fill:blue"/>
<circle cx="232" cy="972" r="5" style="fill:blue"/>
<circle cx="538" cy="955" r="5" style="fill:blue"/>
<circle cx="2657" cy="3223" r="5" style="fill:blue"/>
<circle cx="2504" cy="2534" r="5" style="fill:blue"/>
<circle cx="3703" cy="934" r="5" style="fill:blue"/>
<circle cx="1378" cy="52" r="5" style="fill:blue"/>
<circle cx="147" cy="2265" r="5" style="fill:blue"/>
<circle cx="1436" cy="816" r="5" style="fill:blue"/>
<circle cx="3252" cy="2720" r="5" style="fill:blue"/>
<circle cx="3419" cy="1524" r="5" style="fill:blue"/>
<circle cx="1884" cy="2891" r="5" style="fill:blue"/>
<circle cx="1766" cy="1467" r="5" style="fill:blue"/>
<circle cx="191" cy="2663" r="5" style="fill:blue"/>
<circle cx="2356" cy="3466" r="5" style="fill:blue"/>
<circle cx="2634" cy="593" r="5" style="fill:blue"/>
<circle cx="3647" cy="804" r="5" style="fill:blue"/>
<circle cx="519" cy="1353" r="5" style="fill:blue"/>
<circle cx="2105" cy="1343" r="5" style="fill:blue"/>
<circle cx="4188" cy="2004" r="5" style="fill:blue"/>
<circle cx="660" cy="1641" r="5" style="fill:blue"/>
<circle cx="941" cy="2300" r="5" style="fill:blue"/>
<circle cx="1243" cy="2194" r="5" style="fill:blue"/>
<circle cx="1946" cy="2804" r="5" style="fill:blue"/>
<circle cx="4184" cy="663" r="5" style="fill:blue"/>
<circle cx="4213" cy="3257" r="5" style="fill:blue"/>
<circle cx="1594" cy="2137" r="5" style="fill:blue"/>
<circle cx="485" cy="1426" r="5" style="fill:blue"/>
<circle cx="2825" cy="140" r="5" style="fill:blue"/>
<circle cx="1135" cy="2270" r="5" style="fill:blue"/>
<circle cx="2215" cy="2142" r="5" style="fill:blue"/>
<circle cx="3277" cy="1537" r="5" style="fill:blue"/>
<circle cx="1931" cy="1046" r="5" style="fill:blue"/>
<circle cx="4385" cy="2075" r="5" style="fill:blue"/>
<circle cx="157" cy="1455" r="5" style="fill:blue"/>
<circle cx="879" cy="1531" r="5" style="fill:blue"/>
<circle cx="2121" cy="1635" r="5" style="fill:blue"/>
<circle cx="3973" cy="84" r="5" style="fill:blue"/>
<circle cx="1965" cy="3010" r="5" style="fill:blue"/>
<circle cx="2918" cy="1811" r="5" style="fill:blue"/>
<circle cx="1472" cy="1314" r="5" style="fill:blue"/>
<circle cx="3416" cy="2319" r="5" style="fill:blue"/>
<circle cx="192" cy="1520" r="5" style="fill:blue"/>
<circle cx="1133" cy="498" r="5" style="fill:blue"/>
<circle cx="3593" cy="1251" r="5" style="fill:blue"/>
<circle cx="762" cy="665" r="5" style="fill:blue"/>
<circle cx="2015" cy="1681" r="5" style="fill:blue"/>
<circle cx="2471" cy="3485" r="5" style="fill:blue"/>
<circle cx="2200" cy="900" r="5" style="fill:blue"/>
<circle cx="2946" cy="2432" r="5" style="fill:blue"/>
<circle cx="2780" cy="931" r="5" style="fill:blue"/>
<circle cx="245" cy="2079" r="5" style="fill:blue"/>
<circle cx="2959" cy="194" r="5" style="fill:blue"/>
<circle cx="3481" cy="471" r="5" style="fill:blue"/>
<circle cx="4004" cy="1320" r="5" style="fill:blue"/>
<circle cx="2587" cy="3109" r="5" style="fill:blue"/>
<circle cx="116" cy="3395" r="5" style="fill:blue"/>
<circle cx="4439" cy="2316" r="5" style="fill:blue"/>
<circle cx="2633" cy="1688" r="5" style="fill:blue"/>
<circle cx="2734" cy="1141" r="5" style="fill:blue"/>
<circle cx="1070" cy="7" r="5" style="fill:blue"/>
<circle cx="293" cy="156" r="5" style="fill:blue"/>
<circle cx="1093" cy="2819" r="5" style="fill:blue"/>
<circle cx="4444" cy="251" r="5" style="fill:blue"/>
<circle cx="2234" cy="1934" r="5" style="fill:blue"/>
<circle cx="124" cy="577" r="5" style="fill:blue"/>
<circle cx="540" cy="2772" r="5" style="fill:blue"/>
<circle cx="4455" cy="2573" r="5" style="fill:blue"/>
<circle cx="2320" cy="833" r="5" style="fill:blue"/>
<circle cx="3193" cy="684" r="5" style="fill:blue"/>
<circle cx="401" cy="99" r="5" style="fill:blue"/>
<circle cx="1440" cy="2720" r="5" style="fill:blue"/>
<circle cx="2196" cy="1668" r="5" style="fill:blue"/>
<circle cx="2571" cy="1027" r="5" style="fill:blue"/>
<circle cx="3425" cy="3365" r="5" style="fill:blue"/>
<circle cx="3691" cy="492" r="5" style="fill:blue"/>
<circle cx="2732" cy="1074" r="5" style="fill:blue"/>
<circle cx="194" cy="2668" r="5" style="fill:blue"/>
<circle cx="1487" cy="391" r="5" style="fill:blue"/>
<circle cx="1322" cy="497" r="5" style="fill:blue"/>
<circle cx="2745" cy="758" r="5" style="fill:blue"/>
<circle cx="324" cy="2610" r="5" style="fill:blue"/>
<circle cx="3723" cy="1202" r="5" style="fill:blue"/>
<circle cx="2932" cy="1389" r="5" style="fill:blue"/>
<circle cx="1930" cy="1485" r="5" style="fill:blue"/>
<circle cx="2789" cy="671" r="5" style="fill:blue"/>
<circle cx="1510" cy="747" r="5" style="fill:blue"/>
<circle cx="2434" cy="2115" r="5" style="fill:blue"/>
<circle cx="1502" cy="993" r="5" style="fill:blue"/>
<circle cx="2048" cy="159" r="5" style="fill:blue"/>
<circle cx="2938" cy="1761" r="5" style="fill:blue"/>
<circle cx="3251" cy="878" r="5" style="fill:blue"/>
<circle cx="1631" cy="1739" r="5" style="fill:blue"/>
<circle cx="3291" cy="729" r="5" style="fill:blue"/>
<circle cx="680" cy="2597" r="5" style="fill:blue"/>
<circle cx="2040" cy="560" r="5" style="fill:blue"/>
<circle cx="3721" cy="2255" r="5" style="fill:blue"/>
<circle cx="62" cy="352" r="5" style="fill:blue"/>
<circle cx="4053" cy="2992" r="5" style="fill:blue"/>
<circle cx="1917" cy="846" r="5" style="fill:blue"/>
<circle cx="715" cy="863" r="5" style="fill:blue"/>
<circle cx="753" cy="2663" r="5" style="fill:blue"/>
<circle cx="81" cy="2880" r="5" style="fill:blue"/>
<circle cx="4200" cy="1392" r="5" style="fill:blue"/>
<circle cx="1770" cy="1790" r="5" style="fill:blue"/>
<circle cx="84" cy="2316" r="5" style="fill:blue"/>
<circle cx="444" cy="3248" r="5" style="fill:blue"/>
<circle cx="3285" cy="2504" r="5" style="fill:blue"/>
<circle cx="2516" cy="2229" r="5" style="fill:blue"/>
<circle cx="57" cy="2574" r="5" style="fill:blue"/>
<circle cx="3446" cy="3476" r="5" style="fill:blue"/>
<circle cx="822" cy="778" r="5" style="fill:blue"/>
<circle cx="2107" cy="2205" r="5" style="fill:blue"/>
<circle cx="496" cy="906" r="5" style="fill:blue"/>
<circle cx="739" cy="1748" r="5" style="fill:blue"/>
<circle cx="1413" cy="3153" r="5" style="fill:blue"/>
<circle cx="1344" cy="2604" r="5" style="fill:blue"/>
<circle cx="129" cy="1586" r="5" style="fill:blue"/>
<circle cx="3922" cy="1221" r="5" style="fill:blue"/>
<circle cx="2585" cy="631" r="5" style="fill:blue"/>
<circle cx="2260" cy="2026" r="5" style="fill:blue"/>
<circle cx="2764" cy="2215" r="5" style="fill:blue"/>
<circle cx="1222" cy="1099" r="5" style="fill:blue"/>
<circle cx="3458" cy="504" r="5" style="fill:blue"/>
<circle cx="1532" cy="829" r="5" style="fill:blue"/>
<circle cx="784" cy="3076" r="5" style="fill:blue"/>
<circle cx="1258" cy="2883" r="5" style="fill:blue"/>
<circle cx="4375" cy="2795" r="5" style="fill:blue"/>
<circle cx="3914" cy="375" r="5" style="fill:blue"/>
<circle cx="151" cy="1686" r="5" style="fill:blue"/>
<circle cx="2466" cy="2399" r="5" style="fill:blue"/>
<circle cx="3026" cy="3417" r="5" style="fill:blue"/>
<circle cx="3313" cy="1464" r="5" style="fill:blue"/>
<circle cx="4361" cy="341" r="5" style="fill:blue"/>
<circle cx="4327" cy="822" r="5" style="fill:blue"/>
<circle cx="4017" cy="2020" r="5" style="fill:blue"/>
<circle cx="1876" cy="1873" r="5" style="fill:blue"/>
<circle cx="841" cy="3202" r="5" style="fill:blue"/>
<circle cx="587" cy="3364" r="5" style="fill:blue"/>
<circle cx="3330" cy="2761" r="5" style="fill:blue"/>
<circle cx="3732" cy="2559" r="5" style="fill:blue"/>
<circle cx="1570" cy="1203" r="5" style="fill:blue"/>
<circle cx="3072" cy="1981" r="5" style="fill:blue"/>
<circle cx="4171" cy="2062" r="5" style="fill:blue"/>
<circle cx="1895" cy="2625" r="5" style="fill:blue"/>
<circle cx="2405" cy="2006" r="5" style="fill:blue"/>
<circle cx="766" cy="3282" r="5" style="fill:blue"/>
<circle cx="2829" cy="3260" r="5" style="fill:blue"/>
<circle cx="1194" cy="3503" r="5" style="fill:blue"/>
<circle cx="888" cy="1892" r="5" style="fill:blue"/>
<circle cx="717" cy="197" r="5" style="fill:blue"/>
<circle cx="3624" cy="1088" r="5" style="fill:blue"/>
<circle cx="2785" cy="1099" r="5" style="fill:blue"/>
<circle cx="2835" cy="3524" r="5" style="fill:blue"/>
<circle cx="2503" cy="951" r="5" style="fill:blue"/>
<circle cx="210" cy="1907" r="5" style="fill:blue"/>
<circle cx="3538" cy="482" r="5" style="fill:blue"/>
<circle cx="2026" cy="1369" r="5" style="fill:blue"/>
<circle cx="3042" cy="2068" r="5" style="fill:blue"/>
<circle cx="4259" cy="790" r="5" style="fill:blue"/>
<circle cx="4203" cy="1989" r="5" style="fill:blue"/>
<circle cx="3685" cy="2256" r="5" style="fill:blue"/>
<circle cx="1847" cy="331" r="5" style="fill:blue"/>
<circle cx="1659" cy="326" r="5" style="fill:blue"/>
<circle cx="1978" cy="3419" r="5" style="fill:blue"/>
<circle cx="2807" cy="879" r="5" style="fill:blue"/>
<circle cx="2064" cy="651" r="5" style="fill:blue"/>
<circle cx="956" cy="2699" r="5" style="fill:blue"/>
<circle cx="1540" cy="1734" r="5" style="fill:blue"/>
<circle cx="2861" cy="3338" r="5" style="fill:blue"/>
<circle cx="3489" cy="3390" r="5" style="fill:blue"/>
<circle cx="942" cy="2064" r="5" style="fill:blue"/>
<circle cx="1601" cy="264" r="5" style="fill:blue"/>
<circle cx="13" cy="784" r="5" style="fill:blue"/>
<circle cx="1654" cy="1205" r="5" style="fill:blue"/>
<circle cx="1138" cy="3097" r="5" style="fill:blue"/>
<circle cx="1298" cy="3355" r="5" style="fill:blue"/>
<circle cx="1577" cy="1651" r="5" style="fill:blue"/>
<circle cx="1954" cy="898" r="5" style="fill:blue"/>
<circle cx="1898" cy="139" r="5" style="fill:blue"/>
<circle cx="4293" cy="2749" r="5" style="fill:blue"/>
<circle cx="2513" cy="1821" r="5" style="fill:blue"/>
<circle cx="962" cy="3376" r="5" style="fill:blue"/>
<circle cx="4073" cy="1719" r="5" style="fill:blue"/>
<circle cx="2361" cy="636" r="5" style="fill:blue"/>
<circle cx="2326" cy="981" r="5" style="fill:blue"/>
<circle cx="2492" cy="1649" r="5" style="fill:blue"/>
<circle cx="723" cy="3414" r="5" style="fill:blue"/>
<circle cx="1041" cy="391" r="5" style="fill:blue"/>
<circle cx="3834" cy="63" r="5" style="fill:blue"/>
<circle cx="3655" cy="1254" r="5" style="fill:blue"/>
<circle cx="391" cy="1306" r="5" style="fill:blue"/>
<circle cx="2780" cy="1756" r="5" style="fill:blue"/>
<circle cx="1012" cy="279" r="5" style="fill:blue"/>
<circle cx="1180" cy="48" r="5" style="fill:blue"/>
<circle cx="1965" cy="1949" r="5" style="fill:blue"/>
<circle cx="313" cy="3240" r="5" style="fill:blue"/>
<circle cx="1141" cy="3197" r="5" style="fill:blue"/>
<circle cx="4273" cy="703" r="5" style="fill:blue"/>
<circle cx="3692" cy="632" r="5" style="fill:blue"/>
<circle cx="3107" cy="1087" r="5" style="fill:blue"/>
<circle cx="2854" cy="1572" r="5" style="fill:blue"/>
<circle cx="1968" cy="380" r="5" style="fill:blue"/>
<circle cx="3502" cy="3308" r="5" style="fill:blue"/>
<circle cx="1365" cy="1622" r="5" style="fill:blue"/>
<circle cx="3419" cy="1660" r="5" style="fill:blue"/>
<circle cx="2947" cy="236" r="5" style="fill:blue"/>
<circle cx="1768" cy="1996" r="5" style="fill:blue"/>
<circle cx="1526" cy="2295" r="5" style="fill:blue"/>
<circle cx="2790" cy="2899" r="5" style="fill:blue"/>
<circle cx="392" cy="3221" r="5" style="fill:blue"/>
<circle cx="2005" cy="716" r="5" style="fill:blue"/>
<circle cx="1917" cy="3517" r="5" style="fill:blue"/>
<circle cx="2243" cy="1752" r="5" style="fill:blue"/>
<circle cx="3721" cy="1957" r="5" style="fill:blue"/>
<circle cx="3084" cy="1040" r="5" style="fill:blue"/>
<circle cx="1810" cy="1141" r="5" style="fill:blue"/>
<circle cx="1756" cy="2293" r="5" style="fill:blue"/>
<circle cx="1724" cy="445" r="5" style="fill:blue"/>
<circle cx="953" cy="546" r="5" style="fill:blue"/>
<circle cx="1512" cy="2990" r="5" style="fill:blue"/>
<circle cx="2760" cy="3439" r="5" style="fill:blue"/>
<circle cx="4370" cy="3272" r="5" style="fill:blue"/>
<circle cx="1718" cy="223" r="5" style="fill:blue"/>
<circle cx="3823" cy="3047" r="5" style="fill:blue"/>
<circle cx="77" cy="144" r="5" style="fill:blue"/>
<circle cx="1222" cy="762" r="5" style="fill:blue"/>
<circle cx="1058" cy="2492" r="5" style="fill:blue"/>
<circle cx="69" cy="2207" r="5" style="fill:blue"/>
<circle cx="3937" cy="179" r="5" style="fill:blue"/>
<circle cx="3890" cy="1236" r="5" style="fill:blue"/>
<circle cx="71" cy="1690" r="5" style="fill:blue"/>
<circle cx="120" cy="1238" r="5" style="fill:blue"/>
<circle cx="1379" cy="3149" r="5" style="fill:blue"/>
<circle cx="4520" cy="3245" r="5" style="fill:blue"/>
<circle cx="375" cy="963" r="5" style="fill:blue"/>
<circle cx="3999" cy="1352" r="5" style="fill:blue"/>
<circle cx="1156" cy="1278" r="5" style="fill:blue"/>
<circle cx="3874" cy="227" r="5" style="fill:blue"/>
<circle cx="1207" cy="2215" r="5" style="fill:blue"/>
<circle cx="2764" cy="2448" r="5" style="fill:blue"/>
<circle cx="816" cy="3499" r="5" style="fill:blue"/>
<circle cx="4134" cy="2586" r="5" style="fill:blue"/>
<circle cx="241" cy="429" r="5" style="fill:blue"/>
<circle cx="4384" cy="3176" r="5" style="fill:blue"/>
<circle cx="2353" cy="1961" r="5" style="fill:blue"/>
<circle cx="2898" cy="1755" r="5" style="fill:blue"/>
<circle cx="841" cy="2144" r="5" style="fill:blue"/>
<circle cx="2805" cy="7" r="5" style="fill:blue"/>
<circle cx="4510" cy="686" r="5" style="fill:blue"/>
<circle cx="2997" cy="1651" r="5" style="fill:blue"/>
<circle cx="584" cy="1225" r="5" style="fill:blue"/>
<circle cx="3503" cy="763" r="5" style="fill:blue"/>
<circle cx="3628" cy="773" r="5" style="fill:blue"/>
<circle cx="2127" cy="3455" r="5" style="fill:blue"/>
<circle cx="2479" cy="2521" r="5" style="fill:blue"/>
<circle cx="1956" cy="2170" r="5" style="fill:blue"/>
<circle cx="1736" cy="1403" r="5" style="fill:blue"/>
<circle cx="3514" cy="2185" r="5" style="fill:blue"/>
<circle cx="1145" cy="1381" r="5" style="fill:blue"/>
<circle cx="2826" cy="83" r="5" style="fill:blue"/>
<circle cx="917" cy="5" r="5" style="fill:blue"/>
<circle cx="2660" cy="3238" r="5" style="fill:blue"/>
<circle cx="534" cy="2859" r="5" style="fill:blue"/>
<circle cx="3512" cy="3124" r="5" style="fill:blue"/>
<circle cx="2481" cy="2389" r="5" style="fill:blue"/>
<circle cx="1719" cy="1702" r="5" style="fill:blue"/>
<circle cx="2802" cy="323" r="5" style="fill:blue"/>
<circle cx="277" cy="1056" r="5" style="fill:blue"/>
<circle cx="880" cy="2832" r="5" style="fill:blue"/>
<circle cx="4172" cy="964" r="5" style="fill:blue"/>
<circle cx="2856" cy="2657" r="5" style="fill:blue"/>
<circle cx="577" cy="1079" r="5" style="fill:blue"/>
<circle cx="16" cy="838" r="5" style="fill:blue"/>
<circle cx="4410" cy="1546" r="5" style="fill:blue"/>
<circle cx="2906" cy="2504" r="5" style="fill:blue"/>
<circle cx="2031" cy="1457" r="5" style="fill:blue"/>
<circle cx="669" cy="2999" r="5" style="fill:blue"/>
<circle cx="4333" cy="1559" r="5" style="fill:blue"/>
<circle cx="2647" cy="379" r="5" style="fill:blue"/>
<circle cx="1056" cy="3497" r="5" style="fill:blue"/>
<circle cx="1982" cy="373" r="5" style="fill:blue"/>
<circle cx="1949" cy="329" r="5" style="fill:blue"/>
<circle cx="3095" cy="2400" r="5" style="fill:blue"/>
<circle cx="1146" cy="170" r="5" style="fill:blue"/>
<circle cx="2526" cy="3135" r="5" style="fill:blue"/>
<circle cx="1012" cy="636" r="5" style="fill:blue"/>
<circle cx="1884" cy="3137" r="5" style="fill:blue"/>
<circle cx="2297" cy="2891" r="5" style="fill:blue"/>
<circle cx="719" cy="1894" r="5" style="fill:blue"/>
<circle cx="4444" cy="1449" r="5" style="fill:blue"/>
<circle cx="2788" cy="2785" r="5" style="fill:blue"/>
<circle cx="4206" cy="974" r="5" style="fill:blue"/>
<circle cx="1263" cy="2955" r="5" style="fill:blue"/>
<circle cx="3979" cy="1159" r="5" style="fill:blue"/>
<circle cx="223" cy="2435" r="5" style="fill:blue"/>
<circle cx="2571" cy="262" r="5" style="fill:blue"/>
<circle cx="70" cy="702" r="5" style="fill:blue"/>
<circle cx="3506" cy="2041" r="5" style="fill:blue"/>
<circle cx="3752" cy="1176" r="5" style="fill:blue"/>
<circle cx="1921" cy="170" r="5" style="fill:blue"/>
<circle cx="3152" cy="2952" r="5" style="fill:blue"/>
<circle cx="3786" cy="2490" r="5" style="fill:blue"/>
<circle cx="4038" cy="1503" r="5" style="fill:blue"/>
<circle cx="3085" cy="1525" r="5" style="fill:blue"/>
<circle cx="3566" cy="3427" r="5" style="fill:blue"/>
<circle cx="4313" cy="1719" r="5" style="fill:blue"/>
<circle cx="1607" cy="3233" r="5" style="fill:blue"/>
<circle cx="514" cy="2443" r="5" style="fill:blue"/>
<circle cx="2151" cy="1219" r="5" style="fill:blue"/>
<circle cx="4212" cy="541" r="5" style="fill:blue"/>
<circle cx="3499" cy="2648" r="5" style="fill:blue"/>
<circle cx="2005" cy="3033" r="5" style="fill:blue"/>
<circle cx="1972" cy="1699" r="5" style="fill:blue"/>
<circle cx="317" cy="207" r="5" style="fill:blue"/>
<circle cx="157" cy="1329" r="5" style="fill:blue"/>
<circle cx="3684" cy="932" r="5" style="fill:blue"/>
<circle cx="2975" cy="1253" r="5" style="fill:blue"/>
<circle cx="182" cy="69" r="5" style="fill:blue"/>
<circle cx="324" cy="3317" r="5" style="fill:blue"/>
<circle cx="546" cy="2706" r="5" style="fill:blue"/>
<circle cx="1144" cy="2748" r="5" style="fill:blue"/>
<circle cx="3407" cy="2463" r="5" style="fill:blue"/>
<circle cx="796" cy="908" r="5" style="fill:blue"/>
<circle cx="1626" cy="1537" r="5" style="fill:blue"/>
<circle cx="1060" cy="141" r="5" style="fill:blue"/>
<circle cx="1055" cy="595" r="5" style="fill:blue"/>
<circle cx="118" cy="136" r="5" style="fill:blue"/>
<circle cx="3941" cy="438" r="5" style="fill:blue"/>
<circle cx="2779" cy="1887" r="5" style="fill:blue"/>
<circle cx="2271" cy="251" r="5" style="fill:blue"/>
<circle cx="3320" cy="1564" r="5" style="fill:blue"/>
<circle cx="1664" cy="821" r="5" style="fill:blue"/>
<circle cx="4351" cy="1665" r="5" style="fill:blue"/>
<circle cx="718" cy="2138" r="5" style="fill:blue"/>
<circle cx="3761" cy="2588" r="5" style="fill:blue"/>
<circle cx="119" cy="2738" r="5" style="fill:blue"/>
<circle cx="3293" cy="2516" r="5" style="fill:blue"/>
<circle cx="3394" cy="1771" r="5" style="fill:blue"/>
<circle cx="1424" cy="2797" r="5" style="fill:blue"/>
<circle cx="613" cy="2316" r="5" style="fill:blue"/>
<circle cx="3962" cy="818" r="5" style="fill:blue"/>
<circle cx="1916" cy="1026" r="5" style="fill:blue"/>
<circle cx="773" cy="3073" r="5" style="fill:blue"/>
<circle cx="2614" cy="3436" r="5" style="fill:blue"/>
<circle cx="3086" cy="620" r="5" style="fill:blue"/>
<circle cx="21" cy="657" r="5" style="fill:blue"/>
<circle cx="2700" cy="2918" r="5" style="fill:blue"/>
<circle cx="2286" cy="1338" r="5" style="fill:blue"/>
<circle cx="247" cy="3426" r="5" style="fill:blue"/>
<circle cx="4539" cy="2224" r="5" style="fill:blue"/>
<circle cx="4337" cy="1123" r="5" style="fill:blue"/>
<circle cx="3092" cy="135" r="5" style="fill:blue"/>
<circle cx="3195" cy="3263" r="5" style="fill:blue"/>
<circle cx="3754" cy="3221" r="5" style="fill:blue"/>
<circle cx="255" cy="3443" r="5" style="fill:blue"/>
<circle cx="2099" cy="1022" r="5" style="fill:blue"/>
<circle cx="515" cy="629" r="5" style="fill:blue"/>
<circle cx="860" cy="1888" r="5" style="fill:blue"/>
<circle cx="2406" cy="628" r="5" style="fill:blue"/>
<circle cx="545" cy="3461" r="5" style="fill:blue"/>
<circle cx="418" cy="907" r="5" style="fill:blue"/>
<circle cx="1811" cy="1252" r="5" style="fill:blue"/>
<circle cx="1772" cy="2862" r="5" style="fill:blue"/>
<circle cx="992" cy="35" r="5" style="fill:blue"/>
<circle cx="2649" cy="3433" r="5" style="fill:blue"/>
<circle cx="3260" cy="2922" r="5" style="fill:blue"/>
<circle cx="2168" cy="149" r="5" style="fill:blue"/>
<circle cx="2713" cy="2609" r="5" style="fill:blue"/>
<circle cx="3600" cy="1529" r="5" style="fill:blue"/>
<circle cx="4256" cy="3418" r="5" style="fill:blue"/>
<circle cx="179" cy="831" r="5" style="fill:blue"/>
<circle cx="3485" cy="3354" r="5" style="fill:blue"/>
<circle cx="582" cy="3127" r="5" style="fill:blue"/>
<circle cx="1847" cy="820" r="5" style="fill:blue"/>
<circle cx="968" cy="1227" r="5" style="fill:blue"/>
<circle cx="3648" cy="2410" r="5" style="fill:blue"/>
<circle cx="858" cy="3415" r="5" style="fill:blue"/>
<circle cx="3736" cy="101" r="5" style="fill:blue"/>
<circle cx="3075" cy="3160" r="5" style="fill:blue"/>
<circle cx="2847" cy="1646" r="5" style="fill:blue"/>
<circle cx="1296" cy="2181" r="5" style="fill:blue"/>
<circle cx="823" cy="2098" r="5" style="fill:blue"/>
<circle cx="251" cy="159" r="5" style="fill:blue"/>
<circle cx="2647" cy="1850" r="5" style="fill:blue"/>
<circle cx="1348" cy="28" r="5" style="fill:blue"/>
<circle cx="2387" cy="3258" r="5" style="fill:blue"/>
<circle cx="4399" cy="3152" r="5" style="fill:blue"/>
<circle cx="3015" cy="2928" r="5" style="fill:blue"/>
<circle cx="746" cy="526" r="5" style="fill:blue"/>
<circle cx="3446" cy="360" r="5" style="fill:blue"/>
<circle cx="4236" cy="3209" r="5" style="fill:blue"/>
<circle cx="4130" cy="3248" r="5" style="fill:blue"/>
<circle cx="4415" cy="1" r="5" style="fill:blue"/>
<circle cx="1208" cy="2447" r="5" style="fill:blue"/>
<circle cx="2835" cy="2256" r="5" style="fill:blue"/>
<circle cx="965" cy="1183" r="5" style="fill:blue"/>
<circle cx="3950" cy="547" r="5" style="fill:blue"/>
<circle cx="3206" cy="960" r="5" style="fill:blue"/>
<circle cx="583" cy="3521" r="5" style="fill:blue"/>
<circle cx="1259" cy="2673" r="5" style="fill:blue"/>
<circle cx="1810" cy="3249" r="5" style="fill:blue"/>
<circle cx="4287" cy="2855" r="5" style="fill:blue"/>
<circle cx="689" cy="2876" r="5" style="fill:blue"/>
<circle cx="599" cy="3242" r="5" style="fill:blue"/>
<circle cx="1259" cy="2961" r="5" style="fill:blue"/>
<circle cx="4229" cy="2854" r="5" style="fill:blue"/>
<circle cx="3309" cy="1894" r="5" style="fill:blue"/>
<circle cx="926" cy="521" r="5" style="fill:blue"/>
<circle cx="271" cy="2639" r="5" style="fill:blue"/>
<circle cx="1047" cy="371" r="5" style="fill:blue"/>
<circle cx="1273" cy="474" r="5" style="fill:blue"/>
<circle cx="1498" cy="1044" r="5" style="fill:blue"/>
<circle cx="2919" cy="677" r="5" style="fill:blue"/>
<circle cx="951" cy="795" r="5" style="fill:blue"/>
<circle cx="4303" cy="2612" r="5" style="fill:blue"/>
<circle cx="55" cy="1506" r="5" style="fill:blue"/>
<circle cx="3384" cy="3396" r="5" style="fill:blue"/>
<circle cx="3597" cy="878" r="5" style="fill:blue"/>
<circle cx="3218" cy="455" r="5" style="fill:blue"/>
<circle cx="2708" cy="96" r="5" style="fill:blue"/>
<circle cx="4536" cy="3308" r="5" style="fill:blue"/>
<circle cx="1861" cy="174" r="5" style="fill:blue"/>
<circle cx="3337" cy="1960" r="5" style="fill:blue"/>
<circle cx="555" cy="340" r="5" style="fill:blue"/>
<circle cx="1233" cy="227" r="5" style="fill:blue"/>
<circle cx="3369" cy="1592" r="5" style="fill:blue"/>
<circle cx="1659" cy="1660" r="5" style="fill:blue"/>
<circle cx="1774" cy="919" r="5" style="fill:blue"/>
<circle cx="4121" cy="3244" r="5" style="fill:blue"/>
<circle cx="1686" cy="5" r="5" style="fill:blue"/>
<circle cx="602" cy="3091" r="5" style="fill:blue"/>
<circle cx="146" cy="642" r="5" style="fill:blue"/>
<circle cx="58" cy="1854" r="5" style="fill:blue"/>
<circle cx="754" cy="3303" r="5" style="fill:blue"/>
<circle cx="4158" cy="1788" r="5" style="fill:blue"/>
<circle cx="4326" cy="564" r="5" style="fill:blue"/>
<circle cx="4218" cy="3026" r="5" style="fill:blue"/>
<circle cx="2241" cy="701" r="5" style="fill:blue"/>
<circle cx="3912" cy="1817" r="5" style="fill:blue"/>
<circle cx="1096" cy="2143" r="5" style="fill:blue"/>
<circle cx="982" cy="3224" r="5" style="fill:blue"/>
<circle cx="4027" cy="710" r="5" style="fill:blue"/>
<circle cx="316" cy="1133" r="5" style="fill:blue"/>
<circle cx="2008" cy="1460" r="5" style="fill:blue"/>
<circle cx="4532" cy="347" r="5" style="fill:blue"/>
<circle cx="2465" cy="1718" r="12" style="stroke-width:5;fill:gray;fill-opacity:0.3"/>
<circle cx="3937" cy="2813" r="45" style="stroke-width:5;fill:gray;fill-opacity:0.3"/>
<circle cx="762" cy="2079" r="61" style="stroke-width:5;fill:gray;fill-opacity:0.3"/>
<circle cx="733" cy="2386" r="71" style="stroke-width:5;fill:gray;fill-opacity:0.3"/>
<circle cx="347" cy="3447" r="26" style="stroke-width:5;fill:gray;fill-opacity:0.3"/>
<circle cx="2533" cy="163" r="72" style="stroke-width:5;fill:gray;fill-opacity:0.3"/>
<circle cx="1921" cy="637" r="15" style="stroke-width:5;fill:gray;fill-opacity:0.3"/>
<circle cx="3882" cy="232" r="6" style="stroke-width:5;fill:gray;fill-opacity:0.3"/>
<circle cx="398" cy="3321" r="60" style="stroke-width:5;fill:gray;fill-opacity:0.3"/>
<circle cx="3216" cy="1159" r="72" style="stroke-width:5;fill:gray;fill-opacity:0.3"/>
<circle cx="732" cy="692" r="34" style="stroke-width:5;fill:gray;fill-opacity:0.3"/>
<circle cx="3994" cy="849" r="14" style="stroke-width:5;fill:gray;fill-opacity:0.3"/>
<circle cx="1657" cy="3090" r="64" style="stroke-width:5;fill:gray;fill-opacity:0.3"/>
<circle cx="100" cy="1466" r="46" style="stroke-width:5;fill:gray;fill-opacity:0.3"/>
<circle cx="3166" cy="1719" r="63" style="stroke-width:5;fill:gray;fill-opacity:0.3"/>
<circle cx="145" cy="444" r="24" style="stroke-width:5;fill:gray;fill-opacity:0.3"/>
<circle cx="1148" cy="1157" r="61" style="stroke-width:5;fill:gray;fill-opacity:0.3"/>
<circle cx="965" cy="2586" r="65" style="stroke-width:5;fill:gray;fill-opacity:0.3"/>
<circle cx="1380" cy="365" r="76" style="stroke-width:5;fill:gray;fill-opacity:0.3"/>
<circle cx="2212" cy="3390" r="66" style="stroke-width:5;fill:gray;fill-opacity:0.3"/>
<circle cx="4403" cy="3191" r="20" style="stroke-width:5;fill:gray;fill-opacity:0.3"/>
<circle cx="478" cy="1914" r="48" style="stroke-width:5;fill:gray;fill-opacity:0.3"/>
<circle cx="376" cy="1627" r="5" style="stroke-width:5;fill:gray;fill-opacity:0.3"/>
<circle cx="3136" cy="3440" r="75" style="stroke-width:5;fill:gray;fill-opacity:0.3"/>
<circle cx="342" cy="3426" r="6" style="stroke-width:5;fill:gray;fill-opacity:0.3"/>
<circle cx="1806" cy="2625" r="28" style="stroke-width:5;fill:gray;fill-opacity:0.3"/>
<circle cx="1888" cy="2002" r="77" style="stroke-width:5;fill:gray;fill-opacity:0.3"/>
<circle cx="3813" cy="1935" r="43" style="stroke-width:5;fill:gray;fill-opacity:0.3"/>
<circle cx="4073" cy="3150" r="44" style="stroke-width:5;fill:gray;fill-opacity:0.3"/>
<circle cx="2965" cy="1177" r="67" style="stroke-width:5;fill:gray;fill-opacity:0.3"/>
<circle cx="457" cy="448" r="78" style="stroke-width:5;fill:gray;fill-opacity:0.3"/>
<circle cx="3059" cy="2815" r="21" style="stroke-width:5;fill:gray;fill-opacity:0.3"/>
<circle cx="2907" cy="1877" r="16" style="stroke-width:5;fill:gray;fill-opacity:0.3"/>
<circle cx="1643" cy="420" r="63" style="stroke-width:5;fill:gray;fill-opacity:0.3"/>
<circle cx="4408" cy="3308" r="45" style="stroke-width:5;fill:gray;fill-opacity:0.3"/>
<circle cx="4380" cy="1950" r="82" style="stroke-width:5;fill:gray;fill-opacity:0.3"/>
<circle cx="2042" cy="1831" r="42" style="stroke-width:5;fill:gray;fill-opacity:0.3"/>
<circle cx="2602" cy="647" r="14" style="stroke-width:5;fill:gray;fill-opacity:0.3"/>
<circle cx="2224" cy="1629" r="42" style="stroke-width:5;fill:gray;fill-opacity:0.3"/>
<circle cx="2166" cy="533" r="82" style="stroke-width:5;fill:gray;fill-opacity:0.3"/>
<circle cx="2261" cy="3363" r="57" style="stroke-width:5;fill:gray;fill-opacity:0.3"/>
<circle cx="4025" cy="2693" r="13" style="stroke-width:5;fill:gray;fill-opacity:0.3"/>
<circle cx="4405" cy="1072" r="57" style="stroke-width:5;fill:gray;fill-opacity:0.3"/>
<circle cx="2598" cy="524" r="53" style="stroke-width:5;fill:gray;fill-opacity:0.3"/>
<circle cx="2538" cy="830" r="79" style="stroke-width:5;fill:gray;fill-opacity:0.3"/>
<circle cx="353" cy="1701" r="36" style="stroke-width:5;fill:gray;fill-opacity:0.3"/>
<circle cx="2635" cy="145" r="68" style="stroke-width:5;fill:gray;fill-opacity:0.3"/>
<circle cx="2935" cy="958" r="43" style="stroke-width:5;fill:gray;fill-opacity:0.3"/>
<circle cx="1644" cy="1726" r="8" style="stroke-width:5;fill:gray;fill-opacity:0.3"/>
<circle cx="3402" cy="1281" r="60" style="stroke-width:5;fill:gray;fill-opacity:0.3"/>
<circle cx="4428" cy="2721" r="8" style="stroke-width:5;fill:gray;fill-opacity:0.3"/>
<circle cx="276" cy="1549" r="67" style="stroke-width:5;fill:gray;fill-opacity:0.3"/>
<circle cx="3759" cy="1586" r="55" style="stroke-width:5;fill:gray;fill-opacity:0.3"/>
<circle cx="2873" cy="1037" r="13" style="stroke-width:5;fill:gray;fill-opacity:0.3"/>
<circle cx="4133" cy="1661" r="68" style="stroke-width:5;fill:gray;fill-opacity:0.3"/>
<circle cx="3009" cy="2008" r="28" style="stroke-width:5;fill:gray;fill-opacity:0.3"/>
<circle cx="4362" cy="1375" r="77" style="stroke-width:5;fill:gray;fill-opacity:0.3"/>
<circle cx="317" cy="985" r="38" style="stroke-width:5;fill:gray;fill-opacity:0.3"/>
<circle cx="2357" cy="321" r="37" style="stroke-width:5;fill:gray;fill-opacity:0.3"/>
<circle cx="1785" cy="2100" r="11" style="stroke-width:5;fill:gray;fill-opacity:0.3"/>
<circle cx="1781" cy="3348" r="84" style="stroke-width:5;fill:gray;fill-opacity:0.3"/>
<circle cx="975" cy="1354" r="16" style="stroke-width:5;fill:gray;fill-opacity:0.3"/>
<circle cx="3855" cy="2083" r="32" style="stroke-width:5;fill:gray;fill-opacity:0.3"/>
<circle cx="886" cy="1399" r="63" style="stroke-width:5;fill:gray;fill-opacity:0.3"/>
<circle cx="289" cy="2096" r="11" style="stroke-width:5;fill:gray;fill-opacity:0.3"/>
<circle cx="881" cy="479" r="23" style="stroke-width:5;fill:gray;fill-opacity:0.3"/>
<circle cx="4281" cy="1059" r="71" style="stroke-width:5;fill:gray;fill-opacity:0.3"/>
<circle cx="71" cy="2782" r="63" style="stroke-width:5;fill:gray;fill-opacity:0.3"/>
<circle cx="4463" cy="492" r="7" style="stroke-width:5;fill:gray;fill-opacity:0.3"/>
<circle cx="2272" cy="2954" r="38" style="stroke-width:5;fill:gray;fill-opacity:0.3"/>
<circle cx="1167" cy="508" r="18" style="stroke-width:5;fill:gray;fill-opacity:0.3"/>
<circle cx="855" cy="2154" r="17" style="stroke-width:5;fill:gray;fill-opacity:0.3"/>
<circle cx="4055" cy="890" r="79" style="stroke-width:5;fill:gray;fill-opacity:0.3"/>
<circle cx="1259" cy="3444" r="30" style="stroke-width:5;fill:gray;fill-opacity:0.3"/>
<circle cx="163" cy="2888" r="79" style="stroke-width:5;fill:gray;fill-opacity:0.3"/>
<circle cx="3587" cy="378" r="15" style="stroke-width:5;fill:gray;fill-opacity:0.3"/>
<circle cx="3245" cy="1717" r="63" style="stroke-width:5;fill:gray;fill-opacity:0.3"/>
<circle cx="2779" cy="2370" r="59" style="stroke-width:5;fill:gray;fill-opacity:0.3"/>
<circle cx="3386" cy="1053" r="26" style="stroke-width:5;fill:gray;fill-opacity:0.3"/>
<circle cx="2181" cy="3383" r="6" style="stroke-width:5;fill:gray;fill-opacity:0.3"/>
<circle cx="2075" cy="3215" r="52" style="stroke-width:5;fill:gray;fill-opacity:0.3"/>
<circle cx="3602" cy="618" r="6" style="stroke-width:5;fill:gray;fill-opacity:0.3"/>
<circle cx="2003" cy="164" r="37" style="stroke-width:5;fill:gray;fill-opacity:0.3"/>
<circle cx="176" cy="3297" r="69" style="stroke-width:5;fill:gray;fill-opacity:0.3"/>
<circle cx="2786" cy="1659" r="29" style="stroke-width:5;fill:gray;fill-opacity:0.3"/>
<circle cx="786" cy="3406" r="55" style="stroke-width:5;fill:gray;fill-opacity:0.3"/>
<circle cx="3107" cy="2312" r="78" style="stroke-width:5;fill:gray;fill-opacity:0.3"/>
<circle cx="1208" cy="3416" r="80" style="stroke-width:5;fill:gray;fill-opacity:0.3"/>
<circle cx="282" cy="1417" r="71" style="stroke-width:5;fill:gray;fill-opacity:0.3"/>
<circle cx="3729" cy="1063" r="83" style="stroke-width:5;fill:gray;fill-opacity:0.3"/>
<circle cx="3331" cy="1602" r="36" style="stroke-width:5;fill:gray;fill-opacity:0.3"/>
<circle cx="914" cy="3362" r="8" style="stroke-width:5;fill:gray;fill-opacity:0.3"/>
<circle cx="3253" cy="2866" r="11" style="stroke-width:5;fill:gray;fill-opacity:0.3"/>
<circle cx="1576" cy="2376" r="62" style="stroke-width:5;fill:gray;fill-opacity:0.3"/>
<circle cx="1596" cy="3320" r="30" style="stroke-width:5;fill:gray;fill-opacity:0.3"/>
<circle cx="475" cy="2558" r="48" style="stroke-width:5;fill:gray;fill-opacity:0.3"/>
<circle cx="2559" cy="1435" r="55" style="stroke-width:5;fill:gray;fill-opacity:0.3"/>
<circle cx="2113" cy="267" r="79" style="stroke-width:5;fill:gray;fill-opacity:0.3"/>
<circle cx="1576" cy="2245" r="33" style="stroke-width:5;fill:gray;fill-opacity:0.3"/>
<circle cx="422" cy="1661" r="40" style="stroke-width:5;fill:gray;fill-opacity:0.3"/>
<circle cx="933" cy="316" r="79" style="stroke-width:5;fill:gray;fill-opacity:0.3"/>
<circle cx="3062" cy="519" r="5" style="stroke-width:5;fill:gray;fill-opacity:0.3"/>
<circle cx="1764" cy="393" r="65" style="stroke-width:5;fill:gray;fill-opacity:0.3"/>
<circle cx="3512" cy="1425" r="45" style="stroke-width:5;fill:gray;fill-opacity:0.3"/>
<circle cx="3602" cy="1852" r="82" style="stroke-width:5;fill:gray;fill-opacity:0.3"/>
<circle cx="2907" cy="3077" r="14" style="stroke-width:5;fill:gray;fill-opacity:0.3"/>
<circle cx="258" cy="997" r="30" style="stroke-width:5;fill:gray;fill-opacity:0.3"/>
<circle cx="3966" cy="939" r="18" style="stroke-width:5;fill:gray;fill-opacity:0.3"/>
<circle cx="916" cy="2732" r="26" style="stroke-width:5;fill:gray;fill-opacity:0.3"/>
<circle cx="2347" cy="1926" r="18" style="stroke-width:5;fill:gray;fill-opacity:0.3"/>
<circle cx="4441" cy="3067" r="77" style="stroke-width:5;fill:gray;fill-opacity:0.3"/>
<circle cx="1730" cy="1115" r="34" style="stroke-width:5;fill:gray;fill-opacity:0.3"/>
<circle cx="261" cy="2478" r="39" style="stroke-width:5;fill:gray;fill-opacity:0.3"/>
<circle cx="498" cy="3031" r="29" style="stroke-width:5;fill:gray;fill-opacity:0.3"/>
<circle cx="2218" cy="2724" r="71" style="stroke-width:5;fill:gray;fill-opacity:0.3"/>
<circle cx="2597" cy="1582" r="53" style="stroke-width:5;fill:gray;fill-opacity:0.3"/>
<circle cx="2984" cy="78" r="55" style="stroke-width:5;fill:gray;fill-opacity:0.3"/>
<circle cx="2747" cy="3236" r="73" style="stroke-width:5;fill:gray;fill-opacity:0.3"/>
<circle cx="1485" cy="2389" r="38" style="stroke-width:5;fill:gray;fill-opacity:0.3"/>
<circle cx="1317" cy="2673" r="16" style="stroke-width:5;fill:gray;fill-opacity:0.3"/>
<circle cx="809" cy="368" r="78" style="stroke-width:5;fill:gray;fill-opacity:0.3"/>
<circle cx="2829" cy="2413" r="52" style="stroke-width:5;fill:gray;fill-opacity:0.3"/>
<circle cx="1124" cy="1944" r="69" style="stroke-width:5;fill:gray;fill-opacity:0.3"/>
<circle cx="2738" cy="882" r="9" style="stroke-width:5;fill:gray;fill-opacity:0.3"/>
<circle cx="3564" cy="869" r="10" style="stroke-width:5;fill:gray;fill-opacity:0.3"/>
</svg>