<svg viewBox="0 0 7244 9899" xmlns="http://www.w3.org/2000/svg">
<rect height="2203" style="stroke:pink;stroke-width:10;fill:gray;fill-opacity:0.1;stroke-opacity:0.9" width="2172" x="4878" y="5553"/>
<circle cx="4125" cy="6680" r="5" style="fill:blue"/>
<circle cx="5021" cy="7895" r="5" style="fill:blue"/>
<circle cx="1988" cy="7950" r="5" style="fill:blue"/>
<circle cx="1761" cy="6036" r="5" style="fill:blue"/>
<circle cx="4284" cy="6856" r="5" style="fill:blue"/>
<circle cx="1740" cy="3649" r="5" style="fill:blue"/>
<circle cx="5768" cy="782" r="5" style="fill:blue"/>
<circle cx="3498" cy="8105" r="5" style="fill:blue"/>
<circle cx="4992" cy="5404" r="5" style="fill:blue"/>
<circle cx="254" cy="441" r="5" style="fill:blue"/>
<circle cx="4309" cy="9038" r="5" style="fill:blue"/>
<circle cx="3431" cy="9437" r="5" style="fill:blue"/>
<circle cx="6639" cy="1580" r="5" style="fill:blue"/>
<circle cx="6888" cy="350" r="5" style="fill:blue"/>
<circle cx="2267" cy="1661" r="5" style="fill:blue"/>
<circle cx="2707" cy="752" r="5" style="fill:blue"/>
<circle cx="2380" cy="5704" r="5" style="fill:blue"/>
<circle cx="483" cy="5905" r="5" style="fill:blue"/>
<circle cx="2681" cy="6378" r="5" style="fill:blue"/>
<circle cx="3148" cy="1901" r="5" style="fill:blue"/>
<circle cx="6572" cy="133" r="5" style="fill:blue"/>
<circle cx="124" cy="6009" r="5" style="fill:blue"/>
<circle cx="2194" cy="6157" r="5" style="fill:blue"/>
<circle cx="798" cy="4778" r="5" style="fill:blue"/>
<circle cx="3485" cy="9108" r="5" style="fill:blue"/>
<circle cx="4478" cy="4073" r="5" style="fill:blue"/>
<circle cx="2259" cy="7111" r="5" style="fill:blue"/>
<circle cx="1607" cy="8463" r="5" style="fill:blue"/>
<circle cx="1958" cy="7434" r="5" style="fill:blue"/>
<circle cx="921" cy="6720" r="5" style="fill:blue"/>
<circle cx="6444" cy="9279" r="5" style="fill:blue"/>
<circle cx="1451" cy="8290" r="5" style="fill:blue"/>
<circle cx="3418" cy="1165" r="5" style="fill:blue"/>
<circle cx="2495" cy="9458" r="5" style="fill:blue"/>
<circle cx="2426" cy="9604" r="5" style="fill:blue"/>
<circle cx="1543" cy="3369" r="5" style="fill:blue"/>
<circle cx="6163" cy="1265" r="5" style="fill:blue"/>
<circle cx="5505" cy="4195" r="5" style="fill:blue"/>
<circle cx="5196" cy="8253" r="5" style="fill:blue"/>
<circle cx="6257" cy="8927" r="5" style="fill:blue"/>
<circle cx="6863" cy="939" r="5" style="fill:blue"/>
<circle cx="1836" cy="8062" r="5" style="fill:blue"/>
<circle cx="72" cy="6272" r="5" style="fill:blue"/>
<circle cx="2210" cy="2375" r="5" style="fill:blue"/>
<circle cx="1283" cy="5075" r="5" style="fill:blue"/>
<circle cx="6104" cy="2133" r="5" style="fill:blue"/>
<circle cx="6197" cy="5338" r="5" style="fill:blue"/>
<circle cx="1483" cy="7485" r="5" style="fill:blue"/>
<circle cx="5837" cy="5143" r="5" style="fill:blue"/>
<circle cx="1277" cy="3963" r="5" style="fill:blue"/>
<circle cx="4706" cy="4718" r="5" style="fill:blue"/>
<circle cx="3990" cy="3858" r="5" style="fill:blue"/>
<circle cx="176" cy="3137" r="5" style="fill:blue"/>
<circle cx="232" cy="8067" r="5" style="fill:blue"/>
<circle cx="3994" cy="5428" r="5" style="fill:blue"/>
<circle cx="1845" cy="3829" r="5" style="fill:blue"/>
<circle cx="7099" cy="1680" r="5" style="fill:blue"/>
<circle cx="147" cy="7756" r="5" style="fill:blue"/>
<circle cx="358" cy="1062" r="5" style="fill:blue"/>
<circle cx="1435" cy="4853" r="5" style="fill:blue"/>
<circle cx="5901" cy="8969" r="5" style="fill:blue"/>
<circle cx="3145" cy="9531" r="5" style="fill:blue"/>
<circle cx="4485" cy="6563" r="5" style="fill:blue"/>
<circle cx="4693" cy="7159" r="5" style="fill:blue"/>
<circle cx="3430" cy="3397" r="5" style="fill:blue"/>
<circle cx="3835" cy="893" r="5" style="fill:blue"/>
<circle cx="4739" cy="9841" r="5" style="fill:blue"/>
<circle cx="5557" cy="9562" r="5" style="fill:blue"/>
<circle cx="5388" cy="4460" r="5" style="fill:blue"/>
<circle cx="2743" cy="3799" r="5" style="fill:blue"/>
<circle cx="55" cy="9420" r="5" style="fill:blue"/>
<circle cx="157" cy="8282" r="5" style="fill:blue"/>
<circle cx="2430" cy="8597" r="5" style="fill:blue"/>
<circle cx="2192" cy="7630" r="5" style="fill:blue"/>
<circle cx="222" cy="7644" r="5" style="fill:blue"/>
<circle cx="6795" cy="4137" r="5" style="fill:blue"/>
<circle cx="1455" cy="8584" r="5" style="fill:blue"/>
<circle cx="5832" cy="8238" r="5" style="fill:blue"/>
<circle cx="4534" cy="3662" r="5" style="fill:blue"/>
<circle cx="7071" cy="6859" r="5" style="fill:blue"/>
<circle cx="1672" cy="9885" r="5" style="fill:blue"/>
<circle cx="4635" cy="8907" r="5" style="fill:blue"/>
<circle cx="1202" cy="908" r="5" style="fill:blue"/>
<circle cx="1595" cy="7642" r="5" style="fill:blue"/>
<circle cx="4730" cy="1454" r="5" style="fill:blue"/>
<circle cx="7098" cy="6873" r="5" style="fill:blue"/>
<circle cx="3951" cy="4741" r="5" style="fill:blue"/>
<circle cx="7220" cy="2409" r="5" style="fill:blue"/>
<circle cx="743" cy="8795" r="5" style="fill:blue"/>
<circle cx="2299" cy="5857" r="5" style="fill:blue"/>
<circle cx="130" cy="9892" r="5" style="fill:blue"/>
<circle cx="4960" cy="1981" r="5" style="fill:blue"/>
<circle cx="7188" cy="6792" r="5" style="fill:blue"/>
<circle cx="2463" cy="6634" r="5" style="fill:blue"/>
<circle cx="5248" cy="1140" r="5" style="fill:blue"/>
<circle cx="3674" cy="700" r="5" style="fill:blue"/>
<circle cx="2769" cy="8980" r="5" style="fill:blue"/>
<circle cx="2700" cy="9870" r="5" style="fill:blue"/>
<circle cx="1838" cy="2488" r="5" style="fill:blue"/>
<circle cx="4353" cy="4175" r="5" style="fill:blue"/>
<circle cx="890" cy="2442" r="5" style="fill:blue"/>
<circle cx="1746" cy="3579" r="5" style="fill:blue"/>
<circle cx="6834" cy="297" r="5" style="fill:blue"/>
<circle cx="6864" cy="9746" r="5" style="fill:blue"/>
<circle cx="6478" cy="5469" r="5" style="fill:blue"/>
<circle cx="6214" cy="8986" r="5" style="fill:blue"/>
<circle cx="3178" cy="2170" r="5" style="fill:blue"/>
<circle cx="5645" cy="1438" r="5" style="fill:blue"/>
<circle cx="1708" cy="8176" r="5" style="fill:blue"/>
<circle cx="3842" cy="8991" r="5" style="fill:blue"/>
<circle cx="1952" cy="1636" r="5" style="fill:blue"/>
<circle cx="3459" cy="3386" r="5" style="fill:blue"/>
<circle cx="1260" cy="9560" r="5" style="fill:blue"/>
<circle cx="2478" cy="2831" r="5" style="fill:blue"/>
<circle cx="6981" cy="8823" r="5" style="fill:blue"/>
<circle cx="1095" cy="5134" r="5" style="fill:blue"/>
<circle cx="4234" cy="801" r="5" style="fill:blue"/>
<circle cx="6115" cy="1139" r="5" style="fill:blue"/>
<circle cx="1023" cy="3169" r="5" style="fill:blue"/>
<circle cx="1947" cy="5226" r="5" style="fill:blue"/>
<circle cx="390" cy="9740" r="5" style="fill:blue"/>
<circle cx="5690" cy="784" r="5" style="fill:blue"/>
<circle cx="1731" cy="4665" r="5" style="fill:blue"/>
<circle cx="3974" cy="178" r="5" style="fill:blue"/>
<circle cx="3234" cy="6174" r="5" style="fill:blue"/>
<circle cx="3077" cy="1818" r="5" style="fill:blue"/>
<circle cx="2497" cy="1526" r="5" style="fill:blue"/>
<circle cx="2965" cy="8937" r="5" style="fill:blue"/>
<circle cx="2719" cy="1168" r="5" style="fill:blue"/>
<circle cx="6954" cy="3847" r="5" style="fill:blue"/>
<circle cx="6359" cy="9488" r="5" style="fill:blue"/>
<circle cx="5566" cy="997" r="5" style="fill:blue"/>
<circle cx="1661" cy="9692" r="5" style="fill:blue"/>
<circle cx="273" cy="2123" r="5" style="fill:blue"/>
<circle cx="1748" cy="9567" r="5" style="fill:blue"/>
<circle cx="1211" cy="6423" r="5" style="fill:blue"/>
<circle cx="4071" cy="812" r="5" style="fill:blue"/>
<circle cx="5662" cy="9688" r="5" style="fill:blue"/>
<circle cx="1154" cy="7721" r="5" style="fill:blue"/>
<circle cx="1999" cy="907" r="5" style="fill:blue"/>
<circle cx="592" cy="8969" r="5" style="fill:blue"/>
<circle cx="3952" cy="4155" r="5" style="fill:blue"/>
<circle cx="353" cy="7772" r="5" style="fill:blue"/>
<circle cx="6535" cy="1207" r="5" style="fill:blue"/>
<circle cx="1031" cy="4107" r="5" style="fill:blue"/>
<circle cx="634" cy="8531" r="5" style="fill:blue"/>
<circle cx="820" cy="8989" r="5" style="fill:blue"/>
<circle cx="3861" cy="9720" r="5" style="fill:blue"/>
<circle cx="3660" cy="579" r="5" style="fill:blue"/>
<circle cx="4194" cy="2895" r="5" style="fill:blue"/>
<circle cx="5067" cy="1651" r="5" style="fill:blue"/>
<circle cx="2432" cy="6466" r="5" style="fill:blue"/>
<circle cx="2203" cy="5129" r="5" style="fill:blue"/>
<circle cx="2223" cy="5690" r="5" style="fill:blue"/>
<circle cx="2716" cy="2602" r="5" style="fill:blue"/>
<circle cx="4353" cy="1315" r="5" style="fill:blue"/>
<circle cx="3139" cy="5440" r="5" style="fill:blue"/>
<circle cx="4815" cy="7171" r="5" style="fill:blue"/>
<circle cx="2906" cy="6459" r="5" style="fill:blue"/>
<circle cx="3324" cy="6126" r="5" style="fill:blue"/>
<circle cx="5618" cy="8416" r="5" style="fill:blue"/>
<circle cx="587" cy="1016" r="5" style="fill:blue"/>
<circle cx="535" cy="7876" r="5" style="fill:blue"/>
<circle cx="4928" cy="9331" r="5" style="fill:blue"/>
<circle cx="4427" cy="7489" r="5" style="fill:blue"/>
<circle cx="3560" cy="1302" r="5" style="fill:blue"/>
<circle cx="2611" cy="8199" r="5" style="fill:blue"/>
<circle cx="4549" cy="2029" r="5" style="fill:blue"/>
<circle cx="3686" cy="9669" r="5" style="fill:blue"/>
<circle cx="3323" cy="6316" r="5" style="fill:blue"/>
<circle cx="4101" cy="1345" r="5" style="fill:blue"/>
<circle cx="5476" cy="3795" r="5" style="fill:blue"/>
<circle cx="3077" cy="4835" r="5" style="fill:blue"/>
<circle cx="912" cy="3547" r="5" style="fill:blue"/>
<circle cx="1663" cy="7374" r="5" style="fill:blue"/>
<circle cx="872" cy="903" r="5" style="fill:blue"/>
<circle cx="3766" cy="2625" r="5" style="fill:blue"/>
<circle cx="6226" cy="4151" r="5" style="fill:blue"/>
<circle cx="844" cy="6946" r="5" style="fill:blue"/>
<circle cx="6065" cy="8756" r="5" style="fill:blue"/>
<circle cx="6958" cy="8944" r="5" style="fill:blue"/>
<circle cx="4255" cy="3399" r="5" style="fill:blue"/>
<circle cx="1683" cy="4097" r="5" style="fill:blue"/>
<circle cx="2114" cy="25" r="5" style="fill:blue"/>
<circle cx="7178" cy="9171" r="5" style="fill:blue"/>
<circle cx="2461" cy="3166" r="5" style="fill:blue"/>
<circle cx="4047" cy="7048" r="5" style="fill:blue"/>
<circle cx="5780" cy="1402" r="5" style="fill:blue"/>
<circle cx="4921" cy="5425" r="5" style="fill:blue"/>
<circle cx="4449" cy="8992" r="5" style="fill:blue"/>
<circle cx="36" cy="5612" r="5" style="fill:blue"/>
<circle cx="6110" cy="4953" r="5" style="fill:blue"/>
<circle cx="1558" cy="3126" r="5" style="fill:blue"/>
<circle cx="2112" cy="3558" r="5" style="fill:blue"/>
<circle cx="3774" cy="6366" r="5" style="fill:blue"/>
<circle cx="4052" cy="9089" r="5" style="fill:blue"/>
<circle cx="6612" cy="3096" r="5" style="fill:blue"/>
<circle cx="1847" cy="1728" r="5" style="fill:blue"/>
<circle cx="4249" cy="3536" r="5" style="fill:blue"/>
<circle cx="6258" cy="8535" r="5" style="fill:blue"/>
<circle cx="331" cy="6687" r="5" style="fill:blue"/>
<circle cx="7093" cy="5865" r="5" style="fill:blue"/>
<circle cx="142" cy="2549" r="5" style="fill:blue"/>
<circle cx="3" cy="262" r="5" style="fill:blue"/>
<circle cx="3799" cy="4183" r="5" style="fill:blue"/>
<circle cx="533" cy="4437" r="5" style="fill:blue"/>
<circle cx="5276" cy="8252" r="5" style="fill:blue"/>
<circle cx="4177" cy="8711" r="5" style="fill:blue"/>
<circle cx="4248" cy="8928" r="5" style="fill:blue"/>
<circle cx="2287" cy="6532" r="5" style="fill:blue"/>
<circle cx="3748" cy="748" r="5" style="fill:blue"/>
<circle cx="3167" cy="5128" r="5" style="fill:blue"/>
<circle cx="4028" cy="4512" r="5" style="fill:blue"/>
<circle cx="3172" cy="4366" r="5" style="fill:blue"/>
<circle cx="3505" cy="7173" r="5" style="fill:blue"/>
<circle cx="2201" cy="1384" r="5" style="fill:blue"/>
<circle cx="771" cy="1592" r="5" style="fill:blue"/>
<circle cx="2845" cy="3591" r="5" style="fill:blue"/>
<circle cx="5984" cy="1214" r="5" style="fill:blue"/>
<circle cx="6171" cy="1282" r="5" style="fill:blue"/>
<circle cx="1349" cy="1061" r="5" style="fill:blue"/>
<circle cx="1581" cy="699" r="5" style="fill:blue"/>
<circle cx="3740" cy="7568" r="5" style="fill:blue"/>
<circle cx="5336" cy="595" r="5" style="fill:blue"/>
<circle cx="2736" cy="9463" r="5" style="fill:blue"/>
<circle cx="50" cy="758" r="5" style="fill:blue"/>
<circle cx="3959" cy="576" r="5" style="fill:blue"/>
<circle cx="6233" cy="3474" r="5" style="fill:blue"/>
<circle cx="875" cy="7920" r="5" style="fill:blue"/>
<circle cx="3660" cy="1487" r="5" style="fill:blue"/>
<circle cx="5095" cy="8437" r="5" style="fill:blue"/>
<circle cx="2986" cy="1871" r="5" style="fill:blue"/>
<circle cx="4425" cy="431" r="5" style="fill:blue"/>
<circle cx="2100" cy="6233" r="5" style="fill:blue"/>
<circle cx="4615" cy="598" r="5" style="fill:blue"/>
<circle cx="2974" cy="9156" r="5" style="fill:blue"/>
<circle cx="142" cy="95" r="5" style="fill:blue"/>
<circle cx="3413" cy="3479" r="5" style="fill:blue"/>
<circle cx="6911" cy="1458" r="5" style="fill:blue"/>
<circle cx="2668" cy="7311" r="5" style="fill:blue"/>
<circle cx="1402" cy="300" r="5" style="fill:blue"/>
<circle cx="2736" cy="1890" r="5" style="fill:blue"/>
<circle cx="2841" cy="108" r="5" style="fill:blue"/>
<circle cx="1153" cy="8676" r="5" style="fill:blue"/>
<circle cx="1295" cy="9876" r="5" style="fill:blue"/>
<circle cx="2414" cy="6800" r="5" style="fill:blue"/>
<circle cx="3543" cy="4377" r="5" style="fill:blue"/>
<circle cx="6189" cy="3380" r="5" style="fill:blue"/>
<circle cx="5280" cy="4910" r="5" style="fill:blue"/>
<circle cx="4656" cy="3182" r="5" style="fill:blue"/>
<circle cx="2927" cy="4281" r="5" style="fill:blue"/>
<circle cx="6119" cy="1143" r="5" style="fill:blue"/>
<circle cx="2791" cy="6809" r="5" style="fill:blue"/>
<circle cx="788" cy="6677" r="5" style="fill:blue"/>
<circle cx="3835" cy="9652" r="5" style="fill:blue"/>
<circle cx="1733" cy="8646" r="5" style="fill:blue"/>
<circle cx="2218" cy="4174" r="5" style="fill:blue"/>
<circle cx="6728" cy="1983" r="5" style="fill:blue"/>
<circle cx="1655" cy="3705" r="5" style="fill:blue"/>
<circle cx="696" cy="6203" r="5" style="fill:blue"/>
<circle cx="2140" cy="8928" r="5" style="fill:blue"/>
<circle cx="2188" cy="8358" r="5" style="fill:blue"/>
<circle cx="2649" cy="6354" r="5" style="fill:blue"/>
<circle cx="1439" cy="159" r="5" style="fill:blue"/>
<circle cx="4450" cy="6179" r="5" style="fill:blue"/>
<circle cx="6581" cy="9725" r="5" style="fill:blue"/>
<circle cx="2129" cy="8222" r="5" style="fill:blue"/>
<circle cx="7196" cy="8075" r="5" style="fill:blue"/>
<circle cx="6" cy="63" r="5" style="fill:blue"/>
<circle cx="2960" cy="8415" r="5" style="fill:blue"/>
<circle cx="4526" cy="6544" r="5" style="fill:blue"/>
<circle cx="3720" cy="3128" r="5" style="fill:blue"/>
<circle cx="5454" cy="2793" r="5" style="fill:blue"/>
<circle cx="3932" cy="5217" r="5" style="fill:blue"/>
<circle cx="2812" cy="1982" r="5" style="fill:blue"/>
<circle cx="4768" cy="7933" r="5" style="fill:blue"/>
<circle cx="2477" cy="7668" r="5" style="fill:blue"/>
<circle cx="3647" cy="3299" r="5" style="fill:blue"/>
<circle cx="5594" cy="5311" r="5" style="fill:blue"/>
<circle cx="4687" cy="1213" r="5" style="fill:blue"/>
<circle cx="6956" cy="9660" r="5" style="fill:blue"/>
<circle cx="3160" cy="3960" r="5" style="fill:blue"/>
<circle cx="3340" cy="7011" r="5" style="fill:blue"/>
<circle cx="3992" cy="3723" r="5" style="fill:blue"/>
<circle cx="5849" cy="2081" r="5" style="fill:blue"/>
<circle cx="722" cy="5965" r="5" style="fill:blue"/>
<circle cx="1536" cy="314" r="5" style="fill:blue"/>
<circle cx="4429" cy="1651" r="5" style="fill:blue"/>
<circle cx="4743" cy="7080" r="5" style="fill:blue"/>
<circle cx="1927" cy="5556" r="5" style="fill:blue"/>
<circle cx="1689" cy="3742" r="5" style="fill:blue"/>
<circle cx="2466" cy="5785" r="5" style="fill:blue"/>
<circle cx="4908" cy="9811" r="5" style="fill:blue"/>
<circle cx="1445" cy="2373" r="5" style="fill:blue"/>
<circle cx="4083" cy="7334" r="5" style="fill:blue"/>
<circle cx="128" cy="4908" r="5" style="fill:blue"/>
<circle cx="2502" cy="6323" r="5" style="fill:blue"/>
<circle cx="2850" cy="5523" r="5" style="fill:blue"/>
<circle cx="3192" cy="3021" r="5" style="fill:blue"/>
<circle cx="1900" cy="295" r="5" style="fill:blue"/>
<circle cx="1556" cy="3574" r="5" style="fill:blue"/>
<circle cx="3748" cy="8951" r="5" style="fill:blue"/>
<circle cx="4567" cy="6766" r="5" style="fill:blue"/>
<circle cx="3140" cy="5009" r="5" style="fill:blue"/>
<circle cx="2702" cy="2733" r="5" style="fill:blue"/>
<circle cx="1841" cy="5286" r="5" style="fill:blue"/>
<circle cx="4996" cy="1933" r="5" style="fill:blue"/>
<circle cx="1016" cy="1260" r="5" style="fill:blue"/>
<circle cx="3021" cy="2417" r="5" style="fill:blue"/>
<circle cx="5686" cy="2854" r="5" style="fill:blue"/>
<circle cx="1430" cy="2240" r="5" style="fill:blue"/>
<circle cx="5898" cy="1385" r="5" style="fill:blue"/>
<circle cx="5484" cy="7889" r="5" style="fill:blue"/>
<circle cx="3925" cy="3697" r="5" style="fill:blue"/>
<circle cx="5584" cy="315" r="5" style="fill:blue"/>
<circle cx="4008" cy="7146" r="5" style="fill:blue"/>
<circle cx="2285" cy="4744" r="5" style="fill:blue"/>
<circle cx="7112" cy="2770" r="5" style="fill:blue"/>
<circle cx="4314" cy="345" r="5" style="fill:blue"/>
<circle cx="1316" cy="3454" r="5" style="fill:blue"/>
<circle cx="2390" cy="1026" r="5" style="fill:blue"/>
<circle cx="5847" cy="3579" r="5" style="fill:blue"/>
<circle cx="2406" cy="3094" r="5" style="fill:blue"/>
<circle cx="4615" cy="3475" r="5" style="fill:blue"/>
<circle cx="2290" cy="9480" r="5" style="fill:blue"/>
<circle cx="98" cy="6178" r="5" style="fill:blue"/>
<circle cx="1765" cy="500" r="5" style="fill:blue"/>
<circle cx="6217" cy="3013" r="5" style="fill:blue"/>
<circle cx="5203" cy="8575" r="5" style="fill:blue"/>
<circle cx="5306" cy="957" r="5" style="fill:blue"/>
<circle cx="4004" cy="85" r="5" style="fill:blue"/>
<circle cx="702" cy="5710" r="5" style="fill:blue"/>
<circle cx="1021" cy="4015" r="5" style="fill:blue"/>
<circle cx="932" cy="7412" r="5" style="fill:blue"/>
<circle cx="1338" cy="7181" r="5" style="fill:blue"/>
<circle cx="2489" cy="4533" r="5" style="fill:blue"/>
<circle cx="1996" cy="3564" r="5" style="fill:blue"/>
<circle cx="5247" cy="942" r="5" style="fill:blue"/>
<circle cx="1038" cy="8371" r="5" style="fill:blue"/>
<circle cx="5723" cy="458" r="5" style="fill:blue"/>
<circle cx="2967" cy="5249" r="5" style="fill:blue"/>
<circle cx="394" cy="388" r="5" style="fill:blue"/>
<circle cx="1557" cy="6580" r="5" style="fill:blue"/>
<circle cx="6131" cy="4365" r="5" style="fill:blue"/>
<circle cx="3911" cy="3415" r="5" style="fill:blue"/>
<circle cx="5591" cy="5263" r="5" style="fill:blue"/>
<circle cx="5495" cy="715" r="5" style="fill:blue"/>
<circle cx="3195" cy="5119" r="5" style="fill:blue"/>
<circle cx="6516" cy="2699" r="5" style="fill:blue"/>
<circle cx="4898" cy="3242" r="5" style="fill:blue"/>
<circle cx="4276" cy="9057" r="5" style="fill:blue"/>
<circle cx="4476" cy="8369" r="5" style="fill:blue"/>
<circle cx="3181" cy="435" r="5" style="fill:blue"/>
<circle cx="3894" cy="2729" r="5" style="fill:blue"/>
<circle cx="6713" cy="8206" r="5" style="fill:blue"/>
<circle cx="6766" cy="1428" r="5" style="fill:blue"/>
<circle cx="6110" cy="8673" r="5" style="fill:blue"/>
<circle cx="5957" cy="2780" r="5" style="fill:blue"/>
<circle cx="3655" cy="1533" r="5" style="fill:blue"/>
<circle cx="4085" cy="630" r="5" style="fill:blue"/>
<circle cx="1233" cy="5159" r="5" style="fill:blue"/>
<circle cx="4758" cy="9263" r="5" style="fill:blue"/>
<circle cx="1996" cy="2983" r="5" style="fill:blue"/>
<circle cx="6469" cy="4159" r="5" style="fill:blue"/>
<circle cx="1945" cy="6931" r="5" style="fill:blue"/>
<circle cx="444" cy="3602" r="5" style="fill:blue"/>
<circle cx="2186" cy="73" r="5" style="fill:blue"/>
<circle cx="4901" cy="3620" r="5" style="fill:blue"/>
<circle cx="5778" cy="3984" r="5" style="fill:blue"/>
<circle cx="2121" cy="7888" r="5" style="fill:blue"/>
<circle cx="3562" cy="2481" r="5" style="fill:blue"/>
<circle cx="1434" cy="7362" r="5" style="fill:blue"/>
<circle cx="2004" cy="6025" r="5" style="fill:blue"/>
<circle cx="5730" cy="9538" r="5" style="fill:blue"/>
<circle cx="5446" cy="8459" r="5" style="fill:blue"/>
<circle cx="1265" cy="7281" r="5" style="fill:blue"/>
<circle cx="3788" cy="8962" r="5" style="fill:blue"/>
<circle cx="388" cy="8410" r="5" style="fill:blue"/>
<circle cx="4675" cy="2484" r="5" style="fill:blue"/>
<circle cx="3838" cy="5225" r="5" style="fill:blue"/>
<circle cx="6638" cy="4079" r="5" style="fill:blue"/>
<circle cx="3278" cy="5950" r="5" style="fill:blue"/>
<circle cx="6142" cy="3695" r="5" style="fill:blue"/>
<circle cx="5445" cy="7967" r="5" style="fill:blue"/>
<circle cx="3673" cy="7994" r="5" style="fill:blue"/>
<circle cx="6367" cy="9861" r="5" style="fill:blue"/>
<circle cx="5218" cy="7879" r="5" style="fill:blue"/>
<circle cx="2429" cy="2214" r="5" style="fill:blue"/>
<circle cx="3499" cy="3695" r="5" style="fill:blue"/>
<circle cx="4193" cy="4698" r="5" style="fill:blue"/>
<circle cx="1095" cy="7363" r="5" style="fill:blue"/>
<circle cx="2684" cy="1498" r="5" style="fill:blue"/>
<circle cx="1744" cy="7560" r="5" style="fill:blue"/>
<circle cx="5046" cy="834" r="5" style="fill:blue"/>
<circle cx="6623" cy="756" r="5" style="fill:blue"/>
<circle cx="655" cy="3631" r="5" style="fill:blue"/>
<circle cx="4431" cy="2259" r="5" style="fill:blue"/>
<circle cx="158" cy="6337" r="5" style="fill:blue"/>
<circle cx="7221" cy="7768" r="5" style="fill:blue"/>
<circle cx="5017" cy="2283" r="5" style="fill:blue"/>
<circle cx="2831" cy="8975" r="5" style="fill:blue"/>
<circle cx="6400" cy="9448" r="5" style="fill:blue"/>
<circle cx="7157" cy="9465" r="5" style="fill:blue"/>
<circle cx="3910" cy="4300" r="5" style="fill:blue"/>
<circle cx="1562" cy="360" r="5" style="fill:blue"/>
<circle cx="1119" cy="7877" r="5" style="fill:blue"/>
<circle cx="7121" cy="1328" r="5" style="fill:blue"/>
<circle cx="3210" cy="530" r="5" style="fill:blue"/>
<circle cx="5477" cy="826" r="5" style="fill:blue"/>
<circle cx="814" cy="6591" r="5" style="fill:blue"/>
<circle cx="1891" cy="7431" r="5" style="fill:blue"/>
<circle cx="5753" cy="549" r="5" style="fill:blue"/>
<circle cx="6472" cy="8267" r="5" style="fill:blue"/>
<circle cx="1794" cy="3790" r="5" style="fill:blue"/>
<circle cx="3436" cy="1509" r="5" style="fill:blue"/>
<circle cx="67" cy="7446" r="5" style="fill:blue"/>
<circle cx="1318" cy="6708" r="5" style="fill:blue"/>
<circle cx="2000" cy="279" r="5" style="fill:blue"/>
<circle cx="27" cy="6962" r="5" style="fill:blue"/>
<circle cx="955" cy="5310" r="5" style="fill:blue"/>
<circle cx="7208" cy="5127" r="5" style="fill:blue"/>
<circle cx="2811" cy="9679" r="5" style="fill:blue"/>
<circle cx="3920" cy="40" r="5" style="fill:blue"/>
<circle cx="6592" cy="4912" r="5" style="fill:blue"/>
<circle cx="1865" cy="5131" r="5" style="fill:blue"/>
<circle cx="4174" cy="9372" r="5" style="fill:blue"/>
<circle cx="4339" cy="4086" r="5" style="fill:blue"/>
<circle cx="6765" cy="8629" r="5" style="fill:blue"/>
<circle cx="2021" cy="5405" r="5" style="fill:blue"/>
<circle cx="4134" cy="627" r="5" style="fill:blue"/>
<circle cx="4312" cy="1868" r="5" style="fill:blue"/>
<circle cx="1753" cy="7819" r="5" style="fill:blue"/>
<circle cx="6462" cy="935" r="5" style="fill:blue"/>
<circle cx="7197" cy="3609" r="5" style="fill:blue"/>
<circle cx="1906" cy="8643" r="5" style="fill:blue"/>
<circle cx="2957" cy="6581" r="5" style="fill:blue"/>
<circle cx="477" cy="6638" r="5" style="fill:blue"/>
<circle cx="917" cy="4964" r="5" style="fill:blue"/>
<circle cx="5932" cy="924" r="5" style="fill:blue"/>
<circle cx="7053" cy="800" r="5" style="fill:blue"/>
<circle cx="83" cy="4604" r="5" style="fill:blue"/>
<circle cx="4742" cy="4333" r="5" style="fill:blue"/>
<circle cx="2587" cy="3432" r="5" style="fill:blue"/>
<circle cx="3264" cy="519" r="5" style="fill:blue"/>
<circle cx="735" cy="2179" r="5" style="fill:blue"/>
<circle cx="4787" cy="6615" r="5" style="fill:blue"/>
<circle cx="4772" cy="3852" r="5" style="fill:blue"/>
<circle cx="5290" cy="378" r="5" style="fill:blue"/>
<circle cx="1549" cy="3215" r="5" style="fill:blue"/>
<circle cx="4501" cy="6547" r="5" style="fill:blue"/>
<circle cx="4297" cy="2637" r="5" style="fill:blue"/>
<circle cx="5694" cy="520" r="5" style="fill:blue"/>
<circle cx="5025" cy="8513" r="5" style="fill:blue"/>
<circle cx="6517" cy="3680" r="5" style="fill:blue"/>
<circle cx="6216" cy="9277" r="5" style="fill:blue"/>
<circle cx="3523" cy="4055" r="5" style="fill:blue"/>
<circle cx="3394" cy="9248" r="5" style="fill:blue"/>
<circle cx="1357" cy="423" r="5" style="fill:blue"/>
<circle cx="5590" cy="9085" r="5" style="fill:blue"/>
<circle cx="5707" cy="9646" r="5" style="fill:blue"/>
<circle cx="6613" cy="1726" r="5" style="fill:blue"/>
<circle cx="4667" cy="1265" r="5" style="fill:blue"/>
<circle cx="794" cy="1846" r="5" style="fill:blue"/>
<circle cx="3262" cy="692" r="5" style="fill:blue"/>
<circle cx="6608" cy="3113" r="5" style="fill:blue"/>
<circle cx="1425" cy="1453" r="5" style="fill:blue"/>
<circle cx="5051" cy="9012" r="5" style="fill:blue"/>
<circle cx="4255" cy="9376" r="5" style="fill:blue"/>
<circle cx="1115" cy="4240" r="5" style="fill:blue"/>
<circle cx="2184" cy="4919" r="5" style="fill:blue"/>
<circle cx="3940" cy="1107" r="5" style="fill:blue"/>
<circle cx="60" cy="7503" r="5" style="fill:blue"/>
<circle cx="5644" cy="2046" r="5" style="fill:blue"/>
<circle cx="1025" cy="3290" r="5" style="fill:blue"/>
<circle cx="541" cy="9431" r="5" style="fill:blue"/>
<circle cx="5085" cy="4815" r="5" style="fill:blue"/>
<circle cx="7178" cy="3089" r="5" style="fill:blue"/>
<circle cx="4876" cy="3794" r="5" style="fill:blue"/>
<circle cx="3766" cy="9215" r="5" style="fill:blue"/>
<circle cx="1434" cy="267" r="5" style="fill:blue"/>
<circle cx="2138" cy="3714" r="5" style="fill:blue"/>
<circle cx="1934" cy="618" r="5" style="fill:blue"/>
<circle cx="1554" cy="7490" r="5" style="fill:blue"/>
<circle cx="5886" cy="8178" r="5" style="fill:blue"/>
<circle cx="399" cy="9772" r="5" style="fill:blue"/>
<circle cx="6117" cy="3786" r="5" style="fill:blue"/>
<circle cx="2585" cy="4017" r="5" style="fill:blue"/>
<circle cx="6765" cy="8312" r="5" style="fill:blue"/>
<circle cx="36" cy="6680" r="5" style="fill:blue"/>
<circle cx="5312" cy="3771" r="5" style="fill:blue"/>
<circle cx="2450" cy="4793" r="5" style="fill:blue"/>
<circle cx="5817" cy="3878" r="5" style="fill:blue"/>
<circle cx="1908" cy="155" r="5" style="fill:blue"/>
<circle cx="4888" cy="3932" r="5" style="fill:blue"/>
<circle cx="1540" cy="5096" r="5" style="fill:blue"/>
<circle cx="434" cy="4559" r="5" style="fill:blue"/>
<circle cx="825" cy="8692" r="5" style="fill:blue"/>
<circle cx="425" cy="6620" r="5" style="fill:blue"/>
<circle cx="2616" cy="7188" r="5" style="fill:blue"/>
<circle cx="7213" cy="3267" r="5" style="fill:blue"/>
<circle cx="1304" cy="2018" r="5" style="fill:blue"/>
<circle cx="62" cy="9279" r="5" style="fill:blue"/>
<circle cx="4669" cy="4428" r="5" style="fill:blue"/>
<circle cx="3904" cy="969" r="5" style="fill:blue"/>
<circle cx="6704" cy="2744" r="5" style="fill:blue"/>
<circle cx="4173" cy="4034" r="5" style="fill:blue"/>
<circle cx="6943" cy="3355" r="5" style="fill:blue"/>
<circle cx="6470" cy="2480" r="5" style="fill:blue"/>
<circle cx="1561" cy="7457" r="5" style="fill:blue"/>
<circle cx="1193" cy="4308" r="5" style="fill:blue"/>
<circle cx="7064" cy="2121" r="5" style="fill:blue"/>
<circle cx="4002" cy="2399" r="5" style="fill:blue"/>
<circle cx="4556" cy="4617" r="5" style="fill:blue"/>
<circle cx="2405" cy="3262" r="5" style="fill:blue"/>
<circle cx="5424" cy="8267" r="5" style="fill:blue"/>
<circle cx="1051" cy="5717" r="5" style="fill:blue"/>
<circle cx="2877" cy="1714" r="5" style="fill:blue"/>
<circle cx="4686" cy="5899" r="5" style="fill:blue"/>
<circle cx="349" cy="3079" r="5" style="fill:blue"/>
<circle cx="6891" cy="2558" r="5" style="fill:blue"/>
<circle cx="6244" cy="1649" r="5" style="fill:blue"/>
<circle cx="2587" cy="9370" r="5" style="fill:blue"/>
<circle cx="2983" cy="2789" r="5" style="fill:blue"/>
<circle cx="2420" cy="7524" r="5" style="fill:blue"/>
<circle cx="6011" cy="8460" r="5" style="fill:blue"/>
<circle cx="5052" cy="9717" r="5" style="fill:blue"/>
<circle cx="5825" cy="3529" r="5" style="fill:blue"/>
<circle cx="6916" cy="1820" r="5" style="fill:blue"/>
<circle cx="2235" cy="6049" r="5" style="fill:blue"/>
<circle cx="798" cy="5243" r="5" style="fill:blue"/>
<circle cx="6374" cy="8523" r="5" style="fill:blue"/>
<circle cx="4172" cy="2270" r="5" style="fill:blue"/>
<circle cx="1016" cy="6700" r="5" style="fill:blue"/>
<circle cx="1509" cy="683" r="5" style="fill:blue"/>
<circle cx="1683" cy="415" r="5" style="fill:blue"/>
<circle cx="2859" cy="9209" r="5" style="fill:blue"/>
<circle cx="2070" cy="4740" r="5" style="fill:blue"/>
<circle cx="1912" cy="2249" r="5" style="fill:blue"/>
<circle cx="2239" cy="1513" r="5" style="fill:blue"/>
<circle cx="5176" cy="3507" r="5" style="fill:blue"/>
<circle cx="3576" cy="8668" r="5" style="fill:blue"/>
<circle cx="853" cy="6841" r="5" style="fill:blue"/>
<circle cx="7009" cy="4886" r="5" style="fill:blue"/>
<circle cx="5830" cy="5300" r="5" style="fill:blue"/>
<circle cx="6865" cy="3062" r="5" style="fill:blue"/>
<circle cx="1164" cy="8906" r="5" style="fill:blue"/>
<circle cx="5801" cy="8704" r="5" style="fill:blue"/>
<circle cx="4992" cy="1250" r="5" style="fill:blue"/>
<circle cx="4639" cy="1074" r="5" style="fill:blue"/>
<circle cx="818" cy="500" r="5" style="fill:blue"/>
<circle cx="6291" cy="2947" r="5" style="fill:blue"/>
<circle cx="4181" cy="6596" r="5" style="fill:blue"/>
<circle cx="2512" cy="1596" r="5" style="fill:blue"/>
<circle cx="4007" cy="1360" r="5" style="fill:blue"/>
<circle cx="2328" cy="5928" r="5" style="fill:blue"/>
<circle cx="4155" cy="8715" r="5" style="fill:blue"/>
<circle cx="5339" cy="9059" r="5" style="fill:blue"/>
<circle cx="947" cy="9472" r="5" style="fill:blue"/>
<circle cx="7063" cy="4645" r="5" style="fill:blue"/>
<circle cx="5488" cy="4464" r="5" style="fill:blue"/>
<circle cx="6446" cy="419" r="5" style="fill:blue"/>
<circle cx="6853" cy="3799" r="5" style="fill:blue"/>
<circle cx="6520" cy="2638" r="5" style="fill:blue"/>
<circle cx="1356" cy="8093" r="5" style="fill:blue"/>
<circle cx="2145" cy="3990" r="5" style="fill:blue"/>
<circle cx="6320" cy="474" r="5" style="fill:blue"/>
<circle cx="4275" cy="3053" r="5" style="fill:blue"/>
<circle cx="2964" cy="916" r="5" style="fill:blue"/>
<circle cx="3228" cy="3988" r="5" style="fill:blue"/>
<circle cx="2394" cy="2715" r="5" style="fill:blue"/>
<circle cx="1989" cy="907" r="5" style="fill:blue"/>
<circle cx="6131" cy="3762" r="5" style="fill:blue"/>
<circle cx="157" cy="3010" r="5" style="fill:blue"/>
<circle cx="834" cy="9841" r="5" style="fill:blue"/>
<circle cx="1757" cy="6550" r="5" style="fill:blue"/>
<circle cx="2367" cy="2362" r="5" style="fill:blue"/>
<circle cx="1278" cy="2116" r="5" style="fill:blue"/>
<circle cx="3275" cy="557" r="5" style="fill:blue"/>
<circle cx="1551" cy="5386" r="5" style="fill:blue"/>
<circle cx="3468" cy="3308" r="5" style="fill:blue"/>
<circle cx="3463" cy="473" r="5" style="fill:blue"/>
<circle cx="3368" cy="1019" r="5" style="fill:blue"/>
<circle cx="6737" cy="9881" r="5" style="fill:blue"/>
<circle cx="3073" cy="9146" r="5" style="fill:blue"/>
<circle cx="7100" cy="8928" r="5" style="fill:blue"/>
<circle cx="6093" cy="68" r="5" style="fill:blue"/>
<circle cx="2788" cy="8304" r="5" style="fill:blue"/>
<circle cx="744" cy="9285" r="5" style="fill:blue"/>
<circle cx="2503" cy="6940" r="5" style="fill:blue"/>
<circle cx="957" cy="8816" r="5" style="fill:blue"/>
<circle cx="4963" cy="4125" r="5" style="fill:blue"/>
<circle cx="6831" cy="8694" r="5" style="fill:blue"/>
<circle cx="3812" cy="5902" r="5" style="fill:blue"/>
<circle cx="2917" cy="6498" r="5" style="fill:blue"/>
<circle cx="6884" cy="3681" r="5" style="fill:blue"/>
<circle cx="1665" cy="5950" r="5" style="fill:blue"/>
<circle cx="3831" cy="263" r="5" style="fill:blue"/>
<circle cx="2444" cy="2240" r="5" style="fill:blue"/>
<circle cx="2212" cy="6614" r="5" style="fill:blue"/>
<circle cx="6218" cy="7971" r="5" style="fill:blue"/>
<circle cx="4873" cy="1199" r="5" style="fill:blue"/>
<circle cx="5856" cy="955" r="5" style="fill:blue"/>
<circle cx="6792" cy="9778" r="5" style="fill:blue"/>
<circle cx="4067" cy="4890" r="5" style="fill:blue"/>
<circle cx="1690" cy="7975" r="5" style="fill:blue"/>
<circle cx="5414" cy="2973" r="5" style="fill:blue"/>
<circle cx="6796" cy="3397" r="5" style="fill:blue"/>
<circle cx="6871" cy="7768" r="5" style="fill:blue"/>
<circle cx="63" cy="6680" r="5" style="fill:blue"/>
<circle cx="2839" cy="7023" r="5" style="fill:blue"/>
<circle cx="5134" cy="55" r="5" style="fill:blue"/>
<circle cx="23" cy="2590" r="5" style="fill:blue"/>
<circle cx="3932" cy="3571" r="5" style="fill:blue"/>
<circle cx="228" cy="8390" r="5" style="fill:blue"/>
<circle cx="4702" cy="720" r="5" style="fill:blue"/>
<circle cx="5181" cy="424" r="5" style="fill:blue"/>
<circle cx="642" cy="399" r="5" style="fill:blue"/>
<circle cx="1523" cy="8708" r="5" style="fill:blue"/>
<circle cx="5656" cy="2557" r="5" style="fill:blue"/>
<circle cx="3263" cy="6985" r="5" style="fill:blue"/>
<circle cx="867" cy="4266" r="5" style="fill:blue"/>
<circle cx="5979" cy="8344" r="5" style="fill:blue"/>
<circle cx="3957" cy="1982" r="5" style="fill:blue"/>
<circle cx="4915" cy="201" r="5" style="fill:blue"/>
<circle cx="4589" cy="6101" r="5" style="fill:blue"/>
<circle cx="479" cy="8984" r="5" style="fill:blue"/>
<circle cx="4156" cy="9491" r="5" style="fill:blue"/>
<circle cx="11" cy="9019" r="5" style="fill:blue"/>
<circle cx="6060" cy="3954" r="5" style="fill:blue"/>
<circle cx="223" cy="4187" r="5" style="fill:blue"/>
<circle cx="103" cy="2532" r="5" style="fill:blue"/>
<circle cx="1211" cy="1570" r="5" style="fill:blue"/>
<circle cx="4456" cy="6972" r="5" style="fill:blue"/>
<circle cx="4960" cy="1558" r="5" style="fill:blue"/>
<circle cx="1244" cy="8700" r="5" style="fill:blue"/>
<circle cx="3130" cy="1145" r="5" style="fill:blue"/>
<circle cx="1014" cy="3886" r="5" style="fill:blue"/>
<circle cx="3183" cy="717" r="5" style="fill:blue"/>
<circle cx="5648" cy="935" r="5" style="fill:blue"/>
<circle cx="4963" cy="1574" r="5" style="fill:blue"/>
<circle cx="540" cy="7412" r="5" style="fill:blue"/>
<circle cx="3701" cy="3510" r="5" style="fill:blue"/>
<circle cx="1899" cy="9197" r="5" style="fill:blue"/>
<circle cx="1136" cy="4789" r="5" style="fill:blue"/>
<circle cx="3147" cy="9038" r="5" style="fill:blue"/>
<circle cx="4065" cy="9581" r="5" style="fill:blue"/>
<circle cx="621" cy="2042" r="5" style="fill:blue"/>
<circle cx="6290" cy="3391" r="5" style="fill:blue"/>
<circle cx="6462" cy="2050" r="5" style="fill:blue"/>
<circle cx="2988" cy="0" r="5" style="fill:blue"/>
<circle cx="1336" cy="5965" r="5" style="fill:blue"/>
<circle cx="1189" cy="6184" r="5" style="fill:blue"/>
<circle cx="589" cy="370" r="5" style="fill:blue"/>
<circle cx="3842" cy="5849" r="5" style="fill:blue"/>
<circle cx="266" cy="3323" r="5" style="fill:blue"/>
<circle cx="6034" cy="8199" r="5" style="fill:blue"/>
<circle cx="2410" cy="1081" r="5" style="fill:blue"/>
<circle cx="657" cy="9305" r="5" style="fill:blue"/>
<circle cx="2271" cy="5071" r="5" style="fill:blue"/>
<circle cx="2957" cy="7389" r="5" style="fill:blue"/>
<circle cx="4187" cy="6286" r="5" style="fill:blue"/>
<circle cx="745" cy="9266" r="5" style="fill:blue"/>
<circle cx="2920" cy="6338" r="5" style="fill:blue"/>
<circle cx="5799" cy="1646" r="5" style="fill:blue"/>
<circle cx="6620" cy="8932" r="5" style="fill:blue"/>
<circle cx="1266" cy="6474" r="5" style="fill:blue"/>
<circle cx="4161" cy="8768" r="5" style="fill:blue"/>
<circle cx="4005" cy="3146" r="5" style="fill:blue"/>
<circle cx="5250" cy="8226" r="5" style="fill:blue"/>
<circle cx="6656" cy="1098" r="5" style="fill:blue"/>
<circle cx="918" cy="2477" r="5" style="fill:blue"/>
<circle cx="6075" cy="4756" r="5" style="fill:blue"/>
<circle cx="1913" cy="5913" r="5" style="fill:blue"/>
<circle cx="5920" cy="3197" r="5" style="fill:blue"/>
<circle cx="1022" cy="7859" r="5" style="fill:blue"/>
<circle cx="6481" cy="5360" r="5" style="fill:blue"/>
<circle cx="2137" cy="5075" r="5" style="fill:blue"/>
<circle cx="5013" cy="3453" r="5" style="fill:blue"/>
<circle cx="3166" cy="1286" r="5" style="fill:blue"/>
<circle cx="2413" cy="9601" r="5" style="fill:blue"/>
<circle cx="1660" cy="1825" r="5" style="fill:blue"/>
<circle cx="1273" cy="5398" r="5" style="fill:blue"/>
<circle cx="911" cy="8645" r="5" style="fill:blue"/>
<circle cx="1009" cy="3443" r="5" style="fill:blue"/>
<circle cx="4672" cy="7924" r="5" style="fill:blue"/>
<circle cx="643" cy="5738" r="5" style="fill:blue"/>
<circle cx="1908" cy="2850" r="5" style="fill:blue"/>
<circle cx="1395" cy="1633" r="5" style="fill:blue"/>
<circle cx="1898" cy="5649" r="5" style="fill:blue"/>
<circle cx="1621" cy="6864" r="5" style="fill:blue"/>
<circle cx="6053" cy="5326" r="5" style="fill:blue"/>
<circle cx="3003" cy="6027" r="5" style="fill:blue"/>
<circle cx="3804" cy="1303" r="5" style="fill:blue"/>
<circle cx="2180" cy="4791" r="5" style="fill:blue"/>
<circle cx="5479" cy="9445" r="5" style="fill:blue"/>
<circle cx="6831" cy="5030" r="5" style="fill:blue"/>
<circle cx="2963" cy="1628" r="5" style="fill:blue"/>
<circle cx="492" cy="2595" r="5" style="fill:blue"/>
<circle cx="3499" cy="3293" r="5" style="fill:blue"/>
<circle cx="2476" cy="7315" r="5" style="fill:blue"/>
<circle cx="2519" cy="7487" r="73" style="stroke-width:5;fill:gray;fill-opacity:0.3"/>
<circle cx="1142" cy="3223" r="58" style="stroke-width:5;fill:gray;fill-opacity:0.3"/>
<circle cx="2146" cy="5912" r="20" style="stroke-width:5;fill:gray;fill-opacity:0.3"/>
<circle cx="1754" cy="7001" r="46" style="stroke-width:5;fill:gray;fill-opacity:0.3"/>
<circle cx="347" cy="3549" r="42" style="stroke-width:5;fill:gray;fill-opacity:0.3"/>
<circle cx="3180" cy="8408" r="43" style="stroke-width:5;fill:gray;fill-opacity:0.3"/>
<circle cx="3232" cy="4864" r="24" style="stroke-width:5;fill:gray;fill-opacity:0.3"/>
<circle cx="2042" cy="9326" r="29" style="stroke-width:5;fill:gray;fill-opacity:0.3"/>
<circle cx="1719" cy="8333" r="32" style="stroke-width:5;fill:gray;fill-opacity:0.3"/>
<circle cx="3395" cy="931" r="34" style="stroke-width:5;fill:gray;fill-opacity:0.3"/>
<circle cx="7050" cy="4606" r="32" style="stroke-width:5;fill:gray;fill-opacity:0.3"/>
<circle cx="5350" cy="2093" r="69" style="stroke-width:5;fill:gray;fill-opacity:0.3"/>
<circle cx="141" cy="4823" r="82" style="stroke-width:5;fill:gray;fill-opacity:0.3"/>
<circle cx="4522" cy="5543" r="67" style="stroke-width:5;fill:gray;fill-opacity:0.3"/>
<circle cx="614" cy="3591" r="40" style="stroke-width:5;fill:gray;fill-opacity:0.3"/>
<circle cx="6903" cy="1132" r="5" style="stroke-width:5;fill:gray;fill-opacity:0.3"/>
<circle cx="2207" cy="5530" r="53" style="stroke-width:5;fill:gray;fill-opacity:0.3"/>
<circle cx="3819" cy="1220" r="44" style="stroke-width:5;fill:gray;fill-opacity:0.3"/>
<circle cx="6141" cy="5120" r="36" style="stroke-width:5;fill:gray;fill-opacity:0.3"/>
<circle cx="6279" cy="4890" r="6" style="stroke-width:5;fill:gray;fill-opacity:0.3"/>
<circle cx="2770" cy="5633" r="69" style="stroke-width:5;fill:gray;fill-opacity:0.3"/>
<circle cx="5519" cy="2230" r="76" style="stroke-width:5;fill:gray;fill-opacity:0.3"/>
<circle cx="4130" cy="9820" r="50" style="stroke-width:5;fill:gray;fill-opacity:0.3"/>
<circle cx="2107" cy="2212" r="12" style="stroke-width:5;fill:gray;fill-opacity:0.3"/>
<circle cx="3728" cy="7176" r="78" style="stroke-width:5;fill:gray;fill-opacity:0.3"/>
<circle cx="398" cy="8061" r="59" style="stroke-width:5;fill:gray;fill-opacity:0.3"/>
<circle cx="1280" cy="2369" r="77" style="stroke-width:5;fill:gray;fill-opacity:0.3"/>
<circle cx="4529" cy="2408" r="18" style="stroke-width:5;fill:gray;fill-opacity:0.3"/>
<circle cx="245" cy="347" r="45" style="stroke-width:5;fill:gray;fill-opacity:0.3"/>
<circle cx="4319" cy="2557" r="62" style="stroke-width:5;fill:gray;fill-opacity:0.3"/>
<circle cx="2487" cy="3733" r="64" style="stroke-width:5;fill:gray;fill-opacity:0.3"/>
<circle cx="4670" cy="920" r="17" style="stroke-width:5;fill:gray;fill-opacity:0.3"/>
<circle cx="5076" cy="3197" r="58" style="stroke-width:5;fill:gray;fill-opacity:0.3"/>
<circle cx="7046" cy="9233" r="9" style="stroke-width:5;fill:gray;fill-opacity:0.3"/>
<circle cx="6750" cy="41" r="20" style="stroke-width:5;fill:gray;fill-opacity:0.3"/>
<circle cx="3613" cy="8742" r="34" style="stroke-width:5;fill:gray;fill-opacity:0.3"/>
<circle cx="1752" cy="5762" r="74" style="stroke-width:5;fill:gray;fill-opacity:0.3"/>
<circle cx="5214" cy="1244" r="76" style="stroke-width:5;fill:gray;fill-opacity:0.3"/>
<circle cx="4029" cy="6909" r="79" style="stroke-width:5;fill:gray;fill-opacity:0.3"/>
<circle cx="4268" cy="4391" r="31" style="stroke-width:5;fill:gray;fill-opacity:0.3"/>
<circle cx="7010" cy="1510" r="14" style="stroke-width:5;fill:gray;fill-opacity:0.3"/>
<circle cx="4633" cy="8799" r="72" style="stroke-width:5;fill:gray;fill-opacity:0.3"/>
<circle cx="113" cy="7841" r="70" style="stroke-width:5;fill:gray;fill-opacity:0.3"/>
<circle cx="7051" cy="1703" r="31" style="stroke-width:5;fill:gray;fill-opacity:0.3"/>
<circle cx="6021" cy="1002" r="63" style="stroke-width:5;fill:gray;fill-opacity:0.3"/>
<circle cx="4179" cy="190" r="54" style="stroke-width:5;fill:gray;fill-opacity:0.3"/>
<circle cx="3178" cy="5052" r="43" style="stroke-width:5;fill:gray;fill-opacity:0.3"/>
<circle cx="455" cy="1360" r="66" style="stroke-width:5;fill:gray;fill-opacity:0.3"/>
<circle cx="4967" cy="9237" r="48" style="stroke-width:5;fill:gray;fill-opacity:0.3"/>
<circle cx="2495" cy="3658" r="18" style="stroke-width:5;fill:gray;fill-opacity:0.3"/>
<circle cx="4754" cy="6517" r="30" style="stroke-width:5;fill:gray;fill-opacity:0.3"/>
<circle cx="3211" cy="8378" r="40" style="stroke-width:5;fill:gray;fill-opacity:0.3"/>
<circle cx="5501" cy="4694" r="71" style="stroke-width:5;fill:gray;fill-opacity:0.3"/>
<circle cx="6632" cy="2756" r="41" style="stroke-width:5;fill:gray;fill-opacity:0.3"/>
<circle cx="380" cy="5053" r="32" style="stroke-width:5;fill:gray;fill-opacity:0.3"/>
<circle cx="4371" cy="4934" r="44" style="stroke-width:5;fill:gray;fill-opacity:0.3"/>
<circle cx="6383" cy="32" r="7" style="stroke-width:5;fill:gray;fill-opacity:0.3"/>
<circle cx="1518" cy="2172" r="81" style="stroke-width:5;fill:gray;fill-opacity:0.3"/>
<circle cx="2602" cy="6286" r="60" style="stroke-width:5;fill:gray;fill-opacity:0.3"/>
<circle cx="3840" cy="9059" r="64" style="stroke-width:5;fill:gray;fill-opacity:0.3"/>
<circle cx="4270" cy="591" r="66" style="stroke-width:5;fill:gray;fill-opacity:0.3"/>
<circle cx="3526" cy="5430" r="71" style="stroke-width:5;fill:gray;fill-opacity:0.3"/>
<circle cx="4785" cy="418" r="44" style="stroke-width:5;fill:gray;fill-opacity:0.3"/>
<circle cx="5305" cy="2979" r="73" style="stroke-width:5;fill:gray;fill-opacity:0.3"/>
<circle cx="5645" cy="3003" r="74" style="stroke-width:5;fill:gray;fill-opacity:0.3"/>
<circle cx="109" cy="9366" r="52" style="stroke-width:5;fill:gray;fill-opacity:0.3"/>
<circle cx="1076" cy="5931" r="67" style="stroke-width:5;fill:gray;fill-opacity:0.3"/>
<circle cx="6466" cy="4837" r="20" style="stroke-width:5;fill:gray;fill-opacity:0.3"/>
<circle cx="192" cy="793" r="75" style="stroke-width:5;fill:gray;fill-opacity:0.3"/>
<circle cx="2855" cy="5930" r="38" style="stroke-width:5;fill:gray;fill-opacity:0.3"/>
<circle cx="6765" cy="4989" r="56" style="stroke-width:5;fill:gray;fill-opacity:0.3"/>
<circle cx="2070" cy="3376" r="30" style="stroke-width:5;fill:gray;fill-opacity:0.3"/>
<circle cx="1513" cy="1382" r="44" style="stroke-width:5;fill:gray;fill-opacity:0.3"/>
<circle cx="1742" cy="1390" r="31" style="stroke-width:5;fill:gray;fill-opacity:0.3"/>
<circle cx="615" cy="1648" r="83" style="stroke-width:5;fill:gray;fill-opacity:0.3"/>
<circle cx="2260" cy="4826" r="71" style="stroke-width:5;fill:gray;fill-opacity:0.3"/>
<circle cx="5326" cy="3680" r="19" style="stroke-width:5;fill:gray;fill-opacity:0.3"/>
<circle cx="757" cy="552" r="59" style="stroke-width:5;fill:gray;fill-opacity:0.3"/>
<circle cx="1635" cy="1867" r="39" style="stroke-width:5;fill:gray;fill-opacity:0.3"/>
<circle cx="2034" cy="7386" r="22" style="stroke-width:5;fill:gray;fill-opacity:0.3"/>
<circle cx="4957" cy="3803" r="41" style="stroke-width:5;fill:gray;fill-opacity:0.3"/>
<circle cx="3715" cy="6192" r="60" style="stroke-width:5;fill:gray;fill-opacity:0.3"/>
<circle cx="416" cy="9215" r="66" style="stroke-width:5;fill:gray;fill-opacity:0.3"/>
<circle cx="3112" cy="3324" r="84" style="stroke-width:5;fill:gray;fill-opacity:0.3"/>
<circle cx="3121" cy="5991" r="28" style="stroke-width:5;fill:gray;fill-opacity:0.3"/>
<circle cx="1817" cy="4198" r="63" style="stroke-width:5;fill:gray;fill-opacity:0.3"/>
</svg>