<svg viewBox="0 0 6079 1663" xmlns="http://www.w3.org/2000/svg">
<rect height="530" style="stroke:pink;stroke-width:10;fill:gray;fill-opacity:0.1;stroke-opacity:0.9" width="1578" x="873" y="270"/>
<circle cx="4219" cy="69" r="5" style="fill:blue"/>
<circle cx="6051" cy="1492" r="5" style="fill:blue"/>
<circle cx="136" cy="1353" r="5" style="fill:blue"/>
<circle cx="634" cy="111" r="5" style="fill:blue"/>
<circle cx="5663" cy="99" r="5" style="fill:blue"/>
<circle cx="5252" cy="1021" r="5" style="fill:blue"/>
<circle cx="118" cy="6" r="5" style="fill:blue"/>
<circle cx="5317" cy="458" r="5" style="fill:blue"/>
<circle cx="781" cy="1414" r="5" style="fill:blue"/>
<circle cx="3156" cy="830" r="5" style="fill:blue"/>
<circle cx="3484" cy="777" r="5" style="fill:blue"/>
<circle cx="5628" cy="163" r="5" style="fill:blue"/>
<circle cx="4004" cy="649" r="5" style="fill:blue"/>
<circle cx="95" cy="1129" r="5" style="fill:blue"/>
<circle cx="984" cy="132" r="5" style="fill:blue"/>
<circle cx="4953" cy="529" r="5" style="fill:blue"/>
<circle cx="4174" cy="758" r="5" style="fill:blue"/>
<circle cx="4861" cy="634" r="5" style="fill:blue"/>
<circle cx="1864" cy="1205" r="5" style="fill:blue"/>
<circle cx="5639" cy="899" r="5" style="fill:blue"/>
<circle cx="3101" cy="1328" r="5" style="fill:blue"/>
<circle cx="1132" cy="1357" r="5" style="fill:blue"/>
<circle cx="1595" cy="863" r="5" style="fill:blue"/>
<circle cx="4479" cy="1441" r="5" style="fill:blue"/>
<circle cx="5381" cy="1484" r="5" style="fill:blue"/>
<circle cx="5532" cy="917" r="5" style="fill:blue"/>
<circle cx="3703" cy="607" r="5" style="fill:blue"/>
<circle cx="6011" cy="1509" r="5" style="fill:blue"/>
<circle cx="3002" cy="697" r="5" style="fill:blue"/>
<circle cx="3142" cy="451" r="5" style="fill:blue"/>
<circle cx="5519" cy="261" r="5" style="fill:blue"/>
<circle cx="3947" cy="828" r="5" style="fill:blue"/>
<circle cx="1024" cy="268" r="5" style="fill:blue"/>
<circle cx="4853" cy="1182" r="5" style="fill:blue"/>
<circle cx="4208" cy="307" r="5" style="fill:blue"/>
<circle cx="3968" cy="1277" r="5" style="fill:blue"/>
<circle cx="5887" cy="1194" r="5" style="fill:blue"/>
<circle cx="271" cy="33" r="5" style="fill:blue"/>
<circle cx="2630" cy="1058" r="5" style="fill:blue"/>
<circle cx="4428" cy="116" r="5" style="fill:blue"/>
<circle cx="4310" cy="1295" r="5" style="fill:blue"/>
<circle cx="4895" cy="967" r="5" style="fill:blue"/>
<circle cx="3791" cy="382" r="5" style="fill:blue"/>
<circle cx="351" cy="235" r="5" style="fill:blue"/>
<circle cx="141" cy="313" r="5" style="fill:blue"/>
<circle cx="2309" cy="137" r="5" style="fill:blue"/>
<circle cx="627" cy="908" r="5" style="fill:blue"/>
<circle cx="1474" cy="1069" r="5" style="fill:blue"/>
<circle cx="2961" cy="502" r="5" style="fill:blue"/>
<circle cx="4214" cy="293" r="5" style="fill:blue"/>
<circle cx="5065" cy="363" r="5" style="fill:blue"/>
<circle cx="6072" cy="840" r="5" style="fill:blue"/>
<circle cx="928" cy="1006" r="5" style="fill:blue"/>
<circle cx="3457" cy="325" r="5" style="fill:blue"/>
<circle cx="5427" cy="1316" r="5" style="fill:blue"/>
<circle cx="5014" cy="910" r="5" style="fill:blue"/>
<circle cx="1980" cy="1243" r="5" style="fill:blue"/>
<circle cx="2238" cy="1198" r="5" style="fill:blue"/>
<circle cx="754" cy="1397" r="5" style="fill:blue"/>
<circle cx="4112" cy="1144" r="5" style="fill:blue"/>
<circle cx="4522" cy="1453" r="5" style="fill:blue"/>
<circle cx="4650" cy="676" r="5" style="fill:blue"/>
<circle cx="5064" cy="910" r="5" style="fill:blue"/>
<circle cx="2536" cy="143" r="5" style="fill:blue"/>
<circle cx="741" cy="491" r="5" style="fill:blue"/>
<circle cx="4159" cy="758" r="5" style="fill:blue"/>
<circle cx="5768" cy="545" r="5" style="fill:blue"/>
<circle cx="2072" cy="166" r="5" style="fill:blue"/>
<circle cx="5040" cy="1475" r="5" style="fill:blue"/>
<circle cx="3267" cy="609" r="5" style="fill:blue"/>
<circle cx="2245" cy="187" r="5" style="fill:blue"/>
<circle cx="3912" cy="1071" r="5" style="fill:blue"/>
<circle cx="4113" cy="220" r="5" style="fill:blue"/>
<circle cx="4898" cy="857" r="5" style="fill:blue"/>
<circle cx="799" cy="897" r="5" style="fill:blue"/>
<circle cx="3613" cy="372" r="5" style="fill:blue"/>
<circle cx="2504" cy="1387" r="5" style="fill:blue"/>
<circle cx="4619" cy="1372" r="5" style="fill:blue"/>
<circle cx="3364" cy="245" r="5" style="fill:blue"/>
<circle cx="2031" cy="1099" r="5" style="fill:blue"/>
<circle cx="5288" cy="279" r="5" style="fill:blue"/>
<circle cx="4026" cy="29" r="5" style="fill:blue"/>
<circle cx="375" cy="658" r="5" style="fill:blue"/>
<circle cx="2593" cy="867" r="5" style="fill:blue"/>
<circle cx="4486" cy="1190" r="5" style="fill:blue"/>
<circle cx="3169" cy="830" r="5" style="fill:blue"/>
<circle cx="3597" cy="184" r="5" style="fill:blue"/>
<circle cx="41" cy="1530" r="5" style="fill:blue"/>
<circle cx="4724" cy="360" r="5" style="fill:blue"/>
<circle cx="2928" cy="151" r="5" style="fill:blue"/>
<circle cx="1216" cy="248" r="5" style="fill:blue"/>
<circle cx="1874" cy="1470" r="5" style="fill:blue"/>
<circle cx="5935" cy="414" r="5" style="fill:blue"/>
<circle cx="2065" cy="36" r="5" style="fill:blue"/>
<circle cx="3349" cy="752" r="5" style="fill:blue"/>
<circle cx="2837" cy="800" r="5" style="fill:blue"/>
<circle cx="4491" cy="295" r="5" style="fill:blue"/>
<circle cx="4560" cy="1009" r="5" style="fill:blue"/>
<circle cx="3404" cy="622" r="5" style="fill:blue"/>
<circle cx="3965" cy="45" r="5" style="fill:blue"/>
<circle cx="4082" cy="1596" r="5" style="fill:blue"/>
<circle cx="3627" cy="1594" r="5" style="fill:blue"/>
<circle cx="578" cy="237" r="5" style="fill:blue"/>
<circle cx="5616" cy="277" r="5" style="fill:blue"/>
<circle cx="5829" cy="6" r="5" style="fill:blue"/>
<circle cx="3733" cy="1170" r="5" style="fill:blue"/>
<circle cx="751" cy="769" r="5" style="fill:blue"/>
<circle cx="2613" cy="938" r="5" style="fill:blue"/>
<circle cx="5037" cy="242" r="5" style="fill:blue"/>
<circle cx="5841" cy="163" r="5" style="fill:blue"/>
<circle cx="4775" cy="1106" r="5" style="fill:blue"/>
<circle cx="5628" cy="1067" r="5" style="fill:blue"/>
<circle cx="701" cy="459" r="5" style="fill:blue"/>
<circle cx="796" cy="1342" r="5" style="fill:blue"/>
<circle cx="3629" cy="126" r="5" style="fill:blue"/>
<circle cx="2546" cy="607" r="5" style="fill:blue"/>
<circle cx="2789" cy="1630" r="5" style="fill:blue"/>
<circle cx="3022" cy="1569" r="5" style="fill:blue"/>
<circle cx="2349" cy="1018" r="5" style="fill:blue"/>
<circle cx="592" cy="1353" r="5" style="fill:blue"/>
<circle cx="6062" cy="453" r="5" style="fill:blue"/>
<circle cx="3060" cy="551" r="5" style="fill:blue"/>
<circle cx="1243" cy="70" r="5" style="fill:blue"/>
<circle cx="3699" cy="982" r="5" style="fill:blue"/>
<circle cx="728" cy="514" r="5" style="fill:blue"/>
<circle cx="5267" cy="1421" r="5" style="fill:blue"/>
<circle cx="5913" cy="253" r="5" style="fill:blue"/>
<circle cx="2401" cy="1394" r="5" style="fill:blue"/>
<circle cx="4620" cy="601" r="5" style="fill:blue"/>
<circle cx="289" cy="61" r="5" style="fill:blue"/>
<circle cx="4044" cy="1609" r="5" style="fill:blue"/>
<circle cx="5223" cy="1045" r="5" style="fill:blue"/>
<circle cx="5730" cy="144" r="5" style="fill:blue"/>
<circle cx="3666" cy="999" r="5" style="fill:blue"/>
<circle cx="2528" cy="587" r="5" style="fill:blue"/>
<circle cx="4074" cy="1474" r="5" style="fill:blue"/>
<circle cx="1679" cy="946" r="5" style="fill:blue"/>
<circle cx="4514" cy="341" r="5" style="fill:blue"/>
<circle cx="3393" cy="778" r="5" style="fill:blue"/>
<circle cx="5896" cy="150" r="5" style="fill:blue"/>
<circle cx="3851" cy="1283" r="5" style="fill:blue"/>
<circle cx="255" cy="1632" r="5" style="fill:blue"/>
<circle cx="3695" cy="59" r="5" style="fill:blue"/>
<circle cx="5424" cy="1605" r="5" style="fill:blue"/>
<circle cx="669" cy="1004" r="5" style="fill:blue"/>
<circle cx="374" cy="641" r="5" style="fill:blue"/>
<circle cx="4169" cy="1512" r="5" style="fill:blue"/>
<circle cx="3026" cy="64" r="5" style="fill:blue"/>
<circle cx="3126" cy="1296" r="5" style="fill:blue"/>
<circle cx="1839" cy="1498" r="5" style="fill:blue"/>
<circle cx="3285" cy="1265" r="5" style="fill:blue"/>
<circle cx="470" cy="1220" r="5" style="fill:blue"/>
<circle cx="726" cy="962" r="5" style="fill:blue"/>
<circle cx="4718" cy="1483" r="5" style="fill:blue"/>
<circle cx="228" cy="1487" r="5" style="fill:blue"/>
<circle cx="2887" cy="186" r="5" style="fill:blue"/>
<circle cx="5693" cy="883" r="5" style="fill:blue"/>
<circle cx="2865" cy="376" r="5" style="fill:blue"/>
<circle cx="2357" cy="904" r="5" style="fill:blue"/>
<circle cx="314" cy="1638" r="5" style="fill:blue"/>
<circle cx="3727" cy="821" r="5" style="fill:blue"/>
<circle cx="1066" cy="900" r="5" style="fill:blue"/>
<circle cx="4761" cy="418" r="5" style="fill:blue"/>
<circle cx="768" cy="418" r="5" style="fill:blue"/>
<circle cx="3429" cy="614" r="5" style="fill:blue"/>
<circle cx="5016" cy="1247" r="5" style="fill:blue"/>
<circle cx="4530" cy="1472" r="5" style="fill:blue"/>
<circle cx="147" cy="115" r="5" style="fill:blue"/>
<circle cx="2143" cy="248" r="5" style="fill:blue"/>
<circle cx="1816" cy="1551" r="5" style="fill:blue"/>
<circle cx="2246" cy="1583" r="5" style="fill:blue"/>
<circle cx="215" cy="1461" r="5" style="fill:blue"/>
<circle cx="653" cy="954" r="5" style="fill:blue"/>
<circle cx="1737" cy="1241" r="5" style="fill:blue"/>
<circle cx="131" cy="269" r="5" style="fill:blue"/>
<circle cx="4709" cy="343" r="5" style="fill:blue"/>
<circle cx="5859" cy="1081" r="5" style="fill:blue"/>
<circle cx="2495" cy="1453" r="5" style="fill:blue"/>
<circle cx="2193" cy="989" r="5" style="fill:blue"/>
<circle cx="1784" cy="45" r="5" style="fill:blue"/>
<circle cx="4227" cy="1006" r="5" style="fill:blue"/>
<circle cx="5135" cy="1460" r="5" style="fill:blue"/>
<circle cx="4880" cy="397" r="5" style="fill:blue"/>
<circle cx="231" cy="1305" r="5" style="fill:blue"/>
<circle cx="4285" cy="425" r="5" style="fill:blue"/>
<circle cx="454" cy="921" r="5" style="fill:blue"/>
<circle cx="2057" cy="1507" r="5" style="fill:blue"/>
<circle cx="3292" cy="550" r="5" style="fill:blue"/>
<circle cx="2848" cy="1014" r="5" style="fill:blue"/>
<circle cx="3556" cy="193" r="5" style="fill:blue"/>
<circle cx="4262" cy="1444" r="5" style="fill:blue"/>
<circle cx="4583" cy="1329" r="5" style="fill:blue"/>
<circle cx="5946" cy="1579" r="5" style="fill:blue"/>
<circle cx="2000" cy="1582" r="5" style="fill:blue"/>
<circle cx="1970" cy="1189" r="5" style="fill:blue"/>
<circle cx="5898" cy="948" r="5" style="fill:blue"/>
<circle cx="4462" cy="1125" r="5" style="fill:blue"/>
<circle cx="2195" cy="1598" r="5" style="fill:blue"/>
<circle cx="1777" cy="940" r="5" style="fill:blue"/>
<circle cx="1811" cy="1543" r="5" style="fill:blue"/>
<circle cx="3852" cy="1548" r="5" style="fill:blue"/>
<circle cx="1154" cy="1145" r="5" style="fill:blue"/>
<circle cx="840" cy="1014" r="5" style="fill:blue"/>
<circle cx="1569" cy="1338" r="5" style="fill:blue"/>
<circle cx="5195" cy="1503" r="5" style="fill:blue"/>
<circle cx="3250" cy="676" r="5" style="fill:blue"/>
<circle cx="869" cy="1205" r="5" style="fill:blue"/>
<circle cx="5661" cy="1203" r="5" style="fill:blue"/>
<circle cx="4312" cy="584" r="5" style="fill:blue"/>
<circle cx="2369" cy="1633" r="5" style="fill:blue"/>
<circle cx="3983" cy="1225" r="5" style="fill:blue"/>
<circle cx="5116" cy="970" r="5" style="fill:blue"/>
<circle cx="76" cy="995" r="5" style="fill:blue"/>
<circle cx="348" cy="242" r="5" style="fill:blue"/>
<circle cx="5791" cy="32" r="5" style="fill:blue"/>
<circle cx="3921" cy="443" r="5" style="fill:blue"/>
<circle cx="739" cy="1377" r="5" style="fill:blue"/>
<circle cx="4075" cy="150" r="5" style="fill:blue"/>
<circle cx="2775" cy="856" r="5" style="fill:blue"/>
<circle cx="3864" cy="733" r="5" style="fill:blue"/>
<circle cx="2760" cy="235" r="5" style="fill:blue"/>
<circle cx="2815" cy="932" r="5" style="fill:blue"/>
<circle cx="508" cy="1200" r="5" style="fill:blue"/>
<circle cx="2204" cy="104" r="5" style="fill:blue"/>
<circle cx="1773" cy="1605" r="5" style="fill:blue"/>
<circle cx="5914" cy="909" r="5" style="fill:blue"/>
<circle cx="109" cy="1400" r="5" style="fill:blue"/>
<circle cx="2498" cy="192" r="5" style="fill:blue"/>
<circle cx="3288" cy="1536" r="5" style="fill:blue"/>
<circle cx="5152" cy="1559" r="5" style="fill:blue"/>
<circle cx="5666" cy="1234" r="5" style="fill:blue"/>
<circle cx="2846" cy="944" r="5" style="fill:blue"/>
<circle cx="983" cy="1394" r="5" style="fill:blue"/>
<circle cx="1278" cy="1485" r="5" style="fill:blue"/>
<circle cx="1913" cy="1193" r="5" style="fill:blue"/>
<circle cx="4713" cy="809" r="5" style="fill:blue"/>
<circle cx="880" cy="1319" r="5" style="fill:blue"/>
<circle cx="313" cy="850" r="5" style="fill:blue"/>
<circle cx="2833" cy="118" r="5" style="fill:blue"/>
<circle cx="1476" cy="1650" r="5" style="fill:blue"/>
<circle cx="3030" cy="882" r="5" style="fill:blue"/>
<circle cx="2513" cy="827" r="5" style="fill:blue"/>
<circle cx="791" cy="370" r="5" style="fill:blue"/>
<circle cx="482" cy="1154" r="5" style="fill:blue"/>
<circle cx="2538" cy="1424" r="5" style="fill:blue"/>
<circle cx="1350" cy="1560" r="5" style="fill:blue"/>
<circle cx="1679" cy="46" r="5" style="fill:blue"/>
<circle cx="3998" cy="280" r="5" style="fill:blue"/>
<circle cx="3119" cy="1114" r="5" style="fill:blue"/>
<circle cx="801" cy="802" r="5" style="fill:blue"/>
<circle cx="5969" cy="885" r="5" style="fill:blue"/>
<circle cx="4146" cy="77" r="5" style="fill:blue"/>
<circle cx="1153" cy="832" r="5" style="fill:blue"/>
<circle cx="1635" cy="1095" r="5" style="fill:blue"/>
<circle cx="4667" cy="1656" r="5" style="fill:blue"/>
<circle cx="4875" cy="83" r="5" style="fill:blue"/>
<circle cx="1163" cy="1197" r="5" style="fill:blue"/>
<circle cx="4247" cy="673" r="5" style="fill:blue"/>
<circle cx="730" cy="373" r="5" style="fill:blue"/>
<circle cx="1889" cy="1537" r="5" style="fill:blue"/>
<circle cx="615" cy="1372" r="5" style="fill:blue"/>
<circle cx="5048" cy="1128" r="5" style="fill:blue"/>
<circle cx="5472" cy="1313" r="5" style="fill:blue"/>
<circle cx="2469" cy="904" r="5" style="fill:blue"/>
<circle cx="5240" cy="894" r="5" style="fill:blue"/>
<circle cx="3150" cy="1179" r="5" style="fill:blue"/>
<circle cx="998" cy="1661" r="5" style="fill:blue"/>
<circle cx="1666" cy="121" r="5" style="fill:blue"/>
<circle cx="5761" cy="1469" r="5" style="fill:blue"/>
<circle cx="960" cy="815" r="5" style="fill:blue"/>
<circle cx="2813" cy="1156" r="5" style="fill:blue"/>
<circle cx="1452" cy="1005" r="5" style="fill:blue"/>
<circle cx="6012" cy="1319" r="5" style="fill:blue"/>
<circle cx="5629" cy="1529" r="5" style="fill:blue"/>
<circle cx="5112" cy="619" r="5" style="fill:blue"/>
<circle cx="4062" cy="1607" r="5" style="fill:blue"/>
<circle cx="5544" cy="499" r="5" style="fill:blue"/>
<circle cx="1957" cy="829" r="5" style="fill:blue"/>
<circle cx="4799" cy="1602" r="5" style="fill:blue"/>
<circle cx="3123" cy="422" r="5" style="fill:blue"/>
<circle cx="2717" cy="924" r="5" style="fill:blue"/>
<circle cx="1967" cy="1088" r="5" style="fill:blue"/>
<circle cx="1920" cy="36" r="5" style="fill:blue"/>
<circle cx="4994" cy="73" r="5" style="fill:blue"/>
<circle cx="3135" cy="436" r="5" style="fill:blue"/>
<circle cx="5047" cy="619" r="5" style="fill:blue"/>
<circle cx="4529" cy="1169" r="5" style="fill:blue"/>
<circle cx="3279" cy="1392" r="5" style="fill:blue"/>
<circle cx="5729" cy="857" r="5" style="fill:blue"/>
<circle cx="4678" cy="1360" r="5" style="fill:blue"/>
<circle cx="674" cy="285" r="5" style="fill:blue"/>
<circle cx="5779" cy="1048" r="5" style="fill:blue"/>
<circle cx="4823" cy="1170" r="5" style="fill:blue"/>
<circle cx="5855" cy="1146" r="5" style="fill:blue"/>
<circle cx="5968" cy="996" r="5" style="fill:blue"/>
<circle cx="3355" cy="1039" r="5" style="fill:blue"/>
<circle cx="2905" cy="527" r="5" style="fill:blue"/>
<circle cx="4139" cy="883" r="5" style="fill:blue"/>
<circle cx="5588" cy="336" r="5" style="fill:blue"/>
<circle cx="4270" cy="652" r="5" style="fill:blue"/>
<circle cx="2591" cy="728" r="5" style="fill:blue"/>
<circle cx="3609" cy="1236" r="5" style="fill:blue"/>
<circle cx="3867" cy="255" r="5" style="fill:blue"/>
<circle cx="1545" cy="1590" r="5" style="fill:blue"/>
<circle cx="3702" cy="1215" r="5" style="fill:blue"/>
<circle cx="1787" cy="1473" r="5" style="fill:blue"/>
<circle cx="6049" cy="756" r="5" style="fill:blue"/>
<circle cx="3210" cy="1074" r="5" style="fill:blue"/>
<circle cx="3369" cy="948" r="5" style="fill:blue"/>
<circle cx="5945" cy="957" r="5" style="fill:blue"/>
<circle cx="3287" cy="1104" r="5" style="fill:blue"/>
<circle cx="3712" cy="1334" r="5" style="fill:blue"/>
<circle cx="481" cy="1628" r="5" style="fill:blue"/>
<circle cx="902" cy="869" r="5" style="fill:blue"/>
<circle cx="484" cy="849" r="5" style="fill:blue"/>
<circle cx="5671" cy="436" r="5" style="fill:blue"/>
<circle cx="3391" cy="684" r="5" style="fill:blue"/>
<circle cx="1443" cy="1558" r="5" style="fill:blue"/>
<circle cx="5365" cy="1640" r="5" style="fill:blue"/>
<circle cx="4394" cy="1499" r="5" style="fill:blue"/>
<circle cx="2621" cy="979" r="5" style="fill:blue"/>
<circle cx="2990" cy="228" r="5" style="fill:blue"/>
<circle cx="4326" cy="823" r="5" style="fill:blue"/>
<circle cx="2228" cy="978" r="5" style="fill:blue"/>
<circle cx="2956" cy="283" r="5" style="fill:blue"/>
<circle cx="3265" cy="1367" r="5" style="fill:blue"/>
<circle cx="2333" cy="869" r="5" style="fill:blue"/>
<circle cx="3769" cy="1158" r="5" style="fill:blue"/>
<circle cx="1807" cy="1326" r="5" style="fill:blue"/>
<circle cx="4970" cy="149" r="5" style="fill:blue"/>
<circle cx="83" cy="1184" r="5" style="fill:blue"/>
<circle cx="4292" cy="1308" r="5" style="fill:blue"/>
<circle cx="3068" cy="911" r="5" style="fill:blue"/>
<circle cx="4211" cy="628" r="5" style="fill:blue"/>
<circle cx="2768" cy="1190" r="5" style="fill:blue"/>
<circle cx="3887" cy="526" r="5" style="fill:blue"/>
<circle cx="493" cy="1028" r="5" style="fill:blue"/>
<circle cx="4177" cy="593" r="5" style="fill:blue"/>
<circle cx="1182" cy="910" r="5" style="fill:blue"/>
<circle cx="4370" cy="1167" r="5" style="fill:blue"/>
<circle cx="3933" cy="242" r="5" style="fill:blue"/>
<circle cx="1038" cy="232" r="5" style="fill:blue"/>
<circle cx="338" cy="1638" r="5" style="fill:blue"/>
<circle cx="4123" cy="668" r="5" style="fill:blue"/>
<circle cx="2703" cy="1355" r="5" style="fill:blue"/>
<circle cx="3337" cy="1418" r="5" style="fill:blue"/>
<circle cx="3782" cy="870" r="5" style="fill:blue"/>
<circle cx="661" cy="574" r="5" style="fill:blue"/>
<circle cx="3692" cy="90" r="5" style="fill:blue"/>
<circle cx="3803" cy="987" r="5" style="fill:blue"/>
<circle cx="4013" cy="1546" r="5" style="fill:blue"/>
<circle cx="3742" cy="1220" r="5" style="fill:blue"/>
<circle cx="2925" cy="704" r="5" style="fill:blue"/>
<circle cx="3863" cy="1080" r="5" style="fill:blue"/>
<circle cx="5161" cy="727" r="5" style="fill:blue"/>
<circle cx="2096" cy="1282" r="5" style="fill:blue"/>
<circle cx="4596" cy="389" r="5" style="fill:blue"/>
<circle cx="3050" cy="801" r="5" style="fill:blue"/>
<circle cx="4555" cy="1211" r="5" style="fill:blue"/>
<circle cx="648" cy="343" r="5" style="fill:blue"/>
<circle cx="5459" cy="96" r="5" style="fill:blue"/>
<circle cx="4491" cy="4" r="5" style="fill:blue"/>
<circle cx="3595" cy="1594" r="5" style="fill:blue"/>
<circle cx="1709" cy="260" r="5" style="fill:blue"/>
<circle cx="256" cy="843" r="5" style="fill:blue"/>
<circle cx="5183" cy="921" r="5" style="fill:blue"/>
<circle cx="4655" cy="1577" r="5" style="fill:blue"/>
<circle cx="3320" cy="18" r="5" style="fill:blue"/>
<circle cx="5032" cy="163" r="5" style="fill:blue"/>
<circle cx="153" cy="183" r="5" style="fill:blue"/>
<circle cx="6000" cy="288" r="5" style="fill:blue"/>
<circle cx="4562" cy="1113" r="5" style="fill:blue"/>
<circle cx="5057" cy="873" r="5" style="fill:blue"/>
<circle cx="1882" cy="1141" r="5" style="fill:blue"/>
<circle cx="4914" cy="1400" r="5" style="fill:blue"/>
<circle cx="909" cy="86" r="5" style="fill:blue"/>
<circle cx="5414" cy="14" r="5" style="fill:blue"/>
<circle cx="309" cy="47" r="5" style="fill:blue"/>
<circle cx="5096" cy="1010" r="5" style="fill:blue"/>
<circle cx="2942" cy="1046" r="5" style="fill:blue"/>
<circle cx="5142" cy="1485" r="5" style="fill:blue"/>
<circle cx="864" cy="1347" r="5" style="fill:blue"/>
<circle cx="840" cy="1427" r="5" style="fill:blue"/>
<circle cx="1762" cy="1072" r="5" style="fill:blue"/>
<circle cx="1187" cy="1291" r="5" style="fill:blue"/>
<circle cx="5498" cy="275" r="5" style="fill:blue"/>
<circle cx="3752" cy="562" r="5" style="fill:blue"/>
<circle cx="5388" cy="1143" r="5" style="fill:blue"/>
<circle cx="2850" cy="970" r="5" style="fill:blue"/>
<circle cx="4582" cy="570" r="5" style="fill:blue"/>
<circle cx="781" cy="1202" r="5" style="fill:blue"/>
<circle cx="2196" cy="806" r="5" style="fill:blue"/>
<circle cx="3040" cy="865" r="5" style="fill:blue"/>
<circle cx="5146" cy="352" r="5" style="fill:blue"/>
<circle cx="5530" cy="1014" r="5" style="fill:blue"/>
<circle cx="5911" cy="1232" r="5" style="fill:blue"/>
<circle cx="3966" cy="1382" r="5" style="fill:blue"/>
<circle cx="5198" cy="890" r="5" style="fill:blue"/>
<circle cx="4141" cy="1316" r="5" style="fill:blue"/>
<circle cx="927" cy="228" r="5" style="fill:blue"/>
<circle cx="4199" cy="590" r="5" style="fill:blue"/>
<circle cx="2640" cy="231" r="5" style="fill:blue"/>
<circle cx="3707" cy="609" r="5" style="fill:blue"/>
<circle cx="6047" cy="912" r="5" style="fill:blue"/>
<circle cx="1891" cy="227" r="5" style="fill:blue"/>
<circle cx="424" cy="1228" r="5" style="fill:blue"/>
<circle cx="4678" cy="1226" r="5" style="fill:blue"/>
<circle cx="4671" cy="425" r="5" style="fill:blue"/>
<circle cx="4190" cy="372" r="5" style="fill:blue"/>
<circle cx="4069" cy="1155" r="5" style="fill:blue"/>
<circle cx="1490" cy="898" r="5" style="fill:blue"/>
<circle cx="3336" cy="1636" r="5" style="fill:blue"/>
<circle cx="3708" cy="1211" r="5" style="fill:blue"/>
<circle cx="5296" cy="1308" r="5" style="fill:blue"/>
<circle cx="54" cy="869" r="5" style="fill:blue"/>
<circle cx="5510" cy="802" r="5" style="fill:blue"/>
<circle cx="1529" cy="1657" r="5" style="fill:blue"/>
<circle cx="56" cy="287" r="5" style="fill:blue"/>
<circle cx="4522" cy="1546" r="5" style="fill:blue"/>
<circle cx="6051" cy="102" r="5" style="fill:blue"/>
<circle cx="3116" cy="1497" r="5" style="fill:blue"/>
<circle cx="2065" cy="104" r="5" style="fill:blue"/>
<circle cx="3767" cy="174" r="5" style="fill:blue"/>
<circle cx="3483" cy="368" r="5" style="fill:blue"/>
<circle cx="5808" cy="582" r="5" style="fill:blue"/>
<circle cx="1052" cy="988" r="5" style="fill:blue"/>
<circle cx="320" cy="1491" r="5" style="fill:blue"/>
<circle cx="2993" cy="1374" r="5" style="fill:blue"/>
<circle cx="543" cy="1350" r="5" style="fill:blue"/>
<circle cx="4633" cy="1444" r="5" style="fill:blue"/>
<circle cx="1029" cy="1134" r="5" style="fill:blue"/>
<circle cx="100" cy="541" r="5" style="fill:blue"/>
<circle cx="4852" cy="1639" r="5" style="fill:blue"/>
<circle cx="5177" cy="18" r="5" style="fill:blue"/>
<circle cx="56" cy="46" r="5" style="fill:blue"/>
<circle cx="2952" cy="806" r="5" style="fill:blue"/>
<circle cx="2954" cy="71" r="5" style="fill:blue"/>
<circle cx="3392" cy="98" r="5" style="fill:blue"/>
<circle cx="6005" cy="797" r="5" style="fill:blue"/>
<circle cx="5302" cy="983" r="5" style="fill:blue"/>
<circle cx="3011" cy="1354" r="5" style="fill:blue"/>
<circle cx="4019" cy="1657" r="5" style="fill:blue"/>
<circle cx="4612" cy="564" r="5" style="fill:blue"/>
<circle cx="3762" cy="1660" r="5" style="fill:blue"/>
<circle cx="4250" cy="519" r="5" style="fill:blue"/>
<circle cx="4703" cy="671" r="5" style="fill:blue"/>
<circle cx="738" cy="315" r="5" style="fill:blue"/>
<circle cx="1821" cy="1591" r="5" style="fill:blue"/>
<circle cx="5948" cy="358" r="5" style="fill:blue"/>
<circle cx="1134" cy="1041" r="5" style="fill:blue"/>
<circle cx="480" cy="166" r="5" style="fill:blue"/>
<circle cx="2463" cy="100" r="5" style="fill:blue"/>
<circle cx="1037" cy="1176" r="5" style="fill:blue"/>
<circle cx="1146" cy="1052" r="5" style="fill:blue"/>
<circle cx="2087" cy="43" r="5" style="fill:blue"/>
<circle cx="6077" cy="1098" r="5" style="fill:blue"/>
<circle cx="3827" cy="1484" r="5" style="fill:blue"/>
<circle cx="5592" cy="934" r="5" style="fill:blue"/>
<circle cx="5560" cy="731" r="5" style="fill:blue"/>
<circle cx="3160" cy="1227" r="5" style="fill:blue"/>
<circle cx="131" cy="25" r="5" style="fill:blue"/>
<circle cx="1726" cy="972" r="5" style="fill:blue"/>
<circle cx="1075" cy="1284" r="5" style="fill:blue"/>
<circle cx="2623" cy="1085" r="5" style="fill:blue"/>
<circle cx="3561" cy="1223" r="5" style="fill:blue"/>
<circle cx="3510" cy="936" r="5" style="fill:blue"/>
<circle cx="4541" cy="1328" r="5" style="fill:blue"/>
<circle cx="5161" cy="1039" r="5" style="fill:blue"/>
<circle cx="5538" cy="863" r="5" style="fill:blue"/>
<circle cx="4511" cy="287" r="5" style="fill:blue"/>
<circle cx="1162" cy="1352" r="5" style="fill:blue"/>
<circle cx="3595" cy="36" r="5" style="fill:blue"/>
<circle cx="5498" cy="1537" r="5" style="fill:blue"/>
<circle cx="409" cy="1556" r="5" style="fill:blue"/>
<circle cx="4148" cy="1589" r="5" style="fill:blue"/>
<circle cx="5160" cy="1081" r="5" style="fill:blue"/>
<circle cx="5892" cy="806" r="5" style="fill:blue"/>
<circle cx="134" cy="1134" r="5" style="fill:blue"/>
<circle cx="3258" cy="197" r="5" style="fill:blue"/>
<circle cx="5465" cy="1391" r="5" style="fill:blue"/>
<circle cx="4240" cy="368" r="5" style="fill:blue"/>
<circle cx="3854" cy="1133" r="5" style="fill:blue"/>
<circle cx="2482" cy="1154" r="5" style="fill:blue"/>
<circle cx="3437" cy="1332" r="5" style="fill:blue"/>
<circle cx="1790" cy="1586" r="5" style="fill:blue"/>
<circle cx="1841" cy="1560" r="5" style="fill:blue"/>
<circle cx="4412" cy="225" r="5" style="fill:blue"/>
<circle cx="3923" cy="1190" r="5" style="fill:blue"/>
<circle cx="1441" cy="3" r="5" style="fill:blue"/>
<circle cx="5185" cy="346" r="5" style="fill:blue"/>
<circle cx="1397" cy="1264" r="5" style="fill:blue"/>
<circle cx="5920" cy="884" r="5" style="fill:blue"/>
<circle cx="3731" cy="2" r="5" style="fill:blue"/>
<circle cx="3751" cy="1387" r="5" style="fill:blue"/>
<circle cx="1061" cy="939" r="5" style="fill:blue"/>
<circle cx="2651" cy="52" r="5" style="fill:blue"/>
<circle cx="5710" cy="1097" r="5" style="fill:blue"/>
<circle cx="830" cy="1121" r="5" style="fill:blue"/>
<circle cx="3220" cy="710" r="5" style="fill:blue"/>
<circle cx="3818" cy="1057" r="5" style="fill:blue"/>
<circle cx="6059" cy="1317" r="5" style="fill:blue"/>
<circle cx="2878" cy="1157" r="5" style="fill:blue"/>
<circle cx="99" cy="840" r="5" style="fill:blue"/>
<circle cx="3279" cy="302" r="5" style="fill:blue"/>
<circle cx="1974" cy="1536" r="5" style="fill:blue"/>
<circle cx="3609" cy="412" r="5" style="fill:blue"/>
<circle cx="2337" cy="900" r="5" style="fill:blue"/>
<circle cx="3438" cy="1485" r="5" style="fill:blue"/>
<circle cx="4361" cy="540" r="5" style="fill:blue"/>
<circle cx="4877" cy="1372" r="5" style="fill:blue"/>
<circle cx="5406" cy="698" r="5" style="fill:blue"/>
<circle cx="4378" cy="1544" r="5" style="fill:blue"/>
<circle cx="4803" cy="136" r="5" style="fill:blue"/>
<circle cx="4068" cy="472" r="5" style="fill:blue"/>
<circle cx="3974" cy="952" r="5" style="fill:blue"/>
<circle cx="5291" cy="1336" r="5" style="fill:blue"/>
<circle cx="5515" cy="1534" r="5" style="fill:blue"/>
<circle cx="5660" cy="691" r="5" style="fill:blue"/>
<circle cx="5883" cy="33" r="5" style="fill:blue"/>
<circle cx="5934" cy="567" r="5" style="fill:blue"/>
<circle cx="4993" cy="1437" r="5" style="fill:blue"/>
<circle cx="3751" cy="751" r="5" style="fill:blue"/>
<circle cx="3110" cy="89" r="5" style="fill:blue"/>
<circle cx="1791" cy="1289" r="5" style="fill:blue"/>
<circle cx="431" cy="1245" r="5" style="fill:blue"/>
<circle cx="4699" cy="1331" r="5" style="fill:blue"/>
<circle cx="5112" cy="592" r="5" style="fill:blue"/>
<circle cx="5353" cy="1510" r="5" style="fill:blue"/>
<circle cx="3325" cy="1475" r="5" style="fill:blue"/>
<circle cx="4582" cy="546" r="5" style="fill:blue"/>
<circle cx="5978" cy="1410" r="5" style="fill:blue"/>
<circle cx="2143" cy="60" r="5" style="fill:blue"/>
<circle cx="4602" cy="906" r="5" style="fill:blue"/>
<circle cx="2006" cy="1309" r="5" style="fill:blue"/>
<circle cx="3262" cy="1632" r="5" style="fill:blue"/>
<circle cx="1796" cy="1274" r="5" style="fill:blue"/>
<circle cx="3445" cy="1047" r="5" style="fill:blue"/>
<circle cx="1194" cy="1148" r="5" style="fill:blue"/>
<circle cx="5267" cy="208" r="5" style="fill:blue"/>
<circle cx="3167" cy="1508" r="5" style="fill:blue"/>
<circle cx="5160" cy="1660" r="5" style="fill:blue"/>
<circle cx="4574" cy="880" r="5" style="fill:blue"/>
<circle cx="3774" cy="139" r="5" style="fill:blue"/>
<circle cx="1274" cy="1430" r="5" style="fill:blue"/>
<circle cx="5961" cy="842" r="5" style="fill:blue"/>
<circle cx="968" cy="1660" r="5" style="fill:blue"/>
<circle cx="4913" cy="199" r="5" style="fill:blue"/>
<circle cx="2693" cy="588" r="5" style="fill:blue"/>
<circle cx="5793" cy="302" r="5" style="fill:blue"/>
<circle cx="4654" cy="503" r="5" style="fill:blue"/>
<circle cx="6000" cy="1495" r="5" style="fill:blue"/>
<circle cx="1501" cy="1396" r="5" style="fill:blue"/>
<circle cx="1071" cy="1633" r="5" style="fill:blue"/>
<circle cx="1669" cy="915" r="5" style="fill:blue"/>
<circle cx="5000" cy="173" r="5" style="fill:blue"/>
<circle cx="4783" cy="1543" r="5" style="fill:blue"/>
<circle cx="4903" cy="401" r="5" style="fill:blue"/>
<circle cx="449" cy="227" r="5" style="fill:blue"/>
<circle cx="4632" cy="920" r="5" style="fill:blue"/>
<circle cx="612" cy="1097" r="5" style="fill:blue"/>
<circle cx="1106" cy="103" r="5" style="fill:blue"/>
<circle cx="721" cy="222" r="5" style="fill:blue"/>
<circle cx="2479" cy="1407" r="5" style="fill:blue"/>
<circle cx="69" cy="509" r="5" style="fill:blue"/>
<circle cx="4270" cy="1423" r="5" style="fill:blue"/>
<circle cx="3463" cy="1240" r="5" style="fill:blue"/>
<circle cx="3628" cy="900" r="5" style="fill:blue"/>
<circle cx="3842" cy="502" r="5" style="fill:blue"/>
<circle cx="2707" cy="550" r="5" style="fill:blue"/>
<circle cx="2918" cy="51" r="5" style="fill:blue"/>
<circle cx="1067" cy="239" r="5" style="fill:blue"/>
<circle cx="2450" cy="853" r="5" style="fill:blue"/>
<circle cx="5602" cy="1162" r="5" style="fill:blue"/>
<circle cx="5110" cy="1496" r="5" style="fill:blue"/>
<circle cx="839" cy="1053" r="5" style="fill:blue"/>
<circle cx="76" cy="53" r="5" style="fill:blue"/>
<circle cx="4863" cy="671" r="5" style="fill:blue"/>
<circle cx="5871" cy="25" r="5" style="fill:blue"/>
<circle cx="6007" cy="971" r="5" style="fill:blue"/>
<circle cx="599" cy="442" r="5" style="fill:blue"/>
<circle cx="3126" cy="482" r="5" style="fill:blue"/>
<circle cx="2681" cy="164" r="5" style="fill:blue"/>
<circle cx="5941" cy="108" r="5" style="fill:blue"/>
<circle cx="5392" cy="488" r="5" style="fill:blue"/>
<circle cx="650" cy="137" r="5" style="fill:blue"/>
<circle cx="4139" cy="738" r="5" style="fill:blue"/>
<circle cx="1483" cy="1392" r="5" style="fill:blue"/>
<circle cx="4983" cy="778" r="5" style="fill:blue"/>
<circle cx="1933" cy="249" r="5" style="fill:blue"/>
<circle cx="3005" cy="69" r="5" style="fill:blue"/>
<circle cx="3397" cy="1149" r="5" style="fill:blue"/>
<circle cx="782" cy="105" r="5" style="fill:blue"/>
<circle cx="1874" cy="859" r="5" style="fill:blue"/>
<circle cx="3370" cy="496" r="5" style="fill:blue"/>
<circle cx="4756" cy="1655" r="5" style="fill:blue"/>
<circle cx="5739" cy="274" r="5" style="fill:blue"/>
<circle cx="2744" cy="1541" r="5" style="fill:blue"/>
<circle cx="5599" cy="69" r="5" style="fill:blue"/>
<circle cx="5588" cy="1049" r="5" style="fill:blue"/>
<circle cx="6022" cy="256" r="5" style="fill:blue"/>
<circle cx="5177" cy="527" r="5" style="fill:blue"/>
<circle cx="1361" cy="1115" r="5" style="fill:blue"/>
<circle cx="3417" cy="698" r="5" style="fill:blue"/>
<circle cx="910" cy="969" r="5" style="fill:blue"/>
<circle cx="4969" cy="785" r="5" style="fill:blue"/>
<circle cx="2802" cy="1000" r="5" style="fill:blue"/>
<circle cx="2482" cy="199" r="5" style="fill:blue"/>
<circle cx="5841" cy="900" r="5" style="fill:blue"/>
<circle cx="5125" cy="954" r="5" style="fill:blue"/>
<circle cx="3091" cy="1167" r="5" style="fill:blue"/>
<circle cx="1563" cy="1373" r="5" style="fill:blue"/>
<circle cx="4371" cy="1602" r="5" style="fill:blue"/>
<circle cx="4900" cy="364" r="5" style="fill:blue"/>
<circle cx="5319" cy="1218" r="5" style="fill:blue"/>
<circle cx="1288" cy="1103" r="5" style="fill:blue"/>
<circle cx="3683" cy="834" r="5" style="fill:blue"/>
<circle cx="4783" cy="249" r="5" style="fill:blue"/>
<circle cx="341" cy="1636" r="5" style="fill:blue"/>
<circle cx="1844" cy="1252" r="5" style="fill:blue"/>
<circle cx="5554" cy="268" r="5" style="fill:blue"/>
<circle cx="4128" cy="38" r="5" style="fill:blue"/>
<circle cx="5787" cy="366" r="5" style="fill:blue"/>
<circle cx="1867" cy="1476" r="5" style="fill:blue"/>
<circle cx="5613" cy="761" r="5" style="fill:blue"/>
<circle cx="1653" cy="87" r="5" style="fill:blue"/>
<circle cx="5435" cy="1602" r="5" style="fill:blue"/>
<circle cx="2640" cy="1637" r="5" style="fill:blue"/>
<circle cx="621" cy="1582" r="5" style="fill:blue"/>
<circle cx="995" cy="1498" r="5" style="fill:blue"/>
<circle cx="6053" cy="962" r="5" style="fill:blue"/>
<circle cx="4706" cy="1086" r="5" style="fill:blue"/>
<circle cx="575" cy="1488" r="5" style="fill:blue"/>
<circle cx="4179" cy="655" r="5" style="fill:blue"/>
<circle cx="4740" cy="829" r="5" style="fill:blue"/>
<circle cx="5451" cy="1110" r="5" style="fill:blue"/>
<circle cx="3250" cy="1116" r="5" style="fill:blue"/>
<circle cx="2094" cy="1185" r="5" style="fill:blue"/>
<circle cx="5131" cy="710" r="5" style="fill:blue"/>
<circle cx="2525" cy="206" r="5" style="fill:blue"/>
<circle cx="4197" cy="1077" r="5" style="fill:blue"/>
<circle cx="3906" cy="229" r="5" style="fill:blue"/>
<circle cx="3213" cy="1037" r="5" style="fill:blue"/>
<circle cx="5697" cy="1641" r="5" style="fill:blue"/>
<circle cx="4242" cy="1217" r="5" style="fill:blue"/>
<circle cx="4130" cy="27" r="5" style="fill:blue"/>
<circle cx="2562" cy="660" r="5" style="fill:blue"/>
<circle cx="5400" cy="1411" r="5" style="fill:blue"/>
<circle cx="596" cy="1645" r="5" style="fill:blue"/>
<circle cx="1800" cy="1258" r="5" style="fill:blue"/>
<circle cx="2102" cy="908" r="5" style="fill:blue"/>
<circle cx="3797" cy="1526" r="5" style="fill:blue"/>
<circle cx="21" cy="1262" r="5" style="fill:blue"/>
<circle cx="2820" cy="245" r="5" style="fill:blue"/>
<circle cx="2628" cy="887" r="5" style="fill:blue"/>
<circle cx="2433" cy="1134" r="5" style="fill:blue"/>
<circle cx="1529" cy="60" r="5" style="fill:blue"/>
<circle cx="3555" cy="488" r="5" style="fill:blue"/>
<circle cx="3023" cy="391" r="5" style="fill:blue"/>
<circle cx="2138" cy="1644" r="5" style="fill:blue"/>
<circle cx="2280" cy="1114" r="5" style="fill:blue"/>
<circle cx="3145" cy="1565" r="5" style="fill:blue"/>
<circle cx="5540" cy="807" r="5" style="fill:blue"/>
<circle cx="0" cy="1556" r="5" style="fill:blue"/>
<circle cx="24" cy="1387" r="5" style="fill:blue"/>
<circle cx="3942" cy="1054" r="5" style="fill:blue"/>
<circle cx="2877" cy="1532" r="5" style="fill:blue"/>
<circle cx="1434" cy="1621" r="5" style="fill:blue"/>
<circle cx="5870" cy="1265" r="5" style="fill:blue"/>
<circle cx="720" cy="757" r="5" style="fill:blue"/>
<circle cx="2889" cy="1522" r="5" style="fill:blue"/>
<circle cx="366" cy="858" r="5" style="fill:blue"/>
<circle cx="3547" cy="10" r="5" style="fill:blue"/>
<circle cx="3695" cy="909" r="5" style="fill:blue"/>
<circle cx="2721" cy="1082" r="5" style="fill:blue"/>
<circle cx="4216" cy="1344" r="5" style="fill:blue"/>
<circle cx="846" cy="859" r="5" style="fill:blue"/>
<circle cx="1337" cy="1407" r="5" style="fill:blue"/>
<circle cx="783" cy="1483" r="5" style="fill:blue"/>
<circle cx="1389" cy="146" r="5" style="fill:blue"/>
<circle cx="1245" cy="1012" r="5" style="fill:blue"/>
<circle cx="2849" cy="1001" r="5" style="fill:blue"/>
<circle cx="1732" cy="1098" r="5" style="fill:blue"/>
<circle cx="1196" cy="176" r="5" style="fill:blue"/>
<circle cx="3554" cy="890" r="5" style="fill:blue"/>
<circle cx="441" cy="230" r="5" style="fill:blue"/>
<circle cx="1304" cy="845" r="5" style="fill:blue"/>
<circle cx="2697" cy="314" r="5" style="fill:blue"/>
<circle cx="5971" cy="932" r="5" style="fill:blue"/>
<circle cx="2787" cy="339" r="5" style="fill:blue"/>
<circle cx="3290" cy="1660" r="5" style="fill:blue"/>
<circle cx="1708" cy="1102" r="5" style="fill:blue"/>
<circle cx="1612" cy="1152" r="5" style="fill:blue"/>
<circle cx="679" cy="109" r="5" style="fill:blue"/>
<circle cx="2230" cy="809" r="5" style="fill:blue"/>
<circle cx="3346" cy="186" r="5" style="fill:blue"/>
<circle cx="5619" cy="1078" r="5" style="fill:blue"/>
<circle cx="85" cy="574" r="5" style="fill:blue"/>
<circle cx="5315" cy="732" r="5" style="fill:blue"/>
<circle cx="1767" cy="1515" r="5" style="fill:blue"/>
<circle cx="4657" cy="1256" r="5" style="fill:blue"/>
<circle cx="1078" cy="1505" r="69" style="stroke-width:5;fill:gray;fill-opacity:0.3"/>
<circle cx="4738" cy="570" r="8" style="stroke-width:5;fill:gray;fill-opacity:0.3"/>
<circle cx="2584" cy="1289" r="59" style="stroke-width:5;fill:gray;fill-opacity:0.3"/>
<circle cx="5115" cy="896" r="29" style="stroke-width:5;fill:gray;fill-opacity:0.3"/>
<circle cx="1034" cy="1598" r="33" style="stroke-width:5;fill:gray;fill-opacity:0.3"/>
<circle cx="5249" cy="159" r="50" style="stroke-width:5;fill:gray;fill-opacity:0.3"/>
<circle cx="761" cy="1080" r="77" style="stroke-width:5;fill:gray;fill-opacity:0.3"/>
<circle cx="2672" cy="782" r="59" style="stroke-width:5;fill:gray;fill-opacity:0.3"/>
<circle cx="3642" cy="735" r="47" style="stroke-width:5;fill:gray;fill-opacity:0.3"/>
<circle cx="3593" cy="707" r="21" style="stroke-width:5;fill:gray;fill-opacity:0.3"/>
<circle cx="5587" cy="1590" r="71" style="stroke-width:5;fill:gray;fill-opacity:0.3"/>
<circle cx="5454" cy="504" r="61" style="stroke-width:5;fill:gray;fill-opacity:0.3"/>
<circle cx="5178" cy="1590" r="27" style="stroke-width:5;fill:gray;fill-opacity:0.3"/>
<circle cx="3504" cy="255" r="41" style="stroke-width:5;fill:gray;fill-opacity:0.3"/>
<circle cx="4863" cy="167" r="12" style="stroke-width:5;fill:gray;fill-opacity:0.3"/>
<circle cx="997" cy="1008" r="40" style="stroke-width:5;fill:gray;fill-opacity:0.3"/>
<circle cx="911" cy="1575" r="73" style="stroke-width:5;fill:gray;fill-opacity:0.3"/>
<circle cx="3220" cy="793" r="24" style="stroke-width:5;fill:gray;fill-opacity:0.3"/>
<circle cx="5253" cy="788" r="75" style="stroke-width:5;fill:gray;fill-opacity:0.3"/>
<circle cx="308" cy="1000" r="84" style="stroke-width:5;fill:gray;fill-opacity:0.3"/>
<circle cx="2703" cy="114" r="28" style="stroke-width:5;fill:gray;fill-opacity:0.3"/>
<circle cx="32" cy="462" r="8" style="stroke-width:5;fill:gray;fill-opacity:0.3"/>
<circle cx="4391" cy="832" r="55" style="stroke-width:5;fill:gray;fill-opacity:0.3"/>
<circle cx="1247" cy="1350" r="36" style="stroke-width:5;fill:gray;fill-opacity:0.3"/>
<circle cx="2829" cy="1517" r="36" style="stroke-width:5;fill:gray;fill-opacity:0.3"/>
<circle cx="4227" cy="1139" r="24" style="stroke-width:5;fill:gray;fill-opacity:0.3"/>
<circle cx="3054" cy="1411" r="60" style="stroke-width:5;fill:gray;fill-opacity:0.3"/>
<circle cx="5355" cy="928" r="11" style="stroke-width:5;fill:gray;fill-opacity:0.3"/>
<circle cx="3193" cy="1425" r="78" style="stroke-width:5;fill:gray;fill-opacity:0.3"/>
<circle cx="509" cy="361" r="30" style="stroke-width:5;fill:gray;fill-opacity:0.3"/>
<circle cx="3133" cy="610" r="35" style="stroke-width:5;fill:gray;fill-opacity:0.3"/>
<circle cx="5946" cy="486" r="7" style="stroke-width:5;fill:gray;fill-opacity:0.3"/>
<circle cx="2726" cy="489" r="59" style="stroke-width:5;fill:gray;fill-opacity:0.3"/>
<circle cx="4915" cy="493" r="23" style="stroke-width:5;fill:gray;fill-opacity:0.3"/>
<circle cx="2980" cy="963" r="13" style="stroke-width:5;fill:gray;fill-opacity:0.3"/>
<circle cx="4362" cy="1351" r="61" style="stroke-width:5;fill:gray;fill-opacity:0.3"/>
<circle cx="3506" cy="882" r="7" style="stroke-width:5;fill:gray;fill-opacity:0.3"/>
<circle cx="942" cy="161" r="49" style="stroke-width:5;fill:gray;fill-opacity:0.3"/>
<circle cx="5685" cy="321" r="65" style="stroke-width:5;fill:gray;fill-opacity:0.3"/>
<circle cx="3387" cy="158" r="38" style="stroke-width:5;fill:gray;fill-opacity:0.3"/>
<circle cx="4037" cy="1008" r="14" style="stroke-width:5;fill:gray;fill-opacity:0.3"/>
<circle cx="370" cy="1395" r="51" style="stroke-width:5;fill:gray;fill-opacity:0.3"/>
<circle cx="692" cy="1300" r="37" style="stroke-width:5;fill:gray;fill-opacity:0.3"/>
<circle cx="2719" cy="1325" r="32" style="stroke-width:5;fill:gray;fill-opacity:0.3"/>
<circle cx="914" cy="1547" r="62" style="stroke-width:5;fill:gray;fill-opacity:0.3"/>
<circle cx="5152" cy="1386" r="39" style="stroke-width:5;fill:gray;fill-opacity:0.3"/>
<circle cx="1197" cy="88" r="17" style="stroke-width:5;fill:gray;fill-opacity:0.3"/>
<circle cx="3070" cy="753" r="34" style="stroke-width:5;fill:gray;fill-opacity:0.3"/>
<circle cx="827" cy="1567" r="81" style="stroke-width:5;fill:gray;fill-opacity:0.3"/>
<circle cx="581" cy="295" r="54" style="stroke-width:5;fill:gray;fill-opacity:0.3"/>
<circle cx="4581" cy="227" r="70" style="stroke-width:5;fill:gray;fill-opacity:0.3"/>
<circle cx="2907" cy="1416" r="33" style="stroke-width:5;fill:gray;fill-opacity:0.3"/>
<circle cx="5360" cy="167" r="68" style="stroke-width:5;fill:gray;fill-opacity:0.3"/>
<circle cx="3561" cy="1307" r="81" style="stroke-width:5;fill:gray;fill-opacity:0.3"/>
<circle cx="189" cy="501" r="82" style="stroke-width:5;fill:gray;fill-opacity:0.3"/>
<circle cx="3563" cy="655" r="55" style="stroke-width:5;fill:gray;fill-opacity:0.3"/>
<circle cx="228" cy="398" r="61" style="stroke-width:5;fill:gray;fill-opacity:0.3"/>
<circle cx="5555" cy="1251" r="78" style="stroke-width:5;fill:gray;fill-opacity:0.3"/>
<circle cx="199" cy="471" r="20" style="stroke-width:5;fill:gray;fill-opacity:0.3"/>
<circle cx="5243" cy="1601" r="46" style="stroke-width:5;fill:gray;fill-opacity:0.3"/>
<circle cx="6015" cy="495" r="44" style="stroke-width:5;fill:gray;fill-opacity:0.3"/>
<circle cx="24" cy="843" r="19" style="stroke-width:5;fill:gray;fill-opacity:0.3"/>
<circle cx="2564" cy="1132" r="42" style="stroke-width:5;fill:gray;fill-opacity:0.3"/>
<circle cx="2765" cy="1479" r="30" style="stroke-width:5;fill:gray;fill-opacity:0.3"/>
<circle cx="119" cy="1580" r="83" style="stroke-width:5;fill:gray;fill-opacity:0.3"/>
<circle cx="4597" cy="305" r="72" style="stroke-width:5;fill:gray;fill-opacity:0.3"/>
<circle cx="639" cy="308" r="30" style="stroke-width:5;fill:gray;fill-opacity:0.3"/>
<circle cx="2583" cy="988" r="17" style="stroke-width:5;fill:gray;fill-opacity:0.3"/>
<circle cx="1724" cy="70" r="15" style="stroke-width:5;fill:gray;fill-opacity:0.3"/>
<circle cx="3808" cy="833" r="33" style="stroke-width:5;fill:gray;fill-opacity:0.3"/>
<circle cx="4854" cy="222" r="41" style="stroke-width:5;fill:gray;fill-opacity:0.3"/>
<circle cx="3735" cy="425" r="34" style="stroke-width:5;fill:gray;fill-opacity:0.3"/>
<circle cx="4589" cy="180" r="8" style="stroke-width:5;fill:gray;fill-opacity:0.3"/>
<circle cx="3892" cy="955" r="61" style="stroke-width:5;fill:gray;fill-opacity:0.3"/>
<circle cx="5423" cy="55" r="35" style="stroke-width:5;fill:gray;fill-opacity:0.3"/>
<circle cx="3770" cy="827" r="20" style="stroke-width:5;fill:gray;fill-opacity:0.3"/>
<circle cx="2495" cy="1274" r="47" style="stroke-width:5;fill:gray;fill-opacity:0.3"/>
<circle cx="3477" cy="687" r="54" style="stroke-width:5;fill:gray;fill-opacity:0.3"/>
<circle cx="4652" cy="929" r="12" style="stroke-width:5;fill:gray;fill-opacity:0.3"/>
<circle cx="3495" cy="1181" r="34" style="stroke-width:5;fill:gray;fill-opacity:0.3"/>
<circle cx="4812" cy="756" r="27" style="stroke-width:5;fill:gray;fill-opacity:0.3"/>
<circle cx="3951" cy="1536" r="46" style="stroke-width:5;fill:gray;fill-opacity:0.3"/>
<circle cx="3490" cy="168" r="16" style="stroke-width:5;fill:gray;fill-opacity:0.3"/>
<circle cx="4939" cy="1256" r="42" style="stroke-width:5;fill:gray;fill-opacity:0.3"/>
<circle cx="5344" cy="1459" r="42" style="stroke-width:5;fill:gray;fill-opacity:0.3"/>
<circle cx="1611" cy="1114" r="18" style="stroke-width:5;fill:gray;fill-opacity:0.3"/>
<circle cx="2465" cy="1056" r="75" style="stroke-width:5;fill:gray;fill-opacity:0.3"/>
<circle cx="2907" cy="1329" r="72" style="stroke-width:5;fill:gray;fill-opacity:0.3"/>
<circle cx="5587" cy="222" r="46" style="stroke-width:5;fill:gray;fill-opacity:0.3"/>
<circle cx="4288" cy="957" r="25" style="stroke-width:5;fill:gray;fill-opacity:0.3"/>
<circle cx="414" cy="994" r="52" style="stroke-width:5;fill:gray;fill-opacity:0.3"/>
<circle cx="492" cy="991" r="31" style="stroke-width:5;fill:gray;fill-opacity:0.3"/>
<circle cx="3103" cy="228" r="43" style="stroke-width:5;fill:gray;fill-opacity:0.3"/>
<circle cx="2620" cy="413" r="18" style="stroke-width:5;fill:gray;fill-opacity:0.3"/>
<circle cx="2107" cy="1371" r="62" style="stroke-width:5;fill:gray;fill-opacity:0.3"/>
<circle cx="2287" cy="70" r="66" style="stroke-width:5;fill:gray;fill-opacity:0.3"/>
<circle cx="3841" cy="913" r="40" style="stroke-width:5;fill:gray;fill-opacity:0.3"/>
<circle cx="1843" cy="224" r="25" style="stroke-width:5;fill:gray;fill-opacity:0.3"/>
<circle cx="1550" cy="944" r="72" style="stroke-width:5;fill:gray;fill-opacity:0.3"/>
<circle cx="4480" cy="947" r="81" style="stroke-width:5;fill:gray;fill-opacity:0.3"/>
<circle cx="2426" cy="1489" r="42" style="stroke-width:5;fill:gray;fill-opacity:0.3"/>
<circle cx="3258" cy="753" r="43" style="stroke-width:5;fill:gray;fill-opacity:0.3"/>
<circle cx="3389" cy="1534" r="21" style="stroke-width:5;fill:gray;fill-opacity:0.3"/>
<circle cx="4697" cy="985" r="69" style="stroke-width:5;fill:gray;fill-opacity:0.3"/>
<circle cx="80" cy="934" r="22" style="stroke-width:5;fill:gray;fill-opacity:0.3"/>
<circle cx="3797" cy="271" r="62" style="stroke-width:5;fill:gray;fill-opacity:0.3"/>
<circle cx="3175" cy="1294" r="33" style="stroke-width:5;fill:gray;fill-opacity:0.3"/>
<circle cx="544" cy="1076" r="6" style="stroke-width:5;fill:gray;fill-opacity:0.3"/>
<circle cx="4686" cy="144" r="5" style="stroke-width:5;fill:gray;fill-opacity:0.3"/>
<circle cx="5551" cy="414" r="81" style="stroke-width:5;fill:gray;fill-opacity:0.3"/>
<circle cx="5415" cy="368" r="67" style="stroke-width:5;fill:gray;fill-opacity:0.3"/>
<circle cx="436" cy="54" r="52" style="stroke-width:5;fill:gray;fill-opacity:0.3"/>
<circle cx="543" cy="829" r="7" style="stroke-width:5;fill:gray;fill-opacity:0.3"/>
<circle cx="4692" cy="847" r="20" style="stroke-width:5;fill:gray;fill-opacity:0.3"/>
<circle cx="3001" cy="754" r="24" style="stroke-width:5;fill:gray;fill-opacity:0.3"/>
<circle cx="3041" cy="1089" r="69" style="stroke-width:5;fill:gray;fill-opacity:0.3"/>
<circle cx="1230" cy="1213" r="22" style="stroke-width:5;fill:gray;fill-opacity:0.3"/>
<circle cx="728" cy="913" r="35" style="stroke-width:5;fill:gray;fill-opacity:0.3"/>
<circle cx="2980" cy="272" r="17" style="stroke-width:5;fill:gray;fill-opacity:0.3"/>
<circle cx="5504" cy="742" r="54" style="stroke-width:5;fill:gray;fill-opacity:0.3"/>
<circle cx="2102" cy="1030" r="76" style="stroke-width:5;fill:gray;fill-opacity:0.3"/>
<circle cx="621" cy="1197" r="80" style="stroke-width:5;fill:gray;fill-opacity:0.3"/>
<circle cx="854" cy="1509" r="41" style="stroke-width:5;fill:gray;fill-opacity:0.3"/>
<circle cx="1806" cy="1370" r="14" style="stroke-width:5;fill:gray;fill-opacity:0.3"/>
<circle cx="4419" cy="295" r="18" style="stroke-width:5;fill:gray;fill-opacity:0.3"/>
<circle cx="5412" cy="611" r="47" style="stroke-width:5;fill:gray;fill-opacity:0.3"/>
<circle cx="1114" cy="61" r="37" style="stroke-width:5;fill:gray;fill-opacity:0.3"/>
<circle cx="3991" cy="443" r="57" style="stroke-width:5;fill:gray;fill-opacity:0.3"/>
<circle cx="681" cy="1475" r="56" style="stroke-width:5;fill:gray;fill-opacity:0.3"/>
<circle cx="2838" cy="588" r="75" style="stroke-width:5;fill:gray;fill-opacity:0.3"/>
<circle cx="5419" cy="1228" r="72" style="stroke-width:5;fill:gray;fill-opacity:0.3"/>
<circle cx="5634" cy="401" r="9" style="stroke-width:5;fill:gray;fill-opacity:0.3"/>
<circle cx="2401" cy="137" r="18" style="stroke-width:5;fill:gray;fill-opacity:0.3"/>
<circle cx="3026" cy="1046" r="7" style="stroke-width:5;fill:gray;fill-opacity:0.3"/>
<circle cx="525" cy="829" r="45" style="stroke-width:5;fill:gray;fill-opacity:0.3"/>
<circle cx="5723" cy="733" r="42" style="stroke-width:5;fill:gray;fill-opacity:0.3"/>
<circle cx="3070" cy="1367" r="38" style="stroke-width:5;fill:gray;fill-opacity:0.3"/>
<circle cx="453" cy="1395" r="22" style="stroke-width:5;fill:gray;fill-opacity:0.3"/>
<circle cx="151" cy="993" r="66" style="stroke-width:5;fill:gray;fill-opacity:0.3"/>
<circle cx="4466" cy="429" r="73" style="stroke-width:5;fill:gray;fill-opacity:0.3"/>
<circle cx="728" cy="888" r="60" style="stroke-width:5;fill:gray;fill-opacity:0.3"/>
<circle cx="192" cy="484" r="82" style="stroke-width:5;fill:gray;fill-opacity:0.3"/>
<circle cx="520" cy="1184" r="17" style="stroke-width:5;fill:gray;fill-opacity:0.3"/>
<circle cx="4113" cy="1437" r="43" style="stroke-width:5;fill:gray;fill-opacity:0.3"/>
<circle cx="4873" cy="487" r="16" style="stroke-width:5;fill:gray;fill-opacity:0.3"/>
</svg>