<svg viewBox="0 0 9745 1634" xmlns="http://www.w3.org/2000/svg">
<rect height="382" style="stroke:pink;stroke-width:10;fill:gray;fill-opacity:0.1;stroke-opacity:0.9" width="2382" x="3248" y="1000"/>
<circle cx="1295" cy="1399" r="5" style="fill:blue"/>
<circle cx="2608" cy="75" r="5" style="fill:blue"/>
<circle cx="7138" cy="1512" r="5" style="fill:blue"/>
<circle cx="1675" cy="1559" r="5" style="fill:blue"/>
<circle cx="1117" cy="1447" r="5" style="fill:blue"/>
<circle cx="4317" cy="428" r="5" style="fill:blue"/>
<circle cx="902" cy="902" r="5" style="fill:blue"/>
<circle cx="5352" cy="780" r="5" style="fill:blue"/>
<circle cx="6552" cy="1270" r="5" style="fill:blue"/>
<circle cx="825" cy="1512" r="5" style="fill:blue"/>
<circle cx="9267" cy="841" r="5" style="fill:blue"/>
<circle cx="1721" cy="1432" r="5" style="fill:blue"/>
<circle cx="1874" cy="463" r="5" style="fill:blue"/>
<circle cx="6105" cy="771" r="5" style="fill:blue"/>
<circle cx="1655" cy="1244" r="5" style="fill:blue"/>
<circle cx="4960" cy="403" r="5" style="fill:blue"/>
<circle cx="9188" cy="705" r="5" style="fill:blue"/>
<circle cx="6042" cy="187" r="5" style="fill:blue"/>
<circle cx="6785" cy="868" r="5" style="fill:blue"/>
<circle cx="9303" cy="1541" r="5" style="fill:blue"/>
<circle cx="3908" cy="82" r="5" style="fill:blue"/>
<circle cx="3639" cy="338" r="5" style="fill:blue"/>
<circle cx="310" cy="427" r="5" style="fill:blue"/>
<circle cx="485" cy="826" r="5" style="fill:blue"/>
<circle cx="7058" cy="757" r="5" style="fill:blue"/>
<circle cx="6680" cy="1302" r="5" style="fill:blue"/>
<circle cx="3532" cy="256" r="5" style="fill:blue"/>
<circle cx="8435" cy="64" r="5" style="fill:blue"/>
<circle cx="7791" cy="482" r="5" style="fill:blue"/>
<circle cx="9384" cy="1034" r="5" style="fill:blue"/>
<circle cx="3059" cy="1382" r="5" style="fill:blue"/>
<circle cx="9687" cy="1390" r="5" style="fill:blue"/>
<circle cx="2664" cy="173" r="5" style="fill:blue"/>
<circle cx="3406" cy="990" r="5" style="fill:blue"/>
<circle cx="5711" cy="987" r="5" style="fill:blue"/>
<circle cx="212" cy="1258" r="5" style="fill:blue"/>
<circle cx="5608" cy="75" r="5" style="fill:blue"/>
<circle cx="4880" cy="89" r="5" style="fill:blue"/>
<circle cx="4536" cy="1413" r="5" style="fill:blue"/>
<circle cx="7799" cy="171" r="5" style="fill:blue"/>
<circle cx="589" cy="1325" r="5" style="fill:blue"/>
<circle cx="6313" cy="1241" r="5" style="fill:blue"/>
<circle cx="2275" cy="376" r="5" style="fill:blue"/>
<circle cx="7746" cy="1106" r="5" style="fill:blue"/>
<circle cx="792" cy="900" r="5" style="fill:blue"/>
<circle cx="7075" cy="425" r="5" style="fill:blue"/>
<circle cx="7176" cy="1247" r="5" style="fill:blue"/>
<circle cx="9341" cy="213" r="5" style="fill:blue"/>
<circle cx="7042" cy="1292" r="5" style="fill:blue"/>
<circle cx="9711" cy="913" r="5" style="fill:blue"/>
<circle cx="8620" cy="225" r="5" style="fill:blue"/>
<circle cx="28" cy="1113" r="5" style="fill:blue"/>
<circle cx="4577" cy="208" r="5" style="fill:blue"/>
<circle cx="9393" cy="351" r="5" style="fill:blue"/>
<circle cx="4570" cy="733" r="5" style="fill:blue"/>
<circle cx="8532" cy="1541" r="5" style="fill:blue"/>
<circle cx="9461" cy="326" r="5" style="fill:blue"/>
<circle cx="9327" cy="1506" r="5" style="fill:blue"/>
<circle cx="4449" cy="105" r="5" style="fill:blue"/>
<circle cx="2113" cy="20" r="5" style="fill:blue"/>
<circle cx="3091" cy="1370" r="5" style="fill:blue"/>
<circle cx="2108" cy="25" r="5" style="fill:blue"/>
<circle cx="7289" cy="1284" r="5" style="fill:blue"/>
<circle cx="9170" cy="1492" r="5" style="fill:blue"/>
<circle cx="8928" cy="1557" r="5" style="fill:blue"/>
<circle cx="7319" cy="885" r="5" style="fill:blue"/>
<circle cx="2595" cy="1564" r="5" style="fill:blue"/>
<circle cx="930" cy="670" r="5" style="fill:blue"/>
<circle cx="9252" cy="941" r="5" style="fill:blue"/>
<circle cx="4402" cy="989" r="5" style="fill:blue"/>
<circle cx="2734" cy="1188" r="5" style="fill:blue"/>
<circle cx="5948" cy="4" r="5" style="fill:blue"/>
<circle cx="2420" cy="1138" r="5" style="fill:blue"/>
<circle cx="8003" cy="1284" r="5" style="fill:blue"/>
<circle cx="2821" cy="24" r="5" style="fill:blue"/>
<circle cx="7306" cy="449" r="5" style="fill:blue"/>
<circle cx="6837" cy="689" r="5" style="fill:blue"/>
<circle cx="417" cy="785" r="5" style="fill:blue"/>
<circle cx="2399" cy="609" r="5" style="fill:blue"/>
<circle cx="426" cy="1459" r="5" style="fill:blue"/>
<circle cx="1016" cy="731" r="5" style="fill:blue"/>
<circle cx="113" cy="1074" r="5" style="fill:blue"/>
<circle cx="3890" cy="1446" r="5" style="fill:blue"/>
<circle cx="37" cy="1266" r="5" style="fill:blue"/>
<circle cx="5167" cy="36" r="5" style="fill:blue"/>
<circle cx="8760" cy="1010" r="5" style="fill:blue"/>
<circle cx="4502" cy="213" r="5" style="fill:blue"/>
<circle cx="2197" cy="834" r="5" style="fill:blue"/>
<circle cx="5107" cy="691" r="5" style="fill:blue"/>
<circle cx="631" cy="896" r="5" style="fill:blue"/>
<circle cx="7376" cy="58" r="5" style="fill:blue"/>
<circle cx="5983" cy="1016" r="5" style="fill:blue"/>
<circle cx="4426" cy="330" r="5" style="fill:blue"/>
<circle cx="2214" cy="270" r="5" style="fill:blue"/>
<circle cx="6306" cy="1055" r="5" style="fill:blue"/>
<circle cx="4259" cy="294" r="5" style="fill:blue"/>
<circle cx="948" cy="216" r="5" style="fill:blue"/>
<circle cx="8486" cy="1053" r="5" style="fill:blue"/>
<circle cx="867" cy="1486" r="5" style="fill:blue"/>
<circle cx="8925" cy="1310" r="5" style="fill:blue"/>
<circle cx="5119" cy="1417" r="5" style="fill:blue"/>
<circle cx="6319" cy="1313" r="5" style="fill:blue"/>
<circle cx="927" cy="1514" r="5" style="fill:blue"/>
<circle cx="1151" cy="485" r="5" style="fill:blue"/>
<circle cx="9503" cy="350" r="5" style="fill:blue"/>
<circle cx="691" cy="1506" r="5" style="fill:blue"/>
<circle cx="5692" cy="1386" r="5" style="fill:blue"/>
<circle cx="3951" cy="1463" r="5" style="fill:blue"/>
<circle cx="8695" cy="702" r="5" style="fill:blue"/>
<circle cx="2104" cy="1414" r="5" style="fill:blue"/>
<circle cx="1891" cy="415" r="5" style="fill:blue"/>
<circle cx="6832" cy="1307" r="5" style="fill:blue"/>
<circle cx="2722" cy="1166" r="5" style="fill:blue"/>
<circle cx="5746" cy="831" r="5" style="fill:blue"/>
<circle cx="8009" cy="694" r="5" style="fill:blue"/>
<circle cx="4760" cy="700" r="5" style="fill:blue"/>
<circle cx="733" cy="1232" r="5" style="fill:blue"/>
<circle cx="8057" cy="218" r="5" style="fill:blue"/>
<circle cx="8213" cy="617" r="5" style="fill:blue"/>
<circle cx="4798" cy="945" r="5" style="fill:blue"/>
<circle cx="9359" cy="1600" r="5" style="fill:blue"/>
<circle cx="1947" cy="569" r="5" style="fill:blue"/>
<circle cx="8180" cy="700" r="5" style="fill:blue"/>
<circle cx="8178" cy="1350" r="5" style="fill:blue"/>
<circle cx="7576" cy="940" r="5" style="fill:blue"/>
<circle cx="6981" cy="1512" r="5" style="fill:blue"/>
<circle cx="7915" cy="208" r="5" style="fill:blue"/>
<circle cx="6280" cy="51" r="5" style="fill:blue"/>
<circle cx="860" cy="121" r="5" style="fill:blue"/>
<circle cx="5807" cy="929" r="5" style="fill:blue"/>
<circle cx="4093" cy="806" r="5" style="fill:blue"/>
<circle cx="800" cy="102" r="5" style="fill:blue"/>
<circle cx="3759" cy="211" r="5" style="fill:blue"/>
<circle cx="6808" cy="839" r="5" style="fill:blue"/>
<circle cx="2634" cy="395" r="5" style="fill:blue"/>
<circle cx="4831" cy="365" r="5" style="fill:blue"/>
<circle cx="6327" cy="425" r="5" style="fill:blue"/>
<circle cx="4362" cy="610" r="5" style="fill:blue"/>
<circle cx="8080" cy="60" r="5" style="fill:blue"/>
<circle cx="8115" cy="715" r="5" style="fill:blue"/>
<circle cx="7660" cy="1119" r="5" style="fill:blue"/>
<circle cx="9496" cy="515" r="5" style="fill:blue"/>
<circle cx="5193" cy="374" r="5" style="fill:blue"/>
<circle cx="2998" cy="744" r="5" style="fill:blue"/>
<circle cx="778" cy="1625" r="5" style="fill:blue"/>
<circle cx="4524" cy="732" r="5" style="fill:blue"/>
<circle cx="1086" cy="272" r="5" style="fill:blue"/>
<circle cx="5736" cy="814" r="5" style="fill:blue"/>
<circle cx="9028" cy="628" r="5" style="fill:blue"/>
<circle cx="5345" cy="679" r="5" style="fill:blue"/>
<circle cx="8214" cy="758" r="5" style="fill:blue"/>
<circle cx="7233" cy="234" r="5" style="fill:blue"/>
<circle cx="7173" cy="472" r="5" style="fill:blue"/>
<circle cx="375" cy="778" r="5" style="fill:blue"/>
<circle cx="9535" cy="960" r="5" style="fill:blue"/>
<circle cx="8210" cy="1417" r="5" style="fill:blue"/>
<circle cx="277" cy="24" r="5" style="fill:blue"/>
<circle cx="6571" cy="1156" r="5" style="fill:blue"/>
<circle cx="6882" cy="1385" r="5" style="fill:blue"/>
<circle cx="8922" cy="759" r="5" style="fill:blue"/>
<circle cx="796" cy="1486" r="5" style="fill:blue"/>
<circle cx="8728" cy="646" r="5" style="fill:blue"/>
<circle cx="314" cy="959" r="5" style="fill:blue"/>
<circle cx="3784" cy="561" r="5" style="fill:blue"/>
<circle cx="4993" cy="1580" r="5" style="fill:blue"/>
<circle cx="7120" cy="1163" r="5" style="fill:blue"/>
<circle cx="1734" cy="1633" r="5" style="fill:blue"/>
<circle cx="8816" cy="463" r="5" style="fill:blue"/>
<circle cx="6548" cy="663" r="5" style="fill:blue"/>
<circle cx="590" cy="463" r="5" style="fill:blue"/>
<circle cx="9594" cy="419" r="5" style="fill:blue"/>
<circle cx="4962" cy="452" r="5" style="fill:blue"/>
<circle cx="2752" cy="1594" r="5" style="fill:blue"/>
<circle cx="6368" cy="1085" r="5" style="fill:blue"/>
<circle cx="9731" cy="161" r="5" style="fill:blue"/>
<circle cx="1727" cy="767" r="5" style="fill:blue"/>
<circle cx="9634" cy="1486" r="5" style="fill:blue"/>
<circle cx="3156" cy="191" r="5" style="fill:blue"/>
<circle cx="2720" cy="46" r="5" style="fill:blue"/>
<circle cx="8144" cy="635" r="5" style="fill:blue"/>
<circle cx="4113" cy="1397" r="5" style="fill:blue"/>
<circle cx="1451" cy="369" r="5" style="fill:blue"/>
<circle cx="6759" cy="1016" r="5" style="fill:blue"/>
<circle cx="8389" cy="431" r="5" style="fill:blue"/>
<circle cx="7163" cy="769" r="5" style="fill:blue"/>
<circle cx="1655" cy="681" r="5" style="fill:blue"/>
<circle cx="911" cy="1311" r="5" style="fill:blue"/>
<circle cx="9579" cy="928" r="5" style="fill:blue"/>
<circle cx="6367" cy="1167" r="5" style="fill:blue"/>
<circle cx="1611" cy="1590" r="5" style="fill:blue"/>
<circle cx="6670" cy="1296" r="5" style="fill:blue"/>
<circle cx="8178" cy="891" r="5" style="fill:blue"/>
<circle cx="1880" cy="1159" r="5" style="fill:blue"/>
<circle cx="3690" cy="420" r="5" style="fill:blue"/>
<circle cx="6259" cy="753" r="5" style="fill:blue"/>
<circle cx="8313" cy="1434" r="5" style="fill:blue"/>
<circle cx="2358" cy="445" r="5" style="fill:blue"/>
<circle cx="6726" cy="115" r="5" style="fill:blue"/>
<circle cx="9638" cy="1430" r="5" style="fill:blue"/>
<circle cx="1414" cy="558" r="5" style="fill:blue"/>
<circle cx="3567" cy="909" r="5" style="fill:blue"/>
<circle cx="2430" cy="1154" r="5" style="fill:blue"/>
<circle cx="88" cy="750" r="5" style="fill:blue"/>
<circle cx="4161" cy="1437" r="5" style="fill:blue"/>
<circle cx="4628" cy="525" r="5" style="fill:blue"/>
<circle cx="3230" cy="784" r="5" style="fill:blue"/>
<circle cx="4452" cy="110" r="5" style="fill:blue"/>
<circle cx="8211" cy="257" r="5" style="fill:blue"/>
<circle cx="8538" cy="1102" r="5" style="fill:blue"/>
<circle cx="9117" cy="321" r="5" style="fill:blue"/>
<circle cx="2472" cy="61" r="5" style="fill:blue"/>
<circle cx="1001" cy="934" r="5" style="fill:blue"/>
<circle cx="6500" cy="211" r="5" style="fill:blue"/>
<circle cx="2628" cy="32" r="5" style="fill:blue"/>
<circle cx="8957" cy="661" r="5" style="fill:blue"/>
<circle cx="3000" cy="1124" r="5" style="fill:blue"/>
<circle cx="6559" cy="292" r="5" style="fill:blue"/>
<circle cx="5487" cy="730" r="5" style="fill:blue"/>
<circle cx="2742" cy="750" r="5" style="fill:blue"/>
<circle cx="2777" cy="379" r="5" style="fill:blue"/>
<circle cx="6163" cy="1410" r="5" style="fill:blue"/>
<circle cx="5484" cy="950" r="5" style="fill:blue"/>
<circle cx="6125" cy="1632" r="5" style="fill:blue"/>
<circle cx="9138" cy="65" r="5" style="fill:blue"/>
<circle cx="9721" cy="1002" r="5" style="fill:blue"/>
<circle cx="5688" cy="927" r="5" style="fill:blue"/>
<circle cx="5846" cy="508" r="5" style="fill:blue"/>
<circle cx="7002" cy="269" r="5" style="fill:blue"/>
<circle cx="7648" cy="195" r="5" style="fill:blue"/>
<circle cx="3346" cy="807" r="5" style="fill:blue"/>
<circle cx="7975" cy="780" r="5" style="fill:blue"/>
<circle cx="3318" cy="1507" r="5" style="fill:blue"/>
<circle cx="252" cy="568" r="5" style="fill:blue"/>
<circle cx="463" cy="804" r="5" style="fill:blue"/>
<circle cx="9563" cy="286" r="5" style="fill:blue"/>
<circle cx="337" cy="860" r="5" style="fill:blue"/>
<circle cx="4412" cy="469" r="5" style="fill:blue"/>
<circle cx="2542" cy="1624" r="5" style="fill:blue"/>
<circle cx="97" cy="1512" r="5" style="fill:blue"/>
<circle cx="751" cy="463" r="5" style="fill:blue"/>
<circle cx="2538" cy="574" r="5" style="fill:blue"/>
<circle cx="2931" cy="1018" r="5" style="fill:blue"/>
<circle cx="566" cy="467" r="5" style="fill:blue"/>
<circle cx="9659" cy="28" r="5" style="fill:blue"/>
<circle cx="5215" cy="760" r="5" style="fill:blue"/>
<circle cx="6074" cy="632" r="5" style="fill:blue"/>
<circle cx="1589" cy="644" r="5" style="fill:blue"/>
<circle cx="7497" cy="11" r="5" style="fill:blue"/>
<circle cx="7711" cy="652" r="5" style="fill:blue"/>
<circle cx="6762" cy="1377" r="5" style="fill:blue"/>
<circle cx="1731" cy="488" r="5" style="fill:blue"/>
<circle cx="8137" cy="1469" r="5" style="fill:blue"/>
<circle cx="3738" cy="835" r="5" style="fill:blue"/>
<circle cx="2552" cy="548" r="5" style="fill:blue"/>
<circle cx="3799" cy="662" r="5" style="fill:blue"/>
<circle cx="9379" cy="491" r="5" style="fill:blue"/>
<circle cx="4176" cy="75" r="5" style="fill:blue"/>
<circle cx="2175" cy="1424" r="5" style="fill:blue"/>
<circle cx="5544" cy="915" r="5" style="fill:blue"/>
<circle cx="7601" cy="474" r="5" style="fill:blue"/>
<circle cx="8800" cy="372" r="5" style="fill:blue"/>
<circle cx="6960" cy="1624" r="5" style="fill:blue"/>
<circle cx="348" cy="855" r="5" style="fill:blue"/>
<circle cx="4617" cy="1492" r="5" style="fill:blue"/>
<circle cx="6588" cy="491" r="5" style="fill:blue"/>
<circle cx="2955" cy="668" r="5" style="fill:blue"/>
<circle cx="7906" cy="736" r="5" style="fill:blue"/>
<circle cx="4242" cy="640" r="5" style="fill:blue"/>
<circle cx="5087" cy="879" r="5" style="fill:blue"/>
<circle cx="7082" cy="595" r="5" style="fill:blue"/>
<circle cx="3022" cy="712" r="5" style="fill:blue"/>
<circle cx="2337" cy="1176" r="5" style="fill:blue"/>
<circle cx="898" cy="691" r="5" style="fill:blue"/>
<circle cx="7022" cy="1178" r="5" style="fill:blue"/>
<circle cx="6556" cy="842" r="5" style="fill:blue"/>
<circle cx="7161" cy="1552" r="5" style="fill:blue"/>
<circle cx="1737" cy="266" r="5" style="fill:blue"/>
<circle cx="5502" cy="950" r="5" style="fill:blue"/>
<circle cx="3580" cy="133" r="5" style="fill:blue"/>
<circle cx="7198" cy="1327" r="5" style="fill:blue"/>
<circle cx="1228" cy="1163" r="5" style="fill:blue"/>
<circle cx="251" cy="194" r="5" style="fill:blue"/>
<circle cx="8363" cy="671" r="5" style="fill:blue"/>
<circle cx="1392" cy="1378" r="5" style="fill:blue"/>
<circle cx="8876" cy="209" r="5" style="fill:blue"/>
<circle cx="5403" cy="990" r="5" style="fill:blue"/>
<circle cx="8523" cy="580" r="5" style="fill:blue"/>
<circle cx="2793" cy="486" r="5" style="fill:blue"/>
<circle cx="7258" cy="1420" r="5" style="fill:blue"/>
<circle cx="6444" cy="631" r="5" style="fill:blue"/>
<circle cx="4685" cy="1422" r="5" style="fill:blue"/>
<circle cx="8332" cy="683" r="5" style="fill:blue"/>
<circle cx="7085" cy="1446" r="5" style="fill:blue"/>
<circle cx="1285" cy="613" r="5" style="fill:blue"/>
<circle cx="8164" cy="1338" r="5" style="fill:blue"/>
<circle cx="5278" cy="163" r="5" style="fill:blue"/>
<circle cx="785" cy="452" r="5" style="fill:blue"/>
<circle cx="4883" cy="1507" r="5" style="fill:blue"/>
<circle cx="7897" cy="1230" r="5" style="fill:blue"/>
<circle cx="487" cy="235" r="5" style="fill:blue"/>
<circle cx="6773" cy="692" r="5" style="fill:blue"/>
<circle cx="1099" cy="258" r="5" style="fill:blue"/>
<circle cx="2265" cy="245" r="5" style="fill:blue"/>
<circle cx="1317" cy="883" r="5" style="fill:blue"/>
<circle cx="5975" cy="378" r="5" style="fill:blue"/>
<circle cx="3031" cy="1215" r="5" style="fill:blue"/>
<circle cx="5299" cy="21" r="5" style="fill:blue"/>
<circle cx="115" cy="411" r="5" style="fill:blue"/>
<circle cx="2131" cy="238" r="5" style="fill:blue"/>
<circle cx="4799" cy="233" r="5" style="fill:blue"/>
<circle cx="2040" cy="374" r="5" style="fill:blue"/>
<circle cx="8272" cy="1175" r="5" style="fill:blue"/>
<circle cx="4921" cy="990" r="5" style="fill:blue"/>
<circle cx="8756" cy="498" r="5" style="fill:blue"/>
<circle cx="6796" cy="1571" r="5" style="fill:blue"/>
<circle cx="977" cy="897" r="5" style="fill:blue"/>
<circle cx="1944" cy="889" r="5" style="fill:blue"/>
<circle cx="826" cy="1143" r="5" style="fill:blue"/>
<circle cx="7409" cy="1472" r="5" style="fill:blue"/>
<circle cx="2729" cy="279" r="5" style="fill:blue"/>
<circle cx="114" cy="1365" r="5" style="fill:blue"/>
<circle cx="1840" cy="283" r="5" style="fill:blue"/>
<circle cx="3134" cy="859" r="5" style="fill:blue"/>
<circle cx="9695" cy="894" r="5" style="fill:blue"/>
<circle cx="1623" cy="1057" r="5" style="fill:blue"/>
<circle cx="173" cy="1111" r="5" style="fill:blue"/>
<circle cx="1797" cy="459" r="5" style="fill:blue"/>
<circle cx="461" cy="956" r="5" style="fill:blue"/>
<circle cx="4880" cy="456" r="5" style="fill:blue"/>
<circle cx="4497" cy="602" r="5" style="fill:blue"/>
<circle cx="2818" cy="89" r="5" style="fill:blue"/>
<circle cx="889" cy="1044" r="5" style="fill:blue"/>
<circle cx="1740" cy="1276" r="5" style="fill:blue"/>
<circle cx="8514" cy="1510" r="5" style="fill:blue"/>
<circle cx="6881" cy="1432" r="5" style="fill:blue"/>
<circle cx="2941" cy="1147" r="5" style="fill:blue"/>
<circle cx="6268" cy="383" r="5" style="fill:blue"/>
<circle cx="9340" cy="1598" r="5" style="fill:blue"/>
<circle cx="4570" cy="666" r="5" style="fill:blue"/>
<circle cx="5404" cy="328" r="5" style="fill:blue"/>
<circle cx="6295" cy="13" r="5" style="fill:blue"/>
<circle cx="4476" cy="319" r="5" style="fill:blue"/>
<circle cx="1912" cy="940" r="5" style="fill:blue"/>
<circle cx="6706" cy="734" r="5" style="fill:blue"/>
<circle cx="8432" cy="707" r="5" style="fill:blue"/>
<circle cx="8406" cy="1066" r="5" style="fill:blue"/>
<circle cx="1588" cy="1526" r="5" style="fill:blue"/>
<circle cx="4249" cy="1616" r="5" style="fill:blue"/>
<circle cx="6741" cy="178" r="5" style="fill:blue"/>
<circle cx="7346" cy="613" r="5" style="fill:blue"/>
<circle cx="6114" cy="348" r="5" style="fill:blue"/>
<circle cx="3097" cy="292" r="5" style="fill:blue"/>
<circle cx="9579" cy="1231" r="5" style="fill:blue"/>
<circle cx="7116" cy="811" r="5" style="fill:blue"/>
<circle cx="7895" cy="1434" r="5" style="fill:blue"/>
<circle cx="8682" cy="1522" r="5" style="fill:blue"/>
<circle cx="9639" cy="116" r="5" style="fill:blue"/>
<circle cx="3314" cy="186" r="5" style="fill:blue"/>
<circle cx="5199" cy="220" r="5" style="fill:blue"/>
<circle cx="4758" cy="885" r="5" style="fill:blue"/>
<circle cx="1032" cy="598" r="5" style="fill:blue"/>
<circle cx="2556" cy="356" r="5" style="fill:blue"/>
<circle cx="1975" cy="1047" r="5" style="fill:blue"/>
<circle cx="1972" cy="425" r="5" style="fill:blue"/>
<circle cx="8349" cy="642" r="5" style="fill:blue"/>
<circle cx="3313" cy="1498" r="5" style="fill:blue"/>
<circle cx="6931" cy="55" r="5" style="fill:blue"/>
<circle cx="2324" cy="1620" r="5" style="fill:blue"/>
<circle cx="8922" cy="67" r="5" style="fill:blue"/>
<circle cx="8524" cy="1137" r="5" style="fill:blue"/>
<circle cx="5904" cy="251" r="5" style="fill:blue"/>
<circle cx="6185" cy="1263" r="5" style="fill:blue"/>
<circle cx="6508" cy="1298" r="5" style="fill:blue"/>
<circle cx="9397" cy="1164" r="5" style="fill:blue"/>
<circle cx="1264" cy="1194" r="5" style="fill:blue"/>
<circle cx="6617" cy="1369" r="5" style="fill:blue"/>
<circle cx="2268" cy="392" r="5" style="fill:blue"/>
<circle cx="5013" cy="825" r="5" style="fill:blue"/>
<circle cx="1630" cy="597" r="5" style="fill:blue"/>
<circle cx="7208" cy="1245" r="5" style="fill:blue"/>
<circle cx="6531" cy="908" r="5" style="fill:blue"/>
<circle cx="9708" cy="1507" r="5" style="fill:blue"/>
<circle cx="8939" cy="653" r="5" style="fill:blue"/>
<circle cx="9053" cy="222" r="5" style="fill:blue"/>
<circle cx="7137" cy="46" r="5" style="fill:blue"/>
<circle cx="8205" cy="746" r="5" style="fill:blue"/>
<circle cx="2336" cy="588" r="5" style="fill:blue"/>
<circle cx="7095" cy="1510" r="5" style="fill:blue"/>
<circle cx="4524" cy="1603" r="5" style="fill:blue"/>
<circle cx="6426" cy="748" r="5" style="fill:blue"/>
<circle cx="6824" cy="224" r="5" style="fill:blue"/>
<circle cx="1897" cy="43" r="5" style="fill:blue"/>
<circle cx="5961" cy="350" r="5" style="fill:blue"/>
<circle cx="3885" cy="707" r="5" style="fill:blue"/>
<circle cx="7532" cy="770" r="5" style="fill:blue"/>
<circle cx="1216" cy="943" r="5" style="fill:blue"/>
<circle cx="1370" cy="378" r="5" style="fill:blue"/>
<circle cx="2398" cy="244" r="5" style="fill:blue"/>
<circle cx="5568" cy="611" r="5" style="fill:blue"/>
<circle cx="6165" cy="1162" r="5" style="fill:blue"/>
<circle cx="2264" cy="758" r="5" style="fill:blue"/>
<circle cx="3603" cy="1609" r="5" style="fill:blue"/>
<circle cx="2272" cy="338" r="5" style="fill:blue"/>
<circle cx="9558" cy="138" r="5" style="fill:blue"/>
<circle cx="6993" cy="301" r="5" style="fill:blue"/>
<circle cx="7782" cy="588" r="5" style="fill:blue"/>
<circle cx="9191" cy="667" r="5" style="fill:blue"/>
<circle cx="6305" cy="420" r="5" style="fill:blue"/>
<circle cx="8320" cy="1265" r="5" style="fill:blue"/>
<circle cx="6824" cy="314" r="5" style="fill:blue"/>
<circle cx="3195" cy="934" r="5" style="fill:blue"/>
<circle cx="1370" cy="1013" r="5" style="fill:blue"/>
<circle cx="9055" cy="443" r="5" style="fill:blue"/>
<circle cx="667" cy="572" r="5" style="fill:blue"/>
<circle cx="7889" cy="930" r="5" style="fill:blue"/>
<circle cx="5003" cy="470" r="5" style="fill:blue"/>
<circle cx="687" cy="1584" r="5" style="fill:blue"/>
<circle cx="210" cy="262" r="5" style="fill:blue"/>
<circle cx="7455" cy="1051" r="5" style="fill:blue"/>
<circle cx="3935" cy="1615" r="5" style="fill:blue"/>
<circle cx="3172" cy="391" r="5" style="fill:blue"/>
<circle cx="5171" cy="548" r="5" style="fill:blue"/>
<circle cx="5353" cy="428" r="5" style="fill:blue"/>
<circle cx="1017" cy="883" r="5" style="fill:blue"/>
<circle cx="1641" cy="767" r="5" style="fill:blue"/>
<circle cx="5481" cy="7" r="5" style="fill:blue"/>
<circle cx="7861" cy="430" r="5" style="fill:blue"/>
<circle cx="7450" cy="1340" r="5" style="fill:blue"/>
<circle cx="2471" cy="952" r="5" style="fill:blue"/>
<circle cx="2643" cy="54" r="5" style="fill:blue"/>
<circle cx="183" cy="87" r="5" style="fill:blue"/>
<circle cx="9492" cy="674" r="5" style="fill:blue"/>
<circle cx="8208" cy="783" r="5" style="fill:blue"/>
<circle cx="4179" cy="1453" r="5" style="fill:blue"/>
<circle cx="1729" cy="48" r="5" style="fill:blue"/>
<circle cx="6988" cy="317" r="5" style="fill:blue"/>
<circle cx="5413" cy="333" r="5" style="fill:blue"/>
<circle cx="3619" cy="871" r="5" style="fill:blue"/>
<circle cx="3202" cy="1026" r="5" style="fill:blue"/>
<circle cx="3428" cy="1588" r="5" style="fill:blue"/>
<circle cx="708" cy="1354" r="5" style="fill:blue"/>
<circle cx="6897" cy="61" r="5" style="fill:blue"/>
<circle cx="6237" cy="571" r="5" style="fill:blue"/>
<circle cx="2594" cy="320" r="5" style="fill:blue"/>
<circle cx="1947" cy="821" r="5" style="fill:blue"/>
<circle cx="7580" cy="1130" r="5" style="fill:blue"/>
<circle cx="7489" cy="1164" r="5" style="fill:blue"/>
<circle cx="208" cy="699" r="5" style="fill:blue"/>
<circle cx="1671" cy="1118" r="5" style="fill:blue"/>
<circle cx="4211" cy="470" r="5" style="fill:blue"/>
<circle cx="2890" cy="964" r="5" style="fill:blue"/>
<circle cx="1768" cy="730" r="5" style="fill:blue"/>
<circle cx="9141" cy="1355" r="5" style="fill:blue"/>
<circle cx="3604" cy="939" r="5" style="fill:blue"/>
<circle cx="6907" cy="409" r="5" style="fill:blue"/>
<circle cx="4752" cy="701" r="5" style="fill:blue"/>
<circle cx="1619" cy="167" r="5" style="fill:blue"/>
<circle cx="2277" cy="354" r="5" style="fill:blue"/>
<circle cx="8788" cy="284" r="5" style="fill:blue"/>
<circle cx="1289" cy="329" r="5" style="fill:blue"/>
<circle cx="8365" cy="1290" r="5" style="fill:blue"/>
<circle cx="9247" cy="1562" r="5" style="fill:blue"/>
<circle cx="3938" cy="817" r="5" style="fill:blue"/>
<circle cx="2333" cy="1208" r="5" style="fill:blue"/>
<circle cx="221" cy="46" r="5" style="fill:blue"/>
<circle cx="227" cy="731" r="5" style="fill:blue"/>
<circle cx="4615" cy="953" r="5" style="fill:blue"/>
<circle cx="7807" cy="366" r="5" style="fill:blue"/>
<circle cx="4694" cy="998" r="5" style="fill:blue"/>
<circle cx="2393" cy="1333" r="5" style="fill:blue"/>
<circle cx="8025" cy="980" r="5" style="fill:blue"/>
<circle cx="3956" cy="890" r="5" style="fill:blue"/>
<circle cx="4484" cy="631" r="5" style="fill:blue"/>
<circle cx="1546" cy="765" r="5" style="fill:blue"/>
<circle cx="8645" cy="858" r="5" style="fill:blue"/>
<circle cx="8980" cy="920" r="5" style="fill:blue"/>
<circle cx="2300" cy="505" r="5" style="fill:blue"/>
<circle cx="9093" cy="745" r="5" style="fill:blue"/>
<circle cx="6375" cy="696" r="5" style="fill:blue"/>
<circle cx="8466" cy="602" r="5" style="fill:blue"/>
<circle cx="7272" cy="262" r="5" style="fill:blue"/>
<circle cx="3014" cy="1609" r="5" style="fill:blue"/>
<circle cx="4810" cy="212" r="5" style="fill:blue"/>
<circle cx="7444" cy="1162" r="5" style="fill:blue"/>
<circle cx="1356" cy="874" r="5" style="fill:blue"/>
<circle cx="6394" cy="395" r="5" style="fill:blue"/>
<circle cx="7255" cy="276" r="5" style="fill:blue"/>
<circle cx="6231" cy="321" r="5" style="fill:blue"/>
<circle cx="568" cy="134" r="5" style="fill:blue"/>
<circle cx="1593" cy="279" r="5" style="fill:blue"/>
<circle cx="1336" cy="244" r="5" style="fill:blue"/>
<circle cx="9198" cy="150" r="5" style="fill:blue"/>
<circle cx="8925" cy="480" r="5" style="fill:blue"/>
<circle cx="5733" cy="1308" r="5" style="fill:blue"/>
<circle cx="1597" cy="618" r="5" style="fill:blue"/>
<circle cx="9149" cy="756" r="5" style="fill:blue"/>
<circle cx="2249" cy="268" r="5" style="fill:blue"/>
<circle cx="5419" cy="199" r="5" style="fill:blue"/>
<circle cx="8211" cy="1163" r="5" style="fill:blue"/>
<circle cx="4066" cy="1450" r="5" style="fill:blue"/>
<circle cx="2138" cy="838" r="5" style="fill:blue"/>
<circle cx="5352" cy="298" r="5" style="fill:blue"/>
<circle cx="9185" cy="458" r="5" style="fill:blue"/>
<circle cx="4526" cy="17" r="5" style="fill:blue"/>
<circle cx="4838" cy="542" r="5" style="fill:blue"/>
<circle cx="6388" cy="1462" r="5" style="fill:blue"/>
<circle cx="2820" cy="1329" r="5" style="fill:blue"/>
<circle cx="6709" cy="1348" r="5" style="fill:blue"/>
<circle cx="9021" cy="1576" r="5" style="fill:blue"/>
<circle cx="5566" cy="404" r="5" style="fill:blue"/>
<circle cx="6749" cy="1514" r="5" style="fill:blue"/>
<circle cx="8035" cy="1040" r="5" style="fill:blue"/>
<circle cx="2106" cy="39" r="5" style="fill:blue"/>
<circle cx="6810" cy="66" r="5" style="fill:blue"/>
<circle cx="7877" cy="1034" r="5" style="fill:blue"/>
<circle cx="2949" cy="1598" r="5" style="fill:blue"/>
<circle cx="192" cy="424" r="5" style="fill:blue"/>
<circle cx="7592" cy="81" r="5" style="fill:blue"/>
<circle cx="2768" cy="1002" r="5" style="fill:blue"/>
<circle cx="9472" cy="1005" r="5" style="fill:blue"/>
<circle cx="3008" cy="119" r="5" style="fill:blue"/>
<circle cx="6138" cy="1198" r="5" style="fill:blue"/>
<circle cx="3122" cy="1136" r="5" style="fill:blue"/>
<circle cx="3902" cy="76" r="5" style="fill:blue"/>
<circle cx="1048" cy="928" r="5" style="fill:blue"/>
<circle cx="2413" cy="23" r="5" style="fill:blue"/>
<circle cx="8025" cy="1294" r="5" style="fill:blue"/>
<circle cx="7226" cy="770" r="5" style="fill:blue"/>
<circle cx="6946" cy="1099" r="5" style="fill:blue"/>
<circle cx="437" cy="505" r="5" style="fill:blue"/>
<circle cx="7723" cy="57" r="5" style="fill:blue"/>
<circle cx="9083" cy="589" r="5" style="fill:blue"/>
<circle cx="9696" cy="505" r="5" style="fill:blue"/>
<circle cx="7114" cy="128" r="5" style="fill:blue"/>
<circle cx="4382" cy="526" r="5" style="fill:blue"/>
<circle cx="8648" cy="133" r="5" style="fill:blue"/>
<circle cx="8915" cy="716" r="5" style="fill:blue"/>
<circle cx="8848" cy="603" r="5" style="fill:blue"/>
<circle cx="6766" cy="852" r="5" style="fill:blue"/>
<circle cx="9499" cy="958" r="5" style="fill:blue"/>
<circle cx="9081" cy="309" r="5" style="fill:blue"/>
<circle cx="3232" cy="1529" r="5" style="fill:blue"/>
<circle cx="9612" cy="948" r="5" style="fill:blue"/>
<circle cx="3969" cy="619" r="5" style="fill:blue"/>
<circle cx="6327" cy="1411" r="5" style="fill:blue"/>
<circle cx="3681" cy="1472" r="5" style="fill:blue"/>
<circle cx="2152" cy="907" r="5" style="fill:blue"/>
<circle cx="3837" cy="42" r="5" style="fill:blue"/>
<circle cx="8918" cy="599" r="5" style="fill:blue"/>
<circle cx="98" cy="1433" r="5" style="fill:blue"/>
<circle cx="67" cy="333" r="5" style="fill:blue"/>
<circle cx="6071" cy="50" r="5" style="fill:blue"/>
<circle cx="2331" cy="686" r="5" style="fill:blue"/>
<circle cx="7223" cy="539" r="5" style="fill:blue"/>
<circle cx="2849" cy="329" r="5" style="fill:blue"/>
<circle cx="2473" cy="158" r="5" style="fill:blue"/>
<circle cx="7987" cy="1215" r="5" style="fill:blue"/>
<circle cx="3927" cy="1476" r="5" style="fill:blue"/>
<circle cx="5604" cy="993" r="5" style="fill:blue"/>
<circle cx="3054" cy="845" r="5" style="fill:blue"/>
<circle cx="5270" cy="1425" r="5" style="fill:blue"/>
<circle cx="6560" cy="703" r="5" style="fill:blue"/>
<circle cx="5648" cy="765" r="5" style="fill:blue"/>
<circle cx="1851" cy="839" r="5" style="fill:blue"/>
<circle cx="3404" cy="529" r="5" style="fill:blue"/>
<circle cx="5136" cy="119" r="5" style="fill:blue"/>
<circle cx="7054" cy="458" r="5" style="fill:blue"/>
<circle cx="2816" cy="206" r="5" style="fill:blue"/>
<circle cx="7034" cy="513" r="5" style="fill:blue"/>
<circle cx="3840" cy="822" r="5" style="fill:blue"/>
<circle cx="442" cy="1611" r="5" style="fill:blue"/>
<circle cx="532" cy="188" r="5" style="fill:blue"/>
<circle cx="8618" cy="35" r="5" style="fill:blue"/>
<circle cx="6693" cy="1520" r="5" style="fill:blue"/>
<circle cx="6225" cy="546" r="5" style="fill:blue"/>
<circle cx="2714" cy="682" r="5" style="fill:blue"/>
<circle cx="5726" cy="149" r="5" style="fill:blue"/>
<circle cx="3799" cy="284" r="5" style="fill:blue"/>
<circle cx="9442" cy="1181" r="5" style="fill:blue"/>
<circle cx="3049" cy="812" r="5" style="fill:blue"/>
<circle cx="2202" cy="447" r="5" style="fill:blue"/>
<circle cx="8266" cy="426" r="5" style="fill:blue"/>
<circle cx="844" cy="1024" r="5" style="fill:blue"/>
<circle cx="1038" cy="783" r="5" style="fill:blue"/>
<circle cx="9028" cy="235" r="5" style="fill:blue"/>
<circle cx="1539" cy="279" r="5" style="fill:blue"/>
<circle cx="7577" cy="1548" r="5" style="fill:blue"/>
<circle cx="7808" cy="49" r="5" style="fill:blue"/>
<circle cx="2217" cy="1509" r="5" style="fill:blue"/>
<circle cx="4054" cy="938" r="5" style="fill:blue"/>
<circle cx="872" cy="1572" r="5" style="fill:blue"/>
<circle cx="1615" cy="150" r="5" style="fill:blue"/>
<circle cx="2026" cy="39" r="5" style="fill:blue"/>
<circle cx="2002" cy="53" r="5" style="fill:blue"/>
<circle cx="2819" cy="1303" r="5" style="fill:blue"/>
<circle cx="4732" cy="455" r="5" style="fill:blue"/>
<circle cx="2854" cy="913" r="5" style="fill:blue"/>
<circle cx="3433" cy="13" r="5" style="fill:blue"/>
<circle cx="1711" cy="1577" r="5" style="fill:blue"/>
<circle cx="6932" cy="128" r="5" style="fill:blue"/>
<circle cx="8179" cy="942" r="5" style="fill:blue"/>
<circle cx="8871" cy="124" r="5" style="fill:blue"/>
<circle cx="829" cy="689" r="5" style="fill:blue"/>
<circle cx="5873" cy="437" r="5" style="fill:blue"/>
<circle cx="8771" cy="574" r="5" style="fill:blue"/>
<circle cx="5122" cy="1413" r="5" style="fill:blue"/>
<circle cx="7661" cy="1420" r="5" style="fill:blue"/>
<circle cx="1468" cy="984" r="5" style="fill:blue"/>
<circle cx="8888" cy="1164" r="5" style="fill:blue"/>
<circle cx="9541" cy="529" r="5" style="fill:blue"/>
<circle cx="8171" cy="800" r="5" style="fill:blue"/>
<circle cx="8554" cy="1523" r="5" style="fill:blue"/>
<circle cx="8700" cy="290" r="5" style="fill:blue"/>
<circle cx="6847" cy="326" r="5" style="fill:blue"/>
<circle cx="6048" cy="917" r="5" style="fill:blue"/>
<circle cx="1054" cy="720" r="5" style="fill:blue"/>
<circle cx="2151" cy="1567" r="5" style="fill:blue"/>
<circle cx="1442" cy="457" r="5" style="fill:blue"/>
<circle cx="5366" cy="804" r="5" style="fill:blue"/>
<circle cx="901" cy="321" r="5" style="fill:blue"/>
<circle cx="3649" cy="743" r="5" style="fill:blue"/>
<circle cx="2057" cy="838" r="5" style="fill:blue"/>
<circle cx="5453" cy="419" r="5" style="fill:blue"/>
<circle cx="1750" cy="349" r="5" style="fill:blue"/>
<circle cx="1388" cy="1034" r="5" style="fill:blue"/>
<circle cx="6861" cy="308" r="5" style="fill:blue"/>
<circle cx="8697" cy="204" r="5" style="fill:blue"/>
<circle cx="6486" cy="936" r="5" style="fill:blue"/>
<circle cx="4797" cy="259" r="5" style="fill:blue"/>
<circle cx="1789" cy="658" r="5" style="fill:blue"/>
<circle cx="9443" cy="1335" r="5" style="fill:blue"/>
<circle cx="9621" cy="1253" r="5" style="fill:blue"/>
<circle cx="3007" cy="319" r="5" style="fill:blue"/>
<circle cx="8138" cy="230" r="5" style="fill:blue"/>
<circle cx="6049" cy="467" r="5" style="fill:blue"/>
<circle cx="743" cy="630" r="5" style="fill:blue"/>
<circle cx="7905" cy="488" r="5" style="fill:blue"/>
<circle cx="1771" cy="1593" r="5" style="fill:blue"/>
<circle cx="8199" cy="564" r="5" style="fill:blue"/>
<circle cx="6162" cy="1600" r="5" style="fill:blue"/>
<circle cx="1888" cy="327" r="5" style="fill:blue"/>
<circle cx="4553" cy="1403" r="5" style="fill:blue"/>
<circle cx="250" cy="1386" r="5" style="fill:blue"/>
<circle cx="6357" cy="858" r="5" style="fill:blue"/>
<circle cx="4219" cy="380" r="5" style="fill:blue"/>
<circle cx="727" cy="258" r="5" style="fill:blue"/>
<circle cx="7672" cy="769" r="5" style="fill:blue"/>
<circle cx="6422" cy="1251" r="5" style="fill:blue"/>
<circle cx="9096" cy="627" r="5" style="fill:blue"/>
<circle cx="1702" cy="683" r="5" style="fill:blue"/>
<circle cx="8689" cy="633" r="5" style="fill:blue"/>
<circle cx="5126" cy="951" r="5" style="fill:blue"/>
<circle cx="8160" cy="820" r="5" style="fill:blue"/>
<circle cx="7853" cy="865" r="5" style="fill:blue"/>
<circle cx="4343" cy="51" r="5" style="fill:blue"/>
<circle cx="5131" cy="974" r="5" style="fill:blue"/>
<circle cx="4263" cy="692" r="5" style="fill:blue"/>
<circle cx="7470" cy="348" r="5" style="fill:blue"/>
<circle cx="9401" cy="82" r="5" style="fill:blue"/>
<circle cx="8275" cy="1503" r="5" style="fill:blue"/>
<circle cx="9167" cy="1406" r="5" style="fill:blue"/>
<circle cx="6937" cy="115" r="5" style="fill:blue"/>
<circle cx="2773" cy="277" r="5" style="fill:blue"/>
<circle cx="8598" cy="149" r="5" style="fill:blue"/>
<circle cx="8494" cy="462" r="5" style="fill:blue"/>
<circle cx="5954" cy="691" r="5" style="fill:blue"/>
<circle cx="3405" cy="834" r="5" style="fill:blue"/>
<circle cx="2140" cy="1319" r="5" style="fill:blue"/>
<circle cx="6691" cy="1304" r="5" style="fill:blue"/>
<circle cx="2447" cy="446" r="5" style="fill:blue"/>
<circle cx="2277" cy="479" r="5" style="fill:blue"/>
<circle cx="4826" cy="414" r="5" style="fill:blue"/>
<circle cx="4099" cy="1462" r="5" style="fill:blue"/>
<circle cx="6888" cy="1441" r="5" style="fill:blue"/>
<circle cx="1990" cy="744" r="5" style="fill:blue"/>
<circle cx="2014" cy="1316" r="5" style="fill:blue"/>
<circle cx="4657" cy="1572" r="5" style="fill:blue"/>
<circle cx="8774" cy="763" r="5" style="fill:blue"/>
<circle cx="1269" cy="1449" r="5" style="fill:blue"/>
<circle cx="3883" cy="411" r="5" style="fill:blue"/>
<circle cx="3866" cy="87" r="5" style="fill:blue"/>
<circle cx="7548" cy="1170" r="5" style="fill:blue"/>
<circle cx="878" cy="1186" r="5" style="fill:blue"/>
<circle cx="3410" cy="343" r="5" style="fill:blue"/>
<circle cx="7591" cy="683" r="5" style="fill:blue"/>
<circle cx="2880" cy="29" r="5" style="fill:blue"/>
<circle cx="8327" cy="266" r="5" style="fill:blue"/>
<circle cx="3201" cy="537" r="5" style="fill:blue"/>
<circle cx="2605" cy="1164" r="5" style="fill:blue"/>
<circle cx="8980" cy="1625" r="5" style="fill:blue"/>
<circle cx="185" cy="617" r="5" style="fill:blue"/>
<circle cx="1294" cy="450" r="5" style="fill:blue"/>
<circle cx="8854" cy="185" r="5" style="fill:blue"/>
<circle cx="9738" cy="234" r="5" style="fill:blue"/>
<circle cx="9562" cy="285" r="5" style="fill:blue"/>
<circle cx="6359" cy="201" r="5" style="fill:blue"/>
<circle cx="6183" cy="1193" r="5" style="fill:blue"/>
<circle cx="7460" cy="1447" r="5" style="fill:blue"/>
<circle cx="4122" cy="1541" r="5" style="fill:blue"/>
<circle cx="9210" cy="467" r="5" style="fill:blue"/>
<circle cx="3248" cy="20" r="18" style="stroke-width:5;fill:gray;fill-opacity:0.3"/>
<circle cx="3248" cy="60" r="18" style="stroke-width:5;fill:gray;fill-opacity:0.3"/>
<circle cx="3248" cy="100" r="18" style="stroke-width:5;fill:gray;fill-opacity:0.3"/>
<circle cx="3248" cy="140" r="18" style="stroke-width:5;fill:gray;fill-opacity:0.3"/>
<circle cx="3248" cy="180" r="18" style="stroke-width:5;fill:gray;fill-opacity:0.3"/>
<circle cx="3248" cy="220" r="18" style="stroke-width:5;fill:gray;fill-opacity:0.3"/>
<circle cx="3248" cy="260" r="18" style="stroke-width:5;fill:gray;fill-opacity:0.3"/>
<circle cx="3248" cy="300" r="18" style="stroke-width:5;fill:gray;fill-opacity:0.3"/>
<circle cx="3248" cy="340" r="18" style="stroke-width:5;fill:gray;fill-opacity:0.3"/>
<circle cx="3248" cy="380" r="18" style="stroke-width:5;fill:gray;fill-opacity:0.3"/>
<circle cx="3248" cy="420" r="18" style="stroke-width:5;fill:gray;fill-opacity:0.3"/>
<circle cx="3248" cy="460" r="18" style="stroke-width:5;fill:gray;fill-opacity:0.3"/>
<circle cx="3248" cy="500" r="18" style="stroke-width:5;fill:gray;fill-opacity:0.3"/>
<circle cx="3248" cy="540" r="18" style="stroke-width:5;fill:gray;fill-opacity:0.3"/>
<circle cx="3248" cy="580" r="18" style="stroke-width:5;fill:gray;fill-opacity:0.3"/>
<circle cx="3248" cy="620" r="18" style="stroke-width:5;fill:gray;fill-opacity:0.3"/>
<circle cx="3248" cy="660" r="18" style="stroke-width:5;fill:gray;fill-opacity:0.3"/>
<circle cx="3248" cy="700" r="18" style="stroke-width:5;fill:gray;fill-opacity:0.3"/>
<circle cx="3248" cy="740" r="18" style="stroke-width:5;fill:gray;fill-opacity:0.3"/>
<circle cx="3248" cy="780" r="18" style="stroke-width:5;fill:gray;fill-opacity:0.3"/>
<circle cx="3248" cy="820" r="18" style="stroke-width:5;fill:gray;fill-opacity:0.3"/>
<circle cx="3248" cy="860" r="18" style="stroke-width:5;fill:gray;fill-opacity:0.3"/>
<circle cx="3248" cy="900" r="18" style="stroke-width:5;fill:gray;fill-opacity:0.3"/>
<circle cx="3248" cy="940" r="18" style="stroke-width:5;fill:gray;fill-opacity:0.3"/>
<circle cx="3248" cy="980" r="18" style="stroke-width:5;fill:gray;fill-opacity:0.3"/>
<circle cx="5630" cy="20" r="18" style="stroke-width:5;fill:gray;fill-opacity:0.3"/>
<circle cx="5630" cy="60" r="18" style="stroke-width:5;fill:gray;fill-opacity:0.3"/>
<circle cx="5630" cy="100" r="18" style="stroke-width:5;fill:gray;fill-opacity:0.3"/>
<circle cx="5630" cy="140" r="18" style="stroke-width:5;fill:gray;fill-opacity:0.3"/>
<circle cx="5630" cy="180" r="18" style="stroke-width:5;fill:gray;fill-opacity:0.3"/>
<circle cx="5630" cy="220" r="18" style="stroke-width:5;fill:gray;fill-opacity:0.3"/>
<circle cx="5630" cy="260" r="18" style="stroke-width:5;fill:gray;fill-opacity:0.3"/>
<circle cx="5630" cy="300" r="18" style="stroke-width:5;fill:gray;fill-opacity:0.3"/>
<circle cx="5630" cy="340" r="18" style="stroke-width:5;fill:gray;fill-opacity:0.3"/>
<circle cx="5630" cy="380" r="18" style="stroke-width:5;fill:gray;fill-opacity:0.3"/>
<circle cx="5630" cy="420" r="18" style="stroke-width:5;fill:gray;fill-opacity:0.3"/>
<circle cx="5630" cy="460" r="18" style="stroke-width:5;fill:gray;fill-opacity:0.3"/>
<circle cx="5630" cy="500" r="18" style="stroke-width:5;fill:gray;fill-opacity:0.3"/>
<circle cx="5630" cy="540" r="18" style="stroke-width:5;fill:gray;fill-opacity:0.3"/>
<circle cx="5630" cy="580" r="18" style="stroke-width:5;fill:gray;fill-opacity:0.3"/>
<circle cx="5630" cy="620" r="18" style="stroke-width:5;fill:gray;fill-opacity:0.3"/>
<circle cx="5630" cy="660" r="18" style="stroke-width:5;fill:gray;fill-opacity:0.3"/>
<circle cx="5630" cy="700" r="18" style="stroke-width:5;fill:gray;fill-opacity:0.3"/>
<circle cx="5630" cy="740" r="18" style="stroke-width:5;fill:gray;fill-opacity:0.3"/>
<circle cx="5630" cy="780" r="18" style="stroke-width:5;fill:gray;fill-opacity:0.3"/>
<circle cx="5630" cy="820" r="18" style="stroke-width:5;fill:gray;fill-opacity:0.3"/>
<circle cx="5630" cy="860" r="18" style="stroke-width:5;fill:gray;fill-opacity:0.3"/>
<circle cx="5630" cy="900" r="18" style="stroke-width:5;fill:gray;fill-opacity:0.3"/>
<circle cx="5630" cy="940" r="18" style="stroke-width:5;fill:gray;fill-opacity:0.3"/>
<circle cx="5630" cy="980" r="18" style="stroke-width:5;fill:gray;fill-opacity:0.3"/>
</svg>