<svg viewBox="0 0 8342 4137" xmlns="http://www.w3.org/2000/svg">
<rect height="572" style="stroke:pink;stroke-width:10;fill:gray;fill-opacity:0.1;stroke-opacity:0.9" width="718" x="3888" y="3243"/>
<circle cx="1518" cy="1128" r="5" style="fill:blue"/>
<circle cx="127" cy="1811" r="5" style="fill:blue"/>
<circle cx="6897" cy="4049" r="5" style="fill:blue"/>
<circle cx="571" cy="1911" r="5" style="fill:blue"/>
<circle cx="7326" cy="3827" r="5" style="fill:blue"/>
<circle cx="1117" cy="1241" r="5" style="fill:blue"/>
<circle cx="1492" cy="1182" r="5" style="fill:blue"/>
<circle cx="3913" cy="2866" r="5" style="fill:blue"/>
<circle cx="5001" cy="3207" r="5" style="fill:blue"/>
<circle cx="5824" cy="2717" r="5" style="fill:blue"/>
<circle cx="5101" cy="2635" r="5" style="fill:blue"/>
<circle cx="7380" cy="140" r="5" style="fill:blue"/>
<circle cx="5633" cy="681" r="5" style="fill:blue"/>
<circle cx="237" cy="2367" r="5" style="fill:blue"/>
<circle cx="1039" cy="1039" r="5" style="fill:blue"/>
<circle cx="7217" cy="2439" r="5" style="fill:blue"/>
<circle cx="418" cy="246" r="5" style="fill:blue"/>
<circle cx="1827" cy="3165" r="5" style="fill:blue"/>
<circle cx="49" cy="3202" r="5" style="fill:blue"/>
<circle cx="5982" cy="2083" r="5" style="fill:blue"/>
<circle cx="2967" cy="2751" r="5" style="fill:blue"/>
<circle cx="3911" cy="648" r="5" style="fill:blue"/>
<circle cx="7662" cy="1100" r="5" style="fill:blue"/>
<circle cx="3212" cy="2580" r="5" style="fill:blue"/>
<circle cx="7927" cy="2261" r="5" style="fill:blue"/>
<circle cx="3832" cy="248" r="5" style="fill:blue"/>
<circle cx="2613" cy="593" r="5" style="fill:blue"/>
<circle cx="6047" cy="2581" r="5" style="fill:blue"/>
<circle cx="7815" cy="3062" r="5" style="fill:blue"/>
<circle cx="1174" cy="1017" r="5" style="fill:blue"/>
<circle cx="5950" cy="4035" r="5" style="fill:blue"/>
<circle cx="1280" cy="2279" r="5" style="fill:blue"/>
<circle cx="6064" cy="3232" r="5" style="fill:blue"/>
<circle cx="5807" cy="1098" r="5" style="fill:blue"/>
<circle cx="2811" cy="960" r="5" style="fill:blue"/>
<circle cx="1528" cy="54" r="5" style="fill:blue"/>
<circle cx="3372" cy="2091" r="5" style="fill:blue"/>
<circle cx="4246" cy="2262" r="5" style="fill:blue"/>
<circle cx="553" cy="1414" r="5" style="fill:blue"/>
<circle cx="513" cy="318" r="5" style="fill:blue"/>
<circle cx="3509" cy="2228" r="5" style="fill:blue"/>
<circle cx="6656" cy="2350" r="5" style="fill:blue"/>
<circle cx="5580" cy="1034" r="5" style="fill:blue"/>
<circle cx="1555" cy="1250" r="5" style="fill:blue"/>
<circle cx="1828" cy="1460" r="5" style="fill:blue"/>
<circle cx="6081" cy="2530" r="5" style="fill:blue"/>
<circle cx="5344" cy="941" r="5" style="fill:blue"/>
<circle cx="4726" cy="1851" r="5" style="fill:blue"/>
<circle cx="6202" cy="3878" r="5" style="fill:blue"/>
<circle cx="4698" cy="1372" r="5" style="fill:blue"/>
<circle cx="8124" cy="246" r="5" style="fill:blue"/>
<circle cx="6594" cy="3015" r="5" style="fill:blue"/>
<circle cx="6145" cy="1287" r="5" style="fill:blue"/>
<circle cx="4742" cy="1324" r="5" style="fill:blue"/>
<circle cx="2496" cy="1181" r="5" style="fill:blue"/>
<circle cx="3005" cy="37" r="5" style="fill:blue"/>
<circle cx="1829" cy="428" r="5" style="fill:blue"/>
<circle cx="4154" cy="3211" r="5" style="fill:blue"/>
<circle cx="5484" cy="4038" r="5" style="fill:blue"/>
<circle cx="4452" cy="2593" r="5" style="fill:blue"/>
<circle cx="6012" cy="1289" r="5" style="fill:blue"/>
<circle cx="2450" cy="475" r="5" style="fill:blue"/>
<circle cx="1718" cy="1600" r="5" style="fill:blue"/>
<circle cx="4591" cy="284" r="5" style="fill:blue"/>
<circle cx="3781" cy="557" r="5" style="fill:blue"/>
<circle cx="6473" cy="3929" r="5" style="fill:blue"/>
<circle cx="6199" cy="3117" r="5" style="fill:blue"/>
<circle cx="4818" cy="605" r="5" style="fill:blue"/>
<circle cx="6229" cy="3114" r="5" style="fill:blue"/>
<circle cx="6032" cy="2378" r="5" style="fill:blue"/>
<circle cx="5689" cy="692" r="5" style="fill:blue"/>
<circle cx="3141" cy="3993" r="5" style="fill:blue"/>
<circle cx="6072" cy="2375" r="5" style="fill:blue"/>
<circle cx="655" cy="1582" r="5" style="fill:blue"/>
<circle cx="3403" cy="2717" r="5" style="fill:blue"/>
<circle cx="2659" cy="1482" r="5" style="fill:blue"/>
<circle cx="4672" cy="708" r="5" style="fill:blue"/>
<circle cx="806" cy="2027" r="5" style="fill:blue"/>
<circle cx="2591" cy="2554" r="5" style="fill:blue"/>
<circle cx="987" cy="4061" r="5" style="fill:blue"/>
<circle cx="7504" cy="956" r="5" style="fill:blue"/>
<circle cx="1591" cy="3093" r="5" style="fill:blue"/>
<circle cx="5117" cy="3843" r="5" style="fill:blue"/>
<circle cx="4067" cy="2882" r="5" style="fill:blue"/>
<circle cx="5170" cy="1049" r="5" style="fill:blue"/>
<circle cx="31" cy="1000" r="5" style="fill:blue"/>
<circle cx="1975" cy="1287" r="5" style="fill:blue"/>
<circle cx="874" cy="1055" r="5" style="fill:blue"/>
<circle cx="447" cy="2105" r="5" style="fill:blue"/>
<circle cx="4726" cy="2644" r="5" style="fill:blue"/>
<circle cx="6120" cy="1953" r="5" style="fill:blue"/>
<circle cx="8197" cy="2421" r="5" style="fill:blue"/>
<circle cx="7676" cy="2054" r="5" style="fill:blue"/>
<circle cx="5323" cy="281" r="5" style="fill:blue"/>
<circle cx="2385" cy="2069" r="5" style="fill:blue"/>
<circle cx="5785" cy="2138" r="5" style="fill:blue"/>
<circle cx="3698" cy="802" r="5" style="fill:blue"/>
<circle cx="2696" cy="2939" r="5" style="fill:blue"/>
<circle cx="3921" cy="251" r="5" style="fill:blue"/>
<circle cx="5075" cy="3900" r="5" style="fill:blue"/>
<circle cx="5589" cy="2975" r="5" style="fill:blue"/>
<circle cx="6951" cy="4121" r="5" style="fill:blue"/>
<circle cx="7084" cy="3225" r="5" style="fill:blue"/>
<circle cx="6438" cy="832" r="5" style="fill:blue"/>
<circle cx="4652" cy="623" r="5" style="fill:blue"/>
<circle cx="7445" cy="1081" r="5" style="fill:blue"/>
<circle cx="6557" cy="2137" r="5" style="fill:blue"/>
<circle cx="419" cy="318" r="5" style="fill:blue"/>
<circle cx="6171" cy="3228" r="5" style="fill:blue"/>
<circle cx="8104" cy="2500" r="5" style="fill:blue"/>
<circle cx="1076" cy="1496" r="5" style="fill:blue"/>
<circle cx="464" cy="1438" r="5" style="fill:blue"/>
<circle cx="7939" cy="289" r="5" style="fill:blue"/>
<circle cx="6864" cy="1437" r="5" style="fill:blue"/>
<circle cx="8265" cy="1025" r="5" style="fill:blue"/>
<circle cx="936" cy="579" r="5" style="fill:blue"/>
<circle cx="1504" cy="396" r="5" style="fill:blue"/>
<circle cx="5109" cy="2331" r="5" style="fill:blue"/>
<circle cx="2747" cy="114" r="5" style="fill:blue"/>
<circle cx="2784" cy="3922" r="5" style="fill:blue"/>
<circle cx="4094" cy="980" r="5" style="fill:blue"/>
<circle cx="5928" cy="470" r="5" style="fill:blue"/>
<circle cx="2321" cy="729" r="5" style="fill:blue"/>
<circle cx="2892" cy="106" r="5" style="fill:blue"/>
<circle cx="4938" cy="2267" r="5" style="fill:blue"/>
<circle cx="5273" cy="1480" r="5" style="fill:blue"/>
<circle cx="1493" cy="1494" r="5" style="fill:blue"/>
<circle cx="4381" cy="1341" r="5" style="fill:blue"/>
<circle cx="6840" cy="451" r="5" style="fill:blue"/>
<circle cx="3614" cy="342" r="5" style="fill:blue"/>
<circle cx="3589" cy="1316" r="5" style="fill:blue"/>
<circle cx="1958" cy="1433" r="5" style="fill:blue"/>
<circle cx="7656" cy="263" r="5" style="fill:blue"/>
<circle cx="4969" cy="1542" r="5" style="fill:blue"/>
<circle cx="6477" cy="2360" r="5" style="fill:blue"/>
<circle cx="2550" cy="383" r="5" style="fill:blue"/>
<circle cx="8221" cy="2939" r="5" style="fill:blue"/>
<circle cx="1764" cy="1017" r="5" style="fill:blue"/>
<circle cx="2168" cy="3127" r="5" style="fill:blue"/>
<circle cx="6400" cy="2789" r="5" style="fill:blue"/>
<circle cx="94" cy="2605" r="5" style="fill:blue"/>
<circle cx="4812" cy="457" r="5" style="fill:blue"/>
<circle cx="2932" cy="2883" r="5" style="fill:blue"/>
<circle cx="8003" cy="3142" r="5" style="fill:blue"/>
<circle cx="7813" cy="2891" r="5" style="fill:blue"/>
<circle cx="2984" cy="1570" r="5" style="fill:blue"/>
<circle cx="6234" cy="879" r="5" style="fill:blue"/>
<circle cx="762" cy="2992" r="5" style="fill:blue"/>
<circle cx="498" cy="1936" r="5" style="fill:blue"/>
<circle cx="6257" cy="2594" r="5" style="fill:blue"/>
<circle cx="5198" cy="3846" r="5" style="fill:blue"/>
<circle cx="373" cy="2596" r="5" style="fill:blue"/>
<circle cx="1245" cy="1583" r="5" style="fill:blue"/>
<circle cx="377" cy="4039" r="5" style="fill:blue"/>
<circle cx="2589" cy="60" r="5" style="fill:blue"/>
<circle cx="2308" cy="2872" r="5" style="fill:blue"/>
<circle cx="3011" cy="2852" r="5" style="fill:blue"/>
<circle cx="5311" cy="3191" r="5" style="fill:blue"/>
<circle cx="2269" cy="857" r="5" style="fill:blue"/>
<circle cx="1667" cy="2133" r="5" style="fill:blue"/>
<circle cx="5220" cy="3884" r="5" style="fill:blue"/>
<circle cx="5543" cy="970" r="5" style="fill:blue"/>
<circle cx="7345" cy="1286" r="5" style="fill:blue"/>
<circle cx="7639" cy="2345" r="5" style="fill:blue"/>
<circle cx="5941" cy="1959" r="5" style="fill:blue"/>
<circle cx="3254" cy="3857" r="5" style="fill:blue"/>
<circle cx="2133" cy="3230" r="5" style="fill:blue"/>
<circle cx="2753" cy="548" r="5" style="fill:blue"/>
<circle cx="2937" cy="1729" r="5" style="fill:blue"/>
<circle cx="102" cy="1748" r="5" style="fill:blue"/>
<circle cx="7046" cy="2736" r="5" style="fill:blue"/>
<circle cx="429" cy="775" r="5" style="fill:blue"/>
<circle cx="6322" cy="472" r="5" style="fill:blue"/>
<circle cx="7072" cy="3029" r="5" style="fill:blue"/>
<circle cx="236" cy="3930" r="5" style="fill:blue"/>
<circle cx="160" cy="1312" r="5" style="fill:blue"/>
<circle cx="6490" cy="2363" r="5" style="fill:blue"/>
<circle cx="1337" cy="1710" r="5" style="fill:blue"/>
<circle cx="7565" cy="663" r="5" style="fill:blue"/>
<circle cx="7149" cy="4040" r="5" style="fill:blue"/>
<circle cx="6802" cy="250" r="5" style="fill:blue"/>
<circle cx="284" cy="373" r="5" style="fill:blue"/>
<circle cx="4243" cy="2674" r="5" style="fill:blue"/>
<circle cx="4664" cy="1332" r="5" style="fill:blue"/>
<circle cx="441" cy="4015" r="5" style="fill:blue"/>
<circle cx="7247" cy="3004" r="5" style="fill:blue"/>
<circle cx="4105" cy="3938" r="5" style="fill:blue"/>
<circle cx="5443" cy="1320" r="5" style="fill:blue"/>
<circle cx="4395" cy="1593" r="5" style="fill:blue"/>
<circle cx="7921" cy="1944" r="5" style="fill:blue"/>
<circle cx="1852" cy="791" r="5" style="fill:blue"/>
<circle cx="1015" cy="3908" r="5" style="fill:blue"/>
<circle cx="2333" cy="997" r="5" style="fill:blue"/>
<circle cx="3722" cy="21" r="5" style="fill:blue"/>
<circle cx="7027" cy="2507" r="5" style="fill:blue"/>
<circle cx="5903" cy="2851" r="5" style="fill:blue"/>
<circle cx="934" cy="1683" r="5" style="fill:blue"/>
<circle cx="5469" cy="2277" r="5" style="fill:blue"/>
<circle cx="5721" cy="3882" r="5" style="fill:blue"/>
<circle cx="4408" cy="1790" r="5" style="fill:blue"/>
<circle cx="5893" cy="630" r="5" style="fill:blue"/>
<circle cx="39" cy="244" r="5" style="fill:blue"/>
<circle cx="2867" cy="277" r="5" style="fill:blue"/>
<circle cx="5538" cy="2353" r="5" style="fill:blue"/>
<circle cx="5018" cy="4096" r="5" style="fill:blue"/>
<circle cx="5186" cy="3878" r="5" style="fill:blue"/>
<circle cx="1858" cy="89" r="5" style="fill:blue"/>
<circle cx="8061" cy="1738" r="5" style="fill:blue"/>
<circle cx="6092" cy="1231" r="5" style="fill:blue"/>
<circle cx="1916" cy="1757" r="5" style="fill:blue"/>
<circle cx="4431" cy="1979" r="5" style="fill:blue"/>
<circle cx="6792" cy="1867" r="5" style="fill:blue"/>
<circle cx="7256" cy="561" r="5" style="fill:blue"/>
<circle cx="1031" cy="572" r="5" style="fill:blue"/>
<circle cx="2757" cy="3852" r="5" style="fill:blue"/>
<circle cx="6552" cy="4023" r="5" style="fill:blue"/>
<circle cx="955" cy="1803" r="5" style="fill:blue"/>
<circle cx="7301" cy="3112" r="5" style="fill:blue"/>
<circle cx="3783" cy="2816" r="5" style="fill:blue"/>
<circle cx="4392" cy="1757" r="5" style="fill:blue"/>
<circle cx="6404" cy="122" r="5" style="fill:blue"/>
<circle cx="3546" cy="1736" r="5" style="fill:blue"/>
<circle cx="596" cy="2890" r="5" style="fill:blue"/>
<circle cx="410" cy="2293" r="5" style="fill:blue"/>
<circle cx="1715" cy="3141" r="5" style="fill:blue"/>
<circle cx="1039" cy="2127" r="5" style="fill:blue"/>
<circle cx="1391" cy="3188" r="5" style="fill:blue"/>
<circle cx="5950" cy="872" r="5" style="fill:blue"/>
<circle cx="5904" cy="578" r="5" style="fill:blue"/>
<circle cx="7917" cy="902" r="5" style="fill:blue"/>
<circle cx="6912" cy="1116" r="5" style="fill:blue"/>
<circle cx="2728" cy="1744" r="5" style="fill:blue"/>
<circle cx="4820" cy="3167" r="5" style="fill:blue"/>
<circle cx="5615" cy="3088" r="5" style="fill:blue"/>
<circle cx="5066" cy="2470" r="5" style="fill:blue"/>
<circle cx="979" cy="2380" r="5" style="fill:blue"/>
<circle cx="6285" cy="3833" r="5" style="fill:blue"/>
<circle cx="7401" cy="1531" r="5" style="fill:blue"/>
<circle cx="3148" cy="2683" r="5" style="fill:blue"/>
<circle cx="5243" cy="1883" r="5" style="fill:blue"/>
<circle cx="6039" cy="2639" r="5" style="fill:blue"/>
<circle cx="3721" cy="1864" r="5" style="fill:blue"/>
<circle cx="1370" cy="3240" r="5" style="fill:blue"/>
<circle cx="2092" cy="1904" r="5" style="fill:blue"/>
<circle cx="3747" cy="1328" r="5" style="fill:blue"/>
<circle cx="3278" cy="1168" r="5" style="fill:blue"/>
<circle cx="668" cy="2145" r="5" style="fill:blue"/>
<circle cx="1663" cy="3040" r="5" style="fill:blue"/>
<circle cx="3046" cy="932" r="5" style="fill:blue"/>
<circle cx="3162" cy="1052" r="5" style="fill:blue"/>
<circle cx="734" cy="2805" r="5" style="fill:blue"/>
<circle cx="959" cy="1336" r="5" style="fill:blue"/>
<circle cx="341" cy="2433" r="5" style="fill:blue"/>
<circle cx="2735" cy="341" r="5" style="fill:blue"/>
<circle cx="1303" cy="3010" r="5" style="fill:blue"/>
<circle cx="6496" cy="1832" r="5" style="fill:blue"/>
<circle cx="3548" cy="164" r="5" style="fill:blue"/>
<circle cx="5225" cy="2357" r="5" style="fill:blue"/>
<circle cx="1961" cy="1150" r="5" style="fill:blue"/>
<circle cx="88" cy="1724" r="5" style="fill:blue"/>
<circle cx="1908" cy="1376" r="5" style="fill:blue"/>
<circle cx="7989" cy="3984" r="5" style="fill:blue"/>
<circle cx="927" cy="372" r="5" style="fill:blue"/>
<circle cx="4361" cy="3055" r="5" style="fill:blue"/>
<circle cx="5874" cy="2234" r="5" style="fill:blue"/>
<circle cx="7573" cy="2983" r="5" style="fill:blue"/>
<circle cx="1909" cy="2298" r="5" style="fill:blue"/>
<circle cx="4916" cy="306" r="5" style="fill:blue"/>
<circle cx="6842" cy="2916" r="5" style="fill:blue"/>
<circle cx="4935" cy="1356" r="5" style="fill:blue"/>
<circle cx="704" cy="2990" r="5" style="fill:blue"/>
<circle cx="5959" cy="4036" r="5" style="fill:blue"/>
<circle cx="2108" cy="2915" r="5" style="fill:blue"/>
<circle cx="1258" cy="416" r="5" style="fill:blue"/>
<circle cx="5375" cy="2387" r="5" style="fill:blue"/>
<circle cx="6403" cy="1434" r="5" style="fill:blue"/>
<circle cx="7896" cy="1020" r="5" style="fill:blue"/>
<circle cx="3610" cy="2178" r="5" style="fill:blue"/>
<circle cx="3493" cy="1783" r="5" style="fill:blue"/>
<circle cx="889" cy="1834" r="5" style="fill:blue"/>
<circle cx="7136" cy="787" r="5" style="fill:blue"/>
<circle cx="5687" cy="2248" r="5" style="fill:blue"/>
<circle cx="1919" cy="79" r="5" style="fill:blue"/>
<circle cx="5850" cy="2399" r="5" style="fill:blue"/>
<circle cx="7816" cy="2994" r="5" style="fill:blue"/>
<circle cx="7101" cy="599" r="5" style="fill:blue"/>
<circle cx="2061" cy="2427" r="5" style="fill:blue"/>
<circle cx="7854" cy="105" r="5" style="fill:blue"/>
<circle cx="8251" cy="446" r="5" style="fill:blue"/>
<circle cx="505" cy="1873" r="5" style="fill:blue"/>
<circle cx="3286" cy="2786" r="5" style="fill:blue"/>
<circle cx="1670" cy="3001" r="5" style="fill:blue"/>
<circle cx="6499" cy="1098" r="5" style="fill:blue"/>
<circle cx="432" cy="96" r="5" style="fill:blue"/>
<circle cx="1255" cy="1003" r="5" style="fill:blue"/>
<circle cx="6409" cy="1073" r="5" style="fill:blue"/>
<circle cx="1837" cy="846" r="5" style="fill:blue"/>
<circle cx="6913" cy="691" r="5" style="fill:blue"/>
<circle cx="4783" cy="1436" r="5" style="fill:blue"/>
<circle cx="2882" cy="2249" r="5" style="fill:blue"/>
<circle cx="5782" cy="283" r="5" style="fill:blue"/>
<circle cx="1714" cy="1084" r="5" style="fill:blue"/>
<circle cx="1110" cy="1719" r="5" style="fill:blue"/>
<circle cx="1771" cy="1917" r="5" style="fill:blue"/>
<circle cx="3660" cy="3134" r="5" style="fill:blue"/>
<circle cx="8010" cy="795" r="5" style="fill:blue"/>
<circle cx="4629" cy="1349" r="5" style="fill:blue"/>
<circle cx="6969" cy="3001" r="5" style="fill:blue"/>
<circle cx="6183" cy="2032" r="5" style="fill:blue"/>
<circle cx="6107" cy="2645" r="5" style="fill:blue"/>
<circle cx="450" cy="2690" r="5" style="fill:blue"/>
<circle cx="6843" cy="1823" r="5" style="fill:blue"/>
<circle cx="3230" cy="63" r="5" style="fill:blue"/>
<circle cx="716" cy="2736" r="5" style="fill:blue"/>
<circle cx="5178" cy="25" r="5" style="fill:blue"/>
<circle cx="4" cy="3230" r="5" style="fill:blue"/>
<circle cx="2179" cy="3858" r="5" style="fill:blue"/>
<circle cx="1367" cy="2704" r="5" style="fill:blue"/>
<circle cx="4142" cy="4054" r="5" style="fill:blue"/>
<circle cx="4775" cy="2899" r="5" style="fill:blue"/>
<circle cx="5076" cy="2700" r="5" style="fill:blue"/>
<circle cx="5819" cy="2899" r="5" style="fill:blue"/>
<circle cx="3050" cy="398" r="5" style="fill:blue"/>
<circle cx="6999" cy="1435" r="5" style="fill:blue"/>
<circle cx="5162" cy="1542" r="5" style="fill:blue"/>
<circle cx="6895" cy="2889" r="5" style="fill:blue"/>
<circle cx="7773" cy="578" r="5" style="fill:blue"/>
<circle cx="817" cy="417" r="5" style="fill:blue"/>
<circle cx="7548" cy="2709" r="5" style="fill:blue"/>
<circle cx="6847" cy="2919" r="5" style="fill:blue"/>
<circle cx="4231" cy="1220" r="5" style="fill:blue"/>
<circle cx="1584" cy="2741" r="5" style="fill:blue"/>
<circle cx="8286" cy="3986" r="5" style="fill:blue"/>
<circle cx="3536" cy="1946" r="5" style="fill:blue"/>
<circle cx="973" cy="1939" r="5" style="fill:blue"/>
<circle cx="186" cy="2093" r="5" style="fill:blue"/>
<circle cx="7395" cy="1757" r="5" style="fill:blue"/>
<circle cx="7323" cy="517" r="5" style="fill:blue"/>
<circle cx="8036" cy="1639" r="5" style="fill:blue"/>
<circle cx="2254" cy="27" r="5" style="fill:blue"/>
<circle cx="2266" cy="2723" r="5" style="fill:blue"/>
<circle cx="5581" cy="1759" r="5" style="fill:blue"/>
<circle cx="3730" cy="395" r="5" style="fill:blue"/>
<circle cx="5309" cy="3232" r="5" style="fill:blue"/>
<circle cx="4119" cy="1158" r="5" style="fill:blue"/>
<circle cx="126" cy="122" r="5" style="fill:blue"/>
<circle cx="1316" cy="1056" r="5" style="fill:blue"/>
<circle cx="603" cy="2825" r="5" style="fill:blue"/>
<circle cx="6650" cy="1794" r="5" style="fill:blue"/>
<circle cx="1070" cy="733" r="5" style="fill:blue"/>
<circle cx="3066" cy="2304" r="5" style="fill:blue"/>
<circle cx="4682" cy="1051" r="5" style="fill:blue"/>
<circle cx="3178" cy="2643" r="5" style="fill:blue"/>
<circle cx="3672" cy="1857" r="5" style="fill:blue"/>
<circle cx="5929" cy="178" r="5" style="fill:blue"/>
<circle cx="4706" cy="408" r="5" style="fill:blue"/>
<circle cx="1507" cy="931" r="5" style="fill:blue"/>
<circle cx="7818" cy="1826" r="5" style="fill:blue"/>
<circle cx="2002" cy="1286" r="5" style="fill:blue"/>
<circle cx="1013" cy="1353" r="5" style="fill:blue"/>
<circle cx="1030" cy="1187" r="5" style="fill:blue"/>
<circle cx="6537" cy="1719" r="5" style="fill:blue"/>
<circle cx="5224" cy="2167" r="5" style="fill:blue"/>
<circle cx="599" cy="1414" r="5" style="fill:blue"/>
<circle cx="7450" cy="1269" r="5" style="fill:blue"/>
<circle cx="1096" cy="639" r="5" style="fill:blue"/>
<circle cx="2655" cy="1025" r="5" style="fill:blue"/>
<circle cx="778" cy="93" r="5" style="fill:blue"/>
<circle cx="2974" cy="1990" r="5" style="fill:blue"/>
<circle cx="7600" cy="4110" r="5" style="fill:blue"/>
<circle cx="4244" cy="2661" r="5" style="fill:blue"/>
<circle cx="6624" cy="1166" r="5" style="fill:blue"/>
<circle cx="2305" cy="3837" r="5" style="fill:blue"/>
<circle cx="7763" cy="2573" r="5" style="fill:blue"/>
<circle cx="4190" cy="1209" r="5" style="fill:blue"/>
<circle cx="3425" cy="3893" r="5" style="fill:blue"/>
<circle cx="3253" cy="2198" r="5" style="fill:blue"/>
<circle cx="1927" cy="1785" r="5" style="fill:blue"/>
<circle cx="2660" cy="2653" r="5" style="fill:blue"/>
<circle cx="7037" cy="1172" r="5" style="fill:blue"/>
<circle cx="3641" cy="696" r="5" style="fill:blue"/>
<circle cx="4848" cy="4029" r="5" style="fill:blue"/>
<circle cx="47" cy="2722" r="5" style="fill:blue"/>
<circle cx="4445" cy="2885" r="5" style="fill:blue"/>
<circle cx="5464" cy="55" r="5" style="fill:blue"/>
<circle cx="3794" cy="3998" r="5" style="fill:blue"/>
<circle cx="5666" cy="1973" r="5" style="fill:blue"/>
<circle cx="4162" cy="2934" r="5" style="fill:blue"/>
<circle cx="6335" cy="1412" r="5" style="fill:blue"/>
<circle cx="2172" cy="2350" r="5" style="fill:blue"/>
<circle cx="1002" cy="1237" r="5" style="fill:blue"/>
<circle cx="6260" cy="1113" r="5" style="fill:blue"/>
<circle cx="3467" cy="1829" r="5" style="fill:blue"/>
<circle cx="7711" cy="1905" r="5" style="fill:blue"/>
<circle cx="5142" cy="2974" r="5" style="fill:blue"/>
<circle cx="2327" cy="2460" r="5" style="fill:blue"/>
<circle cx="3976" cy="380" r="5" style="fill:blue"/>
<circle cx="1080" cy="728" r="5" style="fill:blue"/>
<circle cx="7556" cy="2409" r="5" style="fill:blue"/>
<circle cx="594" cy="2739" r="5" style="fill:blue"/>
<circle cx="4102" cy="2902" r="5" style="fill:blue"/>
<circle cx="5163" cy="2081" r="5" style="fill:blue"/>
<circle cx="7156" cy="2968" r="5" style="fill:blue"/>
<circle cx="870" cy="2490" r="5" style="fill:blue"/>
<circle cx="7598" cy="2996" r="5" style="fill:blue"/>
<circle cx="6742" cy="2475" r="5" style="fill:blue"/>
<circle cx="3013" cy="3037" r="5" style="fill:blue"/>
<circle cx="7698" cy="458" r="5" style="fill:blue"/>
<circle cx="7748" cy="2350" r="5" style="fill:blue"/>
<circle cx="7811" cy="2878" r="5" style="fill:blue"/>
<circle cx="5877" cy="3170" r="5" style="fill:blue"/>
<circle cx="2349" cy="204" r="5" style="fill:blue"/>
<circle cx="1719" cy="1740" r="5" style="fill:blue"/>
<circle cx="2445" cy="301" r="5" style="fill:blue"/>
<circle cx="105" cy="3935" r="5" style="fill:blue"/>
<circle cx="3686" cy="2326" r="5" style="fill:blue"/>
<circle cx="5831" cy="2962" r="5" style="fill:blue"/>
<circle cx="1900" cy="3966" r="5" style="fill:blue"/>
<circle cx="5494" cy="3883" r="5" style="fill:blue"/>
<circle cx="6477" cy="961" r="5" style="fill:blue"/>
<circle cx="5542" cy="2599" r="5" style="fill:blue"/>
<circle cx="3503" cy="1644" r="5" style="fill:blue"/>
<circle cx="686" cy="3020" r="5" style="fill:blue"/>
<circle cx="5267" cy="2444" r="5" style="fill:blue"/>
<circle cx="2729" cy="2040" r="5" style="fill:blue"/>
<circle cx="7593" cy="1163" r="5" style="fill:blue"/>
<circle cx="8238" cy="953" r="5" style="fill:blue"/>
<circle cx="6009" cy="541" r="5" style="fill:blue"/>
<circle cx="3643" cy="1500" r="5" style="fill:blue"/>
<circle cx="7271" cy="438" r="5" style="fill:blue"/>
<circle cx="3561" cy="3043" r="5" style="fill:blue"/>
<circle cx="2829" cy="839" r="5" style="fill:blue"/>
<circle cx="4894" cy="4041" r="5" style="fill:blue"/>
<circle cx="1359" cy="4021" r="5" style="fill:blue"/>
<circle cx="3695" cy="1120" r="5" style="fill:blue"/>
<circle cx="3576" cy="2099" r="5" style="fill:blue"/>
<circle cx="2853" cy="1321" r="5" style="fill:blue"/>
<circle cx="7289" cy="3998" r="5" style="fill:blue"/>
<circle cx="4757" cy="485" r="5" style="fill:blue"/>
<circle cx="5947" cy="291" r="5" style="fill:blue"/>
<circle cx="2563" cy="4014" r="5" style="fill:blue"/>
<circle cx="5911" cy="1127" r="5" style="fill:blue"/>
<circle cx="5822" cy="1311" r="5" style="fill:blue"/>
<circle cx="6222" cy="4034" r="5" style="fill:blue"/>
<circle cx="6600" cy="852" r="5" style="fill:blue"/>
<circle cx="6752" cy="35" r="5" style="fill:blue"/>
<circle cx="4965" cy="3916" r="5" style="fill:blue"/>
<circle cx="7497" cy="361" r="5" style="fill:blue"/>
<circle cx="7142" cy="205" r="5" style="fill:blue"/>
<circle cx="385" cy="1399" r="5" style="fill:blue"/>
<circle cx="1909" cy="3868" r="5" style="fill:blue"/>
<circle cx="488" cy="297" r="5" style="fill:blue"/>
<circle cx="7037" cy="2356" r="5" style="fill:blue"/>
<circle cx="6622" cy="1503" r="5" style="fill:blue"/>
<circle cx="978" cy="3235" r="5" style="fill:blue"/>
<circle cx="3860" cy="2435" r="5" style="fill:blue"/>
<circle cx="6210" cy="1083" r="5" style="fill:blue"/>
<circle cx="3021" cy="466" r="5" style="fill:blue"/>
<circle cx="7503" cy="832" r="5" style="fill:blue"/>
<circle cx="2169" cy="3102" r="5" style="fill:blue"/>
<circle cx="3566" cy="3079" r="5" style="fill:blue"/>
<circle cx="4489" cy="1815" r="5" style="fill:blue"/>
<circle cx="5738" cy="993" r="5" style="fill:blue"/>
<circle cx="7363" cy="1393" r="5" style="fill:blue"/>
<circle cx="294" cy="1323" r="5" style="fill:blue"/>
<circle cx="2107" cy="368" r="5" style="fill:blue"/>
<circle cx="1548" cy="970" r="5" style="fill:blue"/>
<circle cx="3585" cy="2994" r="5" style="fill:blue"/>
<circle cx="1104" cy="2169" r="5" style="fill:blue"/>
<circle cx="5358" cy="539" r="5" style="fill:blue"/>
<circle cx="3388" cy="1525" r="5" style="fill:blue"/>
<circle cx="305" cy="407" r="5" style="fill:blue"/>
<circle cx="3076" cy="3852" r="5" style="fill:blue"/>
<circle cx="1665" cy="166" r="5" style="fill:blue"/>
<circle cx="6391" cy="505" r="5" style="fill:blue"/>
<circle cx="852" cy="848" r="5" style="fill:blue"/>
<circle cx="5689" cy="932" r="5" style="fill:blue"/>
<circle cx="4839" cy="2479" r="5" style="fill:blue"/>
<circle cx="8333" cy="969" r="5" style="fill:blue"/>
<circle cx="2305" cy="1030" r="5" style="fill:blue"/>
<circle cx="1892" cy="1197" r="5" style="fill:blue"/>
<circle cx="4864" cy="3866" r="5" style="fill:blue"/>
<circle cx="4481" cy="2386" r="5" style="fill:blue"/>
<circle cx="3225" cy="808" r="5" style="fill:blue"/>
<circle cx="5381" cy="2769" r="5" style="fill:blue"/>
<circle cx="439" cy="567" r="5" style="fill:blue"/>
<circle cx="6342" cy="317" r="5" style="fill:blue"/>
<circle cx="1266" cy="2768" r="5" style="fill:blue"/>
<circle cx="1894" cy="2157" r="5" style="fill:blue"/>
<circle cx="939" cy="3877" r="5" style="fill:blue"/>
<circle cx="85" cy="1180" r="5" style="fill:blue"/>
<circle cx="2286" cy="422" r="5" style="fill:blue"/>
<circle cx="5657" cy="863" r="5" style="fill:blue"/>
<circle cx="3954" cy="2323" r="5" style="fill:blue"/>
<circle cx="544" cy="2978" r="5" style="fill:blue"/>
<circle cx="6646" cy="1703" r="5" style="fill:blue"/>
<circle cx="1203" cy="2077" r="5" style="fill:blue"/>
<circle cx="775" cy="2063" r="5" style="fill:blue"/>
<circle cx="1959" cy="1582" r="5" style="fill:blue"/>
<circle cx="7012" cy="2245" r="5" style="fill:blue"/>
<circle cx="5529" cy="1139" r="5" style="fill:blue"/>
<circle cx="2773" cy="1742" r="5" style="fill:blue"/>
<circle cx="5381" cy="2123" r="5" style="fill:blue"/>
<circle cx="4986" cy="2377" r="5" style="fill:blue"/>
<circle cx="4610" cy="2690" r="5" style="fill:blue"/>
<circle cx="1520" cy="3085" r="5" style="fill:blue"/>
<circle cx="3649" cy="2189" r="5" style="fill:blue"/>
<circle cx="5189" cy="2743" r="5" style="fill:blue"/>
<circle cx="2553" cy="2569" r="5" style="fill:blue"/>
<circle cx="1696" cy="2674" r="5" style="fill:blue"/>
<circle cx="4719" cy="1756" r="5" style="fill:blue"/>
<circle cx="2649" cy="1683" r="5" style="fill:blue"/>
<circle cx="2664" cy="3867" r="5" style="fill:blue"/>
<circle cx="4471" cy="1217" r="5" style="fill:blue"/>
<circle cx="7143" cy="1212" r="5" style="fill:blue"/>
<circle cx="284" cy="480" r="5" style="fill:blue"/>
<circle cx="4469" cy="2922" r="5" style="fill:blue"/>
<circle cx="204" cy="1465" r="5" style="fill:blue"/>
<circle cx="4534" cy="2572" r="5" style="fill:blue"/>
<circle cx="1096" cy="2536" r="5" style="fill:blue"/>
<circle cx="2183" cy="862" r="5" style="fill:blue"/>
<circle cx="244" cy="26" r="5" style="fill:blue"/>
<circle cx="792" cy="1238" r="5" style="fill:blue"/>
<circle cx="6301" cy="4061" r="5" style="fill:blue"/>
<circle cx="4456" cy="457" r="5" style="fill:blue"/>
<circle cx="2303" cy="1839" r="5" style="fill:blue"/>
<circle cx="1422" cy="421" r="5" style="fill:blue"/>
<circle cx="2577" cy="396" r="5" style="fill:blue"/>
<circle cx="6175" cy="1973" r="5" style="fill:blue"/>
<circle cx="3745" cy="3980" r="5" style="fill:blue"/>
<circle cx="1367" cy="4002" r="5" style="fill:blue"/>
<circle cx="8087" cy="3173" r="5" style="fill:blue"/>
<circle cx="7666" cy="2790" r="5" style="fill:blue"/>
<circle cx="5337" cy="39" r="5" style="fill:blue"/>
<circle cx="1663" cy="1087" r="5" style="fill:blue"/>
<circle cx="6217" cy="3228" r="5" style="fill:blue"/>
<circle cx="3980" cy="1505" r="5" style="fill:blue"/>
<circle cx="6561" cy="1553" r="5" style="fill:blue"/>
<circle cx="4036" cy="2091" r="5" style="fill:blue"/>
<circle cx="4441" cy="322" r="5" style="fill:blue"/>
<circle cx="4013" cy="2459" r="5" style="fill:blue"/>
<circle cx="3293" cy="4046" r="5" style="fill:blue"/>
<circle cx="3634" cy="174" r="5" style="fill:blue"/>
<circle cx="2180" cy="2790" r="5" style="fill:blue"/>
<circle cx="5215" cy="1831" r="5" style="fill:blue"/>
<circle cx="3561" cy="1102" r="5" style="fill:blue"/>
<circle cx="147" cy="1677" r="5" style="fill:blue"/>
<circle cx="7372" cy="3936" r="5" style="fill:blue"/>
<circle cx="1092" cy="3844" r="5" style="fill:blue"/>
<circle cx="4464" cy="4129" r="5" style="fill:blue"/>
<circle cx="1945" cy="1640" r="5" style="fill:blue"/>
<circle cx="1770" cy="1787" r="5" style="fill:blue"/>
<circle cx="5960" cy="2376" r="5" style="fill:blue"/>
<circle cx="2630" cy="2035" r="5" style="fill:blue"/>
<circle cx="6927" cy="1353" r="5" style="fill:blue"/>
<circle cx="5395" cy="2686" r="5" style="fill:blue"/>
<circle cx="4489" cy="669" r="5" style="fill:blue"/>
<circle cx="3070" cy="3115" r="5" style="fill:blue"/>
<circle cx="2092" cy="1567" r="5" style="fill:blue"/>
<circle cx="2934" cy="3073" r="5" style="fill:blue"/>
<circle cx="8085" cy="2252" r="5" style="fill:blue"/>
<circle cx="8092" cy="1043" r="5" style="fill:blue"/>
<circle cx="2422" cy="46" r="5" style="fill:blue"/>
<circle cx="6380" cy="1225" r="5" style="fill:blue"/>
<circle cx="1246" cy="2864" r="5" style="fill:blue"/>
<circle cx="2249" cy="2995" r="5" style="fill:blue"/>
<circle cx="5327" cy="662" r="5" style="fill:blue"/>
<circle cx="3954" cy="4121" r="5" style="fill:blue"/>
<circle cx="7203" cy="3897" r="5" style="fill:blue"/>
<circle cx="7927" cy="766" r="5" style="fill:blue"/>
<circle cx="356" cy="2539" r="5" style="fill:blue"/>
<circle cx="7776" cy="686" r="5" style="fill:blue"/>
<circle cx="1432" cy="624" r="5" style="fill:blue"/>
<circle cx="4869" cy="1338" r="5" style="fill:blue"/>
<circle cx="1054" cy="2390" r="5" style="fill:blue"/>
<circle cx="3708" cy="642" r="5" style="fill:blue"/>
<circle cx="3505" cy="2253" r="5" style="fill:blue"/>
<circle cx="5973" cy="1604" r="5" style="fill:blue"/>
<circle cx="2622" cy="2176" r="5" style="fill:blue"/>
<circle cx="4057" cy="1935" r="5" style="fill:blue"/>
<circle cx="523" cy="2142" r="5" style="fill:blue"/>
<circle cx="4570" cy="183" r="5" style="fill:blue"/>
<circle cx="6404" cy="2199" r="5" style="fill:blue"/>
<circle cx="7675" cy="1161" r="5" style="fill:blue"/>
<circle cx="1123" cy="2560" r="5" style="fill:blue"/>
<circle cx="1536" cy="1725" r="5" style="fill:blue"/>
<circle cx="3987" cy="871" r="5" style="fill:blue"/>
<circle cx="9" cy="1107" r="5" style="fill:blue"/>
<circle cx="322" cy="1736" r="5" style="fill:blue"/>
<circle cx="1167" cy="1794" r="5" style="fill:blue"/>
<circle cx="6876" cy="1423" r="5" style="fill:blue"/>
<circle cx="5176" cy="739" r="5" style="fill:blue"/>
<circle cx="5140" cy="3036" r="5" style="fill:blue"/>
<circle cx="2622" cy="3044" r="5" style="fill:blue"/>
<circle cx="5091" cy="2110" r="5" style="fill:blue"/>
<circle cx="4684" cy="2550" r="5" style="fill:blue"/>
<circle cx="2262" cy="2408" r="5" style="fill:blue"/>
<circle cx="7380" cy="4075" r="5" style="fill:blue"/>
<circle cx="884" cy="3890" r="5" style="fill:blue"/>
<circle cx="6569" cy="3148" r="5" style="fill:blue"/>
<circle cx="2264" cy="2741" r="5" style="fill:blue"/>
<circle cx="3135" cy="727" r="5" style="fill:blue"/>
<circle cx="764" cy="3066" r="5" style="fill:blue"/>
<circle cx="5862" cy="725" r="5" style="fill:blue"/>
<circle cx="429" cy="2842" r="5" style="fill:blue"/>
<circle cx="6965" cy="2" r="5" style="fill:blue"/>
<circle cx="7993" cy="1417" r="5" style="fill:blue"/>
<circle cx="7147" cy="1320" r="5" style="fill:blue"/>
<circle cx="7375" cy="2264" r="5" style="fill:blue"/>
<circle cx="281" cy="635" r="5" style="fill:blue"/>
<circle cx="3261" cy="1619" r="5" style="fill:blue"/>
<circle cx="5525" cy="31" r="5" style="fill:blue"/>
<circle cx="5594" cy="719" r="5" style="fill:blue"/>
<circle cx="5019" cy="3220" r="5" style="fill:blue"/>
<circle cx="3524" cy="1294" r="5" style="fill:blue"/>
<circle cx="2208" cy="485" r="5" style="fill:blue"/>
<circle cx="2597" cy="60" r="5" style="fill:blue"/>
<circle cx="6659" cy="442" r="5" style="fill:blue"/>
<circle cx="61" cy="1317" r="5" style="fill:blue"/>
<circle cx="3260" cy="3876" r="5" style="fill:blue"/>
<circle cx="1736" cy="1615" r="5" style="fill:blue"/>
<circle cx="111" cy="4075" r="5" style="fill:blue"/>
<circle cx="2672" cy="997" r="5" style="fill:blue"/>
<circle cx="8075" cy="2574" r="5" style="fill:blue"/>
<circle cx="4101" cy="1146" r="5" style="fill:blue"/>
<circle cx="2930" cy="3202" r="5" style="fill:blue"/>
<circle cx="2711" cy="2643" r="5" style="fill:blue"/>
<circle cx="7971" cy="177" r="5" style="fill:blue"/>
<circle cx="2519" cy="663" r="5" style="fill:blue"/>
<circle cx="2449" cy="1264" r="5" style="fill:blue"/>
<circle cx="480" cy="1458" r="5" style="fill:blue"/>
<circle cx="4772" cy="3041" r="5" style="fill:blue"/>
<circle cx="3673" cy="1185" r="5" style="fill:blue"/>
<circle cx="7196" cy="499" r="5" style="fill:blue"/>
<circle cx="4078" cy="2178" r="5" style="fill:blue"/>
<circle cx="2925" cy="16" r="5" style="fill:blue"/>
<circle cx="4777" cy="2239" r="5" style="fill:blue"/>
<circle cx="2511" cy="1566" r="5" style="fill:blue"/>
<circle cx="6740" cy="5" r="5" style="fill:blue"/>
<circle cx="754" cy="884" r="5" style="fill:blue"/>
<circle cx="4806" cy="3860" r="5" style="fill:blue"/>
<circle cx="2788" cy="3910" r="5" style="fill:blue"/>
<circle cx="7092" cy="3014" r="5" style="fill:blue"/>
<circle cx="5208" cy="706" r="5" style="fill:blue"/>
<circle cx="4374" cy="2697" r="5" style="fill:blue"/>
<circle cx="7207" cy="1607" r="5" style="fill:blue"/>
<circle cx="1369" cy="3868" r="5" style="fill:blue"/>
<circle cx="3782" cy="160" r="5" style="fill:blue"/>
<circle cx="2246" cy="847" r="5" style="fill:blue"/>
<circle cx="6591" cy="182" r="5" style="fill:blue"/>
<circle cx="8119" cy="678" r="5" style="fill:blue"/>
<circle cx="4233" cy="1785" r="5" style="fill:blue"/>
<circle cx="1488" cy="491" r="5" style="fill:blue"/>
<circle cx="4607" cy="836" r="5" style="fill:blue"/>
<circle cx="6738" cy="435" r="5" style="fill:blue"/>
<circle cx="3627" cy="179" r="5" style="fill:blue"/>
<circle cx="1423" cy="2905" r="5" style="fill:blue"/>
<circle cx="4217" cy="3909" r="5" style="fill:blue"/>
<circle cx="2035" cy="282" r="5" style="fill:blue"/>
<circle cx="5906" cy="4130" r="5" style="fill:blue"/>
<circle cx="3992" cy="3894" r="5" style="fill:blue"/>
<circle cx="1047" cy="2366" r="5" style="fill:blue"/>
<circle cx="2311" cy="1887" r="5" style="fill:blue"/>
<circle cx="3206" cy="2366" r="5" style="fill:blue"/>
<circle cx="3876" cy="186" r="5" style="fill:blue"/>
<circle cx="7808" cy="2484" r="5" style="fill:blue"/>
<circle cx="2718" cy="1700" r="5" style="fill:blue"/>
<circle cx="2735" cy="204" r="5" style="fill:blue"/>
<circle cx="6570" cy="1461" r="5" style="fill:blue"/>
<circle cx="2206" cy="2067" r="5" style="fill:blue"/>
<circle cx="1175" cy="2537" r="5" style="fill:blue"/>
<circle cx="1927" cy="1496" r="5" style="fill:blue"/>
<circle cx="6192" cy="7" r="5" style="fill:blue"/>
<circle cx="6108" cy="2607" r="5" style="fill:blue"/>
<circle cx="6199" cy="2845" r="5" style="fill:blue"/>
<circle cx="3937" cy="1049" r="5" style="fill:blue"/>
<circle cx="1991" cy="857" r="5" style="fill:blue"/>
<circle cx="4780" cy="1810" r="5" style="fill:blue"/>
<circle cx="5576" cy="2939" r="5" style="fill:blue"/>
<circle cx="5360" cy="904" r="5" style="fill:blue"/>
<circle cx="5420" cy="3125" r="5" style="fill:blue"/>
<circle cx="3662" cy="1636" r="5" style="fill:blue"/>
<circle cx="4049" cy="2250" r="5" style="fill:blue"/>
<circle cx="1630" cy="285" r="5" style="fill:blue"/>
<circle cx="3957" cy="2968" r="5" style="fill:blue"/>
<circle cx="1701" cy="3223" r="5" style="fill:blue"/>
<circle cx="4918" cy="3863" r="5" style="fill:blue"/>
<circle cx="6953" cy="684" r="5" style="fill:blue"/>
<circle cx="3902" cy="3220" r="5" style="fill:blue"/>
<circle cx="4637" cy="2898" r="5" style="fill:blue"/>
<circle cx="4596" cy="342" r="5" style="fill:blue"/>
<circle cx="4148" cy="1708" r="5" style="fill:blue"/>
<circle cx="2341" cy="5" r="5" style="fill:blue"/>
<circle cx="5482" cy="15" r="5" style="fill:blue"/>
<circle cx="3592" cy="1761" r="5" style="fill:blue"/>
<circle cx="4649" cy="434" r="5" style="fill:blue"/>
<circle cx="4178" cy="790" r="5" style="fill:blue"/>
<circle cx="7287" cy="2846" r="5" style="fill:blue"/>
<circle cx="2373" cy="1880" r="5" style="fill:blue"/>
<circle cx="2946" cy="491" r="5" style="fill:blue"/>
<circle cx="3888" cy="3193" r="10" style="stroke-width:5;fill:gray;fill-opacity:0.3"/>
<circle cx="3908" cy="3193" r="10" style="stroke-width:5;fill:gray;fill-opacity:0.3"/>
<circle cx="3928" cy="3193" r="10" style="stroke-width:5;fill:gray;fill-opacity:0.3"/>
<circle cx="3948" cy="3193" r="10" style="stroke-width:5;fill:gray;fill-opacity:0.3"/>
<circle cx="3968" cy="3193" r="10" style="stroke-width:5;fill:gray;fill-opacity:0.3"/>
<circle cx="3988" cy="3193" r="10" style="stroke-width:5;fill:gray;fill-opacity:0.3"/>
<circle cx="4008" cy="3193" r="10" style="stroke-width:5;fill:gray;fill-opacity:0.3"/>
<circle cx="4028" cy="3193" r="10" style="stroke-width:5;fill:gray;fill-opacity:0.3"/>
<circle cx="3888" cy="3865" r="10" style="stroke-width:5;fill:gray;fill-opacity:0.3"/>
<circle cx="3908" cy="3865" r="10" style="stroke-width:5;fill:gray;fill-opacity:0.3"/>
<circle cx="3928" cy="3865" r="10" style="stroke-width:5;fill:gray;fill-opacity:0.3"/>
<circle cx="3948" cy="3865" r="10" style="stroke-width:5;fill:gray;fill-opacity:0.3"/>
<circle cx="3968" cy="3865" r="10" style="stroke-width:5;fill:gray;fill-opacity:0.3"/>
<circle cx="3988" cy="3865" r="10" style="stroke-width:5;fill:gray;fill-opacity:0.3"/>
<circle cx="4008" cy="3865" r="10" style="stroke-width:5;fill:gray;fill-opacity:0.3"/>
<circle cx="4028" cy="3865" r="10" style="stroke-width:5;fill:gray;fill-opacity:0.3"/>
<circle cx="4048" cy="3865" r="10" style="stroke-width:5;fill:gray;fill-opacity:0.3"/>
</svg>