<svg viewBox="0 0 1550 9992" xmlns="http://www.w3.org/2000/svg">
<rect height="2681" style="stroke:pink;stroke-width:10;fill:gray;fill-opacity:0.1;stroke-opacity:0.9" width="511" x="793" y="1000"/>
<circle cx="1489" cy="1353" r="5" style="fill:blue"/>
<circle cx="390" cy="9843" r="5" style="fill:blue"/>
<circle cx="757" cy="2877" r="5" style="fill:blue"/>
<circle cx="1366" cy="912" r="5" style="fill:blue"/>
<circle cx="615" cy="3323" r="5" style="fill:blue"/>
<circle cx="1183" cy="548" r="5" style="fill:blue"/>
<circle cx="1176" cy="6500" r="5" style="fill:blue"/>
<circle cx="114" cy="5743" r="5" style="fill:blue"/>
<circle cx="1219" cy="693" r="5" style="fill:blue"/>
<circle cx="377" cy="617" r="5" style="fill:blue"/>
<circle cx="538" cy="4811" r="5" style="fill:blue"/>
<circle cx="610" cy="4902" r="5" style="fill:blue"/>
<circle cx="584" cy="574" r="5" style="fill:blue"/>
<circle cx="989" cy="8082" r="5" style="fill:blue"/>
<circle cx="404" cy="3954" r="5" style="fill:blue"/>
<circle cx="1344" cy="9759" r="5" style="fill:blue"/>
<circle cx="652" cy="7081" r="5" style="fill:blue"/>
<circle cx="362" cy="4579" r="5" style="fill:blue"/>
<circle cx="1490" cy="2930" r="5" style="fill:blue"/>
<circle cx="384" cy="9894" r="5" style="fill:blue"/>
<circle cx="309" cy="4259" r="5" style="fill:blue"/>
<circle cx="75" cy="6799" r="5" style="fill:blue"/>
<circle cx="1299" cy="6372" r="5" style="fill:blue"/>
<circle cx="497" cy="3326" r="5" style="fill:blue"/>
<circle cx="1097" cy="5470" r="5" style="fill:blue"/>
<circle cx="1428" cy="6342" r="5" style="fill:blue"/>
<circle cx="1225" cy="3740" r="5" style="fill:blue"/>
<circle cx="1519" cy="3904" r="5" style="fill:blue"/>
<circle cx="822" cy="7361" r="5" style="fill:blue"/>
<circle cx="614" cy="5010" r="5" style="fill:blue"/>
<circle cx="26" cy="6540" r="5" style="fill:blue"/>
<circle cx="73" cy="7118" r="5" style="fill:blue"/>
<circle cx="310" cy="1719" r="5" style="fill:blue"/>
<circle cx="1093" cy="104" r="5" style="fill:blue"/>
<circle cx="1154" cy="4100" r="5" style="fill:blue"/>
<circle cx="1420" cy="3602" r="5" style="fill:blue"/>
<circle cx="923" cy="5878" r="5" style="fill:blue"/>
<circle cx="84" cy="9421" r="5" style="fill:blue"/>
<circle cx="1375" cy="123" r="5" style="fill:blue"/>
<circle cx="659" cy="8284" r="5" style="fill:blue"/>
<circle cx="1284" cy="7286" r="5" style="fill:blue"/>
<circle cx="159" cy="9804" r="5" style="fill:blue"/>
<circle cx="811" cy="9457" r="5" style="fill:blue"/>
<circle cx="437" cy="2007" r="5" style="fill:blue"/>
<circle cx="1277" cy="8179" r="5" style="fill:blue"/>
<circle cx="23" cy="535" r="5" style="fill:blue"/>
<circle cx="1185" cy="5334" r="5" style="fill:blue"/>
<circle cx="1268" cy="8079" r="5" style="fill:blue"/>
<circle cx="326" cy="6358" r="5" style="fill:blue"/>
<circle cx="906" cy="7535" r="5" style="fill:blue"/>
<circle cx="791" cy="4253" r="5" style="fill:blue"/>
<circle cx="794" cy="6273" r="5" style="fill:blue"/>
<circle cx="779" cy="3027" r="5" style="fill:blue"/>
<circle cx="1369" cy="148" r="5" style="fill:blue"/>
<circle cx="720" cy="8224" r="5" style="fill:blue"/>
<circle cx="1054" cy="478" r="5" style="fill:blue"/>
<circle cx="987" cy="4490" r="5" style="fill:blue"/>
<circle cx="742" cy="4440" r="5" style="fill:blue"/>
<circle cx="173" cy="1420" r="5" style="fill:blue"/>
<circle cx="414" cy="9575" r="5" style="fill:blue"/>
<circle cx="1548" cy="8338" r="5" style="fill:blue"/>
<circle cx="1372" cy="2553" r="5" style="fill:blue"/>
<circle cx="1303" cy="7678" r="5" style="fill:blue"/>
<circle cx="1415" cy="8427" r="5" style="fill:blue"/>
<circle cx="1274" cy="4822" r="5" style="fill:blue"/>
<circle cx="421" cy="5035" r="5" style="fill:blue"/>
<circle cx="849" cy="4904" r="5" style="fill:blue"/>
<circle cx="44" cy="324" r="5" style="fill:blue"/>
<circle cx="1514" cy="607" r="5" style="fill:blue"/>
<circle cx="1231" cy="4486" r="5" style="fill:blue"/>
<circle cx="481" cy="8911" r="5" style="fill:blue"/>
<circle cx="302" cy="9013" r="5" style="fill:blue"/>
<circle cx="1408" cy="7239" r="5" style="fill:blue"/>
<circle cx="1525" cy="769" r="5" style="fill:blue"/>
<circle cx="563" cy="345" r="5" style="fill:blue"/>
<circle cx="550" cy="8215" r="5" style="fill:blue"/>
<circle cx="1088" cy="4230" r="5" style="fill:blue"/>
<circle cx="495" cy="8575" r="5" style="fill:blue"/>
<circle cx="286" cy="7985" r="5" style="fill:blue"/>
<circle cx="722" cy="1285" r="5" style="fill:blue"/>
<circle cx="1542" cy="8801" r="5" style="fill:blue"/>
<circle cx="498" cy="8894" r="5" style="fill:blue"/>
<circle cx="742" cy="7769" r="5" style="fill:blue"/>
<circle cx="760" cy="505" r="5" style="fill:blue"/>
<circle cx="324" cy="1026" r="5" style="fill:blue"/>
<circle cx="883" cy="5178" r="5" style="fill:blue"/>
<circle cx="583" cy="8020" r="5" style="fill:blue"/>
<circle cx="1375" cy="5708" r="5" style="fill:blue"/>
<circle cx="957" cy="5796" r="5" style="fill:blue"/>
<circle cx="1322" cy="3491" r="5" style="fill:blue"/>
<circle cx="1524" cy="3177" r="5" style="fill:blue"/>
<circle cx="286" cy="7918" r="5" style="fill:blue"/>
<circle cx="746" cy="5343" r="5" style="fill:blue"/>
<circle cx="159" cy="5234" r="5" style="fill:blue"/>
<circle cx="809" cy="6204" r="5" style="fill:blue"/>
<circle cx="596" cy="7585" r="5" style="fill:blue"/>
<circle cx="1193" cy="3942" r="5" style="fill:blue"/>
<circle cx="120" cy="6300" r="5" style="fill:blue"/>
<circle cx="946" cy="8795" r="5" style="fill:blue"/>
<circle cx="96" cy="5125" r="5" style="fill:blue"/>
<circle cx="863" cy="7551" r="5" style="fill:blue"/>
<circle cx="700" cy="1903" r="5" style="fill:blue"/>
<circle cx="483" cy="2872" r="5" style="fill:blue"/>
<circle cx="686" cy="2512" r="5" style="fill:blue"/>
<circle cx="1338" cy="3578" r="5" style="fill:blue"/>
<circle cx="1443" cy="7322" r="5" style="fill:blue"/>
<circle cx="6" cy="2885" r="5" style="fill:blue"/>
<circle cx="762" cy="5041" r="5" style="fill:blue"/>
<circle cx="410" cy="4702" r="5" style="fill:blue"/>
<circle cx="89" cy="8596" r="5" style="fill:blue"/>
<circle cx="370" cy="6474" r="5" style="fill:blue"/>
<circle cx="266" cy="4633" r="5" style="fill:blue"/>
<circle cx="1224" cy="7136" r="5" style="fill:blue"/>
<circle cx="39" cy="231" r="5" style="fill:blue"/>
<circle cx="1108" cy="5728" r="5" style="fill:blue"/>
<circle cx="712" cy="4058" r="5" style="fill:blue"/>
<circle cx="215" cy="2738" r="5" style="fill:blue"/>
<circle cx="510" cy="2176" r="5" style="fill:blue"/>
<circle cx="391" cy="1922" r="5" style="fill:blue"/>
<circle cx="328" cy="4248" r="5" style="fill:blue"/>
<circle cx="347" cy="4678" r="5" style="fill:blue"/>
<circle cx="1029" cy="6539" r="5" style="fill:blue"/>
<circle cx="302" cy="935" r="5" style="fill:blue"/>
<circle cx="1488" cy="9990" r="5" style="fill:blue"/>
<circle cx="406" cy="5267" r="5" style="fill:blue"/>
<circle cx="61" cy="7848" r="5" style="fill:blue"/>
<circle cx="59" cy="7796" r="5" style="fill:blue"/>
<circle cx="636" cy="8344" r="5" style="fill:blue"/>
<circle cx="633" cy="7161" r="5" style="fill:blue"/>
<circle cx="464" cy="7877" r="5" style="fill:blue"/>
<circle cx="248" cy="922" r="5" style="fill:blue"/>
<circle cx="1006" cy="7781" r="5" style="fill:blue"/>
<circle cx="689" cy="4342" r="5" style="fill:blue"/>
<circle cx="364" cy="9978" r="5" style="fill:blue"/>
<circle cx="232" cy="964" r="5" style="fill:blue"/>
<circle cx="187" cy="4823" r="5" style="fill:blue"/>
<circle cx="572" cy="4123" r="5" style="fill:blue"/>
<circle cx="643" cy="4343" r="5" style="fill:blue"/>
<circle cx="1245" cy="5023" r="5" style="fill:blue"/>
<circle cx="86" cy="680" r="5" style="fill:blue"/>
<circle cx="747" cy="2052" r="5" style="fill:blue"/>
<circle cx="1206" cy="4264" r="5" style="fill:blue"/>
<circle cx="1169" cy="677" r="5" style="fill:blue"/>
<circle cx="599" cy="6069" r="5" style="fill:blue"/>
<circle cx="847" cy="9870" r="5" style="fill:blue"/>
<circle cx="285" cy="576" r="5" style="fill:blue"/>
<circle cx="264" cy="4163" r="5" style="fill:blue"/>
<circle cx="592" cy="2071" r="5" style="fill:blue"/>
<circle cx="1498" cy="1206" r="5" style="fill:blue"/>
<circle cx="45" cy="8551" r="5" style="fill:blue"/>
<circle cx="481" cy="8168" r="5" style="fill:blue"/>
<circle cx="325" cy="7151" r="5" style="fill:blue"/>
<circle cx="1356" cy="7316" r="5" style="fill:blue"/>
<circle cx="335" cy="5411" r="5" style="fill:blue"/>
<circle cx="1323" cy="6984" r="5" style="fill:blue"/>
<circle cx="946" cy="9195" r="5" style="fill:blue"/>
<circle cx="14" cy="2888" r="5" style="fill:blue"/>
<circle cx="565" cy="965" r="5" style="fill:blue"/>
<circle cx="397" cy="5911" r="5" style="fill:blue"/>
<circle cx="214" cy="3897" r="5" style="fill:blue"/>
<circle cx="499" cy="784" r="5" style="fill:blue"/>
<circle cx="186" cy="3535" r="5" style="fill:blue"/>
<circle cx="635" cy="907" r="5" style="fill:blue"/>
<circle cx="686" cy="7891" r="5" style="fill:blue"/>
<circle cx="383" cy="3387" r="5" style="fill:blue"/>
<circle cx="503" cy="3169" r="5" style="fill:blue"/>
<circle cx="776" cy="3996" r="5" style="fill:blue"/>
<circle cx="489" cy="8606" r="5" style="fill:blue"/>
<circle cx="386" cy="5637" r="5" style="fill:blue"/>
<circle cx="1116" cy="6911" r="5" style="fill:blue"/>
<circle cx="978" cy="4170" r="5" style="fill:blue"/>
<circle cx="1457" cy="4260" r="5" style="fill:blue"/>
<circle cx="1438" cy="8329" r="5" style="fill:blue"/>
<circle cx="53" cy="5700" r="5" style="fill:blue"/>
<circle cx="1548" cy="1768" r="5" style="fill:blue"/>
<circle cx="577" cy="8699" r="5" style="fill:blue"/>
<circle cx="922" cy="4530" r="5" style="fill:blue"/>
<circle cx="978" cy="594" r="5" style="fill:blue"/>
<circle cx="1304" cy="9396" r="5" style="fill:blue"/>
<circle cx="1206" cy="4304" r="5" style="fill:blue"/>
<circle cx="641" cy="1322" r="5" style="fill:blue"/>
<circle cx="453" cy="9856" r="5" style="fill:blue"/>
<circle cx="886" cy="4654" r="5" style="fill:blue"/>
<circle cx="42" cy="7245" r="5" style="fill:blue"/>
<circle cx="1012" cy="718" r="5" style="fill:blue"/>
<circle cx="1152" cy="6335" r="5" style="fill:blue"/>
<circle cx="204" cy="5221" r="5" style="fill:blue"/>
<circle cx="874" cy="6840" r="5" style="fill:blue"/>
<circle cx="521" cy="3453" r="5" style="fill:blue"/>
<circle cx="17" cy="1956" r="5" style="fill:blue"/>
<circle cx="1340" cy="5318" r="5" style="fill:blue"/>
<circle cx="346" cy="6517" r="5" style="fill:blue"/>
<circle cx="1222" cy="233" r="5" style="fill:blue"/>
<circle cx="1040" cy="6014" r="5" style="fill:blue"/>
<circle cx="1419" cy="2494" r="5" style="fill:blue"/>
<circle cx="518" cy="3933" r="5" style="fill:blue"/>
<circle cx="957" cy="9725" r="5" style="fill:blue"/>
<circle cx="71" cy="9824" r="5" style="fill:blue"/>
<circle cx="419" cy="3677" r="5" style="fill:blue"/>
<circle cx="499" cy="5653" r="5" style="fill:blue"/>
<circle cx="1508" cy="6752" r="5" style="fill:blue"/>
<circle cx="329" cy="7188" r="5" style="fill:blue"/>
<circle cx="731" cy="1706" r="5" style="fill:blue"/>
<circle cx="211" cy="1937" r="5" style="fill:blue"/>
<circle cx="118" cy="5730" r="5" style="fill:blue"/>
<circle cx="1270" cy="8650" r="5" style="fill:blue"/>
<circle cx="255" cy="5479" r="5" style="fill:blue"/>
<circle cx="51" cy="2979" r="5" style="fill:blue"/>
<circle cx="415" cy="2201" r="5" style="fill:blue"/>
<circle cx="1379" cy="4558" r="5" style="fill:blue"/>
<circle cx="46" cy="6290" r="5" style="fill:blue"/>
<circle cx="410" cy="6209" r="5" style="fill:blue"/>
<circle cx="694" cy="9349" r="5" style="fill:blue"/>
<circle cx="783" cy="8147" r="5" style="fill:blue"/>
<circle cx="646" cy="4674" r="5" style="fill:blue"/>
<circle cx="1546" cy="3529" r="5" style="fill:blue"/>
<circle cx="220" cy="2306" r="5" style="fill:blue"/>
<circle cx="807" cy="6636" r="5" style="fill:blue"/>
<circle cx="1331" cy="8297" r="5" style="fill:blue"/>
<circle cx="463" cy="9750" r="5" style="fill:blue"/>
<circle cx="1086" cy="5467" r="5" style="fill:blue"/>
<circle cx="613" cy="9334" r="5" style="fill:blue"/>
<circle cx="1092" cy="4460" r="5" style="fill:blue"/>
<circle cx="1376" cy="6162" r="5" style="fill:blue"/>
<circle cx="690" cy="4243" r="5" style="fill:blue"/>
<circle cx="601" cy="7047" r="5" style="fill:blue"/>
<circle cx="1389" cy="7643" r="5" style="fill:blue"/>
<circle cx="118" cy="6183" r="5" style="fill:blue"/>
<circle cx="817" cy="4711" r="5" style="fill:blue"/>
<circle cx="1283" cy="5989" r="5" style="fill:blue"/>
<circle cx="483" cy="5177" r="5" style="fill:blue"/>
<circle cx="586" cy="4922" r="5" style="fill:blue"/>
<circle cx="430" cy="992" r="5" style="fill:blue"/>
<circle cx="304" cy="842" r="5" style="fill:blue"/>
<circle cx="129" cy="5002" r="5" style="fill:blue"/>
<circle cx="412" cy="4843" r="5" style="fill:blue"/>
<circle cx="437" cy="1642" r="5" style="fill:blue"/>
<circle cx="245" cy="6301" r="5" style="fill:blue"/>
<circle cx="672" cy="2095" r="5" style="fill:blue"/>
<circle cx="931" cy="4897" r="5" style="fill:blue"/>
<circle cx="1428" cy="8047" r="5" style="fill:blue"/>
<circle cx="740" cy="6452" r="5" style="fill:blue"/>
<circle cx="945" cy="6127" r="5" style="fill:blue"/>
<circle cx="372" cy="8103" r="5" style="fill:blue"/>
<circle cx="884" cy="7636" r="5" style="fill:blue"/>
<circle cx="1202" cy="4720" r="5" style="fill:blue"/>
<circle cx="771" cy="5016" r="5" style="fill:blue"/>
<circle cx="875" cy="8897" r="5" style="fill:blue"/>
<circle cx="788" cy="7058" r="5" style="fill:blue"/>
<circle cx="1540" cy="7176" r="5" style="fill:blue"/>
<circle cx="1397" cy="4470" r="5" style="fill:blue"/>
<circle cx="484" cy="4267" r="5" style="fill:blue"/>
<circle cx="1387" cy="151" r="5" style="fill:blue"/>
<circle cx="921" cy="4788" r="5" style="fill:blue"/>
<circle cx="120" cy="5121" r="5" style="fill:blue"/>
<circle cx="491" cy="1466" r="5" style="fill:blue"/>
<circle cx="822" cy="8083" r="5" style="fill:blue"/>
<circle cx="188" cy="1974" r="5" style="fill:blue"/>
<circle cx="759" cy="8411" r="5" style="fill:blue"/>
<circle cx="213" cy="3142" r="5" style="fill:blue"/>
<circle cx="166" cy="7001" r="5" style="fill:blue"/>
<circle cx="830" cy="8425" r="5" style="fill:blue"/>
<circle cx="213" cy="6146" r="5" style="fill:blue"/>
<circle cx="958" cy="4628" r="5" style="fill:blue"/>
<circle cx="1543" cy="9800" r="5" style="fill:blue"/>
<circle cx="557" cy="57" r="5" style="fill:blue"/>
<circle cx="547" cy="3585" r="5" style="fill:blue"/>
<circle cx="237" cy="9614" r="5" style="fill:blue"/>
<circle cx="150" cy="9383" r="5" style="fill:blue"/>
<circle cx="417" cy="2461" r="5" style="fill:blue"/>
<circle cx="1150" cy="851" r="5" style="fill:blue"/>
<circle cx="12" cy="4790" r="5" style="fill:blue"/>
<circle cx="662" cy="2944" r="5" style="fill:blue"/>
<circle cx="969" cy="5281" r="5" style="fill:blue"/>
<circle cx="1085" cy="7161" r="5" style="fill:blue"/>
<circle cx="724" cy="2462" r="5" style="fill:blue"/>
<circle cx="400" cy="1991" r="5" style="fill:blue"/>
<circle cx="823" cy="8526" r="5" style="fill:blue"/>
<circle cx="1465" cy="747" r="5" style="fill:blue"/>
<circle cx="23" cy="6912" r="5" style="fill:blue"/>
<circle cx="838" cy="7930" r="5" style="fill:blue"/>
<circle cx="1353" cy="7540" r="5" style="fill:blue"/>
<circle cx="170" cy="276" r="5" style="fill:blue"/>
<circle cx="952" cy="6916" r="5" style="fill:blue"/>
<circle cx="488" cy="6144" r="5" style="fill:blue"/>
<circle cx="444" cy="8443" r="5" style="fill:blue"/>
<circle cx="1437" cy="8595" r="5" style="fill:blue"/>
<circle cx="930" cy="8295" r="5" style="fill:blue"/>
<circle cx="202" cy="5218" r="5" style="fill:blue"/>
<circle cx="68" cy="9823" r="5" style="fill:blue"/>
<circle cx="81" cy="4501" r="5" style="fill:blue"/>
<circle cx="559" cy="8966" r="5" style="fill:blue"/>
<circle cx="47" cy="332" r="5" style="fill:blue"/>
<circle cx="189" cy="6907" r="5" style="fill:blue"/>
<circle cx="317" cy="8035" r="5" style="fill:blue"/>
<circle cx="306" cy="3274" r="5" style="fill:blue"/>
<circle cx="53" cy="8338" r="5" style="fill:blue"/>
<circle cx="728" cy="3918" r="5" style="fill:blue"/>
<circle cx="1356" cy="9858" r="5" style="fill:blue"/>
<circle cx="354" cy="3051" r="5" style="fill:blue"/>
<circle cx="1172" cy="133" r="5" style="fill:blue"/>
<circle cx="370" cy="21" r="5" style="fill:blue"/>
<circle cx="761" cy="3458" r="5" style="fill:blue"/>
<circle cx="335" cy="1548" r="5" style="fill:blue"/>
<circle cx="1183" cy="6138" r="5" style="fill:blue"/>
<circle cx="1394" cy="6165" r="5" style="fill:blue"/>
<circle cx="1034" cy="6656" r="5" style="fill:blue"/>
<circle cx="920" cy="5767" r="5" style="fill:blue"/>
<circle cx="411" cy="7712" r="5" style="fill:blue"/>
<circle cx="1020" cy="143" r="5" style="fill:blue"/>
<circle cx="593" cy="3635" r="5" style="fill:blue"/>
<circle cx="639" cy="3757" r="5" style="fill:blue"/>
<circle cx="1401" cy="5503" r="5" style="fill:blue"/>
<circle cx="321" cy="5051" r="5" style="fill:blue"/>
<circle cx="376" cy="7455" r="5" style="fill:blue"/>
<circle cx="1228" cy="9787" r="5" style="fill:blue"/>
<circle cx="202" cy="6651" r="5" style="fill:blue"/>
<circle cx="631" cy="3168" r="5" style="fill:blue"/>
<circle cx="1412" cy="9832" r="5" style="fill:blue"/>
<circle cx="1194" cy="9400" r="5" style="fill:blue"/>
<circle cx="550" cy="6547" r="5" style="fill:blue"/>
<circle cx="325" cy="2457" r="5" style="fill:blue"/>
<circle cx="1465" cy="5509" r="5" style="fill:blue"/>
<circle cx="759" cy="1480" r="5" style="fill:blue"/>
<circle cx="433" cy="4260" r="5" style="fill:blue"/>
<circle cx="562" cy="4646" r="5" style="fill:blue"/>
<circle cx="310" cy="4874" r="5" style="fill:blue"/>
<circle cx="456" cy="8776" r="5" style="fill:blue"/>
<circle cx="776" cy="6970" r="5" style="fill:blue"/>
<circle cx="241" cy="9304" r="5" style="fill:blue"/>
<circle cx="820" cy="6177" r="5" style="fill:blue"/>
<circle cx="576" cy="1445" r="5" style="fill:blue"/>
<circle cx="769" cy="7978" r="5" style="fill:blue"/>
<circle cx="270" cy="3355" r="5" style="fill:blue"/>
<circle cx="462" cy="2644" r="5" style="fill:blue"/>
<circle cx="1225" cy="7815" r="5" style="fill:blue"/>
<circle cx="233" cy="6644" r="5" style="fill:blue"/>
<circle cx="1061" cy="9001" r="5" style="fill:blue"/>
<circle cx="1325" cy="6268" r="5" style="fill:blue"/>
<circle cx="752" cy="4723" r="5" style="fill:blue"/>
<circle cx="703" cy="1655" r="5" style="fill:blue"/>
<circle cx="113" cy="6186" r="5" style="fill:blue"/>
<circle cx="899" cy="6375" r="5" style="fill:blue"/>
<circle cx="735" cy="113" r="5" style="fill:blue"/>
<circle cx="316" cy="322" r="5" style="fill:blue"/>
<circle cx="632" cy="2435" r="5" style="fill:blue"/>
<circle cx="820" cy="9679" r="5" style="fill:blue"/>
<circle cx="260" cy="8337" r="5" style="fill:blue"/>
<circle cx="799" cy="5873" r="5" style="fill:blue"/>
<circle cx="1525" cy="5275" r="5" style="fill:blue"/>
<circle cx="703" cy="3186" r="5" style="fill:blue"/>
<circle cx="11" cy="3751" r="5" style="fill:blue"/>
<circle cx="217" cy="7708" r="5" style="fill:blue"/>
<circle cx="849" cy="6899" r="5" style="fill:blue"/>
<circle cx="422" cy="694" r="5" style="fill:blue"/>
<circle cx="333" cy="3558" r="5" style="fill:blue"/>
<circle cx="314" cy="2683" r="5" style="fill:blue"/>
<circle cx="14" cy="6820" r="5" style="fill:blue"/>
<circle cx="543" cy="4038" r="5" style="fill:blue"/>
<circle cx="1354" cy="9932" r="5" style="fill:blue"/>
<circle cx="24" cy="6521" r="5" style="fill:blue"/>
<circle cx="1319" cy="2220" r="5" style="fill:blue"/>
<circle cx="575" cy="6154" r="5" style="fill:blue"/>
<circle cx="177" cy="5378" r="5" style="fill:blue"/>
<circle cx="1297" cy="9170" r="5" style="fill:blue"/>
<circle cx="156" cy="6877" r="5" style="fill:blue"/>
<circle cx="447" cy="1794" r="5" style="fill:blue"/>
<circle cx="1096" cy="4680" r="5" style="fill:blue"/>
<circle cx="1462" cy="2906" r="5" style="fill:blue"/>
<circle cx="100" cy="5594" r="5" style="fill:blue"/>
<circle cx="21" cy="8207" r="5" style="fill:blue"/>
<circle cx="1429" cy="5352" r="5" style="fill:blue"/>
<circle cx="1312" cy="8847" r="5" style="fill:blue"/>
<circle cx="1101" cy="3980" r="5" style="fill:blue"/>
<circle cx="1186" cy="4009" r="5" style="fill:blue"/>
<circle cx="730" cy="5642" r="5" style="fill:blue"/>
<circle cx="603" cy="4792" r="5" style="fill:blue"/>
<circle cx="1391" cy="621" r="5" style="fill:blue"/>
<circle cx="730" cy="2207" r="5" style="fill:blue"/>
<circle cx="368" cy="1579" r="5" style="fill:blue"/>
<circle cx="1092" cy="5766" r="5" style="fill:blue"/>
<circle cx="162" cy="5839" r="5" style="fill:blue"/>
<circle cx="38" cy="1689" r="5" style="fill:blue"/>
<circle cx="235" cy="4250" r="5" style="fill:blue"/>
<circle cx="1385" cy="1967" r="5" style="fill:blue"/>
<circle cx="1135" cy="8273" r="5" style="fill:blue"/>
<circle cx="822" cy="4623" r="5" style="fill:blue"/>
<circle cx="1328" cy="3425" r="5" style="fill:blue"/>
<circle cx="1258" cy="5033" r="5" style="fill:blue"/>
<circle cx="1006" cy="5177" r="5" style="fill:blue"/>
<circle cx="266" cy="5264" r="5" style="fill:blue"/>
<circle cx="270" cy="1677" r="5" style="fill:blue"/>
<circle cx="1143" cy="5659" r="5" style="fill:blue"/>
<circle cx="67" cy="9293" r="5" style="fill:blue"/>
<circle cx="805" cy="9549" r="5" style="fill:blue"/>
<circle cx="1153" cy="8829" r="5" style="fill:blue"/>
<circle cx="350" cy="9115" r="5" style="fill:blue"/>
<circle cx="1538" cy="4120" r="5" style="fill:blue"/>
<circle cx="189" cy="1475" r="5" style="fill:blue"/>
<circle cx="1542" cy="130" r="5" style="fill:blue"/>
<circle cx="919" cy="268" r="5" style="fill:blue"/>
<circle cx="918" cy="7158" r="5" style="fill:blue"/>
<circle cx="509" cy="6350" r="5" style="fill:blue"/>
<circle cx="872" cy="643" r="5" style="fill:blue"/>
<circle cx="1288" cy="8387" r="5" style="fill:blue"/>
<circle cx="1242" cy="4059" r="5" style="fill:blue"/>
<circle cx="601" cy="7836" r="5" style="fill:blue"/>
<circle cx="125" cy="1980" r="5" style="fill:blue"/>
<circle cx="698" cy="4160" r="5" style="fill:blue"/>
<circle cx="70" cy="9464" r="5" style="fill:blue"/>
<circle cx="1172" cy="7896" r="5" style="fill:blue"/>
<circle cx="359" cy="8650" r="5" style="fill:blue"/>
<circle cx="457" cy="7656" r="5" style="fill:blue"/>
<circle cx="1306" cy="9816" r="5" style="fill:blue"/>
<circle cx="893" cy="641" r="5" style="fill:blue"/>
<circle cx="1544" cy="8848" r="5" style="fill:blue"/>
<circle cx="50" cy="2132" r="5" style="fill:blue"/>
<circle cx="1357" cy="975" r="5" style="fill:blue"/>
<circle cx="1103" cy="4038" r="5" style="fill:blue"/>
<circle cx="95" cy="6829" r="5" style="fill:blue"/>
<circle cx="667" cy="5349" r="5" style="fill:blue"/>
<circle cx="782" cy="765" r="5" style="fill:blue"/>
<circle cx="204" cy="875" r="5" style="fill:blue"/>
<circle cx="509" cy="7799" r="5" style="fill:blue"/>
<circle cx="69" cy="909" r="5" style="fill:blue"/>
<circle cx="642" cy="9915" r="5" style="fill:blue"/>
<circle cx="440" cy="6481" r="5" style="fill:blue"/>
<circle cx="373" cy="334" r="5" style="fill:blue"/>
<circle cx="1" cy="5026" r="5" style="fill:blue"/>
<circle cx="205" cy="5654" r="5" style="fill:blue"/>
<circle cx="28" cy="3849" r="5" style="fill:blue"/>
<circle cx="1011" cy="5707" r="5" style="fill:blue"/>
<circle cx="924" cy="5488" r="5" style="fill:blue"/>
<circle cx="610" cy="591" r="5" style="fill:blue"/>
<circle cx="137" cy="5813" r="5" style="fill:blue"/>
<circle cx="576" cy="951" r="5" style="fill:blue"/>
<circle cx="1427" cy="8115" r="5" style="fill:blue"/>
<circle cx="114" cy="8041" r="5" style="fill:blue"/>
<circle cx="41" cy="3754" r="5" style="fill:blue"/>
<circle cx="92" cy="3564" r="5" style="fill:blue"/>
<circle cx="34" cy="7338" r="5" style="fill:blue"/>
<circle cx="1241" cy="7940" r="5" style="fill:blue"/>
<circle cx="874" cy="8798" r="5" style="fill:blue"/>
<circle cx="701" cy="5118" r="5" style="fill:blue"/>
<circle cx="1376" cy="5644" r="5" style="fill:blue"/>
<circle cx="1329" cy="3400" r="5" style="fill:blue"/>
<circle cx="838" cy="9751" r="5" style="fill:blue"/>
<circle cx="368" cy="4714" r="5" style="fill:blue"/>
<circle cx="635" cy="7726" r="5" style="fill:blue"/>
<circle cx="366" cy="3389" r="5" style="fill:blue"/>
<circle cx="733" cy="2603" r="5" style="fill:blue"/>
<circle cx="394" cy="4405" r="5" style="fill:blue"/>
<circle cx="1507" cy="4480" r="5" style="fill:blue"/>
<circle cx="172" cy="9297" r="5" style="fill:blue"/>
<circle cx="1497" cy="2442" r="5" style="fill:blue"/>
<circle cx="116" cy="4868" r="5" style="fill:blue"/>
<circle cx="1381" cy="8943" r="5" style="fill:blue"/>
<circle cx="1424" cy="2605" r="5" style="fill:blue"/>
<circle cx="1295" cy="596" r="5" style="fill:blue"/>
<circle cx="1039" cy="250" r="5" style="fill:blue"/>
<circle cx="1323" cy="4537" r="5" style="fill:blue"/>
<circle cx="679" cy="9398" r="5" style="fill:blue"/>
<circle cx="780" cy="1685" r="5" style="fill:blue"/>
<circle cx="1241" cy="5119" r="5" style="fill:blue"/>
<circle cx="750" cy="6714" r="5" style="fill:blue"/>
<circle cx="425" cy="7651" r="5" style="fill:blue"/>
<circle cx="1392" cy="8789" r="5" style="fill:blue"/>
<circle cx="121" cy="2365" r="5" style="fill:blue"/>
<circle cx="1143" cy="9108" r="5" style="fill:blue"/>
<circle cx="1348" cy="6981" r="5" style="fill:blue"/>
<circle cx="290" cy="4763" r="5" style="fill:blue"/>
<circle cx="654" cy="2274" r="5" style="fill:blue"/>
<circle cx="315" cy="1250" r="5" style="fill:blue"/>
<circle cx="350" cy="2524" r="5" style="fill:blue"/>
<circle cx="1010" cy="9553" r="5" style="fill:blue"/>
<circle cx="1515" cy="3707" r="5" style="fill:blue"/>
<circle cx="703" cy="840" r="5" style="fill:blue"/>
<circle cx="1046" cy="7696" r="5" style="fill:blue"/>
<circle cx="1468" cy="9030" r="5" style="fill:blue"/>
<circle cx="87" cy="9275" r="5" style="fill:blue"/>
<circle cx="1094" cy="8576" r="5" style="fill:blue"/>
<circle cx="474" cy="8108" r="5" style="fill:blue"/>
<circle cx="1050" cy="779" r="5" style="fill:blue"/>
<circle cx="758" cy="2243" r="5" style="fill:blue"/>
<circle cx="574" cy="1509" r="5" style="fill:blue"/>
<circle cx="497" cy="7334" r="5" style="fill:blue"/>
<circle cx="290" cy="8324" r="5" style="fill:blue"/>
<circle cx="1374" cy="3350" r="5" style="fill:blue"/>
<circle cx="1062" cy="8337" r="5" style="fill:blue"/>
<circle cx="954" cy="257" r="5" style="fill:blue"/>
<circle cx="391" cy="7381" r="5" style="fill:blue"/>
<circle cx="782" cy="5327" r="5" style="fill:blue"/>
<circle cx="568" cy="2986" r="5" style="fill:blue"/>
<circle cx="916" cy="3842" r="5" style="fill:blue"/>
<circle cx="144" cy="2806" r="5" style="fill:blue"/>
<circle cx="907" cy="9265" r="5" style="fill:blue"/>
<circle cx="567" cy="2347" r="5" style="fill:blue"/>
<circle cx="146" cy="7939" r="5" style="fill:blue"/>
<circle cx="388" cy="3447" r="5" style="fill:blue"/>
<circle cx="174" cy="2604" r="5" style="fill:blue"/>
<circle cx="511" cy="1956" r="5" style="fill:blue"/>
<circle cx="98" cy="6871" r="5" style="fill:blue"/>
<circle cx="732" cy="8148" r="5" style="fill:blue"/>
<circle cx="1401" cy="1001" r="5" style="fill:blue"/>
<circle cx="476" cy="5115" r="5" style="fill:blue"/>
<circle cx="626" cy="2311" r="5" style="fill:blue"/>
<circle cx="774" cy="3220" r="5" style="fill:blue"/>
<circle cx="34" cy="3381" r="5" style="fill:blue"/>
<circle cx="196" cy="991" r="5" style="fill:blue"/>
<circle cx="1273" cy="6233" r="5" style="fill:blue"/>
<circle cx="1528" cy="6321" r="5" style="fill:blue"/>
<circle cx="7" cy="3624" r="5" style="fill:blue"/>
<circle cx="435" cy="5574" r="5" style="fill:blue"/>
<circle cx="845" cy="9623" r="5" style="fill:blue"/>
<circle cx="870" cy="5253" r="5" style="fill:blue"/>
<circle cx="1324" cy="3656" r="5" style="fill:blue"/>
<circle cx="216" cy="6382" r="5" style="fill:blue"/>
<circle cx="224" cy="6325" r="5" style="fill:blue"/>
<circle cx="763" cy="5313" r="5" style="fill:blue"/>
<circle cx="1040" cy="9816" r="5" style="fill:blue"/>
<circle cx="162" cy="277" r="5" style="fill:blue"/>
<circle cx="1267" cy="9155" r="5" style="fill:blue"/>
<circle cx="1413" cy="728" r="5" style="fill:blue"/>
<circle cx="1396" cy="116" r="5" style="fill:blue"/>
<circle cx="365" cy="4585" r="5" style="fill:blue"/>
<circle cx="623" cy="3324" r="5" style="fill:blue"/>
<circle cx="237" cy="1156" r="5" style="fill:blue"/>
<circle cx="35" cy="6603" r="5" style="fill:blue"/>
<circle cx="33" cy="2228" r="5" style="fill:blue"/>
<circle cx="555" cy="6798" r="5" style="fill:blue"/>
<circle cx="1434" cy="4220" r="5" style="fill:blue"/>
<circle cx="1110" cy="5550" r="5" style="fill:blue"/>
<circle cx="99" cy="2455" r="5" style="fill:blue"/>
<circle cx="929" cy="9058" r="5" style="fill:blue"/>
<circle cx="407" cy="8647" r="5" style="fill:blue"/>
<circle cx="249" cy="8475" r="5" style="fill:blue"/>
<circle cx="1125" cy="6910" r="5" style="fill:blue"/>
<circle cx="696" cy="7423" r="5" style="fill:blue"/>
<circle cx="904" cy="619" r="5" style="fill:blue"/>
<circle cx="1302" cy="4442" r="5" style="fill:blue"/>
<circle cx="20" cy="1861" r="5" style="fill:blue"/>
<circle cx="1449" cy="4320" r="5" style="fill:blue"/>
<circle cx="798" cy="6063" r="5" style="fill:blue"/>
<circle cx="460" cy="5939" r="5" style="fill:blue"/>
<circle cx="1502" cy="4557" r="5" style="fill:blue"/>
<circle cx="459" cy="1951" r="5" style="fill:blue"/>
<circle cx="941" cy="6347" r="5" style="fill:blue"/>
<circle cx="577" cy="8027" r="5" style="fill:blue"/>
<circle cx="521" cy="7089" r="5" style="fill:blue"/>
<circle cx="371" cy="6454" r="5" style="fill:blue"/>
<circle cx="137" cy="4506" r="5" style="fill:blue"/>
<circle cx="103" cy="834" r="5" style="fill:blue"/>
<circle cx="685" cy="1492" r="5" style="fill:blue"/>
<circle cx="1379" cy="5253" r="5" style="fill:blue"/>
<circle cx="1390" cy="711" r="5" style="fill:blue"/>
<circle cx="26" cy="2383" r="5" style="fill:blue"/>
<circle cx="213" cy="6162" r="5" style="fill:blue"/>
<circle cx="779" cy="6232" r="5" style="fill:blue"/>
<circle cx="212" cy="4174" r="5" style="fill:blue"/>
<circle cx="553" cy="803" r="5" style="fill:blue"/>
<circle cx="1262" cy="9171" r="5" style="fill:blue"/>
<circle cx="988" cy="5242" r="5" style="fill:blue"/>
<circle cx="1531" cy="4577" r="5" style="fill:blue"/>
<circle cx="204" cy="2722" r="5" style="fill:blue"/>
<circle cx="67" cy="7529" r="5" style="fill:blue"/>
<circle cx="1342" cy="8383" r="5" style="fill:blue"/>
<circle cx="475" cy="8121" r="5" style="fill:blue"/>
<circle cx="571" cy="1165" r="5" style="fill:blue"/>
<circle cx="674" cy="3303" r="5" style="fill:blue"/>
<circle cx="1537" cy="4611" r="5" style="fill:blue"/>
<circle cx="243" cy="668" r="5" style="fill:blue"/>
<circle cx="1086" cy="6214" r="5" style="fill:blue"/>
<circle cx="217" cy="2468" r="5" style="fill:blue"/>
<circle cx="153" cy="7668" r="5" style="fill:blue"/>
<circle cx="699" cy="6635" r="5" style="fill:blue"/>
<circle cx="87" cy="7307" r="5" style="fill:blue"/>
<circle cx="1432" cy="1343" r="5" style="fill:blue"/>
<circle cx="1098" cy="7342" r="5" style="fill:blue"/>
<circle cx="585" cy="1064" r="5" style="fill:blue"/>
<circle cx="63" cy="9735" r="5" style="fill:blue"/>
<circle cx="383" cy="3235" r="5" style="fill:blue"/>
<circle cx="202" cy="1553" r="5" style="fill:blue"/>
<circle cx="16" cy="3009" r="5" style="fill:blue"/>
<circle cx="449" cy="3916" r="5" style="fill:blue"/>
<circle cx="778" cy="9097" r="5" style="fill:blue"/>
<circle cx="603" cy="8169" r="5" style="fill:blue"/>
<circle cx="1154" cy="4036" r="5" style="fill:blue"/>
<circle cx="1530" cy="9527" r="5" style="fill:blue"/>
<circle cx="698" cy="95" r="5" style="fill:blue"/>
<circle cx="1144" cy="5203" r="5" style="fill:blue"/>
<circle cx="1438" cy="1214" r="5" style="fill:blue"/>
<circle cx="103" cy="2401" r="5" style="fill:blue"/>
<circle cx="1216" cy="357" r="5" style="fill:blue"/>
<circle cx="844" cy="4305" r="5" style="fill:blue"/>
<circle cx="1203" cy="3936" r="5" style="fill:blue"/>
<circle cx="462" cy="8427" r="5" style="fill:blue"/>
<circle cx="213" cy="4609" r="5" style="fill:blue"/>
<circle cx="1320" cy="490" r="5" style="fill:blue"/>
<circle cx="106" cy="2706" r="5" style="fill:blue"/>
<circle cx="526" cy="2167" r="5" style="fill:blue"/>
<circle cx="54" cy="5299" r="5" style="fill:blue"/>
<circle cx="1329" cy="2542" r="5" style="fill:blue"/>
<circle cx="869" cy="8205" r="5" style="fill:blue"/>
<circle cx="1425" cy="8202" r="5" style="fill:blue"/>
<circle cx="1157" cy="7509" r="5" style="fill:blue"/>
<circle cx="133" cy="6366" r="5" style="fill:blue"/>
<circle cx="1408" cy="5017" r="5" style="fill:blue"/>
<circle cx="536" cy="2076" r="5" style="fill:blue"/>
<circle cx="608" cy="101" r="5" style="fill:blue"/>
<circle cx="1397" cy="6753" r="5" style="fill:blue"/>
<circle cx="819" cy="7151" r="5" style="fill:blue"/>
<circle cx="1454" cy="5120" r="5" style="fill:blue"/>
<circle cx="600" cy="9430" r="5" style="fill:blue"/>
<circle cx="307" cy="7341" r="5" style="fill:blue"/>
<circle cx="521" cy="2528" r="5" style="fill:blue"/>
<circle cx="115" cy="2518" r="5" style="fill:blue"/>
<circle cx="386" cy="6252" r="5" style="fill:blue"/>
<circle cx="981" cy="7380" r="5" style="fill:blue"/>
<circle cx="1447" cy="9857" r="5" style="fill:blue"/>
<circle cx="425" cy="4331" r="5" style="fill:blue"/>
<circle cx="1403" cy="6544" r="5" style="fill:blue"/>
<circle cx="634" cy="8171" r="5" style="fill:blue"/>
<circle cx="1203" cy="9201" r="5" style="fill:blue"/>
<circle cx="212" cy="7224" r="5" style="fill:blue"/>
<circle cx="367" cy="9460" r="5" style="fill:blue"/>
<circle cx="748" cy="976" r="5" style="fill:blue"/>
<circle cx="1516" cy="7338" r="5" style="fill:blue"/>
<circle cx="619" cy="5923" r="5" style="fill:blue"/>
<circle cx="940" cy="9147" r="5" style="fill:blue"/>
<circle cx="206" cy="4933" r="5" style="fill:blue"/>
<circle cx="946" cy="7846" r="5" style="fill:blue"/>
<circle cx="303" cy="5874" r="5" style="fill:blue"/>
<circle cx="324" cy="1424" r="5" style="fill:blue"/>
<circle cx="302" cy="5078" r="5" style="fill:blue"/>
<circle cx="238" cy="9297" r="5" style="fill:blue"/>
<circle cx="903" cy="7507" r="5" style="fill:blue"/>
<circle cx="1366" cy="4203" r="5" style="fill:blue"/>
<circle cx="1528" cy="9886" r="5" style="fill:blue"/>
<circle cx="97" cy="9036" r="5" style="fill:blue"/>
<circle cx="447" cy="2558" r="5" style="fill:blue"/>
<circle cx="1309" cy="6492" r="5" style="fill:blue"/>
<circle cx="688" cy="5455" r="5" style="fill:blue"/>
<circle cx="108" cy="7798" r="5" style="fill:blue"/>
<circle cx="659" cy="973" r="5" style="fill:blue"/>
<circle cx="700" cy="7697" r="5" style="fill:blue"/>
<circle cx="449" cy="3578" r="5" style="fill:blue"/>
<circle cx="680" cy="6329" r="5" style="fill:blue"/>
<circle cx="114" cy="8670" r="5" style="fill:blue"/>
<circle cx="26" cy="5548" r="5" style="fill:blue"/>
<circle cx="104" cy="2254" r="5" style="fill:blue"/>
<circle cx="659" cy="5039" r="5" style="fill:blue"/>
<circle cx="918" cy="5787" r="5" style="fill:blue"/>
<circle cx="259" cy="2440" r="5" style="fill:blue"/>
<circle cx="93" cy="1100" r="5" style="fill:blue"/>
<circle cx="1257" cy="5467" r="5" style="fill:blue"/>
<circle cx="860" cy="9938" r="5" style="fill:blue"/>
<circle cx="27" cy="718" r="5" style="fill:blue"/>
<circle cx="694" cy="5001" r="5" style="fill:blue"/>
<circle cx="1200" cy="956" r="5" style="fill:blue"/>
<circle cx="1386" cy="5394" r="5" style="fill:blue"/>
<circle cx="836" cy="923" r="5" style="fill:blue"/>
<circle cx="668" cy="8125" r="5" style="fill:blue"/>
<circle cx="943" cy="4703" r="5" style="fill:blue"/>
<circle cx="1046" cy="5993" r="5" style="fill:blue"/>
<circle cx="316" cy="3719" r="5" style="fill:blue"/>
<circle cx="366" cy="9317" r="5" style="fill:blue"/>
<circle cx="915" cy="7546" r="5" style="fill:blue"/>
<circle cx="798" cy="7266" r="5" style="fill:blue"/>
<circle cx="742" cy="3087" r="5" style="fill:blue"/>
<circle cx="430" cy="4962" r="5" style="fill:blue"/>
<circle cx="874" cy="6388" r="5" style="fill:blue"/>
<circle cx="260" cy="3212" r="5" style="fill:blue"/>
<circle cx="683" cy="1991" r="5" style="fill:blue"/>
<circle cx="1303" cy="9493" r="5" style="fill:blue"/>
<circle cx="1266" cy="7859" r="5" style="fill:blue"/>
<circle cx="1346" cy="2220" r="5" style="fill:blue"/>
<circle cx="1108" cy="5278" r="5" style="fill:blue"/>
<circle cx="506" cy="7395" r="5" style="fill:blue"/>
<circle cx="1532" cy="1772" r="5" style="fill:blue"/>
<circle cx="382" cy="3696" r="5" style="fill:blue"/>
<circle cx="663" cy="3012" r="5" style="fill:blue"/>
<circle cx="8" cy="1673" r="5" style="fill:blue"/>
<circle cx="1030" cy="8593" r="5" style="fill:blue"/>
<circle cx="1407" cy="2455" r="5" style="fill:blue"/>
<circle cx="1339" cy="9654" r="5" style="fill:blue"/>
<circle cx="389" cy="2942" r="5" style="fill:blue"/>
<circle cx="1" cy="1198" r="5" style="fill:blue"/>
<circle cx="1478" cy="4292" r="5" style="fill:blue"/>
<circle cx="771" cy="9136" r="5" style="fill:blue"/>
<circle cx="219" cy="5875" r="5" style="fill:blue"/>
<circle cx="1362" cy="9926" r="5" style="fill:blue"/>
<circle cx="1270" cy="5584" r="5" style="fill:blue"/>
<circle cx="720" cy="1492" r="5" style="fill:blue"/>
<circle cx="1185" cy="3907" r="5" style="fill:blue"/>
<circle cx="976" cy="9085" r="5" style="fill:blue"/>
<circle cx="724" cy="223" r="5" style="fill:blue"/>
<circle cx="617" cy="2538" r="5" style="fill:blue"/>
<circle cx="1106" cy="5701" r="5" style="fill:blue"/>
<circle cx="78" cy="9039" r="5" style="fill:blue"/>
<circle cx="144" cy="8709" r="5" style="fill:blue"/>
<circle cx="793" cy="20" r="18" style="stroke-width:5;fill:gray;fill-opacity:0.3"/>
<circle cx="793" cy="60" r="18" style="stroke-width:5;fill:gray;fill-opacity:0.3"/>
<circle cx="793" cy="100" r="18" style="stroke-width:5;fill:gray;fill-opacity:0.3"/>
<circle cx="793" cy="140" r="18" style="stroke-width:5;fill:gray;fill-opacity:0.3"/>
<circle cx="793" cy="180" r="18" style="stroke-width:5;fill:gray;fill-opacity:0.3"/>
<circle cx="793" cy="220" r="18" style="stroke-width:5;fill:gray;fill-opacity:0.3"/>
<circle cx="793" cy="260" r="18" style="stroke-width:5;fill:gray;fill-opacity:0.3"/>
<circle cx="793" cy="300" r="18" style="stroke-width:5;fill:gray;fill-opacity:0.3"/>
<circle cx="793" cy="340" r="18" style="stroke-width:5;fill:gray;fill-opacity:0.3"/>
<circle cx="793" cy="380" r="18" style="stroke-width:5;fill:gray;fill-opacity:0.3"/>
<circle cx="793" cy="420" r="18" style="stroke-width:5;fill:gray;fill-opacity:0.3"/>
<circle cx="793" cy="460" r="18" style="stroke-width:5;fill:gray;fill-opacity:0.3"/>
<circle cx="793" cy="500" r="18" style="stroke-width:5;fill:gray;fill-opacity:0.3"/>
<circle cx="793" cy="540" r="18" style="stroke-width:5;fill:gray;fill-opacity:0.3"/>
<circle cx="793" cy="580" r="18" style="stroke-width:5;fill:gray;fill-opacity:0.3"/>
<circle cx="793" cy="620" r="18" style="stroke-width:5;fill:gray;fill-opacity:0.3"/>
<circle cx="793" cy="660" r="18" style="stroke-width:5;fill:gray;fill-opacity:0.3"/>
<circle cx="793" cy="700" r="18" style="stroke-width:5;fill:gray;fill-opacity:0.3"/>
<circle cx="793" cy="740" r="18" style="stroke-width:5;fill:gray;fill-opacity:0.3"/>
<circle cx="793" cy="780" r="18" style="stroke-width:5;fill:gray;fill-opacity:0.3"/>
<circle cx="793" cy="820" r="18" style="stroke-width:5;fill:gray;fill-opacity:0.3"/>
<circle cx="793" cy="860" r="18" style="stroke-width:5;fill:gray;fill-opacity:0.3"/>
<circle cx="793" cy="900" r="18" style="stroke-width:5;fill:gray;fill-opacity:0.3"/>
<circle cx="793" cy="940" r="18" style="stroke-width:5;fill:gray;fill-opacity:0.3"/>
<circle cx="793" cy="980" r="18" style="stroke-width:5;fill:gray;fill-opacity:0.3"/>
<circle cx="1304" cy="20" r="18" style="stroke-width:5;fill:gray;fill-opacity:0.3"/>
<circle cx="1304" cy="60" r="18" style="stroke-width:5;fill:gray;fill-opacity:0.3"/>
<circle cx="1304" cy="100" r="18" style="stroke-width:5;fill:gray;fill-opacity:0.3"/>
<circle cx="1304" cy="140" r="18" style="stroke-width:5;fill:gray;fill-opacity:0.3"/>
<circle cx="1304" cy="180" r="18" style="stroke-width:5;fill:gray;fill-opacity:0.3"/>
<circle cx="1304" cy="220" r="18" style="stroke-width:5;fill:gray;fill-opacity:0.3"/>
<circle cx="1304" cy="260" r="18" style="stroke-width:5;fill:gray;fill-opacity:0.3"/>
<circle cx="1304" cy="300" r="18" style="stroke-width:5;fill:gray;fill-opacity:0.3"/>
<circle cx="1304" cy="340" r="18" style="stroke-width:5;fill:gray;fill-opacity:0.3"/>
<circle cx="1304" cy="380" r="18" style="stroke-width:5;fill:gray;fill-opacity:0.3"/>
<circle cx="1304" cy="420" r="18" style="stroke-width:5;fill:gray;fill-opacity:0.3"/>
<circle cx="1304" cy="460" r="18" style="stroke-width:5;fill:gray;fill-opacity:0.3"/>
<circle cx="1304" cy="500" r="18" style="stroke-width:5;fill:gray;fill-opacity:0.3"/>
<circle cx="1304" cy="540" r="18" style="stroke-width:5;fill:gray;fill-opacity:0.3"/>
<circle cx="1304" cy="580" r="18" style="stroke-width:5;fill:gray;fill-opacity:0.3"/>
<circle cx="1304" cy="620" r="18" style="stroke-width:5;fill:gray;fill-opacity:0.3"/>
<circle cx="1304" cy="660" r="18" style="stroke-width:5;fill:gray;fill-opacity:0.3"/>
<circle cx="1304" cy="700" r="18" style="stroke-width:5;fill:gray;fill-opacity:0.3"/>
<circle cx="1304" cy="740" r="18" style="stroke-width:5;fill:gray;fill-opacity:0.3"/>
<circle cx="1304" cy="780" r="18" style="stroke-width:5;fill:gray;fill-opacity:0.3"/>
<circle cx="1304" cy="820" r="18" style="stroke-width:5;fill:gray;fill-opacity:0.3"/>
<circle cx="1304" cy="860" r="18" style="stroke-width:5;fill:gray;fill-opacity:0.3"/>
<circle cx="1304" cy="900" r="18" style="stroke-width:5;fill:gray;fill-opacity:0.3"/>
<circle cx="1304" cy="940" r="18" style="stroke-width:5;fill:gray;fill-opacity:0.3"/>
<circle cx="1304" cy="980" r="18" style="stroke-width:5;fill:gray;fill-opacity:0.3"/>
</svg>