<svg viewBox="0 0 8624 6031" xmlns="http://www.w3.org/2000/svg">
<rect height="519" style="stroke:pink;stroke-width:10;fill:gray;fill-opacity:0.1;stroke-opacity:0.9" width="1082" x="6232" y="5050"/>
<circle cx="8028" cy="5079" r="5" style="fill:blue"/>
<circle cx="4306" cy="3247" r="5" style="fill:blue"/>
<circle cx="1617" cy="5877" r="5" style="fill:blue"/>
<circle cx="5388" cy="1177" r="5" style="fill:blue"/>
<circle cx="907" cy="373" r="5" style="fill:blue"/>
<circle cx="1250" cy="1574" r="5" style="fill:blue"/>
<circle cx="7002" cy="6001" r="5" style="fill:blue"/>
<circle cx="7903" cy="5684" r="5" style="fill:blue"/>
<circle cx="4430" cy="4470" r="5" style="fill:blue"/>
<circle cx="4058" cy="656" r="5" style="fill:blue"/>
<circle cx="4829" cy="2360" r="5" style="fill:blue"/>
<circle cx="7063" cy="249" r="5" style="fill:blue"/>
<circle cx="3052" cy="2234" r="5" style="fill:blue"/>
<circle cx="5538" cy="4453" r="5" style="fill:blue"/>
<circle cx="5771" cy="4436" r="5" style="fill:blue"/>
<circle cx="2609" cy="1800" r="5" style="fill:blue"/>
<circle cx="8262" cy="2235" r="5" style="fill:blue"/>
<circle cx="4521" cy="3650" r="5" style="fill:blue"/>
<circle cx="1053" cy="5686" r="5" style="fill:blue"/>
<circle cx="7922" cy="3491" r="5" style="fill:blue"/>
<circle cx="3147" cy="4715" r="5" style="fill:blue"/>
<circle cx="1599" cy="138" r="5" style="fill:blue"/>
<circle cx="3089" cy="2085" r="5" style="fill:blue"/>
<circle cx="1175" cy="365" r="5" style="fill:blue"/>
<circle cx="7717" cy="5105" r="5" style="fill:blue"/>
<circle cx="5950" cy="3638" r="5" style="fill:blue"/>
<circle cx="7161" cy="836" r="5" style="fill:blue"/>
<circle cx="746" cy="4685" r="5" style="fill:blue"/>
<circle cx="2841" cy="5708" r="5" style="fill:blue"/>
<circle cx="6703" cy="1762" r="5" style="fill:blue"/>
<circle cx="4555" cy="303" r="5" style="fill:blue"/>
<circle cx="5969" cy="2553" r="5" style="fill:blue"/>
<circle cx="586" cy="2300" r="5" style="fill:blue"/>
<circle cx="5040" cy="5900" r="5" style="fill:blue"/>
<circle cx="7067" cy="2077" r="5" style="fill:blue"/>
<circle cx="8334" cy="456" r="5" style="fill:blue"/>
<circle cx="5059" cy="5338" r="5" style="fill:blue"/>
<circle cx="4189" cy="3980" r="5" style="fill:blue"/>
<circle cx="553" cy="4550" r="5" style="fill:blue"/>
<circle cx="7749" cy="3540" r="5" style="fill:blue"/>
<circle cx="8070" cy="2013" r="5" style="fill:blue"/>
<circle cx="2120" cy="3587" r="5" style="fill:blue"/>
<circle cx="5422" cy="4702" r="5" style="fill:blue"/>
<circle cx="530" cy="2707" r="5" style="fill:blue"/>
<circle cx="2316" cy="224" r="5" style="fill:blue"/>
<circle cx="1867" cy="5724" r="5" style="fill:blue"/>
<circle cx="4551" cy="3632" r="5" style="fill:blue"/>
<circle cx="5188" cy="3173" r="5" style="fill:blue"/>
<circle cx="1606" cy="5258" r="5" style="fill:blue"/>
<circle cx="6493" cy="4826" r="5" style="fill:blue"/>
<circle cx="8574" cy="5812" r="5" style="fill:blue"/>
<circle cx="3829" cy="1701" r="5" style="fill:blue"/>
<circle cx="4591" cy="5951" r="5" style="fill:blue"/>
<circle cx="1743" cy="2346" r="5" style="fill:blue"/>
<circle cx="2262" cy="1922" r="5" style="fill:blue"/>
<circle cx="6489" cy="3919" r="5" style="fill:blue"/>
<circle cx="680" cy="3220" r="5" style="fill:blue"/>
<circle cx="6716" cy="286" r="5" style="fill:blue"/>
<circle cx="298" cy="945" r="5" style="fill:blue"/>
<circle cx="3519" cy="5813" r="5" style="fill:blue"/>
<circle cx="7945" cy="5522" r="5" style="fill:blue"/>
<circle cx="2871" cy="2508" r="5" style="fill:blue"/>
<circle cx="2487" cy="852" r="5" style="fill:blue"/>
<circle cx="5545" cy="5107" r="5" style="fill:blue"/>
<circle cx="3033" cy="2666" r="5" style="fill:blue"/>
<circle cx="4712" cy="1330" r="5" style="fill:blue"/>
<circle cx="3698" cy="5837" r="5" style="fill:blue"/>
<circle cx="6723" cy="1524" r="5" style="fill:blue"/>
<circle cx="5418" cy="1321" r="5" style="fill:blue"/>
<circle cx="7643" cy="2432" r="5" style="fill:blue"/>
<circle cx="6126" cy="3544" r="5" style="fill:blue"/>
<circle cx="1042" cy="1584" r="5" style="fill:blue"/>
<circle cx="3523" cy="1644" r="5" style="fill:blue"/>
<circle cx="6227" cy="3500" r="5" style="fill:blue"/>
<circle cx="173" cy="2975" r="5" style="fill:blue"/>
<circle cx="2631" cy="1502" r="5" style="fill:blue"/>
<circle cx="1426" cy="567" r="5" style="fill:blue"/>
<circle cx="2212" cy="1341" r="5" style="fill:blue"/>
<circle cx="7863" cy="4212" r="5" style="fill:blue"/>
<circle cx="845" cy="5076" r="5" style="fill:blue"/>
<circle cx="144" cy="5485" r="5" style="fill:blue"/>
<circle cx="8361" cy="3987" r="5" style="fill:blue"/>
<circle cx="4887" cy="3222" r="5" style="fill:blue"/>
<circle cx="6269" cy="1327" r="5" style="fill:blue"/>
<circle cx="6892" cy="5793" r="5" style="fill:blue"/>
<circle cx="3033" cy="4407" r="5" style="fill:blue"/>
<circle cx="7283" cy="4577" r="5" style="fill:blue"/>
<circle cx="4591" cy="1870" r="5" style="fill:blue"/>
<circle cx="1538" cy="3835" r="5" style="fill:blue"/>
<circle cx="6174" cy="1788" r="5" style="fill:blue"/>
<circle cx="5106" cy="5899" r="5" style="fill:blue"/>
<circle cx="2342" cy="4173" r="5" style="fill:blue"/>
<circle cx="634" cy="3978" r="5" style="fill:blue"/>
<circle cx="6455" cy="3576" r="5" style="fill:blue"/>
<circle cx="7253" cy="5017" r="5" style="fill:blue"/>
<circle cx="938" cy="2315" r="5" style="fill:blue"/>
<circle cx="4128" cy="5163" r="5" style="fill:blue"/>
<circle cx="5418" cy="506" r="5" style="fill:blue"/>
<circle cx="2881" cy="1217" r="5" style="fill:blue"/>
<circle cx="3864" cy="5958" r="5" style="fill:blue"/>
<circle cx="5833" cy="4956" r="5" style="fill:blue"/>
<circle cx="4195" cy="1258" r="5" style="fill:blue"/>
<circle cx="6033" cy="5017" r="5" style="fill:blue"/>
<circle cx="7311" cy="1881" r="5" style="fill:blue"/>
<circle cx="6510" cy="3522" r="5" style="fill:blue"/>
<circle cx="2962" cy="5619" r="5" style="fill:blue"/>
<circle cx="172" cy="4000" r="5" style="fill:blue"/>
<circle cx="8616" cy="2135" r="5" style="fill:blue"/>
<circle cx="5512" cy="414" r="5" style="fill:blue"/>
<circle cx="5621" cy="3787" r="5" style="fill:blue"/>
<circle cx="7121" cy="4144" r="5" style="fill:blue"/>
<circle cx="3175" cy="1775" r="5" style="fill:blue"/>
<circle cx="6102" cy="2782" r="5" style="fill:blue"/>
<circle cx="1978" cy="5104" r="5" style="fill:blue"/>
<circle cx="2660" cy="5010" r="5" style="fill:blue"/>
<circle cx="6163" cy="3622" r="5" style="fill:blue"/>
<circle cx="5457" cy="2917" r="5" style="fill:blue"/>
<circle cx="8545" cy="4487" r="5" style="fill:blue"/>
<circle cx="1804" cy="4211" r="5" style="fill:blue"/>
<circle cx="5121" cy="6006" r="5" style="fill:blue"/>
<circle cx="3650" cy="3691" r="5" style="fill:blue"/>
<circle cx="7777" cy="2066" r="5" style="fill:blue"/>
<circle cx="8572" cy="1318" r="5" style="fill:blue"/>
<circle cx="6095" cy="5169" r="5" style="fill:blue"/>
<circle cx="7702" cy="875" r="5" style="fill:blue"/>
<circle cx="4579" cy="4339" r="5" style="fill:blue"/>
<circle cx="8055" cy="329" r="5" style="fill:blue"/>
<circle cx="3347" cy="5553" r="5" style="fill:blue"/>
<circle cx="7671" cy="5409" r="5" style="fill:blue"/>
<circle cx="3765" cy="5162" r="5" style="fill:blue"/>
<circle cx="2238" cy="3975" r="5" style="fill:blue"/>
<circle cx="8282" cy="4657" r="5" style="fill:blue"/>
<circle cx="2829" cy="780" r="5" style="fill:blue"/>
<circle cx="5992" cy="4665" r="5" style="fill:blue"/>
<circle cx="2956" cy="5209" r="5" style="fill:blue"/>
<circle cx="672" cy="2374" r="5" style="fill:blue"/>
<circle cx="42" cy="2209" r="5" style="fill:blue"/>
<circle cx="6971" cy="3828" r="5" style="fill:blue"/>
<circle cx="4095" cy="1450" r="5" style="fill:blue"/>
<circle cx="1087" cy="1945" r="5" style="fill:blue"/>
<circle cx="3480" cy="952" r="5" style="fill:blue"/>
<circle cx="108" cy="2300" r="5" style="fill:blue"/>
<circle cx="3188" cy="938" r="5" style="fill:blue"/>
<circle cx="764" cy="842" r="5" style="fill:blue"/>
<circle cx="4775" cy="3419" r="5" style="fill:blue"/>
<circle cx="7453" cy="3845" r="5" style="fill:blue"/>
<circle cx="5864" cy="1215" r="5" style="fill:blue"/>
<circle cx="4101" cy="572" r="5" style="fill:blue"/>
<circle cx="6952" cy="5912" r="5" style="fill:blue"/>
<circle cx="3836" cy="217" r="5" style="fill:blue"/>
<circle cx="2806" cy="2014" r="5" style="fill:blue"/>
<circle cx="3490" cy="3225" r="5" style="fill:blue"/>
<circle cx="1990" cy="243" r="5" style="fill:blue"/>
<circle cx="1935" cy="480" r="5" style="fill:blue"/>
<circle cx="3836" cy="4498" r="5" style="fill:blue"/>
<circle cx="3474" cy="1035" r="5" style="fill:blue"/>
<circle cx="4336" cy="964" r="5" style="fill:blue"/>
<circle cx="5945" cy="4069" r="5" style="fill:blue"/>
<circle cx="7076" cy="478" r="5" style="fill:blue"/>
<circle cx="7186" cy="1625" r="5" style="fill:blue"/>
<circle cx="1741" cy="4482" r="5" style="fill:blue"/>
<circle cx="1069" cy="4272" r="5" style="fill:blue"/>
<circle cx="5956" cy="4981" r="5" style="fill:blue"/>
<circle cx="843" cy="2761" r="5" style="fill:blue"/>
<circle cx="8532" cy="1012" r="5" style="fill:blue"/>
<circle cx="467" cy="3067" r="5" style="fill:blue"/>
<circle cx="6678" cy="1806" r="5" style="fill:blue"/>
<circle cx="2510" cy="825" r="5" style="fill:blue"/>
<circle cx="804" cy="338" r="5" style="fill:blue"/>
<circle cx="2741" cy="1493" r="5" style="fill:blue"/>
<circle cx="7661" cy="212" r="5" style="fill:blue"/>
<circle cx="1450" cy="1696" r="5" style="fill:blue"/>
<circle cx="1183" cy="3780" r="5" style="fill:blue"/>
<circle cx="722" cy="2459" r="5" style="fill:blue"/>
<circle cx="1709" cy="3479" r="5" style="fill:blue"/>
<circle cx="2705" cy="5283" r="5" style="fill:blue"/>
<circle cx="4737" cy="4031" r="5" style="fill:blue"/>
<circle cx="7642" cy="2266" r="5" style="fill:blue"/>
<circle cx="6502" cy="4553" r="5" style="fill:blue"/>
<circle cx="3215" cy="2104" r="5" style="fill:blue"/>
<circle cx="220" cy="5342" r="5" style="fill:blue"/>
<circle cx="8514" cy="2931" r="5" style="fill:blue"/>
<circle cx="6164" cy="5797" r="5" style="fill:blue"/>
<circle cx="1189" cy="251" r="5" style="fill:blue"/>
<circle cx="8586" cy="5258" r="5" style="fill:blue"/>
<circle cx="3514" cy="139" r="5" style="fill:blue"/>
<circle cx="8461" cy="5179" r="5" style="fill:blue"/>
<circle cx="125" cy="5431" r="5" style="fill:blue"/>
<circle cx="4975" cy="1889" r="5" style="fill:blue"/>
<circle cx="5497" cy="3358" r="5" style="fill:blue"/>
<circle cx="2013" cy="2209" r="5" style="fill:blue"/>
<circle cx="8301" cy="417" r="5" style="fill:blue"/>
<circle cx="7041" cy="186" r="5" style="fill:blue"/>
<circle cx="1115" cy="5057" r="5" style="fill:blue"/>
<circle cx="2495" cy="2337" r="5" style="fill:blue"/>
<circle cx="6516" cy="5906" r="5" style="fill:blue"/>
<circle cx="3893" cy="4207" r="5" style="fill:blue"/>
<circle cx="4167" cy="5303" r="5" style="fill:blue"/>
<circle cx="4099" cy="4348" r="5" style="fill:blue"/>
<circle cx="1575" cy="4065" r="5" style="fill:blue"/>
<circle cx="8367" cy="4206" r="5" style="fill:blue"/>
<circle cx="6786" cy="1644" r="5" style="fill:blue"/>
<circle cx="590" cy="4451" r="5" style="fill:blue"/>
<circle cx="1325" cy="791" r="5" style="fill:blue"/>
<circle cx="8424" cy="152" r="5" style="fill:blue"/>
<circle cx="6539" cy="1329" r="5" style="fill:blue"/>
<circle cx="3406" cy="5111" r="5" style="fill:blue"/>
<circle cx="6064" cy="4784" r="5" style="fill:blue"/>
<circle cx="1559" cy="2662" r="5" style="fill:blue"/>
<circle cx="469" cy="5522" r="5" style="fill:blue"/>
<circle cx="260" cy="4742" r="5" style="fill:blue"/>
<circle cx="517" cy="2436" r="5" style="fill:blue"/>
<circle cx="6534" cy="6005" r="5" style="fill:blue"/>
<circle cx="7383" cy="1792" r="5" style="fill:blue"/>
<circle cx="2685" cy="5300" r="5" style="fill:blue"/>
<circle cx="2183" cy="4980" r="5" style="fill:blue"/>
<circle cx="4215" cy="2005" r="5" style="fill:blue"/>
<circle cx="4218" cy="2291" r="5" style="fill:blue"/>
<circle cx="251" cy="2273" r="5" style="fill:blue"/>
<circle cx="3994" cy="5730" r="5" style="fill:blue"/>
<circle cx="3426" cy="5303" r="5" style="fill:blue"/>
<circle cx="6429" cy="287" r="5" style="fill:blue"/>
<circle cx="7356" cy="1650" r="5" style="fill:blue"/>
<circle cx="5935" cy="5095" r="5" style="fill:blue"/>
<circle cx="6781" cy="195" r="5" style="fill:blue"/>
<circle cx="75" cy="3318" r="5" style="fill:blue"/>
<circle cx="5200" cy="5412" r="5" style="fill:blue"/>
<circle cx="8071" cy="3755" r="5" style="fill:blue"/>
<circle cx="5707" cy="3292" r="5" style="fill:blue"/>
<circle cx="4077" cy="281" r="5" style="fill:blue"/>
<circle cx="8183" cy="1257" r="5" style="fill:blue"/>
<circle cx="2840" cy="1734" r="5" style="fill:blue"/>
<circle cx="6921" cy="4235" r="5" style="fill:blue"/>
<circle cx="3265" cy="2066" r="5" style="fill:blue"/>
<circle cx="1083" cy="2643" r="5" style="fill:blue"/>
<circle cx="6085" cy="4169" r="5" style="fill:blue"/>
<circle cx="5881" cy="5246" r="5" style="fill:blue"/>
<circle cx="2732" cy="1140" r="5" style="fill:blue"/>
<circle cx="5772" cy="2636" r="5" style="fill:blue"/>
<circle cx="3151" cy="5955" r="5" style="fill:blue"/>
<circle cx="4011" cy="3447" r="5" style="fill:blue"/>
<circle cx="3797" cy="582" r="5" style="fill:blue"/>
<circle cx="5710" cy="4800" r="5" style="fill:blue"/>
<circle cx="2298" cy="2200" r="5" style="fill:blue"/>
<circle cx="176" cy="836" r="5" style="fill:blue"/>
<circle cx="6004" cy="2897" r="5" style="fill:blue"/>
<circle cx="7721" cy="5595" r="5" style="fill:blue"/>
<circle cx="2148" cy="4390" r="5" style="fill:blue"/>
<circle cx="3414" cy="2045" r="5" style="fill:blue"/>
<circle cx="7930" cy="2857" r="5" style="fill:blue"/>
<circle cx="6287" cy="4432" r="5" style="fill:blue"/>
<circle cx="1592" cy="5770" r="5" style="fill:blue"/>
<circle cx="147" cy="5782" r="5" style="fill:blue"/>
<circle cx="5967" cy="430" r="5" style="fill:blue"/>
<circle cx="6682" cy="4583" r="5" style="fill:blue"/>
<circle cx="7705" cy="3185" r="5" style="fill:blue"/>
<circle cx="8325" cy="1497" r="5" style="fill:blue"/>
<circle cx="6432" cy="4442" r="5" style="fill:blue"/>
<circle cx="5346" cy="2119" r="5" style="fill:blue"/>
<circle cx="995" cy="3001" r="5" style="fill:blue"/>
<circle cx="8063" cy="5409" r="5" style="fill:blue"/>
<circle cx="5384" cy="1568" r="5" style="fill:blue"/>
<circle cx="7156" cy="2929" r="5" style="fill:blue"/>
<circle cx="1150" cy="3955" r="5" style="fill:blue"/>
<circle cx="2268" cy="1101" r="5" style="fill:blue"/>
<circle cx="6994" cy="2740" r="5" style="fill:blue"/>
<circle cx="6656" cy="2711" r="5" style="fill:blue"/>
<circle cx="4673" cy="2637" r="5" style="fill:blue"/>
<circle cx="3155" cy="565" r="5" style="fill:blue"/>
<circle cx="4072" cy="19" r="5" style="fill:blue"/>
<circle cx="7730" cy="593" r="5" style="fill:blue"/>
<circle cx="2276" cy="2859" r="5" style="fill:blue"/>
<circle cx="3770" cy="1107" r="5" style="fill:blue"/>
<circle cx="6415" cy="1338" r="5" style="fill:blue"/>
<circle cx="2111" cy="584" r="5" style="fill:blue"/>
<circle cx="5341" cy="3130" r="5" style="fill:blue"/>
<circle cx="2283" cy="5926" r="5" style="fill:blue"/>
<circle cx="1067" cy="579" r="5" style="fill:blue"/>
<circle cx="7975" cy="636" r="5" style="fill:blue"/>
<circle cx="4306" cy="2493" r="5" style="fill:blue"/>
<circle cx="6385" cy="3816" r="5" style="fill:blue"/>
<circle cx="8553" cy="5653" r="5" style="fill:blue"/>
<circle cx="3155" cy="96" r="5" style="fill:blue"/>
<circle cx="2751" cy="5407" r="5" style="fill:blue"/>
<circle cx="3717" cy="5245" r="5" style="fill:blue"/>
<circle cx="6764" cy="5992" r="5" style="fill:blue"/>
<circle cx="7715" cy="3851" r="5" style="fill:blue"/>
<circle cx="7977" cy="5223" r="5" style="fill:blue"/>
<circle cx="239" cy="739" r="5" style="fill:blue"/>
<circle cx="8183" cy="1951" r="5" style="fill:blue"/>
<circle cx="2709" cy="2890" r="5" style="fill:blue"/>
<circle cx="3268" cy="4286" r="5" style="fill:blue"/>
<circle cx="8494" cy="1254" r="5" style="fill:blue"/>
<circle cx="6406" cy="117" r="5" style="fill:blue"/>
<circle cx="4694" cy="4491" r="5" style="fill:blue"/>
<circle cx="5022" cy="5808" r="5" style="fill:blue"/>
<circle cx="6128" cy="2568" r="5" style="fill:blue"/>
<circle cx="7414" cy="2304" r="5" style="fill:blue"/>
<circle cx="6841" cy="2564" r="5" style="fill:blue"/>
<circle cx="2072" cy="1044" r="5" style="fill:blue"/>
<circle cx="6618" cy="3601" r="5" style="fill:blue"/>
<circle cx="718" cy="4850" r="5" style="fill:blue"/>
<circle cx="7466" cy="5666" r="5" style="fill:blue"/>
<circle cx="105" cy="3176" r="5" style="fill:blue"/>
<circle cx="8430" cy="5648" r="5" style="fill:blue"/>
<circle cx="5669" cy="1258" r="5" style="fill:blue"/>
<circle cx="3539" cy="5794" r="5" style="fill:blue"/>
<circle cx="7824" cy="1148" r="5" style="fill:blue"/>
<circle cx="1732" cy="4038" r="5" style="fill:blue"/>
<circle cx="2137" cy="2727" r="5" style="fill:blue"/>
<circle cx="6445" cy="735" r="5" style="fill:blue"/>
<circle cx="4522" cy="5780" r="5" style="fill:blue"/>
<circle cx="5985" cy="2329" r="5" style="fill:blue"/>
<circle cx="6423" cy="2307" r="5" style="fill:blue"/>
<circle cx="5882" cy="932" r="5" style="fill:blue"/>
<circle cx="8053" cy="4387" r="5" style="fill:blue"/>
<circle cx="2671" cy="1184" r="5" style="fill:blue"/>
<circle cx="4949" cy="1791" r="5" style="fill:blue"/>
<circle cx="6528" cy="2235" r="5" style="fill:blue"/>
<circle cx="1314" cy="2053" r="5" style="fill:blue"/>
<circle cx="4632" cy="4042" r="5" style="fill:blue"/>
<circle cx="8414" cy="1237" r="5" style="fill:blue"/>
<circle cx="7751" cy="4415" r="5" style="fill:blue"/>
<circle cx="2111" cy="1560" r="5" style="fill:blue"/>
<circle cx="1448" cy="659" r="5" style="fill:blue"/>
<circle cx="1328" cy="4119" r="5" style="fill:blue"/>
<circle cx="1604" cy="5433" r="5" style="fill:blue"/>
<circle cx="2563" cy="1549" r="5" style="fill:blue"/>
<circle cx="3404" cy="3087" r="5" style="fill:blue"/>
<circle cx="4414" cy="5465" r="5" style="fill:blue"/>
<circle cx="8090" cy="3289" r="5" style="fill:blue"/>
<circle cx="2932" cy="5919" r="5" style="fill:blue"/>
<circle cx="2850" cy="1640" r="5" style="fill:blue"/>
<circle cx="8046" cy="5928" r="5" style="fill:blue"/>
<circle cx="5528" cy="326" r="5" style="fill:blue"/>
<circle cx="6420" cy="2418" r="5" style="fill:blue"/>
<circle cx="331" cy="2352" r="5" style="fill:blue"/>
<circle cx="1810" cy="3002" r="5" style="fill:blue"/>
<circle cx="7662" cy="3140" r="5" style="fill:blue"/>
<circle cx="1864" cy="4227" r="5" style="fill:blue"/>
<circle cx="7947" cy="3002" r="5" style="fill:blue"/>
<circle cx="5984" cy="2814" r="5" style="fill:blue"/>
<circle cx="3653" cy="5974" r="5" style="fill:blue"/>
<circle cx="4586" cy="4879" r="5" style="fill:blue"/>
<circle cx="1785" cy="5729" r="5" style="fill:blue"/>
<circle cx="5479" cy="1830" r="5" style="fill:blue"/>
<circle cx="5889" cy="1107" r="5" style="fill:blue"/>
<circle cx="5886" cy="4000" r="5" style="fill:blue"/>
<circle cx="7234" cy="2146" r="5" style="fill:blue"/>
<circle cx="5346" cy="5634" r="5" style="fill:blue"/>
<circle cx="583" cy="3392" r="5" style="fill:blue"/>
<circle cx="4706" cy="2586" r="5" style="fill:blue"/>
<circle cx="3428" cy="2484" r="5" style="fill:blue"/>
<circle cx="3794" cy="1838" r="5" style="fill:blue"/>
<circle cx="2830" cy="76" r="5" style="fill:blue"/>
<circle cx="366" cy="5417" r="5" style="fill:blue"/>
<circle cx="6130" cy="2655" r="5" style="fill:blue"/>
<circle cx="5833" cy="732" r="5" style="fill:blue"/>
<circle cx="8039" cy="2754" r="5" style="fill:blue"/>
<circle cx="4221" cy="5997" r="5" style="fill:blue"/>
<circle cx="3447" cy="4342" r="5" style="fill:blue"/>
<circle cx="6146" cy="5152" r="5" style="fill:blue"/>
<circle cx="7552" cy="411" r="5" style="fill:blue"/>
<circle cx="1612" cy="3630" r="5" style="fill:blue"/>
<circle cx="4255" cy="3026" r="5" style="fill:blue"/>
<circle cx="1391" cy="3007" r="5" style="fill:blue"/>
<circle cx="4231" cy="1749" r="5" style="fill:blue"/>
<circle cx="3109" cy="3469" r="5" style="fill:blue"/>
<circle cx="6415" cy="3454" r="5" style="fill:blue"/>
<circle cx="303" cy="3305" r="5" style="fill:blue"/>
<circle cx="395" cy="5052" r="5" style="fill:blue"/>
<circle cx="3269" cy="3637" r="5" style="fill:blue"/>
<circle cx="4184" cy="5826" r="5" style="fill:blue"/>
<circle cx="5648" cy="2827" r="5" style="fill:blue"/>
<circle cx="1769" cy="3290" r="5" style="fill:blue"/>
<circle cx="671" cy="5698" r="5" style="fill:blue"/>
<circle cx="2282" cy="3966" r="5" style="fill:blue"/>
<circle cx="4577" cy="931" r="5" style="fill:blue"/>
<circle cx="7105" cy="283" r="5" style="fill:blue"/>
<circle cx="5895" cy="632" r="5" style="fill:blue"/>
<circle cx="4747" cy="190" r="5" style="fill:blue"/>
<circle cx="8005" cy="3499" r="5" style="fill:blue"/>
<circle cx="8310" cy="5942" r="5" style="fill:blue"/>
<circle cx="747" cy="200" r="5" style="fill:blue"/>
<circle cx="1910" cy="5161" r="5" style="fill:blue"/>
<circle cx="8177" cy="883" r="5" style="fill:blue"/>
<circle cx="7855" cy="2487" r="5" style="fill:blue"/>
<circle cx="8019" cy="2075" r="5" style="fill:blue"/>
<circle cx="6380" cy="1129" r="5" style="fill:blue"/>
<circle cx="6621" cy="3387" r="5" style="fill:blue"/>
<circle cx="833" cy="3390" r="5" style="fill:blue"/>
<circle cx="7687" cy="5356" r="5" style="fill:blue"/>
<circle cx="941" cy="431" r="5" style="fill:blue"/>
<circle cx="7915" cy="2292" r="5" style="fill:blue"/>
<circle cx="5167" cy="5523" r="5" style="fill:blue"/>
<circle cx="7166" cy="1991" r="5" style="fill:blue"/>
<circle cx="3458" cy="4467" r="5" style="fill:blue"/>
<circle cx="1817" cy="1408" r="5" style="fill:blue"/>
<circle cx="7026" cy="2493" r="5" style="fill:blue"/>
<circle cx="3752" cy="1303" r="5" style="fill:blue"/>
<circle cx="4086" cy="2589" r="5" style="fill:blue"/>
<circle cx="8549" cy="4655" r="5" style="fill:blue"/>
<circle cx="5189" cy="3856" r="5" style="fill:blue"/>
<circle cx="7968" cy="3568" r="5" style="fill:blue"/>
<circle cx="1162" cy="4875" r="5" style="fill:blue"/>
<circle cx="7375" cy="4654" r="5" style="fill:blue"/>
<circle cx="4469" cy="2577" r="5" style="fill:blue"/>
<circle cx="1983" cy="2530" r="5" style="fill:blue"/>
<circle cx="3042" cy="2712" r="5" style="fill:blue"/>
<circle cx="806" cy="3036" r="5" style="fill:blue"/>
<circle cx="4956" cy="3761" r="5" style="fill:blue"/>
<circle cx="6571" cy="4077" r="5" style="fill:blue"/>
<circle cx="4432" cy="994" r="5" style="fill:blue"/>
<circle cx="2" cy="4927" r="5" style="fill:blue"/>
<circle cx="7414" cy="3729" r="5" style="fill:blue"/>
<circle cx="6739" cy="118" r="5" style="fill:blue"/>
<circle cx="7240" cy="1672" r="5" style="fill:blue"/>
<circle cx="8300" cy="108" r="5" style="fill:blue"/>
<circle cx="5731" cy="4253" r="5" style="fill:blue"/>
<circle cx="348" cy="3552" r="5" style="fill:blue"/>
<circle cx="671" cy="530" r="5" style="fill:blue"/>
<circle cx="2579" cy="4944" r="5" style="fill:blue"/>
<circle cx="563" cy="3835" r="5" style="fill:blue"/>
<circle cx="776" cy="2427" r="5" style="fill:blue"/>
<circle cx="4943" cy="5012" r="5" style="fill:blue"/>
<circle cx="4691" cy="4771" r="5" style="fill:blue"/>
<circle cx="5044" cy="2365" r="5" style="fill:blue"/>
<circle cx="2648" cy="1735" r="5" style="fill:blue"/>
<circle cx="4068" cy="4976" r="5" style="fill:blue"/>
<circle cx="4726" cy="3773" r="5" style="fill:blue"/>
<circle cx="4138" cy="1798" r="5" style="fill:blue"/>
<circle cx="6115" cy="4777" r="5" style="fill:blue"/>
<circle cx="2151" cy="3897" r="5" style="fill:blue"/>
<circle cx="3790" cy="3863" r="5" style="fill:blue"/>
<circle cx="7015" cy="551" r="5" style="fill:blue"/>
<circle cx="2628" cy="1208" r="5" style="fill:blue"/>
<circle cx="5220" cy="3351" r="5" style="fill:blue"/>
<circle cx="6497" cy="5585" r="5" style="fill:blue"/>
<circle cx="5041" cy="5350" r="5" style="fill:blue"/>
<circle cx="6075" cy="2479" r="5" style="fill:blue"/>
<circle cx="2674" cy="2796" r="5" style="fill:blue"/>
<circle cx="1304" cy="2681" r="5" style="fill:blue"/>
<circle cx="6670" cy="1235" r="5" style="fill:blue"/>
<circle cx="2782" cy="5923" r="5" style="fill:blue"/>
<circle cx="1863" cy="1557" r="5" style="fill:blue"/>
<circle cx="299" cy="2511" r="5" style="fill:blue"/>
<circle cx="3715" cy="532" r="5" style="fill:blue"/>
<circle cx="6784" cy="1815" r="5" style="fill:blue"/>
<circle cx="2142" cy="5184" r="5" style="fill:blue"/>
<circle cx="2474" cy="5301" r="5" style="fill:blue"/>
<circle cx="7087" cy="4206" r="5" style="fill:blue"/>
<circle cx="2911" cy="2493" r="5" style="fill:blue"/>
<circle cx="3091" cy="2339" r="5" style="fill:blue"/>
<circle cx="2755" cy="2377" r="5" style="fill:blue"/>
<circle cx="3207" cy="3472" r="5" style="fill:blue"/>
<circle cx="699" cy="771" r="5" style="fill:blue"/>
<circle cx="3129" cy="5908" r="5" style="fill:blue"/>
<circle cx="6045" cy="2214" r="5" style="fill:blue"/>
<circle cx="4184" cy="3366" r="5" style="fill:blue"/>
<circle cx="7690" cy="5496" r="5" style="fill:blue"/>
<circle cx="3063" cy="2098" r="5" style="fill:blue"/>
<circle cx="2194" cy="2688" r="5" style="fill:blue"/>
<circle cx="5357" cy="130" r="5" style="fill:blue"/>
<circle cx="703" cy="1880" r="5" style="fill:blue"/>
<circle cx="4634" cy="5433" r="5" style="fill:blue"/>
<circle cx="3279" cy="5902" r="5" style="fill:blue"/>
<circle cx="8182" cy="328" r="5" style="fill:blue"/>
<circle cx="5024" cy="1063" r="5" style="fill:blue"/>
<circle cx="4383" cy="4243" r="5" style="fill:blue"/>
<circle cx="4019" cy="4029" r="5" style="fill:blue"/>
<circle cx="2255" cy="1608" r="5" style="fill:blue"/>
<circle cx="3722" cy="1772" r="5" style="fill:blue"/>
<circle cx="2893" cy="1201" r="5" style="fill:blue"/>
<circle cx="3438" cy="5130" r="5" style="fill:blue"/>
<circle cx="6162" cy="3962" r="5" style="fill:blue"/>
<circle cx="7759" cy="1589" r="5" style="fill:blue"/>
<circle cx="7667" cy="5115" r="5" style="fill:blue"/>
<circle cx="7143" cy="404" r="5" style="fill:blue"/>
<circle cx="4103" cy="4729" r="5" style="fill:blue"/>
<circle cx="5522" cy="5695" r="5" style="fill:blue"/>
<circle cx="6222" cy="3431" r="5" style="fill:blue"/>
<circle cx="708" cy="2413" r="5" style="fill:blue"/>
<circle cx="6162" cy="3456" r="5" style="fill:blue"/>
<circle cx="2987" cy="1129" r="5" style="fill:blue"/>
<circle cx="5508" cy="3588" r="5" style="fill:blue"/>
<circle cx="7352" cy="3222" r="5" style="fill:blue"/>
<circle cx="5564" cy="3295" r="5" style="fill:blue"/>
<circle cx="819" cy="250" r="5" style="fill:blue"/>
<circle cx="1576" cy="5872" r="5" style="fill:blue"/>
<circle cx="3172" cy="1608" r="5" style="fill:blue"/>
<circle cx="1932" cy="4500" r="5" style="fill:blue"/>
<circle cx="1107" cy="101" r="5" style="fill:blue"/>
<circle cx="4498" cy="4698" r="5" style="fill:blue"/>
<circle cx="2984" cy="5406" r="5" style="fill:blue"/>
<circle cx="1110" cy="1359" r="5" style="fill:blue"/>
<circle cx="5538" cy="357" r="5" style="fill:blue"/>
<circle cx="4810" cy="3194" r="5" style="fill:blue"/>
<circle cx="152" cy="4353" r="5" style="fill:blue"/>
<circle cx="7483" cy="2266" r="5" style="fill:blue"/>
<circle cx="4133" cy="4216" r="5" style="fill:blue"/>
<circle cx="2128" cy="3963" r="5" style="fill:blue"/>
<circle cx="7422" cy="1038" r="5" style="fill:blue"/>
<circle cx="6697" cy="1616" r="5" style="fill:blue"/>
<circle cx="5939" cy="1426" r="5" style="fill:blue"/>
<circle cx="3311" cy="4107" r="5" style="fill:blue"/>
<circle cx="6911" cy="2849" r="5" style="fill:blue"/>
<circle cx="2451" cy="2555" r="5" style="fill:blue"/>
<circle cx="220" cy="3319" r="5" style="fill:blue"/>
<circle cx="5084" cy="3208" r="5" style="fill:blue"/>
<circle cx="4316" cy="2893" r="5" style="fill:blue"/>
<circle cx="7918" cy="4032" r="5" style="fill:blue"/>
<circle cx="2187" cy="4313" r="5" style="fill:blue"/>
<circle cx="5271" cy="73" r="5" style="fill:blue"/>
<circle cx="3428" cy="3164" r="5" style="fill:blue"/>
<circle cx="3349" cy="1870" r="5" style="fill:blue"/>
<circle cx="707" cy="5189" r="5" style="fill:blue"/>
<circle cx="945" cy="318" r="5" style="fill:blue"/>
<circle cx="8284" cy="5109" r="5" style="fill:blue"/>
<circle cx="2201" cy="5618" r="5" style="fill:blue"/>
<circle cx="3158" cy="2370" r="5" style="fill:blue"/>
<circle cx="1625" cy="5020" r="5" style="fill:blue"/>
<circle cx="4961" cy="5721" r="5" style="fill:blue"/>
<circle cx="1730" cy="1406" r="5" style="fill:blue"/>
<circle cx="3348" cy="4808" r="5" style="fill:blue"/>
<circle cx="7908" cy="1792" r="5" style="fill:blue"/>
<circle cx="1346" cy="296" r="5" style="fill:blue"/>
<circle cx="851" cy="1486" r="5" style="fill:blue"/>
<circle cx="7202" cy="1132" r="5" style="fill:blue"/>
<circle cx="1612" cy="5092" r="5" style="fill:blue"/>
<circle cx="6812" cy="4811" r="5" style="fill:blue"/>
<circle cx="5720" cy="2156" r="5" style="fill:blue"/>
<circle cx="475" cy="4184" r="5" style="fill:blue"/>
<circle cx="6559" cy="1900" r="5" style="fill:blue"/>
<circle cx="5715" cy="1868" r="5" style="fill:blue"/>
<circle cx="5229" cy="5495" r="5" style="fill:blue"/>
<circle cx="939" cy="3113" r="5" style="fill:blue"/>
<circle cx="2016" cy="293" r="5" style="fill:blue"/>
<circle cx="8331" cy="267" r="5" style="fill:blue"/>
<circle cx="2964" cy="4580" r="5" style="fill:blue"/>
<circle cx="3317" cy="4279" r="5" style="fill:blue"/>
<circle cx="1306" cy="489" r="5" style="fill:blue"/>
<circle cx="1002" cy="5927" r="5" style="fill:blue"/>
<circle cx="6936" cy="3650" r="5" style="fill:blue"/>
<circle cx="2086" cy="3687" r="5" style="fill:blue"/>
<circle cx="4801" cy="2670" r="5" style="fill:blue"/>
<circle cx="2985" cy="65" r="5" style="fill:blue"/>
<circle cx="3699" cy="3369" r="5" style="fill:blue"/>
<circle cx="6146" cy="1176" r="5" style="fill:blue"/>
<circle cx="6618" cy="3626" r="5" style="fill:blue"/>
<circle cx="762" cy="1271" r="5" style="fill:blue"/>
<circle cx="2572" cy="5609" r="5" style="fill:blue"/>
<circle cx="3246" cy="2301" r="5" style="fill:blue"/>
<circle cx="2920" cy="4503" r="5" style="fill:blue"/>
<circle cx="5720" cy="1662" r="5" style="fill:blue"/>
<circle cx="1087" cy="4475" r="5" style="fill:blue"/>
<circle cx="3873" cy="5991" r="5" style="fill:blue"/>
<circle cx="1176" cy="2342" r="5" style="fill:blue"/>
<circle cx="312" cy="2326" r="5" style="fill:blue"/>
<circle cx="6306" cy="1282" r="5" style="fill:blue"/>
<circle cx="4056" cy="1856" r="5" style="fill:blue"/>
<circle cx="2381" cy="3411" r="5" style="fill:blue"/>
<circle cx="4410" cy="4503" r="5" style="fill:blue"/>
<circle cx="7279" cy="5764" r="5" style="fill:blue"/>
<circle cx="8111" cy="416" r="5" style="fill:blue"/>
<circle cx="2758" cy="5423" r="5" style="fill:blue"/>
<circle cx="2854" cy="5915" r="5" style="fill:blue"/>
<circle cx="7306" cy="1934" r="5" style="fill:blue"/>
<circle cx="7638" cy="5288" r="5" style="fill:blue"/>
<circle cx="5669" cy="2188" r="5" style="fill:blue"/>
<circle cx="1788" cy="4138" r="5" style="fill:blue"/>
<circle cx="5666" cy="5276" r="5" style="fill:blue"/>
<circle cx="3209" cy="2851" r="5" style="fill:blue"/>
<circle cx="1745" cy="2163" r="5" style="fill:blue"/>
<circle cx="4308" cy="2275" r="5" style="fill:blue"/>
<circle cx="237" cy="970" r="5" style="fill:blue"/>
<circle cx="3416" cy="1419" r="5" style="fill:blue"/>
<circle cx="5216" cy="5396" r="5" style="fill:blue"/>
<circle cx="7822" cy="5359" r="5" style="fill:blue"/>
<circle cx="1249" cy="1303" r="5" style="fill:blue"/>
<circle cx="1046" cy="479" r="5" style="fill:blue"/>
<circle cx="3683" cy="158" r="5" style="fill:blue"/>
<circle cx="4393" cy="3560" r="5" style="fill:blue"/>
<circle cx="8152" cy="3879" r="5" style="fill:blue"/>
<circle cx="3939" cy="3150" r="5" style="fill:blue"/>
<circle cx="290" cy="2963" r="5" style="fill:blue"/>
<circle cx="1993" cy="1044" r="5" style="fill:blue"/>
<circle cx="6472" cy="3558" r="5" style="fill:blue"/>
<circle cx="999" cy="4764" r="5" style="fill:blue"/>
<circle cx="1547" cy="75" r="5" style="fill:blue"/>
<circle cx="3277" cy="122" r="5" style="fill:blue"/>
<circle cx="4615" cy="138" r="5" style="fill:blue"/>
<circle cx="4435" cy="4715" r="5" style="fill:blue"/>
<circle cx="3986" cy="5867" r="5" style="fill:blue"/>
<circle cx="4200" cy="84" r="5" style="fill:blue"/>
<circle cx="320" cy="2486" r="5" style="fill:blue"/>
<circle cx="6226" cy="5598" r="5" style="fill:blue"/>
<circle cx="6755" cy="5047" r="5" style="fill:blue"/>
<circle cx="441" cy="4133" r="5" style="fill:blue"/>
<circle cx="8336" cy="4982" r="5" style="fill:blue"/>
<circle cx="2510" cy="20" r="5" style="fill:blue"/>
<circle cx="2996" cy="5885" r="5" style="fill:blue"/>
<circle cx="2019" cy="2540" r="5" style="fill:blue"/>
<circle cx="3342" cy="1332" r="5" style="fill:blue"/>
<circle cx="6838" cy="3842" r="5" style="fill:blue"/>
<circle cx="4096" cy="518" r="5" style="fill:blue"/>
<circle cx="7343" cy="2433" r="5" style="fill:blue"/>
<circle cx="934" cy="624" r="5" style="fill:blue"/>
<circle cx="5896" cy="4488" r="5" style="fill:blue"/>
<circle cx="876" cy="4453" r="5" style="fill:blue"/>
<circle cx="1576" cy="4558" r="5" style="fill:blue"/>
<circle cx="8614" cy="2879" r="5" style="fill:blue"/>
<circle cx="5546" cy="3140" r="5" style="fill:blue"/>
<circle cx="2053" cy="4221" r="5" style="fill:blue"/>
<circle cx="7285" cy="1979" r="5" style="fill:blue"/>
<circle cx="4019" cy="699" r="5" style="fill:blue"/>
<circle cx="7563" cy="5954" r="5" style="fill:blue"/>
<circle cx="7585" cy="4494" r="5" style="fill:blue"/>
<circle cx="7526" cy="5034" r="5" style="fill:blue"/>
<circle cx="3456" cy="1309" r="5" style="fill:blue"/>
<circle cx="1494" cy="4920" r="5" style="fill:blue"/>
<circle cx="66" cy="3460" r="5" style="fill:blue"/>
<circle cx="4996" cy="2248" r="5" style="fill:blue"/>
<circle cx="1310" cy="3776" r="5" style="fill:blue"/>
<circle cx="6477" cy="991" r="5" style="fill:blue"/>
<circle cx="4309" cy="3357" r="5" style="fill:blue"/>
<circle cx="5090" cy="3076" r="5" style="fill:blue"/>
<circle cx="1833" cy="5577" r="5" style="fill:blue"/>
<circle cx="3051" cy="4219" r="5" style="fill:blue"/>
<circle cx="2872" cy="4171" r="5" style="fill:blue"/>
<circle cx="7970" cy="5710" r="5" style="fill:blue"/>
<circle cx="4365" cy="3372" r="5" style="fill:blue"/>
<circle cx="1249" cy="5736" r="5" style="fill:blue"/>
<circle cx="3412" cy="4583" r="5" style="fill:blue"/>
<circle cx="6500" cy="5014" r="5" style="fill:blue"/>
<circle cx="3495" cy="795" r="5" style="fill:blue"/>
<circle cx="2403" cy="591" r="5" style="fill:blue"/>
<circle cx="5548" cy="1598" r="5" style="fill:blue"/>
<circle cx="903" cy="4289" r="5" style="fill:blue"/>
<circle cx="510" cy="2295" r="5" style="fill:blue"/>
<circle cx="6331" cy="1111" r="5" style="fill:blue"/>
<circle cx="8226" cy="2576" r="5" style="fill:blue"/>
<circle cx="4311" cy="3105" r="5" style="fill:blue"/>
<circle cx="8335" cy="2790" r="5" style="fill:blue"/>
<circle cx="2382" cy="65" r="5" style="fill:blue"/>
<circle cx="4608" cy="465" r="5" style="fill:blue"/>
<circle cx="7441" cy="4868" r="5" style="fill:blue"/>
<circle cx="8421" cy="2418" r="5" style="fill:blue"/>
<circle cx="3855" cy="2198" r="5" style="fill:blue"/>
<circle cx="2397" cy="4217" r="5" style="fill:blue"/>
<circle cx="6737" cy="4071" r="5" style="fill:blue"/>
<circle cx="7052" cy="5926" r="5" style="fill:blue"/>
<circle cx="1981" cy="5009" r="5" style="fill:blue"/>
<circle cx="7658" cy="498" r="5" style="fill:blue"/>
<circle cx="5228" cy="3521" r="5" style="fill:blue"/>
<circle cx="7832" cy="241" r="5" style="fill:blue"/>
<circle cx="3331" cy="3565" r="5" style="fill:blue"/>
<circle cx="356" cy="1688" r="5" style="fill:blue"/>
<circle cx="2236" cy="3333" r="5" style="fill:blue"/>
<circle cx="7497" cy="4151" r="5" style="fill:blue"/>
<circle cx="5183" cy="2585" r="5" style="fill:blue"/>
<circle cx="1453" cy="3038" r="5" style="fill:blue"/>
<circle cx="2024" cy="3296" r="5" style="fill:blue"/>
<circle cx="3881" cy="3204" r="5" style="fill:blue"/>
<circle cx="6915" cy="329" r="5" style="fill:blue"/>
<circle cx="3705" cy="4239" r="5" style="fill:blue"/>
<circle cx="4260" cy="3959" r="5" style="fill:blue"/>
<circle cx="1635" cy="1921" r="5" style="fill:blue"/>
<circle cx="21" cy="1750" r="5" style="fill:blue"/>
<circle cx="4488" cy="3878" r="5" style="fill:blue"/>
<circle cx="3439" cy="1069" r="5" style="fill:blue"/>
<circle cx="1479" cy="4577" r="5" style="fill:blue"/>
<circle cx="6540" cy="1910" r="5" style="fill:blue"/>
<circle cx="144" cy="4553" r="5" style="fill:blue"/>
<circle cx="7387" cy="1095" r="5" style="fill:blue"/>
<circle cx="3934" cy="5833" r="5" style="fill:blue"/>
<circle cx="1510" cy="3863" r="5" style="fill:blue"/>
<circle cx="4010" cy="935" r="5" style="fill:blue"/>
<circle cx="1340" cy="274" r="5" style="fill:blue"/>
<circle cx="2540" cy="5349" r="5" style="fill:blue"/>
<circle cx="3196" cy="773" r="5" style="fill:blue"/>
<circle cx="2704" cy="250" r="5" style="fill:blue"/>
<circle cx="7598" cy="4267" r="5" style="fill:blue"/>
<circle cx="7503" cy="5413" r="5" style="fill:blue"/>
<circle cx="3248" cy="4819" r="5" style="fill:blue"/>
<circle cx="1065" cy="3454" r="5" style="fill:blue"/>
<circle cx="4351" cy="2877" r="5" style="fill:blue"/>
<circle cx="5791" cy="823" r="5" style="fill:blue"/>
<circle cx="4845" cy="302" r="5" style="fill:blue"/>
<circle cx="3831" cy="2885" r="5" style="fill:blue"/>
<circle cx="4120" cy="5416" r="5" style="fill:blue"/>
<circle cx="2398" cy="2662" r="5" style="fill:blue"/>
<circle cx="5696" cy="3837" r="5" style="fill:blue"/>
<circle cx="4" cy="115" r="5" style="fill:blue"/>
<circle cx="1426" cy="2082" r="5" style="fill:blue"/>
<circle cx="8514" cy="4316" r="5" style="fill:blue"/>
<circle cx="6637" cy="2829" r="5" style="fill:blue"/>
<circle cx="5774" cy="1948" r="5" style="fill:blue"/>
<circle cx="7974" cy="1181" r="5" style="fill:blue"/>
<circle cx="7164" cy="249" r="5" style="fill:blue"/>
<circle cx="5573" cy="2390" r="5" style="fill:blue"/>
<circle cx="6232" cy="5000" r="10" style="stroke-width:5;fill:gray;fill-opacity:0.3"/>
<circle cx="6252" cy="5000" r="10" style="stroke-width:5;fill:gray;fill-opacity:0.3"/>
<circle cx="6272" cy="5000" r="10" style="stroke-width:5;fill:gray;fill-opacity:0.3"/>
<circle cx="6292" cy="5000" r="10" style="stroke-width:5;fill:gray;fill-opacity:0.3"/>
<circle cx="6312" cy="5000" r="10" style="stroke-width:5;fill:gray;fill-opacity:0.3"/>
<circle cx="6332" cy="5000" r="10" style="stroke-width:5;fill:gray;fill-opacity:0.3"/>
<circle cx="6352" cy="5000" r="10" style="stroke-width:5;fill:gray;fill-opacity:0.3"/>
<circle cx="6372" cy="5000" r="10" style="stroke-width:5;fill:gray;fill-opacity:0.3"/>
<circle cx="6392" cy="5000" r="10" style="stroke-width:5;fill:gray;fill-opacity:0.3"/>
<circle cx="6412" cy="5000" r="10" style="stroke-width:5;fill:gray;fill-opacity:0.3"/>
<circle cx="6432" cy="5000" r="10" style="stroke-width:5;fill:gray;fill-opacity:0.3"/>
<circle cx="6452" cy="5000" r="10" style="stroke-width:5;fill:gray;fill-opacity:0.3"/>
<circle cx="6472" cy="5000" r="10" style="stroke-width:5;fill:gray;fill-opacity:0.3"/>
<circle cx="6232" cy="5619" r="10" style="stroke-width:5;fill:gray;fill-opacity:0.3"/>
<circle cx="6252" cy="5619" r="10" style="stroke-width:5;fill:gray;fill-opacity:0.3"/>
<circle cx="6272" cy="5619" r="10" style="stroke-width:5;fill:gray;fill-opacity:0.3"/>
<circle cx="6292" cy="5619" r="10" style="stroke-width:5;fill:gray;fill-opacity:0.3"/>
<circle cx="6312" cy="5619" r="10" style="stroke-width:5;fill:gray;fill-opacity:0.3"/>
<circle cx="6332" cy="5619" r="10" style="stroke-width:5;fill:gray;fill-opacity:0.3"/>
<circle cx="6352" cy="5619" r="10" style="stroke-width:5;fill:gray;fill-opacity:0.3"/>
<circle cx="6372" cy="5619" r="10" style="stroke-width:5;fill:gray;fill-opacity:0.3"/>
<circle cx="6392" cy="5619" r="10" style="stroke-width:5;fill:gray;fill-opacity:0.3"/>
<circle cx="6412" cy="5619" r="10" style="stroke-width:5;fill:gray;fill-opacity:0.3"/>
<circle cx="6432" cy="5619" r="10" style="stroke-width:5;fill:gray;fill-opacity:0.3"/>
<circle cx="6452" cy="5619" r="10" style="stroke-width:5;fill:gray;fill-opacity:0.3"/>
<circle cx="6472" cy="5619" r="10" style="stroke-width:5;fill:gray;fill-opacity:0.3"/>
<circle cx="6492" cy="5619" r="10" style="stroke-width:5;fill:gray;fill-opacity:0.3"/>
</svg>