<svg viewBox="0 0 9603 9226" xmlns="http://www.w3.org/2000/svg">
<rect height="1354" style="stroke:pink;stroke-width:10;fill:gray;fill-opacity:0.1;stroke-opacity:0.9" width="186" x="6044" y="528"/>
<circle cx="8856" cy="6871" r="5" style="fill:blue"/>
<circle cx="4918" cy="1988" r="5" style="fill:blue"/>
<circle cx="2280" cy="7862" r="5" style="fill:blue"/>
<circle cx="2967" cy="914" r="5" style="fill:blue"/>
<circle cx="8307" cy="1912" r="5" style="fill:blue"/>
<circle cx="7372" cy="7491" r="5" style="fill:blue"/>
<circle cx="8465" cy="5832" r="5" style="fill:blue"/>
<circle cx="6495" cy="3832" r="5" style="fill:blue"/>
<circle cx="5792" cy="2614" r="5" style="fill:blue"/>
<circle cx="603" cy="8181" r="5" style="fill:blue"/>
<circle cx="7004" cy="932" r="5" style="fill:blue"/>
<circle cx="4670" cy="5095" r="5" style="fill:blue"/>
<circle cx="7973" cy="5501" r="5" style="fill:blue"/>
<circle cx="2553" cy="5817" r="5" style="fill:blue"/>
<circle cx="9181" cy="3992" r="5" style="fill:blue"/>
<circle cx="8193" cy="406" r="5" style="fill:blue"/>
<circle cx="250" cy="6743" r="5" style="fill:blue"/>
<circle cx="4864" cy="5575" r="5" style="fill:blue"/>
<circle cx="750" cy="1700" r="5" style="fill:blue"/>
<circle cx="587" cy="2091" r="5" style="fill:blue"/>
<circle cx="526" cy="7420" r="5" style="fill:blue"/>
<circle cx="3701" cy="861" r="5" style="fill:blue"/>
<circle cx="7079" cy="4516" r="5" style="fill:blue"/>
<circle cx="6593" cy="2019" r="5" style="fill:blue"/>
<circle cx="1522" cy="6326" r="5" style="fill:blue"/>
<circle cx="4486" cy="3428" r="5" style="fill:blue"/>
<circle cx="617" cy="7620" r="5" style="fill:blue"/>
<circle cx="6493" cy="3955" r="5" style="fill:blue"/>
<circle cx="9559" cy="9078" r="5" style="fill:blue"/>
<circle cx="5915" cy="5533" r="5" style="fill:blue"/>
<circle cx="293" cy="3068" r="5" style="fill:blue"/>
<circle cx="7969" cy="3070" r="5" style="fill:blue"/>
<circle cx="438" cy="5986" r="5" style="fill:blue"/>
<circle cx="8056" cy="2700" r="5" style="fill:blue"/>
<circle cx="3112" cy="1598" r="5" style="fill:blue"/>
<circle cx="5976" cy="5909" r="5" style="fill:blue"/>
<circle cx="8410" cy="4012" r="5" style="fill:blue"/>
<circle cx="5775" cy="2909" r="5" style="fill:blue"/>
<circle cx="1086" cy="6452" r="5" style="fill:blue"/>
<circle cx="948" cy="9040" r="5" style="fill:blue"/>
<circle cx="6209" cy="7461" r="5" style="fill:blue"/>
<circle cx="5058" cy="4218" r="5" style="fill:blue"/>
<circle cx="5388" cy="4858" r="5" style="fill:blue"/>
<circle cx="6948" cy="6060" r="5" style="fill:blue"/>
<circle cx="4571" cy="3747" r="5" style="fill:blue"/>
<circle cx="1528" cy="2929" r="5" style="fill:blue"/>
<circle cx="1405" cy="4924" r="5" style="fill:blue"/>
<circle cx="8652" cy="6505" r="5" style="fill:blue"/>
<circle cx="3219" cy="8577" r="5" style="fill:blue"/>
<circle cx="8421" cy="8189" r="5" style="fill:blue"/>
<circle cx="6269" cy="8008" r="5" style="fill:blue"/>
<circle cx="3792" cy="3730" r="5" style="fill:blue"/>
<circle cx="1676" cy="2460" r="5" style="fill:blue"/>
<circle cx="6607" cy="6175" r="5" style="fill:blue"/>
<circle cx="6903" cy="7520" r="5" style="fill:blue"/>
<circle cx="6732" cy="1716" r="5" style="fill:blue"/>
<circle cx="3236" cy="5206" r="5" style="fill:blue"/>
<circle cx="4546" cy="4947" r="5" style="fill:blue"/>
<circle cx="5801" cy="1091" r="5" style="fill:blue"/>
<circle cx="3973" cy="7279" r="5" style="fill:blue"/>
<circle cx="4415" cy="8091" r="5" style="fill:blue"/>
<circle cx="3835" cy="5452" r="5" style="fill:blue"/>
<circle cx="2723" cy="5892" r="5" style="fill:blue"/>
<circle cx="6114" cy="3203" r="5" style="fill:blue"/>
<circle cx="5246" cy="5246" r="5" style="fill:blue"/>
<circle cx="4450" cy="8464" r="5" style="fill:blue"/>
<circle cx="7121" cy="368" r="5" style="fill:blue"/>
<circle cx="7372" cy="61" r="5" style="fill:blue"/>
<circle cx="3913" cy="4248" r="5" style="fill:blue"/>
<circle cx="8052" cy="3177" r="5" style="fill:blue"/>
<circle cx="7048" cy="7898" r="5" style="fill:blue"/>
<circle cx="1858" cy="6168" r="5" style="fill:blue"/>
<circle cx="3167" cy="1167" r="5" style="fill:blue"/>
<circle cx="4926" cy="358" r="5" style="fill:blue"/>
<circle cx="1105" cy="8537" r="5" style="fill:blue"/>
<circle cx="3905" cy="5326" r="5" style="fill:blue"/>
<circle cx="3996" cy="1887" r="5" style="fill:blue"/>
<circle cx="7167" cy="6183" r="5" style="fill:blue"/>
<circle cx="9521" cy="4585" r="5" style="fill:blue"/>
<circle cx="3375" cy="8098" r="5" style="fill:blue"/>
<circle cx="1895" cy="6603" r="5" style="fill:blue"/>
<circle cx="6946" cy="1816" r="5" style="fill:blue"/>
<circle cx="5353" cy="3127" r="5" style="fill:blue"/>
<circle cx="7176" cy="4469" r="5" style="fill:blue"/>
<circle cx="3822" cy="3014" r="5" style="fill:blue"/>
<circle cx="966" cy="6445" r="5" style="fill:blue"/>
<circle cx="8696" cy="7108" r="5" style="fill:blue"/>
<circle cx="4891" cy="1980" r="5" style="fill:blue"/>
<circle cx="2890" cy="6702" r="5" style="fill:blue"/>
<circle cx="2019" cy="1990" r="5" style="fill:blue"/>
<circle cx="433" cy="5137" r="5" style="fill:blue"/>
<circle cx="3095" cy="3976" r="5" style="fill:blue"/>
<circle cx="8777" cy="1954" r="5" style="fill:blue"/>
<circle cx="7822" cy="6051" r="5" style="fill:blue"/>
<circle cx="2730" cy="6149" r="5" style="fill:blue"/>
<circle cx="1110" cy="6808" r="5" style="fill:blue"/>
<circle cx="2356" cy="3612" r="5" style="fill:blue"/>
<circle cx="6605" cy="4213" r="5" style="fill:blue"/>
<circle cx="3169" cy="8110" r="5" style="fill:blue"/>
<circle cx="6445" cy="4281" r="5" style="fill:blue"/>
<circle cx="4992" cy="35" r="5" style="fill:blue"/>
<circle cx="6496" cy="7145" r="5" style="fill:blue"/>
<circle cx="1364" cy="8221" r="5" style="fill:blue"/>
<circle cx="3919" cy="1047" r="5" style="fill:blue"/>
<circle cx="382" cy="7251" r="5" style="fill:blue"/>
<circle cx="8017" cy="2978" r="5" style="fill:blue"/>
<circle cx="7128" cy="3033" r="5" style="fill:blue"/>
<circle cx="7515" cy="7512" r="5" style="fill:blue"/>
<circle cx="6114" cy="6856" r="5" style="fill:blue"/>
<circle cx="8635" cy="5386" r="5" style="fill:blue"/>
<circle cx="200" cy="8584" r="5" style="fill:blue"/>
<circle cx="4277" cy="6873" r="5" style="fill:blue"/>
<circle cx="9019" cy="1693" r="5" style="fill:blue"/>
<circle cx="4770" cy="3871" r="5" style="fill:blue"/>
<circle cx="4138" cy="5612" r="5" style="fill:blue"/>
<circle cx="2238" cy="3608" r="5" style="fill:blue"/>
<circle cx="6468" cy="7896" r="5" style="fill:blue"/>
<circle cx="3830" cy="8540" r="5" style="fill:blue"/>
<circle cx="2772" cy="119" r="5" style="fill:blue"/>
<circle cx="3354" cy="2984" r="5" style="fill:blue"/>
<circle cx="2325" cy="1696" r="5" style="fill:blue"/>
<circle cx="9478" cy="2192" r="5" style="fill:blue"/>
<circle cx="7713" cy="9111" r="5" style="fill:blue"/>
<circle cx="1450" cy="3503" r="5" style="fill:blue"/>
<circle cx="8835" cy="9143" r="5" style="fill:blue"/>
<circle cx="5651" cy="1378" r="5" style="fill:blue"/>
<circle cx="6564" cy="7814" r="5" style="fill:blue"/>
<circle cx="6749" cy="7878" r="5" style="fill:blue"/>
<circle cx="92" cy="4910" r="5" style="fill:blue"/>
<circle cx="3331" cy="973" r="5" style="fill:blue"/>
<circle cx="3923" cy="7051" r="5" style="fill:blue"/>
<circle cx="586" cy="8306" r="5" style="fill:blue"/>
<circle cx="8825" cy="1960" r="5" style="fill:blue"/>
<circle cx="5086" cy="2903" r="5" style="fill:blue"/>
<circle cx="5792" cy="4687" r="5" style="fill:blue"/>
<circle cx="2973" cy="4670" r="5" style="fill:blue"/>
<circle cx="8010" cy="2156" r="5" style="fill:blue"/>
<circle cx="6272" cy="7270" r="5" style="fill:blue"/>
<circle cx="852" cy="6746" r="5" style="fill:blue"/>
<circle cx="4611" cy="7300" r="5" style="fill:blue"/>
<circle cx="7180" cy="8287" r="5" style="fill:blue"/>
<circle cx="151" cy="1413" r="5" style="fill:blue"/>
<circle cx="2457" cy="3290" r="5" style="fill:blue"/>
<circle cx="9577" cy="7608" r="5" style="fill:blue"/>
<circle cx="3746" cy="6118" r="5" style="fill:blue"/>
<circle cx="7693" cy="4888" r="5" style="fill:blue"/>
<circle cx="592" cy="3487" r="5" style="fill:blue"/>
<circle cx="9406" cy="8075" r="5" style="fill:blue"/>
<circle cx="8367" cy="2541" r="5" style="fill:blue"/>
<circle cx="7501" cy="68" r="5" style="fill:blue"/>
<circle cx="6373" cy="590" r="5" style="fill:blue"/>
<circle cx="6861" cy="8788" r="5" style="fill:blue"/>
<circle cx="6179" cy="6157" r="5" style="fill:blue"/>
<circle cx="5814" cy="1142" r="5" style="fill:blue"/>
<circle cx="2967" cy="3953" r="5" style="fill:blue"/>
<circle cx="455" cy="7804" r="5" style="fill:blue"/>
<circle cx="5225" cy="8956" r="5" style="fill:blue"/>
<circle cx="4521" cy="6647" r="5" style="fill:blue"/>
<circle cx="1828" cy="3198" r="5" style="fill:blue"/>
<circle cx="7099" cy="386" r="5" style="fill:blue"/>
<circle cx="5156" cy="6557" r="5" style="fill:blue"/>
<circle cx="3589" cy="6334" r="5" style="fill:blue"/>
<circle cx="2825" cy="1081" r="5" style="fill:blue"/>
<circle cx="4622" cy="3539" r="5" style="fill:blue"/>
<circle cx="2112" cy="2782" r="5" style="fill:blue"/>
<circle cx="6072" cy="2687" r="5" style="fill:blue"/>
<circle cx="52" cy="6425" r="5" style="fill:blue"/>
<circle cx="9485" cy="486" r="5" style="fill:blue"/>
<circle cx="5178" cy="6114" r="5" style="fill:blue"/>
<circle cx="822" cy="4045" r="5" style="fill:blue"/>
<circle cx="6502" cy="5048" r="5" style="fill:blue"/>
<circle cx="7593" cy="6701" r="5" style="fill:blue"/>
<circle cx="4308" cy="2470" r="5" style="fill:blue"/>
<circle cx="6337" cy="3169" r="5" style="fill:blue"/>
<circle cx="6585" cy="6068" r="5" style="fill:blue"/>
<circle cx="2230" cy="4409" r="5" style="fill:blue"/>
<circle cx="9462" cy="5695" r="5" style="fill:blue"/>
<circle cx="327" cy="557" r="5" style="fill:blue"/>
<circle cx="7765" cy="5240" r="5" style="fill:blue"/>
<circle cx="4995" cy="8337" r="5" style="fill:blue"/>
<circle cx="7585" cy="6145" r="5" style="fill:blue"/>
<circle cx="8257" cy="5784" r="5" style="fill:blue"/>
<circle cx="1415" cy="1405" r="5" style="fill:blue"/>
<circle cx="8821" cy="2516" r="5" style="fill:blue"/>
<circle cx="8160" cy="2457" r="5" style="fill:blue"/>
<circle cx="2982" cy="3618" r="5" style="fill:blue"/>
<circle cx="7143" cy="8555" r="5" style="fill:blue"/>
<circle cx="3664" cy="2080" r="5" style="fill:blue"/>
<circle cx="6648" cy="4405" r="5" style="fill:blue"/>
<circle cx="2783" cy="5090" r="5" style="fill:blue"/>
<circle cx="2005" cy="1033" r="5" style="fill:blue"/>
<circle cx="5012" cy="406" r="5" style="fill:blue"/>
<circle cx="6614" cy="8933" r="5" style="fill:blue"/>
<circle cx="8847" cy="3826" r="5" style="fill:blue"/>
<circle cx="2168" cy="3255" r="5" style="fill:blue"/>
<circle cx="3601" cy="1332" r="5" style="fill:blue"/>
<circle cx="7554" cy="7460" r="5" style="fill:blue"/>
<circle cx="2683" cy="3102" r="5" style="fill:blue"/>
<circle cx="2012" cy="1938" r="5" style="fill:blue"/>
<circle cx="8090" cy="323" r="5" style="fill:blue"/>
<circle cx="4960" cy="7755" r="5" style="fill:blue"/>
<circle cx="3165" cy="2363" r="5" style="fill:blue"/>
<circle cx="3398" cy="9043" r="5" style="fill:blue"/>
<circle cx="7663" cy="1215" r="5" style="fill:blue"/>
<circle cx="1101" cy="2605" r="5" style="fill:blue"/>
<circle cx="8784" cy="8391" r="5" style="fill:blue"/>
<circle cx="448" cy="7879" r="5" style="fill:blue"/>
<circle cx="2686" cy="8502" r="5" style="fill:blue"/>
<circle cx="7040" cy="6750" r="5" style="fill:blue"/>
<circle cx="4128" cy="3269" r="5" style="fill:blue"/>
<circle cx="3083" cy="1505" r="5" style="fill:blue"/>
<circle cx="3421" cy="7225" r="5" style="fill:blue"/>
<circle cx="167" cy="4519" r="5" style="fill:blue"/>
<circle cx="522" cy="212" r="5" style="fill:blue"/>
<circle cx="4656" cy="8927" r="5" style="fill:blue"/>
<circle cx="1973" cy="5302" r="5" style="fill:blue"/>
<circle cx="8178" cy="8695" r="5" style="fill:blue"/>
<circle cx="5708" cy="3234" r="5" style="fill:blue"/>
<circle cx="6506" cy="4937" r="5" style="fill:blue"/>
<circle cx="9271" cy="6073" r="5" style="fill:blue"/>
<circle cx="9102" cy="6631" r="5" style="fill:blue"/>
<circle cx="4408" cy="8496" r="5" style="fill:blue"/>
<circle cx="6131" cy="6929" r="5" style="fill:blue"/>
<circle cx="6898" cy="72" r="5" style="fill:blue"/>
<circle cx="4568" cy="1678" r="5" style="fill:blue"/>
<circle cx="343" cy="3298" r="5" style="fill:blue"/>
<circle cx="7943" cy="8894" r="5" style="fill:blue"/>
<circle cx="6924" cy="1465" r="5" style="fill:blue"/>
<circle cx="8994" cy="6732" r="5" style="fill:blue"/>
<circle cx="8146" cy="4962" r="5" style="fill:blue"/>
<circle cx="7308" cy="5097" r="5" style="fill:blue"/>
<circle cx="1973" cy="3753" r="5" style="fill:blue"/>
<circle cx="4614" cy="7112" r="5" style="fill:blue"/>
<circle cx="6263" cy="5751" r="5" style="fill:blue"/>
<circle cx="8584" cy="2565" r="5" style="fill:blue"/>
<circle cx="9186" cy="7825" r="5" style="fill:blue"/>
<circle cx="4477" cy="30" r="5" style="fill:blue"/>
<circle cx="1217" cy="4733" r="5" style="fill:blue"/>
<circle cx="6974" cy="1572" r="5" style="fill:blue"/>
<circle cx="8930" cy="427" r="5" style="fill:blue"/>
<circle cx="4404" cy="1250" r="5" style="fill:blue"/>
<circle cx="4895" cy="9070" r="5" style="fill:blue"/>
<circle cx="4840" cy="8143" r="5" style="fill:blue"/>
<circle cx="6943" cy="0" r="5" style="fill:blue"/>
<circle cx="5596" cy="4072" r="5" style="fill:blue"/>
<circle cx="2073" cy="5457" r="5" style="fill:blue"/>
<circle cx="1741" cy="7124" r="5" style="fill:blue"/>
<circle cx="4813" cy="3634" r="5" style="fill:blue"/>
<circle cx="265" cy="2677" r="5" style="fill:blue"/>
<circle cx="9598" cy="1537" r="5" style="fill:blue"/>
<circle cx="583" cy="5261" r="5" style="fill:blue"/>
<circle cx="1482" cy="263" r="5" style="fill:blue"/>
<circle cx="7385" cy="7285" r="5" style="fill:blue"/>
<circle cx="7645" cy="6672" r="5" style="fill:blue"/>
<circle cx="5865" cy="7415" r="5" style="fill:blue"/>
<circle cx="7942" cy="3296" r="5" style="fill:blue"/>
<circle cx="2494" cy="8436" r="5" style="fill:blue"/>
<circle cx="1987" cy="332" r="5" style="fill:blue"/>
<circle cx="4292" cy="3952" r="5" style="fill:blue"/>
<circle cx="6059" cy="9103" r="5" style="fill:blue"/>
<circle cx="6524" cy="4548" r="5" style="fill:blue"/>
<circle cx="3002" cy="2674" r="5" style="fill:blue"/>
<circle cx="1052" cy="2030" r="5" style="fill:blue"/>
<circle cx="1905" cy="712" r="5" style="fill:blue"/>
<circle cx="6830" cy="8764" r="5" style="fill:blue"/>
<circle cx="4981" cy="2848" r="5" style="fill:blue"/>
<circle cx="369" cy="2045" r="5" style="fill:blue"/>
<circle cx="5504" cy="5988" r="5" style="fill:blue"/>
<circle cx="2092" cy="2042" r="5" style="fill:blue"/>
<circle cx="516" cy="4901" r="5" style="fill:blue"/>
<circle cx="7148" cy="5547" r="5" style="fill:blue"/>
<circle cx="8369" cy="2423" r="5" style="fill:blue"/>
<circle cx="4766" cy="6699" r="5" style="fill:blue"/>
<circle cx="716" cy="8181" r="5" style="fill:blue"/>
<circle cx="8449" cy="4566" r="5" style="fill:blue"/>
<circle cx="4591" cy="3018" r="5" style="fill:blue"/>
<circle cx="2409" cy="4724" r="5" style="fill:blue"/>
<circle cx="6184" cy="21" r="5" style="fill:blue"/>
<circle cx="7748" cy="2687" r="5" style="fill:blue"/>
<circle cx="6804" cy="5920" r="5" style="fill:blue"/>
<circle cx="3295" cy="4540" r="5" style="fill:blue"/>
<circle cx="1641" cy="5668" r="5" style="fill:blue"/>
<circle cx="7232" cy="8565" r="5" style="fill:blue"/>
<circle cx="8898" cy="8562" r="5" style="fill:blue"/>
<circle cx="6930" cy="9051" r="5" style="fill:blue"/>
<circle cx="6929" cy="5154" r="5" style="fill:blue"/>
<circle cx="7077" cy="8290" r="5" style="fill:blue"/>
<circle cx="1056" cy="1271" r="5" style="fill:blue"/>
<circle cx="5701" cy="1734" r="5" style="fill:blue"/>
<circle cx="3108" cy="7182" r="5" style="fill:blue"/>
<circle cx="1769" cy="3919" r="5" style="fill:blue"/>
<circle cx="6139" cy="4780" r="5" style="fill:blue"/>
<circle cx="4382" cy="5045" r="5" style="fill:blue"/>
<circle cx="9574" cy="8448" r="5" style="fill:blue"/>
<circle cx="2240" cy="4730" r="5" style="fill:blue"/>
<circle cx="2406" cy="1110" r="5" style="fill:blue"/>
<circle cx="7336" cy="6410" r="5" style="fill:blue"/>
<circle cx="6263" cy="33" r="5" style="fill:blue"/>
<circle cx="4325" cy="9081" r="5" style="fill:blue"/>
<circle cx="186" cy="8290" r="5" style="fill:blue"/>
<circle cx="1823" cy="8509" r="5" style="fill:blue"/>
<circle cx="4277" cy="9189" r="5" style="fill:blue"/>
<circle cx="1847" cy="2753" r="5" style="fill:blue"/>
<circle cx="208" cy="1100" r="5" style="fill:blue"/>
<circle cx="5613" cy="2066" r="5" style="fill:blue"/>
<circle cx="1166" cy="292" r="5" style="fill:blue"/>
<circle cx="4381" cy="140" r="5" style="fill:blue"/>
<circle cx="7813" cy="1605" r="5" style="fill:blue"/>
<circle cx="1197" cy="2461" r="5" style="fill:blue"/>
<circle cx="2048" cy="4515" r="5" style="fill:blue"/>
<circle cx="9013" cy="6221" r="5" style="fill:blue"/>
<circle cx="880" cy="6007" r="5" style="fill:blue"/>
<circle cx="8931" cy="5729" r="5" style="fill:blue"/>
<circle cx="8972" cy="9033" r="5" style="fill:blue"/>
<circle cx="8072" cy="7907" r="5" style="fill:blue"/>
<circle cx="9569" cy="5589" r="5" style="fill:blue"/>
<circle cx="8066" cy="6658" r="5" style="fill:blue"/>
<circle cx="4156" cy="8495" r="5" style="fill:blue"/>
<circle cx="5421" cy="8342" r="5" style="fill:blue"/>
<circle cx="3543" cy="4406" r="5" style="fill:blue"/>
<circle cx="4891" cy="7897" r="5" style="fill:blue"/>
<circle cx="8362" cy="1362" r="5" style="fill:blue"/>
<circle cx="4807" cy="1842" r="5" style="fill:blue"/>
<circle cx="5890" cy="2863" r="5" style="fill:blue"/>
<circle cx="8173" cy="2940" r="5" style="fill:blue"/>
<circle cx="7412" cy="1988" r="5" style="fill:blue"/>
<circle cx="737" cy="8457" r="5" style="fill:blue"/>
<circle cx="784" cy="6314" r="5" style="fill:blue"/>
<circle cx="7443" cy="7150" r="5" style="fill:blue"/>
<circle cx="6286" cy="3297" r="5" style="fill:blue"/>
<circle cx="1407" cy="4692" r="5" style="fill:blue"/>
<circle cx="8980" cy="2313" r="5" style="fill:blue"/>
<circle cx="2685" cy="4618" r="5" style="fill:blue"/>
<circle cx="4428" cy="5487" r="5" style="fill:blue"/>
<circle cx="7725" cy="3214" r="5" style="fill:blue"/>
<circle cx="5837" cy="5063" r="5" style="fill:blue"/>
<circle cx="6195" cy="8155" r="5" style="fill:blue"/>
<circle cx="260" cy="1049" r="5" style="fill:blue"/>
<circle cx="7504" cy="5225" r="5" style="fill:blue"/>
<circle cx="4435" cy="6013" r="5" style="fill:blue"/>
<circle cx="5766" cy="1034" r="5" style="fill:blue"/>
<circle cx="5306" cy="3379" r="5" style="fill:blue"/>
<circle cx="4073" cy="6022" r="5" style="fill:blue"/>
<circle cx="6897" cy="2485" r="5" style="fill:blue"/>
<circle cx="1614" cy="6068" r="5" style="fill:blue"/>
<circle cx="172" cy="5020" r="5" style="fill:blue"/>
<circle cx="6608" cy="5523" r="5" style="fill:blue"/>
<circle cx="359" cy="970" r="5" style="fill:blue"/>
<circle cx="9242" cy="8706" r="5" style="fill:blue"/>
<circle cx="5894" cy="4703" r="5" style="fill:blue"/>
<circle cx="5858" cy="1573" r="5" style="fill:blue"/>
<circle cx="6499" cy="5302" r="5" style="fill:blue"/>
<circle cx="9273" cy="1211" r="5" style="fill:blue"/>
<circle cx="5846" cy="506" r="5" style="fill:blue"/>
<circle cx="1984" cy="7404" r="5" style="fill:blue"/>
<circle cx="447" cy="5532" r="5" style="fill:blue"/>
<circle cx="2285" cy="3942" r="5" style="fill:blue"/>
<circle cx="4899" cy="4307" r="5" style="fill:blue"/>
<circle cx="5155" cy="5652" r="5" style="fill:blue"/>
<circle cx="1167" cy="1548" r="5" style="fill:blue"/>
<circle cx="5885" cy="8300" r="5" style="fill:blue"/>
<circle cx="4515" cy="3329" r="5" style="fill:blue"/>
<circle cx="7112" cy="5167" r="5" style="fill:blue"/>
<circle cx="1489" cy="858" r="5" style="fill:blue"/>
<circle cx="250" cy="3544" r="5" style="fill:blue"/>
<circle cx="8732" cy="8258" r="5" style="fill:blue"/>
<circle cx="495" cy="6172" r="5" style="fill:blue"/>
<circle cx="2167" cy="6917" r="5" style="fill:blue"/>
<circle cx="3476" cy="1504" r="5" style="fill:blue"/>
<circle cx="1182" cy="479" r="5" style="fill:blue"/>
<circle cx="3462" cy="1702" r="5" style="fill:blue"/>
<circle cx="3557" cy="7586" r="5" style="fill:blue"/>
<circle cx="7770" cy="3265" r="5" style="fill:blue"/>
<circle cx="4685" cy="8054" r="5" style="fill:blue"/>
<circle cx="7183" cy="9116" r="5" style="fill:blue"/>
<circle cx="8958" cy="1691" r="5" style="fill:blue"/>
<circle cx="9366" cy="8469" r="5" style="fill:blue"/>
<circle cx="4212" cy="25" r="5" style="fill:blue"/>
<circle cx="1409" cy="2436" r="5" style="fill:blue"/>
<circle cx="9385" cy="5771" r="5" style="fill:blue"/>
<circle cx="4364" cy="7007" r="5" style="fill:blue"/>
<circle cx="8763" cy="6719" r="5" style="fill:blue"/>
<circle cx="9238" cy="4087" r="5" style="fill:blue"/>
<circle cx="6937" cy="4604" r="5" style="fill:blue"/>
<circle cx="117" cy="532" r="5" style="fill:blue"/>
<circle cx="9240" cy="9062" r="5" style="fill:blue"/>
<circle cx="539" cy="7485" r="5" style="fill:blue"/>
<circle cx="4294" cy="1030" r="5" style="fill:blue"/>
<circle cx="3683" cy="5048" r="5" style="fill:blue"/>
<circle cx="284" cy="6191" r="5" style="fill:blue"/>
<circle cx="2495" cy="8606" r="5" style="fill:blue"/>
<circle cx="3630" cy="6008" r="5" style="fill:blue"/>
<circle cx="6410" cy="4290" r="5" style="fill:blue"/>
<circle cx="5981" cy="5429" r="5" style="fill:blue"/>
<circle cx="8192" cy="7709" r="5" style="fill:blue"/>
<circle cx="5242" cy="6680" r="5" style="fill:blue"/>
<circle cx="8940" cy="5980" r="5" style="fill:blue"/>
<circle cx="4437" cy="7299" r="5" style="fill:blue"/>
<circle cx="5167" cy="9151" r="5" style="fill:blue"/>
<circle cx="957" cy="5145" r="5" style="fill:blue"/>
<circle cx="6733" cy="1101" r="5" style="fill:blue"/>
<circle cx="7547" cy="6627" r="5" style="fill:blue"/>
<circle cx="3880" cy="1481" r="5" style="fill:blue"/>
<circle cx="7334" cy="3152" r="5" style="fill:blue"/>
<circle cx="2953" cy="8219" r="5" style="fill:blue"/>
<circle cx="7180" cy="3787" r="5" style="fill:blue"/>
<circle cx="891" cy="7842" r="5" style="fill:blue"/>
<circle cx="1171" cy="939" r="5" style="fill:blue"/>
<circle cx="528" cy="8358" r="5" style="fill:blue"/>
<circle cx="1907" cy="5492" r="5" style="fill:blue"/>
<circle cx="346" cy="3388" r="5" style="fill:blue"/>
<circle cx="3376" cy="3327" r="5" style="fill:blue"/>
<circle cx="6435" cy="559" r="5" style="fill:blue"/>
<circle cx="3522" cy="2597" r="5" style="fill:blue"/>
<circle cx="3076" cy="2831" r="5" style="fill:blue"/>
<circle cx="7674" cy="1849" r="5" style="fill:blue"/>
<circle cx="6410" cy="6124" r="5" style="fill:blue"/>
<circle cx="1185" cy="7261" r="5" style="fill:blue"/>
<circle cx="1949" cy="7307" r="5" style="fill:blue"/>
<circle cx="355" cy="7923" r="5" style="fill:blue"/>
<circle cx="186" cy="4711" r="5" style="fill:blue"/>
<circle cx="2794" cy="6554" r="5" style="fill:blue"/>
<circle cx="1754" cy="4432" r="5" style="fill:blue"/>
<circle cx="3168" cy="6839" r="5" style="fill:blue"/>
<circle cx="1821" cy="4776" r="5" style="fill:blue"/>
<circle cx="8303" cy="7520" r="5" style="fill:blue"/>
<circle cx="6381" cy="8386" r="5" style="fill:blue"/>
<circle cx="8692" cy="7535" r="5" style="fill:blue"/>
<circle cx="8322" cy="4658" r="5" style="fill:blue"/>
<circle cx="7525" cy="485" r="5" style="fill:blue"/>
<circle cx="7512" cy="2313" r="5" style="fill:blue"/>
<circle cx="7041" cy="8654" r="5" style="fill:blue"/>
<circle cx="379" cy="8823" r="5" style="fill:blue"/>
<circle cx="9366" cy="2971" r="5" style="fill:blue"/>
<circle cx="4587" cy="9081" r="5" style="fill:blue"/>
<circle cx="6937" cy="2472" r="5" style="fill:blue"/>
<circle cx="2946" cy="4622" r="5" style="fill:blue"/>
<circle cx="2630" cy="2567" r="5" style="fill:blue"/>
<circle cx="4107" cy="1083" r="5" style="fill:blue"/>
<circle cx="3463" cy="4383" r="5" style="fill:blue"/>
<circle cx="5103" cy="5693" r="5" style="fill:blue"/>
<circle cx="2486" cy="8548" r="5" style="fill:blue"/>
<circle cx="7959" cy="8086" r="5" style="fill:blue"/>
<circle cx="6272" cy="2281" r="5" style="fill:blue"/>
<circle cx="7516" cy="816" r="5" style="fill:blue"/>
<circle cx="9294" cy="3258" r="5" style="fill:blue"/>
<circle cx="4423" cy="8723" r="5" style="fill:blue"/>
<circle cx="9159" cy="2512" r="5" style="fill:blue"/>
<circle cx="4595" cy="3693" r="5" style="fill:blue"/>
<circle cx="2465" cy="7989" r="5" style="fill:blue"/>
<circle cx="4102" cy="5111" r="5" style="fill:blue"/>
<circle cx="856" cy="1665" r="5" style="fill:blue"/>
<circle cx="5490" cy="3174" r="5" style="fill:blue"/>
<circle cx="5038" cy="5001" r="5" style="fill:blue"/>
<circle cx="8570" cy="1002" r="5" style="fill:blue"/>
<circle cx="5641" cy="3036" r="5" style="fill:blue"/>
<circle cx="9411" cy="7546" r="5" style="fill:blue"/>
<circle cx="8468" cy="4208" r="5" style="fill:blue"/>
<circle cx="3072" cy="6401" r="5" style="fill:blue"/>
<circle cx="8366" cy="1394" r="5" style="fill:blue"/>
<circle cx="8221" cy="1318" r="5" style="fill:blue"/>
<circle cx="6272" cy="6671" r="5" style="fill:blue"/>
<circle cx="4438" cy="6221" r="5" style="fill:blue"/>
<circle cx="6291" cy="5816" r="5" style="fill:blue"/>
<circle cx="2632" cy="1175" r="5" style="fill:blue"/>
<circle cx="4439" cy="1051" r="5" style="fill:blue"/>
<circle cx="4279" cy="6571" r="5" style="fill:blue"/>
<circle cx="8728" cy="3883" r="5" style="fill:blue"/>
<circle cx="7873" cy="3361" r="5" style="fill:blue"/>
<circle cx="9360" cy="354" r="5" style="fill:blue"/>
<circle cx="5029" cy="1252" r="5" style="fill:blue"/>
<circle cx="8176" cy="8078" r="5" style="fill:blue"/>
<circle cx="1804" cy="6055" r="5" style="fill:blue"/>
<circle cx="8236" cy="420" r="5" style="fill:blue"/>
<circle cx="6652" cy="395" r="5" style="fill:blue"/>
<circle cx="2601" cy="4641" r="5" style="fill:blue"/>
<circle cx="6975" cy="2524" r="5" style="fill:blue"/>
<circle cx="2667" cy="1527" r="5" style="fill:blue"/>
<circle cx="6496" cy="8053" r="5" style="fill:blue"/>
<circle cx="3382" cy="6956" r="5" style="fill:blue"/>
<circle cx="8192" cy="4038" r="5" style="fill:blue"/>
<circle cx="7365" cy="6362" r="5" style="fill:blue"/>
<circle cx="8607" cy="3981" r="5" style="fill:blue"/>
<circle cx="1151" cy="534" r="5" style="fill:blue"/>
<circle cx="184" cy="7848" r="5" style="fill:blue"/>
<circle cx="4833" cy="6399" r="5" style="fill:blue"/>
<circle cx="9084" cy="2881" r="5" style="fill:blue"/>
<circle cx="1850" cy="5335" r="5" style="fill:blue"/>
<circle cx="2010" cy="2365" r="5" style="fill:blue"/>
<circle cx="1387" cy="1782" r="5" style="fill:blue"/>
<circle cx="6616" cy="7021" r="5" style="fill:blue"/>
<circle cx="2756" cy="4575" r="5" style="fill:blue"/>
<circle cx="768" cy="650" r="5" style="fill:blue"/>
<circle cx="5573" cy="1496" r="5" style="fill:blue"/>
<circle cx="599" cy="2522" r="5" style="fill:blue"/>
<circle cx="1472" cy="8966" r="5" style="fill:blue"/>
<circle cx="6319" cy="3472" r="5" style="fill:blue"/>
<circle cx="1134" cy="4140" r="5" style="fill:blue"/>
<circle cx="7706" cy="4132" r="5" style="fill:blue"/>
<circle cx="7930" cy="4809" r="5" style="fill:blue"/>
<circle cx="984" cy="3320" r="5" style="fill:blue"/>
<circle cx="2200" cy="6962" r="5" style="fill:blue"/>
<circle cx="3528" cy="4351" r="5" style="fill:blue"/>
<circle cx="4273" cy="9082" r="5" style="fill:blue"/>
<circle cx="3918" cy="8611" r="5" style="fill:blue"/>
<circle cx="7827" cy="3448" r="5" style="fill:blue"/>
<circle cx="9044" cy="8904" r="5" style="fill:blue"/>
<circle cx="5463" cy="7679" r="5" style="fill:blue"/>
<circle cx="8835" cy="2063" r="5" style="fill:blue"/>
<circle cx="4272" cy="7706" r="5" style="fill:blue"/>
<circle cx="8473" cy="3773" r="5" style="fill:blue"/>
<circle cx="3917" cy="5548" r="5" style="fill:blue"/>
<circle cx="2035" cy="5427" r="5" style="fill:blue"/>
<circle cx="8997" cy="4720" r="5" style="fill:blue"/>
<circle cx="5845" cy="5477" r="5" style="fill:blue"/>
<circle cx="4042" cy="730" r="5" style="fill:blue"/>
<circle cx="990" cy="6113" r="5" style="fill:blue"/>
<circle cx="7026" cy="143" r="5" style="fill:blue"/>
<circle cx="4458" cy="3096" r="5" style="fill:blue"/>
<circle cx="3730" cy="5083" r="5" style="fill:blue"/>
<circle cx="9516" cy="1265" r="5" style="fill:blue"/>
<circle cx="5211" cy="7288" r="5" style="fill:blue"/>
<circle cx="8290" cy="4742" r="5" style="fill:blue"/>
<circle cx="4975" cy="8013" r="5" style="fill:blue"/>
<circle cx="4385" cy="3583" r="5" style="fill:blue"/>
<circle cx="9449" cy="8567" r="5" style="fill:blue"/>
<circle cx="8640" cy="5788" r="5" style="fill:blue"/>
<circle cx="901" cy="2444" r="5" style="fill:blue"/>
<circle cx="6773" cy="7187" r="5" style="fill:blue"/>
<circle cx="1623" cy="1225" r="5" style="fill:blue"/>
<circle cx="8898" cy="8231" r="5" style="fill:blue"/>
<circle cx="2703" cy="983" r="5" style="fill:blue"/>
<circle cx="4358" cy="8469" r="5" style="fill:blue"/>
<circle cx="6496" cy="1650" r="5" style="fill:blue"/>
<circle cx="5875" cy="4265" r="5" style="fill:blue"/>
<circle cx="9026" cy="3707" r="5" style="fill:blue"/>
<circle cx="1084" cy="718" r="5" style="fill:blue"/>
<circle cx="8857" cy="7570" r="5" style="fill:blue"/>
<circle cx="1831" cy="6894" r="5" style="fill:blue"/>
<circle cx="5254" cy="7835" r="5" style="fill:blue"/>
<circle cx="5025" cy="4162" r="5" style="fill:blue"/>
<circle cx="8179" cy="4725" r="5" style="fill:blue"/>
<circle cx="5403" cy="4845" r="5" style="fill:blue"/>
<circle cx="7415" cy="6793" r="5" style="fill:blue"/>
<circle cx="4409" cy="2558" r="5" style="fill:blue"/>
<circle cx="2268" cy="8235" r="5" style="fill:blue"/>
<circle cx="3711" cy="1314" r="5" style="fill:blue"/>
<circle cx="1180" cy="3597" r="5" style="fill:blue"/>
<circle cx="2448" cy="6370" r="5" style="fill:blue"/>
<circle cx="2560" cy="3791" r="5" style="fill:blue"/>
<circle cx="4876" cy="1920" r="5" style="fill:blue"/>
<circle cx="1388" cy="5665" r="5" style="fill:blue"/>
<circle cx="2369" cy="7174" r="5" style="fill:blue"/>
<circle cx="9456" cy="6406" r="5" style="fill:blue"/>
<circle cx="2882" cy="1914" r="5" style="fill:blue"/>
<circle cx="1288" cy="5612" r="5" style="fill:blue"/>
<circle cx="2340" cy="8635" r="5" style="fill:blue"/>
<circle cx="5897" cy="641" r="5" style="fill:blue"/>
<circle cx="8940" cy="1998" r="5" style="fill:blue"/>
<circle cx="6748" cy="7033" r="5" style="fill:blue"/>
<circle cx="2884" cy="4982" r="5" style="fill:blue"/>
<circle cx="3578" cy="7780" r="5" style="fill:blue"/>
<circle cx="9369" cy="3794" r="5" style="fill:blue"/>
<circle cx="9313" cy="8047" r="5" style="fill:blue"/>
<circle cx="7103" cy="529" r="5" style="fill:blue"/>
<circle cx="3769" cy="8478" r="5" style="fill:blue"/>
<circle cx="1063" cy="5073" r="5" style="fill:blue"/>
<circle cx="5100" cy="519" r="5" style="fill:blue"/>
<circle cx="4897" cy="42" r="5" style="fill:blue"/>
<circle cx="8767" cy="945" r="5" style="fill:blue"/>
<circle cx="703" cy="8230" r="5" style="fill:blue"/>
<circle cx="3955" cy="3871" r="5" style="fill:blue"/>
<circle cx="582" cy="8245" r="5" style="fill:blue"/>
<circle cx="721" cy="4915" r="5" style="fill:blue"/>
<circle cx="5917" cy="7553" r="5" style="fill:blue"/>
<circle cx="1992" cy="8123" r="5" style="fill:blue"/>
<circle cx="9532" cy="5373" r="5" style="fill:blue"/>
<circle cx="2451" cy="4409" r="5" style="fill:blue"/>
<circle cx="4115" cy="5154" r="5" style="fill:blue"/>
<circle cx="8034" cy="2901" r="5" style="fill:blue"/>
<circle cx="3287" cy="4986" r="5" style="fill:blue"/>
<circle cx="4724" cy="7122" r="5" style="fill:blue"/>
<circle cx="4750" cy="2677" r="5" style="fill:blue"/>
<circle cx="5188" cy="2230" r="5" style="fill:blue"/>
<circle cx="4011" cy="9083" r="5" style="fill:blue"/>
<circle cx="2338" cy="2463" r="5" style="fill:blue"/>
<circle cx="7350" cy="2546" r="5" style="fill:blue"/>
<circle cx="131" cy="3420" r="5" style="fill:blue"/>
<circle cx="7943" cy="3573" r="5" style="fill:blue"/>
<circle cx="2185" cy="605" r="5" style="fill:blue"/>
<circle cx="1154" cy="956" r="5" style="fill:blue"/>
<circle cx="1311" cy="8584" r="5" style="fill:blue"/>
<circle cx="6349" cy="2372" r="5" style="fill:blue"/>
<circle cx="6387" cy="5481" r="5" style="fill:blue"/>
<circle cx="7344" cy="6739" r="5" style="fill:blue"/>
<circle cx="6735" cy="5861" r="5" style="fill:blue"/>
<circle cx="4403" cy="6875" r="5" style="fill:blue"/>
<circle cx="1852" cy="8176" r="5" style="fill:blue"/>
<circle cx="3629" cy="7124" r="5" style="fill:blue"/>
<circle cx="5006" cy="5853" r="5" style="fill:blue"/>
<circle cx="6120" cy="7947" r="5" style="fill:blue"/>
<circle cx="7416" cy="5179" r="5" style="fill:blue"/>
<circle cx="6030" cy="3108" r="5" style="fill:blue"/>
<circle cx="4565" cy="9162" r="5" style="fill:blue"/>
<circle cx="339" cy="3381" r="5" style="fill:blue"/>
<circle cx="5289" cy="6893" r="5" style="fill:blue"/>
<circle cx="3580" cy="1190" r="5" style="fill:blue"/>
<circle cx="1282" cy="8848" r="5" style="fill:blue"/>
<circle cx="3542" cy="3690" r="5" style="fill:blue"/>
<circle cx="7226" cy="1182" r="5" style="fill:blue"/>
<circle cx="1680" cy="6206" r="5" style="fill:blue"/>
<circle cx="1" cy="324" r="5" style="fill:blue"/>
<circle cx="1686" cy="2163" r="5" style="fill:blue"/>
<circle cx="4526" cy="194" r="5" style="fill:blue"/>
<circle cx="9396" cy="834" r="5" style="fill:blue"/>
<circle cx="1231" cy="7718" r="5" style="fill:blue"/>
<circle cx="2344" cy="3221" r="5" style="fill:blue"/>
<circle cx="8416" cy="8576" r="5" style="fill:blue"/>
<circle cx="3343" cy="3627" r="5" style="fill:blue"/>
<circle cx="2116" cy="526" r="5" style="fill:blue"/>
<circle cx="8793" cy="9133" r="5" style="fill:blue"/>
<circle cx="6666" cy="2781" r="5" style="fill:blue"/>
<circle cx="3131" cy="2594" r="5" style="fill:blue"/>
<circle cx="5067" cy="1553" r="5" style="fill:blue"/>
<circle cx="3214" cy="4263" r="5" style="fill:blue"/>
<circle cx="7448" cy="6200" r="5" style="fill:blue"/>
<circle cx="3049" cy="7708" r="5" style="fill:blue"/>
<circle cx="5913" cy="175" r="5" style="fill:blue"/>
<circle cx="5880" cy="1980" r="5" style="fill:blue"/>
<circle cx="7386" cy="36" r="5" style="fill:blue"/>
<circle cx="5556" cy="5952" r="5" style="fill:blue"/>
<circle cx="6697" cy="3909" r="5" style="fill:blue"/>
<circle cx="6240" cy="8731" r="5" style="fill:blue"/>
<circle cx="6854" cy="5006" r="5" style="fill:blue"/>
<circle cx="3259" cy="2329" r="5" style="fill:blue"/>
<circle cx="7196" cy="5562" r="5" style="fill:blue"/>
<circle cx="198" cy="6943" r="5" style="fill:blue"/>
<circle cx="5045" cy="1249" r="5" style="fill:blue"/>
<circle cx="2790" cy="5302" r="5" style="fill:blue"/>
<circle cx="3456" cy="2958" r="5" style="fill:blue"/>
<circle cx="6266" cy="8050" r="5" style="fill:blue"/>
<circle cx="8477" cy="5725" r="5" style="fill:blue"/>
<circle cx="1859" cy="8386" r="5" style="fill:blue"/>
<circle cx="1716" cy="4767" r="5" style="fill:blue"/>
<circle cx="1670" cy="1973" r="5" style="fill:blue"/>
<circle cx="5205" cy="4442" r="5" style="fill:blue"/>
<circle cx="9231" cy="4046" r="5" style="fill:blue"/>
<circle cx="7043" cy="597" r="5" style="fill:blue"/>
<circle cx="7282" cy="3342" r="5" style="fill:blue"/>
<circle cx="1867" cy="5500" r="5" style="fill:blue"/>
<circle cx="6988" cy="9078" r="5" style="fill:blue"/>
<circle cx="7490" cy="1357" r="5" style="fill:blue"/>
<circle cx="6511" cy="1855" r="5" style="fill:blue"/>
<circle cx="8968" cy="8238" r="5" style="fill:blue"/>
<circle cx="795" cy="7762" r="5" style="fill:blue"/>
<circle cx="2141" cy="285" r="5" style="fill:blue"/>
<circle cx="7043" cy="7831" r="5" style="fill:blue"/>
<circle cx="3987" cy="2367" r="5" style="fill:blue"/>
<circle cx="8868" cy="1163" r="5" style="fill:blue"/>
<circle cx="8115" cy="7179" r="5" style="fill:blue"/>
<circle cx="6078" cy="4499" r="5" style="fill:blue"/>
<circle cx="3728" cy="6128" r="5" style="fill:blue"/>
<circle cx="8525" cy="120" r="5" style="fill:blue"/>
<circle cx="4125" cy="1444" r="5" style="fill:blue"/>
<circle cx="6239" cy="4477" r="5" style="fill:blue"/>
<circle cx="9348" cy="4367" r="5" style="fill:blue"/>
<circle cx="5920" cy="1618" r="5" style="fill:blue"/>
<circle cx="6872" cy="5392" r="5" style="fill:blue"/>
<circle cx="1680" cy="9069" r="5" style="fill:blue"/>
<circle cx="1032" cy="41" r="5" style="fill:blue"/>
<circle cx="624" cy="2978" r="5" style="fill:blue"/>
<circle cx="2179" cy="8492" r="5" style="fill:blue"/>
<circle cx="7876" cy="2628" r="5" style="fill:blue"/>
<circle cx="5634" cy="2167" r="5" style="fill:blue"/>
<circle cx="8136" cy="3028" r="5" style="fill:blue"/>
<circle cx="3403" cy="4497" r="5" style="fill:blue"/>
<circle cx="4318" cy="1377" r="5" style="fill:blue"/>
<circle cx="8836" cy="477" r="5" style="fill:blue"/>
<circle cx="8630" cy="3725" r="5" style="fill:blue"/>
<circle cx="6531" cy="5219" r="5" style="fill:blue"/>
<circle cx="8912" cy="7553" r="5" style="fill:blue"/>
<circle cx="9483" cy="3546" r="5" style="fill:blue"/>
<circle cx="8606" cy="721" r="5" style="fill:blue"/>
<circle cx="8069" cy="6582" r="5" style="fill:blue"/>
<circle cx="8385" cy="4379" r="5" style="fill:blue"/>
<circle cx="2247" cy="2619" r="5" style="fill:blue"/>
<circle cx="3101" cy="5644" r="5" style="fill:blue"/>
<circle cx="5881" cy="7186" r="5" style="fill:blue"/>
<circle cx="5252" cy="8190" r="5" style="fill:blue"/>
<circle cx="8802" cy="5444" r="5" style="fill:blue"/>
<circle cx="7014" cy="7613" r="5" style="fill:blue"/>
<circle cx="3280" cy="4956" r="5" style="fill:blue"/>
<circle cx="7590" cy="3532" r="5" style="fill:blue"/>
<circle cx="3576" cy="6807" r="5" style="fill:blue"/>
<circle cx="7029" cy="6646" r="5" style="fill:blue"/>
<circle cx="6353" cy="2719" r="5" style="fill:blue"/>
<circle cx="1766" cy="7235" r="5" style="fill:blue"/>
<circle cx="6331" cy="884" r="5" style="fill:blue"/>
<circle cx="4478" cy="1618" r="5" style="fill:blue"/>
<circle cx="2050" cy="6810" r="5" style="fill:blue"/>
<circle cx="6044" cy="478" r="10" style="stroke-width:5;fill:gray;fill-opacity:0.3"/>
<circle cx="6064" cy="478" r="10" style="stroke-width:5;fill:gray;fill-opacity:0.3"/>
<circle cx="6044" cy="1932" r="10" style="stroke-width:5;fill:gray;fill-opacity:0.3"/>
<circle cx="6064" cy="1932" r="10" style="stroke-width:5;fill:gray;fill-opacity:0.3"/>
</svg>