<svg viewBox="0 0 4022 8752" xmlns="http://www.w3.org/2000/svg">
<rect height="2051" style="stroke:pink;stroke-width:10;fill:gray;fill-opacity:0.1;stroke-opacity:0.9" width="663" x="3184" y="1406"/>
<circle cx="2030" cy="3132" r="5" style="fill:blue"/>
<circle cx="1807" cy="8701" r="5" style="fill:blue"/>
<circle cx="3839" cy="3549" r="5" style="fill:blue"/>
<circle cx="3554" cy="411" r="5" style="fill:blue"/>
<circle cx="3390" cy="7192" r="5" style="fill:blue"/>
<circle cx="1521" cy="8502" r="5" style="fill:blue"/>
<circle cx="3011" cy="6858" r="5" style="fill:blue"/>
<circle cx="2753" cy="4083" r="5" style="fill:blue"/>
<circle cx="130" cy="3603" r="5" style="fill:blue"/>
<circle cx="672" cy="8087" r="5" style="fill:blue"/>
<circle cx="3717" cy="8381" r="5" style="fill:blue"/>
<circle cx="2740" cy="7615" r="5" style="fill:blue"/>
<circle cx="2588" cy="5375" r="5" style="fill:blue"/>
<circle cx="1089" cy="4595" r="5" style="fill:blue"/>
<circle cx="1936" cy="1756" r="5" style="fill:blue"/>
<circle cx="231" cy="8712" r="5" style="fill:blue"/>
<circle cx="2352" cy="876" r="5" style="fill:blue"/>
<circle cx="3219" cy="529" r="5" style="fill:blue"/>
<circle cx="16" cy="1889" r="5" style="fill:blue"/>
<circle cx="1801" cy="3997" r="5" style="fill:blue"/>
<circle cx="3461" cy="3722" r="5" style="fill:blue"/>
<circle cx="2061" cy="4385" r="5" style="fill:blue"/>
<circle cx="935" cy="6202" r="5" style="fill:blue"/>
<circle cx="3749" cy="4669" r="5" style="fill:blue"/>
<circle cx="2878" cy="6284" r="5" style="fill:blue"/>
<circle cx="1877" cy="1209" r="5" style="fill:blue"/>
<circle cx="2536" cy="151" r="5" style="fill:blue"/>
<circle cx="3438" cy="7067" r="5" style="fill:blue"/>
<circle cx="1184" cy="6931" r="5" style="fill:blue"/>
<circle cx="1371" cy="4164" r="5" style="fill:blue"/>
<circle cx="2789" cy="6363" r="5" style="fill:blue"/>
<circle cx="2394" cy="6503" r="5" style="fill:blue"/>
<circle cx="3950" cy="3009" r="5" style="fill:blue"/>
<circle cx="827" cy="6011" r="5" style="fill:blue"/>
<circle cx="1804" cy="5333" r="5" style="fill:blue"/>
<circle cx="722" cy="4912" r="5" style="fill:blue"/>
<circle cx="2642" cy="5425" r="5" style="fill:blue"/>
<circle cx="2348" cy="8178" r="5" style="fill:blue"/>
<circle cx="2851" cy="6786" r="5" style="fill:blue"/>
<circle cx="142" cy="2681" r="5" style="fill:blue"/>
<circle cx="2024" cy="5851" r="5" style="fill:blue"/>
<circle cx="132" cy="2496" r="5" style="fill:blue"/>
<circle cx="3545" cy="509" r="5" style="fill:blue"/>
<circle cx="2424" cy="5823" r="5" style="fill:blue"/>
<circle cx="219" cy="8153" r="5" style="fill:blue"/>
<circle cx="3766" cy="8313" r="5" style="fill:blue"/>
<circle cx="38" cy="7993" r="5" style="fill:blue"/>
<circle cx="178" cy="7897" r="5" style="fill:blue"/>
<circle cx="1765" cy="3217" r="5" style="fill:blue"/>
<circle cx="3977" cy="1504" r="5" style="fill:blue"/>
<circle cx="927" cy="199" r="5" style="fill:blue"/>
<circle cx="1315" cy="2763" r="5" style="fill:blue"/>
<circle cx="1020" cy="2051" r="5" style="fill:blue"/>
<circle cx="400" cy="6311" r="5" style="fill:blue"/>
<circle cx="2175" cy="5549" r="5" style="fill:blue"/>
<circle cx="3845" cy="7338" r="5" style="fill:blue"/>
<circle cx="3199" cy="6344" r="5" style="fill:blue"/>
<circle cx="3902" cy="3372" r="5" style="fill:blue"/>
<circle cx="803" cy="2924" r="5" style="fill:blue"/>
<circle cx="430" cy="5188" r="5" style="fill:blue"/>
<circle cx="2984" cy="423" r="5" style="fill:blue"/>
<circle cx="896" cy="4686" r="5" style="fill:blue"/>
<circle cx="770" cy="1959" r="5" style="fill:blue"/>
<circle cx="918" cy="6669" r="5" style="fill:blue"/>
<circle cx="274" cy="2138" r="5" style="fill:blue"/>
<circle cx="2111" cy="2271" r="5" style="fill:blue"/>
<circle cx="2499" cy="2392" r="5" style="fill:blue"/>
<circle cx="384" cy="5405" r="5" style="fill:blue"/>
<circle cx="2065" cy="4965" r="5" style="fill:blue"/>
<circle cx="3713" cy="1206" r="5" style="fill:blue"/>
<circle cx="3446" cy="5322" r="5" style="fill:blue"/>
<circle cx="3223" cy="357" r="5" style="fill:blue"/>
<circle cx="1761" cy="69" r="5" style="fill:blue"/>
<circle cx="760" cy="4767" r="5" style="fill:blue"/>
<circle cx="154" cy="5721" r="5" style="fill:blue"/>
<circle cx="3319" cy="7353" r="5" style="fill:blue"/>
<circle cx="1720" cy="5306" r="5" style="fill:blue"/>
<circle cx="2079" cy="5233" r="5" style="fill:blue"/>
<circle cx="2404" cy="8362" r="5" style="fill:blue"/>
<circle cx="674" cy="7807" r="5" style="fill:blue"/>
<circle cx="3680" cy="3603" r="5" style="fill:blue"/>
<circle cx="50" cy="2687" r="5" style="fill:blue"/>
<circle cx="3145" cy="1033" r="5" style="fill:blue"/>
<circle cx="403" cy="1655" r="5" style="fill:blue"/>
<circle cx="2625" cy="1371" r="5" style="fill:blue"/>
<circle cx="350" cy="5724" r="5" style="fill:blue"/>
<circle cx="345" cy="6902" r="5" style="fill:blue"/>
<circle cx="2566" cy="187" r="5" style="fill:blue"/>
<circle cx="1871" cy="5515" r="5" style="fill:blue"/>
<circle cx="3469" cy="244" r="5" style="fill:blue"/>
<circle cx="4010" cy="618" r="5" style="fill:blue"/>
<circle cx="254" cy="1779" r="5" style="fill:blue"/>
<circle cx="3190" cy="4274" r="5" style="fill:blue"/>
<circle cx="3035" cy="1987" r="5" style="fill:blue"/>
<circle cx="1067" cy="4871" r="5" style="fill:blue"/>
<circle cx="1622" cy="7472" r="5" style="fill:blue"/>
<circle cx="1563" cy="3789" r="5" style="fill:blue"/>
<circle cx="689" cy="55" r="5" style="fill:blue"/>
<circle cx="1606" cy="7748" r="5" style="fill:blue"/>
<circle cx="760" cy="4805" r="5" style="fill:blue"/>
<circle cx="2041" cy="6875" r="5" style="fill:blue"/>
<circle cx="2280" cy="8341" r="5" style="fill:blue"/>
<circle cx="1445" cy="2960" r="5" style="fill:blue"/>
<circle cx="1253" cy="5491" r="5" style="fill:blue"/>
<circle cx="3619" cy="6313" r="5" style="fill:blue"/>
<circle cx="710" cy="3967" r="5" style="fill:blue"/>
<circle cx="1176" cy="5574" r="5" style="fill:blue"/>
<circle cx="2851" cy="364" r="5" style="fill:blue"/>
<circle cx="1682" cy="4451" r="5" style="fill:blue"/>
<circle cx="3604" cy="6219" r="5" style="fill:blue"/>
<circle cx="3266" cy="5861" r="5" style="fill:blue"/>
<circle cx="1439" cy="8231" r="5" style="fill:blue"/>
<circle cx="1184" cy="8166" r="5" style="fill:blue"/>
<circle cx="2154" cy="6063" r="5" style="fill:blue"/>
<circle cx="1290" cy="6069" r="5" style="fill:blue"/>
<circle cx="1903" cy="347" r="5" style="fill:blue"/>
<circle cx="2950" cy="2325" r="5" style="fill:blue"/>
<circle cx="183" cy="6492" r="5" style="fill:blue"/>
<circle cx="160" cy="2424" r="5" style="fill:blue"/>
<circle cx="2694" cy="435" r="5" style="fill:blue"/>
<circle cx="672" cy="553" r="5" style="fill:blue"/>
<circle cx="3426" cy="3487" r="5" style="fill:blue"/>
<circle cx="3415" cy="4637" r="5" style="fill:blue"/>
<circle cx="2676" cy="6164" r="5" style="fill:blue"/>
<circle cx="1162" cy="8649" r="5" style="fill:blue"/>
<circle cx="3415" cy="4920" r="5" style="fill:blue"/>
<circle cx="627" cy="5755" r="5" style="fill:blue"/>
<circle cx="2354" cy="6191" r="5" style="fill:blue"/>
<circle cx="3712" cy="677" r="5" style="fill:blue"/>
<circle cx="290" cy="6113" r="5" style="fill:blue"/>
<circle cx="2567" cy="3885" r="5" style="fill:blue"/>
<circle cx="3087" cy="724" r="5" style="fill:blue"/>
<circle cx="1889" cy="4207" r="5" style="fill:blue"/>
<circle cx="1296" cy="4935" r="5" style="fill:blue"/>
<circle cx="3322" cy="3573" r="5" style="fill:blue"/>
<circle cx="1462" cy="5258" r="5" style="fill:blue"/>
<circle cx="539" cy="79" r="5" style="fill:blue"/>
<circle cx="3696" cy="5960" r="5" style="fill:blue"/>
<circle cx="2954" cy="3312" r="5" style="fill:blue"/>
<circle cx="3739" cy="6537" r="5" style="fill:blue"/>
<circle cx="2367" cy="3972" r="5" style="fill:blue"/>
<circle cx="3600" cy="1249" r="5" style="fill:blue"/>
<circle cx="2486" cy="4757" r="5" style="fill:blue"/>
<circle cx="528" cy="1149" r="5" style="fill:blue"/>
<circle cx="998" cy="8356" r="5" style="fill:blue"/>
<circle cx="1892" cy="1870" r="5" style="fill:blue"/>
<circle cx="3968" cy="7884" r="5" style="fill:blue"/>
<circle cx="198" cy="610" r="5" style="fill:blue"/>
<circle cx="875" cy="7763" r="5" style="fill:blue"/>
<circle cx="3976" cy="575" r="5" style="fill:blue"/>
<circle cx="2900" cy="3901" r="5" style="fill:blue"/>
<circle cx="1116" cy="7874" r="5" style="fill:blue"/>
<circle cx="2688" cy="4780" r="5" style="fill:blue"/>
<circle cx="1946" cy="1425" r="5" style="fill:blue"/>
<circle cx="3944" cy="8114" r="5" style="fill:blue"/>
<circle cx="2741" cy="2296" r="5" style="fill:blue"/>
<circle cx="3240" cy="4106" r="5" style="fill:blue"/>
<circle cx="1945" cy="5644" r="5" style="fill:blue"/>
<circle cx="658" cy="8137" r="5" style="fill:blue"/>
<circle cx="667" cy="4560" r="5" style="fill:blue"/>
<circle cx="3159" cy="8531" r="5" style="fill:blue"/>
<circle cx="389" cy="275" r="5" style="fill:blue"/>
<circle cx="3838" cy="609" r="5" style="fill:blue"/>
<circle cx="1393" cy="2562" r="5" style="fill:blue"/>
<circle cx="2219" cy="5359" r="5" style="fill:blue"/>
<circle cx="2845" cy="2381" r="5" style="fill:blue"/>
<circle cx="3273" cy="8637" r="5" style="fill:blue"/>
<circle cx="146" cy="1216" r="5" style="fill:blue"/>
<circle cx="1526" cy="5434" r="5" style="fill:blue"/>
<circle cx="1118" cy="50" r="5" style="fill:blue"/>
<circle cx="1306" cy="4849" r="5" style="fill:blue"/>
<circle cx="593" cy="2664" r="5" style="fill:blue"/>
<circle cx="1700" cy="6663" r="5" style="fill:blue"/>
<circle cx="3078" cy="7059" r="5" style="fill:blue"/>
<circle cx="672" cy="1853" r="5" style="fill:blue"/>
<circle cx="3688" cy="7193" r="5" style="fill:blue"/>
<circle cx="2684" cy="2014" r="5" style="fill:blue"/>
<circle cx="3416" cy="5806" r="5" style="fill:blue"/>
<circle cx="704" cy="6427" r="5" style="fill:blue"/>
<circle cx="3140" cy="7701" r="5" style="fill:blue"/>
<circle cx="3806" cy="4788" r="5" style="fill:blue"/>
<circle cx="516" cy="6594" r="5" style="fill:blue"/>
<circle cx="784" cy="4977" r="5" style="fill:blue"/>
<circle cx="44" cy="116" r="5" style="fill:blue"/>
<circle cx="518" cy="4686" r="5" style="fill:blue"/>
<circle cx="4004" cy="771" r="5" style="fill:blue"/>
<circle cx="1321" cy="7992" r="5" style="fill:blue"/>
<circle cx="1726" cy="8043" r="5" style="fill:blue"/>
<circle cx="1119" cy="5122" r="5" style="fill:blue"/>
<circle cx="3097" cy="4532" r="5" style="fill:blue"/>
<circle cx="1729" cy="4768" r="5" style="fill:blue"/>
<circle cx="1121" cy="7405" r="5" style="fill:blue"/>
<circle cx="3477" cy="4239" r="5" style="fill:blue"/>
<circle cx="1743" cy="7686" r="5" style="fill:blue"/>
<circle cx="2294" cy="3449" r="5" style="fill:blue"/>
<circle cx="617" cy="8684" r="5" style="fill:blue"/>
<circle cx="2570" cy="5463" r="5" style="fill:blue"/>
<circle cx="3374" cy="7037" r="5" style="fill:blue"/>
<circle cx="1113" cy="3265" r="5" style="fill:blue"/>
<circle cx="1959" cy="8064" r="5" style="fill:blue"/>
<circle cx="2671" cy="1283" r="5" style="fill:blue"/>
<circle cx="1602" cy="3277" r="5" style="fill:blue"/>
<circle cx="3709" cy="4046" r="5" style="fill:blue"/>
<circle cx="3903" cy="8320" r="5" style="fill:blue"/>
<circle cx="4007" cy="2621" r="5" style="fill:blue"/>
<circle cx="2683" cy="8023" r="5" style="fill:blue"/>
<circle cx="1178" cy="6961" r="5" style="fill:blue"/>
<circle cx="1524" cy="486" r="5" style="fill:blue"/>
<circle cx="537" cy="3138" r="5" style="fill:blue"/>
<circle cx="2844" cy="1692" r="5" style="fill:blue"/>
<circle cx="924" cy="6525" r="5" style="fill:blue"/>
<circle cx="2482" cy="6224" r="5" style="fill:blue"/>
<circle cx="489" cy="5728" r="5" style="fill:blue"/>
<circle cx="274" cy="5608" r="5" style="fill:blue"/>
<circle cx="46" cy="2778" r="5" style="fill:blue"/>
<circle cx="3167" cy="6172" r="5" style="fill:blue"/>
<circle cx="129" cy="5718" r="5" style="fill:blue"/>
<circle cx="3217" cy="7974" r="5" style="fill:blue"/>
<circle cx="1758" cy="2671" r="5" style="fill:blue"/>
<circle cx="84" cy="1975" r="5" style="fill:blue"/>
<circle cx="743" cy="3539" r="5" style="fill:blue"/>
<circle cx="1912" cy="3072" r="5" style="fill:blue"/>
<circle cx="2052" cy="513" r="5" style="fill:blue"/>
<circle cx="3035" cy="852" r="5" style="fill:blue"/>
<circle cx="1504" cy="1275" r="5" style="fill:blue"/>
<circle cx="956" cy="2839" r="5" style="fill:blue"/>
<circle cx="1480" cy="4237" r="5" style="fill:blue"/>
<circle cx="385" cy="1158" r="5" style="fill:blue"/>
<circle cx="3339" cy="7244" r="5" style="fill:blue"/>
<circle cx="1128" cy="1748" r="5" style="fill:blue"/>
<circle cx="3183" cy="4250" r="5" style="fill:blue"/>
<circle cx="2527" cy="7507" r="5" style="fill:blue"/>
<circle cx="3292" cy="4734" r="5" style="fill:blue"/>
<circle cx="762" cy="1532" r="5" style="fill:blue"/>
<circle cx="1457" cy="8502" r="5" style="fill:blue"/>
<circle cx="1927" cy="1827" r="5" style="fill:blue"/>
<circle cx="11" cy="4914" r="5" style="fill:blue"/>
<circle cx="2940" cy="759" r="5" style="fill:blue"/>
<circle cx="3885" cy="1290" r="5" style="fill:blue"/>
<circle cx="3218" cy="1071" r="5" style="fill:blue"/>
<circle cx="1947" cy="6655" r="5" style="fill:blue"/>
<circle cx="2963" cy="3253" r="5" style="fill:blue"/>
<circle cx="2405" cy="8396" r="5" style="fill:blue"/>
<circle cx="1988" cy="1641" r="5" style="fill:blue"/>
<circle cx="1297" cy="8296" r="5" style="fill:blue"/>
<circle cx="3280" cy="571" r="5" style="fill:blue"/>
<circle cx="159" cy="4513" r="5" style="fill:blue"/>
<circle cx="1106" cy="1406" r="5" style="fill:blue"/>
<circle cx="1540" cy="435" r="5" style="fill:blue"/>
<circle cx="1589" cy="6089" r="5" style="fill:blue"/>
<circle cx="626" cy="7842" r="5" style="fill:blue"/>
<circle cx="2295" cy="2596" r="5" style="fill:blue"/>
<circle cx="1277" cy="5809" r="5" style="fill:blue"/>
<circle cx="995" cy="8373" r="5" style="fill:blue"/>
<circle cx="933" cy="5871" r="5" style="fill:blue"/>
<circle cx="3172" cy="5987" r="5" style="fill:blue"/>
<circle cx="2617" cy="5234" r="5" style="fill:blue"/>
<circle cx="2114" cy="4024" r="5" style="fill:blue"/>
<circle cx="2462" cy="3331" r="5" style="fill:blue"/>
<circle cx="2055" cy="1390" r="5" style="fill:blue"/>
<circle cx="50" cy="625" r="5" style="fill:blue"/>
<circle cx="2019" cy="4483" r="5" style="fill:blue"/>
<circle cx="1403" cy="2965" r="5" style="fill:blue"/>
<circle cx="3057" cy="3862" r="5" style="fill:blue"/>
<circle cx="3205" cy="4306" r="5" style="fill:blue"/>
<circle cx="1573" cy="1521" r="5" style="fill:blue"/>
<circle cx="1561" cy="3472" r="5" style="fill:blue"/>
<circle cx="882" cy="5289" r="5" style="fill:blue"/>
<circle cx="144" cy="5405" r="5" style="fill:blue"/>
<circle cx="3725" cy="987" r="5" style="fill:blue"/>
<circle cx="3817" cy="6866" r="5" style="fill:blue"/>
<circle cx="678" cy="728" r="5" style="fill:blue"/>
<circle cx="1289" cy="5909" r="5" style="fill:blue"/>
<circle cx="3915" cy="5722" r="5" style="fill:blue"/>
<circle cx="3857" cy="6463" r="5" style="fill:blue"/>
<circle cx="3312" cy="3637" r="5" style="fill:blue"/>
<circle cx="1085" cy="3844" r="5" style="fill:blue"/>
<circle cx="691" cy="89" r="5" style="fill:blue"/>
<circle cx="1864" cy="605" r="5" style="fill:blue"/>
<circle cx="1639" cy="6536" r="5" style="fill:blue"/>
<circle cx="2011" cy="5241" r="5" style="fill:blue"/>
<circle cx="841" cy="7904" r="5" style="fill:blue"/>
<circle cx="1445" cy="304" r="5" style="fill:blue"/>
<circle cx="521" cy="3197" r="5" style="fill:blue"/>
<circle cx="885" cy="5467" r="5" style="fill:blue"/>
<circle cx="2249" cy="4865" r="5" style="fill:blue"/>
<circle cx="1934" cy="8520" r="5" style="fill:blue"/>
<circle cx="2327" cy="4353" r="5" style="fill:blue"/>
<circle cx="717" cy="5066" r="5" style="fill:blue"/>
<circle cx="3083" cy="7649" r="5" style="fill:blue"/>
<circle cx="3328" cy="776" r="5" style="fill:blue"/>
<circle cx="3213" cy="5017" r="5" style="fill:blue"/>
<circle cx="3129" cy="4750" r="5" style="fill:blue"/>
<circle cx="2042" cy="6063" r="5" style="fill:blue"/>
<circle cx="234" cy="8126" r="5" style="fill:blue"/>
<circle cx="2083" cy="5147" r="5" style="fill:blue"/>
<circle cx="595" cy="5740" r="5" style="fill:blue"/>
<circle cx="2135" cy="1577" r="5" style="fill:blue"/>
<circle cx="2078" cy="2687" r="5" style="fill:blue"/>
<circle cx="2829" cy="3591" r="5" style="fill:blue"/>
<circle cx="1855" cy="6905" r="5" style="fill:blue"/>
<circle cx="1272" cy="7055" r="5" style="fill:blue"/>
<circle cx="926" cy="4565" r="5" style="fill:blue"/>
<circle cx="2320" cy="4830" r="5" style="fill:blue"/>
<circle cx="2579" cy="8304" r="5" style="fill:blue"/>
<circle cx="580" cy="3242" r="5" style="fill:blue"/>
<circle cx="3066" cy="7758" r="5" style="fill:blue"/>
<circle cx="2500" cy="6100" r="5" style="fill:blue"/>
<circle cx="1081" cy="8009" r="5" style="fill:blue"/>
<circle cx="3631" cy="4755" r="5" style="fill:blue"/>
<circle cx="2417" cy="2769" r="5" style="fill:blue"/>
<circle cx="3966" cy="2769" r="5" style="fill:blue"/>
<circle cx="2495" cy="7829" r="5" style="fill:blue"/>
<circle cx="1652" cy="3941" r="5" style="fill:blue"/>
<circle cx="1655" cy="8497" r="5" style="fill:blue"/>
<circle cx="3527" cy="4790" r="5" style="fill:blue"/>
<circle cx="3710" cy="4348" r="5" style="fill:blue"/>
<circle cx="3655" cy="5191" r="5" style="fill:blue"/>
<circle cx="651" cy="2175" r="5" style="fill:blue"/>
<circle cx="1915" cy="6176" r="5" style="fill:blue"/>
<circle cx="1055" cy="2721" r="5" style="fill:blue"/>
<circle cx="649" cy="8685" r="5" style="fill:blue"/>
<circle cx="388" cy="3212" r="5" style="fill:blue"/>
<circle cx="1134" cy="4088" r="5" style="fill:blue"/>
<circle cx="2906" cy="1222" r="5" style="fill:blue"/>
<circle cx="843" cy="3319" r="5" style="fill:blue"/>
<circle cx="3586" cy="7564" r="5" style="fill:blue"/>
<circle cx="87" cy="1458" r="5" style="fill:blue"/>
<circle cx="3158" cy="7480" r="5" style="fill:blue"/>
<circle cx="3013" cy="362" r="5" style="fill:blue"/>
<circle cx="2731" cy="7398" r="5" style="fill:blue"/>
<circle cx="1135" cy="3207" r="5" style="fill:blue"/>
<circle cx="2726" cy="61" r="5" style="fill:blue"/>
<circle cx="3125" cy="5809" r="5" style="fill:blue"/>
<circle cx="2232" cy="2720" r="5" style="fill:blue"/>
<circle cx="873" cy="1497" r="5" style="fill:blue"/>
<circle cx="69" cy="4549" r="5" style="fill:blue"/>
<circle cx="3337" cy="48" r="5" style="fill:blue"/>
<circle cx="1209" cy="4676" r="5" style="fill:blue"/>
<circle cx="2239" cy="2347" r="5" style="fill:blue"/>
<circle cx="2638" cy="1218" r="5" style="fill:blue"/>
<circle cx="1704" cy="4663" r="5" style="fill:blue"/>
<circle cx="1981" cy="1216" r="5" style="fill:blue"/>
<circle cx="2353" cy="4247" r="5" style="fill:blue"/>
<circle cx="770" cy="744" r="5" style="fill:blue"/>
<circle cx="2184" cy="5514" r="5" style="fill:blue"/>
<circle cx="1555" cy="4681" r="5" style="fill:blue"/>
<circle cx="1348" cy="2409" r="5" style="fill:blue"/>
<circle cx="598" cy="8284" r="5" style="fill:blue"/>
<circle cx="2341" cy="3639" r="5" style="fill:blue"/>
<circle cx="1753" cy="770" r="5" style="fill:blue"/>
<circle cx="2782" cy="7189" r="5" style="fill:blue"/>
<circle cx="3131" cy="1907" r="5" style="fill:blue"/>
<circle cx="930" cy="2038" r="5" style="fill:blue"/>
<circle cx="3396" cy="4089" r="5" style="fill:blue"/>
<circle cx="3380" cy="7282" r="5" style="fill:blue"/>
<circle cx="3910" cy="2909" r="5" style="fill:blue"/>
<circle cx="558" cy="2929" r="5" style="fill:blue"/>
<circle cx="181" cy="1073" r="5" style="fill:blue"/>
<circle cx="2250" cy="3551" r="5" style="fill:blue"/>
<circle cx="1692" cy="3502" r="5" style="fill:blue"/>
<circle cx="1229" cy="5677" r="5" style="fill:blue"/>
<circle cx="261" cy="12" r="5" style="fill:blue"/>
<circle cx="1059" cy="609" r="5" style="fill:blue"/>
<circle cx="2942" cy="3975" r="5" style="fill:blue"/>
<circle cx="706" cy="842" r="5" style="fill:blue"/>
<circle cx="3198" cy="6083" r="5" style="fill:blue"/>
<circle cx="3327" cy="497" r="5" style="fill:blue"/>
<circle cx="1401" cy="4335" r="5" style="fill:blue"/>
<circle cx="1561" cy="7684" r="5" style="fill:blue"/>
<circle cx="259" cy="2497" r="5" style="fill:blue"/>
<circle cx="135" cy="5562" r="5" style="fill:blue"/>
<circle cx="1399" cy="3615" r="5" style="fill:blue"/>
<circle cx="1145" cy="1878" r="5" style="fill:blue"/>
<circle cx="1592" cy="819" r="5" style="fill:blue"/>
<circle cx="1855" cy="1541" r="5" style="fill:blue"/>
<circle cx="3855" cy="7299" r="5" style="fill:blue"/>
<circle cx="3714" cy="600" r="5" style="fill:blue"/>
<circle cx="4007" cy="6295" r="5" style="fill:blue"/>
<circle cx="1520" cy="3391" r="5" style="fill:blue"/>
<circle cx="85" cy="3705" r="5" style="fill:blue"/>
<circle cx="758" cy="6197" r="5" style="fill:blue"/>
<circle cx="1226" cy="6048" r="5" style="fill:blue"/>
<circle cx="2200" cy="869" r="5" style="fill:blue"/>
<circle cx="3861" cy="4878" r="5" style="fill:blue"/>
<circle cx="1768" cy="3729" r="5" style="fill:blue"/>
<circle cx="2775" cy="5235" r="5" style="fill:blue"/>
<circle cx="968" cy="7984" r="5" style="fill:blue"/>
<circle cx="2292" cy="2237" r="5" style="fill:blue"/>
<circle cx="2968" cy="8089" r="5" style="fill:blue"/>
<circle cx="1332" cy="1150" r="5" style="fill:blue"/>
<circle cx="601" cy="634" r="5" style="fill:blue"/>
<circle cx="549" cy="6044" r="5" style="fill:blue"/>
<circle cx="1700" cy="721" r="5" style="fill:blue"/>
<circle cx="656" cy="6691" r="5" style="fill:blue"/>
<circle cx="1704" cy="2440" r="5" style="fill:blue"/>
<circle cx="1518" cy="6807" r="5" style="fill:blue"/>
<circle cx="1485" cy="8294" r="5" style="fill:blue"/>
<circle cx="2754" cy="3920" r="5" style="fill:blue"/>
<circle cx="1021" cy="6566" r="5" style="fill:blue"/>
<circle cx="1106" cy="1998" r="5" style="fill:blue"/>
<circle cx="2035" cy="6599" r="5" style="fill:blue"/>
<circle cx="2464" cy="294" r="5" style="fill:blue"/>
<circle cx="3437" cy="6391" r="5" style="fill:blue"/>
<circle cx="1495" cy="8447" r="5" style="fill:blue"/>
<circle cx="2361" cy="6458" r="5" style="fill:blue"/>
<circle cx="2000" cy="2438" r="5" style="fill:blue"/>
<circle cx="28" cy="8125" r="5" style="fill:blue"/>
<circle cx="414" cy="2503" r="5" style="fill:blue"/>
<circle cx="2487" cy="6089" r="5" style="fill:blue"/>
<circle cx="1731" cy="1838" r="5" style="fill:blue"/>
<circle cx="1827" cy="5276" r="5" style="fill:blue"/>
<circle cx="1722" cy="1932" r="5" style="fill:blue"/>
<circle cx="1066" cy="3432" r="5" style="fill:blue"/>
<circle cx="2827" cy="7805" r="5" style="fill:blue"/>
<circle cx="3759" cy="5686" r="5" style="fill:blue"/>
<circle cx="1875" cy="6926" r="5" style="fill:blue"/>
<circle cx="1783" cy="7804" r="5" style="fill:blue"/>
<circle cx="2988" cy="7318" r="5" style="fill:blue"/>
<circle cx="629" cy="7518" r="5" style="fill:blue"/>
<circle cx="2778" cy="187" r="5" style="fill:blue"/>
<circle cx="771" cy="989" r="5" style="fill:blue"/>
<circle cx="2628" cy="8383" r="5" style="fill:blue"/>
<circle cx="1160" cy="1133" r="5" style="fill:blue"/>
<circle cx="1523" cy="5198" r="5" style="fill:blue"/>
<circle cx="230" cy="4851" r="5" style="fill:blue"/>
<circle cx="3031" cy="5603" r="5" style="fill:blue"/>
<circle cx="2323" cy="8482" r="5" style="fill:blue"/>
<circle cx="1245" cy="0" r="5" style="fill:blue"/>
<circle cx="280" cy="6714" r="5" style="fill:blue"/>
<circle cx="765" cy="6481" r="5" style="fill:blue"/>
<circle cx="3164" cy="5908" r="5" style="fill:blue"/>
<circle cx="1515" cy="539" r="5" style="fill:blue"/>
<circle cx="1954" cy="6367" r="5" style="fill:blue"/>
<circle cx="69" cy="2848" r="5" style="fill:blue"/>
<circle cx="1790" cy="1353" r="5" style="fill:blue"/>
<circle cx="3985" cy="3026" r="5" style="fill:blue"/>
<circle cx="4004" cy="5681" r="5" style="fill:blue"/>
<circle cx="20" cy="6075" r="5" style="fill:blue"/>
<circle cx="1317" cy="5472" r="5" style="fill:blue"/>
<circle cx="1817" cy="8137" r="5" style="fill:blue"/>
<circle cx="1839" cy="1112" r="5" style="fill:blue"/>
<circle cx="1952" cy="6390" r="5" style="fill:blue"/>
<circle cx="761" cy="4760" r="5" style="fill:blue"/>
<circle cx="448" cy="7375" r="5" style="fill:blue"/>
<circle cx="2761" cy="3019" r="5" style="fill:blue"/>
<circle cx="1315" cy="7676" r="5" style="fill:blue"/>
<circle cx="2468" cy="6056" r="5" style="fill:blue"/>
<circle cx="424" cy="651" r="5" style="fill:blue"/>
<circle cx="767" cy="3222" r="5" style="fill:blue"/>
<circle cx="2063" cy="896" r="5" style="fill:blue"/>
<circle cx="1437" cy="774" r="5" style="fill:blue"/>
<circle cx="1937" cy="3638" r="5" style="fill:blue"/>
<circle cx="1761" cy="5393" r="5" style="fill:blue"/>
<circle cx="3075" cy="7243" r="5" style="fill:blue"/>
<circle cx="3457" cy="7483" r="5" style="fill:blue"/>
<circle cx="2560" cy="1256" r="5" style="fill:blue"/>
<circle cx="3545" cy="6409" r="5" style="fill:blue"/>
<circle cx="313" cy="2631" r="5" style="fill:blue"/>
<circle cx="2666" cy="7003" r="5" style="fill:blue"/>
<circle cx="2868" cy="4590" r="5" style="fill:blue"/>
<circle cx="989" cy="3226" r="5" style="fill:blue"/>
<circle cx="3167" cy="1628" r="5" style="fill:blue"/>
<circle cx="417" cy="6362" r="5" style="fill:blue"/>
<circle cx="1337" cy="2085" r="5" style="fill:blue"/>
<circle cx="2964" cy="4483" r="5" style="fill:blue"/>
<circle cx="697" cy="579" r="5" style="fill:blue"/>
<circle cx="1301" cy="3547" r="5" style="fill:blue"/>
<circle cx="986" cy="691" r="5" style="fill:blue"/>
<circle cx="2882" cy="7669" r="5" style="fill:blue"/>
<circle cx="2694" cy="5119" r="5" style="fill:blue"/>
<circle cx="338" cy="872" r="5" style="fill:blue"/>
<circle cx="3742" cy="6420" r="5" style="fill:blue"/>
<circle cx="1359" cy="1790" r="5" style="fill:blue"/>
<circle cx="3929" cy="5439" r="5" style="fill:blue"/>
<circle cx="834" cy="7534" r="5" style="fill:blue"/>
<circle cx="3615" cy="7724" r="5" style="fill:blue"/>
<circle cx="1716" cy="3771" r="5" style="fill:blue"/>
<circle cx="757" cy="5298" r="5" style="fill:blue"/>
<circle cx="1662" cy="3303" r="5" style="fill:blue"/>
<circle cx="1296" cy="5385" r="5" style="fill:blue"/>
<circle cx="2761" cy="6047" r="5" style="fill:blue"/>
<circle cx="1247" cy="5801" r="5" style="fill:blue"/>
<circle cx="2581" cy="8051" r="5" style="fill:blue"/>
<circle cx="1790" cy="7374" r="5" style="fill:blue"/>
<circle cx="2163" cy="3462" r="5" style="fill:blue"/>
<circle cx="3266" cy="5458" r="5" style="fill:blue"/>
<circle cx="1808" cy="6310" r="5" style="fill:blue"/>
<circle cx="4004" cy="4481" r="5" style="fill:blue"/>
<circle cx="1559" cy="2698" r="5" style="fill:blue"/>
<circle cx="2651" cy="139" r="5" style="fill:blue"/>
<circle cx="3392" cy="4064" r="5" style="fill:blue"/>
<circle cx="781" cy="4884" r="5" style="fill:blue"/>
<circle cx="3039" cy="8079" r="5" style="fill:blue"/>
<circle cx="672" cy="4927" r="5" style="fill:blue"/>
<circle cx="2865" cy="2050" r="5" style="fill:blue"/>
<circle cx="1988" cy="8669" r="5" style="fill:blue"/>
<circle cx="1244" cy="7368" r="5" style="fill:blue"/>
<circle cx="2534" cy="233" r="5" style="fill:blue"/>
<circle cx="1918" cy="8367" r="5" style="fill:blue"/>
<circle cx="2452" cy="4482" r="5" style="fill:blue"/>
<circle cx="1002" cy="359" r="5" style="fill:blue"/>
<circle cx="2433" cy="4118" r="5" style="fill:blue"/>
<circle cx="489" cy="7883" r="5" style="fill:blue"/>
<circle cx="3945" cy="3154" r="5" style="fill:blue"/>
<circle cx="1763" cy="1532" r="5" style="fill:blue"/>
<circle cx="3743" cy="536" r="5" style="fill:blue"/>
<circle cx="1808" cy="7563" r="5" style="fill:blue"/>
<circle cx="462" cy="2936" r="5" style="fill:blue"/>
<circle cx="1117" cy="922" r="5" style="fill:blue"/>
<circle cx="2174" cy="3723" r="5" style="fill:blue"/>
<circle cx="774" cy="2266" r="5" style="fill:blue"/>
<circle cx="3757" cy="188" r="5" style="fill:blue"/>
<circle cx="1142" cy="6501" r="5" style="fill:blue"/>
<circle cx="3001" cy="5735" r="5" style="fill:blue"/>
<circle cx="1884" cy="3857" r="5" style="fill:blue"/>
<circle cx="1493" cy="4432" r="5" style="fill:blue"/>
<circle cx="1966" cy="2681" r="5" style="fill:blue"/>
<circle cx="2823" cy="2279" r="5" style="fill:blue"/>
<circle cx="11" cy="3651" r="5" style="fill:blue"/>
<circle cx="966" cy="1810" r="5" style="fill:blue"/>
<circle cx="2415" cy="1890" r="5" style="fill:blue"/>
<circle cx="1789" cy="2463" r="5" style="fill:blue"/>
<circle cx="1360" cy="4847" r="5" style="fill:blue"/>
<circle cx="140" cy="4388" r="5" style="fill:blue"/>
<circle cx="3201" cy="7576" r="5" style="fill:blue"/>
<circle cx="1875" cy="6838" r="5" style="fill:blue"/>
<circle cx="3474" cy="4129" r="5" style="fill:blue"/>
<circle cx="2534" cy="4586" r="5" style="fill:blue"/>
<circle cx="25" cy="2752" r="5" style="fill:blue"/>
<circle cx="209" cy="2530" r="5" style="fill:blue"/>
<circle cx="1452" cy="5078" r="5" style="fill:blue"/>
<circle cx="2497" cy="2278" r="5" style="fill:blue"/>
<circle cx="3155" cy="6822" r="5" style="fill:blue"/>
<circle cx="752" cy="8066" r="5" style="fill:blue"/>
<circle cx="1139" cy="7131" r="5" style="fill:blue"/>
<circle cx="1421" cy="389" r="5" style="fill:blue"/>
<circle cx="2429" cy="2217" r="5" style="fill:blue"/>
<circle cx="2259" cy="6657" r="5" style="fill:blue"/>
<circle cx="1427" cy="4792" r="5" style="fill:blue"/>
<circle cx="1414" cy="7196" r="5" style="fill:blue"/>
<circle cx="3459" cy="742" r="5" style="fill:blue"/>
<circle cx="1023" cy="3415" r="5" style="fill:blue"/>
<circle cx="429" cy="2301" r="5" style="fill:blue"/>
<circle cx="2971" cy="5737" r="5" style="fill:blue"/>
<circle cx="2444" cy="7554" r="5" style="fill:blue"/>
<circle cx="2086" cy="6289" r="5" style="fill:blue"/>
<circle cx="3733" cy="640" r="5" style="fill:blue"/>
<circle cx="1961" cy="8362" r="5" style="fill:blue"/>
<circle cx="3214" cy="3951" r="5" style="fill:blue"/>
<circle cx="2527" cy="4804" r="5" style="fill:blue"/>
<circle cx="388" cy="1411" r="5" style="fill:blue"/>
<circle cx="3422" cy="3902" r="5" style="fill:blue"/>
<circle cx="1832" cy="7723" r="5" style="fill:blue"/>
<circle cx="1566" cy="2935" r="5" style="fill:blue"/>
<circle cx="594" cy="6217" r="5" style="fill:blue"/>
<circle cx="3918" cy="6075" r="5" style="fill:blue"/>
<circle cx="4007" cy="803" r="5" style="fill:blue"/>
<circle cx="652" cy="1202" r="5" style="fill:blue"/>
<circle cx="230" cy="7252" r="5" style="fill:blue"/>
<circle cx="577" cy="5103" r="5" style="fill:blue"/>
<circle cx="287" cy="6998" r="5" style="fill:blue"/>
<circle cx="103" cy="4338" r="5" style="fill:blue"/>
<circle cx="3591" cy="7211" r="5" style="fill:blue"/>
<circle cx="3537" cy="7042" r="5" style="fill:blue"/>
<circle cx="126" cy="1172" r="5" style="fill:blue"/>
<circle cx="456" cy="3160" r="5" style="fill:blue"/>
<circle cx="1974" cy="5876" r="5" style="fill:blue"/>
<circle cx="38" cy="1357" r="5" style="fill:blue"/>
<circle cx="3858" cy="1890" r="5" style="fill:blue"/>
<circle cx="3185" cy="5712" r="5" style="fill:blue"/>
<circle cx="837" cy="5702" r="5" style="fill:blue"/>
<circle cx="292" cy="4572" r="5" style="fill:blue"/>
<circle cx="1517" cy="4530" r="5" style="fill:blue"/>
<circle cx="2792" cy="418" r="5" style="fill:blue"/>
<circle cx="2844" cy="6176" r="5" style="fill:blue"/>
<circle cx="1123" cy="1602" r="5" style="fill:blue"/>
<circle cx="1363" cy="4747" r="5" style="fill:blue"/>
<circle cx="3061" cy="7038" r="5" style="fill:blue"/>
<circle cx="1152" cy="825" r="5" style="fill:blue"/>
<circle cx="3684" cy="7443" r="5" style="fill:blue"/>
<circle cx="938" cy="1069" r="5" style="fill:blue"/>
<circle cx="35" cy="4667" r="5" style="fill:blue"/>
<circle cx="817" cy="3508" r="5" style="fill:blue"/>
<circle cx="2343" cy="6771" r="5" style="fill:blue"/>
<circle cx="3807" cy="4982" r="5" style="fill:blue"/>
<circle cx="757" cy="1463" r="5" style="fill:blue"/>
<circle cx="192" cy="6551" r="5" style="fill:blue"/>
<circle cx="2968" cy="1350" r="5" style="fill:blue"/>
<circle cx="3930" cy="8389" r="5" style="fill:blue"/>
<circle cx="2056" cy="8301" r="5" style="fill:blue"/>
<circle cx="828" cy="3140" r="5" style="fill:blue"/>
<circle cx="822" cy="8068" r="5" style="fill:blue"/>
<circle cx="1217" cy="7811" r="5" style="fill:blue"/>
<circle cx="3299" cy="301" r="5" style="fill:blue"/>
<circle cx="3572" cy="7132" r="5" style="fill:blue"/>
<circle cx="3550" cy="7048" r="5" style="fill:blue"/>
<circle cx="2921" cy="540" r="5" style="fill:blue"/>
<circle cx="213" cy="6694" r="5" style="fill:blue"/>
<circle cx="2044" cy="1711" r="5" style="fill:blue"/>
<circle cx="1851" cy="4361" r="5" style="fill:blue"/>
<circle cx="971" cy="3331" r="5" style="fill:blue"/>
<circle cx="3141" cy="6480" r="5" style="fill:blue"/>
<circle cx="1393" cy="2815" r="5" style="fill:blue"/>
<circle cx="3703" cy="755" r="5" style="fill:blue"/>
<circle cx="1816" cy="1268" r="5" style="fill:blue"/>
<circle cx="3169" cy="5284" r="5" style="fill:blue"/>
<circle cx="4003" cy="4166" r="5" style="fill:blue"/>
<circle cx="846" cy="2014" r="5" style="fill:blue"/>
<circle cx="3411" cy="8729" r="5" style="fill:blue"/>
<circle cx="750" cy="2841" r="5" style="fill:blue"/>
<circle cx="2030" cy="7599" r="5" style="fill:blue"/>
<circle cx="985" cy="1675" r="5" style="fill:blue"/>
<circle cx="1584" cy="4567" r="5" style="fill:blue"/>
<circle cx="615" cy="6403" r="5" style="fill:blue"/>
<circle cx="1344" cy="4102" r="5" style="fill:blue"/>
<circle cx="1114" cy="7492" r="5" style="fill:blue"/>
<circle cx="1029" cy="3706" r="5" style="fill:blue"/>
<circle cx="1294" cy="3074" r="5" style="fill:blue"/>
<circle cx="997" cy="1684" r="5" style="fill:blue"/>
<circle cx="1303" cy="3777" r="5" style="fill:blue"/>
<circle cx="2951" cy="2051" r="5" style="fill:blue"/>
<circle cx="1139" cy="4303" r="5" style="fill:blue"/>
<circle cx="2810" cy="4822" r="5" style="fill:blue"/>
<circle cx="810" cy="3318" r="5" style="fill:blue"/>
<circle cx="661" cy="8626" r="5" style="fill:blue"/>
<circle cx="390" cy="6217" r="5" style="fill:blue"/>
<circle cx="307" cy="3383" r="5" style="fill:blue"/>
<circle cx="1440" cy="1959" r="5" style="fill:blue"/>
<circle cx="704" cy="2821" r="5" style="fill:blue"/>
<circle cx="3898" cy="4526" r="5" style="fill:blue"/>
<circle cx="1933" cy="8064" r="5" style="fill:blue"/>
<circle cx="1359" cy="3025" r="5" style="fill:blue"/>
<circle cx="324" cy="7506" r="5" style="fill:blue"/>
<circle cx="3086" cy="7769" r="5" style="fill:blue"/>
<circle cx="3476" cy="7178" r="5" style="fill:blue"/>
<circle cx="1802" cy="7239" r="5" style="fill:blue"/>
<circle cx="995" cy="7937" r="5" style="fill:blue"/>
<circle cx="1947" cy="7101" r="5" style="fill:blue"/>
<circle cx="433" cy="1926" r="5" style="fill:blue"/>
<circle cx="330" cy="1661" r="5" style="fill:blue"/>
<circle cx="3378" cy="7410" r="5" style="fill:blue"/>
<circle cx="613" cy="2298" r="5" style="fill:blue"/>
<circle cx="1178" cy="4243" r="5" style="fill:blue"/>
<circle cx="1705" cy="4123" r="5" style="fill:blue"/>
<circle cx="316" cy="7996" r="5" style="fill:blue"/>
<circle cx="2630" cy="6921" r="5" style="fill:blue"/>
<circle cx="1934" cy="1721" r="5" style="fill:blue"/>
<circle cx="684" cy="3725" r="5" style="fill:blue"/>
<circle cx="1194" cy="5572" r="5" style="fill:blue"/>
<circle cx="3162" cy="1597" r="5" style="fill:blue"/>
<circle cx="3073" cy="7283" r="5" style="fill:blue"/>
<circle cx="596" cy="6113" r="5" style="fill:blue"/>
<circle cx="1074" cy="914" r="5" style="fill:blue"/>
<circle cx="3981" cy="3510" r="5" style="fill:blue"/>
<circle cx="2517" cy="7060" r="5" style="fill:blue"/>
<circle cx="2763" cy="3323" r="5" style="fill:blue"/>
<circle cx="3368" cy="4988" r="5" style="fill:blue"/>
<circle cx="172" cy="4849" r="5" style="fill:blue"/>
<circle cx="748" cy="2646" r="5" style="fill:blue"/>
<circle cx="2987" cy="189" r="5" style="fill:blue"/>
<circle cx="1695" cy="8044" r="5" style="fill:blue"/>
<circle cx="3162" cy="4603" r="5" style="fill:blue"/>
<circle cx="2205" cy="6584" r="5" style="fill:blue"/>
<circle cx="338" cy="7784" r="5" style="fill:blue"/>
<circle cx="1270" cy="6239" r="5" style="fill:blue"/>
<circle cx="2921" cy="4961" r="5" style="fill:blue"/>
<circle cx="2787" cy="7244" r="5" style="fill:blue"/>
<circle cx="1626" cy="3509" r="5" style="fill:blue"/>
<circle cx="2925" cy="4696" r="5" style="fill:blue"/>
<circle cx="2687" cy="6102" r="5" style="fill:blue"/>
<circle cx="447" cy="19" r="5" style="fill:blue"/>
<circle cx="1855" cy="5625" r="5" style="fill:blue"/>
<circle cx="795" cy="3380" r="5" style="fill:blue"/>
<circle cx="2138" cy="6131" r="5" style="fill:blue"/>
<circle cx="3890" cy="7928" r="5" style="fill:blue"/>
<circle cx="367" cy="6972" r="5" style="fill:blue"/>
<circle cx="253" cy="7624" r="5" style="fill:blue"/>
<circle cx="175" cy="1706" r="5" style="fill:blue"/>
<circle cx="2101" cy="2256" r="5" style="fill:blue"/>
<circle cx="2676" cy="2941" r="5" style="fill:blue"/>
<circle cx="257" cy="6787" r="5" style="fill:blue"/>
<circle cx="3484" cy="6827" r="5" style="fill:blue"/>
<circle cx="2306" cy="4183" r="5" style="fill:blue"/>
<circle cx="1278" cy="4935" r="5" style="fill:blue"/>
<circle cx="45" cy="6943" r="5" style="fill:blue"/>
<circle cx="86" cy="2204" r="5" style="fill:blue"/>
<circle cx="3439" cy="5644" r="5" style="fill:blue"/>
<circle cx="2574" cy="4782" r="5" style="fill:blue"/>
<circle cx="531" cy="5764" r="5" style="fill:blue"/>
<circle cx="1631" cy="5263" r="5" style="fill:blue"/>
<circle cx="106" cy="6061" r="5" style="fill:blue"/>
<circle cx="1151" cy="5381" r="5" style="fill:blue"/>
<circle cx="2181" cy="2717" r="5" style="fill:blue"/>
<circle cx="1751" cy="7993" r="5" style="fill:blue"/>
<circle cx="1672" cy="5517" r="5" style="fill:blue"/>
<circle cx="1774" cy="2695" r="5" style="fill:blue"/>
<circle cx="2772" cy="1793" r="5" style="fill:blue"/>
<circle cx="2902" cy="3435" r="5" style="fill:blue"/>
<circle cx="513" cy="7014" r="5" style="fill:blue"/>
<circle cx="3184" cy="1356" r="10" style="stroke-width:5;fill:gray;fill-opacity:0.3"/>
<circle cx="3204" cy="1356" r="10" style="stroke-width:5;fill:gray;fill-opacity:0.3"/>
<circle cx="3224" cy="1356" r="10" style="stroke-width:5;fill:gray;fill-opacity:0.3"/>
<circle cx="3244" cy="1356" r="10" style="stroke-width:5;fill:gray;fill-opacity:0.3"/>
<circle cx="3264" cy="1356" r="10" style="stroke-width:5;fill:gray;fill-opacity:0.3"/>
<circle cx="3284" cy="1356" r="10" style="stroke-width:5;fill:gray;fill-opacity:0.3"/>
<circle cx="3304" cy="1356" r="10" style="stroke-width:5;fill:gray;fill-opacity:0.3"/>
<circle cx="3324" cy="1356" r="10" style="stroke-width:5;fill:gray;fill-opacity:0.3"/>
<circle cx="3184" cy="3507" r="10" style="stroke-width:5;fill:gray;fill-opacity:0.3"/>
<circle cx="3204" cy="3507" r="10" style="stroke-width:5;fill:gray;fill-opacity:0.3"/>
<circle cx="3224" cy="3507" r="10" style="stroke-width:5;fill:gray;fill-opacity:0.3"/>
<circle cx="3244" cy="3507" r="10" style="stroke-width:5;fill:gray;fill-opacity:0.3"/>
<circle cx="3264" cy="3507" r="10" style="stroke-width:5;fill:gray;fill-opacity:0.3"/>
<circle cx="3284" cy="3507" r="10" style="stroke-width:5;fill:gray;fill-opacity:0.3"/>
<circle cx="3304" cy="3507" r="10" style="stroke-width:5;fill:gray;fill-opacity:0.3"/>
<circle cx="3324" cy="3507" r="10" style="stroke-width:5;fill:gray;fill-opacity:0.3"/>
</svg>