<svg viewBox="0 0 3978 2318" xmlns="http://www.w3.org/2000/svg">
<rect height="422" style="stroke:pink;stroke-width:10;fill:gray;fill-opacity:0.1;stroke-opacity:0.9" width="708" x="1394" y="1159"/>
<circle cx="2140" cy="106" r="5" style="fill:blue"/>
<circle cx="2064" cy="1591" r="5" style="fill:blue"/>
<circle cx="2509" cy="908" r="5" style="fill:blue"/>
<circle cx="1462" cy="558" r="5" style="fill:blue"/>
<circle cx="520" cy="1779" r="5" style="fill:blue"/>
<circle cx="2332" cy="708" r="5" style="fill:blue"/>
<circle cx="372" cy="1671" r="5" style="fill:blue"/>
<circle cx="3001" cy="1022" r="5" style="fill:blue"/>
<circle cx="896" cy="578" r="5" style="fill:blue"/>
<circle cx="3422" cy="318" r="5" style="fill:blue"/>
<circle cx="3100" cy="741" r="5" style="fill:blue"/>
<circle cx="621" cy="1960" r="5" style="fill:blue"/>
<circle cx="1191" cy="1659" r="5" style="fill:blue"/>
<circle cx="1719" cy="307" r="5" style="fill:blue"/>
<circle cx="1468" cy="24" r="5" style="fill:blue"/>
<circle cx="1244" cy="834" r="5" style="fill:blue"/>
<circle cx="2097" cy="799" r="5" style="fill:blue"/>
<circle cx="2265" cy="2233" r="5" style="fill:blue"/>
<circle cx="2354" cy="1778" r="5" style="fill:blue"/>
<circle cx="3431" cy="235" r="5" style="fill:blue"/>
<circle cx="1573" cy="1689" r="5" style="fill:blue"/>
<circle cx="498" cy="897" r="5" style="fill:blue"/>
<circle cx="1711" cy="910" r="5" style="fill:blue"/>
<circle cx="2454" cy="1914" r="5" style="fill:blue"/>
<circle cx="662" cy="1796" r="5" style="fill:blue"/>
<circle cx="2470" cy="1989" r="5" style="fill:blue"/>
<circle cx="616" cy="526" r="5" style="fill:blue"/>
<circle cx="2417" cy="2109" r="5" style="fill:blue"/>
<circle cx="2468" cy="2219" r="5" style="fill:blue"/>
<circle cx="3404" cy="2190" r="5" style="fill:blue"/>
<circle cx="442" cy="2287" r="5" style="fill:blue"/>
<circle cx="2252" cy="789" r="5" style="fill:blue"/>
<circle cx="647" cy="141" r="5" style="fill:blue"/>
<circle cx="3387" cy="1147" r="5" style="fill:blue"/>
<circle cx="1438" cy="156" r="5" style="fill:blue"/>
<circle cx="15" cy="117" r="5" style="fill:blue"/>
<circle cx="3373" cy="734" r="5" style="fill:blue"/>
<circle cx="1814" cy="335" r="5" style="fill:blue"/>
<circle cx="2118" cy="725" r="5" style="fill:blue"/>
<circle cx="1045" cy="1669" r="5" style="fill:blue"/>
<circle cx="3519" cy="1761" r="5" style="fill:blue"/>
<circle cx="3096" cy="1738" r="5" style="fill:blue"/>
<circle cx="540" cy="1611" r="5" style="fill:blue"/>
<circle cx="299" cy="1636" r="5" style="fill:blue"/>
<circle cx="1824" cy="2030" r="5" style="fill:blue"/>
<circle cx="2056" cy="2207" r="5" style="fill:blue"/>
<circle cx="1893" cy="721" r="5" style="fill:blue"/>
<circle cx="1627" cy="1768" r="5" style="fill:blue"/>
<circle cx="517" cy="1754" r="5" style="fill:blue"/>
<circle cx="1631" cy="785" r="5" style="fill:blue"/>
<circle cx="780" cy="1884" r="5" style="fill:blue"/>
<circle cx="2165" cy="98" r="5" style="fill:blue"/>
<circle cx="1677" cy="518" r="5" style="fill:blue"/>
<circle cx="1215" cy="979" r="5" style="fill:blue"/>
<circle cx="3566" cy="1910" r="5" style="fill:blue"/>
<circle cx="249" cy="1973" r="5" style="fill:blue"/>
<circle cx="1031" cy="2041" r="5" style="fill:blue"/>
<circle cx="385" cy="56" r="5" style="fill:blue"/>
<circle cx="2448" cy="138" r="5" style="fill:blue"/>
<circle cx="475" cy="538" r="5" style="fill:blue"/>
<circle cx="741" cy="368" r="5" style="fill:blue"/>
<circle cx="598" cy="110" r="5" style="fill:blue"/>
<circle cx="485" cy="2264" r="5" style="fill:blue"/>
<circle cx="3007" cy="1631" r="5" style="fill:blue"/>
<circle cx="2789" cy="1674" r="5" style="fill:blue"/>
<circle cx="3484" cy="530" r="5" style="fill:blue"/>
<circle cx="1322" cy="1709" r="5" style="fill:blue"/>
<circle cx="2425" cy="2060" r="5" style="fill:blue"/>
<circle cx="3936" cy="2059" r="5" style="fill:blue"/>
<circle cx="587" cy="2089" r="5" style="fill:blue"/>
<circle cx="2829" cy="2074" r="5" style="fill:blue"/>
<circle cx="831" cy="1005" r="5" style="fill:blue"/>
<circle cx="2914" cy="543" r="5" style="fill:blue"/>
<circle cx="1111" cy="2084" r="5" style="fill:blue"/>
<circle cx="1152" cy="173" r="5" style="fill:blue"/>
<circle cx="275" cy="267" r="5" style="fill:blue"/>
<circle cx="3815" cy="229" r="5" style="fill:blue"/>
<circle cx="2551" cy="1979" r="5" style="fill:blue"/>
<circle cx="2686" cy="2180" r="5" style="fill:blue"/>
<circle cx="141" cy="784" r="5" style="fill:blue"/>
<circle cx="1213" cy="2034" r="5" style="fill:blue"/>
<circle cx="2477" cy="2124" r="5" style="fill:blue"/>
<circle cx="2176" cy="2121" r="5" style="fill:blue"/>
<circle cx="1430" cy="962" r="5" style="fill:blue"/>
<circle cx="1967" cy="29" r="5" style="fill:blue"/>
<circle cx="1140" cy="575" r="5" style="fill:blue"/>
<circle cx="401" cy="888" r="5" style="fill:blue"/>
<circle cx="3438" cy="1086" r="5" style="fill:blue"/>
<circle cx="2540" cy="2196" r="5" style="fill:blue"/>
<circle cx="1234" cy="1129" r="5" style="fill:blue"/>
<circle cx="3150" cy="2281" r="5" style="fill:blue"/>
<circle cx="348" cy="1002" r="5" style="fill:blue"/>
<circle cx="3520" cy="1141" r="5" style="fill:blue"/>
<circle cx="3266" cy="478" r="5" style="fill:blue"/>
<circle cx="3422" cy="2147" r="5" style="fill:blue"/>
<circle cx="2921" cy="260" r="5" style="fill:blue"/>
<circle cx="530" cy="1068" r="5" style="fill:blue"/>
<circle cx="482" cy="147" r="5" style="fill:blue"/>
<circle cx="2711" cy="199" r="5" style="fill:blue"/>
<circle cx="2697" cy="87" r="5" style="fill:blue"/>
<circle cx="2361" cy="1062" r="5" style="fill:blue"/>
<circle cx="1891" cy="1108" r="5" style="fill:blue"/>
<circle cx="3462" cy="1833" r="5" style="fill:blue"/>
<circle cx="3300" cy="2017" r="5" style="fill:blue"/>
<circle cx="417" cy="1667" r="5" style="fill:blue"/>
<circle cx="499" cy="488" r="5" style="fill:blue"/>
<circle cx="1478" cy="842" r="5" style="fill:blue"/>
<circle cx="3670" cy="1108" r="5" style="fill:blue"/>
<circle cx="2599" cy="635" r="5" style="fill:blue"/>
<circle cx="3491" cy="678" r="5" style="fill:blue"/>
<circle cx="898" cy="1947" r="5" style="fill:blue"/>
<circle cx="3536" cy="348" r="5" style="fill:blue"/>
<circle cx="1981" cy="924" r="5" style="fill:blue"/>
<circle cx="1001" cy="2043" r="5" style="fill:blue"/>
<circle cx="414" cy="54" r="5" style="fill:blue"/>
<circle cx="2656" cy="1808" r="5" style="fill:blue"/>
<circle cx="1870" cy="535" r="5" style="fill:blue"/>
<circle cx="558" cy="513" r="5" style="fill:blue"/>
<circle cx="2901" cy="230" r="5" style="fill:blue"/>
<circle cx="3435" cy="2213" r="5" style="fill:blue"/>
<circle cx="3700" cy="1673" r="5" style="fill:blue"/>
<circle cx="2986" cy="789" r="5" style="fill:blue"/>
<circle cx="3455" cy="121" r="5" style="fill:blue"/>
<circle cx="2460" cy="820" r="5" style="fill:blue"/>
<circle cx="305" cy="961" r="5" style="fill:blue"/>
<circle cx="1777" cy="2084" r="5" style="fill:blue"/>
<circle cx="983" cy="1883" r="5" style="fill:blue"/>
<circle cx="2847" cy="2225" r="5" style="fill:blue"/>
<circle cx="3304" cy="314" r="5" style="fill:blue"/>
<circle cx="1203" cy="2232" r="5" style="fill:blue"/>
<circle cx="883" cy="796" r="5" style="fill:blue"/>
<circle cx="251" cy="427" r="5" style="fill:blue"/>
<circle cx="491" cy="633" r="5" style="fill:blue"/>
<circle cx="3755" cy="930" r="5" style="fill:blue"/>
<circle cx="1271" cy="706" r="5" style="fill:blue"/>
<circle cx="3123" cy="697" r="5" style="fill:blue"/>
<circle cx="3641" cy="2089" r="5" style="fill:blue"/>
<circle cx="3169" cy="21" r="5" style="fill:blue"/>
<circle cx="60" cy="1995" r="5" style="fill:blue"/>
<circle cx="2183" cy="861" r="5" style="fill:blue"/>
<circle cx="3671" cy="701" r="5" style="fill:blue"/>
<circle cx="1178" cy="2286" r="5" style="fill:blue"/>
<circle cx="145" cy="1124" r="5" style="fill:blue"/>
<circle cx="2604" cy="880" r="5" style="fill:blue"/>
<circle cx="1048" cy="1004" r="5" style="fill:blue"/>
<circle cx="2852" cy="874" r="5" style="fill:blue"/>
<circle cx="2015" cy="2009" r="5" style="fill:blue"/>
<circle cx="618" cy="2249" r="5" style="fill:blue"/>
<circle cx="3619" cy="19" r="5" style="fill:blue"/>
<circle cx="1044" cy="683" r="5" style="fill:blue"/>
<circle cx="3344" cy="174" r="5" style="fill:blue"/>
<circle cx="2614" cy="2179" r="5" style="fill:blue"/>
<circle cx="2848" cy="261" r="5" style="fill:blue"/>
<circle cx="1450" cy="1965" r="5" style="fill:blue"/>
<circle cx="191" cy="1865" r="5" style="fill:blue"/>
<circle cx="1540" cy="498" r="5" style="fill:blue"/>
<circle cx="1462" cy="2299" r="5" style="fill:blue"/>
<circle cx="357" cy="720" r="5" style="fill:blue"/>
<circle cx="3466" cy="2173" r="5" style="fill:blue"/>
<circle cx="2189" cy="1019" r="5" style="fill:blue"/>
<circle cx="3803" cy="979" r="5" style="fill:blue"/>
<circle cx="1750" cy="269" r="5" style="fill:blue"/>
<circle cx="359" cy="2128" r="5" style="fill:blue"/>
<circle cx="1625" cy="863" r="5" style="fill:blue"/>
<circle cx="3178" cy="1631" r="5" style="fill:blue"/>
<circle cx="401" cy="1599" r="5" style="fill:blue"/>
<circle cx="560" cy="236" r="5" style="fill:blue"/>
<circle cx="3260" cy="2038" r="5" style="fill:blue"/>
<circle cx="111" cy="660" r="5" style="fill:blue"/>
<circle cx="2837" cy="979" r="5" style="fill:blue"/>
<circle cx="1152" cy="809" r="5" style="fill:blue"/>
<circle cx="2508" cy="870" r="5" style="fill:blue"/>
<circle cx="3791" cy="1774" r="5" style="fill:blue"/>
<circle cx="2633" cy="7" r="5" style="fill:blue"/>
<circle cx="513" cy="165" r="5" style="fill:blue"/>
<circle cx="2792" cy="731" r="5" style="fill:blue"/>
<circle cx="392" cy="885" r="5" style="fill:blue"/>
<circle cx="2066" cy="416" r="5" style="fill:blue"/>
<circle cx="3089" cy="859" r="5" style="fill:blue"/>
<circle cx="3803" cy="932" r="5" style="fill:blue"/>
<circle cx="313" cy="2155" r="5" style="fill:blue"/>
<circle cx="3817" cy="2181" r="5" style="fill:blue"/>
<circle cx="1254" cy="2037" r="5" style="fill:blue"/>
<circle cx="3789" cy="1678" r="5" style="fill:blue"/>
<circle cx="1609" cy="750" r="5" style="fill:blue"/>
<circle cx="2892" cy="708" r="5" style="fill:blue"/>
<circle cx="507" cy="648" r="5" style="fill:blue"/>
<circle cx="391" cy="313" r="5" style="fill:blue"/>
<circle cx="1664" cy="117" r="5" style="fill:blue"/>
<circle cx="3502" cy="2313" r="5" style="fill:blue"/>
<circle cx="2446" cy="1770" r="5" style="fill:blue"/>
<circle cx="1245" cy="950" r="5" style="fill:blue"/>
<circle cx="3290" cy="2112" r="5" style="fill:blue"/>
<circle cx="606" cy="2161" r="5" style="fill:blue"/>
<circle cx="2795" cy="441" r="5" style="fill:blue"/>
<circle cx="3886" cy="1147" r="5" style="fill:blue"/>
<circle cx="2112" cy="1961" r="5" style="fill:blue"/>
<circle cx="1758" cy="1654" r="5" style="fill:blue"/>
<circle cx="233" cy="881" r="5" style="fill:blue"/>
<circle cx="2951" cy="1940" r="5" style="fill:blue"/>
<circle cx="3324" cy="275" r="5" style="fill:blue"/>
<circle cx="1587" cy="274" r="5" style="fill:blue"/>
<circle cx="3554" cy="605" r="5" style="fill:blue"/>
<circle cx="1314" cy="937" r="5" style="fill:blue"/>
<circle cx="3681" cy="1858" r="5" style="fill:blue"/>
<circle cx="3705" cy="985" r="5" style="fill:blue"/>
<circle cx="3599" cy="437" r="5" style="fill:blue"/>
<circle cx="1200" cy="1" r="5" style="fill:blue"/>
<circle cx="2921" cy="1713" r="5" style="fill:blue"/>
<circle cx="1602" cy="2041" r="5" style="fill:blue"/>
<circle cx="2095" cy="430" r="5" style="fill:blue"/>
<circle cx="3679" cy="2214" r="5" style="fill:blue"/>
<circle cx="2591" cy="412" r="5" style="fill:blue"/>
<circle cx="1400" cy="1811" r="5" style="fill:blue"/>
<circle cx="1526" cy="2214" r="5" style="fill:blue"/>
<circle cx="2183" cy="1684" r="5" style="fill:blue"/>
<circle cx="1225" cy="210" r="5" style="fill:blue"/>
<circle cx="3068" cy="1129" r="5" style="fill:blue"/>
<circle cx="3957" cy="969" r="5" style="fill:blue"/>
<circle cx="2277" cy="199" r="5" style="fill:blue"/>
<circle cx="2775" cy="539" r="5" style="fill:blue"/>
<circle cx="2271" cy="1915" r="5" style="fill:blue"/>
<circle cx="2659" cy="873" r="5" style="fill:blue"/>
<circle cx="3397" cy="93" r="5" style="fill:blue"/>
<circle cx="1280" cy="555" r="5" style="fill:blue"/>
<circle cx="2065" cy="2177" r="5" style="fill:blue"/>
<circle cx="3182" cy="810" r="5" style="fill:blue"/>
<circle cx="1377" cy="2160" r="5" style="fill:blue"/>
<circle cx="3058" cy="992" r="5" style="fill:blue"/>
<circle cx="1286" cy="683" r="5" style="fill:blue"/>
<circle cx="1889" cy="193" r="5" style="fill:blue"/>
<circle cx="2414" cy="130" r="5" style="fill:blue"/>
<circle cx="458" cy="407" r="5" style="fill:blue"/>
<circle cx="3341" cy="832" r="5" style="fill:blue"/>
<circle cx="881" cy="1651" r="5" style="fill:blue"/>
<circle cx="2464" cy="1895" r="5" style="fill:blue"/>
<circle cx="2834" cy="544" r="5" style="fill:blue"/>
<circle cx="1009" cy="152" r="5" style="fill:blue"/>
<circle cx="30" cy="296" r="5" style="fill:blue"/>
<circle cx="2040" cy="461" r="5" style="fill:blue"/>
<circle cx="238" cy="1111" r="5" style="fill:blue"/>
<circle cx="1028" cy="2125" r="5" style="fill:blue"/>
<circle cx="302" cy="40" r="5" style="fill:blue"/>
<circle cx="1404" cy="748" r="5" style="fill:blue"/>
<circle cx="3747" cy="1731" r="5" style="fill:blue"/>
<circle cx="1150" cy="1038" r="5" style="fill:blue"/>
<circle cx="3771" cy="21" r="5" style="fill:blue"/>
<circle cx="730" cy="1042" r="5" style="fill:blue"/>
<circle cx="3787" cy="129" r="5" style="fill:blue"/>
<circle cx="2402" cy="2196" r="5" style="fill:blue"/>
<circle cx="399" cy="1608" r="5" style="fill:blue"/>
<circle cx="3760" cy="972" r="5" style="fill:blue"/>
<circle cx="2523" cy="441" r="5" style="fill:blue"/>
<circle cx="768" cy="820" r="5" style="fill:blue"/>
<circle cx="2862" cy="1020" r="5" style="fill:blue"/>
<circle cx="475" cy="1623" r="5" style="fill:blue"/>
<circle cx="3751" cy="2172" r="5" style="fill:blue"/>
<circle cx="3072" cy="1000" r="5" style="fill:blue"/>
<circle cx="2009" cy="532" r="5" style="fill:blue"/>
<circle cx="1849" cy="1150" r="5" style="fill:blue"/>
<circle cx="3132" cy="836" r="5" style="fill:blue"/>
<circle cx="1758" cy="885" r="5" style="fill:blue"/>
<circle cx="512" cy="1945" r="5" style="fill:blue"/>
<circle cx="370" cy="608" r="5" style="fill:blue"/>
<circle cx="2824" cy="2094" r="5" style="fill:blue"/>
<circle cx="3242" cy="464" r="5" style="fill:blue"/>
<circle cx="2848" cy="943" r="5" style="fill:blue"/>
<circle cx="1707" cy="1852" r="5" style="fill:blue"/>
<circle cx="3620" cy="382" r="5" style="fill:blue"/>
<circle cx="3363" cy="2106" r="5" style="fill:blue"/>
<circle cx="2977" cy="333" r="5" style="fill:blue"/>
<circle cx="1211" cy="1603" r="5" style="fill:blue"/>
<circle cx="409" cy="228" r="5" style="fill:blue"/>
<circle cx="3262" cy="1054" r="5" style="fill:blue"/>
<circle cx="856" cy="1870" r="5" style="fill:blue"/>
<circle cx="3408" cy="135" r="5" style="fill:blue"/>
<circle cx="3897" cy="2307" r="5" style="fill:blue"/>
<circle cx="3349" cy="1112" r="5" style="fill:blue"/>
<circle cx="1755" cy="1076" r="5" style="fill:blue"/>
<circle cx="1168" cy="663" r="5" style="fill:blue"/>
<circle cx="264" cy="782" r="5" style="fill:blue"/>
<circle cx="522" cy="1106" r="5" style="fill:blue"/>
<circle cx="3485" cy="948" r="5" style="fill:blue"/>
<circle cx="1883" cy="460" r="5" style="fill:blue"/>
<circle cx="3292" cy="1700" r="5" style="fill:blue"/>
<circle cx="2470" cy="2313" r="5" style="fill:blue"/>
<circle cx="1117" cy="1735" r="5" style="fill:blue"/>
<circle cx="2312" cy="51" r="5" style="fill:blue"/>
<circle cx="1657" cy="11" r="5" style="fill:blue"/>
<circle cx="537" cy="536" r="5" style="fill:blue"/>
<circle cx="1487" cy="33" r="5" style="fill:blue"/>
<circle cx="1317" cy="1776" r="5" style="fill:blue"/>
<circle cx="3696" cy="1141" r="5" style="fill:blue"/>
<circle cx="3249" cy="1084" r="5" style="fill:blue"/>
<circle cx="94" cy="393" r="5" style="fill:blue"/>
<circle cx="1884" cy="778" r="5" style="fill:blue"/>
<circle cx="3337" cy="1861" r="5" style="fill:blue"/>
<circle cx="5" cy="79" r="5" style="fill:blue"/>
<circle cx="2988" cy="1818" r="5" style="fill:blue"/>
<circle cx="3899" cy="2060" r="5" style="fill:blue"/>
<circle cx="1591" cy="938" r="5" style="fill:blue"/>
<circle cx="831" cy="756" r="5" style="fill:blue"/>
<circle cx="2472" cy="926" r="5" style="fill:blue"/>
<circle cx="3789" cy="424" r="5" style="fill:blue"/>
<circle cx="2909" cy="1653" r="5" style="fill:blue"/>
<circle cx="3317" cy="587" r="5" style="fill:blue"/>
<circle cx="1153" cy="558" r="5" style="fill:blue"/>
<circle cx="870" cy="2080" r="5" style="fill:blue"/>
<circle cx="394" cy="712" r="5" style="fill:blue"/>
<circle cx="3111" cy="2178" r="5" style="fill:blue"/>
<circle cx="3768" cy="405" r="5" style="fill:blue"/>
<circle cx="2473" cy="703" r="5" style="fill:blue"/>
<circle cx="3208" cy="1834" r="5" style="fill:blue"/>
<circle cx="337" cy="1818" r="5" style="fill:blue"/>
<circle cx="1608" cy="619" r="5" style="fill:blue"/>
<circle cx="2676" cy="1851" r="5" style="fill:blue"/>
<circle cx="2546" cy="517" r="5" style="fill:blue"/>
<circle cx="1683" cy="7" r="5" style="fill:blue"/>
<circle cx="2856" cy="230" r="5" style="fill:blue"/>
<circle cx="3030" cy="857" r="5" style="fill:blue"/>
<circle cx="1971" cy="2169" r="5" style="fill:blue"/>
<circle cx="2596" cy="2038" r="5" style="fill:blue"/>
<circle cx="3507" cy="2108" r="5" style="fill:blue"/>
<circle cx="2463" cy="484" r="5" style="fill:blue"/>
<circle cx="1104" cy="513" r="5" style="fill:blue"/>
<circle cx="1947" cy="1805" r="5" style="fill:blue"/>
<circle cx="3439" cy="63" r="5" style="fill:blue"/>
<circle cx="3745" cy="88" r="5" style="fill:blue"/>
<circle cx="1230" cy="498" r="5" style="fill:blue"/>
<circle cx="3740" cy="156" r="5" style="fill:blue"/>
<circle cx="366" cy="2090" r="5" style="fill:blue"/>
<circle cx="544" cy="630" r="5" style="fill:blue"/>
<circle cx="1227" cy="929" r="5" style="fill:blue"/>
<circle cx="3287" cy="790" r="5" style="fill:blue"/>
<circle cx="3605" cy="1053" r="5" style="fill:blue"/>
<circle cx="1177" cy="2146" r="5" style="fill:blue"/>
<circle cx="3415" cy="369" r="5" style="fill:blue"/>
<circle cx="3278" cy="568" r="5" style="fill:blue"/>
<circle cx="675" cy="1983" r="5" style="fill:blue"/>
<circle cx="2737" cy="953" r="5" style="fill:blue"/>
<circle cx="277" cy="1682" r="5" style="fill:blue"/>
<circle cx="3641" cy="103" r="5" style="fill:blue"/>
<circle cx="1049" cy="994" r="5" style="fill:blue"/>
<circle cx="2214" cy="2141" r="5" style="fill:blue"/>
<circle cx="702" cy="552" r="5" style="fill:blue"/>
<circle cx="495" cy="1780" r="5" style="fill:blue"/>
<circle cx="3706" cy="604" r="5" style="fill:blue"/>
<circle cx="1847" cy="1852" r="5" style="fill:blue"/>
<circle cx="3045" cy="551" r="5" style="fill:blue"/>
<circle cx="1954" cy="419" r="5" style="fill:blue"/>
<circle cx="2535" cy="1799" r="5" style="fill:blue"/>
<circle cx="3127" cy="1831" r="5" style="fill:blue"/>
<circle cx="2736" cy="532" r="5" style="fill:blue"/>
<circle cx="201" cy="2315" r="5" style="fill:blue"/>
<circle cx="830" cy="1933" r="5" style="fill:blue"/>
<circle cx="3388" cy="618" r="5" style="fill:blue"/>
<circle cx="2706" cy="962" r="5" style="fill:blue"/>
<circle cx="1673" cy="76" r="5" style="fill:blue"/>
<circle cx="1528" cy="1053" r="5" style="fill:blue"/>
<circle cx="1921" cy="2233" r="5" style="fill:blue"/>
<circle cx="2393" cy="1831" r="5" style="fill:blue"/>
<circle cx="841" cy="596" r="5" style="fill:blue"/>
<circle cx="2382" cy="1915" r="5" style="fill:blue"/>
<circle cx="2959" cy="1975" r="5" style="fill:blue"/>
<circle cx="2377" cy="337" r="5" style="fill:blue"/>
<circle cx="1814" cy="2122" r="5" style="fill:blue"/>
<circle cx="1616" cy="501" r="5" style="fill:blue"/>
<circle cx="171" cy="1933" r="5" style="fill:blue"/>
<circle cx="1238" cy="499" r="5" style="fill:blue"/>
<circle cx="1136" cy="660" r="5" style="fill:blue"/>
<circle cx="1355" cy="584" r="5" style="fill:blue"/>
<circle cx="3439" cy="864" r="5" style="fill:blue"/>
<circle cx="1904" cy="156" r="5" style="fill:blue"/>
<circle cx="2252" cy="1077" r="5" style="fill:blue"/>
<circle cx="2176" cy="968" r="5" style="fill:blue"/>
<circle cx="3603" cy="1129" r="5" style="fill:blue"/>
<circle cx="427" cy="1774" r="5" style="fill:blue"/>
<circle cx="3686" cy="1116" r="5" style="fill:blue"/>
<circle cx="3224" cy="1641" r="5" style="fill:blue"/>
<circle cx="3005" cy="1004" r="5" style="fill:blue"/>
<circle cx="1825" cy="108" r="5" style="fill:blue"/>
<circle cx="3410" cy="740" r="5" style="fill:blue"/>
<circle cx="2541" cy="288" r="5" style="fill:blue"/>
<circle cx="2515" cy="695" r="5" style="fill:blue"/>
<circle cx="1710" cy="1101" r="5" style="fill:blue"/>
<circle cx="2670" cy="1720" r="5" style="fill:blue"/>
<circle cx="1686" cy="1813" r="5" style="fill:blue"/>
<circle cx="2567" cy="439" r="5" style="fill:blue"/>
<circle cx="755" cy="495" r="5" style="fill:blue"/>
<circle cx="269" cy="351" r="5" style="fill:blue"/>
<circle cx="3330" cy="481" r="5" style="fill:blue"/>
<circle cx="1773" cy="1994" r="5" style="fill:blue"/>
<circle cx="1042" cy="1982" r="5" style="fill:blue"/>
<circle cx="3041" cy="1036" r="5" style="fill:blue"/>
<circle cx="491" cy="1974" r="5" style="fill:blue"/>
<circle cx="1841" cy="48" r="5" style="fill:blue"/>
<circle cx="3639" cy="181" r="5" style="fill:blue"/>
<circle cx="3817" cy="861" r="5" style="fill:blue"/>
<circle cx="1317" cy="658" r="5" style="fill:blue"/>
<circle cx="1960" cy="211" r="5" style="fill:blue"/>
<circle cx="1664" cy="2176" r="5" style="fill:blue"/>
<circle cx="3895" cy="454" r="5" style="fill:blue"/>
<circle cx="1574" cy="1598" r="5" style="fill:blue"/>
<circle cx="3127" cy="155" r="5" style="fill:blue"/>
<circle cx="1914" cy="2198" r="5" style="fill:blue"/>
<circle cx="2484" cy="1114" r="5" style="fill:blue"/>
<circle cx="635" cy="758" r="5" style="fill:blue"/>
<circle cx="599" cy="985" r="5" style="fill:blue"/>
<circle cx="737" cy="1076" r="5" style="fill:blue"/>
<circle cx="1358" cy="1809" r="5" style="fill:blue"/>
<circle cx="2988" cy="637" r="5" style="fill:blue"/>
<circle cx="3008" cy="1606" r="5" style="fill:blue"/>
<circle cx="613" cy="2226" r="5" style="fill:blue"/>
<circle cx="2524" cy="1058" r="5" style="fill:blue"/>
<circle cx="3223" cy="1636" r="5" style="fill:blue"/>
<circle cx="296" cy="592" r="5" style="fill:blue"/>
<circle cx="234" cy="1979" r="5" style="fill:blue"/>
<circle cx="1799" cy="1888" r="5" style="fill:blue"/>
<circle cx="512" cy="1848" r="5" style="fill:blue"/>
<circle cx="3081" cy="281" r="5" style="fill:blue"/>
<circle cx="3526" cy="1760" r="5" style="fill:blue"/>
<circle cx="1355" cy="1038" r="5" style="fill:blue"/>
<circle cx="677" cy="285" r="5" style="fill:blue"/>
<circle cx="226" cy="508" r="5" style="fill:blue"/>
<circle cx="3664" cy="20" r="5" style="fill:blue"/>
<circle cx="1498" cy="1849" r="5" style="fill:blue"/>
<circle cx="3622" cy="206" r="5" style="fill:blue"/>
<circle cx="2759" cy="2151" r="5" style="fill:blue"/>
<circle cx="1608" cy="229" r="5" style="fill:blue"/>
<circle cx="719" cy="1628" r="5" style="fill:blue"/>
<circle cx="572" cy="461" r="5" style="fill:blue"/>
<circle cx="1152" cy="1791" r="5" style="fill:blue"/>
<circle cx="1802" cy="175" r="5" style="fill:blue"/>
<circle cx="1945" cy="1898" r="5" style="fill:blue"/>
<circle cx="827" cy="2198" r="5" style="fill:blue"/>
<circle cx="507" cy="639" r="5" style="fill:blue"/>
<circle cx="861" cy="744" r="5" style="fill:blue"/>
<circle cx="3957" cy="1836" r="5" style="fill:blue"/>
<circle cx="2402" cy="539" r="5" style="fill:blue"/>
<circle cx="2641" cy="1066" r="5" style="fill:blue"/>
<circle cx="1433" cy="223" r="5" style="fill:blue"/>
<circle cx="2954" cy="33" r="5" style="fill:blue"/>
<circle cx="1244" cy="2148" r="5" style="fill:blue"/>
<circle cx="748" cy="1876" r="5" style="fill:blue"/>
<circle cx="2659" cy="2081" r="5" style="fill:blue"/>
<circle cx="3276" cy="831" r="5" style="fill:blue"/>
<circle cx="2712" cy="852" r="5" style="fill:blue"/>
<circle cx="3424" cy="2147" r="5" style="fill:blue"/>
<circle cx="1839" cy="2293" r="5" style="fill:blue"/>
<circle cx="1324" cy="117" r="5" style="fill:blue"/>
<circle cx="1905" cy="2040" r="5" style="fill:blue"/>
<circle cx="2640" cy="1034" r="5" style="fill:blue"/>
<circle cx="1226" cy="2091" r="5" style="fill:blue"/>
<circle cx="338" cy="496" r="5" style="fill:blue"/>
<circle cx="2491" cy="1853" r="5" style="fill:blue"/>
<circle cx="406" cy="558" r="5" style="fill:blue"/>
<circle cx="3313" cy="73" r="5" style="fill:blue"/>
<circle cx="3806" cy="1802" r="5" style="fill:blue"/>
<circle cx="2767" cy="370" r="5" style="fill:blue"/>
<circle cx="2386" cy="1886" r="5" style="fill:blue"/>
<circle cx="1368" cy="104" r="5" style="fill:blue"/>
<circle cx="2270" cy="1967" r="5" style="fill:blue"/>
<circle cx="1913" cy="354" r="5" style="fill:blue"/>
<circle cx="2111" cy="60" r="5" style="fill:blue"/>
<circle cx="1697" cy="1746" r="5" style="fill:blue"/>
<circle cx="3547" cy="115" r="5" style="fill:blue"/>
<circle cx="370" cy="364" r="5" style="fill:blue"/>
<circle cx="3746" cy="2299" r="5" style="fill:blue"/>
<circle cx="3188" cy="796" r="5" style="fill:blue"/>
<circle cx="1691" cy="2119" r="5" style="fill:blue"/>
<circle cx="2764" cy="565" r="5" style="fill:blue"/>
<circle cx="1945" cy="1103" r="5" style="fill:blue"/>
<circle cx="2443" cy="1016" r="5" style="fill:blue"/>
<circle cx="161" cy="2194" r="5" style="fill:blue"/>
<circle cx="2293" cy="1103" r="5" style="fill:blue"/>
<circle cx="1501" cy="1109" r="5" style="fill:blue"/>
<circle cx="3155" cy="971" r="5" style="fill:blue"/>
<circle cx="788" cy="369" r="5" style="fill:blue"/>
<circle cx="500" cy="1594" r="5" style="fill:blue"/>
<circle cx="63" cy="2166" r="5" style="fill:blue"/>
<circle cx="3387" cy="519" r="5" style="fill:blue"/>
<circle cx="1788" cy="2219" r="5" style="fill:blue"/>
<circle cx="3271" cy="272" r="5" style="fill:blue"/>
<circle cx="2803" cy="417" r="5" style="fill:blue"/>
<circle cx="1891" cy="374" r="5" style="fill:blue"/>
<circle cx="288" cy="204" r="5" style="fill:blue"/>
<circle cx="1205" cy="962" r="5" style="fill:blue"/>
<circle cx="1480" cy="6" r="5" style="fill:blue"/>
<circle cx="3923" cy="2062" r="5" style="fill:blue"/>
<circle cx="355" cy="636" r="5" style="fill:blue"/>
<circle cx="2068" cy="39" r="5" style="fill:blue"/>
<circle cx="717" cy="483" r="5" style="fill:blue"/>
<circle cx="3260" cy="842" r="5" style="fill:blue"/>
<circle cx="586" cy="356" r="5" style="fill:blue"/>
<circle cx="3419" cy="1828" r="5" style="fill:blue"/>
<circle cx="1420" cy="1933" r="5" style="fill:blue"/>
<circle cx="3865" cy="597" r="5" style="fill:blue"/>
<circle cx="1446" cy="1874" r="5" style="fill:blue"/>
<circle cx="1005" cy="705" r="5" style="fill:blue"/>
<circle cx="868" cy="1690" r="5" style="fill:blue"/>
<circle cx="975" cy="1591" r="5" style="fill:blue"/>
<circle cx="1091" cy="1793" r="5" style="fill:blue"/>
<circle cx="1710" cy="763" r="5" style="fill:blue"/>
<circle cx="3237" cy="397" r="5" style="fill:blue"/>
<circle cx="1365" cy="429" r="5" style="fill:blue"/>
<circle cx="1431" cy="1685" r="5" style="fill:blue"/>
<circle cx="2671" cy="1634" r="5" style="fill:blue"/>
<circle cx="992" cy="1676" r="5" style="fill:blue"/>
<circle cx="186" cy="1590" r="5" style="fill:blue"/>
<circle cx="320" cy="1622" r="5" style="fill:blue"/>
<circle cx="687" cy="718" r="5" style="fill:blue"/>
<circle cx="2946" cy="2119" r="5" style="fill:blue"/>
<circle cx="2197" cy="1022" r="5" style="fill:blue"/>
<circle cx="3162" cy="1104" r="5" style="fill:blue"/>
<circle cx="2595" cy="648" r="5" style="fill:blue"/>
<circle cx="2611" cy="801" r="5" style="fill:blue"/>
<circle cx="544" cy="613" r="5" style="fill:blue"/>
<circle cx="3885" cy="2077" r="5" style="fill:blue"/>
<circle cx="1917" cy="2158" r="5" style="fill:blue"/>
<circle cx="1113" cy="1838" r="5" style="fill:blue"/>
<circle cx="2225" cy="1105" r="5" style="fill:blue"/>
<circle cx="532" cy="431" r="5" style="fill:blue"/>
<circle cx="890" cy="745" r="5" style="fill:blue"/>
<circle cx="2600" cy="1150" r="5" style="fill:blue"/>
<circle cx="1597" cy="57" r="5" style="fill:blue"/>
<circle cx="3115" cy="74" r="5" style="fill:blue"/>
<circle cx="907" cy="750" r="5" style="fill:blue"/>
<circle cx="3114" cy="2272" r="5" style="fill:blue"/>
<circle cx="1873" cy="126" r="5" style="fill:blue"/>
<circle cx="219" cy="2302" r="5" style="fill:blue"/>
<circle cx="3226" cy="871" r="5" style="fill:blue"/>
<circle cx="2583" cy="2058" r="5" style="fill:blue"/>
<circle cx="2447" cy="1585" r="5" style="fill:blue"/>
<circle cx="3733" cy="65" r="5" style="fill:blue"/>
<circle cx="176" cy="142" r="5" style="fill:blue"/>
<circle cx="837" cy="744" r="5" style="fill:blue"/>
<circle cx="1165" cy="1587" r="5" style="fill:blue"/>
<circle cx="1256" cy="906" r="5" style="fill:blue"/>
<circle cx="1899" cy="80" r="5" style="fill:blue"/>
<circle cx="3882" cy="2159" r="5" style="fill:blue"/>
<circle cx="257" cy="528" r="5" style="fill:blue"/>
<circle cx="1846" cy="1091" r="5" style="fill:blue"/>
<circle cx="1754" cy="2202" r="5" style="fill:blue"/>
<circle cx="3472" cy="732" r="5" style="fill:blue"/>
<circle cx="2073" cy="694" r="5" style="fill:blue"/>
<circle cx="193" cy="2233" r="5" style="fill:blue"/>
<circle cx="3254" cy="25" r="5" style="fill:blue"/>
<circle cx="2844" cy="258" r="5" style="fill:blue"/>
<circle cx="2532" cy="1961" r="5" style="fill:blue"/>
<circle cx="2760" cy="1941" r="5" style="fill:blue"/>
<circle cx="2603" cy="345" r="5" style="fill:blue"/>
<circle cx="1890" cy="1156" r="5" style="fill:blue"/>
<circle cx="1420" cy="1990" r="5" style="fill:blue"/>
<circle cx="1659" cy="710" r="5" style="fill:blue"/>
<circle cx="3029" cy="960" r="5" style="fill:blue"/>
<circle cx="1231" cy="1114" r="5" style="fill:blue"/>
<circle cx="2047" cy="138" r="5" style="fill:blue"/>
<circle cx="2302" cy="7" r="5" style="fill:blue"/>
<circle cx="2481" cy="70" r="5" style="fill:blue"/>
<circle cx="2594" cy="967" r="5" style="fill:blue"/>
<circle cx="1439" cy="443" r="5" style="fill:blue"/>
<circle cx="900" cy="280" r="5" style="fill:blue"/>
<circle cx="2174" cy="948" r="5" style="fill:blue"/>
<circle cx="967" cy="443" r="5" style="fill:blue"/>
<circle cx="2028" cy="1932" r="5" style="fill:blue"/>
<circle cx="947" cy="109" r="5" style="fill:blue"/>
<circle cx="3430" cy="2192" r="5" style="fill:blue"/>
<circle cx="768" cy="2305" r="5" style="fill:blue"/>
<circle cx="1831" cy="978" r="5" style="fill:blue"/>
<circle cx="2600" cy="337" r="5" style="fill:blue"/>
<circle cx="1802" cy="1968" r="5" style="fill:blue"/>
<circle cx="2126" cy="791" r="5" style="fill:blue"/>
<circle cx="832" cy="76" r="5" style="fill:blue"/>
<circle cx="188" cy="2279" r="5" style="fill:blue"/>
<circle cx="469" cy="2153" r="5" style="fill:blue"/>
<circle cx="1175" cy="1805" r="5" style="fill:blue"/>
<circle cx="3568" cy="243" r="5" style="fill:blue"/>
<circle cx="907" cy="759" r="5" style="fill:blue"/>
<circle cx="1643" cy="620" r="5" style="fill:blue"/>
<circle cx="1382" cy="841" r="5" style="fill:blue"/>
<circle cx="2303" cy="204" r="5" style="fill:blue"/>
<circle cx="2403" cy="948" r="5" style="fill:blue"/>
<circle cx="2815" cy="593" r="5" style="fill:blue"/>
<circle cx="1382" cy="475" r="5" style="fill:blue"/>
<circle cx="3543" cy="2008" r="5" style="fill:blue"/>
<circle cx="3013" cy="1831" r="5" style="fill:blue"/>
<circle cx="1440" cy="198" r="5" style="fill:blue"/>
<circle cx="633" cy="1004" r="5" style="fill:blue"/>
<circle cx="1628" cy="387" r="5" style="fill:blue"/>
<circle cx="3737" cy="1596" r="5" style="fill:blue"/>
<circle cx="2432" cy="612" r="5" style="fill:blue"/>
<circle cx="910" cy="833" r="5" style="fill:blue"/>
<circle cx="3477" cy="745" r="5" style="fill:blue"/>
<circle cx="658" cy="135" r="5" style="fill:blue"/>
<circle cx="116" cy="387" r="5" style="fill:blue"/>
<circle cx="1976" cy="634" r="5" style="fill:blue"/>
<circle cx="300" cy="580" r="5" style="fill:blue"/>
<circle cx="2959" cy="551" r="5" style="fill:blue"/>
<circle cx="3677" cy="170" r="5" style="fill:blue"/>
<circle cx="3288" cy="604" r="5" style="fill:blue"/>
<circle cx="2028" cy="474" r="5" style="fill:blue"/>
<circle cx="3767" cy="2002" r="5" style="fill:blue"/>
<circle cx="2963" cy="462" r="5" style="fill:blue"/>
<circle cx="3913" cy="710" r="5" style="fill:blue"/>
<circle cx="3416" cy="2101" r="5" style="fill:blue"/>
<circle cx="2854" cy="985" r="5" style="fill:blue"/>
<circle cx="2964" cy="943" r="5" style="fill:blue"/>
<circle cx="604" cy="167" r="5" style="fill:blue"/>
<circle cx="1323" cy="1773" r="5" style="fill:blue"/>
<circle cx="2910" cy="721" r="5" style="fill:blue"/>
<circle cx="1003" cy="56" r="5" style="fill:blue"/>
<circle cx="1273" cy="637" r="5" style="fill:blue"/>
<circle cx="13" cy="364" r="5" style="fill:blue"/>
<circle cx="873" cy="215" r="5" style="fill:blue"/>
<circle cx="1744" cy="673" r="5" style="fill:blue"/>
<circle cx="2976" cy="67" r="5" style="fill:blue"/>
<circle cx="2574" cy="2170" r="5" style="fill:blue"/>
<circle cx="824" cy="2250" r="5" style="fill:blue"/>
<circle cx="1714" cy="186" r="5" style="fill:blue"/>
<circle cx="3542" cy="1799" r="5" style="fill:blue"/>
<circle cx="2322" cy="158" r="5" style="fill:blue"/>
<circle cx="3351" cy="2115" r="5" style="fill:blue"/>
<circle cx="2179" cy="2275" r="5" style="fill:blue"/>
<circle cx="103" cy="689" r="5" style="fill:blue"/>
<circle cx="641" cy="664" r="5" style="fill:blue"/>
<circle cx="103" cy="757" r="5" style="fill:blue"/>
<circle cx="190" cy="1808" r="5" style="fill:blue"/>
<circle cx="3097" cy="1696" r="5" style="fill:blue"/>
<circle cx="3250" cy="176" r="5" style="fill:blue"/>
<circle cx="3410" cy="2309" r="5" style="fill:blue"/>
<circle cx="3057" cy="139" r="5" style="fill:blue"/>
<circle cx="3398" cy="612" r="5" style="fill:blue"/>
<circle cx="2720" cy="1593" r="5" style="fill:blue"/>
<circle cx="1308" cy="2003" r="5" style="fill:blue"/>
<circle cx="246" cy="230" r="5" style="fill:blue"/>
<circle cx="3689" cy="266" r="5" style="fill:blue"/>
<circle cx="690" cy="13" r="5" style="fill:blue"/>
<circle cx="2175" cy="291" r="5" style="fill:blue"/>
<circle cx="1435" cy="1752" r="5" style="fill:blue"/>
<circle cx="544" cy="2010" r="5" style="fill:blue"/>
<circle cx="1467" cy="6" r="5" style="fill:blue"/>
<circle cx="1154" cy="2230" r="5" style="fill:blue"/>
<circle cx="91" cy="1781" r="5" style="fill:blue"/>
<circle cx="1655" cy="46" r="5" style="fill:blue"/>
<circle cx="310" cy="2207" r="5" style="fill:blue"/>
<circle cx="1213" cy="1669" r="5" style="fill:blue"/>
<circle cx="396" cy="1862" r="5" style="fill:blue"/>
<circle cx="460" cy="1882" r="5" style="fill:blue"/>
<circle cx="982" cy="2265" r="5" style="fill:blue"/>
<circle cx="23" cy="1022" r="5" style="fill:blue"/>
<circle cx="2137" cy="501" r="5" style="fill:blue"/>
<circle cx="2761" cy="1949" r="5" style="fill:blue"/>
<circle cx="886" cy="171" r="5" style="fill:blue"/>
<circle cx="3594" cy="894" r="5" style="fill:blue"/>
<circle cx="3348" cy="2215" r="5" style="fill:blue"/>
<circle cx="219" cy="1888" r="5" style="fill:blue"/>
<circle cx="1735" cy="1891" r="5" style="fill:blue"/>
<circle cx="2878" cy="2074" r="5" style="fill:blue"/>
<circle cx="2974" cy="1763" r="5" style="fill:blue"/>
<circle cx="1694" cy="1812" r="5" style="fill:blue"/>
<circle cx="3409" cy="774" r="5" style="fill:blue"/>
<circle cx="1625" cy="710" r="5" style="fill:blue"/>
<circle cx="1025" cy="2270" r="5" style="fill:blue"/>
<circle cx="2068" cy="1020" r="5" style="fill:blue"/>
<circle cx="234" cy="4" r="5" style="fill:blue"/>
<circle cx="1328" cy="635" r="5" style="fill:blue"/>
<circle cx="3575" cy="352" r="5" style="fill:blue"/>
<circle cx="1968" cy="2031" r="5" style="fill:blue"/>
<circle cx="1776" cy="148" r="5" style="fill:blue"/>
<circle cx="612" cy="14" r="5" style="fill:blue"/>
<circle cx="553" cy="730" r="5" style="fill:blue"/>
<circle cx="1206" cy="958" r="5" style="fill:blue"/>
<circle cx="135" cy="358" r="5" style="fill:blue"/>
<circle cx="3025" cy="1791" r="5" style="fill:blue"/>
<circle cx="2086" cy="1894" r="5" style="fill:blue"/>
<circle cx="75" cy="47" r="5" style="fill:blue"/>
<circle cx="437" cy="1704" r="5" style="fill:blue"/>
<circle cx="2020" cy="2217" r="5" style="fill:blue"/>
<circle cx="939" cy="781" r="5" style="fill:blue"/>
<circle cx="499" cy="1954" r="5" style="fill:blue"/>
<circle cx="3183" cy="27" r="5" style="fill:blue"/>
<circle cx="689" cy="602" r="5" style="fill:blue"/>
<circle cx="2992" cy="1815" r="5" style="fill:blue"/>
<circle cx="3357" cy="306" r="5" style="fill:blue"/>
<circle cx="3335" cy="1862" r="5" style="fill:blue"/>
<circle cx="682" cy="1614" r="5" style="fill:blue"/>
<circle cx="523" cy="46" r="5" style="fill:blue"/>
<circle cx="898" cy="1717" r="5" style="fill:blue"/>
<circle cx="2518" cy="2168" r="5" style="fill:blue"/>
<circle cx="1808" cy="146" r="5" style="fill:blue"/>
<circle cx="3716" cy="31" r="5" style="fill:blue"/>
<circle cx="2063" cy="75" r="5" style="fill:blue"/>
<circle cx="2735" cy="2033" r="5" style="fill:blue"/>
<circle cx="3513" cy="806" r="5" style="fill:blue"/>
<circle cx="1201" cy="215" r="5" style="fill:blue"/>
<circle cx="2882" cy="2299" r="5" style="fill:blue"/>
<circle cx="1443" cy="2150" r="5" style="fill:blue"/>
<circle cx="1589" cy="1006" r="5" style="fill:blue"/>
<circle cx="2674" cy="334" r="5" style="fill:blue"/>
<circle cx="2336" cy="619" r="5" style="fill:blue"/>
<circle cx="1394" cy="1109" r="5" style="stroke-width:5;fill:gray;fill-opacity:0.3"/>
<circle cx="1414" cy="1109" r="5" style="stroke-width:5;fill:gray;fill-opacity:0.3"/>
<circle cx="1434" cy="1109" r="5" style="stroke-width:5;fill:gray;fill-opacity:0.3"/>
<circle cx="1454" cy="1109" r="5" style="stroke-width:5;fill:gray;fill-opacity:0.3"/>
<circle cx="1474" cy="1109" r="5" style="stroke-width:5;fill:gray;fill-opacity:0.3"/>
<circle cx="1494" cy="1109" r="5" style="stroke-width:5;fill:gray;fill-opacity:0.3"/>
<circle cx="1514" cy="1109" r="5" style="stroke-width:5;fill:gray;fill-opacity:0.3"/>
<circle cx="1534" cy="1109" r="5" style="stroke-width:5;fill:gray;fill-opacity:0.3"/>
<circle cx="1394" cy="1631" r="5" style="stroke-width:5;fill:gray;fill-opacity:0.3"/>
<circle cx="1414" cy="1631" r="5" style="stroke-width:5;fill:gray;fill-opacity:0.3"/>
<circle cx="1434" cy="1631" r="5" style="stroke-width:5;fill:gray;fill-opacity:0.3"/>
<circle cx="1454" cy="1631" r="5" style="stroke-width:5;fill:gray;fill-opacity:0.3"/>
<circle cx="1474" cy="1631" r="5" style="stroke-width:5;fill:gray;fill-opacity:0.3"/>
<circle cx="1494" cy="1631" r="5" style="stroke-width:5;fill:gray;fill-opacity:0.3"/>
<circle cx="1514" cy="1631" r="5" style="stroke-width:5;fill:gray;fill-opacity:0.3"/>
<circle cx="1534" cy="1631" r="5" style="stroke-width:5;fill:gray;fill-opacity:0.3"/>
<circle cx="1554" cy="1631" r="5" style="stroke-width:5;fill:gray;fill-opacity:0.3"/>
</svg>