<svg viewBox="0 0 6067 4027" xmlns="http://www.w3.org/2000/svg">
<rect height="786" style="stroke:pink;stroke-width:10;fill:gray;fill-opacity:0.1;stroke-opacity:0.9" width="709" x="3733" y="2025"/>
<circle cx="758" cy="1477" r="5" style="fill:blue"/>
<circle cx="218" cy="3646" r="5" style="fill:blue"/>
<circle cx="3476" cy="213" r="5" style="fill:blue"/>
<circle cx="1928" cy="2542" r="5" style="fill:blue"/>
<circle cx="3303" cy="1245" r="5" style="fill:blue"/>
<circle cx="5683" cy="1117" r="5" style="fill:blue"/>
<circle cx="5516" cy="3522" r="5" style="fill:blue"/>
<circle cx="2076" cy="3139" r="5" style="fill:blue"/>
<circle cx="801" cy="1596" r="5" style="fill:blue"/>
<circle cx="4310" cy="2862" r="5" style="fill:blue"/>
<circle cx="5665" cy="2252" r="5" style="fill:blue"/>
<circle cx="5692" cy="919" r="5" style="fill:blue"/>
<circle cx="5939" cy="3156" r="5" style="fill:blue"/>
<circle cx="2873" cy="1243" r="5" style="fill:blue"/>
<circle cx="2564" cy="2465" r="5" style="fill:blue"/>
<circle cx="1232" cy="3835" r="5" style="fill:blue"/>
<circle cx="2017" cy="921" r="5" style="fill:blue"/>
<circle cx="767" cy="3681" r="5" style="fill:blue"/>
<circle cx="3764" cy="1288" r="5" style="fill:blue"/>
<circle cx="4879" cy="3595" r="5" style="fill:blue"/>
<circle cx="3876" cy="3025" r="5" style="fill:blue"/>
<circle cx="58" cy="2022" r="5" style="fill:blue"/>
<circle cx="5121" cy="2605" r="5" style="fill:blue"/>
<circle cx="936" cy="719" r="5" style="fill:blue"/>
<circle cx="3945" cy="1773" r="5" style="fill:blue"/>
<circle cx="3558" cy="3809" r="5" style="fill:blue"/>
<circle cx="120" cy="1251" r="5" style="fill:blue"/>
<circle cx="365" cy="2383" r="5" style="fill:blue"/>
<circle cx="5422" cy="1482" r="5" style="fill:blue"/>
<circle cx="5604" cy="10" r="5" style="fill:blue"/>
<circle cx="4596" cy="2621" r="5" style="fill:blue"/>
<circle cx="4911" cy="1174" r="5" style="fill:blue"/>
<circle cx="3250" cy="2016" r="5" style="fill:blue"/>
<circle cx="700" cy="3618" r="5" style="fill:blue"/>
<circle cx="2123" cy="3908" r="5" style="fill:blue"/>
<circle cx="1149" cy="2479" r="5" style="fill:blue"/>
<circle cx="1250" cy="2393" r="5" style="fill:blue"/>
<circle cx="3198" cy="898" r="5" style="fill:blue"/>
<circle cx="4573" cy="1516" r="5" style="fill:blue"/>
<circle cx="1124" cy="763" r="5" style="fill:blue"/>
<circle cx="5245" cy="4019" r="5" style="fill:blue"/>
<circle cx="5034" cy="1273" r="5" style="fill:blue"/>
<circle cx="4142" cy="3544" r="5" style="fill:blue"/>
<circle cx="1363" cy="3777" r="5" style="fill:blue"/>
<circle cx="3718" cy="1942" r="5" style="fill:blue"/>
<circle cx="3415" cy="2641" r="5" style="fill:blue"/>
<circle cx="1809" cy="3611" r="5" style="fill:blue"/>
<circle cx="869" cy="1569" r="5" style="fill:blue"/>
<circle cx="4466" cy="3768" r="5" style="fill:blue"/>
<circle cx="4183" cy="1782" r="5" style="fill:blue"/>
<circle cx="1270" cy="3046" r="5" style="fill:blue"/>
<circle cx="5490" cy="3786" r="5" style="fill:blue"/>
<circle cx="4908" cy="3558" r="5" style="fill:blue"/>
<circle cx="1608" cy="1841" r="5" style="fill:blue"/>
<circle cx="534" cy="2233" r="5" style="fill:blue"/>
<circle cx="211" cy="2357" r="5" style="fill:blue"/>
<circle cx="1799" cy="2781" r="5" style="fill:blue"/>
<circle cx="4338" cy="1695" r="5" style="fill:blue"/>
<circle cx="285" cy="3222" r="5" style="fill:blue"/>
<circle cx="4456" cy="2701" r="5" style="fill:blue"/>
<circle cx="6008" cy="1307" r="5" style="fill:blue"/>
<circle cx="675" cy="803" r="5" style="fill:blue"/>
<circle cx="694" cy="3620" r="5" style="fill:blue"/>
<circle cx="2893" cy="1154" r="5" style="fill:blue"/>
<circle cx="5764" cy="2770" r="5" style="fill:blue"/>
<circle cx="3727" cy="3867" r="5" style="fill:blue"/>
<circle cx="1277" cy="1773" r="5" style="fill:blue"/>
<circle cx="4107" cy="2837" r="5" style="fill:blue"/>
<circle cx="5183" cy="491" r="5" style="fill:blue"/>
<circle cx="1123" cy="1107" r="5" style="fill:blue"/>
<circle cx="5948" cy="3542" r="5" style="fill:blue"/>
<circle cx="572" cy="3368" r="5" style="fill:blue"/>
<circle cx="3500" cy="2531" r="5" style="fill:blue"/>
<circle cx="4111" cy="1056" r="5" style="fill:blue"/>
<circle cx="3336" cy="2831" r="5" style="fill:blue"/>
<circle cx="5089" cy="3588" r="5" style="fill:blue"/>
<circle cx="2112" cy="164" r="5" style="fill:blue"/>
<circle cx="3730" cy="1599" r="5" style="fill:blue"/>
<circle cx="2415" cy="3758" r="5" style="fill:blue"/>
<circle cx="1972" cy="3569" r="5" style="fill:blue"/>
<circle cx="4013" cy="236" r="5" style="fill:blue"/>
<circle cx="5711" cy="3681" r="5" style="fill:blue"/>
<circle cx="2977" cy="3823" r="5" style="fill:blue"/>
<circle cx="2855" cy="8" r="5" style="fill:blue"/>
<circle cx="3211" cy="4010" r="5" style="fill:blue"/>
<circle cx="2489" cy="1577" r="5" style="fill:blue"/>
<circle cx="5540" cy="304" r="5" style="fill:blue"/>
<circle cx="2290" cy="3601" r="5" style="fill:blue"/>
<circle cx="698" cy="3577" r="5" style="fill:blue"/>
<circle cx="4271" cy="1591" r="5" style="fill:blue"/>
<circle cx="1846" cy="2703" r="5" style="fill:blue"/>
<circle cx="5524" cy="2171" r="5" style="fill:blue"/>
<circle cx="4205" cy="3380" r="5" style="fill:blue"/>
<circle cx="1684" cy="3705" r="5" style="fill:blue"/>
<circle cx="2883" cy="861" r="5" style="fill:blue"/>
<circle cx="1195" cy="1219" r="5" style="fill:blue"/>
<circle cx="4339" cy="3597" r="5" style="fill:blue"/>
<circle cx="6014" cy="3188" r="5" style="fill:blue"/>
<circle cx="1478" cy="3840" r="5" style="fill:blue"/>
<circle cx="1665" cy="292" r="5" style="fill:blue"/>
<circle cx="575" cy="3986" r="5" style="fill:blue"/>
<circle cx="1645" cy="950" r="5" style="fill:blue"/>
<circle cx="2030" cy="1029" r="5" style="fill:blue"/>
<circle cx="1031" cy="714" r="5" style="fill:blue"/>
<circle cx="2710" cy="3569" r="5" style="fill:blue"/>
<circle cx="1990" cy="3712" r="5" style="fill:blue"/>
<circle cx="5026" cy="622" r="5" style="fill:blue"/>
<circle cx="3652" cy="3198" r="5" style="fill:blue"/>
<circle cx="2879" cy="2522" r="5" style="fill:blue"/>
<circle cx="4549" cy="2252" r="5" style="fill:blue"/>
<circle cx="4545" cy="3819" r="5" style="fill:blue"/>
<circle cx="4855" cy="3517" r="5" style="fill:blue"/>
<circle cx="5878" cy="635" r="5" style="fill:blue"/>
<circle cx="1322" cy="368" r="5" style="fill:blue"/>
<circle cx="967" cy="3098" r="5" style="fill:blue"/>
<circle cx="1097" cy="942" r="5" style="fill:blue"/>
<circle cx="5885" cy="2964" r="5" style="fill:blue"/>
<circle cx="1029" cy="2383" r="5" style="fill:blue"/>
<circle cx="4103" cy="3023" r="5" style="fill:blue"/>
<circle cx="1992" cy="2772" r="5" style="fill:blue"/>
<circle cx="2833" cy="3773" r="5" style="fill:blue"/>
<circle cx="5440" cy="1637" r="5" style="fill:blue"/>
<circle cx="691" cy="3078" r="5" style="fill:blue"/>
<circle cx="1048" cy="2540" r="5" style="fill:blue"/>
<circle cx="5064" cy="147" r="5" style="fill:blue"/>
<circle cx="5063" cy="700" r="5" style="fill:blue"/>
<circle cx="4400" cy="1939" r="5" style="fill:blue"/>
<circle cx="5765" cy="3470" r="5" style="fill:blue"/>
<circle cx="862" cy="941" r="5" style="fill:blue"/>
<circle cx="4168" cy="3113" r="5" style="fill:blue"/>
<circle cx="4225" cy="3940" r="5" style="fill:blue"/>
<circle cx="4961" cy="125" r="5" style="fill:blue"/>
<circle cx="4131" cy="587" r="5" style="fill:blue"/>
<circle cx="2324" cy="1447" r="5" style="fill:blue"/>
<circle cx="2020" cy="1648" r="5" style="fill:blue"/>
<circle cx="3736" cy="3627" r="5" style="fill:blue"/>
<circle cx="588" cy="1402" r="5" style="fill:blue"/>
<circle cx="929" cy="3292" r="5" style="fill:blue"/>
<circle cx="2154" cy="523" r="5" style="fill:blue"/>
<circle cx="2544" cy="1779" r="5" style="fill:blue"/>
<circle cx="1523" cy="172" r="5" style="fill:blue"/>
<circle cx="6065" cy="2240" r="5" style="fill:blue"/>
<circle cx="2546" cy="2205" r="5" style="fill:blue"/>
<circle cx="2493" cy="3635" r="5" style="fill:blue"/>
<circle cx="3698" cy="3162" r="5" style="fill:blue"/>
<circle cx="1247" cy="2833" r="5" style="fill:blue"/>
<circle cx="1119" cy="2336" r="5" style="fill:blue"/>
<circle cx="139" cy="2320" r="5" style="fill:blue"/>
<circle cx="5750" cy="3305" r="5" style="fill:blue"/>
<circle cx="4105" cy="514" r="5" style="fill:blue"/>
<circle cx="2365" cy="552" r="5" style="fill:blue"/>
<circle cx="5169" cy="2809" r="5" style="fill:blue"/>
<circle cx="2921" cy="3891" r="5" style="fill:blue"/>
<circle cx="3432" cy="101" r="5" style="fill:blue"/>
<circle cx="5475" cy="2329" r="5" style="fill:blue"/>
<circle cx="3585" cy="884" r="5" style="fill:blue"/>
<circle cx="4848" cy="739" r="5" style="fill:blue"/>
<circle cx="3793" cy="1134" r="5" style="fill:blue"/>
<circle cx="3634" cy="993" r="5" style="fill:blue"/>
<circle cx="64" cy="1325" r="5" style="fill:blue"/>
<circle cx="2089" cy="2353" r="5" style="fill:blue"/>
<circle cx="4044" cy="3530" r="5" style="fill:blue"/>
<circle cx="920" cy="1047" r="5" style="fill:blue"/>
<circle cx="1035" cy="1487" r="5" style="fill:blue"/>
<circle cx="2423" cy="1991" r="5" style="fill:blue"/>
<circle cx="75" cy="113" r="5" style="fill:blue"/>
<circle cx="2166" cy="1736" r="5" style="fill:blue"/>
<circle cx="2637" cy="832" r="5" style="fill:blue"/>
<circle cx="1641" cy="2653" r="5" style="fill:blue"/>
<circle cx="3456" cy="2070" r="5" style="fill:blue"/>
<circle cx="4859" cy="1001" r="5" style="fill:blue"/>
<circle cx="3128" cy="2577" r="5" style="fill:blue"/>
<circle cx="2585" cy="132" r="5" style="fill:blue"/>
<circle cx="172" cy="1567" r="5" style="fill:blue"/>
<circle cx="1968" cy="2180" r="5" style="fill:blue"/>
<circle cx="1359" cy="1589" r="5" style="fill:blue"/>
<circle cx="5199" cy="364" r="5" style="fill:blue"/>
<circle cx="5324" cy="2094" r="5" style="fill:blue"/>
<circle cx="3032" cy="1538" r="5" style="fill:blue"/>
<circle cx="1932" cy="3500" r="5" style="fill:blue"/>
<circle cx="3983" cy="3114" r="5" style="fill:blue"/>
<circle cx="4273" cy="571" r="5" style="fill:blue"/>
<circle cx="1824" cy="2158" r="5" style="fill:blue"/>
<circle cx="1735" cy="2852" r="5" style="fill:blue"/>
<circle cx="2451" cy="3898" r="5" style="fill:blue"/>
<circle cx="4173" cy="3081" r="5" style="fill:blue"/>
<circle cx="1093" cy="1783" r="5" style="fill:blue"/>
<circle cx="3666" cy="2736" r="5" style="fill:blue"/>
<circle cx="3127" cy="896" r="5" style="fill:blue"/>
<circle cx="5722" cy="2163" r="5" style="fill:blue"/>
<circle cx="2236" cy="2255" r="5" style="fill:blue"/>
<circle cx="4379" cy="3095" r="5" style="fill:blue"/>
<circle cx="530" cy="639" r="5" style="fill:blue"/>
<circle cx="3833" cy="3041" r="5" style="fill:blue"/>
<circle cx="1874" cy="1181" r="5" style="fill:blue"/>
<circle cx="3509" cy="2204" r="5" style="fill:blue"/>
<circle cx="5362" cy="694" r="5" style="fill:blue"/>
<circle cx="4513" cy="662" r="5" style="fill:blue"/>
<circle cx="2149" cy="2035" r="5" style="fill:blue"/>
<circle cx="979" cy="2292" r="5" style="fill:blue"/>
<circle cx="302" cy="2538" r="5" style="fill:blue"/>
<circle cx="3482" cy="2440" r="5" style="fill:blue"/>
<circle cx="2884" cy="2815" r="5" style="fill:blue"/>
<circle cx="1148" cy="3522" r="5" style="fill:blue"/>
<circle cx="5423" cy="2887" r="5" style="fill:blue"/>
<circle cx="5703" cy="1187" r="5" style="fill:blue"/>
<circle cx="236" cy="1519" r="5" style="fill:blue"/>
<circle cx="5601" cy="718" r="5" style="fill:blue"/>
<circle cx="4633" cy="1943" r="5" style="fill:blue"/>
<circle cx="2472" cy="2971" r="5" style="fill:blue"/>
<circle cx="2231" cy="606" r="5" style="fill:blue"/>
<circle cx="1785" cy="2129" r="5" style="fill:blue"/>
<circle cx="3012" cy="652" r="5" style="fill:blue"/>
<circle cx="5426" cy="1850" r="5" style="fill:blue"/>
<circle cx="2497" cy="408" r="5" style="fill:blue"/>
<circle cx="121" cy="2619" r="5" style="fill:blue"/>
<circle cx="5068" cy="926" r="5" style="fill:blue"/>
<circle cx="3013" cy="571" r="5" style="fill:blue"/>
<circle cx="5620" cy="844" r="5" style="fill:blue"/>
<circle cx="1244" cy="3233" r="5" style="fill:blue"/>
<circle cx="3617" cy="4010" r="5" style="fill:blue"/>
<circle cx="2353" cy="2810" r="5" style="fill:blue"/>
<circle cx="2457" cy="3667" r="5" style="fill:blue"/>
<circle cx="2324" cy="3776" r="5" style="fill:blue"/>
<circle cx="431" cy="2815" r="5" style="fill:blue"/>
<circle cx="5158" cy="2883" r="5" style="fill:blue"/>
<circle cx="73" cy="1303" r="5" style="fill:blue"/>
<circle cx="2426" cy="3691" r="5" style="fill:blue"/>
<circle cx="4132" cy="3474" r="5" style="fill:blue"/>
<circle cx="854" cy="2337" r="5" style="fill:blue"/>
<circle cx="966" cy="305" r="5" style="fill:blue"/>
<circle cx="3485" cy="568" r="5" style="fill:blue"/>
<circle cx="5546" cy="678" r="5" style="fill:blue"/>
<circle cx="5983" cy="2355" r="5" style="fill:blue"/>
<circle cx="4935" cy="753" r="5" style="fill:blue"/>
<circle cx="5518" cy="1936" r="5" style="fill:blue"/>
<circle cx="3417" cy="3480" r="5" style="fill:blue"/>
<circle cx="4082" cy="3384" r="5" style="fill:blue"/>
<circle cx="5448" cy="391" r="5" style="fill:blue"/>
<circle cx="1498" cy="2500" r="5" style="fill:blue"/>
<circle cx="5027" cy="1422" r="5" style="fill:blue"/>
<circle cx="1934" cy="1150" r="5" style="fill:blue"/>
<circle cx="2488" cy="3466" r="5" style="fill:blue"/>
<circle cx="4243" cy="3226" r="5" style="fill:blue"/>
<circle cx="2817" cy="840" r="5" style="fill:blue"/>
<circle cx="3714" cy="2069" r="5" style="fill:blue"/>
<circle cx="5580" cy="761" r="5" style="fill:blue"/>
<circle cx="634" cy="1118" r="5" style="fill:blue"/>
<circle cx="5808" cy="199" r="5" style="fill:blue"/>
<circle cx="726" cy="3145" r="5" style="fill:blue"/>
<circle cx="2847" cy="1836" r="5" style="fill:blue"/>
<circle cx="4196" cy="1166" r="5" style="fill:blue"/>
<circle cx="3117" cy="3175" r="5" style="fill:blue"/>
<circle cx="3390" cy="2302" r="5" style="fill:blue"/>
<circle cx="288" cy="3546" r="5" style="fill:blue"/>
<circle cx="2247" cy="396" r="5" style="fill:blue"/>
<circle cx="335" cy="1968" r="5" style="fill:blue"/>
<circle cx="835" cy="218" r="5" style="fill:blue"/>
<circle cx="2576" cy="2680" r="5" style="fill:blue"/>
<circle cx="14" cy="2779" r="5" style="fill:blue"/>
<circle cx="1527" cy="1832" r="5" style="fill:blue"/>
<circle cx="3089" cy="1447" r="5" style="fill:blue"/>
<circle cx="1053" cy="35" r="5" style="fill:blue"/>
<circle cx="5357" cy="470" r="5" style="fill:blue"/>
<circle cx="3497" cy="1820" r="5" style="fill:blue"/>
<circle cx="1993" cy="1105" r="5" style="fill:blue"/>
<circle cx="5738" cy="4020" r="5" style="fill:blue"/>
<circle cx="5521" cy="1394" r="5" style="fill:blue"/>
<circle cx="2046" cy="399" r="5" style="fill:blue"/>
<circle cx="2661" cy="3356" r="5" style="fill:blue"/>
<circle cx="1820" cy="3242" r="5" style="fill:blue"/>
<circle cx="3157" cy="426" r="5" style="fill:blue"/>
<circle cx="1347" cy="3245" r="5" style="fill:blue"/>
<circle cx="823" cy="746" r="5" style="fill:blue"/>
<circle cx="3102" cy="3367" r="5" style="fill:blue"/>
<circle cx="4713" cy="2471" r="5" style="fill:blue"/>
<circle cx="1688" cy="2573" r="5" style="fill:blue"/>
<circle cx="5974" cy="1946" r="5" style="fill:blue"/>
<circle cx="5879" cy="1473" r="5" style="fill:blue"/>
<circle cx="564" cy="569" r="5" style="fill:blue"/>
<circle cx="4420" cy="3522" r="5" style="fill:blue"/>
<circle cx="968" cy="806" r="5" style="fill:blue"/>
<circle cx="3050" cy="800" r="5" style="fill:blue"/>
<circle cx="3372" cy="1633" r="5" style="fill:blue"/>
<circle cx="5192" cy="1132" r="5" style="fill:blue"/>
<circle cx="884" cy="753" r="5" style="fill:blue"/>
<circle cx="5790" cy="2066" r="5" style="fill:blue"/>
<circle cx="2349" cy="2351" r="5" style="fill:blue"/>
<circle cx="5514" cy="2051" r="5" style="fill:blue"/>
<circle cx="3658" cy="3998" r="5" style="fill:blue"/>
<circle cx="4180" cy="848" r="5" style="fill:blue"/>
<circle cx="2530" cy="679" r="5" style="fill:blue"/>
<circle cx="1929" cy="332" r="5" style="fill:blue"/>
<circle cx="595" cy="3121" r="5" style="fill:blue"/>
<circle cx="2797" cy="3227" r="5" style="fill:blue"/>
<circle cx="1326" cy="1216" r="5" style="fill:blue"/>
<circle cx="3798" cy="1334" r="5" style="fill:blue"/>
<circle cx="3403" cy="1583" r="5" style="fill:blue"/>
<circle cx="3708" cy="1776" r="5" style="fill:blue"/>
<circle cx="1005" cy="735" r="5" style="fill:blue"/>
<circle cx="2380" cy="1450" r="5" style="fill:blue"/>
<circle cx="4180" cy="3136" r="5" style="fill:blue"/>
<circle cx="4485" cy="921" r="5" style="fill:blue"/>
<circle cx="2120" cy="1110" r="5" style="fill:blue"/>
<circle cx="5174" cy="2035" r="5" style="fill:blue"/>
<circle cx="2715" cy="2948" r="5" style="fill:blue"/>
<circle cx="1356" cy="2678" r="5" style="fill:blue"/>
<circle cx="2434" cy="1691" r="5" style="fill:blue"/>
<circle cx="968" cy="3303" r="5" style="fill:blue"/>
<circle cx="170" cy="560" r="5" style="fill:blue"/>
<circle cx="702" cy="1041" r="5" style="fill:blue"/>
<circle cx="3185" cy="3599" r="5" style="fill:blue"/>
<circle cx="5911" cy="2916" r="5" style="fill:blue"/>
<circle cx="2201" cy="1622" r="5" style="fill:blue"/>
<circle cx="3624" cy="2997" r="5" style="fill:blue"/>
<circle cx="2878" cy="2533" r="5" style="fill:blue"/>
<circle cx="1208" cy="2440" r="5" style="fill:blue"/>
<circle cx="1971" cy="357" r="5" style="fill:blue"/>
<circle cx="3688" cy="897" r="5" style="fill:blue"/>
<circle cx="4634" cy="3921" r="5" style="fill:blue"/>
<circle cx="1711" cy="1603" r="5" style="fill:blue"/>
<circle cx="152" cy="2772" r="5" style="fill:blue"/>
<circle cx="5310" cy="1862" r="5" style="fill:blue"/>
<circle cx="2960" cy="2109" r="5" style="fill:blue"/>
<circle cx="6052" cy="3259" r="5" style="fill:blue"/>
<circle cx="1420" cy="3329" r="5" style="fill:blue"/>
<circle cx="4628" cy="180" r="5" style="fill:blue"/>
<circle cx="1641" cy="38" r="5" style="fill:blue"/>
<circle cx="2945" cy="1738" r="5" style="fill:blue"/>
<circle cx="3498" cy="2507" r="5" style="fill:blue"/>
<circle cx="5389" cy="2360" r="5" style="fill:blue"/>
<circle cx="15" cy="1755" r="5" style="fill:blue"/>
<circle cx="482" cy="1984" r="5" style="fill:blue"/>
<circle cx="3314" cy="3568" r="5" style="fill:blue"/>
<circle cx="3591" cy="1579" r="5" style="fill:blue"/>
<circle cx="4996" cy="2397" r="5" style="fill:blue"/>
<circle cx="1378" cy="2197" r="5" style="fill:blue"/>
<circle cx="990" cy="3096" r="5" style="fill:blue"/>
<circle cx="5734" cy="669" r="5" style="fill:blue"/>
<circle cx="3118" cy="1523" r="5" style="fill:blue"/>
<circle cx="2325" cy="163" r="5" style="fill:blue"/>
<circle cx="5976" cy="1922" r="5" style="fill:blue"/>
<circle cx="5295" cy="1141" r="5" style="fill:blue"/>
<circle cx="2302" cy="3989" r="5" style="fill:blue"/>
<circle cx="1494" cy="1211" r="5" style="fill:blue"/>
<circle cx="3944" cy="88" r="5" style="fill:blue"/>
<circle cx="4294" cy="3912" r="5" style="fill:blue"/>
<circle cx="5599" cy="2158" r="5" style="fill:blue"/>
<circle cx="5186" cy="2720" r="5" style="fill:blue"/>
<circle cx="3267" cy="2534" r="5" style="fill:blue"/>
<circle cx="5290" cy="239" r="5" style="fill:blue"/>
<circle cx="3274" cy="946" r="5" style="fill:blue"/>
<circle cx="1482" cy="453" r="5" style="fill:blue"/>
<circle cx="3783" cy="756" r="5" style="fill:blue"/>
<circle cx="5303" cy="3514" r="5" style="fill:blue"/>
<circle cx="194" cy="3567" r="5" style="fill:blue"/>
<circle cx="4305" cy="972" r="5" style="fill:blue"/>
<circle cx="394" cy="3526" r="5" style="fill:blue"/>
<circle cx="2598" cy="919" r="5" style="fill:blue"/>
<circle cx="4707" cy="1163" r="5" style="fill:blue"/>
<circle cx="167" cy="3357" r="5" style="fill:blue"/>
<circle cx="5387" cy="2197" r="5" style="fill:blue"/>
<circle cx="5231" cy="2929" r="5" style="fill:blue"/>
<circle cx="732" cy="2907" r="5" style="fill:blue"/>
<circle cx="3065" cy="2577" r="5" style="fill:blue"/>
<circle cx="2037" cy="3379" r="5" style="fill:blue"/>
<circle cx="1613" cy="3708" r="5" style="fill:blue"/>
<circle cx="1981" cy="2490" r="5" style="fill:blue"/>
<circle cx="2685" cy="1533" r="5" style="fill:blue"/>
<circle cx="3654" cy="1132" r="5" style="fill:blue"/>
<circle cx="5762" cy="2569" r="5" style="fill:blue"/>
<circle cx="1259" cy="2798" r="5" style="fill:blue"/>
<circle cx="1322" cy="1365" r="5" style="fill:blue"/>
<circle cx="264" cy="2647" r="5" style="fill:blue"/>
<circle cx="3462" cy="503" r="5" style="fill:blue"/>
<circle cx="2354" cy="1153" r="5" style="fill:blue"/>
<circle cx="4106" cy="3237" r="5" style="fill:blue"/>
<circle cx="3477" cy="3486" r="5" style="fill:blue"/>
<circle cx="1015" cy="2234" r="5" style="fill:blue"/>
<circle cx="4739" cy="1573" r="5" style="fill:blue"/>
<circle cx="5469" cy="2646" r="5" style="fill:blue"/>
<circle cx="5742" cy="2007" r="5" style="fill:blue"/>
<circle cx="6041" cy="2636" r="5" style="fill:blue"/>
<circle cx="4316" cy="1762" r="5" style="fill:blue"/>
<circle cx="287" cy="3304" r="5" style="fill:blue"/>
<circle cx="126" cy="843" r="5" style="fill:blue"/>
<circle cx="1210" cy="3726" r="5" style="fill:blue"/>
<circle cx="2356" cy="3620" r="5" style="fill:blue"/>
<circle cx="1468" cy="2667" r="5" style="fill:blue"/>
<circle cx="3963" cy="604" r="5" style="fill:blue"/>
<circle cx="5110" cy="719" r="5" style="fill:blue"/>
<circle cx="1762" cy="1355" r="5" style="fill:blue"/>
<circle cx="1693" cy="1592" r="5" style="fill:blue"/>
<circle cx="3099" cy="2895" r="5" style="fill:blue"/>
<circle cx="5716" cy="1104" r="5" style="fill:blue"/>
<circle cx="3171" cy="904" r="5" style="fill:blue"/>
<circle cx="5399" cy="2177" r="5" style="fill:blue"/>
<circle cx="502" cy="235" r="5" style="fill:blue"/>
<circle cx="2522" cy="1039" r="5" style="fill:blue"/>
<circle cx="998" cy="2220" r="5" style="fill:blue"/>
<circle cx="3640" cy="1791" r="63" style="stroke-width:5;fill:gray;fill-opacity:0.3"/>
<circle cx="5481" cy="226" r="67" style="stroke-width:5;fill:gray;fill-opacity:0.3"/>
<circle cx="3825" cy="3649" r="16" style="stroke-width:5;fill:gray;fill-opacity:0.3"/>
<circle cx="2088" cy="2528" r="80" style="stroke-width:5;fill:gray;fill-opacity:0.3"/>
<circle cx="772" cy="2483" r="9" style="stroke-width:5;fill:gray;fill-opacity:0.3"/>
<circle cx="3709" cy="1391" r="76" style="stroke-width:5;fill:gray;fill-opacity:0.3"/>
<circle cx="5458" cy="3555" r="14" style="stroke-width:5;fill:gray;fill-opacity:0.3"/>
<circle cx="2249" cy="2706" r="94" style="stroke-width:5;fill:gray;fill-opacity:0.3"/>
<circle cx="2862" cy="989" r="75" style="stroke-width:5;fill:gray;fill-opacity:0.3"/>
<circle cx="4825" cy="2250" r="16" style="stroke-width:5;fill:gray;fill-opacity:0.3"/>
<circle cx="2506" cy="3183" r="76" style="stroke-width:5;fill:gray;fill-opacity:0.3"/>
<circle cx="5908" cy="3440" r="100" style="stroke-width:5;fill:gray;fill-opacity:0.3"/>
<circle cx="3110" cy="632" r="65" style="stroke-width:5;fill:gray;fill-opacity:0.3"/>
<circle cx="5397" cy="874" r="100" style="stroke-width:5;fill:gray;fill-opacity:0.3"/>
<circle cx="843" cy="1992" r="102" style="stroke-width:5;fill:gray;fill-opacity:0.3"/>
<circle cx="4577" cy="391" r="21" style="stroke-width:5;fill:gray;fill-opacity:0.3"/>
<circle cx="2911" cy="2449" r="76" style="stroke-width:5;fill:gray;fill-opacity:0.3"/>
<circle cx="2890" cy="2594" r="36" style="stroke-width:5;fill:gray;fill-opacity:0.3"/>
<circle cx="2034" cy="1079" r="19" style="stroke-width:5;fill:gray;fill-opacity:0.3"/>
<circle cx="1809" cy="1705" r="13" style="stroke-width:5;fill:gray;fill-opacity:0.3"/>
<circle cx="1972" cy="718" r="99" style="stroke-width:5;fill:gray;fill-opacity:0.3"/>
<circle cx="4119" cy="836" r="32" style="stroke-width:5;fill:gray;fill-opacity:0.3"/>
<circle cx="5122" cy="1062" r="27" style="stroke-width:5;fill:gray;fill-opacity:0.3"/>
<circle cx="3659" cy="496" r="27" style="stroke-width:5;fill:gray;fill-opacity:0.3"/>
<circle cx="754" cy="1386" r="87" style="stroke-width:5;fill:gray;fill-opacity:0.3"/>
<circle cx="1544" cy="548" r="68" style="stroke-width:5;fill:gray;fill-opacity:0.3"/>
<circle cx="2682" cy="1276" r="102" style="stroke-width:5;fill:gray;fill-opacity:0.3"/>
<circle cx="3149" cy="3732" r="104" style="stroke-width:5;fill:gray;fill-opacity:0.3"/>
<circle cx="1168" cy="2144" r="38" style="stroke-width:5;fill:gray;fill-opacity:0.3"/>
</svg>