<svg viewBox="0 0 1300 6058" xmlns="http://www.w3.org/2000/svg">
<rect height="494" style="stroke:pink;stroke-width:10;fill:gray;fill-opacity:0.1;stroke-opacity:0.9" width="307" x="70" y="2758"/>
<circle cx="293" cy="1950" r="5" style="fill:blue"/>
<circle cx="1084" cy="1323" r="5" style="fill:blue"/>
<circle cx="767" cy="6056" r="5" style="fill:blue"/>
<circle cx="90" cy="5980" r="5" style="fill:blue"/>
<circle cx="1020" cy="3832" r="5" style="fill:blue"/>
<circle cx="85" cy="929" r="5" style="fill:blue"/>
<circle cx="605" cy="3915" r="5" style="fill:blue"/>
<circle cx="1025" cy="3266" r="5" style="fill:blue"/>
<circle cx="312" cy="1040" r="5" style="fill:blue"/>
<circle cx="424" cy="279" r="5" style="fill:blue"/>
<circle cx="647" cy="5719" r="5" style="fill:blue"/>
<circle cx="334" cy="1320" r="5" style="fill:blue"/>
<circle cx="56" cy="3257" r="5" style="fill:blue"/>
<circle cx="810" cy="2239" r="5" style="fill:blue"/>
<circle cx="310" cy="4833" r="5" style="fill:blue"/>
<circle cx="119" cy="4579" r="5" style="fill:blue"/>
<circle cx="947" cy="330" r="5" style="fill:blue"/>
<circle cx="459" cy="5852" r="5" style="fill:blue"/>
<circle cx="614" cy="342" r="5" style="fill:blue"/>
<circle cx="511" cy="2249" r="5" style="fill:blue"/>
<circle cx="476" cy="832" r="5" style="fill:blue"/>
<circle cx="546" cy="4836" r="5" style="fill:blue"/>
<circle cx="308" cy="4429" r="5" style="fill:blue"/>
<circle cx="1135" cy="350" r="5" style="fill:blue"/>
<circle cx="1264" cy="3680" r="5" style="fill:blue"/>
<circle cx="703" cy="1714" r="5" style="fill:blue"/>
<circle cx="971" cy="5846" r="5" style="fill:blue"/>
<circle cx="384" cy="2130" r="5" style="fill:blue"/>
<circle cx="845" cy="3840" r="5" style="fill:blue"/>
<circle cx="347" cy="4925" r="5" style="fill:blue"/>
<circle cx="153" cy="3337" r="5" style="fill:blue"/>
<circle cx="420" cy="4799" r="5" style="fill:blue"/>
<circle cx="966" cy="5981" r="5" style="fill:blue"/>
<circle cx="1046" cy="4857" r="5" style="fill:blue"/>
<circle cx="559" cy="4838" r="5" style="fill:blue"/>
<circle cx="1265" cy="5578" r="5" style="fill:blue"/>
<circle cx="681" cy="6049" r="5" style="fill:blue"/>
<circle cx="330" cy="1451" r="5" style="fill:blue"/>
<circle cx="351" cy="4872" r="5" style="fill:blue"/>
<circle cx="918" cy="5380" r="5" style="fill:blue"/>
<circle cx="1174" cy="2311" r="5" style="fill:blue"/>
<circle cx="164" cy="131" r="5" style="fill:blue"/>
<circle cx="171" cy="3882" r="5" style="fill:blue"/>
<circle cx="567" cy="305" r="5" style="fill:blue"/>
<circle cx="1247" cy="1099" r="5" style="fill:blue"/>
<circle cx="433" cy="2562" r="5" style="fill:blue"/>
<circle cx="1184" cy="4663" r="5" style="fill:blue"/>
<circle cx="1100" cy="2998" r="5" style="fill:blue"/>
<circle cx="809" cy="194" r="5" style="fill:blue"/>
<circle cx="1121" cy="5408" r="5" style="fill:blue"/>
<circle cx="908" cy="4699" r="5" style="fill:blue"/>
<circle cx="552" cy="4397" r="5" style="fill:blue"/>
<circle cx="898" cy="348" r="5" style="fill:blue"/>
<circle cx="55" cy="4901" r="5" style="fill:blue"/>
<circle cx="987" cy="2095" r="5" style="fill:blue"/>
<circle cx="1195" cy="5510" r="5" style="fill:blue"/>
<circle cx="923" cy="3761" r="5" style="fill:blue"/>
<circle cx="1005" cy="5375" r="5" style="fill:blue"/>
<circle cx="493" cy="5429" r="5" style="fill:blue"/>
<circle cx="353" cy="596" r="5" style="fill:blue"/>
<circle cx="1286" cy="5267" r="5" style="fill:blue"/>
<circle cx="758" cy="4997" r="5" style="fill:blue"/>
<circle cx="622" cy="1531" r="5" style="fill:blue"/>
<circle cx="407" cy="1205" r="5" style="fill:blue"/>
<circle cx="1184" cy="1316" r="5" style="fill:blue"/>
<circle cx="920" cy="5107" r="5" style="fill:blue"/>
<circle cx="519" cy="4272" r="5" style="fill:blue"/>
<circle cx="1173" cy="1854" r="5" style="fill:blue"/>
<circle cx="580" cy="5595" r="5" style="fill:blue"/>
<circle cx="1061" cy="2033" r="5" style="fill:blue"/>
<circle cx="183" cy="1985" r="5" style="fill:blue"/>
<circle cx="888" cy="3304" r="5" style="fill:blue"/>
<circle cx="191" cy="1121" r="5" style="fill:blue"/>
<circle cx="955" cy="1675" r="5" style="fill:blue"/>
<circle cx="1100" cy="5046" r="5" style="fill:blue"/>
<circle cx="1074" cy="251" r="5" style="fill:blue"/>
<circle cx="1253" cy="3545" r="5" style="fill:blue"/>
<circle cx="685" cy="1833" r="5" style="fill:blue"/>
<circle cx="558" cy="2067" r="5" style="fill:blue"/>
<circle cx="764" cy="5841" r="5" style="fill:blue"/>
<circle cx="1221" cy="3409" r="5" style="fill:blue"/>
<circle cx="331" cy="5736" r="5" style="fill:blue"/>
<circle cx="541" cy="4563" r="5" style="fill:blue"/>
<circle cx="213" cy="787" r="5" style="fill:blue"/>
<circle cx="1013" cy="3422" r="5" style="fill:blue"/>
<circle cx="1252" cy="1284" r="5" style="fill:blue"/>
<circle cx="568" cy="3863" r="5" style="fill:blue"/>
<circle cx="141" cy="2483" r="5" style="fill:blue"/>
<circle cx="236" cy="4796" r="5" style="fill:blue"/>
<circle cx="837" cy="341" r="5" style="fill:blue"/>
<circle cx="522" cy="3467" r="5" style="fill:blue"/>
<circle cx="609" cy="713" r="5" style="fill:blue"/>
<circle cx="744" cy="1883" r="5" style="fill:blue"/>
<circle cx="897" cy="1318" r="5" style="fill:blue"/>
<circle cx="714" cy="1797" r="5" style="fill:blue"/>
<circle cx="228" cy="1218" r="5" style="fill:blue"/>
<circle cx="317" cy="2151" r="5" style="fill:blue"/>
<circle cx="1048" cy="42" r="5" style="fill:blue"/>
<circle cx="1255" cy="1886" r="5" style="fill:blue"/>
<circle cx="37" cy="1724" r="5" style="fill:blue"/>
<circle cx="997" cy="2387" r="5" style="fill:blue"/>
<circle cx="594" cy="4293" r="5" style="fill:blue"/>
<circle cx="470" cy="3717" r="5" style="fill:blue"/>
<circle cx="249" cy="3448" r="5" style="fill:blue"/>
<circle cx="1044" cy="2752" r="5" style="fill:blue"/>
<circle cx="626" cy="5394" r="5" style="fill:blue"/>
<circle cx="1153" cy="1104" r="5" style="fill:blue"/>
<circle cx="561" cy="5723" r="5" style="fill:blue"/>
<circle cx="576" cy="2196" r="5" style="fill:blue"/>
<circle cx="984" cy="3980" r="5" style="fill:blue"/>
<circle cx="277" cy="1730" r="5" style="fill:blue"/>
<circle cx="1052" cy="401" r="5" style="fill:blue"/>
<circle cx="1195" cy="1387" r="5" style="fill:blue"/>
<circle cx="548" cy="740" r="5" style="fill:blue"/>
<circle cx="619" cy="2089" r="5" style="fill:blue"/>
<circle cx="4" cy="324" r="5" style="fill:blue"/>
<circle cx="502" cy="1150" r="5" style="fill:blue"/>
<circle cx="489" cy="3797" r="5" style="fill:blue"/>
<circle cx="656" cy="431" r="5" style="fill:blue"/>
<circle cx="979" cy="1965" r="5" style="fill:blue"/>
<circle cx="26" cy="3095" r="5" style="fill:blue"/>
<circle cx="480" cy="3555" r="5" style="fill:blue"/>
<circle cx="192" cy="5307" r="5" style="fill:blue"/>
<circle cx="188" cy="580" r="5" style="fill:blue"/>
<circle cx="592" cy="259" r="5" style="fill:blue"/>
<circle cx="586" cy="4685" r="5" style="fill:blue"/>
<circle cx="385" cy="3636" r="5" style="fill:blue"/>
<circle cx="1027" cy="282" r="5" style="fill:blue"/>
<circle cx="784" cy="340" r="5" style="fill:blue"/>
<circle cx="134" cy="357" r="5" style="fill:blue"/>
<circle cx="613" cy="5930" r="5" style="fill:blue"/>
<circle cx="656" cy="1861" r="5" style="fill:blue"/>
<circle cx="479" cy="325" r="5" style="fill:blue"/>
<circle cx="317" cy="386" r="5" style="fill:blue"/>
<circle cx="326" cy="5715" r="5" style="fill:blue"/>
<circle cx="1177" cy="89" r="5" style="fill:blue"/>
<circle cx="865" cy="4590" r="5" style="fill:blue"/>
<circle cx="676" cy="1174" r="5" style="fill:blue"/>
<circle cx="329" cy="1523" r="5" style="fill:blue"/>
<circle cx="846" cy="3789" r="5" style="fill:blue"/>
<circle cx="790" cy="1" r="5" style="fill:blue"/>
<circle cx="943" cy="3627" r="5" style="fill:blue"/>
<circle cx="393" cy="4563" r="5" style="fill:blue"/>
<circle cx="196" cy="3269" r="5" style="fill:blue"/>
<circle cx="942" cy="4598" r="5" style="fill:blue"/>
<circle cx="581" cy="2859" r="5" style="fill:blue"/>
<circle cx="282" cy="4356" r="5" style="fill:blue"/>
<circle cx="78" cy="3698" r="5" style="fill:blue"/>
<circle cx="1006" cy="1851" r="5" style="fill:blue"/>
<circle cx="395" cy="3491" r="5" style="fill:blue"/>
<circle cx="209" cy="929" r="5" style="fill:blue"/>
<circle cx="121" cy="3763" r="5" style="fill:blue"/>
<circle cx="446" cy="1856" r="5" style="fill:blue"/>
<circle cx="61" cy="4791" r="5" style="fill:blue"/>
<circle cx="1195" cy="4764" r="5" style="fill:blue"/>
<circle cx="1074" cy="5168" r="5" style="fill:blue"/>
<circle cx="886" cy="4176" r="5" style="fill:blue"/>
<circle cx="12" cy="3142" r="5" style="fill:blue"/>
<circle cx="685" cy="943" r="5" style="fill:blue"/>
<circle cx="197" cy="1923" r="5" style="fill:blue"/>
<circle cx="642" cy="1999" r="5" style="fill:blue"/>
<circle cx="332" cy="3328" r="5" style="fill:blue"/>
<circle cx="767" cy="182" r="5" style="fill:blue"/>
<circle cx="769" cy="5849" r="5" style="fill:blue"/>
<circle cx="518" cy="4660" r="5" style="fill:blue"/>
<circle cx="190" cy="2516" r="5" style="fill:blue"/>
<circle cx="61" cy="2419" r="5" style="fill:blue"/>
<circle cx="95" cy="6038" r="5" style="fill:blue"/>
<circle cx="348" cy="2011" r="5" style="fill:blue"/>
<circle cx="995" cy="5297" r="5" style="fill:blue"/>
<circle cx="815" cy="2977" r="5" style="fill:blue"/>
<circle cx="611" cy="2960" r="5" style="fill:blue"/>
<circle cx="1249" cy="4746" r="5" style="fill:blue"/>
<circle cx="36" cy="5089" r="5" style="fill:blue"/>
<circle cx="1149" cy="1456" r="5" style="fill:blue"/>
<circle cx="1121" cy="2021" r="5" style="fill:blue"/>
<circle cx="955" cy="1200" r="5" style="fill:blue"/>
<circle cx="718" cy="1128" r="5" style="fill:blue"/>
<circle cx="657" cy="1514" r="5" style="fill:blue"/>
<circle cx="1146" cy="1193" r="5" style="fill:blue"/>
<circle cx="1109" cy="3580" r="5" style="fill:blue"/>
<circle cx="152" cy="264" r="5" style="fill:blue"/>
<circle cx="846" cy="2853" r="5" style="fill:blue"/>
<circle cx="327" cy="3790" r="5" style="fill:blue"/>
<circle cx="299" cy="2737" r="5" style="fill:blue"/>
<circle cx="967" cy="4014" r="5" style="fill:blue"/>
<circle cx="55" cy="3720" r="5" style="fill:blue"/>
<circle cx="396" cy="4361" r="5" style="fill:blue"/>
<circle cx="762" cy="3185" r="5" style="fill:blue"/>
<circle cx="38" cy="5782" r="5" style="fill:blue"/>
<circle cx="455" cy="3821" r="5" style="fill:blue"/>
<circle cx="1245" cy="4318" r="5" style="fill:blue"/>
<circle cx="844" cy="2735" r="5" style="fill:blue"/>
<circle cx="1158" cy="122" r="5" style="fill:blue"/>
<circle cx="79" cy="5135" r="5" style="fill:blue"/>
<circle cx="457" cy="684" r="5" style="fill:blue"/>
<circle cx="956" cy="843" r="5" style="fill:blue"/>
<circle cx="960" cy="958" r="5" style="fill:blue"/>
<circle cx="980" cy="308" r="5" style="fill:blue"/>
<circle cx="322" cy="730" r="5" style="fill:blue"/>
<circle cx="930" cy="3419" r="5" style="fill:blue"/>
<circle cx="496" cy="4230" r="5" style="fill:blue"/>
<circle cx="1278" cy="1637" r="5" style="fill:blue"/>
<circle cx="1297" cy="3189" r="5" style="fill:blue"/>
<circle cx="526" cy="4426" r="5" style="fill:blue"/>
<circle cx="659" cy="2818" r="5" style="fill:blue"/>
<circle cx="982" cy="2570" r="5" style="fill:blue"/>
<circle cx="392" cy="2641" r="5" style="fill:blue"/>
<circle cx="345" cy="4831" r="5" style="fill:blue"/>
<circle cx="343" cy="3325" r="5" style="fill:blue"/>
<circle cx="1039" cy="1040" r="5" style="fill:blue"/>
<circle cx="316" cy="3277" r="5" style="fill:blue"/>
<circle cx="225" cy="3359" r="5" style="fill:blue"/>
<circle cx="1266" cy="945" r="5" style="fill:blue"/>
<circle cx="272" cy="4650" r="5" style="fill:blue"/>
<circle cx="809" cy="3936" r="5" style="fill:blue"/>
<circle cx="769" cy="2521" r="5" style="fill:blue"/>
<circle cx="1065" cy="5755" r="5" style="fill:blue"/>
<circle cx="1086" cy="128" r="5" style="fill:blue"/>
<circle cx="755" cy="3307" r="5" style="fill:blue"/>
<circle cx="436" cy="568" r="5" style="fill:blue"/>
<circle cx="1069" cy="4760" r="5" style="fill:blue"/>
<circle cx="809" cy="2394" r="5" style="fill:blue"/>
<circle cx="281" cy="2597" r="5" style="fill:blue"/>
<circle cx="589" cy="179" r="5" style="fill:blue"/>
<circle cx="335" cy="371" r="5" style="fill:blue"/>
<circle cx="818" cy="997" r="5" style="fill:blue"/>
<circle cx="310" cy="1460" r="5" style="fill:blue"/>
<circle cx="943" cy="5820" r="5" style="fill:blue"/>
<circle cx="45" cy="5594" r="5" style="fill:blue"/>
<circle cx="1299" cy="1760" r="5" style="fill:blue"/>
<circle cx="286" cy="2393" r="5" style="fill:blue"/>
<circle cx="1233" cy="2194" r="5" style="fill:blue"/>
<circle cx="77" cy="2124" r="5" style="fill:blue"/>
<circle cx="974" cy="2022" r="5" style="fill:blue"/>
<circle cx="1245" cy="527" r="5" style="fill:blue"/>
<circle cx="920" cy="2145" r="5" style="fill:blue"/>
<circle cx="525" cy="1018" r="5" style="fill:blue"/>
<circle cx="825" cy="1976" r="5" style="fill:blue"/>
<circle cx="1283" cy="5136" r="5" style="fill:blue"/>
<circle cx="76" cy="1101" r="5" style="fill:blue"/>
<circle cx="778" cy="3691" r="5" style="fill:blue"/>
<circle cx="562" cy="4649" r="5" style="fill:blue"/>
<circle cx="775" cy="5711" r="5" style="fill:blue"/>
<circle cx="601" cy="639" r="5" style="fill:blue"/>
<circle cx="1131" cy="2901" r="5" style="fill:blue"/>
<circle cx="889" cy="3685" r="5" style="fill:blue"/>
<circle cx="902" cy="1122" r="5" style="fill:blue"/>
<circle cx="1080" cy="109" r="5" style="fill:blue"/>
<circle cx="1101" cy="3270" r="5" style="fill:blue"/>
<circle cx="1082" cy="4246" r="5" style="fill:blue"/>
<circle cx="20" cy="4590" r="5" style="fill:blue"/>
<circle cx="145" cy="4023" r="5" style="fill:blue"/>
<circle cx="350" cy="4155" r="5" style="fill:blue"/>
<circle cx="1077" cy="1912" r="5" style="fill:blue"/>
<circle cx="1058" cy="5313" r="5" style="fill:blue"/>
<circle cx="491" cy="543" r="5" style="fill:blue"/>
<circle cx="1247" cy="5732" r="5" style="fill:blue"/>
<circle cx="432" cy="2203" r="5" style="fill:blue"/>
<circle cx="236" cy="4914" r="5" style="fill:blue"/>
<circle cx="1289" cy="4039" r="5" style="fill:blue"/>
<circle cx="207" cy="2418" r="5" style="fill:blue"/>
<circle cx="420" cy="5280" r="5" style="fill:blue"/>
<circle cx="432" cy="5234" r="5" style="fill:blue"/>
<circle cx="487" cy="6049" r="5" style="fill:blue"/>
<circle cx="656" cy="3204" r="5" style="fill:blue"/>
<circle cx="117" cy="4303" r="5" style="fill:blue"/>
<circle cx="476" cy="637" r="5" style="fill:blue"/>
<circle cx="180" cy="5959" r="5" style="fill:blue"/>
<circle cx="13" cy="3416" r="5" style="fill:blue"/>
<circle cx="660" cy="2813" r="5" style="fill:blue"/>
<circle cx="688" cy="1440" r="5" style="fill:blue"/>
<circle cx="985" cy="652" r="5" style="fill:blue"/>
<circle cx="1051" cy="837" r="5" style="fill:blue"/>
<circle cx="194" cy="400" r="5" style="fill:blue"/>
<circle cx="602" cy="1377" r="5" style="fill:blue"/>
<circle cx="633" cy="813" r="5" style="fill:blue"/>
<circle cx="318" cy="4254" r="5" style="fill:blue"/>
<circle cx="803" cy="939" r="5" style="fill:blue"/>
<circle cx="763" cy="2139" r="5" style="fill:blue"/>
<circle cx="109" cy="3924" r="5" style="fill:blue"/>
<circle cx="799" cy="2922" r="5" style="fill:blue"/>
<circle cx="187" cy="3310" r="5" style="fill:blue"/>
<circle cx="678" cy="1715" r="5" style="fill:blue"/>
<circle cx="215" cy="4694" r="5" style="fill:blue"/>
<circle cx="932" cy="480" r="5" style="fill:blue"/>
<circle cx="446" cy="1355" r="5" style="fill:blue"/>
<circle cx="1042" cy="420" r="5" style="fill:blue"/>
<circle cx="566" cy="2382" r="5" style="fill:blue"/>
<circle cx="1116" cy="3404" r="5" style="fill:blue"/>
<circle cx="721" cy="4876" r="5" style="fill:blue"/>
<circle cx="1283" cy="2855" r="5" style="fill:blue"/>
<circle cx="1028" cy="55" r="5" style="fill:blue"/>
<circle cx="286" cy="235" r="5" style="fill:blue"/>
<circle cx="973" cy="4023" r="5" style="fill:blue"/>
<circle cx="1154" cy="3654" r="5" style="fill:blue"/>
<circle cx="860" cy="97" r="5" style="fill:blue"/>
<circle cx="26" cy="220" r="5" style="fill:blue"/>
<circle cx="630" cy="728" r="5" style="fill:blue"/>
<circle cx="567" cy="3241" r="5" style="fill:blue"/>
<circle cx="43" cy="4259" r="5" style="fill:blue"/>
<circle cx="634" cy="1274" r="5" style="fill:blue"/>
<circle cx="1223" cy="5076" r="5" style="fill:blue"/>
<circle cx="79" cy="2534" r="5" style="fill:blue"/>
<circle cx="591" cy="4358" r="5" style="fill:blue"/>
<circle cx="621" cy="4538" r="5" style="fill:blue"/>
<circle cx="810" cy="5311" r="5" style="fill:blue"/>
<circle cx="272" cy="919" r="5" style="fill:blue"/>
<circle cx="993" cy="4745" r="5" style="fill:blue"/>
<circle cx="223" cy="819" r="5" style="fill:blue"/>
<circle cx="0" cy="2793" r="5" style="fill:blue"/>
<circle cx="386" cy="3794" r="5" style="fill:blue"/>
<circle cx="479" cy="58" r="5" style="fill:blue"/>
<circle cx="671" cy="3818" r="5" style="fill:blue"/>
<circle cx="1052" cy="1428" r="5" style="fill:blue"/>
<circle cx="164" cy="5362" r="5" style="fill:blue"/>
<circle cx="723" cy="2876" r="5" style="fill:blue"/>
<circle cx="459" cy="1362" r="5" style="fill:blue"/>
<circle cx="377" cy="1656" r="5" style="fill:blue"/>
<circle cx="929" cy="3714" r="5" style="fill:blue"/>
<circle cx="614" cy="2639" r="5" style="fill:blue"/>
<circle cx="294" cy="1956" r="5" style="fill:blue"/>
<circle cx="370" cy="375" r="5" style="fill:blue"/>
<circle cx="1161" cy="3027" r="5" style="fill:blue"/>
<circle cx="835" cy="84" r="5" style="fill:blue"/>
<circle cx="1296" cy="1667" r="5" style="fill:blue"/>
<circle cx="219" cy="354" r="5" style="fill:blue"/>
<circle cx="718" cy="760" r="5" style="fill:blue"/>
<circle cx="368" cy="3573" r="5" style="fill:blue"/>
<circle cx="953" cy="181" r="5" style="fill:blue"/>
<circle cx="1279" cy="1421" r="5" style="fill:blue"/>
<circle cx="468" cy="1278" r="5" style="fill:blue"/>
<circle cx="880" cy="1869" r="5" style="fill:blue"/>
<circle cx="1033" cy="778" r="5" style="fill:blue"/>
<circle cx="1041" cy="5033" r="5" style="fill:blue"/>
<circle cx="932" cy="5770" r="5" style="fill:blue"/>
<circle cx="382" cy="2483" r="5" style="fill:blue"/>
<circle cx="895" cy="468" r="5" style="fill:blue"/>
<circle cx="81" cy="2741" r="5" style="fill:blue"/>
<circle cx="856" cy="3764" r="5" style="fill:blue"/>
<circle cx="613" cy="2037" r="5" style="fill:blue"/>
<circle cx="1067" cy="5119" r="5" style="fill:blue"/>
<circle cx="197" cy="1302" r="5" style="fill:blue"/>
<circle cx="680" cy="2368" r="5" style="fill:blue"/>
<circle cx="591" cy="2668" r="5" style="fill:blue"/>
<circle cx="233" cy="1949" r="5" style="fill:blue"/>
<circle cx="1083" cy="3651" r="5" style="fill:blue"/>
<circle cx="244" cy="4649" r="5" style="fill:blue"/>
<circle cx="372" cy="3342" r="5" style="fill:blue"/>
<circle cx="351" cy="5678" r="5" style="fill:blue"/>
<circle cx="1133" cy="5361" r="5" style="fill:blue"/>
<circle cx="1170" cy="2129" r="5" style="fill:blue"/>
<circle cx="349" cy="1822" r="5" style="fill:blue"/>
<circle cx="518" cy="1944" r="5" style="fill:blue"/>
<circle cx="786" cy="2336" r="5" style="fill:blue"/>
<circle cx="542" cy="3972" r="5" style="fill:blue"/>
<circle cx="588" cy="5955" r="5" style="fill:blue"/>
<circle cx="416" cy="4012" r="5" style="fill:blue"/>
<circle cx="257" cy="4511" r="5" style="fill:blue"/>
<circle cx="818" cy="1337" r="5" style="fill:blue"/>
<circle cx="384" cy="3925" r="5" style="fill:blue"/>
<circle cx="1224" cy="5572" r="5" style="fill:blue"/>
<circle cx="111" cy="4583" r="5" style="fill:blue"/>
<circle cx="146" cy="1389" r="5" style="fill:blue"/>
<circle cx="1195" cy="2524" r="5" style="fill:blue"/>
<circle cx="393" cy="4964" r="5" style="fill:blue"/>
<circle cx="1048" cy="3579" r="5" style="fill:blue"/>
<circle cx="1061" cy="3446" r="5" style="fill:blue"/>
<circle cx="930" cy="5796" r="5" style="fill:blue"/>
<circle cx="100" cy="4934" r="5" style="fill:blue"/>
<circle cx="1259" cy="2923" r="5" style="fill:blue"/>
<circle cx="699" cy="5193" r="5" style="fill:blue"/>
<circle cx="555" cy="3408" r="5" style="fill:blue"/>
<circle cx="664" cy="5606" r="5" style="fill:blue"/>
<circle cx="845" cy="4026" r="5" style="fill:blue"/>
<circle cx="1046" cy="3305" r="5" style="fill:blue"/>
<circle cx="896" cy="2488" r="5" style="fill:blue"/>
<circle cx="59" cy="5565" r="5" style="fill:blue"/>
<circle cx="357" cy="5725" r="5" style="fill:blue"/>
<circle cx="1255" cy="4707" r="5" style="fill:blue"/>
<circle cx="412" cy="2403" r="5" style="fill:blue"/>
<circle cx="1130" cy="116" r="5" style="fill:blue"/>
<circle cx="988" cy="1748" r="5" style="fill:blue"/>
<circle cx="685" cy="1659" r="5" style="fill:blue"/>
<circle cx="1127" cy="2493" r="5" style="fill:blue"/>
<circle cx="814" cy="1181" r="5" style="fill:blue"/>
<circle cx="965" cy="3" r="5" style="fill:blue"/>
<circle cx="653" cy="5733" r="5" style="fill:blue"/>
<circle cx="669" cy="370" r="5" style="fill:blue"/>
<circle cx="1076" cy="124" r="5" style="fill:blue"/>
<circle cx="479" cy="5399" r="5" style="fill:blue"/>
<circle cx="379" cy="3832" r="5" style="fill:blue"/>
<circle cx="387" cy="3015" r="5" style="fill:blue"/>
<circle cx="775" cy="2368" r="5" style="fill:blue"/>
<circle cx="665" cy="3342" r="5" style="fill:blue"/>
<circle cx="312" cy="3953" r="5" style="fill:blue"/>
<circle cx="1213" cy="3753" r="5" style="fill:blue"/>
<circle cx="327" cy="3764" r="5" style="fill:blue"/>
<circle cx="855" cy="2331" r="5" style="fill:blue"/>
<circle cx="366" cy="3263" r="5" style="fill:blue"/>
<circle cx="354" cy="1293" r="5" style="fill:blue"/>
<circle cx="842" cy="5554" r="5" style="fill:blue"/>
<circle cx="983" cy="1065" r="5" style="fill:blue"/>
<circle cx="535" cy="1669" r="5" style="fill:blue"/>
<circle cx="1287" cy="1194" r="5" style="fill:blue"/>
<circle cx="87" cy="5445" r="5" style="fill:blue"/>
<circle cx="905" cy="2333" r="5" style="fill:blue"/>
<circle cx="98" cy="4361" r="5" style="fill:blue"/>
<circle cx="375" cy="4005" r="5" style="fill:blue"/>
<circle cx="713" cy="794" r="5" style="fill:blue"/>
<circle cx="321" cy="5634" r="5" style="fill:blue"/>
<circle cx="1245" cy="5858" r="5" style="fill:blue"/>
<circle cx="1118" cy="71" r="5" style="fill:blue"/>
<circle cx="482" cy="3097" r="5" style="fill:blue"/>
<circle cx="255" cy="110" r="5" style="fill:blue"/>
<circle cx="680" cy="5366" r="5" style="fill:blue"/>
<circle cx="1191" cy="2074" r="5" style="fill:blue"/>
<circle cx="1139" cy="1165" r="5" style="fill:blue"/>
<circle cx="54" cy="4507" r="5" style="fill:blue"/>
<circle cx="168" cy="1380" r="5" style="fill:blue"/>
<circle cx="932" cy="631" r="5" style="fill:blue"/>
<circle cx="691" cy="1797" r="5" style="fill:blue"/>
<circle cx="1279" cy="1471" r="5" style="fill:blue"/>
<circle cx="1221" cy="2249" r="5" style="fill:blue"/>
<circle cx="246" cy="5442" r="5" style="fill:blue"/>
<circle cx="462" cy="552" r="5" style="fill:blue"/>
<circle cx="875" cy="5523" r="5" style="fill:blue"/>
<circle cx="724" cy="4627" r="5" style="fill:blue"/>
<circle cx="280" cy="569" r="5" style="fill:blue"/>
<circle cx="197" cy="4838" r="5" style="fill:blue"/>
<circle cx="703" cy="2638" r="5" style="fill:blue"/>
<circle cx="948" cy="5142" r="5" style="fill:blue"/>
<circle cx="1093" cy="3175" r="5" style="fill:blue"/>
<circle cx="249" cy="4335" r="5" style="fill:blue"/>
<circle cx="864" cy="4877" r="5" style="fill:blue"/>
<circle cx="265" cy="343" r="5" style="fill:blue"/>
<circle cx="712" cy="1784" r="5" style="fill:blue"/>
<circle cx="33" cy="5563" r="5" style="fill:blue"/>
<circle cx="559" cy="4378" r="5" style="fill:blue"/>
<circle cx="1071" cy="2916" r="5" style="fill:blue"/>
<circle cx="122" cy="2744" r="5" style="fill:blue"/>
<circle cx="259" cy="5145" r="5" style="fill:blue"/>
<circle cx="238" cy="1087" r="5" style="fill:blue"/>
<circle cx="488" cy="5180" r="5" style="fill:blue"/>
<circle cx="517" cy="572" r="5" style="fill:blue"/>
<circle cx="114" cy="5033" r="5" style="fill:blue"/>
<circle cx="52" cy="1961" r="5" style="fill:blue"/>
<circle cx="557" cy="4152" r="5" style="fill:blue"/>
<circle cx="238" cy="320" r="5" style="fill:blue"/>
<circle cx="149" cy="4295" r="5" style="fill:blue"/>
<circle cx="979" cy="1654" r="5" style="fill:blue"/>
<circle cx="1044" cy="3846" r="5" style="fill:blue"/>
<circle cx="1035" cy="3876" r="5" style="fill:blue"/>
<circle cx="381" cy="2863" r="5" style="fill:blue"/>
<circle cx="903" cy="5805" r="5" style="fill:blue"/>
<circle cx="406" cy="24" r="5" style="fill:blue"/>
<circle cx="126" cy="2357" r="5" style="fill:blue"/>
<circle cx="1028" cy="3064" r="5" style="fill:blue"/>
<circle cx="1295" cy="1864" r="5" style="fill:blue"/>
<circle cx="447" cy="315" r="5" style="fill:blue"/>
<circle cx="109" cy="1536" r="5" style="fill:blue"/>
<circle cx="1038" cy="4669" r="5" style="fill:blue"/>
<circle cx="1259" cy="3573" r="5" style="fill:blue"/>
<circle cx="378" cy="1481" r="5" style="fill:blue"/>
<circle cx="215" cy="5091" r="5" style="fill:blue"/>
<circle cx="327" cy="2502" r="5" style="fill:blue"/>
<circle cx="870" cy="2206" r="5" style="fill:blue"/>
<circle cx="317" cy="1441" r="5" style="fill:blue"/>
<circle cx="999" cy="714" r="5" style="fill:blue"/>
<circle cx="257" cy="679" r="5" style="fill:blue"/>
<circle cx="554" cy="3141" r="5" style="fill:blue"/>
<circle cx="1213" cy="5338" r="5" style="fill:blue"/>
<circle cx="473" cy="3199" r="5" style="fill:blue"/>
<circle cx="538" cy="3249" r="5" style="fill:blue"/>
<circle cx="517" cy="1463" r="5" style="fill:blue"/>
<circle cx="443" cy="838" r="5" style="fill:blue"/>
<circle cx="842" cy="2920" r="5" style="fill:blue"/>
<circle cx="774" cy="2173" r="5" style="fill:blue"/>
<circle cx="931" cy="4402" r="5" style="fill:blue"/>
<circle cx="187" cy="4865" r="5" style="fill:blue"/>
<circle cx="98" cy="4260" r="5" style="fill:blue"/>
<circle cx="73" cy="14" r="5" style="fill:blue"/>
<circle cx="927" cy="5340" r="5" style="fill:blue"/>
<circle cx="972" cy="5321" r="5" style="fill:blue"/>
<circle cx="986" cy="1699" r="5" style="fill:blue"/>
<circle cx="683" cy="3081" r="5" style="fill:blue"/>
<circle cx="43" cy="3541" r="5" style="fill:blue"/>
<circle cx="1076" cy="5699" r="5" style="fill:blue"/>
<circle cx="1247" cy="3207" r="5" style="fill:blue"/>
<circle cx="355" cy="768" r="5" style="fill:blue"/>
<circle cx="423" cy="5406" r="5" style="fill:blue"/>
<circle cx="199" cy="3485" r="5" style="fill:blue"/>
<circle cx="349" cy="2159" r="5" style="fill:blue"/>
<circle cx="984" cy="3169" r="5" style="fill:blue"/>
<circle cx="489" cy="1700" r="5" style="fill:blue"/>
<circle cx="1259" cy="3877" r="5" style="fill:blue"/>
<circle cx="735" cy="524" r="5" style="fill:blue"/>
<circle cx="152" cy="4037" r="5" style="fill:blue"/>
<circle cx="1067" cy="2784" r="5" style="fill:blue"/>
<circle cx="441" cy="4521" r="5" style="fill:blue"/>
<circle cx="1166" cy="3520" r="5" style="fill:blue"/>
<circle cx="139" cy="1399" r="5" style="fill:blue"/>
<circle cx="340" cy="843" r="5" style="fill:blue"/>
<circle cx="254" cy="3657" r="5" style="fill:blue"/>
<circle cx="195" cy="496" r="5" style="fill:blue"/>
<circle cx="1052" cy="4687" r="5" style="fill:blue"/>
<circle cx="1173" cy="3071" r="5" style="fill:blue"/>
<circle cx="122" cy="797" r="5" style="fill:blue"/>
<circle cx="434" cy="4076" r="5" style="fill:blue"/>
<circle cx="58" cy="5346" r="5" style="fill:blue"/>
<circle cx="465" cy="2655" r="5" style="fill:blue"/>
<circle cx="961" cy="2623" r="5" style="fill:blue"/>
<circle cx="484" cy="1372" r="5" style="fill:blue"/>
<circle cx="115" cy="2542" r="5" style="fill:blue"/>
<circle cx="341" cy="5592" r="5" style="fill:blue"/>
<circle cx="997" cy="448" r="5" style="fill:blue"/>
<circle cx="766" cy="3273" r="5" style="fill:blue"/>
<circle cx="1186" cy="4081" r="5" style="fill:blue"/>
<circle cx="719" cy="3473" r="5" style="fill:blue"/>
<circle cx="250" cy="1239" r="5" style="fill:blue"/>
<circle cx="605" cy="4148" r="5" style="fill:blue"/>
<circle cx="456" cy="224" r="5" style="fill:blue"/>
<circle cx="825" cy="294" r="5" style="fill:blue"/>
<circle cx="1155" cy="5113" r="5" style="fill:blue"/>
<circle cx="775" cy="3593" r="5" style="fill:blue"/>
<circle cx="361" cy="2750" r="5" style="fill:blue"/>
<circle cx="227" cy="5380" r="5" style="fill:blue"/>
<circle cx="587" cy="1537" r="5" style="fill:blue"/>
<circle cx="887" cy="4049" r="5" style="fill:blue"/>
<circle cx="242" cy="1777" r="5" style="fill:blue"/>
<circle cx="1231" cy="2102" r="5" style="fill:blue"/>
<circle cx="344" cy="1379" r="5" style="fill:blue"/>
<circle cx="511" cy="3050" r="5" style="fill:blue"/>
<circle cx="203" cy="4814" r="5" style="fill:blue"/>
<circle cx="583" cy="4009" r="5" style="fill:blue"/>
<circle cx="1050" cy="1896" r="5" style="fill:blue"/>
<circle cx="151" cy="5332" r="5" style="fill:blue"/>
<circle cx="1057" cy="154" r="5" style="fill:blue"/>
<circle cx="783" cy="1840" r="5" style="fill:blue"/>
<circle cx="474" cy="301" r="5" style="fill:blue"/>
<circle cx="80" cy="4466" r="5" style="fill:blue"/>
<circle cx="873" cy="4869" r="5" style="fill:blue"/>
<circle cx="64" cy="1160" r="5" style="fill:blue"/>
<circle cx="909" cy="3917" r="5" style="fill:blue"/>
<circle cx="1058" cy="4623" r="5" style="fill:blue"/>
<circle cx="1045" cy="3727" r="5" style="fill:blue"/>
<circle cx="1205" cy="3772" r="5" style="fill:blue"/>
<circle cx="231" cy="586" r="5" style="fill:blue"/>
<circle cx="532" cy="4896" r="5" style="fill:blue"/>
<circle cx="1186" cy="4955" r="5" style="fill:blue"/>
<circle cx="617" cy="2743" r="5" style="fill:blue"/>
<circle cx="630" cy="3945" r="5" style="fill:blue"/>
<circle cx="129" cy="49" r="5" style="fill:blue"/>
<circle cx="590" cy="3444" r="5" style="fill:blue"/>
<circle cx="237" cy="2331" r="5" style="fill:blue"/>
<circle cx="1273" cy="3336" r="5" style="fill:blue"/>
<circle cx="877" cy="921" r="5" style="fill:blue"/>
<circle cx="1123" cy="3989" r="5" style="fill:blue"/>
<circle cx="1105" cy="4168" r="5" style="fill:blue"/>
<circle cx="1094" cy="1558" r="5" style="fill:blue"/>
<circle cx="207" cy="2344" r="5" style="fill:blue"/>
<circle cx="214" cy="3732" r="5" style="fill:blue"/>
<circle cx="187" cy="3365" r="5" style="fill:blue"/>
<circle cx="588" cy="4019" r="5" style="fill:blue"/>
<circle cx="1123" cy="5901" r="5" style="fill:blue"/>
<circle cx="126" cy="1884" r="5" style="fill:blue"/>
<circle cx="1121" cy="2873" r="5" style="fill:blue"/>
<circle cx="1213" cy="366" r="5" style="fill:blue"/>
<circle cx="1097" cy="4957" r="5" style="fill:blue"/>
<circle cx="1013" cy="5069" r="5" style="fill:blue"/>
<circle cx="741" cy="1222" r="5" style="fill:blue"/>
<circle cx="812" cy="2235" r="5" style="fill:blue"/>
<circle cx="1202" cy="392" r="5" style="fill:blue"/>
<circle cx="912" cy="255" r="5" style="fill:blue"/>
<circle cx="1041" cy="2206" r="5" style="fill:blue"/>
<circle cx="459" cy="2030" r="5" style="fill:blue"/>
<circle cx="1177" cy="1998" r="5" style="fill:blue"/>
<circle cx="855" cy="618" r="5" style="fill:blue"/>
<circle cx="1242" cy="5765" r="5" style="fill:blue"/>
<circle cx="670" cy="2859" r="5" style="fill:blue"/>
<circle cx="55" cy="2327" r="5" style="fill:blue"/>
<circle cx="540" cy="3587" r="5" style="fill:blue"/>
<circle cx="753" cy="88" r="5" style="fill:blue"/>
<circle cx="781" cy="1360" r="5" style="fill:blue"/>
<circle cx="163" cy="5741" r="5" style="fill:blue"/>
<circle cx="453" cy="2705" r="5" style="fill:blue"/>
<circle cx="1103" cy="1479" r="5" style="fill:blue"/>
<circle cx="8" cy="728" r="5" style="fill:blue"/>
<circle cx="835" cy="4958" r="5" style="fill:blue"/>
<circle cx="682" cy="4276" r="5" style="fill:blue"/>
<circle cx="1246" cy="5578" r="5" style="fill:blue"/>
<circle cx="617" cy="2065" r="5" style="fill:blue"/>
<circle cx="193" cy="5150" r="5" style="fill:blue"/>
<circle cx="136" cy="1535" r="5" style="fill:blue"/>
<circle cx="742" cy="1622" r="5" style="fill:blue"/>
<circle cx="82" cy="4842" r="5" style="fill:blue"/>
<circle cx="636" cy="3190" r="5" style="fill:blue"/>
<circle cx="277" cy="1275" r="5" style="fill:blue"/>
<circle cx="518" cy="1783" r="5" style="fill:blue"/>
<circle cx="265" cy="5757" r="5" style="fill:blue"/>
<circle cx="377" cy="1462" r="5" style="fill:blue"/>
<circle cx="1284" cy="2621" r="5" style="fill:blue"/>
<circle cx="18" cy="4626" r="5" style="fill:blue"/>
<circle cx="1120" cy="1726" r="5" style="fill:blue"/>
<circle cx="583" cy="4253" r="5" style="fill:blue"/>
<circle cx="942" cy="4320" r="5" style="fill:blue"/>
<circle cx="84" cy="4313" r="5" style="fill:blue"/>
<circle cx="1148" cy="262" r="5" style="fill:blue"/>
<circle cx="622" cy="5723" r="5" style="fill:blue"/>
<circle cx="251" cy="2320" r="5" style="fill:blue"/>
<circle cx="746" cy="5042" r="5" style="fill:blue"/>
<circle cx="604" cy="3169" r="5" style="fill:blue"/>
<circle cx="57" cy="820" r="5" style="fill:blue"/>
<circle cx="689" cy="30" r="5" style="fill:blue"/>
<circle cx="424" cy="5695" r="5" style="fill:blue"/>
<circle cx="1011" cy="5186" r="5" style="fill:blue"/>
<circle cx="190" cy="4723" r="5" style="fill:blue"/>
<circle cx="1162" cy="3528" r="5" style="fill:blue"/>
<circle cx="156" cy="5869" r="5" style="fill:blue"/>
<circle cx="269" cy="2340" r="5" style="fill:blue"/>
<circle cx="66" cy="4222" r="5" style="fill:blue"/>
<circle cx="153" cy="1719" r="5" style="fill:blue"/>
<circle cx="698" cy="5589" r="5" style="fill:blue"/>
<circle cx="984" cy="3099" r="5" style="fill:blue"/>
<circle cx="1079" cy="4737" r="5" style="fill:blue"/>
<circle cx="377" cy="2653" r="5" style="fill:blue"/>
<circle cx="877" cy="3347" r="5" style="fill:blue"/>
<circle cx="842" cy="1162" r="5" style="fill:blue"/>
<circle cx="507" cy="452" r="5" style="fill:blue"/>
<circle cx="52" cy="1948" r="5" style="fill:blue"/>
<circle cx="85" cy="5804" r="5" style="fill:blue"/>
<circle cx="106" cy="2561" r="5" style="fill:blue"/>
<circle cx="352" cy="6043" r="5" style="fill:blue"/>
<circle cx="850" cy="4979" r="5" style="fill:blue"/>
<circle cx="1232" cy="3106" r="5" style="fill:blue"/>
<circle cx="1008" cy="3641" r="5" style="fill:blue"/>
<circle cx="1188" cy="2580" r="5" style="fill:blue"/>
<circle cx="1110" cy="2706" r="5" style="fill:blue"/>
<circle cx="486" cy="4125" r="5" style="fill:blue"/>
<circle cx="770" cy="4450" r="5" style="fill:blue"/>
<circle cx="272" cy="1835" r="5" style="fill:blue"/>
<circle cx="501" cy="2733" r="5" style="fill:blue"/>
<circle cx="107" cy="3374" r="5" style="fill:blue"/>
<circle cx="1014" cy="2655" r="5" style="fill:blue"/>
<circle cx="760" cy="1449" r="5" style="fill:blue"/>
<circle cx="510" cy="1690" r="5" style="fill:blue"/>
<circle cx="1261" cy="501" r="5" style="fill:blue"/>
<circle cx="1245" cy="2520" r="5" style="fill:blue"/>
<circle cx="207" cy="5702" r="5" style="fill:blue"/>
<circle cx="1195" cy="5723" r="5" style="fill:blue"/>
<circle cx="457" cy="145" r="5" style="fill:blue"/>
<circle cx="967" cy="2645" r="5" style="fill:blue"/>
<circle cx="1124" cy="67" r="5" style="fill:blue"/>
<circle cx="1102" cy="3121" r="5" style="fill:blue"/>
<circle cx="1072" cy="2627" r="5" style="fill:blue"/>
<circle cx="197" cy="3706" r="5" style="fill:blue"/>
<circle cx="952" cy="5984" r="5" style="fill:blue"/>
<circle cx="737" cy="899" r="5" style="fill:blue"/>
<circle cx="1128" cy="1465" r="5" style="fill:blue"/>
<circle cx="155" cy="6041" r="5" style="fill:blue"/>
<circle cx="789" cy="3782" r="5" style="fill:blue"/>
<circle cx="99" cy="4664" r="5" style="fill:blue"/>
<circle cx="514" cy="1296" r="5" style="fill:blue"/>
<circle cx="550" cy="2911" r="5" style="fill:blue"/>
<circle cx="393" cy="3822" r="5" style="fill:blue"/>
<circle cx="346" cy="3676" r="5" style="fill:blue"/>
<circle cx="506" cy="92" r="5" style="fill:blue"/>
<circle cx="461" cy="2723" r="5" style="fill:blue"/>
<circle cx="640" cy="4689" r="5" style="fill:blue"/>
<circle cx="984" cy="1711" r="5" style="fill:blue"/>
<circle cx="604" cy="5488" r="5" style="fill:blue"/>
<circle cx="1229" cy="2678" r="5" style="fill:blue"/>
<circle cx="312" cy="5695" r="5" style="fill:blue"/>
<circle cx="1148" cy="4501" r="5" style="fill:blue"/>
<circle cx="160" cy="1745" r="5" style="fill:blue"/>
<circle cx="1013" cy="4781" r="5" style="fill:blue"/>
<circle cx="965" cy="3568" r="5" style="fill:blue"/>
<circle cx="1259" cy="1247" r="5" style="fill:blue"/>
<circle cx="888" cy="3461" r="5" style="fill:blue"/>
<circle cx="160" cy="5901" r="5" style="fill:blue"/>
<circle cx="308" cy="4418" r="5" style="fill:blue"/>
<circle cx="1015" cy="5682" r="5" style="fill:blue"/>
<circle cx="600" cy="4937" r="5" style="fill:blue"/>
<circle cx="168" cy="3550" r="5" style="fill:blue"/>
<circle cx="5" cy="966" r="5" style="fill:blue"/>
<circle cx="1089" cy="5978" r="5" style="fill:blue"/>
<circle cx="872" cy="5335" r="5" style="fill:blue"/>
<circle cx="110" cy="3805" r="5" style="fill:blue"/>
<circle cx="151" cy="4308" r="5" style="fill:blue"/>
<circle cx="1152" cy="3199" r="5" style="fill:blue"/>
<circle cx="278" cy="2481" r="5" style="fill:blue"/>
<circle cx="241" cy="5867" r="5" style="fill:blue"/>
<circle cx="68" cy="1112" r="5" style="fill:blue"/>
<circle cx="165" cy="725" r="5" style="fill:blue"/>
<circle cx="212" cy="4578" r="5" style="fill:blue"/>
<circle cx="813" cy="392" r="5" style="fill:blue"/>
<circle cx="276" cy="1094" r="5" style="fill:blue"/>
<circle cx="21" cy="4389" r="5" style="fill:blue"/>
<circle cx="560" cy="5069" r="5" style="fill:blue"/>
<circle cx="706" cy="825" r="5" style="fill:blue"/>
<circle cx="1042" cy="1146" r="83" style="stroke-width:5;fill:gray;fill-opacity:0.3"/>
<circle cx="1230" cy="5817" r="7" style="stroke-width:5;fill:gray;fill-opacity:0.3"/>
<circle cx="1142" cy="4858" r="64" style="stroke-width:5;fill:gray;fill-opacity:0.3"/>
<circle cx="1028" cy="4951" r="45" style="stroke-width:5;fill:gray;fill-opacity:0.3"/>
<circle cx="1130" cy="3976" r="10" style="stroke-width:5;fill:gray;fill-opacity:0.3"/>
<circle cx="1001" cy="5915" r="38" style="stroke-width:5;fill:gray;fill-opacity:0.3"/>
<circle cx="1159" cy="1936" r="38" style="stroke-width:5;fill:gray;fill-opacity:0.3"/>
<circle cx="457" cy="1126" r="41" style="stroke-width:5;fill:gray;fill-opacity:0.3"/>
<circle cx="412" cy="5424" r="20" style="stroke-width:5;fill:gray;fill-opacity:0.3"/>
<circle cx="979" cy="1824" r="36" style="stroke-width:5;fill:gray;fill-opacity:0.3"/>
<circle cx="1194" cy="2759" r="84" style="stroke-width:5;fill:gray;fill-opacity:0.3"/>
<circle cx="975" cy="4143" r="78" style="stroke-width:5;fill:gray;fill-opacity:0.3"/>
<circle cx="324" cy="4512" r="62" style="stroke-width:5;fill:gray;fill-opacity:0.3"/>
<circle cx="348" cy="4561" r="43" style="stroke-width:5;fill:gray;fill-opacity:0.3"/>
<circle cx="1177" cy="147" r="28" style="stroke-width:5;fill:gray;fill-opacity:0.3"/>
<circle cx="526" cy="355" r="55" style="stroke-width:5;fill:gray;fill-opacity:0.3"/>
<circle cx="769" cy="3059" r="56" style="stroke-width:5;fill:gray;fill-opacity:0.3"/>
<circle cx="600" cy="1636" r="17" style="stroke-width:5;fill:gray;fill-opacity:0.3"/>
<circle cx="485" cy="5542" r="68" style="stroke-width:5;fill:gray;fill-opacity:0.3"/>
<circle cx="1057" cy="3994" r="21" style="stroke-width:5;fill:gray;fill-opacity:0.3"/>
<circle cx="1066" cy="1356" r="28" style="stroke-width:5;fill:gray;fill-opacity:0.3"/>
<circle cx="1213" cy="4130" r="55" style="stroke-width:5;fill:gray;fill-opacity:0.3"/>
<circle cx="832" cy="170" r="33" style="stroke-width:5;fill:gray;fill-opacity:0.3"/>
<circle cx="599" cy="2447" r="72" style="stroke-width:5;fill:gray;fill-opacity:0.3"/>
<circle cx="1217" cy="4410" r="79" style="stroke-width:5;fill:gray;fill-opacity:0.3"/>
<circle cx="99" cy="5334" r="12" style="stroke-width:5;fill:gray;fill-opacity:0.3"/>
<circle cx="430" cy="5949" r="68" style="stroke-width:5;fill:gray;fill-opacity:0.3"/>
<circle cx="456" cy="346" r="29" style="stroke-width:5;fill:gray;fill-opacity:0.3"/>
<circle cx="732" cy="3815" r="52" style="stroke-width:5;fill:gray;fill-opacity:0.3"/>
<circle cx="1034" cy="5836" r="62" style="stroke-width:5;fill:gray;fill-opacity:0.3"/>
<circle cx="138" cy="422" r="30" style="stroke-width:5;fill:gray;fill-opacity:0.3"/>
<circle cx="389" cy="1042" r="7" style="stroke-width:5;fill:gray;fill-opacity:0.3"/>
<circle cx="606" cy="3626" r="49" style="stroke-width:5;fill:gray;fill-opacity:0.3"/>
<circle cx="530" cy="619" r="27" style="stroke-width:5;fill:gray;fill-opacity:0.3"/>
<circle cx="664" cy="5527" r="65" style="stroke-width:5;fill:gray;fill-opacity:0.3"/>
<circle cx="88" cy="1294" r="79" style="stroke-width:5;fill:gray;fill-opacity:0.3"/>
<circle cx="898" cy="737" r="61" style="stroke-width:5;fill:gray;fill-opacity:0.3"/>
<circle cx="1190" cy="5655" r="65" style="stroke-width:5;fill:gray;fill-opacity:0.3"/>
<circle cx="674" cy="688" r="57" style="stroke-width:5;fill:gray;fill-opacity:0.3"/>
<circle cx="800" cy="1667" r="25" style="stroke-width:5;fill:gray;fill-opacity:0.3"/>
<circle cx="397" cy="2049" r="36" style="stroke-width:5;fill:gray;fill-opacity:0.3"/>
<circle cx="593" cy="3001" r="19" style="stroke-width:5;fill:gray;fill-opacity:0.3"/>
<circle cx="921" cy="715" r="31" style="stroke-width:5;fill:gray;fill-opacity:0.3"/>
<circle cx="81" cy="5682" r="65" style="stroke-width:5;fill:gray;fill-opacity:0.3"/>
<circle cx="377" cy="2325" r="81" style="stroke-width:5;fill:gray;fill-opacity:0.3"/>
<circle cx="1111" cy="4566" r="53" style="stroke-width:5;fill:gray;fill-opacity:0.3"/>
<circle cx="169" cy="5227" r="32" style="stroke-width:5;fill:gray;fill-opacity:0.3"/>
<circle cx="250" cy="2059" r="82" style="stroke-width:5;fill:gray;fill-opacity:0.3"/>
<circle cx="1019" cy="4306" r="42" style="stroke-width:5;fill:gray;fill-opacity:0.3"/>
<circle cx="381" cy="3393" r="23" style="stroke-width:5;fill:gray;fill-opacity:0.3"/>
<circle cx="1150" cy="2361" r="7" style="stroke-width:5;fill:gray;fill-opacity:0.3"/>
<circle cx="527" cy="2093" r="14" style="stroke-width:5;fill:gray;fill-opacity:0.3"/>
<circle cx="861" cy="2073" r="9" style="stroke-width:5;fill:gray;fill-opacity:0.3"/>
<circle cx="997" cy="4160" r="76" style="stroke-width:5;fill:gray;fill-opacity:0.3"/>
<circle cx="628" cy="4801" r="71" style="stroke-width:5;fill:gray;fill-opacity:0.3"/>
<circle cx="59" cy="531" r="6" style="stroke-width:5;fill:gray;fill-opacity:0.3"/>
<circle cx="1000" cy="1152" r="52" style="stroke-width:5;fill:gray;fill-opacity:0.3"/>
<circle cx="972" cy="2274" r="69" style="stroke-width:5;fill:gray;fill-opacity:0.3"/>
<circle cx="462" cy="1245" r="31" style="stroke-width:5;fill:gray;fill-opacity:0.3"/>
<circle cx="124" cy="888" r="38" style="stroke-width:5;fill:gray;fill-opacity:0.3"/>
<circle cx="770" cy="2794" r="80" style="stroke-width:5;fill:gray;fill-opacity:0.3"/>
<circle cx="89" cy="1276" r="81" style="stroke-width:5;fill:gray;fill-opacity:0.3"/>
<circle cx="1033" cy="1495" r="68" style="stroke-width:5;fill:gray;fill-opacity:0.3"/>
<circle cx="1132" cy="768" r="83" style="stroke-width:5;fill:gray;fill-opacity:0.3"/>
<circle cx="356" cy="2569" r="62" style="stroke-width:5;fill:gray;fill-opacity:0.3"/>
<circle cx="175" cy="5279" r="28" style="stroke-width:5;fill:gray;fill-opacity:0.3"/>
<circle cx="721" cy="4104" r="67" style="stroke-width:5;fill:gray;fill-opacity:0.3"/>
<circle cx="750" cy="4754" r="67" style="stroke-width:5;fill:gray;fill-opacity:0.3"/>
<circle cx="135" cy="5592" r="74" style="stroke-width:5;fill:gray;fill-opacity:0.3"/>
<circle cx="140" cy="2418" r="54" style="stroke-width:5;fill:gray;fill-opacity:0.3"/>
<circle cx="462" cy="1528" r="33" style="stroke-width:5;fill:gray;fill-opacity:0.3"/>
<circle cx="318" cy="5817" r="54" style="stroke-width:5;fill:gray;fill-opacity:0.3"/>
<circle cx="545" cy="2989" r="47" style="stroke-width:5;fill:gray;fill-opacity:0.3"/>
<circle cx="1149" cy="5494" r="40" style="stroke-width:5;fill:gray;fill-opacity:0.3"/>
<circle cx="642" cy="368" r="20" style="stroke-width:5;fill:gray;fill-opacity:0.3"/>
<circle cx="74" cy="1039" r="28" style="stroke-width:5;fill:gray;fill-opacity:0.3"/>
<circle cx="418" cy="919" r="80" style="stroke-width:5;fill:gray;fill-opacity:0.3"/>
<circle cx="1241" cy="4043" r="46" style="stroke-width:5;fill:gray;fill-opacity:0.3"/>
<circle cx="298" cy="5513" r="12" style="stroke-width:5;fill:gray;fill-opacity:0.3"/>
<circle cx="1013" cy="4109" r="74" style="stroke-width:5;fill:gray;fill-opacity:0.3"/>
<circle cx="1122" cy="509" r="77" style="stroke-width:5;fill:gray;fill-opacity:0.3"/>
<circle cx="1218" cy="4490" r="33" style="stroke-width:5;fill:gray;fill-opacity:0.3"/>
<circle cx="134" cy="5701" r="15" style="stroke-width:5;fill:gray;fill-opacity:0.3"/>
<circle cx="856" cy="5808" r="29" style="stroke-width:5;fill:gray;fill-opacity:0.3"/>
<circle cx="954" cy="1446" r="42" style="stroke-width:5;fill:gray;fill-opacity:0.3"/>
<circle cx="155" cy="4241" r="47" style="stroke-width:5;fill:gray;fill-opacity:0.3"/>
<circle cx="570" cy="3526" r="60" style="stroke-width:5;fill:gray;fill-opacity:0.3"/>
<circle cx="60" cy="1789" r="25" style="stroke-width:5;fill:gray;fill-opacity:0.3"/>
<circle cx="972" cy="578" r="42" style="stroke-width:5;fill:gray;fill-opacity:0.3"/>
<circle cx="475" cy="2484" r="54" style="stroke-width:5;fill:gray;fill-opacity:0.3"/>
<circle cx="687" cy="3171" r="36" style="stroke-width:5;fill:gray;fill-opacity:0.3"/>
</svg>