<svg viewBox="0 0 4785 2577" xmlns="http://www.w3.org/2000/svg">
<rect height="588" style="stroke:pink;stroke-width:10;fill:gray;fill-opacity:0.1;stroke-opacity:0.9" width="157" x="2794" y="1965"/>
<circle cx="1916" cy="2520" r="5" style="fill:blue"/>
<circle cx="1513" cy="749" r="5" style="fill:blue"/>
<circle cx="2788" cy="1592" r="5" style="fill:blue"/>
<circle cx="3281" cy="923" r="5" style="fill:blue"/>
<circle cx="4364" cy="848" r="5" style="fill:blue"/>
<circle cx="209" cy="1849" r="5" style="fill:blue"/>
<circle cx="4493" cy="765" r="5" style="fill:blue"/>
<circle cx="1655" cy="2154" r="5" style="fill:blue"/>
<circle cx="3574" cy="2231" r="5" style="fill:blue"/>
<circle cx="542" cy="906" r="5" style="fill:blue"/>
<circle cx="842" cy="1392" r="5" style="fill:blue"/>
<circle cx="787" cy="2406" r="5" style="fill:blue"/>
<circle cx="4671" cy="2008" r="5" style="fill:blue"/>
<circle cx="1078" cy="1771" r="5" style="fill:blue"/>
<circle cx="2802" cy="685" r="5" style="fill:blue"/>
<circle cx="3270" cy="2117" r="5" style="fill:blue"/>
<circle cx="4343" cy="1060" r="5" style="fill:blue"/>
<circle cx="1916" cy="1043" r="5" style="fill:blue"/>
<circle cx="2879" cy="1490" r="5" style="fill:blue"/>
<circle cx="2936" cy="1558" r="5" style="fill:blue"/>
<circle cx="59" cy="2475" r="5" style="fill:blue"/>
<circle cx="2822" cy="1241" r="5" style="fill:blue"/>
<circle cx="574" cy="1267" r="5" style="fill:blue"/>
<circle cx="143" cy="2086" r="5" style="fill:blue"/>
<circle cx="2043" cy="2458" r="5" style="fill:blue"/>
<circle cx="1250" cy="1613" r="5" style="fill:blue"/>
<circle cx="155" cy="2137" r="5" style="fill:blue"/>
<circle cx="503" cy="1340" r="5" style="fill:blue"/>
<circle cx="4421" cy="935" r="5" style="fill:blue"/>
<circle cx="2759" cy="1894" r="5" style="fill:blue"/>
<circle cx="109" cy="2167" r="5" style="fill:blue"/>
<circle cx="2156" cy="932" r="5" style="fill:blue"/>
<circle cx="809" cy="2365" r="5" style="fill:blue"/>
<circle cx="3709" cy="543" r="5" style="fill:blue"/>
<circle cx="2463" cy="1526" r="5" style="fill:blue"/>
<circle cx="4220" cy="305" r="5" style="fill:blue"/>
<circle cx="2222" cy="1239" r="5" style="fill:blue"/>
<circle cx="3183" cy="1917" r="5" style="fill:blue"/>
<circle cx="570" cy="2308" r="5" style="fill:blue"/>
<circle cx="3316" cy="2206" r="5" style="fill:blue"/>
<circle cx="4344" cy="1416" r="5" style="fill:blue"/>
<circle cx="765" cy="602" r="5" style="fill:blue"/>
<circle cx="2000" cy="1069" r="5" style="fill:blue"/>
<circle cx="2205" cy="1808" r="5" style="fill:blue"/>
<circle cx="142" cy="1641" r="5" style="fill:blue"/>
<circle cx="3858" cy="2086" r="5" style="fill:blue"/>
<circle cx="644" cy="2232" r="5" style="fill:blue"/>
<circle cx="3979" cy="294" r="5" style="fill:blue"/>
<circle cx="1794" cy="1027" r="5" style="fill:blue"/>
<circle cx="552" cy="1330" r="5" style="fill:blue"/>
<circle cx="2573" cy="279" r="5" style="fill:blue"/>
<circle cx="3840" cy="194" r="5" style="fill:blue"/>
<circle cx="457" cy="2106" r="5" style="fill:blue"/>
<circle cx="3780" cy="1633" r="5" style="fill:blue"/>
<circle cx="3573" cy="112" r="5" style="fill:blue"/>
<circle cx="2009" cy="1124" r="5" style="fill:blue"/>
<circle cx="3994" cy="2543" r="5" style="fill:blue"/>
<circle cx="574" cy="958" r="5" style="fill:blue"/>
<circle cx="566" cy="2236" r="5" style="fill:blue"/>
<circle cx="1478" cy="1222" r="5" style="fill:blue"/>
<circle cx="385" cy="2028" r="5" style="fill:blue"/>
<circle cx="3955" cy="511" r="5" style="fill:blue"/>
<circle cx="3723" cy="1285" r="5" style="fill:blue"/>
<circle cx="3321" cy="492" r="5" style="fill:blue"/>
<circle cx="544" cy="448" r="5" style="fill:blue"/>
<circle cx="1951" cy="2064" r="5" style="fill:blue"/>
<circle cx="3866" cy="39" r="5" style="fill:blue"/>
<circle cx="1793" cy="435" r="5" style="fill:blue"/>
<circle cx="962" cy="1033" r="5" style="fill:blue"/>
<circle cx="4007" cy="2321" r="5" style="fill:blue"/>
<circle cx="1399" cy="2562" r="5" style="fill:blue"/>
<circle cx="3098" cy="1988" r="5" style="fill:blue"/>
<circle cx="222" cy="1287" r="5" style="fill:blue"/>
<circle cx="3285" cy="752" r="5" style="fill:blue"/>
<circle cx="1596" cy="306" r="5" style="fill:blue"/>
<circle cx="4188" cy="1572" r="5" style="fill:blue"/>
<circle cx="4047" cy="842" r="5" style="fill:blue"/>
<circle cx="2867" cy="1811" r="5" style="fill:blue"/>
<circle cx="2305" cy="1008" r="5" style="fill:blue"/>
<circle cx="3684" cy="1436" r="5" style="fill:blue"/>
<circle cx="855" cy="1255" r="5" style="fill:blue"/>
<circle cx="1514" cy="1088" r="5" style="fill:blue"/>
<circle cx="1268" cy="1968" r="5" style="fill:blue"/>
<circle cx="2888" cy="1227" r="5" style="fill:blue"/>
<circle cx="4516" cy="101" r="5" style="fill:blue"/>
<circle cx="4507" cy="1192" r="5" style="fill:blue"/>
<circle cx="807" cy="78" r="5" style="fill:blue"/>
<circle cx="3232" cy="693" r="5" style="fill:blue"/>
<circle cx="3263" cy="156" r="5" style="fill:blue"/>
<circle cx="1524" cy="619" r="5" style="fill:blue"/>
<circle cx="413" cy="2062" r="5" style="fill:blue"/>
<circle cx="3639" cy="1519" r="5" style="fill:blue"/>
<circle cx="1833" cy="695" r="5" style="fill:blue"/>
<circle cx="2750" cy="80" r="5" style="fill:blue"/>
<circle cx="4740" cy="1461" r="5" style="fill:blue"/>
<circle cx="1128" cy="153" r="5" style="fill:blue"/>
<circle cx="2775" cy="13" r="5" style="fill:blue"/>
<circle cx="1872" cy="1744" r="5" style="fill:blue"/>
<circle cx="1615" cy="1363" r="5" style="fill:blue"/>
<circle cx="4048" cy="2287" r="5" style="fill:blue"/>
<circle cx="1328" cy="2271" r="5" style="fill:blue"/>
<circle cx="2592" cy="2423" r="5" style="fill:blue"/>
<circle cx="4319" cy="18" r="5" style="fill:blue"/>
<circle cx="3552" cy="1351" r="5" style="fill:blue"/>
<circle cx="4419" cy="1709" r="5" style="fill:blue"/>
<circle cx="781" cy="536" r="5" style="fill:blue"/>
<circle cx="3054" cy="1936" r="5" style="fill:blue"/>
<circle cx="1864" cy="1385" r="5" style="fill:blue"/>
<circle cx="4242" cy="1075" r="5" style="fill:blue"/>
<circle cx="1615" cy="1792" r="5" style="fill:blue"/>
<circle cx="915" cy="1743" r="5" style="fill:blue"/>
<circle cx="3502" cy="667" r="5" style="fill:blue"/>
<circle cx="1144" cy="2298" r="5" style="fill:blue"/>
<circle cx="3764" cy="630" r="5" style="fill:blue"/>
<circle cx="2999" cy="2425" r="5" style="fill:blue"/>
<circle cx="865" cy="748" r="5" style="fill:blue"/>
<circle cx="361" cy="979" r="5" style="fill:blue"/>
<circle cx="2843" cy="700" r="5" style="fill:blue"/>
<circle cx="4317" cy="1045" r="5" style="fill:blue"/>
<circle cx="1016" cy="183" r="5" style="fill:blue"/>
<circle cx="419" cy="888" r="5" style="fill:blue"/>
<circle cx="1316" cy="1939" r="5" style="fill:blue"/>
<circle cx="2639" cy="742" r="5" style="fill:blue"/>
<circle cx="1959" cy="1934" r="5" style="fill:blue"/>
<circle cx="4375" cy="2155" r="5" style="fill:blue"/>
<circle cx="3888" cy="2519" r="5" style="fill:blue"/>
<circle cx="2827" cy="1296" r="5" style="fill:blue"/>
<circle cx="2372" cy="2302" r="5" style="fill:blue"/>
<circle cx="2067" cy="1886" r="5" style="fill:blue"/>
<circle cx="2727" cy="603" r="5" style="fill:blue"/>
<circle cx="4155" cy="680" r="5" style="fill:blue"/>
<circle cx="4228" cy="2282" r="5" style="fill:blue"/>
<circle cx="2338" cy="231" r="5" style="fill:blue"/>
<circle cx="2766" cy="1613" r="5" style="fill:blue"/>
<circle cx="9" cy="1305" r="5" style="fill:blue"/>
<circle cx="1884" cy="2034" r="5" style="fill:blue"/>
<circle cx="127" cy="1296" r="5" style="fill:blue"/>
<circle cx="3954" cy="631" r="5" style="fill:blue"/>
<circle cx="4236" cy="521" r="5" style="fill:blue"/>
<circle cx="1601" cy="1127" r="5" style="fill:blue"/>
<circle cx="2273" cy="438" r="5" style="fill:blue"/>
<circle cx="478" cy="1199" r="5" style="fill:blue"/>
<circle cx="4488" cy="216" r="5" style="fill:blue"/>
<circle cx="2987" cy="162" r="5" style="fill:blue"/>
<circle cx="2831" cy="1517" r="5" style="fill:blue"/>
<circle cx="4151" cy="368" r="5" style="fill:blue"/>
<circle cx="4280" cy="440" r="5" style="fill:blue"/>
<circle cx="684" cy="160" r="5" style="fill:blue"/>
<circle cx="1158" cy="2231" r="5" style="fill:blue"/>
<circle cx="3616" cy="272" r="5" style="fill:blue"/>
<circle cx="1337" cy="2137" r="5" style="fill:blue"/>
<circle cx="1531" cy="572" r="5" style="fill:blue"/>
<circle cx="633" cy="2278" r="5" style="fill:blue"/>
<circle cx="90" cy="2341" r="5" style="fill:blue"/>
<circle cx="4134" cy="2214" r="5" style="fill:blue"/>
<circle cx="1146" cy="1833" r="5" style="fill:blue"/>
<circle cx="90" cy="2504" r="5" style="fill:blue"/>
<circle cx="4700" cy="1343" r="5" style="fill:blue"/>
<circle cx="842" cy="1285" r="5" style="fill:blue"/>
<circle cx="1993" cy="2446" r="5" style="fill:blue"/>
<circle cx="2620" cy="1238" r="5" style="fill:blue"/>
<circle cx="1015" cy="1077" r="5" style="fill:blue"/>
<circle cx="2716" cy="2465" r="5" style="fill:blue"/>
<circle cx="2514" cy="1785" r="5" style="fill:blue"/>
<circle cx="926" cy="617" r="5" style="fill:blue"/>
<circle cx="1148" cy="385" r="5" style="fill:blue"/>
<circle cx="2669" cy="307" r="5" style="fill:blue"/>
<circle cx="2610" cy="740" r="5" style="fill:blue"/>
<circle cx="4192" cy="832" r="5" style="fill:blue"/>
<circle cx="3719" cy="2534" r="5" style="fill:blue"/>
<circle cx="4677" cy="1613" r="5" style="fill:blue"/>
<circle cx="1237" cy="1836" r="5" style="fill:blue"/>
<circle cx="3755" cy="1369" r="5" style="fill:blue"/>
<circle cx="885" cy="2345" r="5" style="fill:blue"/>
<circle cx="62" cy="2392" r="5" style="fill:blue"/>
<circle cx="4023" cy="2386" r="5" style="fill:blue"/>
<circle cx="203" cy="1909" r="5" style="fill:blue"/>
<circle cx="3108" cy="183" r="5" style="fill:blue"/>
<circle cx="2654" cy="1440" r="5" style="fill:blue"/>
<circle cx="3754" cy="278" r="5" style="fill:blue"/>
<circle cx="3130" cy="44" r="5" style="fill:blue"/>
<circle cx="2402" cy="659" r="5" style="fill:blue"/>
<circle cx="1339" cy="1201" r="5" style="fill:blue"/>
<circle cx="220" cy="921" r="5" style="fill:blue"/>
<circle cx="2981" cy="704" r="5" style="fill:blue"/>
<circle cx="3308" cy="2172" r="5" style="fill:blue"/>
<circle cx="3197" cy="1015" r="5" style="fill:blue"/>
<circle cx="3431" cy="1100" r="5" style="fill:blue"/>
<circle cx="2526" cy="2575" r="5" style="fill:blue"/>
<circle cx="3589" cy="1049" r="5" style="fill:blue"/>
<circle cx="3982" cy="98" r="5" style="fill:blue"/>
<circle cx="4254" cy="883" r="5" style="fill:blue"/>
<circle cx="340" cy="28" r="5" style="fill:blue"/>
<circle cx="4009" cy="212" r="5" style="fill:blue"/>
<circle cx="3061" cy="2026" r="5" style="fill:blue"/>
<circle cx="3498" cy="1338" r="5" style="fill:blue"/>
<circle cx="431" cy="2286" r="5" style="fill:blue"/>
<circle cx="2127" cy="1853" r="5" style="fill:blue"/>
<circle cx="4686" cy="2513" r="5" style="fill:blue"/>
<circle cx="3990" cy="1684" r="5" style="fill:blue"/>
<circle cx="3229" cy="2267" r="5" style="fill:blue"/>
<circle cx="1642" cy="646" r="5" style="fill:blue"/>
<circle cx="3782" cy="393" r="5" style="fill:blue"/>
<circle cx="386" cy="2144" r="5" style="fill:blue"/>
<circle cx="2721" cy="1870" r="5" style="fill:blue"/>
<circle cx="1420" cy="962" r="5" style="fill:blue"/>
<circle cx="244" cy="779" r="5" style="fill:blue"/>
<circle cx="3639" cy="1651" r="5" style="fill:blue"/>
<circle cx="1232" cy="1459" r="5" style="fill:blue"/>
<circle cx="3118" cy="172" r="5" style="fill:blue"/>
<circle cx="2331" cy="812" r="5" style="fill:blue"/>
<circle cx="157" cy="488" r="5" style="fill:blue"/>
<circle cx="2682" cy="1340" r="5" style="fill:blue"/>
<circle cx="3497" cy="1586" r="5" style="fill:blue"/>
<circle cx="3467" cy="575" r="5" style="fill:blue"/>
<circle cx="2907" cy="812" r="5" style="fill:blue"/>
<circle cx="1131" cy="459" r="5" style="fill:blue"/>
<circle cx="3015" cy="1587" r="5" style="fill:blue"/>
<circle cx="2146" cy="192" r="5" style="fill:blue"/>
<circle cx="2247" cy="28" r="5" style="fill:blue"/>
<circle cx="4776" cy="644" r="5" style="fill:blue"/>
<circle cx="380" cy="1923" r="5" style="fill:blue"/>
<circle cx="2763" cy="2351" r="5" style="fill:blue"/>
<circle cx="3339" cy="2322" r="5" style="fill:blue"/>
<circle cx="2047" cy="1703" r="5" style="fill:blue"/>
<circle cx="3469" cy="289" r="5" style="fill:blue"/>
<circle cx="3792" cy="1949" r="5" style="fill:blue"/>
<circle cx="1714" cy="1119" r="5" style="fill:blue"/>
<circle cx="2566" cy="1692" r="5" style="fill:blue"/>
<circle cx="31" cy="828" r="5" style="fill:blue"/>
<circle cx="4620" cy="967" r="5" style="fill:blue"/>
<circle cx="353" cy="1478" r="5" style="fill:blue"/>
<circle cx="1421" cy="306" r="5" style="fill:blue"/>
<circle cx="2925" cy="503" r="5" style="fill:blue"/>
<circle cx="4076" cy="1129" r="5" style="fill:blue"/>
<circle cx="1577" cy="879" r="5" style="fill:blue"/>
<circle cx="87" cy="1685" r="5" style="fill:blue"/>
<circle cx="3575" cy="598" r="5" style="fill:blue"/>
<circle cx="4448" cy="761" r="5" style="fill:blue"/>
<circle cx="4568" cy="992" r="5" style="fill:blue"/>
<circle cx="1089" cy="1446" r="5" style="fill:blue"/>
<circle cx="348" cy="597" r="5" style="fill:blue"/>
<circle cx="4066" cy="167" r="5" style="fill:blue"/>
<circle cx="35" cy="2014" r="5" style="fill:blue"/>
<circle cx="3857" cy="64" r="5" style="fill:blue"/>
<circle cx="1636" cy="4" r="5" style="fill:blue"/>
<circle cx="2669" cy="1830" r="5" style="fill:blue"/>
<circle cx="4693" cy="1937" r="5" style="fill:blue"/>
<circle cx="1773" cy="18" r="5" style="fill:blue"/>
<circle cx="1281" cy="1391" r="5" style="fill:blue"/>
<circle cx="424" cy="1789" r="5" style="fill:blue"/>
<circle cx="3600" cy="1696" r="5" style="fill:blue"/>
<circle cx="996" cy="630" r="5" style="fill:blue"/>
<circle cx="557" cy="88" r="5" style="fill:blue"/>
<circle cx="2022" cy="2494" r="5" style="fill:blue"/>
<circle cx="909" cy="1380" r="5" style="fill:blue"/>
<circle cx="824" cy="212" r="5" style="fill:blue"/>
<circle cx="4757" cy="2204" r="5" style="fill:blue"/>
<circle cx="1360" cy="679" r="5" style="fill:blue"/>
<circle cx="360" cy="1529" r="5" style="fill:blue"/>
<circle cx="2716" cy="2273" r="5" style="fill:blue"/>
<circle cx="3417" cy="681" r="5" style="fill:blue"/>
<circle cx="657" cy="1504" r="5" style="fill:blue"/>
<circle cx="507" cy="430" r="5" style="fill:blue"/>
<circle cx="1924" cy="1950" r="5" style="fill:blue"/>
<circle cx="756" cy="1901" r="5" style="fill:blue"/>
<circle cx="4372" cy="70" r="5" style="fill:blue"/>
<circle cx="1265" cy="1821" r="5" style="fill:blue"/>
<circle cx="3190" cy="1834" r="5" style="fill:blue"/>
<circle cx="3486" cy="1961" r="5" style="fill:blue"/>
<circle cx="3915" cy="518" r="5" style="fill:blue"/>
<circle cx="67" cy="349" r="5" style="fill:blue"/>
<circle cx="3887" cy="143" r="5" style="fill:blue"/>
<circle cx="53" cy="2566" r="5" style="fill:blue"/>
<circle cx="282" cy="184" r="5" style="fill:blue"/>
<circle cx="4375" cy="2529" r="5" style="fill:blue"/>
<circle cx="683" cy="1147" r="5" style="fill:blue"/>
<circle cx="2430" cy="151" r="5" style="fill:blue"/>
<circle cx="130" cy="1297" r="5" style="fill:blue"/>
<circle cx="1532" cy="434" r="5" style="fill:blue"/>
<circle cx="422" cy="1177" r="5" style="fill:blue"/>
<circle cx="3670" cy="1147" r="5" style="fill:blue"/>
<circle cx="641" cy="2327" r="5" style="fill:blue"/>
<circle cx="1325" cy="206" r="5" style="fill:blue"/>
<circle cx="2122" cy="2296" r="5" style="fill:blue"/>
<circle cx="302" cy="981" r="5" style="fill:blue"/>
<circle cx="1200" cy="1468" r="5" style="fill:blue"/>
<circle cx="3392" cy="2574" r="5" style="fill:blue"/>
<circle cx="1375" cy="255" r="5" style="fill:blue"/>
<circle cx="3007" cy="60" r="5" style="fill:blue"/>
<circle cx="2032" cy="289" r="5" style="fill:blue"/>
<circle cx="888" cy="1202" r="5" style="fill:blue"/>
<circle cx="4049" cy="2011" r="5" style="fill:blue"/>
<circle cx="2651" cy="45" r="5" style="fill:blue"/>
<circle cx="594" cy="2381" r="5" style="fill:blue"/>
<circle cx="780" cy="334" r="5" style="fill:blue"/>
<circle cx="3616" cy="902" r="5" style="fill:blue"/>
<circle cx="926" cy="1209" r="5" style="fill:blue"/>
<circle cx="4695" cy="1882" r="5" style="fill:blue"/>
<circle cx="2298" cy="173" r="5" style="fill:blue"/>
<circle cx="1196" cy="217" r="5" style="fill:blue"/>
<circle cx="1173" cy="897" r="5" style="fill:blue"/>
<circle cx="1957" cy="2546" r="5" style="fill:blue"/>
<circle cx="4697" cy="2" r="5" style="fill:blue"/>
<circle cx="1988" cy="2248" r="5" style="fill:blue"/>
<circle cx="1868" cy="1005" r="5" style="fill:blue"/>
<circle cx="1569" cy="306" r="5" style="fill:blue"/>
<circle cx="3618" cy="1737" r="5" style="fill:blue"/>
<circle cx="3177" cy="320" r="5" style="fill:blue"/>
<circle cx="3583" cy="2282" r="5" style="fill:blue"/>
<circle cx="3724" cy="135" r="5" style="fill:blue"/>
<circle cx="1632" cy="308" r="5" style="fill:blue"/>
<circle cx="1526" cy="2005" r="5" style="fill:blue"/>
<circle cx="3265" cy="1891" r="5" style="fill:blue"/>
<circle cx="3457" cy="95" r="5" style="fill:blue"/>
<circle cx="916" cy="2461" r="5" style="fill:blue"/>
<circle cx="3210" cy="218" r="5" style="fill:blue"/>
<circle cx="1060" cy="122" r="5" style="fill:blue"/>
<circle cx="62" cy="335" r="5" style="fill:blue"/>
<circle cx="2738" cy="2493" r="5" style="fill:blue"/>
<circle cx="4458" cy="1461" r="5" style="fill:blue"/>
<circle cx="2357" cy="1985" r="5" style="fill:blue"/>
<circle cx="2182" cy="2238" r="5" style="fill:blue"/>
<circle cx="3100" cy="1683" r="5" style="fill:blue"/>
<circle cx="2003" cy="1260" r="5" style="fill:blue"/>
<circle cx="520" cy="261" r="5" style="fill:blue"/>
<circle cx="1686" cy="2158" r="5" style="fill:blue"/>
<circle cx="120" cy="1282" r="5" style="fill:blue"/>
<circle cx="3425" cy="995" r="5" style="fill:blue"/>
<circle cx="4137" cy="1197" r="5" style="fill:blue"/>
<circle cx="840" cy="1104" r="5" style="fill:blue"/>
<circle cx="3724" cy="803" r="5" style="fill:blue"/>
<circle cx="3558" cy="1816" r="5" style="fill:blue"/>
<circle cx="2003" cy="465" r="5" style="fill:blue"/>
<circle cx="3235" cy="483" r="5" style="fill:blue"/>
<circle cx="314" cy="1209" r="5" style="fill:blue"/>
<circle cx="3607" cy="85" r="5" style="fill:blue"/>
<circle cx="2082" cy="995" r="5" style="fill:blue"/>
<circle cx="3648" cy="1736" r="5" style="fill:blue"/>
<circle cx="2176" cy="305" r="5" style="fill:blue"/>
<circle cx="2208" cy="977" r="5" style="fill:blue"/>
<circle cx="103" cy="267" r="5" style="fill:blue"/>
<circle cx="1608" cy="1054" r="5" style="fill:blue"/>
<circle cx="2128" cy="186" r="5" style="fill:blue"/>
<circle cx="1883" cy="335" r="5" style="fill:blue"/>
<circle cx="917" cy="865" r="5" style="fill:blue"/>
<circle cx="3492" cy="917" r="5" style="fill:blue"/>
<circle cx="4065" cy="389" r="5" style="fill:blue"/>
<circle cx="4152" cy="1091" r="5" style="fill:blue"/>
<circle cx="3847" cy="494" r="5" style="fill:blue"/>
<circle cx="2598" cy="1682" r="5" style="fill:blue"/>
<circle cx="4229" cy="1763" r="5" style="fill:blue"/>
<circle cx="637" cy="1091" r="5" style="fill:blue"/>
<circle cx="1204" cy="826" r="5" style="fill:blue"/>
<circle cx="1096" cy="826" r="5" style="fill:blue"/>
<circle cx="4637" cy="2322" r="5" style="fill:blue"/>
<circle cx="4088" cy="2451" r="5" style="fill:blue"/>
<circle cx="2216" cy="1737" r="5" style="fill:blue"/>
<circle cx="2171" cy="2189" r="5" style="fill:blue"/>
<circle cx="1478" cy="16" r="5" style="fill:blue"/>
<circle cx="4148" cy="976" r="5" style="fill:blue"/>
<circle cx="1864" cy="960" r="5" style="fill:blue"/>
<circle cx="3757" cy="2034" r="5" style="fill:blue"/>
<circle cx="4130" cy="283" r="5" style="fill:blue"/>
<circle cx="3783" cy="180" r="5" style="fill:blue"/>
<circle cx="4233" cy="2202" r="5" style="fill:blue"/>
<circle cx="4228" cy="893" r="5" style="fill:blue"/>
<circle cx="414" cy="893" r="5" style="fill:blue"/>
<circle cx="2364" cy="837" r="5" style="fill:blue"/>
<circle cx="4668" cy="248" r="5" style="fill:blue"/>
<circle cx="1948" cy="552" r="5" style="fill:blue"/>
<circle cx="3982" cy="1908" r="5" style="fill:blue"/>
<circle cx="3137" cy="824" r="5" style="fill:blue"/>
<circle cx="2267" cy="704" r="5" style="fill:blue"/>
<circle cx="474" cy="815" r="5" style="fill:blue"/>
<circle cx="3196" cy="1861" r="5" style="fill:blue"/>
<circle cx="1869" cy="2572" r="5" style="fill:blue"/>
<circle cx="110" cy="328" r="5" style="fill:blue"/>
<circle cx="1210" cy="2564" r="5" style="fill:blue"/>
<circle cx="4756" cy="2482" r="5" style="fill:blue"/>
<circle cx="1359" cy="1921" r="5" style="fill:blue"/>
<circle cx="793" cy="1271" r="5" style="fill:blue"/>
<circle cx="339" cy="1569" r="5" style="fill:blue"/>
<circle cx="75" cy="1052" r="5" style="fill:blue"/>
<circle cx="219" cy="1323" r="5" style="fill:blue"/>
<circle cx="4695" cy="2440" r="5" style="fill:blue"/>
<circle cx="4708" cy="287" r="5" style="fill:blue"/>
<circle cx="2758" cy="606" r="5" style="fill:blue"/>
<circle cx="4616" cy="1041" r="5" style="fill:blue"/>
<circle cx="14" cy="1534" r="5" style="fill:blue"/>
<circle cx="2877" cy="1863" r="5" style="fill:blue"/>
<circle cx="2749" cy="430" r="5" style="fill:blue"/>
<circle cx="4753" cy="103" r="5" style="fill:blue"/>
<circle cx="3350" cy="516" r="5" style="fill:blue"/>
<circle cx="1378" cy="441" r="5" style="fill:blue"/>
<circle cx="3298" cy="419" r="5" style="fill:blue"/>
<circle cx="3931" cy="2049" r="5" style="fill:blue"/>
<circle cx="937" cy="672" r="5" style="fill:blue"/>
<circle cx="2629" cy="1306" r="5" style="fill:blue"/>
<circle cx="2029" cy="920" r="5" style="fill:blue"/>
<circle cx="2262" cy="1203" r="5" style="fill:blue"/>
<circle cx="3718" cy="542" r="5" style="fill:blue"/>
<circle cx="188" cy="111" r="5" style="fill:blue"/>
<circle cx="4115" cy="2513" r="5" style="fill:blue"/>
<circle cx="226" cy="382" r="5" style="fill:blue"/>
<circle cx="4671" cy="1653" r="5" style="fill:blue"/>
<circle cx="4502" cy="2081" r="5" style="fill:blue"/>
<circle cx="3993" cy="416" r="5" style="fill:blue"/>
<circle cx="2250" cy="158" r="5" style="fill:blue"/>
<circle cx="1149" cy="1566" r="5" style="fill:blue"/>
<circle cx="1247" cy="2028" r="5" style="fill:blue"/>
<circle cx="2915" cy="1220" r="5" style="fill:blue"/>
<circle cx="4122" cy="1089" r="5" style="fill:blue"/>
<circle cx="42" cy="2463" r="5" style="fill:blue"/>
<circle cx="690" cy="132" r="5" style="fill:blue"/>
<circle cx="4549" cy="723" r="5" style="fill:blue"/>
<circle cx="3413" cy="2549" r="5" style="fill:blue"/>
<circle cx="3748" cy="2128" r="5" style="fill:blue"/>
<circle cx="2481" cy="889" r="5" style="fill:blue"/>
<circle cx="4045" cy="119" r="5" style="fill:blue"/>
<circle cx="1204" cy="2016" r="5" style="fill:blue"/>
<circle cx="763" cy="1335" r="5" style="fill:blue"/>
<circle cx="3379" cy="655" r="5" style="fill:blue"/>
<circle cx="2028" cy="1296" r="5" style="fill:blue"/>
<circle cx="2175" cy="1649" r="5" style="fill:blue"/>
<circle cx="2631" cy="140" r="5" style="fill:blue"/>
<circle cx="3532" cy="2382" r="5" style="fill:blue"/>
<circle cx="167" cy="968" r="5" style="fill:blue"/>
<circle cx="4096" cy="2559" r="5" style="fill:blue"/>
<circle cx="704" cy="599" r="5" style="fill:blue"/>
<circle cx="1182" cy="2146" r="5" style="fill:blue"/>
<circle cx="3534" cy="852" r="5" style="fill:blue"/>
<circle cx="2103" cy="694" r="5" style="fill:blue"/>
<circle cx="3676" cy="2120" r="5" style="fill:blue"/>
<circle cx="104" cy="1053" r="5" style="fill:blue"/>
<circle cx="4410" cy="1083" r="5" style="fill:blue"/>
<circle cx="2268" cy="847" r="5" style="fill:blue"/>
<circle cx="932" cy="990" r="5" style="fill:blue"/>
<circle cx="2599" cy="2" r="5" style="fill:blue"/>
<circle cx="3838" cy="1657" r="5" style="fill:blue"/>
<circle cx="744" cy="532" r="5" style="fill:blue"/>
<circle cx="830" cy="1179" r="5" style="fill:blue"/>
<circle cx="2678" cy="1518" r="5" style="fill:blue"/>
<circle cx="739" cy="1460" r="5" style="fill:blue"/>
<circle cx="4750" cy="2219" r="5" style="fill:blue"/>
<circle cx="4752" cy="682" r="5" style="fill:blue"/>
<circle cx="2106" cy="989" r="5" style="fill:blue"/>
<circle cx="4375" cy="961" r="5" style="fill:blue"/>
<circle cx="877" cy="2022" r="5" style="fill:blue"/>
<circle cx="211" cy="1906" r="5" style="fill:blue"/>
<circle cx="2573" cy="2571" r="5" style="fill:blue"/>
<circle cx="4038" cy="2559" r="5" style="fill:blue"/>
<circle cx="2114" cy="315" r="5" style="fill:blue"/>
<circle cx="2230" cy="611" r="5" style="fill:blue"/>
<circle cx="2283" cy="2217" r="5" style="fill:blue"/>
<circle cx="2167" cy="716" r="5" style="fill:blue"/>
<circle cx="3566" cy="1356" r="5" style="fill:blue"/>
<circle cx="2178" cy="140" r="5" style="fill:blue"/>
<circle cx="882" cy="1508" r="5" style="fill:blue"/>
<circle cx="3856" cy="840" r="5" style="fill:blue"/>
<circle cx="3905" cy="2351" r="5" style="fill:blue"/>
<circle cx="959" cy="1536" r="5" style="fill:blue"/>
<circle cx="499" cy="713" r="5" style="fill:blue"/>
<circle cx="536" cy="949" r="5" style="fill:blue"/>
<circle cx="3697" cy="1266" r="5" style="fill:blue"/>
<circle cx="4618" cy="2525" r="5" style="fill:blue"/>
<circle cx="4021" cy="1185" r="5" style="fill:blue"/>
<circle cx="2246" cy="655" r="5" style="fill:blue"/>
<circle cx="4161" cy="1880" r="5" style="fill:blue"/>
<circle cx="4622" cy="1179" r="5" style="fill:blue"/>
<circle cx="3696" cy="1937" r="5" style="fill:blue"/>
<circle cx="17" cy="1425" r="5" style="fill:blue"/>
<circle cx="4252" cy="1812" r="5" style="fill:blue"/>
<circle cx="3914" cy="2347" r="5" style="fill:blue"/>
<circle cx="1686" cy="2488" r="5" style="fill:blue"/>
<circle cx="3964" cy="1107" r="5" style="fill:blue"/>
<circle cx="4625" cy="2131" r="5" style="fill:blue"/>
<circle cx="3457" cy="648" r="5" style="fill:blue"/>
<circle cx="354" cy="1835" r="5" style="fill:blue"/>
<circle cx="3317" cy="2275" r="5" style="fill:blue"/>
<circle cx="2515" cy="356" r="5" style="fill:blue"/>
<circle cx="2408" cy="163" r="5" style="fill:blue"/>
<circle cx="1058" cy="2507" r="5" style="fill:blue"/>
<circle cx="2686" cy="2072" r="5" style="fill:blue"/>
<circle cx="1120" cy="763" r="5" style="fill:blue"/>
<circle cx="1383" cy="1122" r="5" style="fill:blue"/>
<circle cx="392" cy="484" r="5" style="fill:blue"/>
<circle cx="2948" cy="547" r="5" style="fill:blue"/>
<circle cx="4406" cy="424" r="5" style="fill:blue"/>
<circle cx="937" cy="73" r="5" style="fill:blue"/>
<circle cx="3506" cy="1318" r="5" style="fill:blue"/>
<circle cx="1231" cy="593" r="5" style="fill:blue"/>
<circle cx="1374" cy="1849" r="5" style="fill:blue"/>
<circle cx="3880" cy="1079" r="5" style="fill:blue"/>
<circle cx="4621" cy="2569" r="5" style="fill:blue"/>
<circle cx="2227" cy="1909" r="5" style="fill:blue"/>
<circle cx="1105" cy="741" r="5" style="fill:blue"/>
<circle cx="1285" cy="500" r="5" style="fill:blue"/>
<circle cx="3469" cy="569" r="5" style="fill:blue"/>
<circle cx="2827" cy="1840" r="5" style="fill:blue"/>
<circle cx="1440" cy="1059" r="5" style="fill:blue"/>
<circle cx="969" cy="1091" r="5" style="fill:blue"/>
<circle cx="4295" cy="1315" r="5" style="fill:blue"/>
<circle cx="1185" cy="2083" r="5" style="fill:blue"/>
<circle cx="3613" cy="769" r="5" style="fill:blue"/>
<circle cx="1991" cy="2114" r="5" style="fill:blue"/>
<circle cx="3082" cy="2160" r="5" style="fill:blue"/>
<circle cx="1653" cy="71" r="5" style="fill:blue"/>
<circle cx="2997" cy="91" r="5" style="fill:blue"/>
<circle cx="2273" cy="489" r="5" style="fill:blue"/>
<circle cx="39" cy="481" r="5" style="fill:blue"/>
<circle cx="1008" cy="797" r="5" style="fill:blue"/>
<circle cx="2374" cy="1221" r="5" style="fill:blue"/>
<circle cx="535" cy="1344" r="5" style="fill:blue"/>
<circle cx="2714" cy="1343" r="5" style="fill:blue"/>
<circle cx="256" cy="1213" r="5" style="fill:blue"/>
<circle cx="4662" cy="588" r="5" style="fill:blue"/>
<circle cx="1920" cy="2501" r="5" style="fill:blue"/>
<circle cx="2003" cy="1763" r="5" style="fill:blue"/>
<circle cx="1959" cy="2263" r="5" style="fill:blue"/>
<circle cx="1284" cy="1126" r="5" style="fill:blue"/>
<circle cx="913" cy="737" r="5" style="fill:blue"/>
<circle cx="307" cy="616" r="5" style="fill:blue"/>
<circle cx="4214" cy="1216" r="5" style="fill:blue"/>
<circle cx="1502" cy="997" r="5" style="fill:blue"/>
<circle cx="2595" cy="2071" r="5" style="fill:blue"/>
<circle cx="221" cy="1570" r="5" style="fill:blue"/>
<circle cx="2394" cy="308" r="5" style="fill:blue"/>
<circle cx="3768" cy="399" r="5" style="fill:blue"/>
<circle cx="3018" cy="2132" r="5" style="fill:blue"/>
<circle cx="3111" cy="397" r="5" style="fill:blue"/>
<circle cx="348" cy="1839" r="5" style="fill:blue"/>
<circle cx="360" cy="1016" r="5" style="fill:blue"/>
<circle cx="2251" cy="1633" r="5" style="fill:blue"/>
<circle cx="1281" cy="2013" r="5" style="fill:blue"/>
<circle cx="2459" cy="2102" r="5" style="fill:blue"/>
<circle cx="538" cy="132" r="5" style="fill:blue"/>
<circle cx="3040" cy="2067" r="5" style="fill:blue"/>
<circle cx="4564" cy="1761" r="5" style="fill:blue"/>
<circle cx="805" cy="1064" r="5" style="fill:blue"/>
<circle cx="453" cy="1132" r="5" style="fill:blue"/>
<circle cx="2010" cy="134" r="5" style="fill:blue"/>
<circle cx="3162" cy="2563" r="5" style="fill:blue"/>
<circle cx="3164" cy="821" r="5" style="fill:blue"/>
<circle cx="213" cy="383" r="5" style="fill:blue"/>
<circle cx="4406" cy="1894" r="5" style="fill:blue"/>
<circle cx="1691" cy="1527" r="5" style="fill:blue"/>
<circle cx="4077" cy="2210" r="5" style="fill:blue"/>
<circle cx="3307" cy="2179" r="5" style="fill:blue"/>
<circle cx="1568" cy="1306" r="5" style="fill:blue"/>
<circle cx="3063" cy="2028" r="5" style="fill:blue"/>
<circle cx="3682" cy="461" r="5" style="fill:blue"/>
<circle cx="4455" cy="2565" r="5" style="fill:blue"/>
<circle cx="215" cy="1495" r="5" style="fill:blue"/>
<circle cx="731" cy="966" r="5" style="fill:blue"/>
<circle cx="834" cy="488" r="5" style="fill:blue"/>
<circle cx="782" cy="1772" r="5" style="fill:blue"/>
<circle cx="1509" cy="2341" r="5" style="fill:blue"/>
<circle cx="1547" cy="1460" r="5" style="fill:blue"/>
<circle cx="2217" cy="2061" r="5" style="fill:blue"/>
<circle cx="1103" cy="1241" r="5" style="fill:blue"/>
<circle cx="4390" cy="645" r="5" style="fill:blue"/>
<circle cx="2101" cy="2153" r="5" style="fill:blue"/>
<circle cx="4361" cy="1103" r="5" style="fill:blue"/>
<circle cx="2347" cy="1463" r="5" style="fill:blue"/>
<circle cx="2464" cy="396" r="5" style="fill:blue"/>
<circle cx="708" cy="1394" r="5" style="fill:blue"/>
<circle cx="4412" cy="128" r="5" style="fill:blue"/>
<circle cx="3100" cy="448" r="5" style="fill:blue"/>
<circle cx="2854" cy="636" r="5" style="fill:blue"/>
<circle cx="745" cy="846" r="5" style="fill:blue"/>
<circle cx="2503" cy="1056" r="5" style="fill:blue"/>
<circle cx="4387" cy="2455" r="5" style="fill:blue"/>
<circle cx="1810" cy="2518" r="5" style="fill:blue"/>
<circle cx="436" cy="677" r="5" style="fill:blue"/>
<circle cx="1390" cy="2395" r="5" style="fill:blue"/>
<circle cx="3448" cy="965" r="5" style="fill:blue"/>
<circle cx="374" cy="1207" r="5" style="fill:blue"/>
<circle cx="2574" cy="1545" r="5" style="fill:blue"/>
<circle cx="1252" cy="1023" r="5" style="fill:blue"/>
<circle cx="833" cy="748" r="5" style="fill:blue"/>
<circle cx="1819" cy="2228" r="5" style="fill:blue"/>
<circle cx="827" cy="2118" r="5" style="fill:blue"/>
<circle cx="357" cy="1636" r="5" style="fill:blue"/>
<circle cx="3569" cy="1771" r="5" style="fill:blue"/>
<circle cx="2044" cy="1138" r="5" style="fill:blue"/>
<circle cx="2482" cy="2071" r="5" style="fill:blue"/>
<circle cx="2116" cy="1897" r="5" style="fill:blue"/>
<circle cx="1949" cy="1610" r="5" style="fill:blue"/>
<circle cx="4659" cy="1806" r="5" style="fill:blue"/>
<circle cx="552" cy="2329" r="5" style="fill:blue"/>
<circle cx="2" cy="862" r="5" style="fill:blue"/>
<circle cx="2493" cy="920" r="5" style="fill:blue"/>
<circle cx="3240" cy="2514" r="5" style="fill:blue"/>
<circle cx="4237" cy="1740" r="5" style="fill:blue"/>
<circle cx="3161" cy="455" r="5" style="fill:blue"/>
<circle cx="1981" cy="2130" r="5" style="fill:blue"/>
<circle cx="3883" cy="1755" r="5" style="fill:blue"/>
<circle cx="1226" cy="1430" r="5" style="fill:blue"/>
<circle cx="2146" cy="981" r="5" style="fill:blue"/>
<circle cx="3006" cy="2166" r="5" style="fill:blue"/>
<circle cx="2022" cy="2110" r="5" style="fill:blue"/>
<circle cx="353" cy="298" r="5" style="fill:blue"/>
<circle cx="1144" cy="2016" r="5" style="fill:blue"/>
<circle cx="3796" cy="1707" r="5" style="fill:blue"/>
<circle cx="652" cy="1018" r="5" style="fill:blue"/>
<circle cx="4059" cy="1239" r="5" style="fill:blue"/>
<circle cx="4063" cy="2019" r="5" style="fill:blue"/>
<circle cx="4546" cy="1725" r="5" style="fill:blue"/>
<circle cx="267" cy="1168" r="5" style="fill:blue"/>
<circle cx="1788" cy="2361" r="5" style="fill:blue"/>
<circle cx="4362" cy="30" r="5" style="fill:blue"/>
<circle cx="3709" cy="39" r="5" style="fill:blue"/>
<circle cx="3392" cy="2003" r="5" style="fill:blue"/>
<circle cx="4117" cy="1753" r="5" style="fill:blue"/>
<circle cx="3364" cy="1127" r="5" style="fill:blue"/>
<circle cx="2237" cy="2242" r="5" style="fill:blue"/>
<circle cx="243" cy="1560" r="5" style="fill:blue"/>
<circle cx="1587" cy="1478" r="5" style="fill:blue"/>
<circle cx="4721" cy="2136" r="5" style="fill:blue"/>
<circle cx="4463" cy="853" r="5" style="fill:blue"/>
<circle cx="2655" cy="2052" r="5" style="fill:blue"/>
<circle cx="3578" cy="2372" r="5" style="fill:blue"/>
<circle cx="4511" cy="408" r="5" style="fill:blue"/>
<circle cx="2271" cy="108" r="5" style="fill:blue"/>
<circle cx="2419" cy="1390" r="5" style="fill:blue"/>
<circle cx="3582" cy="1732" r="5" style="fill:blue"/>
<circle cx="142" cy="2044" r="5" style="fill:blue"/>
<circle cx="1676" cy="2002" r="5" style="fill:blue"/>
<circle cx="743" cy="1303" r="5" style="fill:blue"/>
<circle cx="1650" cy="335" r="5" style="fill:blue"/>
<circle cx="3366" cy="2064" r="5" style="fill:blue"/>
<circle cx="3025" cy="663" r="5" style="fill:blue"/>
<circle cx="4669" cy="1288" r="5" style="fill:blue"/>
<circle cx="1535" cy="778" r="5" style="fill:blue"/>
<circle cx="354" cy="2325" r="5" style="fill:blue"/>
<circle cx="2912" cy="160" r="5" style="fill:blue"/>
<circle cx="2835" cy="171" r="5" style="fill:blue"/>
<circle cx="595" cy="983" r="5" style="fill:blue"/>
<circle cx="1554" cy="2119" r="5" style="fill:blue"/>
<circle cx="4114" cy="1610" r="5" style="fill:blue"/>
<circle cx="229" cy="1587" r="5" style="fill:blue"/>
<circle cx="4547" cy="1668" r="5" style="fill:blue"/>
<circle cx="3284" cy="506" r="5" style="fill:blue"/>
<circle cx="4686" cy="2167" r="5" style="fill:blue"/>
<circle cx="3525" cy="598" r="5" style="fill:blue"/>
<circle cx="1709" cy="930" r="5" style="fill:blue"/>
<circle cx="4321" cy="2343" r="5" style="fill:blue"/>
<circle cx="1190" cy="147" r="5" style="fill:blue"/>
<circle cx="967" cy="1525" r="5" style="fill:blue"/>
<circle cx="4720" cy="1279" r="5" style="fill:blue"/>
<circle cx="2374" cy="2055" r="5" style="fill:blue"/>
<circle cx="1851" cy="542" r="5" style="fill:blue"/>
<circle cx="3932" cy="1203" r="5" style="fill:blue"/>
<circle cx="4394" cy="2160" r="5" style="fill:blue"/>
<circle cx="1804" cy="1146" r="5" style="fill:blue"/>
<circle cx="1071" cy="1713" r="5" style="fill:blue"/>
<circle cx="1227" cy="1930" r="5" style="fill:blue"/>
<circle cx="634" cy="438" r="5" style="fill:blue"/>
<circle cx="524" cy="513" r="5" style="fill:blue"/>
<circle cx="1759" cy="1333" r="5" style="fill:blue"/>
<circle cx="1760" cy="109" r="5" style="fill:blue"/>
<circle cx="1992" cy="1062" r="5" style="fill:blue"/>
<circle cx="1940" cy="948" r="5" style="fill:blue"/>
<circle cx="4404" cy="2189" r="5" style="fill:blue"/>
<circle cx="2283" cy="2428" r="5" style="fill:blue"/>
<circle cx="2804" cy="1512" r="5" style="fill:blue"/>
<circle cx="2503" cy="2073" r="5" style="fill:blue"/>
<circle cx="707" cy="434" r="5" style="fill:blue"/>
<circle cx="3507" cy="147" r="5" style="fill:blue"/>
<circle cx="4075" cy="709" r="5" style="fill:blue"/>
<circle cx="1207" cy="515" r="5" style="fill:blue"/>
<circle cx="2390" cy="718" r="5" style="fill:blue"/>
<circle cx="3732" cy="957" r="5" style="fill:blue"/>
<circle cx="4188" cy="841" r="5" style="fill:blue"/>
<circle cx="2837" cy="1827" r="5" style="fill:blue"/>
<circle cx="802" cy="45" r="5" style="fill:blue"/>
<circle cx="551" cy="1127" r="5" style="fill:blue"/>
<circle cx="2073" cy="2102" r="5" style="fill:blue"/>
<circle cx="1159" cy="614" r="5" style="fill:blue"/>
<circle cx="618" cy="266" r="5" style="fill:blue"/>
<circle cx="1772" cy="2498" r="5" style="fill:blue"/>
<circle cx="4223" cy="2222" r="5" style="fill:blue"/>
<circle cx="2014" cy="1975" r="5" style="fill:blue"/>
<circle cx="4409" cy="630" r="5" style="fill:blue"/>
<circle cx="3665" cy="2159" r="5" style="fill:blue"/>
<circle cx="1622" cy="2311" r="5" style="fill:blue"/>
<circle cx="3549" cy="1967" r="5" style="fill:blue"/>
<circle cx="2593" cy="1615" r="5" style="fill:blue"/>
<circle cx="3450" cy="178" r="5" style="fill:blue"/>
<circle cx="2533" cy="1402" r="5" style="fill:blue"/>
<circle cx="3795" cy="816" r="5" style="fill:blue"/>
<circle cx="133" cy="1821" r="5" style="fill:blue"/>
<circle cx="173" cy="1219" r="5" style="fill:blue"/>
<circle cx="819" cy="2496" r="5" style="fill:blue"/>
<circle cx="2056" cy="2426" r="5" style="fill:blue"/>
<circle cx="1825" cy="1236" r="5" style="fill:blue"/>
<circle cx="3482" cy="1028" r="5" style="fill:blue"/>
<circle cx="2803" cy="501" r="5" style="fill:blue"/>
<circle cx="433" cy="1007" r="5" style="fill:blue"/>
<circle cx="2231" cy="1390" r="90" style="stroke-width:5;fill:gray;fill-opacity:0.3"/>
<circle cx="2346" cy="1634" r="94" style="stroke-width:5;fill:gray;fill-opacity:0.3"/>
<circle cx="2138" cy="519" r="91" style="stroke-width:5;fill:gray;fill-opacity:0.3"/>
<circle cx="942" cy="126" r="43" style="stroke-width:5;fill:gray;fill-opacity:0.3"/>
<circle cx="1128" cy="978" r="65" style="stroke-width:5;fill:gray;fill-opacity:0.3"/>
<circle cx="3028" cy="1945" r="6" style="stroke-width:5;fill:gray;fill-opacity:0.3"/>
<circle cx="3257" cy="2377" r="91" style="stroke-width:5;fill:gray;fill-opacity:0.3"/>
<circle cx="3593" cy="397" r="100" style="stroke-width:5;fill:gray;fill-opacity:0.3"/>
<circle cx="3268" cy="1117" r="90" style="stroke-width:5;fill:gray;fill-opacity:0.3"/>
<circle cx="520" cy="180" r="34" style="stroke-width:5;fill:gray;fill-opacity:0.3"/>
<circle cx="3038" cy="337" r="57" style="stroke-width:5;fill:gray;fill-opacity:0.3"/>
<circle cx="354" cy="902" r="29" style="stroke-width:5;fill:gray;fill-opacity:0.3"/>
<circle cx="1724" cy="1201" r="55" style="stroke-width:5;fill:gray;fill-opacity:0.3"/>
<circle cx="2524" cy="114" r="42" style="stroke-width:5;fill:gray;fill-opacity:0.3"/>
<circle cx="3552" cy="437" r="51" style="stroke-width:5;fill:gray;fill-opacity:0.3"/>
<circle cx="1490" cy="2201" r="89" style="stroke-width:5;fill:gray;fill-opacity:0.3"/>
<circle cx="3055" cy="1877" r="39" style="stroke-width:5;fill:gray;fill-opacity:0.3"/>
<circle cx="676" cy="877" r="13" style="stroke-width:5;fill:gray;fill-opacity:0.3"/>
<circle cx="3345" cy="1541" r="20" style="stroke-width:5;fill:gray;fill-opacity:0.3"/>
<circle cx="1953" cy="469" r="33" style="stroke-width:5;fill:gray;fill-opacity:0.3"/>
<circle cx="86" cy="1770" r="40" style="stroke-width:5;fill:gray;fill-opacity:0.3"/>
<circle cx="4584" cy="1429" r="100" style="stroke-width:5;fill:gray;fill-opacity:0.3"/>
<circle cx="656" cy="2468" r="7" style="stroke-width:5;fill:gray;fill-opacity:0.3"/>
<circle cx="1296" cy="307" r="93" style="stroke-width:5;fill:gray;fill-opacity:0.3"/>
<circle cx="2076" cy="1221" r="39" style="stroke-width:5;fill:gray;fill-opacity:0.3"/>
<circle cx="1191" cy="1270" r="78" style="stroke-width:5;fill:gray;fill-opacity:0.3"/>
<circle cx="4558" cy="1318" r="34" style="stroke-width:5;fill:gray;fill-opacity:0.3"/>
<circle cx="1775" cy="1429" r="53" style="stroke-width:5;fill:gray;fill-opacity:0.3"/>
<circle cx="3428" cy="1995" r="36" style="stroke-width:5;fill:gray;fill-opacity:0.3"/>
<circle cx="922" cy="353" r="28" style="stroke-width:5;fill:gray;fill-opacity:0.3"/>
<circle cx="731" cy="554" r="23" style="stroke-width:5;fill:gray;fill-opacity:0.3"/>
<circle cx="195" cy="1228" r="10" style="stroke-width:5;fill:gray;fill-opacity:0.3"/>
<circle cx="1015" cy="572" r="54" style="stroke-width:5;fill:gray;fill-opacity:0.3"/>
<circle cx="2583" cy="2346" r="46" style="stroke-width:5;fill:gray;fill-opacity:0.3"/>
<circle cx="3156" cy="1102" r="27" style="stroke-width:5;fill:gray;fill-opacity:0.3"/>
<circle cx="1932" cy="181" r="90" style="stroke-width:5;fill:gray;fill-opacity:0.3"/>
<circle cx="1543" cy="123" r="101" style="stroke-width:5;fill:gray;fill-opacity:0.3"/>
<circle cx="1059" cy="618" r="7" style="stroke-width:5;fill:gray;fill-opacity:0.3"/>
<circle cx="4187" cy="2174" r="50" style="stroke-width:5;fill:gray;fill-opacity:0.3"/>
<circle cx="4637" cy="1497" r="26" style="stroke-width:5;fill:gray;fill-opacity:0.3"/>
<circle cx="2709" cy="678" r="58" style="stroke-width:5;fill:gray;fill-opacity:0.3"/>
<circle cx="2983" cy="1423" r="79" style="stroke-width:5;fill:gray;fill-opacity:0.3"/>
<circle cx="2693" cy="1728" r="79" style="stroke-width:5;fill:gray;fill-opacity:0.3"/>
<circle cx="301" cy="1428" r="66" style="stroke-width:5;fill:gray;fill-opacity:0.3"/>
<circle cx="4586" cy="1252" r="72" style="stroke-width:5;fill:gray;fill-opacity:0.3"/>
<circle cx="4367" cy="2090" r="64" style="stroke-width:5;fill:gray;fill-opacity:0.3"/>
<circle cx="4516" cy="1950" r="75" style="stroke-width:5;fill:gray;fill-opacity:0.3"/>
<circle cx="336" cy="719" r="62" style="stroke-width:5;fill:gray;fill-opacity:0.3"/>
<circle cx="2018" cy="359" r="63" style="stroke-width:5;fill:gray;fill-opacity:0.3"/>
<circle cx="679" cy="1357" r="45" style="stroke-width:5;fill:gray;fill-opacity:0.3"/>
<circle cx="2383" cy="1508" r="14" style="stroke-width:5;fill:gray;fill-opacity:0.3"/>
<circle cx="3368" cy="1616" r="63" style="stroke-width:5;fill:gray;fill-opacity:0.3"/>
<circle cx="683" cy="526" r="7" style="stroke-width:5;fill:gray;fill-opacity:0.3"/>
<circle cx="665" cy="2438" r="79" style="stroke-width:5;fill:gray;fill-opacity:0.3"/>
<circle cx="4291" cy="1869" r="63" style="stroke-width:5;fill:gray;fill-opacity:0.3"/>
<circle cx="2636" cy="1066" r="61" style="stroke-width:5;fill:gray;fill-opacity:0.3"/>
<circle cx="4268" cy="1642" r="63" style="stroke-width:5;fill:gray;fill-opacity:0.3"/>
</svg>