<svg viewBox="0 0 4172 6853" xmlns="http://www.w3.org/2000/svg">
<rect height="2237" style="stroke:pink;stroke-width:10;fill:gray;fill-opacity:0.1;stroke-opacity:0.9" width="422" x="1022" y="4217"/>
<circle cx="3380" cy="2343" r="5" style="fill:blue"/>
<circle cx="997" cy="2903" r="5" style="fill:blue"/>
<circle cx="2861" cy="2490" r="5" style="fill:blue"/>
<circle cx="2335" cy="4367" r="5" style="fill:blue"/>
<circle cx="3476" cy="1389" r="5" style="fill:blue"/>
<circle cx="670" cy="1102" r="5" style="fill:blue"/>
<circle cx="578" cy="5507" r="5" style="fill:blue"/>
<circle cx="2853" cy="275" r="5" style="fill:blue"/>
<circle cx="1686" cy="3901" r="5" style="fill:blue"/>
<circle cx="1883" cy="6081" r="5" style="fill:blue"/>
<circle cx="3310" cy="2701" r="5" style="fill:blue"/>
<circle cx="1390" cy="6491" r="5" style="fill:blue"/>
<circle cx="1661" cy="215" r="5" style="fill:blue"/>
<circle cx="1165" cy="630" r="5" style="fill:blue"/>
<circle cx="2805" cy="855" r="5" style="fill:blue"/>
<circle cx="1905" cy="481" r="5" style="fill:blue"/>
<circle cx="3584" cy="3797" r="5" style="fill:blue"/>
<circle cx="1661" cy="5707" r="5" style="fill:blue"/>
<circle cx="475" cy="5119" r="5" style="fill:blue"/>
<circle cx="1867" cy="6064" r="5" style="fill:blue"/>
<circle cx="2750" cy="2058" r="5" style="fill:blue"/>
<circle cx="2127" cy="200" r="5" style="fill:blue"/>
<circle cx="4150" cy="3971" r="5" style="fill:blue"/>
<circle cx="2741" cy="6595" r="5" style="fill:blue"/>
<circle cx="3178" cy="6062" r="5" style="fill:blue"/>
<circle cx="2645" cy="2716" r="5" style="fill:blue"/>
<circle cx="2774" cy="2697" r="5" style="fill:blue"/>
<circle cx="1122" cy="1567" r="5" style="fill:blue"/>
<circle cx="3482" cy="62" r="5" style="fill:blue"/>
<circle cx="2099" cy="1776" r="5" style="fill:blue"/>
<circle cx="1914" cy="1237" r="5" style="fill:blue"/>
<circle cx="1467" cy="1568" r="5" style="fill:blue"/>
<circle cx="3620" cy="4604" r="5" style="fill:blue"/>
<circle cx="184" cy="1001" r="5" style="fill:blue"/>
<circle cx="2883" cy="2819" r="5" style="fill:blue"/>
<circle cx="1568" cy="3373" r="5" style="fill:blue"/>
<circle cx="324" cy="1799" r="5" style="fill:blue"/>
<circle cx="431" cy="1642" r="5" style="fill:blue"/>
<circle cx="2652" cy="4552" r="5" style="fill:blue"/>
<circle cx="411" cy="1241" r="5" style="fill:blue"/>
<circle cx="4022" cy="5305" r="5" style="fill:blue"/>
<circle cx="151" cy="1419" r="5" style="fill:blue"/>
<circle cx="2385" cy="3069" r="5" style="fill:blue"/>
<circle cx="3585" cy="760" r="5" style="fill:blue"/>
<circle cx="459" cy="2841" r="5" style="fill:blue"/>
<circle cx="1443" cy="3622" r="5" style="fill:blue"/>
<circle cx="2676" cy="3378" r="5" style="fill:blue"/>
<circle cx="181" cy="187" r="5" style="fill:blue"/>
<circle cx="3777" cy="3669" r="5" style="fill:blue"/>
<circle cx="1715" cy="2467" r="5" style="fill:blue"/>
<circle cx="3079" cy="2451" r="5" style="fill:blue"/>
<circle cx="4077" cy="215" r="5" style="fill:blue"/>
<circle cx="1806" cy="702" r="5" style="fill:blue"/>
<circle cx="715" cy="5851" r="5" style="fill:blue"/>
<circle cx="448" cy="432" r="5" style="fill:blue"/>
<circle cx="68" cy="4884" r="5" style="fill:blue"/>
<circle cx="329" cy="5093" r="5" style="fill:blue"/>
<circle cx="1602" cy="1430" r="5" style="fill:blue"/>
<circle cx="2754" cy="6502" r="5" style="fill:blue"/>
<circle cx="4090" cy="3902" r="5" style="fill:blue"/>
<circle cx="428" cy="68" r="5" style="fill:blue"/>
<circle cx="89" cy="2946" r="5" style="fill:blue"/>
<circle cx="2596" cy="2347" r="5" style="fill:blue"/>
<circle cx="2509" cy="2555" r="5" style="fill:blue"/>
<circle cx="2468" cy="6450" r="5" style="fill:blue"/>
<circle cx="2532" cy="343" r="5" style="fill:blue"/>
<circle cx="1771" cy="4750" r="5" style="fill:blue"/>
<circle cx="2801" cy="6728" r="5" style="fill:blue"/>
<circle cx="2517" cy="6100" r="5" style="fill:blue"/>
<circle cx="357" cy="1851" r="5" style="fill:blue"/>
<circle cx="781" cy="5587" r="5" style="fill:blue"/>
<circle cx="2443" cy="2783" r="5" style="fill:blue"/>
<circle cx="2083" cy="3247" r="5" style="fill:blue"/>
<circle cx="3915" cy="2446" r="5" style="fill:blue"/>
<circle cx="3102" cy="4562" r="5" style="fill:blue"/>
<circle cx="3435" cy="6436" r="5" style="fill:blue"/>
<circle cx="730" cy="368" r="5" style="fill:blue"/>
<circle cx="758" cy="3112" r="5" style="fill:blue"/>
<circle cx="3136" cy="5103" r="5" style="fill:blue"/>
<circle cx="1696" cy="4126" r="5" style="fill:blue"/>
<circle cx="2142" cy="1263" r="5" style="fill:blue"/>
<circle cx="3169" cy="2331" r="5" style="fill:blue"/>
<circle cx="1601" cy="2897" r="5" style="fill:blue"/>
<circle cx="1990" cy="3448" r="5" style="fill:blue"/>
<circle cx="1234" cy="6558" r="5" style="fill:blue"/>
<circle cx="1845" cy="4587" r="5" style="fill:blue"/>
<circle cx="1372" cy="2189" r="5" style="fill:blue"/>
<circle cx="1766" cy="4055" r="5" style="fill:blue"/>
<circle cx="1994" cy="911" r="5" style="fill:blue"/>
<circle cx="4122" cy="4797" r="5" style="fill:blue"/>
<circle cx="225" cy="729" r="5" style="fill:blue"/>
<circle cx="1328" cy="3203" r="5" style="fill:blue"/>
<circle cx="3823" cy="6719" r="5" style="fill:blue"/>
<circle cx="3919" cy="94" r="5" style="fill:blue"/>
<circle cx="2292" cy="904" r="5" style="fill:blue"/>
<circle cx="2563" cy="3045" r="5" style="fill:blue"/>
<circle cx="452" cy="122" r="5" style="fill:blue"/>
<circle cx="823" cy="2254" r="5" style="fill:blue"/>
<circle cx="1501" cy="6641" r="5" style="fill:blue"/>
<circle cx="3174" cy="6216" r="5" style="fill:blue"/>
<circle cx="3543" cy="3284" r="5" style="fill:blue"/>
<circle cx="3115" cy="5719" r="5" style="fill:blue"/>
<circle cx="500" cy="1914" r="5" style="fill:blue"/>
<circle cx="3849" cy="5266" r="5" style="fill:blue"/>
<circle cx="3855" cy="937" r="5" style="fill:blue"/>
<circle cx="449" cy="6404" r="5" style="fill:blue"/>
<circle cx="998" cy="758" r="5" style="fill:blue"/>
<circle cx="1326" cy="882" r="5" style="fill:blue"/>
<circle cx="3529" cy="644" r="5" style="fill:blue"/>
<circle cx="1460" cy="1504" r="5" style="fill:blue"/>
<circle cx="4002" cy="6547" r="5" style="fill:blue"/>
<circle cx="3440" cy="5129" r="5" style="fill:blue"/>
<circle cx="1728" cy="5211" r="5" style="fill:blue"/>
<circle cx="3531" cy="2417" r="5" style="fill:blue"/>
<circle cx="1363" cy="6698" r="5" style="fill:blue"/>
<circle cx="1668" cy="1906" r="5" style="fill:blue"/>
<circle cx="196" cy="6298" r="5" style="fill:blue"/>
<circle cx="3061" cy="6290" r="5" style="fill:blue"/>
<circle cx="2401" cy="5402" r="5" style="fill:blue"/>
<circle cx="3854" cy="1470" r="5" style="fill:blue"/>
<circle cx="3421" cy="3424" r="5" style="fill:blue"/>
<circle cx="4038" cy="4111" r="5" style="fill:blue"/>
<circle cx="493" cy="6502" r="5" style="fill:blue"/>
<circle cx="1761" cy="3035" r="5" style="fill:blue"/>
<circle cx="3755" cy="1733" r="5" style="fill:blue"/>
<circle cx="3752" cy="213" r="5" style="fill:blue"/>
<circle cx="1256" cy="1479" r="5" style="fill:blue"/>
<circle cx="1874" cy="4326" r="5" style="fill:blue"/>
<circle cx="975" cy="4618" r="5" style="fill:blue"/>
<circle cx="2555" cy="3525" r="5" style="fill:blue"/>
<circle cx="1584" cy="5049" r="5" style="fill:blue"/>
<circle cx="3101" cy="4133" r="5" style="fill:blue"/>
<circle cx="1073" cy="3883" r="5" style="fill:blue"/>
<circle cx="211" cy="2132" r="5" style="fill:blue"/>
<circle cx="2993" cy="5583" r="5" style="fill:blue"/>
<circle cx="2531" cy="326" r="5" style="fill:blue"/>
<circle cx="1877" cy="3749" r="5" style="fill:blue"/>
<circle cx="1763" cy="3983" r="5" style="fill:blue"/>
<circle cx="690" cy="3700" r="5" style="fill:blue"/>
<circle cx="288" cy="5066" r="5" style="fill:blue"/>
<circle cx="4092" cy="1504" r="5" style="fill:blue"/>
<circle cx="4001" cy="3287" r="5" style="fill:blue"/>
<circle cx="1371" cy="1159" r="5" style="fill:blue"/>
<circle cx="497" cy="6238" r="5" style="fill:blue"/>
<circle cx="2212" cy="5297" r="5" style="fill:blue"/>
<circle cx="3592" cy="1473" r="5" style="fill:blue"/>
<circle cx="200" cy="2923" r="5" style="fill:blue"/>
<circle cx="3061" cy="6471" r="5" style="fill:blue"/>
<circle cx="884" cy="978" r="5" style="fill:blue"/>
<circle cx="2293" cy="5284" r="5" style="fill:blue"/>
<circle cx="4092" cy="6474" r="5" style="fill:blue"/>
<circle cx="1875" cy="2140" r="5" style="fill:blue"/>
<circle cx="3745" cy="6813" r="5" style="fill:blue"/>
<circle cx="94" cy="2054" r="5" style="fill:blue"/>
<circle cx="2456" cy="6074" r="5" style="fill:blue"/>
<circle cx="3482" cy="4382" r="5" style="fill:blue"/>
<circle cx="3909" cy="2214" r="5" style="fill:blue"/>
<circle cx="369" cy="3" r="5" style="fill:blue"/>
<circle cx="407" cy="1262" r="5" style="fill:blue"/>
<circle cx="1364" cy="6621" r="5" style="fill:blue"/>
<circle cx="1048" cy="3961" r="5" style="fill:blue"/>
<circle cx="2629" cy="3849" r="5" style="fill:blue"/>
<circle cx="1765" cy="1427" r="5" style="fill:blue"/>
<circle cx="258" cy="5718" r="5" style="fill:blue"/>
<circle cx="1463" cy="2561" r="5" style="fill:blue"/>
<circle cx="2423" cy="4765" r="5" style="fill:blue"/>
<circle cx="3075" cy="1092" r="5" style="fill:blue"/>
<circle cx="1501" cy="3616" r="5" style="fill:blue"/>
<circle cx="575" cy="4734" r="5" style="fill:blue"/>
<circle cx="1805" cy="5017" r="5" style="fill:blue"/>
<circle cx="2169" cy="6273" r="5" style="fill:blue"/>
<circle cx="1223" cy="1463" r="5" style="fill:blue"/>
<circle cx="2750" cy="2113" r="5" style="fill:blue"/>
<circle cx="3600" cy="6292" r="5" style="fill:blue"/>
<circle cx="539" cy="1527" r="5" style="fill:blue"/>
<circle cx="124" cy="4210" r="5" style="fill:blue"/>
<circle cx="3551" cy="6621" r="5" style="fill:blue"/>
<circle cx="4029" cy="6669" r="5" style="fill:blue"/>
<circle cx="1568" cy="4821" r="5" style="fill:blue"/>
<circle cx="2669" cy="4607" r="5" style="fill:blue"/>
<circle cx="1840" cy="4808" r="5" style="fill:blue"/>
<circle cx="1629" cy="6441" r="5" style="fill:blue"/>
<circle cx="3625" cy="2786" r="5" style="fill:blue"/>
<circle cx="3273" cy="1089" r="5" style="fill:blue"/>
<circle cx="135" cy="6477" r="5" style="fill:blue"/>
<circle cx="2306" cy="1022" r="5" style="fill:blue"/>
<circle cx="1140" cy="1398" r="5" style="fill:blue"/>
<circle cx="2573" cy="6541" r="5" style="fill:blue"/>
<circle cx="2191" cy="3959" r="5" style="fill:blue"/>
<circle cx="338" cy="4395" r="5" style="fill:blue"/>
<circle cx="2960" cy="5846" r="5" style="fill:blue"/>
<circle cx="96" cy="2912" r="5" style="fill:blue"/>
<circle cx="3946" cy="6683" r="5" style="fill:blue"/>
<circle cx="506" cy="1103" r="5" style="fill:blue"/>
<circle cx="2480" cy="971" r="5" style="fill:blue"/>
<circle cx="4081" cy="1355" r="5" style="fill:blue"/>
<circle cx="463" cy="2222" r="5" style="fill:blue"/>
<circle cx="3037" cy="1966" r="5" style="fill:blue"/>
<circle cx="3" cy="1046" r="5" style="fill:blue"/>
<circle cx="3696" cy="5897" r="5" style="fill:blue"/>
<circle cx="1068" cy="3869" r="5" style="fill:blue"/>
<circle cx="2663" cy="2078" r="5" style="fill:blue"/>
<circle cx="3569" cy="5901" r="5" style="fill:blue"/>
<circle cx="80" cy="5293" r="5" style="fill:blue"/>
<circle cx="1051" cy="2217" r="5" style="fill:blue"/>
<circle cx="3317" cy="1505" r="5" style="fill:blue"/>
<circle cx="415" cy="6075" r="5" style="fill:blue"/>
<circle cx="2533" cy="4869" r="5" style="fill:blue"/>
<circle cx="405" cy="4800" r="5" style="fill:blue"/>
<circle cx="827" cy="2464" r="5" style="fill:blue"/>
<circle cx="1749" cy="3103" r="5" style="fill:blue"/>
<circle cx="2712" cy="216" r="5" style="fill:blue"/>
<circle cx="2297" cy="5402" r="5" style="fill:blue"/>
<circle cx="3784" cy="3480" r="5" style="fill:blue"/>
<circle cx="201" cy="1518" r="5" style="fill:blue"/>
<circle cx="2086" cy="3721" r="5" style="fill:blue"/>
<circle cx="711" cy="6249" r="5" style="fill:blue"/>
<circle cx="1879" cy="314" r="5" style="fill:blue"/>
<circle cx="2357" cy="1796" r="5" style="fill:blue"/>
<circle cx="3282" cy="6292" r="5" style="fill:blue"/>
<circle cx="2233" cy="1766" r="5" style="fill:blue"/>
<circle cx="1276" cy="3039" r="5" style="fill:blue"/>
<circle cx="1403" cy="6691" r="5" style="fill:blue"/>
<circle cx="491" cy="2905" r="5" style="fill:blue"/>
<circle cx="2779" cy="2801" r="5" style="fill:blue"/>
<circle cx="1297" cy="2100" r="5" style="fill:blue"/>
<circle cx="1931" cy="3826" r="5" style="fill:blue"/>
<circle cx="522" cy="924" r="5" style="fill:blue"/>
<circle cx="3909" cy="3703" r="5" style="fill:blue"/>
<circle cx="4043" cy="1925" r="5" style="fill:blue"/>
<circle cx="69" cy="2258" r="5" style="fill:blue"/>
<circle cx="3647" cy="638" r="5" style="fill:blue"/>
<circle cx="3495" cy="5789" r="5" style="fill:blue"/>
<circle cx="1522" cy="2338" r="5" style="fill:blue"/>
<circle cx="2656" cy="1268" r="5" style="fill:blue"/>
<circle cx="3356" cy="3344" r="5" style="fill:blue"/>
<circle cx="662" cy="3031" r="5" style="fill:blue"/>
<circle cx="600" cy="107" r="5" style="fill:blue"/>
<circle cx="342" cy="2162" r="5" style="fill:blue"/>
<circle cx="3150" cy="3496" r="5" style="fill:blue"/>
<circle cx="99" cy="1970" r="5" style="fill:blue"/>
<circle cx="981" cy="1925" r="5" style="fill:blue"/>
<circle cx="1828" cy="794" r="5" style="fill:blue"/>
<circle cx="384" cy="1685" r="5" style="fill:blue"/>
<circle cx="3991" cy="89" r="5" style="fill:blue"/>
<circle cx="342" cy="3621" r="5" style="fill:blue"/>
<circle cx="2853" cy="727" r="5" style="fill:blue"/>
<circle cx="2975" cy="252" r="5" style="fill:blue"/>
<circle cx="302" cy="3787" r="5" style="fill:blue"/>
<circle cx="770" cy="1893" r="5" style="fill:blue"/>
<circle cx="770" cy="2168" r="5" style="fill:blue"/>
<circle cx="3043" cy="6488" r="5" style="fill:blue"/>
<circle cx="414" cy="1315" r="5" style="fill:blue"/>
<circle cx="317" cy="6708" r="5" style="fill:blue"/>
<circle cx="825" cy="4553" r="5" style="fill:blue"/>
<circle cx="2649" cy="6067" r="5" style="fill:blue"/>
<circle cx="1420" cy="1371" r="5" style="fill:blue"/>
<circle cx="3032" cy="1445" r="5" style="fill:blue"/>
<circle cx="852" cy="2721" r="5" style="fill:blue"/>
<circle cx="991" cy="6739" r="5" style="fill:blue"/>
<circle cx="641" cy="991" r="5" style="fill:blue"/>
<circle cx="2835" cy="4494" r="5" style="fill:blue"/>
<circle cx="1700" cy="4495" r="5" style="fill:blue"/>
<circle cx="1507" cy="1452" r="5" style="fill:blue"/>
<circle cx="2255" cy="2233" r="5" style="fill:blue"/>
<circle cx="2776" cy="6316" r="5" style="fill:blue"/>
<circle cx="1833" cy="3535" r="5" style="fill:blue"/>
<circle cx="3245" cy="1003" r="5" style="fill:blue"/>
<circle cx="1795" cy="4829" r="5" style="fill:blue"/>
<circle cx="300" cy="5015" r="5" style="fill:blue"/>
<circle cx="1796" cy="6365" r="5" style="fill:blue"/>
<circle cx="3955" cy="2847" r="5" style="fill:blue"/>
<circle cx="98" cy="2843" r="5" style="fill:blue"/>
<circle cx="697" cy="3487" r="5" style="fill:blue"/>
<circle cx="2838" cy="6167" r="5" style="fill:blue"/>
<circle cx="2279" cy="3789" r="5" style="fill:blue"/>
<circle cx="3359" cy="6143" r="5" style="fill:blue"/>
<circle cx="2426" cy="1479" r="5" style="fill:blue"/>
<circle cx="3756" cy="2266" r="5" style="fill:blue"/>
<circle cx="2663" cy="1776" r="5" style="fill:blue"/>
<circle cx="2185" cy="2331" r="5" style="fill:blue"/>
<circle cx="3961" cy="613" r="5" style="fill:blue"/>
<circle cx="2222" cy="3696" r="5" style="fill:blue"/>
<circle cx="1258" cy="4182" r="5" style="fill:blue"/>
<circle cx="3807" cy="5569" r="5" style="fill:blue"/>
<circle cx="3365" cy="3637" r="5" style="fill:blue"/>
<circle cx="799" cy="1696" r="5" style="fill:blue"/>
<circle cx="972" cy="1462" r="5" style="fill:blue"/>
<circle cx="2536" cy="4344" r="5" style="fill:blue"/>
<circle cx="1034" cy="31" r="5" style="fill:blue"/>
<circle cx="2444" cy="1943" r="5" style="fill:blue"/>
<circle cx="2211" cy="3108" r="5" style="fill:blue"/>
<circle cx="2786" cy="4159" r="5" style="fill:blue"/>
<circle cx="3972" cy="6613" r="5" style="fill:blue"/>
<circle cx="2815" cy="2013" r="5" style="fill:blue"/>
<circle cx="2261" cy="5793" r="5" style="fill:blue"/>
<circle cx="1724" cy="4633" r="5" style="fill:blue"/>
<circle cx="3729" cy="166" r="5" style="fill:blue"/>
<circle cx="1794" cy="4312" r="5" style="fill:blue"/>
<circle cx="3587" cy="5089" r="5" style="fill:blue"/>
<circle cx="4058" cy="5204" r="5" style="fill:blue"/>
<circle cx="3201" cy="1779" r="5" style="fill:blue"/>
<circle cx="4021" cy="3322" r="5" style="fill:blue"/>
<circle cx="3464" cy="365" r="5" style="fill:blue"/>
<circle cx="4086" cy="1716" r="5" style="fill:blue"/>
<circle cx="855" cy="2705" r="5" style="fill:blue"/>
<circle cx="523" cy="4671" r="5" style="fill:blue"/>
<circle cx="3087" cy="2172" r="5" style="fill:blue"/>
<circle cx="2091" cy="1659" r="5" style="fill:blue"/>
<circle cx="2015" cy="4797" r="5" style="fill:blue"/>
<circle cx="2845" cy="1748" r="5" style="fill:blue"/>
<circle cx="191" cy="2124" r="5" style="fill:blue"/>
<circle cx="4149" cy="834" r="5" style="fill:blue"/>
<circle cx="4109" cy="5560" r="5" style="fill:blue"/>
<circle cx="3516" cy="3847" r="5" style="fill:blue"/>
<circle cx="454" cy="2858" r="5" style="fill:blue"/>
<circle cx="3522" cy="3705" r="5" style="fill:blue"/>
<circle cx="3602" cy="2938" r="5" style="fill:blue"/>
<circle cx="2285" cy="3058" r="5" style="fill:blue"/>
<circle cx="2622" cy="4066" r="5" style="fill:blue"/>
<circle cx="2227" cy="1818" r="5" style="fill:blue"/>
<circle cx="1902" cy="1712" r="5" style="fill:blue"/>
<circle cx="1596" cy="6162" r="5" style="fill:blue"/>
<circle cx="2595" cy="680" r="5" style="fill:blue"/>
<circle cx="2229" cy="2197" r="5" style="fill:blue"/>
<circle cx="2078" cy="6313" r="5" style="fill:blue"/>
<circle cx="93" cy="3232" r="5" style="fill:blue"/>
<circle cx="2693" cy="5846" r="5" style="fill:blue"/>
<circle cx="686" cy="2250" r="5" style="fill:blue"/>
<circle cx="2932" cy="2919" r="5" style="fill:blue"/>
<circle cx="1021" cy="108" r="5" style="fill:blue"/>
<circle cx="3264" cy="2824" r="5" style="fill:blue"/>
<circle cx="1168" cy="2551" r="5" style="fill:blue"/>
<circle cx="228" cy="4210" r="5" style="fill:blue"/>
<circle cx="3008" cy="4837" r="5" style="fill:blue"/>
<circle cx="3033" cy="4427" r="5" style="fill:blue"/>
<circle cx="2691" cy="78" r="5" style="fill:blue"/>
<circle cx="2699" cy="3290" r="5" style="fill:blue"/>
<circle cx="1447" cy="2120" r="5" style="fill:blue"/>
<circle cx="3201" cy="6536" r="5" style="fill:blue"/>
<circle cx="3691" cy="6506" r="5" style="fill:blue"/>
<circle cx="927" cy="5790" r="5" style="fill:blue"/>
<circle cx="1421" cy="2431" r="5" style="fill:blue"/>
<circle cx="2198" cy="3238" r="5" style="fill:blue"/>
<circle cx="3165" cy="5392" r="5" style="fill:blue"/>
<circle cx="2604" cy="2759" r="5" style="fill:blue"/>
<circle cx="3510" cy="2382" r="5" style="fill:blue"/>
<circle cx="885" cy="258" r="5" style="fill:blue"/>
<circle cx="1527" cy="4678" r="5" style="fill:blue"/>
<circle cx="2759" cy="4043" r="5" style="fill:blue"/>
<circle cx="288" cy="4368" r="5" style="fill:blue"/>
<circle cx="3155" cy="730" r="5" style="fill:blue"/>
<circle cx="750" cy="3895" r="5" style="fill:blue"/>
<circle cx="2913" cy="1386" r="5" style="fill:blue"/>
<circle cx="1969" cy="3323" r="5" style="fill:blue"/>
<circle cx="1155" cy="6837" r="5" style="fill:blue"/>
<circle cx="2936" cy="2580" r="5" style="fill:blue"/>
<circle cx="463" cy="673" r="5" style="fill:blue"/>
<circle cx="3888" cy="5952" r="5" style="fill:blue"/>
<circle cx="2643" cy="2948" r="5" style="fill:blue"/>
<circle cx="365" cy="2543" r="5" style="fill:blue"/>
<circle cx="2757" cy="132" r="5" style="fill:blue"/>
<circle cx="1883" cy="6027" r="5" style="fill:blue"/>
<circle cx="219" cy="5065" r="5" style="fill:blue"/>
<circle cx="3520" cy="6317" r="5" style="fill:blue"/>
<circle cx="670" cy="2312" r="5" style="fill:blue"/>
<circle cx="2735" cy="1586" r="5" style="fill:blue"/>
<circle cx="3514" cy="5937" r="5" style="fill:blue"/>
<circle cx="3562" cy="619" r="5" style="fill:blue"/>
<circle cx="2561" cy="3434" r="5" style="fill:blue"/>
<circle cx="514" cy="5445" r="5" style="fill:blue"/>
<circle cx="1960" cy="926" r="5" style="fill:blue"/>
<circle cx="3862" cy="2701" r="5" style="fill:blue"/>
<circle cx="3678" cy="1118" r="5" style="fill:blue"/>
<circle cx="1828" cy="3617" r="5" style="fill:blue"/>
<circle cx="817" cy="71" r="5" style="fill:blue"/>
<circle cx="2168" cy="3483" r="5" style="fill:blue"/>
<circle cx="1691" cy="5073" r="5" style="fill:blue"/>
<circle cx="1523" cy="6277" r="5" style="fill:blue"/>
<circle cx="3269" cy="373" r="5" style="fill:blue"/>
<circle cx="3680" cy="4757" r="5" style="fill:blue"/>
<circle cx="906" cy="4660" r="5" style="fill:blue"/>
<circle cx="3514" cy="4079" r="5" style="fill:blue"/>
<circle cx="632" cy="3610" r="5" style="fill:blue"/>
<circle cx="2202" cy="200" r="5" style="fill:blue"/>
<circle cx="3420" cy="2815" r="5" style="fill:blue"/>
<circle cx="21" cy="3976" r="5" style="fill:blue"/>
<circle cx="3641" cy="6244" r="5" style="fill:blue"/>
<circle cx="3392" cy="1824" r="5" style="fill:blue"/>
<circle cx="1837" cy="2447" r="5" style="fill:blue"/>
<circle cx="3206" cy="5215" r="5" style="fill:blue"/>
<circle cx="1870" cy="2649" r="5" style="fill:blue"/>
<circle cx="1267" cy="4083" r="5" style="fill:blue"/>
<circle cx="2215" cy="4047" r="5" style="fill:blue"/>
<circle cx="3095" cy="1477" r="5" style="fill:blue"/>
<circle cx="2378" cy="4822" r="5" style="fill:blue"/>
<circle cx="1511" cy="6339" r="5" style="fill:blue"/>
<circle cx="2793" cy="164" r="5" style="fill:blue"/>
<circle cx="2889" cy="2180" r="5" style="fill:blue"/>
<circle cx="150" cy="2664" r="5" style="fill:blue"/>
<circle cx="1660" cy="714" r="5" style="fill:blue"/>
<circle cx="3950" cy="6072" r="5" style="fill:blue"/>
<circle cx="419" cy="6233" r="5" style="fill:blue"/>
<circle cx="4130" cy="1552" r="5" style="fill:blue"/>
<circle cx="472" cy="5283" r="5" style="fill:blue"/>
<circle cx="1999" cy="3896" r="5" style="fill:blue"/>
<circle cx="1746" cy="6437" r="5" style="fill:blue"/>
<circle cx="47" cy="3538" r="5" style="fill:blue"/>
<circle cx="192" cy="312" r="5" style="fill:blue"/>
<circle cx="3162" cy="5639" r="5" style="fill:blue"/>
<circle cx="2209" cy="2179" r="5" style="fill:blue"/>
<circle cx="2424" cy="3245" r="5" style="fill:blue"/>
<circle cx="595" cy="4524" r="5" style="fill:blue"/>
<circle cx="4049" cy="5133" r="5" style="fill:blue"/>
<circle cx="137" cy="951" r="5" style="fill:blue"/>
<circle cx="3975" cy="2690" r="5" style="fill:blue"/>
<circle cx="3341" cy="748" r="5" style="fill:blue"/>
<circle cx="2938" cy="4502" r="5" style="fill:blue"/>
<circle cx="1110" cy="3673" r="5" style="fill:blue"/>
<circle cx="1642" cy="2686" r="5" style="fill:blue"/>
<circle cx="3371" cy="4210" r="5" style="fill:blue"/>
<circle cx="3912" cy="6013" r="5" style="fill:blue"/>
<circle cx="867" cy="6327" r="5" style="fill:blue"/>
<circle cx="1563" cy="1578" r="5" style="fill:blue"/>
<circle cx="148" cy="131" r="5" style="fill:blue"/>
<circle cx="4001" cy="3116" r="5" style="fill:blue"/>
<circle cx="2231" cy="3327" r="5" style="fill:blue"/>
<circle cx="1393" cy="2802" r="5" style="fill:blue"/>
<circle cx="2540" cy="5464" r="5" style="fill:blue"/>
<circle cx="1010" cy="70" r="5" style="fill:blue"/>
<circle cx="3833" cy="289" r="5" style="fill:blue"/>
<circle cx="3889" cy="5563" r="5" style="fill:blue"/>
<circle cx="3038" cy="4909" r="5" style="fill:blue"/>
<circle cx="2369" cy="1312" r="5" style="fill:blue"/>
<circle cx="306" cy="411" r="5" style="fill:blue"/>
<circle cx="2313" cy="6142" r="5" style="fill:blue"/>
<circle cx="55" cy="5229" r="5" style="fill:blue"/>
<circle cx="599" cy="2449" r="5" style="fill:blue"/>
<circle cx="2160" cy="3543" r="5" style="fill:blue"/>
<circle cx="1977" cy="6353" r="5" style="fill:blue"/>
<circle cx="1980" cy="3889" r="5" style="fill:blue"/>
<circle cx="329" cy="4911" r="5" style="fill:blue"/>
<circle cx="196" cy="1719" r="5" style="fill:blue"/>
<circle cx="2552" cy="5155" r="5" style="fill:blue"/>
<circle cx="3747" cy="2231" r="5" style="fill:blue"/>
<circle cx="3389" cy="2695" r="5" style="fill:blue"/>
<circle cx="3075" cy="2354" r="5" style="fill:blue"/>
<circle cx="2951" cy="1617" r="5" style="fill:blue"/>
<circle cx="3296" cy="773" r="5" style="fill:blue"/>
<circle cx="1014" cy="4301" r="5" style="fill:blue"/>
<circle cx="703" cy="2368" r="5" style="fill:blue"/>
<circle cx="161" cy="3561" r="5" style="fill:blue"/>
<circle cx="3329" cy="156" r="5" style="fill:blue"/>
<circle cx="4114" cy="496" r="5" style="fill:blue"/>
<circle cx="2185" cy="2642" r="5" style="fill:blue"/>
<circle cx="712" cy="5314" r="5" style="fill:blue"/>
<circle cx="1071" cy="3987" r="5" style="fill:blue"/>
<circle cx="500" cy="5789" r="5" style="fill:blue"/>
<circle cx="1499" cy="1004" r="5" style="fill:blue"/>
<circle cx="4147" cy="3565" r="5" style="fill:blue"/>
<circle cx="2615" cy="739" r="5" style="fill:blue"/>
<circle cx="214" cy="1064" r="5" style="fill:blue"/>
<circle cx="553" cy="4992" r="5" style="fill:blue"/>
<circle cx="2361" cy="3830" r="5" style="fill:blue"/>
<circle cx="2040" cy="123" r="5" style="fill:blue"/>
<circle cx="637" cy="3907" r="5" style="fill:blue"/>
<circle cx="3025" cy="3755" r="5" style="fill:blue"/>
<circle cx="3106" cy="1817" r="5" style="fill:blue"/>
<circle cx="3378" cy="1781" r="5" style="fill:blue"/>
<circle cx="3240" cy="4780" r="5" style="fill:blue"/>
<circle cx="1489" cy="4664" r="5" style="fill:blue"/>
<circle cx="3232" cy="3017" r="5" style="fill:blue"/>
<circle cx="1578" cy="998" r="5" style="fill:blue"/>
<circle cx="3753" cy="6433" r="5" style="fill:blue"/>
<circle cx="2379" cy="848" r="5" style="fill:blue"/>
<circle cx="391" cy="4523" r="5" style="fill:blue"/>
<circle cx="4111" cy="2521" r="5" style="fill:blue"/>
<circle cx="3579" cy="5431" r="5" style="fill:blue"/>
<circle cx="3824" cy="50" r="5" style="fill:blue"/>
<circle cx="3207" cy="3424" r="5" style="fill:blue"/>
<circle cx="1297" cy="1939" r="5" style="fill:blue"/>
<circle cx="1953" cy="2302" r="5" style="fill:blue"/>
<circle cx="810" cy="6772" r="5" style="fill:blue"/>
<circle cx="3475" cy="4439" r="5" style="fill:blue"/>
<circle cx="953" cy="5214" r="5" style="fill:blue"/>
<circle cx="1098" cy="2450" r="5" style="fill:blue"/>
<circle cx="525" cy="836" r="5" style="fill:blue"/>
<circle cx="30" cy="4144" r="5" style="fill:blue"/>
<circle cx="1355" cy="906" r="5" style="fill:blue"/>
<circle cx="1588" cy="6548" r="5" style="fill:blue"/>
<circle cx="2214" cy="6734" r="5" style="fill:blue"/>
<circle cx="3324" cy="2985" r="5" style="fill:blue"/>
<circle cx="3683" cy="6138" r="5" style="fill:blue"/>
<circle cx="2398" cy="2802" r="5" style="fill:blue"/>
<circle cx="392" cy="6702" r="5" style="fill:blue"/>
<circle cx="3956" cy="1688" r="5" style="fill:blue"/>
<circle cx="861" cy="5321" r="5" style="fill:blue"/>
<circle cx="3989" cy="3391" r="5" style="fill:blue"/>
<circle cx="1839" cy="1424" r="5" style="fill:blue"/>
<circle cx="277" cy="3415" r="5" style="fill:blue"/>
<circle cx="3564" cy="6182" r="5" style="fill:blue"/>
<circle cx="733" cy="1567" r="5" style="fill:blue"/>
<circle cx="2739" cy="1553" r="5" style="fill:blue"/>
<circle cx="3840" cy="2555" r="5" style="fill:blue"/>
<circle cx="3718" cy="565" r="5" style="fill:blue"/>
<circle cx="3580" cy="4439" r="5" style="fill:blue"/>
<circle cx="2064" cy="6796" r="5" style="fill:blue"/>
<circle cx="724" cy="6126" r="5" style="fill:blue"/>
<circle cx="2614" cy="5170" r="5" style="fill:blue"/>
<circle cx="1103" cy="1432" r="5" style="fill:blue"/>
<circle cx="2917" cy="6197" r="5" style="fill:blue"/>
<circle cx="262" cy="5068" r="5" style="fill:blue"/>
<circle cx="2474" cy="4174" r="5" style="fill:blue"/>
<circle cx="2690" cy="1624" r="5" style="fill:blue"/>
<circle cx="2564" cy="601" r="5" style="fill:blue"/>
<circle cx="3048" cy="4715" r="5" style="fill:blue"/>
<circle cx="3098" cy="5073" r="5" style="fill:blue"/>
<circle cx="2931" cy="627" r="5" style="fill:blue"/>
<circle cx="2614" cy="4084" r="5" style="fill:blue"/>
<circle cx="437" cy="3270" r="5" style="fill:blue"/>
<circle cx="2653" cy="4880" r="5" style="fill:blue"/>
<circle cx="52" cy="32" r="5" style="fill:blue"/>
<circle cx="3489" cy="6448" r="5" style="fill:blue"/>
<circle cx="128" cy="6287" r="5" style="fill:blue"/>
<circle cx="1003" cy="4121" r="5" style="fill:blue"/>
<circle cx="409" cy="5981" r="5" style="fill:blue"/>
<circle cx="3761" cy="1446" r="5" style="fill:blue"/>
<circle cx="591" cy="5329" r="5" style="fill:blue"/>
<circle cx="3968" cy="6845" r="5" style="fill:blue"/>
<circle cx="4106" cy="1238" r="5" style="fill:blue"/>
<circle cx="2214" cy="853" r="5" style="fill:blue"/>
<circle cx="2574" cy="3747" r="5" style="fill:blue"/>
<circle cx="1495" cy="6246" r="5" style="fill:blue"/>
<circle cx="2521" cy="952" r="5" style="fill:blue"/>
<circle cx="1240" cy="1856" r="5" style="fill:blue"/>
<circle cx="3216" cy="1399" r="5" style="fill:blue"/>
<circle cx="2880" cy="612" r="5" style="fill:blue"/>
<circle cx="2684" cy="6827" r="5" style="fill:blue"/>
<circle cx="2606" cy="4938" r="5" style="fill:blue"/>
<circle cx="2529" cy="1561" r="5" style="fill:blue"/>
<circle cx="303" cy="3323" r="5" style="fill:blue"/>
<circle cx="3352" cy="3551" r="5" style="fill:blue"/>
<circle cx="2041" cy="80" r="5" style="fill:blue"/>
<circle cx="3084" cy="542" r="5" style="fill:blue"/>
<circle cx="1999" cy="1738" r="5" style="fill:blue"/>
<circle cx="3833" cy="968" r="5" style="fill:blue"/>
<circle cx="2464" cy="5253" r="5" style="fill:blue"/>
<circle cx="3768" cy="3178" r="5" style="fill:blue"/>
<circle cx="833" cy="6480" r="5" style="fill:blue"/>
<circle cx="2856" cy="5236" r="5" style="fill:blue"/>
<circle cx="2287" cy="2526" r="5" style="fill:blue"/>
<circle cx="630" cy="718" r="5" style="fill:blue"/>
<circle cx="3312" cy="4033" r="5" style="fill:blue"/>
<circle cx="2290" cy="3215" r="5" style="fill:blue"/>
<circle cx="3811" cy="4391" r="5" style="fill:blue"/>
<circle cx="1434" cy="862" r="5" style="fill:blue"/>
<circle cx="3542" cy="6387" r="5" style="fill:blue"/>
<circle cx="4020" cy="2830" r="5" style="fill:blue"/>
<circle cx="3579" cy="5206" r="5" style="fill:blue"/>
<circle cx="1371" cy="2776" r="5" style="fill:blue"/>
<circle cx="510" cy="6760" r="5" style="fill:blue"/>
<circle cx="223" cy="6746" r="5" style="fill:blue"/>
<circle cx="2908" cy="3445" r="5" style="fill:blue"/>
<circle cx="3404" cy="5500" r="5" style="fill:blue"/>
<circle cx="2530" cy="4536" r="5" style="fill:blue"/>
<circle cx="939" cy="3288" r="5" style="fill:blue"/>
<circle cx="2795" cy="1665" r="5" style="fill:blue"/>
<circle cx="426" cy="1284" r="5" style="fill:blue"/>
<circle cx="2303" cy="2863" r="5" style="fill:blue"/>
<circle cx="748" cy="2714" r="5" style="fill:blue"/>
<circle cx="2255" cy="2749" r="5" style="fill:blue"/>
<circle cx="112" cy="3305" r="5" style="fill:blue"/>
<circle cx="597" cy="1171" r="5" style="fill:blue"/>
<circle cx="3108" cy="2748" r="5" style="fill:blue"/>
<circle cx="1628" cy="2665" r="5" style="fill:blue"/>
<circle cx="3824" cy="2269" r="5" style="fill:blue"/>
<circle cx="4002" cy="3943" r="5" style="fill:blue"/>
<circle cx="4032" cy="1564" r="5" style="fill:blue"/>
<circle cx="4077" cy="4758" r="5" style="fill:blue"/>
<circle cx="262" cy="3599" r="5" style="fill:blue"/>
<circle cx="1073" cy="811" r="5" style="fill:blue"/>
<circle cx="4120" cy="5680" r="5" style="fill:blue"/>
<circle cx="1215" cy="2928" r="5" style="fill:blue"/>
<circle cx="168" cy="1833" r="5" style="fill:blue"/>
<circle cx="782" cy="6404" r="5" style="fill:blue"/>
<circle cx="1166" cy="1046" r="5" style="fill:blue"/>
<circle cx="3747" cy="5008" r="5" style="fill:blue"/>
<circle cx="1644" cy="4667" r="5" style="fill:blue"/>
<circle cx="2085" cy="717" r="5" style="fill:blue"/>
<circle cx="3827" cy="2618" r="5" style="fill:blue"/>
<circle cx="777" cy="4253" r="5" style="fill:blue"/>
<circle cx="408" cy="4811" r="5" style="fill:blue"/>
<circle cx="622" cy="1887" r="5" style="fill:blue"/>
<circle cx="4055" cy="4328" r="5" style="fill:blue"/>
<circle cx="1509" cy="819" r="5" style="fill:blue"/>
<circle cx="2067" cy="4573" r="5" style="fill:blue"/>
<circle cx="4141" cy="121" r="5" style="fill:blue"/>
<circle cx="20" cy="1154" r="5" style="fill:blue"/>
<circle cx="2943" cy="4860" r="5" style="fill:blue"/>
<circle cx="2828" cy="6317" r="5" style="fill:blue"/>
<circle cx="2192" cy="3088" r="5" style="fill:blue"/>
<circle cx="3244" cy="942" r="5" style="fill:blue"/>
<circle cx="1487" cy="1471" r="5" style="fill:blue"/>
<circle cx="2032" cy="6028" r="5" style="fill:blue"/>
<circle cx="280" cy="3574" r="5" style="fill:blue"/>
<circle cx="168" cy="6364" r="5" style="fill:blue"/>
<circle cx="2272" cy="3292" r="5" style="fill:blue"/>
<circle cx="2572" cy="298" r="5" style="fill:blue"/>
<circle cx="259" cy="5927" r="5" style="fill:blue"/>
<circle cx="937" cy="1471" r="5" style="fill:blue"/>
<circle cx="2076" cy="2106" r="5" style="fill:blue"/>
<circle cx="4064" cy="171" r="5" style="fill:blue"/>
<circle cx="2432" cy="4912" r="5" style="fill:blue"/>
<circle cx="1418" cy="924" r="5" style="fill:blue"/>
<circle cx="2710" cy="4884" r="5" style="fill:blue"/>
<circle cx="1470" cy="5223" r="5" style="fill:blue"/>
<circle cx="2522" cy="3917" r="5" style="fill:blue"/>
<circle cx="1678" cy="1109" r="5" style="fill:blue"/>
<circle cx="1637" cy="3647" r="5" style="fill:blue"/>
<circle cx="1732" cy="5047" r="5" style="fill:blue"/>
<circle cx="424" cy="124" r="5" style="fill:blue"/>
<circle cx="2102" cy="5791" r="5" style="fill:blue"/>
<circle cx="2833" cy="5725" r="5" style="fill:blue"/>
<circle cx="3130" cy="4658" r="5" style="fill:blue"/>
<circle cx="3956" cy="5306" r="5" style="fill:blue"/>
<circle cx="3224" cy="4775" r="5" style="fill:blue"/>
<circle cx="1305" cy="2559" r="5" style="fill:blue"/>
<circle cx="3671" cy="866" r="5" style="fill:blue"/>
<circle cx="945" cy="5188" r="5" style="fill:blue"/>
<circle cx="1724" cy="5697" r="5" style="fill:blue"/>
<circle cx="1919" cy="3902" r="5" style="fill:blue"/>
<circle cx="2636" cy="3999" r="5" style="fill:blue"/>
<circle cx="3038" cy="3225" r="5" style="fill:blue"/>
<circle cx="450" cy="625" r="5" style="fill:blue"/>
<circle cx="953" cy="349" r="5" style="fill:blue"/>
<circle cx="2315" cy="5785" r="5" style="fill:blue"/>
<circle cx="435" cy="3579" r="5" style="fill:blue"/>
<circle cx="826" cy="6754" r="5" style="fill:blue"/>
<circle cx="2117" cy="3634" r="5" style="fill:blue"/>
<circle cx="338" cy="305" r="5" style="fill:blue"/>
<circle cx="3715" cy="5361" r="5" style="fill:blue"/>
<circle cx="2214" cy="3414" r="5" style="fill:blue"/>
<circle cx="2370" cy="946" r="5" style="fill:blue"/>
<circle cx="1145" cy="766" r="5" style="fill:blue"/>
<circle cx="3914" cy="757" r="5" style="fill:blue"/>
<circle cx="3537" cy="4704" r="5" style="fill:blue"/>
<circle cx="132" cy="4882" r="5" style="fill:blue"/>
<circle cx="2039" cy="6673" r="5" style="fill:blue"/>
<circle cx="2669" cy="2561" r="5" style="fill:blue"/>
<circle cx="2509" cy="3799" r="5" style="fill:blue"/>
<circle cx="4113" cy="1848" r="5" style="fill:blue"/>
<circle cx="1914" cy="3536" r="5" style="fill:blue"/>
<circle cx="2348" cy="1485" r="5" style="fill:blue"/>
<circle cx="20" cy="4724" r="5" style="fill:blue"/>
<circle cx="1777" cy="6026" r="5" style="fill:blue"/>
<circle cx="3756" cy="5125" r="5" style="fill:blue"/>
<circle cx="258" cy="6076" r="5" style="fill:blue"/>
<circle cx="2271" cy="6803" r="5" style="fill:blue"/>
<circle cx="1470" cy="1291" r="5" style="fill:blue"/>
<circle cx="666" cy="3303" r="5" style="fill:blue"/>
<circle cx="2615" cy="2356" r="5" style="fill:blue"/>
<circle cx="2847" cy="3840" r="5" style="fill:blue"/>
<circle cx="23" cy="6293" r="5" style="fill:blue"/>
<circle cx="137" cy="344" r="5" style="fill:blue"/>
<circle cx="2124" cy="4128" r="5" style="fill:blue"/>
<circle cx="3887" cy="1399" r="5" style="fill:blue"/>
<circle cx="2595" cy="4584" r="5" style="fill:blue"/>
<circle cx="2111" cy="5662" r="5" style="fill:blue"/>
<circle cx="1409" cy="3360" r="5" style="fill:blue"/>
<circle cx="2669" cy="78" r="5" style="fill:blue"/>
<circle cx="2031" cy="6594" r="5" style="fill:blue"/>
<circle cx="2725" cy="151" r="5" style="fill:blue"/>
<circle cx="3757" cy="517" r="5" style="fill:blue"/>
<circle cx="2781" cy="474" r="5" style="fill:blue"/>
<circle cx="3782" cy="1400" r="5" style="fill:blue"/>
<circle cx="1949" cy="310" r="5" style="fill:blue"/>
<circle cx="1847" cy="490" r="5" style="fill:blue"/>
<circle cx="454" cy="2743" r="5" style="fill:blue"/>
<circle cx="3788" cy="1095" r="5" style="fill:blue"/>
<circle cx="1784" cy="2383" r="5" style="fill:blue"/>
<circle cx="1436" cy="1653" r="5" style="fill:blue"/>
<circle cx="3032" cy="1416" r="5" style="fill:blue"/>
<circle cx="1477" cy="3325" r="5" style="fill:blue"/>
<circle cx="3079" cy="5313" r="5" style="fill:blue"/>
<circle cx="1998" cy="1368" r="5" style="fill:blue"/>
<circle cx="2244" cy="5386" r="5" style="fill:blue"/>
<circle cx="134" cy="312" r="5" style="fill:blue"/>
<circle cx="3184" cy="659" r="5" style="fill:blue"/>
<circle cx="2363" cy="4170" r="5" style="fill:blue"/>
<circle cx="2611" cy="5574" r="5" style="fill:blue"/>
<circle cx="2636" cy="3497" r="5" style="fill:blue"/>
<circle cx="3961" cy="3507" r="5" style="fill:blue"/>
<circle cx="636" cy="3518" r="5" style="fill:blue"/>
<circle cx="2790" cy="4083" r="5" style="fill:blue"/>
<circle cx="1887" cy="76" r="5" style="fill:blue"/>
<circle cx="559" cy="2180" r="5" style="fill:blue"/>
<circle cx="1637" cy="5890" r="5" style="fill:blue"/>
<circle cx="610" cy="1075" r="5" style="fill:blue"/>
<circle cx="1838" cy="1813" r="5" style="fill:blue"/>
<circle cx="2959" cy="4165" r="5" style="fill:blue"/>
<circle cx="3400" cy="4117" r="26" style="stroke-width:5;fill:gray;fill-opacity:0.3"/>
<circle cx="2265" cy="1247" r="69" style="stroke-width:5;fill:gray;fill-opacity:0.3"/>
<circle cx="3057" cy="5978" r="98" style="stroke-width:5;fill:gray;fill-opacity:0.3"/>
<circle cx="1138" cy="978" r="41" style="stroke-width:5;fill:gray;fill-opacity:0.3"/>
<circle cx="3349" cy="2480" r="86" style="stroke-width:5;fill:gray;fill-opacity:0.3"/>
<circle cx="2761" cy="2606" r="65" style="stroke-width:5;fill:gray;fill-opacity:0.3"/>
<circle cx="3607" cy="3999" r="20" style="stroke-width:5;fill:gray;fill-opacity:0.3"/>
<circle cx="300" cy="3768" r="13" style="stroke-width:5;fill:gray;fill-opacity:0.3"/>
<circle cx="2058" cy="2682" r="38" style="stroke-width:5;fill:gray;fill-opacity:0.3"/>
<circle cx="2367" cy="6346" r="19" style="stroke-width:5;fill:gray;fill-opacity:0.3"/>
<circle cx="1382" cy="1034" r="34" style="stroke-width:5;fill:gray;fill-opacity:0.3"/>
<circle cx="308" cy="5635" r="50" style="stroke-width:5;fill:gray;fill-opacity:0.3"/>
<circle cx="3699" cy="3559" r="92" style="stroke-width:5;fill:gray;fill-opacity:0.3"/>
<circle cx="817" cy="4906" r="46" style="stroke-width:5;fill:gray;fill-opacity:0.3"/>
<circle cx="1221" cy="1287" r="79" style="stroke-width:5;fill:gray;fill-opacity:0.3"/>
<circle cx="2130" cy="3918" r="42" style="stroke-width:5;fill:gray;fill-opacity:0.3"/>
<circle cx="3682" cy="5729" r="71" style="stroke-width:5;fill:gray;fill-opacity:0.3"/>
<circle cx="991" cy="3938" r="36" style="stroke-width:5;fill:gray;fill-opacity:0.3"/>
<circle cx="1161" cy="1083" r="32" style="stroke-width:5;fill:gray;fill-opacity:0.3"/>
<circle cx="2236" cy="1584" r="27" style="stroke-width:5;fill:gray;fill-opacity:0.3"/>
<circle cx="2810" cy="2458" r="59" style="stroke-width:5;fill:gray;fill-opacity:0.3"/>
<circle cx="3900" cy="3289" r="65" style="stroke-width:5;fill:gray;fill-opacity:0.3"/>
<circle cx="2920" cy="4705" r="25" style="stroke-width:5;fill:gray;fill-opacity:0.3"/>
<circle cx="2226" cy="1434" r="82" style="stroke-width:5;fill:gray;fill-opacity:0.3"/>
<circle cx="1566" cy="2190" r="89" style="stroke-width:5;fill:gray;fill-opacity:0.3"/>
<circle cx="929" cy="2306" r="45" style="stroke-width:5;fill:gray;fill-opacity:0.3"/>
<circle cx="3516" cy="4354" r="15" style="stroke-width:5;fill:gray;fill-opacity:0.3"/>
<circle cx="904" cy="3309" r="28" style="stroke-width:5;fill:gray;fill-opacity:0.3"/>
<circle cx="3786" cy="1629" r="55" style="stroke-width:5;fill:gray;fill-opacity:0.3"/>
<circle cx="162" cy="726" r="15" style="stroke-width:5;fill:gray;fill-opacity:0.3"/>
<circle cx="1009" cy="308" r="41" style="stroke-width:5;fill:gray;fill-opacity:0.3"/>
<circle cx="643" cy="6041" r="9" style="stroke-width:5;fill:gray;fill-opacity:0.3"/>
<circle cx="1577" cy="4956" r="73" style="stroke-width:5;fill:gray;fill-opacity:0.3"/>
<circle cx="474" cy="2346" r="56" style="stroke-width:5;fill:gray;fill-opacity:0.3"/>
<circle cx="3550" cy="4486" r="44" style="stroke-width:5;fill:gray;fill-opacity:0.3"/>
<circle cx="4038" cy="920" r="43" style="stroke-width:5;fill:gray;fill-opacity:0.3"/>
<circle cx="2341" cy="2419" r="71" style="stroke-width:5;fill:gray;fill-opacity:0.3"/>
<circle cx="3177" cy="1906" r="79" style="stroke-width:5;fill:gray;fill-opacity:0.3"/>
<circle cx="4068" cy="3039" r="83" style="stroke-width:5;fill:gray;fill-opacity:0.3"/>
<circle cx="3828" cy="6190" r="92" style="stroke-width:5;fill:gray;fill-opacity:0.3"/>
<circle cx="2634" cy="1636" r="38" style="stroke-width:5;fill:gray;fill-opacity:0.3"/>
<circle cx="2451" cy="2629" r="46" style="stroke-width:5;fill:gray;fill-opacity:0.3"/>
<circle cx="3884" cy="2448" r="29" style="stroke-width:5;fill:gray;fill-opacity:0.3"/>
<circle cx="1453" cy="1117" r="89" style="stroke-width:5;fill:gray;fill-opacity:0.3"/>
<circle cx="2631" cy="6319" r="19" style="stroke-width:5;fill:gray;fill-opacity:0.3"/>
<circle cx="872" cy="1160" r="82" style="stroke-width:5;fill:gray;fill-opacity:0.3"/>
<circle cx="1853" cy="1990" r="63" style="stroke-width:5;fill:gray;fill-opacity:0.3"/>
<circle cx="2380" cy="5013" r="96" style="stroke-width:5;fill:gray;fill-opacity:0.3"/>
<circle cx="2773" cy="3570" r="69" style="stroke-width:5;fill:gray;fill-opacity:0.3"/>
<circle cx="3568" cy="339" r="100" style="stroke-width:5;fill:gray;fill-opacity:0.3"/>
<circle cx="3144" cy="2135" r="65" style="stroke-width:5;fill:gray;fill-opacity:0.3"/>
<circle cx="3401" cy="5519" r="12" style="stroke-width:5;fill:gray;fill-opacity:0.3"/>
<circle cx="425" cy="6510" r="60" style="stroke-width:5;fill:gray;fill-opacity:0.3"/>
<circle cx="264" cy="5312" r="74" style="stroke-width:5;fill:gray;fill-opacity:0.3"/>
<circle cx="3589" cy="2320" r="36" style="stroke-width:5;fill:gray;fill-opacity:0.3"/>
<circle cx="2371" cy="4550" r="51" style="stroke-width:5;fill:gray;fill-opacity:0.3"/>
<circle cx="3621" cy="287" r="103" style="stroke-width:5;fill:gray;fill-opacity:0.3"/>
<circle cx="3134" cy="5371" r="28" style="stroke-width:5;fill:gray;fill-opacity:0.3"/>
<circle cx="2352" cy="4473" r="93" style="stroke-width:5;fill:gray;fill-opacity:0.3"/>
<circle cx="640" cy="514" r="57" style="stroke-width:5;fill:gray;fill-opacity:0.3"/>
<circle cx="872" cy="130" r="25" style="stroke-width:5;fill:gray;fill-opacity:0.3"/>
<circle cx="2881" cy="1670" r="47" style="stroke-width:5;fill:gray;fill-opacity:0.3"/>
<circle cx="2802" cy="3918" r="16" style="stroke-width:5;fill:gray;fill-opacity:0.3"/>
<circle cx="1406" cy="3474" r="69" style="stroke-width:5;fill:gray;fill-opacity:0.3"/>
<circle cx="4058" cy="2014" r="23" style="stroke-width:5;fill:gray;fill-opacity:0.3"/>
<circle cx="408" cy="4070" r="93" style="stroke-width:5;fill:gray;fill-opacity:0.3"/>
<circle cx="1475" cy="1850" r="77" style="stroke-width:5;fill:gray;fill-opacity:0.3"/>
<circle cx="1485" cy="1867" r="37" style="stroke-width:5;fill:gray;fill-opacity:0.3"/>
<circle cx="1235" cy="1191" r="40" style="stroke-width:5;fill:gray;fill-opacity:0.3"/>
<circle cx="1349" cy="2019" r="43" style="stroke-width:5;fill:gray;fill-opacity:0.3"/>
<circle cx="2238" cy="4301" r="51" style="stroke-width:5;fill:gray;fill-opacity:0.3"/>
<circle cx="2348" cy="2000" r="62" style="stroke-width:5;fill:gray;fill-opacity:0.3"/>
<circle cx="3851" cy="165" r="77" style="stroke-width:5;fill:gray;fill-opacity:0.3"/>
<circle cx="127" cy="5444" r="104" style="stroke-width:5;fill:gray;fill-opacity:0.3"/>
<circle cx="2442" cy="5637" r="23" style="stroke-width:5;fill:gray;fill-opacity:0.3"/>
<circle cx="2369" cy="5557" r="12" style="stroke-width:5;fill:gray;fill-opacity:0.3"/>
<circle cx="156" cy="6518" r="8" style="stroke-width:5;fill:gray;fill-opacity:0.3"/>
<circle cx="2743" cy="6101" r="34" style="stroke-width:5;fill:gray;fill-opacity:0.3"/>
<circle cx="3854" cy="5981" r="9" style="stroke-width:5;fill:gray;fill-opacity:0.3"/>
<circle cx="2419" cy="4391" r="15" style="stroke-width:5;fill:gray;fill-opacity:0.3"/>
<circle cx="626" cy="6681" r="25" style="stroke-width:5;fill:gray;fill-opacity:0.3"/>
<circle cx="1529" cy="2902" r="68" style="stroke-width:5;fill:gray;fill-opacity:0.3"/>
<circle cx="496" cy="2123" r="68" style="stroke-width:5;fill:gray;fill-opacity:0.3"/>
<circle cx="131" cy="4284" r="34" style="stroke-width:5;fill:gray;fill-opacity:0.3"/>
<circle cx="341" cy="5372" r="97" style="stroke-width:5;fill:gray;fill-opacity:0.3"/>
<circle cx="1611" cy="1491" r="14" style="stroke-width:5;fill:gray;fill-opacity:0.3"/>
<circle cx="2733" cy="4347" r="31" style="stroke-width:5;fill:gray;fill-opacity:0.3"/>
<circle cx="428" cy="4938" r="8" style="stroke-width:5;fill:gray;fill-opacity:0.3"/>
<circle cx="682" cy="4985" r="70" style="stroke-width:5;fill:gray;fill-opacity:0.3"/>
<circle cx="4117" cy="1940" r="20" style="stroke-width:5;fill:gray;fill-opacity:0.3"/>
<circle cx="611" cy="6003" r="100" style="stroke-width:5;fill:gray;fill-opacity:0.3"/>
<circle cx="1144" cy="3318" r="99" style="stroke-width:5;fill:gray;fill-opacity:0.3"/>
</svg>