<svg viewBox="0 0 9797 4805" xmlns="http://www.w3.org/2000/svg">
<rect height="786" style="stroke:pink;stroke-width:10;fill:gray;fill-opacity:0.1;stroke-opacity:0.9" width="1696" x="5745" y="1062"/>
<circle cx="5575" cy="1454" r="5" style="fill:blue"/>
<circle cx="7522" cy="2829" r="5" style="fill:blue"/>
<circle cx="54" cy="2422" r="5" style="fill:blue"/>
<circle cx="8777" cy="4601" r="5" style="fill:blue"/>
<circle cx="5714" cy="4613" r="5" style="fill:blue"/>
<circle cx="4185" cy="522" r="5" style="fill:blue"/>
<circle cx="8112" cy="2521" r="5" style="fill:blue"/>
<circle cx="5011" cy="2657" r="5" style="fill:blue"/>
<circle cx="9661" cy="1704" r="5" style="fill:blue"/>
<circle cx="9678" cy="4749" r="5" style="fill:blue"/>
<circle cx="938" cy="3688" r="5" style="fill:blue"/>
<circle cx="9779" cy="2560" r="5" style="fill:blue"/>
<circle cx="336" cy="3502" r="5" style="fill:blue"/>
<circle cx="6842" cy="2444" r="5" style="fill:blue"/>
<circle cx="4667" cy="1854" r="5" style="fill:blue"/>
<circle cx="5485" cy="2666" r="5" style="fill:blue"/>
<circle cx="8796" cy="1490" r="5" style="fill:blue"/>
<circle cx="7209" cy="90" r="5" style="fill:blue"/>
<circle cx="529" cy="1640" r="5" style="fill:blue"/>
<circle cx="8297" cy="978" r="5" style="fill:blue"/>
<circle cx="963" cy="197" r="5" style="fill:blue"/>
<circle cx="3108" cy="4713" r="5" style="fill:blue"/>
<circle cx="3404" cy="1355" r="5" style="fill:blue"/>
<circle cx="9455" cy="4669" r="5" style="fill:blue"/>
<circle cx="8318" cy="1435" r="5" style="fill:blue"/>
<circle cx="9323" cy="1219" r="5" style="fill:blue"/>
<circle cx="6959" cy="2779" r="5" style="fill:blue"/>
<circle cx="3774" cy="428" r="5" style="fill:blue"/>
<circle cx="2965" cy="3350" r="5" style="fill:blue"/>
<circle cx="5699" cy="4424" r="5" style="fill:blue"/>
<circle cx="6396" cy="977" r="5" style="fill:blue"/>
<circle cx="5929" cy="2550" r="5" style="fill:blue"/>
<circle cx="3853" cy="1680" r="5" style="fill:blue"/>
<circle cx="4497" cy="1085" r="5" style="fill:blue"/>
<circle cx="2198" cy="2552" r="5" style="fill:blue"/>
<circle cx="8306" cy="1314" r="5" style="fill:blue"/>
<circle cx="8083" cy="445" r="5" style="fill:blue"/>
<circle cx="7877" cy="3952" r="5" style="fill:blue"/>
<circle cx="3928" cy="4087" r="5" style="fill:blue"/>
<circle cx="8514" cy="1342" r="5" style="fill:blue"/>
<circle cx="6929" cy="3108" r="5" style="fill:blue"/>
<circle cx="7569" cy="1813" r="5" style="fill:blue"/>
<circle cx="5627" cy="2063" r="5" style="fill:blue"/>
<circle cx="5859" cy="253" r="5" style="fill:blue"/>
<circle cx="8950" cy="422" r="5" style="fill:blue"/>
<circle cx="3843" cy="2781" r="5" style="fill:blue"/>
<circle cx="5255" cy="1977" r="5" style="fill:blue"/>
<circle cx="1432" cy="2015" r="5" style="fill:blue"/>
<circle cx="6602" cy="189" r="5" style="fill:blue"/>
<circle cx="7631" cy="4564" r="5" style="fill:blue"/>
<circle cx="9580" cy="2330" r="5" style="fill:blue"/>
<circle cx="1633" cy="3121" r="5" style="fill:blue"/>
<circle cx="8915" cy="1133" r="5" style="fill:blue"/>
<circle cx="7002" cy="4139" r="5" style="fill:blue"/>
<circle cx="1356" cy="1355" r="5" style="fill:blue"/>
<circle cx="9332" cy="889" r="5" style="fill:blue"/>
<circle cx="7622" cy="2038" r="5" style="fill:blue"/>
<circle cx="7879" cy="914" r="5" style="fill:blue"/>
<circle cx="678" cy="1909" r="5" style="fill:blue"/>
<circle cx="6145" cy="2151" r="5" style="fill:blue"/>
<circle cx="3982" cy="1448" r="5" style="fill:blue"/>
<circle cx="935" cy="2182" r="5" style="fill:blue"/>
<circle cx="7852" cy="3260" r="5" style="fill:blue"/>
<circle cx="4574" cy="2539" r="5" style="fill:blue"/>
<circle cx="4592" cy="143" r="5" style="fill:blue"/>
<circle cx="3073" cy="629" r="5" style="fill:blue"/>
<circle cx="4674" cy="45" r="5" style="fill:blue"/>
<circle cx="5785" cy="3885" r="5" style="fill:blue"/>
<circle cx="6804" cy="3777" r="5" style="fill:blue"/>
<circle cx="450" cy="2354" r="5" style="fill:blue"/>
<circle cx="3389" cy="2764" r="5" style="fill:blue"/>
<circle cx="7845" cy="1603" r="5" style="fill:blue"/>
<circle cx="2362" cy="4145" r="5" style="fill:blue"/>
<circle cx="2428" cy="2383" r="5" style="fill:blue"/>
<circle cx="3233" cy="1928" r="5" style="fill:blue"/>
<circle cx="8122" cy="2794" r="5" style="fill:blue"/>
<circle cx="9588" cy="1544" r="5" style="fill:blue"/>
<circle cx="2738" cy="3011" r="5" style="fill:blue"/>
<circle cx="1639" cy="2281" r="5" style="fill:blue"/>
<circle cx="3425" cy="255" r="5" style="fill:blue"/>
<circle cx="3473" cy="4395" r="5" style="fill:blue"/>
<circle cx="7566" cy="1613" r="5" style="fill:blue"/>
<circle cx="5692" cy="1624" r="5" style="fill:blue"/>
<circle cx="681" cy="2111" r="5" style="fill:blue"/>
<circle cx="5202" cy="2398" r="5" style="fill:blue"/>
<circle cx="6850" cy="2871" r="5" style="fill:blue"/>
<circle cx="2957" cy="58" r="5" style="fill:blue"/>
<circle cx="9731" cy="4654" r="5" style="fill:blue"/>
<circle cx="1528" cy="84" r="5" style="fill:blue"/>
<circle cx="1895" cy="2495" r="5" style="fill:blue"/>
<circle cx="2706" cy="1079" r="5" style="fill:blue"/>
<circle cx="7686" cy="359" r="5" style="fill:blue"/>
<circle cx="3343" cy="3985" r="5" style="fill:blue"/>
<circle cx="4205" cy="4713" r="5" style="fill:blue"/>
<circle cx="2746" cy="1222" r="5" style="fill:blue"/>
<circle cx="9290" cy="3105" r="5" style="fill:blue"/>
<circle cx="7631" cy="2661" r="5" style="fill:blue"/>
<circle cx="7608" cy="3751" r="5" style="fill:blue"/>
<circle cx="6475" cy="2279" r="5" style="fill:blue"/>
<circle cx="7211" cy="3283" r="5" style="fill:blue"/>
<circle cx="810" cy="3118" r="5" style="fill:blue"/>
<circle cx="3028" cy="668" r="5" style="fill:blue"/>
<circle cx="8592" cy="247" r="5" style="fill:blue"/>
<circle cx="7109" cy="2153" r="5" style="fill:blue"/>
<circle cx="5221" cy="841" r="5" style="fill:blue"/>
<circle cx="1198" cy="411" r="5" style="fill:blue"/>
<circle cx="8470" cy="4271" r="5" style="fill:blue"/>
<circle cx="4816" cy="2674" r="5" style="fill:blue"/>
<circle cx="8636" cy="2575" r="5" style="fill:blue"/>
<circle cx="2563" cy="2541" r="5" style="fill:blue"/>
<circle cx="1863" cy="2650" r="5" style="fill:blue"/>
<circle cx="468" cy="1549" r="5" style="fill:blue"/>
<circle cx="4855" cy="1057" r="5" style="fill:blue"/>
<circle cx="7416" cy="2635" r="5" style="fill:blue"/>
<circle cx="6290" cy="3902" r="5" style="fill:blue"/>
<circle cx="4407" cy="790" r="5" style="fill:blue"/>
<circle cx="6459" cy="2278" r="5" style="fill:blue"/>
<circle cx="3296" cy="2840" r="5" style="fill:blue"/>
<circle cx="61" cy="3657" r="5" style="fill:blue"/>
<circle cx="3180" cy="3553" r="5" style="fill:blue"/>
<circle cx="4772" cy="405" r="5" style="fill:blue"/>
<circle cx="4205" cy="4618" r="5" style="fill:blue"/>
<circle cx="8166" cy="2731" r="5" style="fill:blue"/>
<circle cx="8678" cy="4038" r="5" style="fill:blue"/>
<circle cx="8014" cy="1071" r="5" style="fill:blue"/>
<circle cx="4695" cy="1769" r="5" style="fill:blue"/>
<circle cx="5088" cy="2057" r="5" style="fill:blue"/>
<circle cx="3285" cy="282" r="5" style="fill:blue"/>
<circle cx="7664" cy="171" r="5" style="fill:blue"/>
<circle cx="8875" cy="997" r="5" style="fill:blue"/>
<circle cx="3979" cy="2101" r="5" style="fill:blue"/>
<circle cx="7213" cy="3367" r="5" style="fill:blue"/>
<circle cx="8657" cy="401" r="5" style="fill:blue"/>
<circle cx="493" cy="3074" r="5" style="fill:blue"/>
<circle cx="5195" cy="3847" r="5" style="fill:blue"/>
<circle cx="3111" cy="3845" r="5" style="fill:blue"/>
<circle cx="1975" cy="2483" r="5" style="fill:blue"/>
<circle cx="4766" cy="2759" r="5" style="fill:blue"/>
<circle cx="8176" cy="3667" r="5" style="fill:blue"/>
<circle cx="4558" cy="1470" r="5" style="fill:blue"/>
<circle cx="5500" cy="3474" r="5" style="fill:blue"/>
<circle cx="8096" cy="3095" r="5" style="fill:blue"/>
<circle cx="1305" cy="982" r="5" style="fill:blue"/>
<circle cx="6324" cy="2073" r="5" style="fill:blue"/>
<circle cx="3156" cy="3373" r="5" style="fill:blue"/>
<circle cx="7224" cy="2891" r="5" style="fill:blue"/>
<circle cx="7434" cy="2146" r="5" style="fill:blue"/>
<circle cx="8653" cy="157" r="5" style="fill:blue"/>
<circle cx="321" cy="955" r="5" style="fill:blue"/>
<circle cx="5182" cy="1511" r="5" style="fill:blue"/>
<circle cx="8259" cy="2554" r="5" style="fill:blue"/>
<circle cx="5855" cy="2891" r="5" style="fill:blue"/>
<circle cx="737" cy="1805" r="5" style="fill:blue"/>
<circle cx="5064" cy="1743" r="5" style="fill:blue"/>
<circle cx="6340" cy="2851" r="5" style="fill:blue"/>
<circle cx="1276" cy="1256" r="5" style="fill:blue"/>
<circle cx="4646" cy="4155" r="5" style="fill:blue"/>
<circle cx="7286" cy="2044" r="5" style="fill:blue"/>
<circle cx="3518" cy="2659" r="5" style="fill:blue"/>
<circle cx="7678" cy="1956" r="5" style="fill:blue"/>
<circle cx="8879" cy="4345" r="5" style="fill:blue"/>
<circle cx="636" cy="1720" r="5" style="fill:blue"/>
<circle cx="6431" cy="4082" r="5" style="fill:blue"/>
<circle cx="8623" cy="3831" r="5" style="fill:blue"/>
<circle cx="6225" cy="4390" r="5" style="fill:blue"/>
<circle cx="2569" cy="4558" r="5" style="fill:blue"/>
<circle cx="4309" cy="2773" r="5" style="fill:blue"/>
<circle cx="2201" cy="1546" r="5" style="fill:blue"/>
<circle cx="1922" cy="651" r="5" style="fill:blue"/>
<circle cx="2996" cy="4762" r="5" style="fill:blue"/>
<circle cx="4674" cy="2201" r="5" style="fill:blue"/>
<circle cx="3633" cy="792" r="5" style="fill:blue"/>
<circle cx="5682" cy="1079" r="5" style="fill:blue"/>
<circle cx="984" cy="2547" r="5" style="fill:blue"/>
<circle cx="915" cy="2566" r="5" style="fill:blue"/>
<circle cx="1409" cy="634" r="5" style="fill:blue"/>
<circle cx="4416" cy="844" r="5" style="fill:blue"/>
<circle cx="3208" cy="3863" r="5" style="fill:blue"/>
<circle cx="1683" cy="2866" r="5" style="fill:blue"/>
<circle cx="8493" cy="4538" r="5" style="fill:blue"/>
<circle cx="2132" cy="2564" r="5" style="fill:blue"/>
<circle cx="7391" cy="283" r="5" style="fill:blue"/>
<circle cx="8644" cy="4516" r="5" style="fill:blue"/>
<circle cx="5650" cy="4109" r="5" style="fill:blue"/>
<circle cx="6329" cy="3013" r="5" style="fill:blue"/>
<circle cx="4335" cy="4019" r="5" style="fill:blue"/>
<circle cx="5362" cy="4323" r="5" style="fill:blue"/>
<circle cx="7647" cy="1081" r="5" style="fill:blue"/>
<circle cx="1643" cy="405" r="5" style="fill:blue"/>
<circle cx="1904" cy="2584" r="5" style="fill:blue"/>
<circle cx="1263" cy="4235" r="5" style="fill:blue"/>
<circle cx="4339" cy="4769" r="5" style="fill:blue"/>
<circle cx="3199" cy="3184" r="5" style="fill:blue"/>
<circle cx="1046" cy="1738" r="5" style="fill:blue"/>
<circle cx="5744" cy="1934" r="5" style="fill:blue"/>
<circle cx="6196" cy="3004" r="5" style="fill:blue"/>
<circle cx="1148" cy="2523" r="5" style="fill:blue"/>
<circle cx="6851" cy="563" r="5" style="fill:blue"/>
<circle cx="7449" cy="3010" r="5" style="fill:blue"/>
<circle cx="5522" cy="3268" r="5" style="fill:blue"/>
<circle cx="4182" cy="3840" r="5" style="fill:blue"/>
<circle cx="8738" cy="3954" r="5" style="fill:blue"/>
<circle cx="194" cy="1124" r="5" style="fill:blue"/>
<circle cx="2209" cy="1739" r="5" style="fill:blue"/>
<circle cx="7595" cy="4029" r="5" style="fill:blue"/>
<circle cx="8661" cy="3317" r="5" style="fill:blue"/>
<circle cx="5037" cy="4528" r="5" style="fill:blue"/>
<circle cx="8402" cy="3073" r="5" style="fill:blue"/>
<circle cx="5272" cy="408" r="5" style="fill:blue"/>
<circle cx="1516" cy="4319" r="5" style="fill:blue"/>
<circle cx="1932" cy="815" r="5" style="fill:blue"/>
<circle cx="5764" cy="4796" r="5" style="fill:blue"/>
<circle cx="7918" cy="4138" r="5" style="fill:blue"/>
<circle cx="1956" cy="515" r="5" style="fill:blue"/>
<circle cx="14" cy="1755" r="5" style="fill:blue"/>
<circle cx="2295" cy="2206" r="5" style="fill:blue"/>
<circle cx="7356" cy="4657" r="5" style="fill:blue"/>
<circle cx="3609" cy="2547" r="5" style="fill:blue"/>
<circle cx="5437" cy="267" r="5" style="fill:blue"/>
<circle cx="6123" cy="2437" r="5" style="fill:blue"/>
<circle cx="8318" cy="3422" r="5" style="fill:blue"/>
<circle cx="473" cy="3092" r="5" style="fill:blue"/>
<circle cx="8500" cy="2686" r="5" style="fill:blue"/>
<circle cx="4390" cy="616" r="5" style="fill:blue"/>
<circle cx="8211" cy="885" r="5" style="fill:blue"/>
<circle cx="5062" cy="453" r="5" style="fill:blue"/>
<circle cx="9421" cy="2660" r="5" style="fill:blue"/>
<circle cx="9781" cy="698" r="5" style="fill:blue"/>
<circle cx="2814" cy="3607" r="5" style="fill:blue"/>
<circle cx="4109" cy="1832" r="5" style="fill:blue"/>
<circle cx="2744" cy="2209" r="5" style="fill:blue"/>
<circle cx="2549" cy="439" r="5" style="fill:blue"/>
<circle cx="2054" cy="2750" r="5" style="fill:blue"/>
<circle cx="9458" cy="1454" r="5" style="fill:blue"/>
<circle cx="7339" cy="3196" r="5" style="fill:blue"/>
<circle cx="8727" cy="302" r="5" style="fill:blue"/>
<circle cx="8015" cy="2377" r="5" style="fill:blue"/>
<circle cx="1712" cy="3361" r="5" style="fill:blue"/>
<circle cx="4863" cy="367" r="5" style="fill:blue"/>
<circle cx="2469" cy="726" r="5" style="fill:blue"/>
<circle cx="369" cy="2840" r="5" style="fill:blue"/>
<circle cx="7404" cy="4695" r="5" style="fill:blue"/>
<circle cx="7460" cy="2572" r="5" style="fill:blue"/>
<circle cx="6880" cy="3179" r="5" style="fill:blue"/>
<circle cx="259" cy="2556" r="5" style="fill:blue"/>
<circle cx="3562" cy="4258" r="5" style="fill:blue"/>
<circle cx="6805" cy="4274" r="5" style="fill:blue"/>
<circle cx="4231" cy="2745" r="5" style="fill:blue"/>
<circle cx="5388" cy="1462" r="5" style="fill:blue"/>
<circle cx="8777" cy="601" r="5" style="fill:blue"/>
<circle cx="214" cy="4582" r="5" style="fill:blue"/>
<circle cx="9738" cy="3286" r="5" style="fill:blue"/>
<circle cx="8031" cy="3027" r="5" style="fill:blue"/>
<circle cx="8659" cy="3786" r="5" style="fill:blue"/>
<circle cx="7422" cy="953" r="5" style="fill:blue"/>
<circle cx="4393" cy="1521" r="5" style="fill:blue"/>
<circle cx="5027" cy="3564" r="5" style="fill:blue"/>
<circle cx="9433" cy="3624" r="5" style="fill:blue"/>
<circle cx="8197" cy="3350" r="5" style="fill:blue"/>
<circle cx="797" cy="1526" r="5" style="fill:blue"/>
<circle cx="1813" cy="4182" r="5" style="fill:blue"/>
<circle cx="7965" cy="2501" r="5" style="fill:blue"/>
<circle cx="2688" cy="2289" r="5" style="fill:blue"/>
<circle cx="7563" cy="1247" r="5" style="fill:blue"/>
<circle cx="3210" cy="1812" r="5" style="fill:blue"/>
<circle cx="706" cy="1495" r="5" style="fill:blue"/>
<circle cx="4193" cy="3090" r="5" style="fill:blue"/>
<circle cx="550" cy="4019" r="5" style="fill:blue"/>
<circle cx="2986" cy="1364" r="5" style="fill:blue"/>
<circle cx="378" cy="3567" r="5" style="fill:blue"/>
<circle cx="6096" cy="63" r="5" style="fill:blue"/>
<circle cx="8796" cy="2790" r="5" style="fill:blue"/>
<circle cx="4546" cy="3115" r="5" style="fill:blue"/>
<circle cx="4410" cy="4380" r="5" style="fill:blue"/>
<circle cx="9054" cy="2252" r="5" style="fill:blue"/>
<circle cx="9767" cy="2649" r="5" style="fill:blue"/>
<circle cx="4824" cy="3926" r="5" style="fill:blue"/>
<circle cx="4051" cy="4483" r="5" style="fill:blue"/>
<circle cx="8831" cy="593" r="5" style="fill:blue"/>
<circle cx="9146" cy="3547" r="5" style="fill:blue"/>
<circle cx="3527" cy="784" r="5" style="fill:blue"/>
<circle cx="4618" cy="153" r="5" style="fill:blue"/>
<circle cx="8946" cy="4033" r="5" style="fill:blue"/>
<circle cx="1891" cy="3869" r="5" style="fill:blue"/>
<circle cx="7405" cy="3046" r="5" style="fill:blue"/>
<circle cx="644" cy="3740" r="5" style="fill:blue"/>
<circle cx="4212" cy="4504" r="5" style="fill:blue"/>
<circle cx="9784" cy="3072" r="5" style="fill:blue"/>
<circle cx="3975" cy="3741" r="5" style="fill:blue"/>
<circle cx="3570" cy="438" r="5" style="fill:blue"/>
<circle cx="3829" cy="2888" r="5" style="fill:blue"/>
<circle cx="8253" cy="4558" r="5" style="fill:blue"/>
<circle cx="2758" cy="3288" r="5" style="fill:blue"/>
<circle cx="8113" cy="3664" r="5" style="fill:blue"/>
<circle cx="3560" cy="2509" r="5" style="fill:blue"/>
<circle cx="2883" cy="1528" r="5" style="fill:blue"/>
<circle cx="7275" cy="45" r="5" style="fill:blue"/>
<circle cx="1776" cy="739" r="5" style="fill:blue"/>
<circle cx="1178" cy="3408" r="5" style="fill:blue"/>
<circle cx="9452" cy="1587" r="5" style="fill:blue"/>
<circle cx="9394" cy="1412" r="5" style="fill:blue"/>
<circle cx="6594" cy="3813" r="5" style="fill:blue"/>
<circle cx="4113" cy="1920" r="5" style="fill:blue"/>
<circle cx="1855" cy="298" r="5" style="fill:blue"/>
<circle cx="4893" cy="233" r="5" style="fill:blue"/>
<circle cx="8465" cy="3773" r="5" style="fill:blue"/>
<circle cx="6596" cy="3190" r="5" style="fill:blue"/>
<circle cx="6040" cy="375" r="5" style="fill:blue"/>
<circle cx="5344" cy="1214" r="5" style="fill:blue"/>
<circle cx="7949" cy="1089" r="5" style="fill:blue"/>
<circle cx="2833" cy="2899" r="5" style="fill:blue"/>
<circle cx="7675" cy="3756" r="5" style="fill:blue"/>
<circle cx="5805" cy="3804" r="5" style="fill:blue"/>
<circle cx="5707" cy="2146" r="5" style="fill:blue"/>
<circle cx="1730" cy="2808" r="5" style="fill:blue"/>
<circle cx="5301" cy="3992" r="5" style="fill:blue"/>
<circle cx="5639" cy="1776" r="5" style="fill:blue"/>
<circle cx="6764" cy="719" r="5" style="fill:blue"/>
<circle cx="9017" cy="4701" r="5" style="fill:blue"/>
<circle cx="5113" cy="1224" r="5" style="fill:blue"/>
<circle cx="863" cy="946" r="5" style="fill:blue"/>
<circle cx="6544" cy="4169" r="5" style="fill:blue"/>
<circle cx="9449" cy="679" r="5" style="fill:blue"/>
<circle cx="4151" cy="791" r="5" style="fill:blue"/>
<circle cx="8675" cy="2027" r="5" style="fill:blue"/>
<circle cx="2052" cy="482" r="5" style="fill:blue"/>
<circle cx="5980" cy="2457" r="5" style="fill:blue"/>
<circle cx="6586" cy="159" r="5" style="fill:blue"/>
<circle cx="9100" cy="3705" r="5" style="fill:blue"/>
<circle cx="7986" cy="3125" r="5" style="fill:blue"/>
<circle cx="7618" cy="698" r="5" style="fill:blue"/>
<circle cx="3695" cy="1443" r="5" style="fill:blue"/>
<circle cx="7235" cy="701" r="5" style="fill:blue"/>
<circle cx="9490" cy="1232" r="5" style="fill:blue"/>
<circle cx="4278" cy="3829" r="5" style="fill:blue"/>
<circle cx="4339" cy="44" r="5" style="fill:blue"/>
<circle cx="6884" cy="4135" r="5" style="fill:blue"/>
<circle cx="1013" cy="1106" r="5" style="fill:blue"/>
<circle cx="8174" cy="352" r="5" style="fill:blue"/>
<circle cx="6967" cy="2059" r="5" style="fill:blue"/>
<circle cx="4204" cy="2010" r="5" style="fill:blue"/>
<circle cx="7710" cy="996" r="5" style="fill:blue"/>
<circle cx="5417" cy="1386" r="5" style="fill:blue"/>
<circle cx="8472" cy="1308" r="5" style="fill:blue"/>
<circle cx="7997" cy="2417" r="5" style="fill:blue"/>
<circle cx="7544" cy="517" r="5" style="fill:blue"/>
<circle cx="4197" cy="1575" r="5" style="fill:blue"/>
<circle cx="4624" cy="2674" r="5" style="fill:blue"/>
<circle cx="6708" cy="4385" r="5" style="fill:blue"/>
<circle cx="2869" cy="3284" r="5" style="fill:blue"/>
<circle cx="7766" cy="4540" r="5" style="fill:blue"/>
<circle cx="9575" cy="568" r="5" style="fill:blue"/>
<circle cx="1072" cy="4392" r="5" style="fill:blue"/>
<circle cx="3765" cy="1627" r="5" style="fill:blue"/>
<circle cx="5783" cy="991" r="5" style="fill:blue"/>
<circle cx="6697" cy="2220" r="5" style="fill:blue"/>
<circle cx="7451" cy="2363" r="5" style="fill:blue"/>
<circle cx="8937" cy="3053" r="5" style="fill:blue"/>
<circle cx="5712" cy="237" r="5" style="fill:blue"/>
<circle cx="3189" cy="2685" r="5" style="fill:blue"/>
<circle cx="4847" cy="4131" r="5" style="fill:blue"/>
<circle cx="7086" cy="4286" r="5" style="fill:blue"/>
<circle cx="3126" cy="4540" r="5" style="fill:blue"/>
<circle cx="4175" cy="2948" r="5" style="fill:blue"/>
<circle cx="4706" cy="1249" r="5" style="fill:blue"/>
<circle cx="984" cy="3730" r="5" style="fill:blue"/>
<circle cx="6637" cy="2635" r="5" style="fill:blue"/>
<circle cx="9694" cy="4221" r="5" style="fill:blue"/>
<circle cx="4087" cy="2317" r="5" style="fill:blue"/>
<circle cx="9224" cy="1589" r="5" style="fill:blue"/>
<circle cx="2253" cy="2241" r="5" style="fill:blue"/>
<circle cx="4950" cy="2705" r="5" style="fill:blue"/>
<circle cx="599" cy="2951" r="5" style="fill:blue"/>
<circle cx="4489" cy="4627" r="5" style="fill:blue"/>
<circle cx="763" cy="3476" r="5" style="fill:blue"/>
<circle cx="4434" cy="2345" r="5" style="fill:blue"/>
<circle cx="4168" cy="2947" r="5" style="fill:blue"/>
<circle cx="698" cy="3799" r="5" style="fill:blue"/>
<circle cx="1549" cy="2472" r="5" style="fill:blue"/>
<circle cx="8054" cy="1424" r="5" style="fill:blue"/>
<circle cx="5166" cy="2660" r="5" style="fill:blue"/>
<circle cx="4972" cy="779" r="5" style="fill:blue"/>
<circle cx="5049" cy="3041" r="5" style="fill:blue"/>
<circle cx="1439" cy="458" r="5" style="fill:blue"/>
<circle cx="8278" cy="94" r="5" style="fill:blue"/>
<circle cx="5415" cy="385" r="5" style="fill:blue"/>
<circle cx="2810" cy="2208" r="5" style="fill:blue"/>
<circle cx="7230" cy="2983" r="5" style="fill:blue"/>
<circle cx="2096" cy="3744" r="5" style="fill:blue"/>
<circle cx="5950" cy="289" r="5" style="fill:blue"/>
<circle cx="6289" cy="4578" r="5" style="fill:blue"/>
<circle cx="8208" cy="4614" r="5" style="fill:blue"/>
<circle cx="9063" cy="3225" r="5" style="fill:blue"/>
<circle cx="56" cy="3579" r="5" style="fill:blue"/>
<circle cx="1102" cy="1596" r="5" style="fill:blue"/>
<circle cx="1450" cy="1693" r="5" style="fill:blue"/>
<circle cx="5315" cy="3152" r="5" style="fill:blue"/>
<circle cx="6828" cy="74" r="5" style="fill:blue"/>
<circle cx="2889" cy="4066" r="5" style="fill:blue"/>
<circle cx="8348" cy="1136" r="5" style="fill:blue"/>
<circle cx="899" cy="2733" r="73" style="stroke-width:5;fill:gray;fill-opacity:0.3"/>
<circle cx="3290" cy="4116" r="43" style="stroke-width:5;fill:gray;fill-opacity:0.3"/>
<circle cx="4082" cy="2748" r="49" style="stroke-width:5;fill:gray;fill-opacity:0.3"/>
<circle cx="2099" cy="2849" r="29" style="stroke-width:5;fill:gray;fill-opacity:0.3"/>
<circle cx="8510" cy="2756" r="30" style="stroke-width:5;fill:gray;fill-opacity:0.3"/>
<circle cx="8883" cy="1441" r="12" style="stroke-width:5;fill:gray;fill-opacity:0.3"/>
<circle cx="5881" cy="4451" r="66" style="stroke-width:5;fill:gray;fill-opacity:0.3"/>
<circle cx="7494" cy="3274" r="39" style="stroke-width:5;fill:gray;fill-opacity:0.3"/>
<circle cx="1328" cy="3035" r="37" style="stroke-width:5;fill:gray;fill-opacity:0.3"/>
<circle cx="9138" cy="673" r="43" style="stroke-width:5;fill:gray;fill-opacity:0.3"/>
<circle cx="4192" cy="4457" r="50" style="stroke-width:5;fill:gray;fill-opacity:0.3"/>
<circle cx="2090" cy="3973" r="68" style="stroke-width:5;fill:gray;fill-opacity:0.3"/>
<circle cx="9076" cy="696" r="26" style="stroke-width:5;fill:gray;fill-opacity:0.3"/>
<circle cx="5890" cy="2063" r="69" style="stroke-width:5;fill:gray;fill-opacity:0.3"/>
<circle cx="5632" cy="1189" r="12" style="stroke-width:5;fill:gray;fill-opacity:0.3"/>
<circle cx="8645" cy="43" r="23" style="stroke-width:5;fill:gray;fill-opacity:0.3"/>
<circle cx="7137" cy="4066" r="30" style="stroke-width:5;fill:gray;fill-opacity:0.3"/>
<circle cx="6091" cy="963" r="34" style="stroke-width:5;fill:gray;fill-opacity:0.3"/>
<circle cx="3469" cy="2155" r="18" style="stroke-width:5;fill:gray;fill-opacity:0.3"/>
<circle cx="5252" cy="4741" r="47" style="stroke-width:5;fill:gray;fill-opacity:0.3"/>
<circle cx="3500" cy="465" r="58" style="stroke-width:5;fill:gray;fill-opacity:0.3"/>
<circle cx="1249" cy="2214" r="61" style="stroke-width:5;fill:gray;fill-opacity:0.3"/>
<circle cx="150" cy="3403" r="14" style="stroke-width:5;fill:gray;fill-opacity:0.3"/>
<circle cx="4236" cy="888" r="53" style="stroke-width:5;fill:gray;fill-opacity:0.3"/>
<circle cx="4550" cy="866" r="58" style="stroke-width:5;fill:gray;fill-opacity:0.3"/>
<circle cx="1291" cy="1174" r="28" style="stroke-width:5;fill:gray;fill-opacity:0.3"/>
<circle cx="7511" cy="3702" r="8" style="stroke-width:5;fill:gray;fill-opacity:0.3"/>
<circle cx="9606" cy="3549" r="8" style="stroke-width:5;fill:gray;fill-opacity:0.3"/>
<circle cx="473" cy="1991" r="74" style="stroke-width:5;fill:gray;fill-opacity:0.3"/>
<circle cx="2009" cy="4666" r="72" style="stroke-width:5;fill:gray;fill-opacity:0.3"/>
<circle cx="2993" cy="1258" r="6" style="stroke-width:5;fill:gray;fill-opacity:0.3"/>
<circle cx="770" cy="2352" r="32" style="stroke-width:5;fill:gray;fill-opacity:0.3"/>
<circle cx="8843" cy="2283" r="84" style="stroke-width:5;fill:gray;fill-opacity:0.3"/>
<circle cx="7922" cy="566" r="49" style="stroke-width:5;fill:gray;fill-opacity:0.3"/>
<circle cx="9604" cy="1626" r="32" style="stroke-width:5;fill:gray;fill-opacity:0.3"/>
<circle cx="3057" cy="3681" r="71" style="stroke-width:5;fill:gray;fill-opacity:0.3"/>
<circle cx="639" cy="4182" r="82" style="stroke-width:5;fill:gray;fill-opacity:0.3"/>
<circle cx="591" cy="3671" r="38" style="stroke-width:5;fill:gray;fill-opacity:0.3"/>
<circle cx="6853" cy="609" r="23" style="stroke-width:5;fill:gray;fill-opacity:0.3"/>
<circle cx="2318" cy="3915" r="67" style="stroke-width:5;fill:gray;fill-opacity:0.3"/>
<circle cx="7624" cy="3010" r="43" style="stroke-width:5;fill:gray;fill-opacity:0.3"/>
<circle cx="7465" cy="2451" r="81" style="stroke-width:5;fill:gray;fill-opacity:0.3"/>
<circle cx="6175" cy="4015" r="10" style="stroke-width:5;fill:gray;fill-opacity:0.3"/>
<circle cx="5954" cy="3104" r="14" style="stroke-width:5;fill:gray;fill-opacity:0.3"/>
<circle cx="2109" cy="1366" r="53" style="stroke-width:5;fill:gray;fill-opacity:0.3"/>
<circle cx="6303" cy="2996" r="28" style="stroke-width:5;fill:gray;fill-opacity:0.3"/>
<circle cx="5852" cy="3987" r="13" style="stroke-width:5;fill:gray;fill-opacity:0.3"/>
<circle cx="7719" cy="1329" r="74" style="stroke-width:5;fill:gray;fill-opacity:0.3"/>
<circle cx="7025" cy="3890" r="54" style="stroke-width:5;fill:gray;fill-opacity:0.3"/>
<circle cx="8750" cy="1587" r="37" style="stroke-width:5;fill:gray;fill-opacity:0.3"/>
<circle cx="5358" cy="3789" r="7" style="stroke-width:5;fill:gray;fill-opacity:0.3"/>
<circle cx="2309" cy="810" r="17" style="stroke-width:5;fill:gray;fill-opacity:0.3"/>
<circle cx="7351" cy="2423" r="11" style="stroke-width:5;fill:gray;fill-opacity:0.3"/>
<circle cx="6802" cy="2527" r="60" style="stroke-width:5;fill:gray;fill-opacity:0.3"/>
<circle cx="4794" cy="2143" r="6" style="stroke-width:5;fill:gray;fill-opacity:0.3"/>
<circle cx="745" cy="1760" r="9" style="stroke-width:5;fill:gray;fill-opacity:0.3"/>
<circle cx="499" cy="3745" r="16" style="stroke-width:5;fill:gray;fill-opacity:0.3"/>
<circle cx="3959" cy="1177" r="58" style="stroke-width:5;fill:gray;fill-opacity:0.3"/>
<circle cx="5194" cy="275" r="14" style="stroke-width:5;fill:gray;fill-opacity:0.3"/>
<circle cx="8458" cy="1514" r="56" style="stroke-width:5;fill:gray;fill-opacity:0.3"/>
<circle cx="5855" cy="3523" r="26" style="stroke-width:5;fill:gray;fill-opacity:0.3"/>
<circle cx="5318" cy="1761" r="82" style="stroke-width:5;fill:gray;fill-opacity:0.3"/>
<circle cx="4000" cy="3033" r="71" style="stroke-width:5;fill:gray;fill-opacity:0.3"/>
<circle cx="5381" cy="141" r="28" style="stroke-width:5;fill:gray;fill-opacity:0.3"/>
</svg>