<svg viewBox="0 0 1680 4552" xmlns="http://www.w3.org/2000/svg">
<rect height="403" style="stroke:pink;stroke-width:10;fill:gray;fill-opacity:0.1;stroke-opacity:0.9" width="462" x="636" y="197"/>
<circle cx="1480" cy="459" r="5" style="fill:blue"/>
<circle cx="947" cy="1415" r="5" style="fill:blue"/>
<circle cx="16" cy="3969" r="5" style="fill:blue"/>
<circle cx="969" cy="1407" r="5" style="fill:blue"/>
<circle cx="1123" cy="2201" r="5" style="fill:blue"/>
<circle cx="46" cy="1227" r="5" style="fill:blue"/>
<circle cx="14" cy="2238" r="5" style="fill:blue"/>
<circle cx="81" cy="3092" r="5" style="fill:blue"/>
<circle cx="249" cy="388" r="5" style="fill:blue"/>
<circle cx="1514" cy="267" r="5" style="fill:blue"/>
<circle cx="674" cy="4417" r="5" style="fill:blue"/>
<circle cx="1377" cy="3939" r="5" style="fill:blue"/>
<circle cx="631" cy="609" r="5" style="fill:blue"/>
<circle cx="165" cy="861" r="5" style="fill:blue"/>
<circle cx="1017" cy="36" r="5" style="fill:blue"/>
<circle cx="236" cy="2291" r="5" style="fill:blue"/>
<circle cx="818" cy="4384" r="5" style="fill:blue"/>
<circle cx="1651" cy="2503" r="5" style="fill:blue"/>
<circle cx="1612" cy="2002" r="5" style="fill:blue"/>
<circle cx="858" cy="2312" r="5" style="fill:blue"/>
<circle cx="374" cy="1075" r="5" style="fill:blue"/>
<circle cx="89" cy="584" r="5" style="fill:blue"/>
<circle cx="354" cy="2258" r="5" style="fill:blue"/>
<circle cx="369" cy="2908" r="5" style="fill:blue"/>
<circle cx="273" cy="3782" r="5" style="fill:blue"/>
<circle cx="567" cy="4481" r="5" style="fill:blue"/>
<circle cx="86" cy="218" r="5" style="fill:blue"/>
<circle cx="742" cy="2677" r="5" style="fill:blue"/>
<circle cx="895" cy="2482" r="5" style="fill:blue"/>
<circle cx="705" cy="3803" r="5" style="fill:blue"/>
<circle cx="1561" cy="467" r="5" style="fill:blue"/>
<circle cx="1398" cy="1785" r="5" style="fill:blue"/>
<circle cx="180" cy="4210" r="5" style="fill:blue"/>
<circle cx="52" cy="1655" r="5" style="fill:blue"/>
<circle cx="219" cy="3017" r="5" style="fill:blue"/>
<circle cx="769" cy="1649" r="5" style="fill:blue"/>
<circle cx="341" cy="146" r="5" style="fill:blue"/>
<circle cx="1499" cy="2717" r="5" style="fill:blue"/>
<circle cx="556" cy="3859" r="5" style="fill:blue"/>
<circle cx="1581" cy="1514" r="5" style="fill:blue"/>
<circle cx="389" cy="409" r="5" style="fill:blue"/>
<circle cx="1500" cy="3296" r="5" style="fill:blue"/>
<circle cx="723" cy="4025" r="5" style="fill:blue"/>
<circle cx="367" cy="2475" r="5" style="fill:blue"/>
<circle cx="848" cy="3172" r="5" style="fill:blue"/>
<circle cx="52" cy="666" r="5" style="fill:blue"/>
<circle cx="19" cy="3787" r="5" style="fill:blue"/>
<circle cx="1479" cy="2760" r="5" style="fill:blue"/>
<circle cx="1665" cy="158" r="5" style="fill:blue"/>
<circle cx="969" cy="3984" r="5" style="fill:blue"/>
<circle cx="688" cy="3654" r="5" style="fill:blue"/>
<circle cx="426" cy="2555" r="5" style="fill:blue"/>
<circle cx="55" cy="2433" r="5" style="fill:blue"/>
<circle cx="169" cy="2155" r="5" style="fill:blue"/>
<circle cx="935" cy="1941" r="5" style="fill:blue"/>
<circle cx="1543" cy="4320" r="5" style="fill:blue"/>
<circle cx="1473" cy="2540" r="5" style="fill:blue"/>
<circle cx="893" cy="125" r="5" style="fill:blue"/>
<circle cx="1673" cy="2369" r="5" style="fill:blue"/>
<circle cx="1496" cy="251" r="5" style="fill:blue"/>
<circle cx="221" cy="3874" r="5" style="fill:blue"/>
<circle cx="487" cy="3291" r="5" style="fill:blue"/>
<circle cx="350" cy="363" r="5" style="fill:blue"/>
<circle cx="139" cy="2357" r="5" style="fill:blue"/>
<circle cx="1052" cy="1777" r="5" style="fill:blue"/>
<circle cx="1166" cy="43" r="5" style="fill:blue"/>
<circle cx="807" cy="1377" r="5" style="fill:blue"/>
<circle cx="466" cy="1210" r="5" style="fill:blue"/>
<circle cx="1354" cy="2004" r="5" style="fill:blue"/>
<circle cx="735" cy="881" r="5" style="fill:blue"/>
<circle cx="418" cy="3868" r="5" style="fill:blue"/>
<circle cx="695" cy="2101" r="5" style="fill:blue"/>
<circle cx="1579" cy="1189" r="5" style="fill:blue"/>
<circle cx="1340" cy="1187" r="5" style="fill:blue"/>
<circle cx="382" cy="871" r="5" style="fill:blue"/>
<circle cx="1347" cy="289" r="5" style="fill:blue"/>
<circle cx="392" cy="1937" r="5" style="fill:blue"/>
<circle cx="112" cy="4378" r="5" style="fill:blue"/>
<circle cx="72" cy="2520" r="5" style="fill:blue"/>
<circle cx="915" cy="2026" r="5" style="fill:blue"/>
<circle cx="1640" cy="3832" r="5" style="fill:blue"/>
<circle cx="1647" cy="3526" r="5" style="fill:blue"/>
<circle cx="4" cy="3506" r="5" style="fill:blue"/>
<circle cx="1590" cy="781" r="5" style="fill:blue"/>
<circle cx="957" cy="2922" r="5" style="fill:blue"/>
<circle cx="832" cy="3839" r="5" style="fill:blue"/>
<circle cx="600" cy="54" r="5" style="fill:blue"/>
<circle cx="80" cy="1102" r="5" style="fill:blue"/>
<circle cx="1309" cy="1459" r="5" style="fill:blue"/>
<circle cx="449" cy="3221" r="5" style="fill:blue"/>
<circle cx="41" cy="184" r="5" style="fill:blue"/>
<circle cx="1114" cy="3623" r="5" style="fill:blue"/>
<circle cx="1399" cy="2508" r="5" style="fill:blue"/>
<circle cx="499" cy="2064" r="5" style="fill:blue"/>
<circle cx="331" cy="538" r="5" style="fill:blue"/>
<circle cx="1448" cy="2453" r="5" style="fill:blue"/>
<circle cx="1658" cy="4026" r="5" style="fill:blue"/>
<circle cx="74" cy="3813" r="5" style="fill:blue"/>
<circle cx="213" cy="1838" r="5" style="fill:blue"/>
<circle cx="200" cy="3696" r="5" style="fill:blue"/>
<circle cx="614" cy="3015" r="5" style="fill:blue"/>
<circle cx="881" cy="3808" r="5" style="fill:blue"/>
<circle cx="1526" cy="157" r="5" style="fill:blue"/>
<circle cx="1376" cy="328" r="5" style="fill:blue"/>
<circle cx="763" cy="1017" r="5" style="fill:blue"/>
<circle cx="833" cy="3303" r="5" style="fill:blue"/>
<circle cx="1235" cy="3362" r="5" style="fill:blue"/>
<circle cx="796" cy="190" r="5" style="fill:blue"/>
<circle cx="1220" cy="2993" r="5" style="fill:blue"/>
<circle cx="715" cy="3868" r="5" style="fill:blue"/>
<circle cx="892" cy="1335" r="5" style="fill:blue"/>
<circle cx="1092" cy="3125" r="5" style="fill:blue"/>
<circle cx="1455" cy="122" r="5" style="fill:blue"/>
<circle cx="653" cy="2673" r="5" style="fill:blue"/>
<circle cx="512" cy="3122" r="5" style="fill:blue"/>
<circle cx="230" cy="3287" r="5" style="fill:blue"/>
<circle cx="303" cy="1110" r="5" style="fill:blue"/>
<circle cx="1128" cy="248" r="5" style="fill:blue"/>
<circle cx="13" cy="4533" r="5" style="fill:blue"/>
<circle cx="1092" cy="776" r="5" style="fill:blue"/>
<circle cx="266" cy="3346" r="5" style="fill:blue"/>
<circle cx="714" cy="2072" r="5" style="fill:blue"/>
<circle cx="225" cy="348" r="5" style="fill:blue"/>
<circle cx="1028" cy="3712" r="5" style="fill:blue"/>
<circle cx="1620" cy="4512" r="5" style="fill:blue"/>
<circle cx="1213" cy="4466" r="5" style="fill:blue"/>
<circle cx="448" cy="4161" r="5" style="fill:blue"/>
<circle cx="513" cy="1348" r="5" style="fill:blue"/>
<circle cx="284" cy="2349" r="5" style="fill:blue"/>
<circle cx="636" cy="737" r="5" style="fill:blue"/>
<circle cx="309" cy="4232" r="5" style="fill:blue"/>
<circle cx="705" cy="958" r="5" style="fill:blue"/>
<circle cx="860" cy="4338" r="5" style="fill:blue"/>
<circle cx="660" cy="1005" r="5" style="fill:blue"/>
<circle cx="1662" cy="2951" r="5" style="fill:blue"/>
<circle cx="1639" cy="2459" r="5" style="fill:blue"/>
<circle cx="1289" cy="1023" r="5" style="fill:blue"/>
<circle cx="1598" cy="1606" r="5" style="fill:blue"/>
<circle cx="1045" cy="3361" r="5" style="fill:blue"/>
<circle cx="1666" cy="6" r="5" style="fill:blue"/>
<circle cx="691" cy="2573" r="5" style="fill:blue"/>
<circle cx="1598" cy="2373" r="5" style="fill:blue"/>
<circle cx="65" cy="1266" r="5" style="fill:blue"/>
<circle cx="1669" cy="701" r="5" style="fill:blue"/>
<circle cx="1296" cy="1879" r="5" style="fill:blue"/>
<circle cx="1294" cy="30" r="5" style="fill:blue"/>
<circle cx="418" cy="464" r="5" style="fill:blue"/>
<circle cx="574" cy="3808" r="5" style="fill:blue"/>
<circle cx="272" cy="1236" r="5" style="fill:blue"/>
<circle cx="1511" cy="773" r="5" style="fill:blue"/>
<circle cx="1635" cy="3006" r="5" style="fill:blue"/>
<circle cx="1420" cy="69" r="5" style="fill:blue"/>
<circle cx="596" cy="1429" r="5" style="fill:blue"/>
<circle cx="535" cy="2727" r="5" style="fill:blue"/>
<circle cx="1341" cy="2118" r="5" style="fill:blue"/>
<circle cx="633" cy="3944" r="5" style="fill:blue"/>
<circle cx="341" cy="3341" r="5" style="fill:blue"/>
<circle cx="365" cy="1920" r="5" style="fill:blue"/>
<circle cx="1204" cy="4283" r="5" style="fill:blue"/>
<circle cx="1385" cy="2522" r="5" style="fill:blue"/>
<circle cx="605" cy="2145" r="5" style="fill:blue"/>
<circle cx="676" cy="143" r="5" style="fill:blue"/>
<circle cx="612" cy="1804" r="5" style="fill:blue"/>
<circle cx="1427" cy="2856" r="5" style="fill:blue"/>
<circle cx="1022" cy="1788" r="5" style="fill:blue"/>
<circle cx="877" cy="2750" r="5" style="fill:blue"/>
<circle cx="1564" cy="3339" r="5" style="fill:blue"/>
<circle cx="284" cy="4108" r="5" style="fill:blue"/>
<circle cx="1381" cy="2919" r="5" style="fill:blue"/>
<circle cx="635" cy="2744" r="5" style="fill:blue"/>
<circle cx="700" cy="3636" r="5" style="fill:blue"/>
<circle cx="596" cy="2972" r="5" style="fill:blue"/>
<circle cx="0" cy="2635" r="5" style="fill:blue"/>
<circle cx="464" cy="3766" r="5" style="fill:blue"/>
<circle cx="1465" cy="2466" r="5" style="fill:blue"/>
<circle cx="363" cy="1820" r="5" style="fill:blue"/>
<circle cx="961" cy="3956" r="5" style="fill:blue"/>
<circle cx="512" cy="3740" r="5" style="fill:blue"/>
<circle cx="1531" cy="4401" r="5" style="fill:blue"/>
<circle cx="423" cy="2001" r="5" style="fill:blue"/>
<circle cx="269" cy="3699" r="5" style="fill:blue"/>
<circle cx="1085" cy="2182" r="5" style="fill:blue"/>
<circle cx="1427" cy="1965" r="5" style="fill:blue"/>
<circle cx="1677" cy="2426" r="5" style="fill:blue"/>
<circle cx="1641" cy="2777" r="5" style="fill:blue"/>
<circle cx="236" cy="4162" r="5" style="fill:blue"/>
<circle cx="674" cy="3377" r="5" style="fill:blue"/>
<circle cx="375" cy="3248" r="5" style="fill:blue"/>
<circle cx="176" cy="3749" r="5" style="fill:blue"/>
<circle cx="1329" cy="2898" r="5" style="fill:blue"/>
<circle cx="134" cy="4084" r="5" style="fill:blue"/>
<circle cx="622" cy="1500" r="5" style="fill:blue"/>
<circle cx="97" cy="940" r="5" style="fill:blue"/>
<circle cx="1060" cy="2340" r="5" style="fill:blue"/>
<circle cx="331" cy="2171" r="5" style="fill:blue"/>
<circle cx="491" cy="2731" r="5" style="fill:blue"/>
<circle cx="328" cy="683" r="5" style="fill:blue"/>
<circle cx="944" cy="3940" r="5" style="fill:blue"/>
<circle cx="1653" cy="790" r="5" style="fill:blue"/>
<circle cx="601" cy="3579" r="5" style="fill:blue"/>
<circle cx="473" cy="450" r="5" style="fill:blue"/>
<circle cx="616" cy="1644" r="5" style="fill:blue"/>
<circle cx="808" cy="921" r="5" style="fill:blue"/>
<circle cx="1619" cy="3033" r="5" style="fill:blue"/>
<circle cx="1030" cy="950" r="5" style="fill:blue"/>
<circle cx="1654" cy="1742" r="5" style="fill:blue"/>
<circle cx="427" cy="1638" r="5" style="fill:blue"/>
<circle cx="928" cy="2435" r="5" style="fill:blue"/>
<circle cx="189" cy="1375" r="5" style="fill:blue"/>
<circle cx="284" cy="4374" r="5" style="fill:blue"/>
<circle cx="804" cy="3667" r="5" style="fill:blue"/>
<circle cx="577" cy="2042" r="5" style="fill:blue"/>
<circle cx="911" cy="3502" r="5" style="fill:blue"/>
<circle cx="1432" cy="1391" r="5" style="fill:blue"/>
<circle cx="649" cy="4051" r="5" style="fill:blue"/>
<circle cx="605" cy="4007" r="5" style="fill:blue"/>
<circle cx="1194" cy="1935" r="5" style="fill:blue"/>
<circle cx="1121" cy="1157" r="5" style="fill:blue"/>
<circle cx="1592" cy="55" r="5" style="fill:blue"/>
<circle cx="15" cy="2331" r="5" style="fill:blue"/>
<circle cx="621" cy="794" r="5" style="fill:blue"/>
<circle cx="1366" cy="2416" r="5" style="fill:blue"/>
<circle cx="1431" cy="1204" r="5" style="fill:blue"/>
<circle cx="444" cy="11" r="5" style="fill:blue"/>
<circle cx="1058" cy="4119" r="5" style="fill:blue"/>
<circle cx="786" cy="2201" r="5" style="fill:blue"/>
<circle cx="356" cy="480" r="5" style="fill:blue"/>
<circle cx="721" cy="1331" r="5" style="fill:blue"/>
<circle cx="716" cy="2166" r="5" style="fill:blue"/>
<circle cx="1570" cy="62" r="5" style="fill:blue"/>
<circle cx="63" cy="1295" r="5" style="fill:blue"/>
<circle cx="1638" cy="1482" r="5" style="fill:blue"/>
<circle cx="420" cy="2134" r="5" style="fill:blue"/>
<circle cx="362" cy="2358" r="5" style="fill:blue"/>
<circle cx="1085" cy="3234" r="5" style="fill:blue"/>
<circle cx="262" cy="2366" r="5" style="fill:blue"/>
<circle cx="1457" cy="2197" r="5" style="fill:blue"/>
<circle cx="498" cy="2967" r="5" style="fill:blue"/>
<circle cx="875" cy="3684" r="5" style="fill:blue"/>
<circle cx="995" cy="671" r="5" style="fill:blue"/>
<circle cx="223" cy="2089" r="5" style="fill:blue"/>
<circle cx="963" cy="3412" r="5" style="fill:blue"/>
<circle cx="1276" cy="1354" r="5" style="fill:blue"/>
<circle cx="367" cy="146" r="5" style="fill:blue"/>
<circle cx="1040" cy="194" r="5" style="fill:blue"/>
<circle cx="1327" cy="3040" r="5" style="fill:blue"/>
<circle cx="404" cy="931" r="5" style="fill:blue"/>
<circle cx="577" cy="724" r="5" style="fill:blue"/>
<circle cx="263" cy="1797" r="5" style="fill:blue"/>
<circle cx="1022" cy="3222" r="5" style="fill:blue"/>
<circle cx="1196" cy="3438" r="5" style="fill:blue"/>
<circle cx="987" cy="2289" r="5" style="fill:blue"/>
<circle cx="1099" cy="218" r="5" style="fill:blue"/>
<circle cx="849" cy="2486" r="5" style="fill:blue"/>
<circle cx="1431" cy="2382" r="5" style="fill:blue"/>
<circle cx="812" cy="1330" r="5" style="fill:blue"/>
<circle cx="358" cy="662" r="5" style="fill:blue"/>
<circle cx="1488" cy="2178" r="5" style="fill:blue"/>
<circle cx="803" cy="2383" r="5" style="fill:blue"/>
<circle cx="477" cy="229" r="5" style="fill:blue"/>
<circle cx="1505" cy="631" r="5" style="fill:blue"/>
<circle cx="169" cy="1152" r="5" style="fill:blue"/>
<circle cx="1247" cy="3268" r="5" style="fill:blue"/>
<circle cx="388" cy="1980" r="5" style="fill:blue"/>
<circle cx="347" cy="2938" r="5" style="fill:blue"/>
<circle cx="36" cy="2573" r="5" style="fill:blue"/>
<circle cx="1036" cy="1646" r="5" style="fill:blue"/>
<circle cx="1666" cy="617" r="5" style="fill:blue"/>
<circle cx="162" cy="1098" r="5" style="fill:blue"/>
<circle cx="1679" cy="738" r="5" style="fill:blue"/>
<circle cx="1480" cy="3432" r="5" style="fill:blue"/>
<circle cx="1155" cy="2695" r="5" style="fill:blue"/>
<circle cx="536" cy="2922" r="5" style="fill:blue"/>
<circle cx="1614" cy="1680" r="5" style="fill:blue"/>
<circle cx="1408" cy="1967" r="5" style="fill:blue"/>
<circle cx="6" cy="341" r="5" style="fill:blue"/>
<circle cx="1647" cy="164" r="5" style="fill:blue"/>
<circle cx="980" cy="877" r="5" style="fill:blue"/>
<circle cx="1355" cy="491" r="5" style="fill:blue"/>
<circle cx="1081" cy="3734" r="5" style="fill:blue"/>
<circle cx="171" cy="2278" r="5" style="fill:blue"/>
<circle cx="1394" cy="4229" r="5" style="fill:blue"/>
<circle cx="1549" cy="831" r="5" style="fill:blue"/>
<circle cx="1293" cy="2898" r="5" style="fill:blue"/>
<circle cx="227" cy="1358" r="5" style="fill:blue"/>
<circle cx="1507" cy="1544" r="5" style="fill:blue"/>
<circle cx="1178" cy="2351" r="5" style="fill:blue"/>
<circle cx="1658" cy="3530" r="5" style="fill:blue"/>
<circle cx="572" cy="4017" r="5" style="fill:blue"/>
<circle cx="1222" cy="1909" r="5" style="fill:blue"/>
<circle cx="1553" cy="573" r="5" style="fill:blue"/>
<circle cx="1063" cy="3223" r="5" style="fill:blue"/>
<circle cx="241" cy="3638" r="5" style="fill:blue"/>
<circle cx="133" cy="1449" r="5" style="fill:blue"/>
<circle cx="1210" cy="2885" r="5" style="fill:blue"/>
<circle cx="823" cy="963" r="5" style="fill:blue"/>
<circle cx="216" cy="1424" r="5" style="fill:blue"/>
<circle cx="1053" cy="2537" r="5" style="fill:blue"/>
<circle cx="1310" cy="1153" r="5" style="fill:blue"/>
<circle cx="783" cy="2283" r="5" style="fill:blue"/>
<circle cx="888" cy="2774" r="5" style="fill:blue"/>
<circle cx="518" cy="875" r="5" style="fill:blue"/>
<circle cx="95" cy="153" r="5" style="fill:blue"/>
<circle cx="1412" cy="959" r="5" style="fill:blue"/>
<circle cx="840" cy="1779" r="5" style="fill:blue"/>
<circle cx="970" cy="1078" r="5" style="fill:blue"/>
<circle cx="790" cy="1458" r="5" style="fill:blue"/>
<circle cx="1121" cy="1087" r="5" style="fill:blue"/>
<circle cx="179" cy="2696" r="5" style="fill:blue"/>
<circle cx="434" cy="3214" r="5" style="fill:blue"/>
<circle cx="448" cy="2133" r="5" style="fill:blue"/>
<circle cx="569" cy="1780" r="5" style="fill:blue"/>
<circle cx="804" cy="4352" r="5" style="fill:blue"/>
<circle cx="1523" cy="2386" r="5" style="fill:blue"/>
<circle cx="579" cy="4203" r="5" style="fill:blue"/>
<circle cx="1460" cy="3680" r="5" style="fill:blue"/>
<circle cx="940" cy="4403" r="5" style="fill:blue"/>
<circle cx="1166" cy="3956" r="5" style="fill:blue"/>
<circle cx="657" cy="4274" r="5" style="fill:blue"/>
<circle cx="1391" cy="4020" r="5" style="fill:blue"/>
<circle cx="362" cy="3900" r="5" style="fill:blue"/>
<circle cx="1180" cy="3096" r="5" style="fill:blue"/>
<circle cx="24" cy="3316" r="5" style="fill:blue"/>
<circle cx="24" cy="1210" r="5" style="fill:blue"/>
<circle cx="69" cy="3885" r="5" style="fill:blue"/>
<circle cx="259" cy="730" r="5" style="fill:blue"/>
<circle cx="388" cy="1862" r="5" style="fill:blue"/>
<circle cx="1109" cy="1110" r="5" style="fill:blue"/>
<circle cx="559" cy="1292" r="5" style="fill:blue"/>
<circle cx="1180" cy="1956" r="5" style="fill:blue"/>
<circle cx="1592" cy="2999" r="5" style="fill:blue"/>
<circle cx="1280" cy="89" r="5" style="fill:blue"/>
<circle cx="213" cy="3142" r="5" style="fill:blue"/>
<circle cx="468" cy="2429" r="5" style="fill:blue"/>
<circle cx="166" cy="3072" r="5" style="fill:blue"/>
<circle cx="401" cy="2838" r="5" style="fill:blue"/>
<circle cx="126" cy="1" r="5" style="fill:blue"/>
<circle cx="10" cy="4311" r="5" style="fill:blue"/>
<circle cx="1580" cy="934" r="5" style="fill:blue"/>
<circle cx="799" cy="2489" r="5" style="fill:blue"/>
<circle cx="1528" cy="1705" r="5" style="fill:blue"/>
<circle cx="1621" cy="2544" r="5" style="fill:blue"/>
<circle cx="736" cy="2688" r="5" style="fill:blue"/>
<circle cx="596" cy="4341" r="5" style="fill:blue"/>
<circle cx="281" cy="3826" r="5" style="fill:blue"/>
<circle cx="21" cy="2790" r="5" style="fill:blue"/>
<circle cx="1504" cy="3394" r="5" style="fill:blue"/>
<circle cx="372" cy="1536" r="5" style="fill:blue"/>
<circle cx="85" cy="4438" r="5" style="fill:blue"/>
<circle cx="99" cy="4478" r="5" style="fill:blue"/>
<circle cx="1514" cy="300" r="5" style="fill:blue"/>
<circle cx="1011" cy="2514" r="5" style="fill:blue"/>
<circle cx="1199" cy="3182" r="5" style="fill:blue"/>
<circle cx="1322" cy="785" r="5" style="fill:blue"/>
<circle cx="271" cy="2877" r="5" style="fill:blue"/>
<circle cx="645" cy="730" r="5" style="fill:blue"/>
<circle cx="1270" cy="2830" r="5" style="fill:blue"/>
<circle cx="335" cy="4252" r="5" style="fill:blue"/>
<circle cx="1554" cy="3010" r="5" style="fill:blue"/>
<circle cx="1145" cy="2204" r="5" style="fill:blue"/>
<circle cx="695" cy="1724" r="5" style="fill:blue"/>
<circle cx="902" cy="1978" r="5" style="fill:blue"/>
<circle cx="1497" cy="1259" r="5" style="fill:blue"/>
<circle cx="152" cy="1256" r="5" style="fill:blue"/>
<circle cx="1130" cy="1113" r="5" style="fill:blue"/>
<circle cx="1387" cy="798" r="5" style="fill:blue"/>
<circle cx="55" cy="3852" r="5" style="fill:blue"/>
<circle cx="1661" cy="2181" r="5" style="fill:blue"/>
<circle cx="437" cy="2706" r="5" style="fill:blue"/>
<circle cx="1172" cy="1323" r="5" style="fill:blue"/>
<circle cx="159" cy="1657" r="5" style="fill:blue"/>
<circle cx="387" cy="2364" r="5" style="fill:blue"/>
<circle cx="1076" cy="3839" r="5" style="fill:blue"/>
<circle cx="32" cy="3307" r="5" style="fill:blue"/>
<circle cx="1604" cy="846" r="5" style="fill:blue"/>
<circle cx="419" cy="4154" r="5" style="fill:blue"/>
<circle cx="493" cy="3061" r="5" style="fill:blue"/>
<circle cx="111" cy="3048" r="5" style="fill:blue"/>
<circle cx="1399" cy="2699" r="5" style="fill:blue"/>
<circle cx="1674" cy="2228" r="5" style="fill:blue"/>
<circle cx="1537" cy="3481" r="5" style="fill:blue"/>
<circle cx="992" cy="2976" r="5" style="fill:blue"/>
<circle cx="618" cy="3797" r="5" style="fill:blue"/>
<circle cx="1593" cy="3198" r="5" style="fill:blue"/>
<circle cx="1176" cy="2068" r="5" style="fill:blue"/>
<circle cx="289" cy="617" r="5" style="fill:blue"/>
<circle cx="967" cy="2795" r="5" style="fill:blue"/>
<circle cx="1561" cy="344" r="5" style="fill:blue"/>
<circle cx="724" cy="1276" r="5" style="fill:blue"/>
<circle cx="1602" cy="1905" r="5" style="fill:blue"/>
<circle cx="1082" cy="2599" r="5" style="fill:blue"/>
<circle cx="1212" cy="3158" r="5" style="fill:blue"/>
<circle cx="938" cy="4425" r="5" style="fill:blue"/>
<circle cx="1213" cy="3141" r="5" style="fill:blue"/>
<circle cx="1193" cy="269" r="5" style="fill:blue"/>
<circle cx="573" cy="1641" r="5" style="fill:blue"/>
<circle cx="1125" cy="24" r="5" style="fill:blue"/>
<circle cx="492" cy="1754" r="5" style="fill:blue"/>
<circle cx="1298" cy="3340" r="5" style="fill:blue"/>
<circle cx="988" cy="2204" r="5" style="fill:blue"/>
<circle cx="289" cy="2734" r="9" style="stroke-width:5;fill:gray;fill-opacity:0.3"/>
<circle cx="195" cy="4101" r="40" style="stroke-width:5;fill:gray;fill-opacity:0.3"/>
<circle cx="770" cy="2416" r="46" style="stroke-width:5;fill:gray;fill-opacity:0.3"/>
<circle cx="761" cy="736" r="8" style="stroke-width:5;fill:gray;fill-opacity:0.3"/>
<circle cx="633" cy="1834" r="34" style="stroke-width:5;fill:gray;fill-opacity:0.3"/>
<circle cx="697" cy="3732" r="50" style="stroke-width:5;fill:gray;fill-opacity:0.3"/>
<circle cx="667" cy="3197" r="58" style="stroke-width:5;fill:gray;fill-opacity:0.3"/>
<circle cx="154" cy="1908" r="82" style="stroke-width:5;fill:gray;fill-opacity:0.3"/>
<circle cx="1233" cy="976" r="66" style="stroke-width:5;fill:gray;fill-opacity:0.3"/>
<circle cx="390" cy="4019" r="38" style="stroke-width:5;fill:gray;fill-opacity:0.3"/>
<circle cx="810" cy="3027" r="82" style="stroke-width:5;fill:gray;fill-opacity:0.3"/>
<circle cx="317" cy="1322" r="61" style="stroke-width:5;fill:gray;fill-opacity:0.3"/>
<circle cx="810" cy="2946" r="79" style="stroke-width:5;fill:gray;fill-opacity:0.3"/>
<circle cx="873" cy="1953" r="21" style="stroke-width:5;fill:gray;fill-opacity:0.3"/>
<circle cx="555" cy="383" r="77" style="stroke-width:5;fill:gray;fill-opacity:0.3"/>
<circle cx="1227" cy="908" r="30" style="stroke-width:5;fill:gray;fill-opacity:0.3"/>
<circle cx="406" cy="4415" r="49" style="stroke-width:5;fill:gray;fill-opacity:0.3"/>
<circle cx="422" cy="4278" r="9" style="stroke-width:5;fill:gray;fill-opacity:0.3"/>
<circle cx="632" cy="3536" r="45" style="stroke-width:5;fill:gray;fill-opacity:0.3"/>
<circle cx="707" cy="3096" r="41" style="stroke-width:5;fill:gray;fill-opacity:0.3"/>
<circle cx="555" cy="2350" r="42" style="stroke-width:5;fill:gray;fill-opacity:0.3"/>
<circle cx="520" cy="3418" r="57" style="stroke-width:5;fill:gray;fill-opacity:0.3"/>
<circle cx="620" cy="3419" r="13" style="stroke-width:5;fill:gray;fill-opacity:0.3"/>
<circle cx="1464" cy="4199" r="62" style="stroke-width:5;fill:gray;fill-opacity:0.3"/>
<circle cx="1004" cy="1157" r="60" style="stroke-width:5;fill:gray;fill-opacity:0.3"/>
<circle cx="1321" cy="4036" r="31" style="stroke-width:5;fill:gray;fill-opacity:0.3"/>
<circle cx="748" cy="1645" r="16" style="stroke-width:5;fill:gray;fill-opacity:0.3"/>
<circle cx="922" cy="947" r="41" style="stroke-width:5;fill:gray;fill-opacity:0.3"/>
<circle cx="1389" cy="1557" r="37" style="stroke-width:5;fill:gray;fill-opacity:0.3"/>
<circle cx="964" cy="787" r="61" style="stroke-width:5;fill:gray;fill-opacity:0.3"/>
<circle cx="217" cy="2629" r="10" style="stroke-width:5;fill:gray;fill-opacity:0.3"/>
<circle cx="323" cy="1193" r="49" style="stroke-width:5;fill:gray;fill-opacity:0.3"/>
<circle cx="754" cy="2642" r="10" style="stroke-width:5;fill:gray;fill-opacity:0.3"/>
<circle cx="1070" cy="2431" r="43" style="stroke-width:5;fill:gray;fill-opacity:0.3"/>
<circle cx="1355" cy="3621" r="71" style="stroke-width:5;fill:gray;fill-opacity:0.3"/>
<circle cx="476" cy="3567" r="45" style="stroke-width:5;fill:gray;fill-opacity:0.3"/>
<circle cx="1329" cy="3492" r="81" style="stroke-width:5;fill:gray;fill-opacity:0.3"/>
<circle cx="355" cy="1367" r="35" style="stroke-width:5;fill:gray;fill-opacity:0.3"/>
<circle cx="1224" cy="735" r="41" style="stroke-width:5;fill:gray;fill-opacity:0.3"/>
<circle cx="700" cy="1170" r="21" style="stroke-width:5;fill:gray;fill-opacity:0.3"/>
<circle cx="723" cy="3440" r="26" style="stroke-width:5;fill:gray;fill-opacity:0.3"/>
<circle cx="360" cy="4041" r="54" style="stroke-width:5;fill:gray;fill-opacity:0.3"/>
<circle cx="867" cy="686" r="78" style="stroke-width:5;fill:gray;fill-opacity:0.3"/>
<circle cx="504" cy="3598" r="78" style="stroke-width:5;fill:gray;fill-opacity:0.3"/>
<circle cx="1283" cy="2053" r="80" style="stroke-width:5;fill:gray;fill-opacity:0.3"/>
<circle cx="1564" cy="1947" r="41" style="stroke-width:5;fill:gray;fill-opacity:0.3"/>
<circle cx="173" cy="2879" r="57" style="stroke-width:5;fill:gray;fill-opacity:0.3"/>
<circle cx="1331" cy="1411" r="14" style="stroke-width:5;fill:gray;fill-opacity:0.3"/>
<circle cx="49" cy="4255" r="40" style="stroke-width:5;fill:gray;fill-opacity:0.3"/>
<circle cx="401" cy="257" r="44" style="stroke-width:5;fill:gray;fill-opacity:0.3"/>
<circle cx="745" cy="1973" r="8" style="stroke-width:5;fill:gray;fill-opacity:0.3"/>
<circle cx="1392" cy="1889" r="32" style="stroke-width:5;fill:gray;fill-opacity:0.3"/>
<circle cx="555" cy="3155" r="15" style="stroke-width:5;fill:gray;fill-opacity:0.3"/>
<circle cx="195" cy="236" r="63" style="stroke-width:5;fill:gray;fill-opacity:0.3"/>
<circle cx="934" cy="3615" r="81" style="stroke-width:5;fill:gray;fill-opacity:0.3"/>
<circle cx="341" cy="2027" r="16" style="stroke-width:5;fill:gray;fill-opacity:0.3"/>
<circle cx="996" cy="2630" r="53" style="stroke-width:5;fill:gray;fill-opacity:0.3"/>
<circle cx="1287" cy="1394" r="37" style="stroke-width:5;fill:gray;fill-opacity:0.3"/>
<circle cx="247" cy="120" r="64" style="stroke-width:5;fill:gray;fill-opacity:0.3"/>
<circle cx="320" cy="4180" r="22" style="stroke-width:5;fill:gray;fill-opacity:0.3"/>
<circle cx="398" cy="2965" r="50" style="stroke-width:5;fill:gray;fill-opacity:0.3"/>
<circle cx="585" cy="3784" r="13" style="stroke-width:5;fill:gray;fill-opacity:0.3"/>
<circle cx="1242" cy="4450" r="12" style="stroke-width:5;fill:gray;fill-opacity:0.3"/>
<circle cx="178" cy="4032" r="20" style="stroke-width:5;fill:gray;fill-opacity:0.3"/>
<circle cx="1416" cy="179" r="30" style="stroke-width:5;fill:gray;fill-opacity:0.3"/>
<circle cx="1163" cy="4046" r="46" style="stroke-width:5;fill:gray;fill-opacity:0.3"/>
<circle cx="112" cy="2591" r="24" style="stroke-width:5;fill:gray;fill-opacity:0.3"/>
<circle cx="1350" cy="2293" r="76" style="stroke-width:5;fill:gray;fill-opacity:0.3"/>
<circle cx="629" cy="3973" r="17" style="stroke-width:5;fill:gray;fill-opacity:0.3"/>
<circle cx="1340" cy="3012" r="8" style="stroke-width:5;fill:gray;fill-opacity:0.3"/>
<circle cx="1223" cy="2550" r="73" style="stroke-width:5;fill:gray;fill-opacity:0.3"/>
<circle cx="1510" cy="1405" r="9" style="stroke-width:5;fill:gray;fill-opacity:0.3"/>
<circle cx="153" cy="1993" r="73" style="stroke-width:5;fill:gray;fill-opacity:0.3"/>
<circle cx="1134" cy="3941" r="12" style="stroke-width:5;fill:gray;fill-opacity:0.3"/>
<circle cx="488" cy="1662" r="18" style="stroke-width:5;fill:gray;fill-opacity:0.3"/>
<circle cx="1586" cy="1857" r="31" style="stroke-width:5;fill:gray;fill-opacity:0.3"/>
<circle cx="516" cy="3486" r="24" style="stroke-width:5;fill:gray;fill-opacity:0.3"/>
<circle cx="242" cy="2523" r="62" style="stroke-width:5;fill:gray;fill-opacity:0.3"/>
<circle cx="1135" cy="4037" r="55" style="stroke-width:5;fill:gray;fill-opacity:0.3"/>
<circle cx="602" cy="1579" r="65" style="stroke-width:5;fill:gray;fill-opacity:0.3"/>
<circle cx="666" cy="4234" r="6" style="stroke-width:5;fill:gray;fill-opacity:0.3"/>
<circle cx="79" cy="1024" r="63" style="stroke-width:5;fill:gray;fill-opacity:0.3"/>
<circle cx="876" cy="1461" r="79" style="stroke-width:5;fill:gray;fill-opacity:0.3"/>
<circle cx="389" cy="3692" r="81" style="stroke-width:5;fill:gray;fill-opacity:0.3"/>
<circle cx="112" cy="3151" r="24" style="stroke-width:5;fill:gray;fill-opacity:0.3"/>
<circle cx="904" cy="2539" r="8" style="stroke-width:5;fill:gray;fill-opacity:0.3"/>
<circle cx="1032" cy="4176" r="14" style="stroke-width:5;fill:gray;fill-opacity:0.3"/>
<circle cx="1248" cy="867" r="37" style="stroke-width:5;fill:gray;fill-opacity:0.3"/>
<circle cx="547" cy="318" r="76" style="stroke-width:5;fill:gray;fill-opacity:0.3"/>
<circle cx="1191" cy="2829" r="10" style="stroke-width:5;fill:gray;fill-opacity:0.3"/>
<circle cx="659" cy="2780" r="31" style="stroke-width:5;fill:gray;fill-opacity:0.3"/>
<circle cx="186" cy="3250" r="54" style="stroke-width:5;fill:gray;fill-opacity:0.3"/>
<circle cx="893" cy="68" r="36" style="stroke-width:5;fill:gray;fill-opacity:0.3"/>
<circle cx="737" cy="1423" r="62" style="stroke-width:5;fill:gray;fill-opacity:0.3"/>
<circle cx="961" cy="959" r="67" style="stroke-width:5;fill:gray;fill-opacity:0.3"/>
<circle cx="1020" cy="2081" r="79" style="stroke-width:5;fill:gray;fill-opacity:0.3"/>
<circle cx="875" cy="4209" r="48" style="stroke-width:5;fill:gray;fill-opacity:0.3"/>
<circle cx="575" cy="1351" r="55" style="stroke-width:5;fill:gray;fill-opacity:0.3"/>
<circle cx="1124" cy="3438" r="58" style="stroke-width:5;fill:gray;fill-opacity:0.3"/>
<circle cx="550" cy="2515" r="61" style="stroke-width:5;fill:gray;fill-opacity:0.3"/>
<circle cx="426" cy="3068" r="23" style="stroke-width:5;fill:gray;fill-opacity:0.3"/>
<circle cx="423" cy="2189" r="13" style="stroke-width:5;fill:gray;fill-opacity:0.3"/>
<circle cx="1542" cy="413" r="16" style="stroke-width:5;fill:gray;fill-opacity:0.3"/>
<circle cx="955" cy="4193" r="66" style="stroke-width:5;fill:gray;fill-opacity:0.3"/>
<circle cx="333" cy="1596" r="56" style="stroke-width:5;fill:gray;fill-opacity:0.3"/>
<circle cx="1488" cy="3974" r="33" style="stroke-width:5;fill:gray;fill-opacity:0.3"/>
<circle cx="1231" cy="623" r="44" style="stroke-width:5;fill:gray;fill-opacity:0.3"/>
<circle cx="1273" cy="4061" r="65" style="stroke-width:5;fill:gray;fill-opacity:0.3"/>
<circle cx="1379" cy="3715" r="7" style="stroke-width:5;fill:gray;fill-opacity:0.3"/>
<circle cx="686" cy="1442" r="63" style="stroke-width:5;fill:gray;fill-opacity:0.3"/>
<circle cx="261" cy="293" r="24" style="stroke-width:5;fill:gray;fill-opacity:0.3"/>
<circle cx="1481" cy="1206" r="46" style="stroke-width:5;fill:gray;fill-opacity:0.3"/>
<circle cx="500" cy="1435" r="30" style="stroke-width:5;fill:gray;fill-opacity:0.3"/>
<circle cx="1360" cy="4059" r="13" style="stroke-width:5;fill:gray;fill-opacity:0.3"/>
<circle cx="668" cy="3437" r="53" style="stroke-width:5;fill:gray;fill-opacity:0.3"/>
<circle cx="229" cy="2148" r="18" style="stroke-width:5;fill:gray;fill-opacity:0.3"/>
<circle cx="1240" cy="662" r="56" style="stroke-width:5;fill:gray;fill-opacity:0.3"/>
<circle cx="533" cy="2802" r="44" style="stroke-width:5;fill:gray;fill-opacity:0.3"/>
<circle cx="718" cy="2427" r="52" style="stroke-width:5;fill:gray;fill-opacity:0.3"/>
<circle cx="318" cy="3613" r="49" style="stroke-width:5;fill:gray;fill-opacity:0.3"/>
<circle cx="1430" cy="3456" r="22" style="stroke-width:5;fill:gray;fill-opacity:0.3"/>
<circle cx="986" cy="125" r="37" style="stroke-width:5;fill:gray;fill-opacity:0.3"/>
<circle cx="1468" cy="864" r="65" style="stroke-width:5;fill:gray;fill-opacity:0.3"/>
<circle cx="1252" cy="3201" r="52" style="stroke-width:5;fill:gray;fill-opacity:0.3"/>
<circle cx="1585" cy="2291" r="81" style="stroke-width:5;fill:gray;fill-opacity:0.3"/>
<circle cx="645" cy="3318" r="50" style="stroke-width:5;fill:gray;fill-opacity:0.3"/>
<circle cx="395" cy="4267" r="57" style="stroke-width:5;fill:gray;fill-opacity:0.3"/>
<circle cx="668" cy="2378" r="39" style="stroke-width:5;fill:gray;fill-opacity:0.3"/>
<circle cx="800" cy="3583" r="40" style="stroke-width:5;fill:gray;fill-opacity:0.3"/>
<circle cx="457" cy="2989" r="10" style="stroke-width:5;fill:gray;fill-opacity:0.3"/>
<circle cx="976" cy="3749" r="10" style="stroke-width:5;fill:gray;fill-opacity:0.3"/>
<circle cx="429" cy="2768" r="19" style="stroke-width:5;fill:gray;fill-opacity:0.3"/>
<circle cx="863" cy="1770" r="6" style="stroke-width:5;fill:gray;fill-opacity:0.3"/>
<circle cx="549" cy="2393" r="74" style="stroke-width:5;fill:gray;fill-opacity:0.3"/>
<circle cx="997" cy="4206" r="68" style="stroke-width:5;fill:gray;fill-opacity:0.3"/>
<circle cx="1124" cy="54" r="9" style="stroke-width:5;fill:gray;fill-opacity:0.3"/>
<circle cx="718" cy="3458" r="77" style="stroke-width:5;fill:gray;fill-opacity:0.3"/>
<circle cx="1014" cy="2069" r="29" style="stroke-width:5;fill:gray;fill-opacity:0.3"/>
<circle cx="274" cy="1929" r="46" style="stroke-width:5;fill:gray;fill-opacity:0.3"/>
<circle cx="654" cy="2149" r="12" style="stroke-width:5;fill:gray;fill-opacity:0.3"/>
<circle cx="942" cy="3202" r="72" style="stroke-width:5;fill:gray;fill-opacity:0.3"/>
<circle cx="118" cy="674" r="24" style="stroke-width:5;fill:gray;fill-opacity:0.3"/>
<circle cx="1347" cy="3460" r="84" style="stroke-width:5;fill:gray;fill-opacity:0.3"/>
<circle cx="519" cy="2240" r="64" style="stroke-width:5;fill:gray;fill-opacity:0.3"/>
<circle cx="666" cy="1182" r="58" style="stroke-width:5;fill:gray;fill-opacity:0.3"/>
<circle cx="867" cy="620" r="8" style="stroke-width:5;fill:gray;fill-opacity:0.3"/>
<circle cx="109" cy="2060" r="59" style="stroke-width:5;fill:gray;fill-opacity:0.3"/>
<circle cx="1007" cy="1555" r="28" style="stroke-width:5;fill:gray;fill-opacity:0.3"/>
<circle cx="433" cy="1337" r="70" style="stroke-width:5;fill:gray;fill-opacity:0.3"/>
<circle cx="639" cy="1296" r="37" style="stroke-width:5;fill:gray;fill-opacity:0.3"/>
<circle cx="1001" cy="1166" r="82" style="stroke-width:5;fill:gray;fill-opacity:0.3"/>
<circle cx="585" cy="4068" r="37" style="stroke-width:5;fill:gray;fill-opacity:0.3"/>
<circle cx="1606" cy="1505" r="26" style="stroke-width:5;fill:gray;fill-opacity:0.3"/>
<circle cx="1408" cy="1499" r="23" style="stroke-width:5;fill:gray;fill-opacity:0.3"/>
<circle cx="1194" cy="4084" r="75" style="stroke-width:5;fill:gray;fill-opacity:0.3"/>
<circle cx="142" cy="3629" r="16" style="stroke-width:5;fill:gray;fill-opacity:0.3"/>
<circle cx="1316" cy="2941" r="23" style="stroke-width:5;fill:gray;fill-opacity:0.3"/>
<circle cx="898" cy="4373" r="44" style="stroke-width:5;fill:gray;fill-opacity:0.3"/>
<circle cx="485" cy="2198" r="51" style="stroke-width:5;fill:gray;fill-opacity:0.3"/>
<circle cx="1147" cy="1646" r="71" style="stroke-width:5;fill:gray;fill-opacity:0.3"/>
<circle cx="940" cy="1282" r="44" style="stroke-width:5;fill:gray;fill-opacity:0.3"/>
<circle cx="397" cy="1276" r="74" style="stroke-width:5;fill:gray;fill-opacity:0.3"/>
<circle cx="1084" cy="3624" r="22" style="stroke-width:5;fill:gray;fill-opacity:0.3"/>
<circle cx="1059" cy="4011" r="31" style="stroke-width:5;fill:gray;fill-opacity:0.3"/>
<circle cx="560" cy="1942" r="73" style="stroke-width:5;fill:gray;fill-opacity:0.3"/>
<circle cx="1034" cy="2348" r="27" style="stroke-width:5;fill:gray;fill-opacity:0.3"/>
<circle cx="230" cy="493" r="56" style="stroke-width:5;fill:gray;fill-opacity:0.3"/>
<circle cx="1370" cy="4097" r="9" style="stroke-width:5;fill:gray;fill-opacity:0.3"/>
<circle cx="1235" cy="598" r="72" style="stroke-width:5;fill:gray;fill-opacity:0.3"/>
<circle cx="707" cy="2900" r="53" style="stroke-width:5;fill:gray;fill-opacity:0.3"/>
<circle cx="1223" cy="916" r="77" style="stroke-width:5;fill:gray;fill-opacity:0.3"/>
<circle cx="1005" cy="2920" r="33" style="stroke-width:5;fill:gray;fill-opacity:0.3"/>
<circle cx="801" cy="1182" r="74" style="stroke-width:5;fill:gray;fill-opacity:0.3"/>
<circle cx="514" cy="1439" r="58" style="stroke-width:5;fill:gray;fill-opacity:0.3"/>
<circle cx="544" cy="1710" r="34" style="stroke-width:5;fill:gray;fill-opacity:0.3"/>
<circle cx="99" cy="1889" r="41" style="stroke-width:5;fill:gray;fill-opacity:0.3"/>
<circle cx="727" cy="1801" r="72" style="stroke-width:5;fill:gray;fill-opacity:0.3"/>
<circle cx="1147" cy="2899" r="63" style="stroke-width:5;fill:gray;fill-opacity:0.3"/>
<circle cx="321" cy="979" r="66" style="stroke-width:5;fill:gray;fill-opacity:0.3"/>
<circle cx="594" cy="3295" r="35" style="stroke-width:5;fill:gray;fill-opacity:0.3"/>
<circle cx="528" cy="2752" r="22" style="stroke-width:5;fill:gray;fill-opacity:0.3"/>
<circle cx="1319" cy="2764" r="56" style="stroke-width:5;fill:gray;fill-opacity:0.3"/>
<circle cx="1185" cy="491" r="81" style="stroke-width:5;fill:gray;fill-opacity:0.3"/>
<circle cx="894" cy="3965" r="51" style="stroke-width:5;fill:gray;fill-opacity:0.3"/>
<circle cx="1397" cy="703" r="82" style="stroke-width:5;fill:gray;fill-opacity:0.3"/>
<circle cx="1005" cy="1739" r="26" style="stroke-width:5;fill:gray;fill-opacity:0.3"/>
<circle cx="110" cy="392" r="36" style="stroke-width:5;fill:gray;fill-opacity:0.3"/>
<circle cx="845" cy="4483" r="67" style="stroke-width:5;fill:gray;fill-opacity:0.3"/>
<circle cx="956" cy="1289" r="25" style="stroke-width:5;fill:gray;fill-opacity:0.3"/>
<circle cx="525" cy="1311" r="38" style="stroke-width:5;fill:gray;fill-opacity:0.3"/>
<circle cx="389" cy="249" r="42" style="stroke-width:5;fill:gray;fill-opacity:0.3"/>
<circle cx="1267" cy="1162" r="33" style="stroke-width:5;fill:gray;fill-opacity:0.3"/>
<circle cx="296" cy="1722" r="52" style="stroke-width:5;fill:gray;fill-opacity:0.3"/>
<circle cx="912" cy="1022" r="26" style="stroke-width:5;fill:gray;fill-opacity:0.3"/>
</svg>